<?xml version="1.0" encoding="UTF-8"?>
<svg width="64" height="64" version="1.1" viewBox="0 0 64 64" xmlns="http://www.w3.org/2000/svg" xmlns:cc="http://creativecommons.org/ns#" xmlns:dc="http://purl.org/dc/elements/1.1/" xmlns:rdf="http://www.w3.org/1999/02/22-rdf-syntax-ns#" xmlns:xlink="http://www.w3.org/1999/xlink">
  <metadata>
    <rdf:RDF>
      <cc:Work rdf:about="">
        <dc:format>image/svg+xml</dc:format>
        <dc:type rdf:resource="http://purl.org/dc/dcmitype/StillImage"/>
      </cc:Work>
    </rdf:RDF>
  </metadata>
  <defs>
    <style id="current-color-scheme" type="text/css">.ColorScheme-Text {
        color:#232629;
      }</style>
    <style type="text/css">.ColorScheme-Text { color:#444444; } .ColorScheme-Highlight { color:#4285f4; }</style>
    <style type="text/css">.ColorScheme-Text { color:#444444; } .ColorScheme-Highlight { color:#4285f4; }</style>
    <style type="text/css">.ColorScheme-Text {
        color:#232629;
      }</style>
    <style type="text/css">.ColorScheme-Text {
        color:#232629;
      }</style>
    <style type="text/css">.ColorScheme-Text { color:#444444; } .ColorScheme-Highlight { color:#4285f4; }</style>
    <style type="text/css">.ColorScheme-Text {
        color:#232629;
      }</style>
    <path id="b" d="m369 312.36v44h58v-44h-18.455z"/>
    <style type="text/css">.ColorScheme-Text {
        color:#232629;
      }</style>
    <style type="text/css">.ColorScheme-Text { color:#444444; } .ColorScheme-Highlight { color:#4285f4; }</style>
    <linearGradient id="a-6-2" x2="0" y1="392.36" y2="324.66" gradientTransform="matrix(1 0 0 .84587 365 22.628)" gradientUnits="userSpaceOnUse">
      <stop stop-color="#fff" stop-opacity="0" offset="0"/>
      <stop stop-color="#fff" stop-opacity=".2" offset="1"/>
    </linearGradient>
    <linearGradient id="linearGradient867" x1="381.82" x2="423.61" y1="320.08" y2="356.61" gradientUnits="userSpaceOnUse">
      <stop stop-color="#2980b9" offset="0"/>
      <stop stop-color="#da4453" offset="1"/>
    </linearGradient>
  </defs>
  <g transform="matrix(1.0182 0 0 1.0182 25.274 96.906)">
    <g transform="matrix(.98214 0 0 .98214 .11798 -1.1385)">
      <use transform="translate(-391.39 -398.11)" width="100%" height="100%" fill="url(#linearGradient867)" xlink:href="#b"/>
      <rect x="-22.394" y="-42.747" width="58" height="1" fill="#2e3132" fill-opacity=".294"/>
      <g transform="translate(-391.39 -398.11)" fill="#fff">
        <rect x="369" y="312.36" width="58" height="1" fill-opacity=".41"/>
        <path d="m398 323.36a11 11 0 0 0-11 11 11 11 0 0 0 11 11 11 11 0 0 0 11-11 11 11 0 0 0-11-11m0.14453 0.95117a10 10 0 0 1 10 10 10 10 0 0 1-10 10 10 10 0 0 1-10-10 10 10 0 0 1 10-10" opacity=".75"/>
        <g color="#000000" color-rendering="auto" image-rendering="auto" shape-rendering="auto">
          <path d="m421 314.36v4h4v-4zm0 6v4h4v-4zm0 6v4h4v-4zm0 6v4h4v-4zm0 6v4h4v-4zm0 6v4h4v-4z" opacity=".75"/>
          <path d="m371 314.36v4h4v-4zm0 6v4h4v-4zm0 6v4h4v-4zm0 6v4h4v-4zm0 6v4h4v-4zm0 6v4h4v-4zm0 6v4h4v-4z" opacity=".75"/>
          <path d="m398 328.6c3.1938 0 5.7651 2.5712 5.7651 5.7651 0 3.1939-2.5712 5.7651-5.7651 5.7651-3.1939 0-5.7651-2.5712-5.7651-5.7651 0-3.1939 2.5712-5.7651 5.7651-5.7651z" fill="#da4453"/>
        </g>
      </g>
      <use transform="translate(-391.39 -398.11)" width="100%" height="100%" color="#000000" color-rendering="auto" fill="url(#a-6-2)" image-rendering="auto" shape-rendering="auto" text-rendering="auto" xlink:href="#b"/>
      <g transform="matrix(.8945 0 0 .8945 28.472 -29.777)" fill="#e0d7e0">
        <path d="m-3.5757-41.652v13.076l5.2068-0.11715-10.413 10.472-10.414-10.472h5.2068v-12.958z" stroke-width="2.6034"/>
        <path d="m-22.272-18.221h26.98v2.6034h-26.98z" stroke-width="2.9631"/>
      </g>
    </g>
  </g>
</svg>
