<?xml version="1.0" encoding="UTF-8"?>
<svg width="16" height="16" version="1.1" viewBox="0 0 16 16" xml:space="preserve" xmlns="http://www.w3.org/2000/svg"><defs><style id="current-color-scheme" type="text/css">
      .ColorScheme-Text {
        color:#232629;
      }
      </style><style type="text/css">
      .ColorScheme-Text {
        color:#232629;
      }
      </style><style type="text/css">
   .ColorScheme-Text { color:#444444; } .ColorScheme-Highlight { color:#4285f4; } .ColorScheme-NeutralText { color:#ff9800; } .ColorScheme-PositiveText { color:#4caf50; } .ColorScheme-NegativeText { color:#f44336; }
  </style><style type="text/css">
      .ColorScheme-Text {
        color:#232629;
      }
      </style><style type="text/css">
   .ColorScheme-Text { color:#444444; } .ColorScheme-Highlight { color:#4285f4; } .ColorScheme-NeutralText { color:#ff9800; } .ColorScheme-PositiveText { color:#4caf50; } .ColorScheme-NegativeText { color:#f44336; }
  </style></defs><g transform="translate(0 .37167)"><path class="ColorScheme-Text" d="m10.673 3.2452h-1.7821v-2.6732h-1.7821v2.6732h-1.7821l2.6732 2.6732z" fill="currentColor"/><g transform="matrix(.95974 0 0 .95974 -3.071 1.7698)"><path class="ColorScheme-Text" d="m17.832 5.5198c0.13741 0 0.24802 0.11062 0.24802 0.24802v0.49605c0 0.13741-0.11061 0.24802-0.24802 0.24802h-1.7362v-0.9921zm0 1.9842c0.13741 0 0.24802 0.11062 0.24802 0.24802v0.49605c0 0.13741-0.11061 0.24802-0.24802 0.24802h-1.7362v-0.9921zm0 1.9842c0.13741 0 0.24802 0.11061 0.24802 0.24802v0.49605c0 0.13741-0.11061 0.24802-0.24802 0.24802h-1.7362v-0.9921zm0 1.9842c0.13741 0 0.24802 0.11061 0.24802 0.24802v0.49605c0 0.13741-0.11061 0.24802-0.24802 0.24802h-1.7362v-0.9921zm-12.593-5.9526c-0.13741 0-0.24802 0.11062-0.24802 0.24802v0.49605c0 0.13741 0.11061 0.24802 0.24802 0.24802h1.7362v-0.9921zm0 1.9842c-0.13741 0-0.24802 0.11062-0.24802 0.24802v0.49605c0 0.13741 0.11061 0.24802 0.24802 0.24802h1.7362v-0.9921zm0 1.9842c-0.13741 0-0.24802 0.11061-0.24802 0.24802v0.49605c0 0.13741 0.11061 0.24802 0.24802 0.24802h1.7362v-0.9921zm0 1.9842c-0.13741 0-0.24802 0.11061-0.24802 0.24802v0.49605c0 0.13741 0.11061 0.24802 0.24802 0.24802h1.7362v-0.9921zm3.3204-6.9316h5.9526c0.54962 0 0.9921 0.44247 0.9921 0.9921v6.9317c0 0.54962-0.44248 0.9921-0.9921 0.9921h-5.9526c-0.54962 0-0.9921-0.44248-0.9921-0.9921v-6.9317c0-0.54962 0.44248-0.9921 0.9921-0.9921z" fill="currentColor" stroke-width=".9921"/><g transform="matrix(.41561 0 0 .41561 -128.52 -217.66)" fill="#f5f5f5"><path d="m335.67 537.36c-1.4774 0-2.666 1.1887-2.666 2.666h4v1.334h-5.334c-1.4773 0-2.666 1.1887-2.666 2.666v2.668c0 1.4773 1.1887 2.666 2.666 2.666v-1.334c0-1.1849 0.52051-2.2337 1.334-2.9648 9e-4 -8.1e-4 1e-3 -3e-3 2e-3 -4e-3 0.17619-0.15809 0.36677-0.29968 0.56836-0.42578 2e-3 -1e-3 4e-3 -3e-3 6e-3 -4e-3 0.19855-0.12382 0.4073-0.22833 0.62695-0.31642 0.0396-0.0155 0.0829-0.0248 0.12305-0.0391 0.18662-0.0679 0.37546-0.1306 0.57422-0.16992 0.24828-0.0479 0.50296-0.0762 0.76563-0.0762h5.3338v-4c0-1.4774-1.1887-2.666-2.666-2.666zm0 0.66602c0.36933 0 0.66796 0.29863 0.66796 0.66796 0 0.36934-0.29863 0.66602-0.66796 0.66602-0.36934 0-0.66602-0.29668-0.66602-0.66602 0-0.36933 0.29668-0.66796 0.66602-0.66796z" stroke-width="1.3333"/><g transform="translate(326 534.36)"><path d="m16 11-2 2 0.70703 0.70703 1.293-1.293v5.5859h-2v1h5v-1h-2v-7z"/><path d="m10.5 11c-0.70317 0-1.3952 0.35899-1.834 1.041-0.43884 0.68202-0.66602 1.6493-0.66602 2.959 0 1.3097 0.22718 2.277 0.66602 2.959 0.43883 0.68203 1.1308 1.041 1.834 1.041s1.3952-0.35899 1.834-1.041c0.43884-0.68202 0.66602-1.6493 0.66602-2.959 0-1.3097-0.22718-2.277-0.66602-2.959-0.43883-0.68203-1.1308-1.041-1.834-1.041zm0 1c0.4014 0 0.70912 0.14101 0.99414 0.58398 0.08355 0.12986 0.15798 0.29831 0.22656 0.48828l-2.6836 2.6836c-0.021722-0.23269-0.037109-0.48034-0.037109-0.75586 0-1.1903 0.22084-1.973 0.50586-2.416 0.28502-0.44297 0.59274-0.58398 0.99414-0.58398zm1.4629 2.2441c0.021722 0.23269 0.037109 0.48033 0.037109 0.75586 0 1.1903-0.22084 1.973-0.50586 2.416-0.28502 0.44297-0.59275 0.58398-0.99414 0.58398s-0.70912-0.14101-0.99414-0.58398c-0.083555-0.12986-0.15799-0.29831-0.22656-0.48828z"/></g></g></g></g></svg>
