<?xml version="1.0" encoding="UTF-8" standalone="no"?>
<svg
   viewBox="-65.242937 -57.888544 127.19229 128.79751"
   width="96"
   height="96"
   version="1.1"
   id="svg2"
   inkscape:version="1.3 (0e150ed6c4, 2023-07-21)"
   sodipodi:docname="penrose-cpp.svg"
   xmlns:inkscape="http://www.inkscape.org/namespaces/inkscape"
   xmlns:sodipodi="http://sodipodi.sourceforge.net/DTD/sodipodi-0.dtd"
   xmlns="http://www.w3.org/2000/svg"
   xmlns:svg="http://www.w3.org/2000/svg"
   xmlns:rdf="http://www.w3.org/1999/02/22-rdf-syntax-ns#"
   xmlns:cc="http://creativecommons.org/ns#"
   xmlns:dc="http://purl.org/dc/elements/1.1/">
  <metadata
     id="metadata28">
    <rdf:RDF>
      <cc:Work
         rdf:about="">
        <dc:format>image/svg+xml</dc:format>
        <dc:type
           rdf:resource="http://purl.org/dc/dcmitype/StillImage" />
        <dc:title />
      </cc:Work>
    </rdf:RDF>
  </metadata>
  <defs
     id="defs26">
    <style
       type="text/css"
       id="current-color-scheme">&#10;      .ColorScheme-Text {&#10;        color:#232629;&#10;      }&#10;      </style>
    <style
       type="text/css"
       id="current-color-scheme-3">&#10;   .ColorScheme-Text { color:#444444; } .ColorScheme-Highlight { color:#4285f4; }&#10;  </style>
  </defs>
  <sodipodi:namedview
     pagecolor="#ffffff"
     bordercolor="#666666"
     borderopacity="1"
     objecttolerance="10"
     gridtolerance="10"
     guidetolerance="10"
     inkscape:pageopacity="0"
     inkscape:pageshadow="2"
     inkscape:window-width="2496"
     inkscape:window-height="1082"
     id="namedview24"
     showgrid="false"
     fit-margin-top="8"
     fit-margin-bottom="8"
     fit-margin-left="8"
     fit-margin-right="8"
     inkscape:zoom="4.3936728"
     inkscape:cx="37.895403"
     inkscape:cy="64.183205"
     inkscape:window-x="904"
     inkscape:window-y="179"
     inkscape:window-maximized="0"
     inkscape:current-layer="g878"
     inkscape:document-rotation="0"
     inkscape:showpageshadow="2"
     inkscape:pagecheckerboard="0"
     inkscape:deskcolor="#d1d1d1" />
  <g
     id="g878"
     transform="matrix(1.0985149,0,0,1.0985149,2.3247839,0.14923957)">
    <g
       id="g1"
       transform="translate(1.9588003,0.46488)"
       style="fill:#36a0ff;fill-opacity:1">
      <path
         d="m -5.5742052,5.1253065 18.8090002,-25.8890005 30.434,9.889 -18.809,25.888 -30.4340002,-9.8879995"
         id="path4"
         style="fill:#36a0ff;stroke:none;fill-opacity:1"
         inkscape:connector-curvature="0" />
      <path
         d="m -5.5742052,5.1253065 -18.8089998,-25.8890005 18.8089998,-25.889 18.8090002,25.889 -18.8090002,25.8890005"
         id="path6"
         style="fill:#36a0ff;stroke:none;fill-opacity:1"
         inkscape:connector-curvature="0" />
      <path
         d="m -5.5742052,5.1253065 -30.4339998,9.8879995 -18.809,-25.888 30.434,-9.889 18.8089998,25.8890005"
         id="path8"
         style="fill:#36a0ff;stroke:none;fill-opacity:1"
         inkscape:connector-curvature="0" />
      <path
         d="M -5.5742052,5.1253065 V 37.125306 l -30.4339998,9.888 v -32 L -5.5742052,5.1253065"
         id="path10"
         style="fill:#36a0ff;stroke:none;fill-opacity:1"
         inkscape:connector-curvature="0" />
      <path
         d="M -5.5742052,5.1253065 24.859795,15.013306 v 32 l -30.4340002,-9.888 V 5.1253065"
         id="path12"
         style="fill:#36a0ff;stroke:none;fill-opacity:1"
         inkscape:connector-curvature="0" />
      <path
         d="m -5.5742052,5.1253065 18.8090002,-25.8890005 30.434,9.889 -18.809,25.888 -30.4340002,-9.8879995"
         id="path14"
         style="fill:#36a0ff;stroke:#000000;stroke-width:0.999522;stroke-linecap:round;stroke-linejoin:round;stroke-miterlimit:4;stroke-dasharray:none;fill-opacity:1"
         inkscape:connector-curvature="0" />
      <path
         d="m -5.5742052,5.1253065 -18.8089998,-25.8890005 18.8089998,-25.889 18.8090002,25.889 -18.8090002,25.8890005"
         id="path16"
         style="fill:#36a0ff;stroke:#000000;stroke-width:0.999522;stroke-linecap:round;stroke-linejoin:round;stroke-miterlimit:4;stroke-dasharray:none;fill-opacity:1"
         inkscape:connector-curvature="0" />
      <path
         d="m -5.5742052,5.1253065 -30.4339998,9.8879995 -18.809,-25.888 30.434,-9.889 18.8089998,25.8890005"
         id="path18"
         style="fill:#36a0ff;stroke:#000000;stroke-width:0.999522;stroke-linecap:round;stroke-linejoin:round;stroke-miterlimit:4;stroke-dasharray:none;fill-opacity:1"
         inkscape:connector-curvature="0" />
      <path
         d="M -5.5742052,5.1253065 V 37.125306 l -30.4339998,9.888 v -32 L -5.5742052,5.1253065"
         id="path20"
         style="fill:#36a0ff;stroke:#000000;stroke-width:0.999522;stroke-linecap:round;stroke-linejoin:round;stroke-miterlimit:4;stroke-dasharray:none;fill-opacity:1"
         inkscape:connector-curvature="0" />
      <path
         d="M -5.5742052,5.1253065 24.859795,15.013306 v 32 l -30.4340002,-9.888 V 5.1253065"
         id="path22"
         style="fill:#36a0ff;stroke:#000000;stroke-width:0.999522;stroke-linecap:round;stroke-linejoin:round;stroke-miterlimit:4;stroke-dasharray:none;fill-opacity:1"
         inkscape:connector-curvature="0" />
    </g>
    <g
       transform="matrix(0.15337944,0,0,0.15337944,-7.4619614,7.4340932)"
       id="g11150">
      <path
         style="fill:#00599c"
         inkscape:connector-curvature="0"
         d="M 302.107,258.262 C 304.508,254.103 306,249.417 306,245.209 V 99.14 c 0,-4.208 -1.49,-8.893 -3.892,-13.052 L 153,172.175 Z"
         id="path11116" />
      <path
         style="fill:#004482"
         inkscape:connector-curvature="0"
         d="m 166.25,341.193 126.5,-73.034 c 3.644,-2.104 6.956,-5.737 9.357,-9.897 L 153,172.175 3.893,258.263 c 2.401,4.159 5.714,7.793 9.357,9.896 l 126.5,73.034 c 7.287,4.208 19.213,4.208 26.5,0 z"
         id="path11118" />
      <path
         style="fill:#659ad2"
         inkscape:connector-curvature="0"
         d="m 302.108,86.087 c -2.402,-4.16 -5.715,-7.793 -9.358,-9.897 L 166.25,3.156 c -7.287,-4.208 -19.213,-4.208 -26.5,0 L 13.25,76.19 C 5.962,80.397 0,90.725 0,99.14 v 146.069 c 0,4.208 1.491,8.894 3.893,13.053 L 153,172.175 Z"
         id="path11120" />
      <g
         id="g11124">
        <path
           style="fill:#ffffff"
           inkscape:connector-curvature="0"
           d="m 153,274.175 c -56.243,0 -102,-45.757 -102,-102 0,-56.243 45.757,-102 102,-102 36.292,0 70.139,19.53 88.331,50.968 l -44.143,25.544 C 188.083,130.951 171.15,121.175 153,121.175 c -28.122,0 -51,22.878 -51,51 0,28.121 22.878,51 51,51 18.152,0 35.085,-9.776 44.191,-25.515 l 44.143,25.543 c -18.192,31.441 -52.04,50.972 -88.334,50.972 z"
           id="path11122" />
      </g>
      <g
         id="g11128">
        <polygon
           style="fill:#ffffff"
           points="221,177.841 232.334,177.841 232.334,189.175 243.666,189.175 243.666,177.841 255,177.841 255,166.508 243.666,166.508 243.666,155.175 232.334,155.175 232.334,166.508 221,166.508 "
           id="polygon11126" />
      </g>
      <g
         id="g11132">
        <polygon
           style="fill:#ffffff"
           points="263.5,177.841 274.834,177.841 274.834,189.175 286.166,189.175 286.166,177.841 297.5,177.841 297.5,166.508 286.166,166.508 286.166,155.175 274.834,155.175 274.834,166.508 263.5,166.508 "
           id="polygon11130" />
      </g>
    </g>
  </g>
</svg>
