<?xml version="1.0" encoding="UTF-8"?>
<svg width="64" height="64" version="1.1" xml:space="preserve" xmlns="http://www.w3.org/2000/svg" xmlns:cc="http://creativecommons.org/ns#" xmlns:dc="http://purl.org/dc/elements/1.1/" xmlns:rdf="http://www.w3.org/1999/02/22-rdf-syntax-ns#"><metadata><rdf:RDF><cc:Work rdf:about=""><dc:format>image/svg+xml</dc:format><dc:type rdf:resource="http://purl.org/dc/dcmitype/StillImage"/></cc:Work></rdf:RDF></metadata><defs><style id="current-color-scheme" type="text/css">.ColorScheme-Text { color:#444444; } .ColorScheme-Highlight { color:#4285f4; }</style><style type="text/css">.ColorScheme-Text {
        color:#232629;
      }</style><style type="text/css">.ColorScheme-Text {
        color:#232629;
      }
      .ColorScheme-NegativeText {
        color:#da4453;
      }</style><linearGradient id="b" x1="12.2" x2="12.2" y1="17" y2="5" gradientTransform="matrix(1.2214 0 0 1.2214 80.351 5.1274)" gradientUnits="userSpaceOnUse"><stop stop-color="#999a9c" offset="0"/><stop stop-color="#dcdfdf" offset="1"/></linearGradient><linearGradient id="c" x1="9" x2="18" y1="9" y2="18" gradientTransform="matrix(1.2214 0 0 1.2214 80.351 5.3274)" gradientUnits="userSpaceOnUse"><stop offset="0"/><stop stop-opacity="0" offset="1"/></linearGradient><linearGradient id="a" x1="2" x2="2.066" y1="20" y2="-2.3547" gradientTransform="matrix(1.4097 0 0 1.4097 78.21 3.186)" gradientUnits="userSpaceOnUse"><stop stop-color="#d72555" offset="0"/><stop stop-color="#d78e9f" offset="1"/></linearGradient></defs><g transform="translate(.0002094 -1.2612)"><g stroke-width=".056216"><path d="m47.413 58.047c-1.5701-0.59025-2.8454-1.0824-2.8341-1.0938 0.01133-0.01132 1.3084 0.46237 2.8823 1.0527 2.492 0.93462 2.8763 1.0642 2.9746 1.003 0.1019-0.06344 0.10538-0.06119 0.03575 0.02307-0.04244 0.05134-0.10568 0.09221-0.14054 0.09082-0.03486-0.0014-1.348-0.48546-2.9181-1.0757zm0.04391-4.6266c-0.18551-0.040901-0.59026-0.16265-0.89945-0.27056-2.0489-0.71505-41.224-14.902-41.406-14.995-0.42059-0.21457-0.8353-0.67308-0.60879-0.67308 0.034567 0 0.1491 0.07574 0.25453 0.16831s0.28778 0.21733 0.40521 0.27724c0.11744 0.05991 4.6385 1.7022 10.047 3.6494 5.4084 1.9473 14.362 5.172 19.896 7.1661 5.5344 1.9941 10.48 3.7762 10.991 3.9602 1.0593 0.38166 1.4927 0.49792 2.0515 0.55028 0.44516 0.04172 1.1072-0.04243 1.6482-0.20951 0.19691-0.06082 0.36834-0.10024 0.38096-0.08762 0.05164 0.05164-0.58145 0.34422-0.95464 0.44116-0.47382 0.12309-1.3028 0.13347-1.8057 0.0226zm-37.512-9.4289c-4.1209-1.548-7.4832-2.8236-7.4719-2.8349 0.021715-0.02172 14.991 5.5818 15.04 5.6296 0.01534 0.01534 0.0047 0.02606-0.02363 0.02382-0.02834-0.0022-3.4231-1.2705-7.5439-2.8185zm38.299 0.88682c-0.21643-0.043-3.3407-1.0645-6.9427-2.2699-3.602-1.2055-13.355-4.4682-21.675-7.2505-8.3189-2.7823-15.258-5.1155-15.418-5.185-0.18277-0.078626-0.38759-0.23088-0.54281-0.40354-0.23593-0.26241-0.25103-0.27028-0.28198-0.14696-0.017979 0.07167 0.10909 1.0492 0.28237 2.1722 0.17328 1.1231 0.30611 2.0687 0.2952 2.1015-0.042863 0.12859-0.66323-4.1625-0.66232-4.5814 0.00164-0.75652-0.019468-0.73224 2.5025-2.8765 1.2195-1.0369 1.6531-1.4384 1.7213-1.5936 0.067345-0.15366 0.45039-0.51227 1.4757-1.3815 0.85391-0.72396 1.3847-1.2124 1.3847-1.2744 0-0.05523-0.05222-0.45777-0.11606-0.89454-0.06383-0.43676-0.1077-0.83721-0.09749-0.8899s0.07831 0.33842 0.15134 0.86912c0.09781 0.71081 0.118 1.0073 0.07665 1.1259-0.03944 0.11314-0.03274 0.31896 0.02255 0.69242 0.04327 0.29228 0.07162 0.56082 0.063 0.59676-0.02289 0.09545-1.4006 1.2858-1.6242 1.4033-0.25737 0.13525-0.87307 0.1391-1.0622 0.0066-0.17956-0.12577-0.20462-0.12203-0.31546 0.04715-0.090484 0.1381-0.088414 0.14859 0.059728 0.30322 0.1861 0.19424 0.56362 0.30886 0.89451 0.27157 0.1765-0.01989 0.32737-0.09293 0.54136-0.26208 0.16317-0.12898 0.47676-0.33817 0.6969-0.46489 0.22013-0.12672 0.51693-0.32686 0.65955-0.44477l0.2593-0.21436 0.23744 1.7255c0.26201 1.904 0.30536 2.0532 0.70278 2.4195 0.30717 0.28314 0.57963 0.42269 1.137 0.58237 0.63033 0.18058 1.8078 0.18052 2.4917-1.13e-4 1.1336-0.29944 2.0298-0.94928 2.2223-1.6114l0.09587-0.32979-0.96508-7.9363 0.30299-0.26794c0.30766-0.27208 0.41132-0.48993 0.34003-0.71457-0.05485-0.1728-0.20187-0.13553-0.4472 0.11336-0.24872 0.25235-0.27571 0.23744-0.33685-0.18606-0.0213-0.14751-0.07633-0.29929-0.12229-0.3373s-0.24595-0.22827-0.44441-0.42279c-0.57939-0.56792-1.2243-0.80068-2.2194-0.801-0.57765-1.18e-4 -1.218 0.07396-1.2866 0.149-0.01897 0.02074 0.03091 0.02207 0.11084 0.0029 0.63534-0.15196 1.559-0.07818 2.0597 0.16456 0.5583 0.27064 0.66374 0.64337 0.3246 1.1473-0.10822 0.16081-0.19844 0.30881-0.20049 0.32889-0.0021 0.02008-0.08573 0.15035-0.18593 0.28948-0.51368 0.71319-1.7308 1.1028-2.741 0.8775-1.0341-0.23064-1.5494-0.87601-1.2629-1.5818l0.09062-0.22326-0.11456 0.14054c-0.33503 0.411-0.41353 0.85234-0.29851 1.6783 0.04458 0.32014 0.07251 0.62371 0.06206 0.67459s-0.06481-0.26174-0.12079-0.6947c-0.092396-0.71456-0.094004-0.81702-0.01742-1.1103 0.1733-0.66366 0.62464-1.175 1.3518-1.5316 0.61977-0.3039 1.1824-0.4257 2.0038-0.43382 0.80115-0.0079 1.3796 0.11743 1.8903 0.40968 0.30289 0.17329 0.75179 0.57363 0.75179 0.67045 0 0.17085 0.3132-0.04807 1.3772-0.96268 1.2657-1.0879 1.7348-1.3856 2.38-1.51 0.17505-0.03376 0.37408-0.07324 0.44229-0.08773 0.11173-0.02374 0.12596-0.06674 0.14342-0.43346l0.01939-0.40711 0.01117 0.41126c0.0061 0.22619-0.01219 0.45492-0.04075 0.50828-0.06152 0.11495 0.18703 3.6876 0.27946 4.0169 0.21134 0.753 1.4662 1.2742 2.8924 1.2013 1.0399-0.05315 1.823-0.3178 2.3786-0.80385 0.47278-0.41358 0.49086-0.50794 0.40596-2.1183-0.05013-0.95082-0.09507-1.3979-0.14925-1.4849-0.04264-0.06848-0.07714-0.15702-0.07667-0.19675 7.07e-4 -0.05583 0.01079-0.05663 0.04451-0.0035 0.02401 0.03778 0.26973 0.13421 0.54606 0.2143 0.64825 0.18785 1.2981 0.475 1.7136 0.75708 0.32264 0.21911 0.66854 0.31333 15.666 4.2678 8.435 2.2241 15.463 4.0864 15.617 4.1388 0.72519 0.24546 1.2893 0.65644 1.5106 1.1004 0.12942 0.25972 0.14681 0.35967 0.14011 0.80548-0.0042 0.27993-0.01762 0.44571-0.02979 0.36842-0.05897-0.37437-0.07787-0.41504-0.15432-0.33201-0.04003 0.04347-0.43445 0.73677-0.8765 1.5406-0.44204 0.80388-0.87294 1.5375-0.95752 1.6302-0.0846 0.09276-1.2102 2.0786-2.5014 4.4129s-2.4105 4.3292-2.4873 4.4329c-0.16641 0.22462-0.35092 0.87008-0.35092 0.87008l-0.24871 0.45441c-1.1473 2.096-1.962 3.5247-2.1124 3.7044-0.2558 0.30523-0.68737 0.57139-1.2069 0.74428-0.55607 0.18508-1.5185 0.23608-2.1367 0.11325zm-24.722-11.226c0.58577-0.21618 0.95505-0.74533 0.80168-1.1487-0.07681-0.20201-0.23278-0.16403-0.39201 0.09548-0.15162 0.24712-0.49441 0.45577-0.85709 0.52168-0.29959 0.05446-0.78902-0.04753-1.756-0.36591-0.46329-0.15253-0.87436-0.26505-0.9135-0.25003-0.10929 0.04194-0.08882 0.44715 0.02792 0.55281 0.0791 0.07158 1.4659 0.54949 1.9552 0.67377 0.28708 0.07293 0.82338 0.03553 1.1339-0.07907zm-3.6-1.2993c0.33971-0.34784 1.1438-1.1826 1.7869-1.8551 0.64312-0.67248 1.1898-1.2227 1.2149-1.2227 0.02509 0 0.6226 0.17906 1.3278 0.39792 1.3837 0.42944 1.8591 0.64272 2.0811 0.93378 0.15629 0.2049 0.24676 0.2304 0.35497 0.10002 0.10895-0.13128-0.02649-0.51765-0.27002-0.77034-0.26-0.26978-0.67446-0.44024-2.2879-0.94097-0.86416-0.26818-1.3249-0.38593-1.3923-0.35576-0.05541 0.0248-0.94775 0.92922-1.983 2.0099-1.5281 1.5951-1.8822 1.9935-1.8822 2.1175 0 0.16407 0.05733 0.2069 0.28631 0.21387 0.11428 0.0035 0.27917-0.13217 0.76341-0.62799zm5.346 0.15411c0.02021-0.29604-0.16101-0.60489-0.33998-0.57945-0.19317 0.02746-0.19988 0.33516-0.01345 0.61687 0.19142 0.28926 0.33216 0.27436 0.35344-0.03742zm-10.753-0.0569c0.27827-0.01974 0.81138-0.09482 1.1847-0.16683 3.0128-0.58117 5.2589-2.19 5.6127-4.0201 0.07341-0.37981 0.03321-1.0978-0.07994-1.4278-0.03074-0.08964-0.05588-0.22096-0.05588-0.29181 0-0.07086-0.0275-0.14584-0.06111-0.16661-0.11332-0.07003-0.18305 0.08233-0.17432 0.38087 0.02655 0.90723-0.40214 1.7139-1.3426 2.5262-2.8688 2.4783-8.8949 2.717-11.257 0.44592-0.34797-0.33454-0.66432-0.83965-0.76494-1.2214-0.067194-0.25491-0.18745-0.39026-0.29027-0.32672-0.09114 0.05633-0.025907 0.78881 0.11374 1.2771 0.14272 0.49907 0.42254 0.94625 0.85762 1.3705 0.64555 0.62956 1.5218 1.0749 2.6876 1.3659 0.83852 0.20933 2.3189 0.36341 2.9232 0.30425 0.0773-0.0076 0.36821-0.02991 0.64648-0.04966zm10.432-0.73539c0.22198-0.06549 0.37132-0.15863 0.54705-0.34121 0.22916-0.23808 0.24085-0.26625 0.22486-0.54235-0.01423-0.24592-0.03511-0.29383-0.13423-0.30799-0.08253-0.01179-0.15762 0.04358-0.25297 0.18654-0.34042 0.51043-0.90035 0.55298-2.132 0.16201-1.1602-0.36828-1.0673-0.36169-1.0673-0.07574 0 0.14582 0.03691 0.28183 0.09344 0.3443 0.08424 0.09308 1.1661 0.46791 1.7335 0.60062 0.34537 0.08077 0.65266 0.07262 0.98762-0.0262zm8.0232-8.1455c0.0399-0.15459 0.07785-0.43286 0.08432-0.61837 0.01135-0.32494 0.0067-0.3373-0.12795-0.3373-0.12651 0-0.14868 0.03722-0.23433 0.39351-0.05203 0.21643-0.09666 0.5027-0.09918 0.63616-0.0044 0.23246 0.0019 0.24191 0.15001 0.22486 0.13385-0.0154 0.16433-0.05551 0.22714-0.29886zm-7.9989-0.64545c1.7914-0.31086 3.0906-0.88756 3.9943-1.7731 0.66366-0.65035 0.82974-1.0058 0.85937-1.8394 0.02527-0.71094-0.0061-0.88583-0.15869-0.88583-0.13077 0-0.22576 0.15805-0.22582 0.37576-1.12e-4 0.30433-0.3206 0.85927-0.72668 1.2582-0.62467 0.61362-1.3016 0.99484-2.4343 1.3709-0.89901 0.29848-1.716 0.42853-2.9181 0.46456-1.1075 0.03319-1.7665-0.01965-2.6405-0.21173-1.5786-0.34693-2.7684-1.1064-3.1881-2.035-0.09433-0.2087-0.19751-0.37945-0.22927-0.37945-0.213 0-0.19688 0.87677 0.0253 1.3765 0.53102 1.1944 2.1169 2.0498 4.3821 2.3639 0.78818 0.10927 2.3791 0.06765 3.2605-0.08529zm5.9082-1.4711 2.4647-1.189 0.34815 0.09277c0.48583 0.12945 0.57466 0.12114 0.64363-0.06023 0.09344-0.24576-0.0097-0.38942-0.35354-0.49266-0.7017-0.21064-0.47073-0.28715-3.447 1.1418-2.8971 1.3909-2.9604 1.431-2.5465 1.6108 0.10271 0.04461 0.24058 0.0821 0.30636 0.08331 0.06579 0.0012 1.2287-0.53284 2.5842-1.1867zm2.3024 0.84455c0.09342-0.09342 0.32147-1.1605 0.29577-1.384-0.01406-0.12221-0.04697-0.15488-0.15604-0.15488-0.12806 0-0.14673 0.03726-0.25357 0.50594-0.09696 0.42533-0.13405 0.50863-0.23278 0.5228-0.0646 0.0093-0.39319-0.06253-0.7302-0.15956-0.85594-0.24643-0.87078-0.24899-0.92706-0.16012-0.07215 0.11393-0.06184 0.35098 0.02015 0.4631 0.04029 0.0551 0.35171 0.18125 0.71675 0.29033 0.68197 0.20378 1.1135 0.22978 1.267 0.07632zm-19.342-3.9267c0.20561-0.07947 0.43057-0.22298 0.57621-0.36761 0.20359-0.20216 0.23891-0.27129 0.23891-0.46753 0-0.45953-0.47195-0.76879-1.2703-0.83238-0.99861-0.07956-2.0464 0.43389-2.0464 1.0028 0 0.34765 0.20374 0.57076 0.67789 0.74233 0.37966 0.13738 1.3774 0.09494 1.8237-0.0776zm-10.341 17.576c0.091517-0.11814 0.2736-0.3256 0.40461-0.461 0.2255-0.23304 0.23685-0.2606 0.21253-0.516l-0.025688-0.2698 0.050948 0.22486c0.032463 0.14328 0.029952 0.29207-0.00692 0.41011-0.045178 0.14461-0.038237 0.22662 0.031651 0.3739 0.13436 0.28316 0.11698 0.36842-0.075109 0.36842-0.090548 0-0.20258-0.03795-0.24896-0.08432-0.11578-0.11578-0.20136-0.10596-0.36756 0.04216-0.12564 0.11198-0.12283 0.10186 0.024484-0.08832zm18.198-24.858c-0.8756-0.19021-1.3881-0.73314-1.2004-1.2716l0.06342-0.18191-0.13963 0.13118c-0.16488 0.15489-0.25796 0.41071-0.31787 0.87356-0.04183 0.32315-0.04279 0.31907-0.02307-0.09745 0.02515-0.53117 0.1673-0.84582 0.53936-1.1938 0.55532-0.51943 1.3317-0.7723 2.3851-0.77682 1.0164-0.00436 1.6558 0.18696 2.2031 0.65921 0.23187 0.20008 0.52531 0.71425 0.52134 0.91353-0.0011 0.05602-0.05172-0.03633-0.11245-0.20522-0.14088-0.39178-0.48581-0.74751-0.92552-0.9545-0.39976-0.18817-0.57043-0.22228-1.2915-0.25808-1.2012-0.059629-2.0532 0.29179-2.0532 0.84681 0 0.21806 0.2597 0.47649 0.59949 0.59662 0.32173 0.11373 1.2648 0.09845 1.6733-0.02711 0.68738-0.21127 0.91481-0.69891 0.50585-1.0846-0.22429-0.21154-0.21437-0.23149 0.04896-0.098439 0.48404 0.24456 0.54614 0.49629 0.2517 1.0202-0.37594 0.66893-0.87656 1.0105-1.674 1.1421-0.40294 0.06649-0.62607 0.05938-1.054-0.03358z" fill="#b4bfc7"/><path d="m47.577 53.55c-0.2824-0.063185-6.3236-2.2188-13.941-4.9747-7.3937-2.6748-16.732-6.052-20.751-7.5049-4.0194-1.453-7.4644-2.7137-7.6555-2.8015-0.36073-0.16587-0.86124-0.57766-0.86124-0.70858 0-0.04135 0.048268-0.10102 0.10726-0.1326 0.087718-0.04695 0.15686-0.01637 0.37945 0.16781 0.15113 0.12505 0.47221 0.30249 0.72191 0.39897 1.854 0.71631 41.7 15.013 42.036 15.082 1.2078 0.24949 2.5122-0.06327 3.2046-0.76839 0.25281-0.25749 0.48734-0.67213 1.6944-2.9955 1.5538-2.9911 1.8702-3.568 1.9559-3.568 0.14622 0-0.11684 0.56266-1.6295 3.4854-1.5439 2.9831-1.6308 3.1362-1.9802 3.4894-0.44101 0.44591-1.0052 0.73469-1.6886 0.86434-0.59181 0.11226-0.97533 0.10408-1.5924-0.03397zm1.6857-0.15332c0.37317-0.09695 1.0063-0.38952 0.95464-0.44116-0.01263-0.01263-0.18406 0.0268-0.38096 0.08762-0.54092 0.16707-1.203 0.25123-1.6482 0.20951-0.55875-0.052373-0.99213-0.16863-2.0515-0.55028-0.5106-0.18396-5.4565-1.966-10.991-3.9602-5.5344-1.9941-14.488-5.2188-19.896-7.1661-5.4084-1.9473-9.9295-3.5895-10.047-3.6494-0.11744-0.059915-0.29979-0.18467-0.40521-0.27724-0.10543-0.092564-0.21997-0.16831-0.25453-0.16831-0.22651 0 0.18821 0.45852 0.60879 0.67308 0.18191 0.0928 39.357 14.279 41.406 14.995 0.30919 0.1079 0.71394 0.22966 0.89945 0.27056 0.50284 0.11087 1.3319 0.10049 1.8057-0.0226zm-0.767-8.3286c-0.2017-0.0279-0.60646-0.12414-0.89945-0.21386-1.4091-0.43149-43.257-14.468-43.492-14.588-0.14885-0.07594-0.34494-0.21632-0.43575-0.31196-0.18949-0.19957-0.23805-0.21295-0.27397-0.075512-0.016317 0.06244-0.028091 0.04358-0.03223-0.05162-0.014343-0.32993 0.048769-0.34102 0.30686-0.05397 0.15165 0.16866 0.35766 0.32129 0.53899 0.39928 0.25403 0.10928 12.514 4.2187 37.163 12.456 4.7719 1.5946 6.7466 2.2304 7.0786 2.279 1.2453 0.1821 2.5523-0.18709 3.1386-0.88654 0.15053-0.17961 0.96522-1.6082 2.1124-3.7044l0.24871-0.45441s0.18452-0.64546 0.35092-0.87008c0.07687-0.10376 1.1962-2.0986 2.4873-4.4329 1.2912-2.3343 2.4167-4.3201 2.5011-4.4129 0.0845-0.09276 0.50191-0.80107 0.92758-1.574 0.96249-1.7478 0.92897-1.6938 0.99123-1.5955 0.02706 0.04273 0.04579 0.17887 0.04164 0.30254-0.0056 0.16722-0.01357 0.18524-0.03099 0.07027-0.01288-0.08503-0.0438-0.1546-0.06872-0.1546s-0.42647 0.69038-0.89234 1.5342c-0.46587 0.84379-0.89683 1.5792-0.95769 1.6342-0.06086 0.05508-1.2025 2.0652-2.5371 4.4669-1.4212 2.5577-2.4833 4.4088-2.5636 4.4682-0.07541 0.05581-0.26964 0.12914-0.43161 0.16297-0.43974 0.09181-0.3142 0.35609 0.17998 0.21436 0.10596-0.03039 0.20331-0.04461 0.21632-0.03159s-0.5039 0.97994-1.1487 2.1487c-1.311 2.3763-1.48 2.6059-2.1562 2.9272-0.68209 0.32417-1.582 0.45721-2.3624 0.34924zm9.052-5.3258c0-0.02404 0.09778-0.23275 0.21728-0.46377 0.38161-0.73778 0.87998-1.6946 1.2143-2.3314 1.3599-2.5904 1.4355-2.7409 1.4355-2.8626 0-0.0811 0.01679-0.09439 0.06207-0.04911 0.03822 0.03822 0.04763 0.14752 0.0245 0.28442-0.04165 0.24654-2.5542 5.1389-2.7422 5.3397-0.11942 0.1275-0.2113 0.1635-0.2113 0.08277zm-35.161-6.0124c-0.48926-0.12428-1.876-0.60219-1.9552-0.67376-0.11674-0.10565-0.13721-0.51087-0.02792-0.55281 0.03914-0.01502 0.45022 0.0975 0.9135 0.25003 0.96703 0.31838 1.4565 0.42038 1.756 0.36591 0.36268-0.06592 0.70546-0.27456 0.85709-0.52168 0.15923-0.25951 0.3152-0.29749 0.39201-0.09548 0.22517 0.59223-0.57808 1.279-1.4763 1.2623-0.19208-0.0036-0.39877-0.0191-0.45932-0.03448zm1.2137-0.25137c0.42533-0.1785 0.74417-0.61988 0.60569-0.83846-0.03843-0.06066-0.09264-0.03087-0.24602 0.1352-0.27699 0.29989-0.70787 0.48847-1.1176 0.48916-0.32979 5.89e-4 -1.1032-0.1967-1.9043-0.48569-0.41488-0.14966-0.53525-0.1282-0.46808 0.08343 0.04019 0.12662 0.18254 0.18726 1.1554 0.49223 1.0225 0.32054 1.444 0.34703 1.975 0.12414zm-4.6593-0.53188c-0.03865-0.01559-0.07027-0.09708-0.07027-0.18107 0-0.12399 0.35408-0.52233 1.8822-2.1175 1.0352-1.0806 1.9276-1.985 1.983-2.0099 0.06741-0.03017 0.52819 0.08756 1.3923 0.35576 1.6134 0.50073 2.0279 0.67118 2.2879 0.94097 0.24353 0.2527 0.37897 0.63907 0.27002 0.77034-0.1082 0.13038-0.19868 0.10488-0.35497-0.10002-0.222-0.29106-0.69736-0.50435-2.0811-0.93378-0.70518-0.21885-1.3027-0.39792-1.3278-0.39792-0.02509 0-0.57181 0.55021-1.2149 1.2227-2.2161 2.3172-2.3914 2.4879-2.5504 2.4831-0.08017-0.0024-0.17738-0.0172-0.21603-0.03279zm1.5392-1.3541c0.67519-0.7034 1.4936-1.5513 1.8188-1.8842l0.59114-0.60533 1.2929 0.40064c1.3855 0.42932 1.8613 0.63033 2.1494 0.90808 0.20705 0.19963 0.26694 0.18176 0.21305-0.06357-0.04657-0.21201-0.35609-0.48919-0.72919-0.65299-0.34256-0.15039-2.8516-0.92747-2.9942-0.92731-0.05848 5.5e-5 -0.76129 0.68771-1.6748 1.6386-2.0508 2.1348-2.1822 2.2809-2.1436 2.3817 0.08081 0.21059 0.2862 0.04426 1.4764-1.1956zm4.4328 0.95044c-0.18643-0.28171-0.17972-0.58941 0.01345-0.61687 0.17898-0.02544 0.36019 0.28341 0.33998 0.57945-0.02128 0.31178-0.16201 0.32668-0.35344 0.03742zm-11.664-0.046c-1.6993-0.053678-3.2696-0.45923-4.3024-1.1112-0.44481-0.2808-0.99806-0.82708-1.242-1.2265-0.10852-0.17761-0.24606-0.49339-0.30564-0.70173-0.13965-0.48832-0.20488-1.2208-0.11374-1.2771 0.10282-0.06355 0.22308 0.07182 0.29027 0.32672 0.49639 1.8831 3.5026 3.0706 6.9184 2.7326 3.6581-0.3619 6.5087-2.3446 6.4461-4.4834-0.0087-0.29853 0.061-0.4509 0.17432-0.38087 0.03361 0.02077 0.06111 0.09575 0.06111 0.16661s0.02515 0.20218 0.05588 0.29181c0.11315 0.32999 0.15334 1.048 0.07994 1.4278-0.35371 1.8301-2.5999 3.4389-5.6127 4.0201-0.37331 0.07202-0.90643 0.1471-1.1847 0.16683-0.27827 0.01975-0.56918 0.04209-0.64648 0.04966-0.0773 0.0076-0.35557 7e-3 -0.61837-0.0013zm1.2338-0.19101c2.3984-0.21986 4.4162-1.0375 5.6805-2.3016 0.61113-0.61109 0.90529-1.1001 1.0353-1.7211 0.07695-0.3675 0.05501-1.0299-0.03717-1.1221-0.0708-0.0708-0.14605 0.03988-0.18484 0.27188-0.05406 0.32338-0.37864 0.95451-0.68554 1.333-1.101 1.3578-3.2493 2.3269-5.8053 2.6188-0.93959 0.10732-1.5536 0.10049-2.5297-0.02817-2.0844-0.27472-3.5651-1.0616-4.2898-2.2796-0.20055-0.33704-0.23704-0.37377-0.25423-0.25598-0.030548 0.20929 0.15314 0.83714 0.34628 1.1835 0.90539 1.6239 3.6963 2.5792 6.7246 2.3015zm9.4753-0.5665c-0.56748-0.13272-1.6493-0.50755-1.7335-0.60062-0.05653-0.06246-0.09344-0.19846-0.09344-0.3443 0-0.28594-0.09293-0.29254 1.0673 0.07574 1.2318 0.39097 1.7916 0.34842 2.132-0.16201 0.09534-0.14296 0.17044-0.19833 0.25297-0.18654 0.09912 0.01416 0.12 0.06207 0.13423 0.30799 0.01598 0.27608 0.0043 0.30426-0.22486 0.54235-0.36359 0.37773-0.92046 0.51105-1.5346 0.3674zm1.1266-0.21043c0.29204-0.13265 0.53173-0.4164 0.53173-0.62945 0-0.20531-0.13038-0.21878-0.25638-0.02648-0.13303 0.20304-0.61518 0.4243-0.9246 0.4243-0.28344 0-0.81666-0.12952-1.6017-0.38905-0.53574-0.17711-0.65476-0.16264-0.55018 0.06691 0.04831 0.10604 0.201 0.17437 0.81079 0.36287 0.9434 0.29162 0.90016 0.2825 1.3697 0.2888 0.2712 0.0036 0.46413-0.02679 0.6207-0.09791zm-11.958-2.3653c-0.74538-0.13662-1.222-0.34145-1.5955-0.68567-0.39742-0.36633-0.44077-0.51559-0.70278-2.4195l-0.23744-1.7255-0.2593 0.21436c-0.14262 0.1179-0.4394 0.31804-0.65955 0.44477-0.22013 0.12672-0.53374 0.33593-0.6969 0.46489-0.21398 0.16914-0.36485 0.24218-0.54136 0.26208-0.33088 0.0373-0.7084-0.07732-0.89451-0.27157-0.14815-0.15463-0.15021-0.16514-0.059728-0.30322 0.11085-0.16918 0.1359-0.17293 0.31546-0.04715 0.18911 0.13247 0.80482 0.12861 1.0622-0.0066 0.22363-0.11752 1.6014-1.3078 1.6242-1.4033 0.0086-0.03594-0.01984-0.30519-0.06325-0.59836-0.0434-0.29316-0.06085-0.58186-0.03878-0.64154 0.04921-0.13308 0.07111-0.03666 0.1764 0.77679l0.07195 0.55582-0.16532 0.13861c-0.60654 0.50851-1.049 0.94365-0.97416 0.95806 0.11913 0.02294 0.5506-0.2287 0.86177-0.5026 0.14699-0.12939 0.28329-0.20957 0.3088-0.18165 0.02512 0.02748 0.15149 0.8321 0.28082 1.788 0.12933 0.95593 0.26921 1.8196 0.31083 1.9192 0.20983 0.50221 0.82843 0.90109 1.6561 1.0678 0.57859 0.11659 1.7479 0.08642 2.3094-0.05959 0.95309-0.24784 1.8404-0.87547 2.0549-1.4535 0.1002-0.27008 0.09929-0.29121-0.07663-1.7708-0.42825-3.6019-0.74119-6.1773-0.77175-6.3512-0.03013-0.17154-0.0065-0.21292 0.27272-0.47784 0.33896-0.32157 0.42158-0.47278 0.28664-0.52456-0.05491-0.02107-0.16503 0.04234-0.29655 0.17077-0.11507 0.11236-0.23572 0.20429-0.2681 0.20429-0.03239 0-0.09066-0.17776-0.1295-0.39503-0.06079-0.34018-0.10807-0.4397-0.34051-0.71675-0.23243-0.27703-0.61877-0.58604-0.61877-0.49491 0 0.01646 0.0505 0.11275 0.11222 0.21399 0.1396 0.22896 0.1479 0.65084 0.02017 1.0257-0.13195 0.38725-0.75242 1.0278-1.2171 1.2566-1.2386 0.60976-2.9659 0.48299-3.7469-0.27501-0.12762-0.12386-0.25827-0.29384-0.29033-0.37774l-0.05828-0.15256-0.16442 0.28108 0.027216-0.16865c0.01497-0.09276 0.04322-0.27485 0.06278-0.40464 0.02916-0.1935 0.32158-0.74778 0.3945-0.74778 0.01097 0-0.01939 0.09414-0.06747 0.2092-0.2868 0.6864 0.24018 1.3389 1.2661 1.5678 1.0103 0.22533 2.2274-0.16431 2.741-0.8775 0.10021-0.13914 0.18388-0.2694 0.18593-0.28948 0.0021-0.02008 0.09227-0.16808 0.20049-0.32889 0.33915-0.50397 0.2337-0.87671-0.3246-1.1473-0.50073-0.24273-1.4244-0.31652-2.0597-0.16456-0.07993 0.01912-0.12981 0.01779-0.11084-0.0029 0.06861-0.07503 0.70892-0.14917 1.2866-0.14898 0.995 3.54e-4 1.6399 0.23308 2.2194 0.80097 0.19846 0.19453 0.39846 0.38478 0.44441 0.42279s0.101 0.18979 0.12229 0.3373c0.06114 0.4235 0.08813 0.4384 0.33685 0.18606 0.24531-0.2489 0.39235-0.28616 0.4472-0.11336 0.0713 0.22464-0.03237 0.4425-0.34003 0.71457l-0.30299 0.26794 0.96508 7.9362-0.09587 0.32978c-0.19069 0.65595-1.0918 1.3139-2.1941 1.6023-0.50189 0.13126-1.6247 0.19253-2.0614 0.1125zm-4.3789-3.737 0.1284-0.13668-0.41373 0.0311c-0.31172 0.02343-0.46783 0.0084-0.63316-0.06082-0.23765-0.09954-0.29118-0.0883-0.23809 0.05003 0.052778 0.13754 0.36871 0.24842 0.71476 0.25084 0.26092 0.0018 0.33495-0.0207 0.44183-0.13447zm23.844-1.785c0.0025-0.13346 0.04716-0.41973 0.09918-0.63616 0.08565-0.35629 0.10781-0.39351 0.23433-0.39351 0.13461 0 0.1393 0.01235 0.12795 0.3373-0.0065 0.18551-0.04442 0.46377-0.08432 0.61837-0.06281 0.24336-0.09329 0.28346-0.22714 0.29886-0.1481 0.01704-0.15439 0.0076-0.15001-0.22486zm-10.882-0.63416c-2.2652-0.31404-3.8511-1.1695-4.3821-2.3639-0.22218-0.49972-0.2383-1.3765-0.0253-1.3765 0.03177 0 0.13494 0.17076 0.22927 0.37945 0.41972 0.92859 1.6095 1.688 3.1881 2.035 0.87399 0.19207 1.533 0.24492 2.6405 0.21173 1.2022-0.03603 2.0192-0.16609 2.9181-0.46456 1.1327-0.37607 1.8097-0.75729 2.4343-1.3709 0.40608-0.39888 0.72658-0.95382 0.72668-1.2582 5.7e-5 -0.21772 0.09504-0.37576 0.22582-0.37576 0.15263 0 0.18395 0.1749 0.15868 0.88583-0.02963 0.83355-0.1957 1.189-0.85937 1.8394-0.90365 0.88553-2.2027 1.4622-3.9943 1.7731-0.88141 0.15294-2.4724 0.19456-3.2605 0.08529zm3.401-0.24602c2.2195-0.42474 3.8442-1.3598 4.4084-2.5371 0.18272-0.38129 0.20121-0.46424 0.20043-0.89945-8.25e-4 -0.45923-0.07059-0.75886-0.13089-0.56217-0.01395 0.04551-0.07989 0.23618-0.14653 0.42371-0.67513 1.8999-4.3196 3.2235-7.7324 2.8084-1.8627-0.22657-3.2646-0.86122-4.0032-1.8125-0.1326-0.17076-0.24108-0.34226-0.24108-0.38114s-0.03795-0.10217-0.08432-0.14066c-0.14837-0.12313-0.11211 0.54163 0.04944 0.90651 0.50742 1.146 1.9665 1.9416 4.1667 2.2721 0.75552 0.11346 2.7442 0.06945 3.5135-0.07776zm2.877-0.20688c-0.41388-0.17976-0.35056-0.21981 2.5465-1.6108 2.9762-1.429 2.7453-1.3525 3.447-1.1418 0.3439 0.10323 0.44698 0.24689 0.35354 0.49266-0.06896 0.18137-0.1578 0.18968-0.64363 0.06023l-0.34815-0.09277-2.4647 1.189c-1.3555 0.65394-2.5185 1.188-2.5842 1.1867-0.06579-0.0012-0.20365-0.0387-0.30636-0.08331zm2.9277-1.2609 2.4457-1.1792 0.35803 0.1017c0.40204 0.11421 0.49856 0.10314 0.49856-0.05716 0-0.1234-0.18969-0.21819-0.65336-0.32647l-0.28796-0.06725-2.6349 1.2677c-1.4492 0.69723-2.6435 1.2935-2.654 1.325-0.02595 0.07786 0.21519 0.17083 0.36278 0.13986 0.06574-0.01379 1.2201-0.55569 2.5651-1.2042zm0.9984 0.92569c-0.36504-0.10908-0.67645-0.23522-0.71675-0.29033-0.08199-0.11213-0.0923-0.34918-0.02015-0.4631 0.05628-0.08887 0.07113-0.08631 0.92706 0.16012 0.33701 0.09703 0.66561 0.16884 0.7302 0.15956 0.09873-0.01417 0.13583-0.09747 0.23278-0.5228 0.10684-0.46868 0.12552-0.50594 0.25357-0.50594 0.10908 0 0.14199 0.03267 0.15604 0.15488 0.0257 0.22343-0.20235 1.2905-0.29577 1.384-0.15346 0.15346-0.58502 0.12747-1.267-0.07632zm1.1715-0.05479c0.07578-0.0741 0.31268-1.0937 0.26517-1.1412-0.04822-0.04822-0.14473 0.05061-0.14473 0.1482 0 0.0544-0.03926 0.23111-0.08724 0.39269-0.12611 0.42466-0.2043 0.43963-1.0448 0.20001-0.79876-0.22772-0.96046-0.21597-0.76202 0.05541 0.09127 0.12482 1.3578 0.48974 1.5567 0.44855 0.0773-0.016 0.17488-0.06266 0.21686-0.10371zm-10.785-1.9748c-0.85572-0.1749-1.5457-0.63791-1.6838-1.1299-0.07607-0.27103-0.3444-3.9008-0.29415-3.9789 0.02052-0.03191 0.05419-0.19715 0.0748-0.3672l0.03749-0.30919-0.01352 0.3373c-0.02499 0.62344 0.24576 4.0861 0.33956 4.3428 0.16205 0.44333 0.80956 0.83196 1.6219 0.97342 0.58384 0.10167 1.8172 0.04022 2.307-0.11493 0.83806-0.26554 1.4417-0.72844 1.5244-1.1689 0.03597-0.19173-0.07208-2.678-0.12638-2.9081-0.02448-0.10374-0.02054-0.10503 0.05094-0.01666 0.05593 0.06914 0.09815 0.47898 0.15182 1.4737 0.06895 1.278 0.0673 1.3965-0.02283 1.6324-0.18435 0.48271-0.85252 0.93759-1.7069 1.162-0.58671 0.15412-1.6873 0.18926-2.2603 0.07215zm-10.284-1.7432c-0.47415-0.17158-0.67789-0.3947-0.67789-0.74233 0-0.5689 1.0478-1.0823 2.0464-1.0028 0.79833 0.0636 1.2703 0.37286 1.2703 0.83238 0 0.19626-0.03532 0.26538-0.23891 0.46753-0.35668 0.35417-0.77004 0.49361-1.5319 0.51675-0.46492 0.01412-0.68033-0.0036-0.86803-0.07156zm1.7301-0.19304c0.86953-0.30329 1.0517-0.89446 0.38505-1.2492-0.20709-0.1102-0.31918-0.12514-0.9379-0.12505-0.60344 1.12e-4 -0.74842 0.01847-1.0264 0.13012-0.76576 0.30757-0.95677 0.84997-0.41685 1.1837 0.10364 0.06405 0.28736 0.14125 0.40828 0.17155 0.35232 0.08828 1.1828 0.03019 1.5878-0.11106zm7.8289-6.8592c-0.2288-0.05992-0.52184-0.17096-0.65118-0.24676-0.25286-0.14818-0.64739-0.55125-0.64739-0.66139 0-0.04243-0.01958-0.04756-0.053-0.01389-0.02915 0.02937-0.06241 0.19253-0.07392 0.3626l-0.02093 0.30919-0.0104-0.34114c-0.01298-0.426 0.11237-0.86101 0.29851-1.0359l0.14229-0.13367-0.063416 0.18191c-0.1416 0.4062 0.098 0.80824 0.63844 1.0712 0.6833 0.3325 1.4787 0.35306 2.2591 0.05838 0.39739-0.15008 0.76643-0.49609 1.0308-0.96645 0.29444-0.52392 0.23235-0.77565-0.2517-1.0202-0.26333-0.13304-0.27326-0.1131-0.04896 0.098439 0.40896 0.3857 0.18153 0.87335-0.50585 1.0846-0.40852 0.12556-1.3515 0.14084-1.6733 0.02711-0.3398-0.12011-0.59949-0.37856-0.59949-0.59662 0-0.55502 0.85207-0.90644 2.0532-0.84681 0.72203 0.035842 0.89141 0.069798 1.2966 0.25992 0.33214 0.15586 0.86633 0.64162 0.86633 0.78779 0 0.036815-0.05692-0.016427-0.12649-0.11832-0.06957-0.10189-0.18846-0.22579-0.26422-0.27534-0.13169-0.086123-0.13577-0.085141-0.09284 0.022348 0.17218 0.43109 0.04765 0.84972-0.39286 1.3207-0.63118 0.67479-1.9833 0.96715-3.1093 0.67228zm1.6234-1.294c0.46235-0.07501 0.90839-0.30895 0.98002-0.51402 0.13777-0.39442-0.2895-0.66708-1.1099-0.70827-1.3296-0.066769-2.1226 0.64908-1.2295 1.1099 0.30734 0.15859 0.81553 0.2006 1.3594 0.11236z" fill="#b3bdc5"/><path d="m50.156 58.979c-0.13828-0.06442-0.14334-0.07244-0.02811-0.04454 0.0773 0.01871 0.16583 0.03744 0.19675 0.0416 0.03092 0.0042 0.681-1.232 1.4447-2.7469 0.76364-1.5151 1.3897-2.7355 1.3914-2.7122 0.0054 0.07844-2.6833 5.4148-2.76 5.4781-0.0564 0.0465-0.11938 0.04239-0.24461-0.01595zm-13.886-5.1969c-3.03-1.1404-5.4815-2.0745-5.4478-2.0759 0.06756-0.0027 10.987 4.0848 11.032 4.1296 0.0153 0.0153 0.0046 0.02598-0.02371 0.02373-0.02834-0.0023-2.5306-0.93712-5.5607-2.0775zm11.833-0.0046c-0.17005-0.06091-0.48838-0.15584-0.7074-0.21096-0.42929-0.10804-12.011-4.2846-11.977-4.3191 0.01139-0.01139 2.6366 0.92606 5.8338 2.0832 5.7588 2.0844 6.5449 2.3406 7.1809 2.3406 0.90304 0 1.8515-0.37228 2.4245-0.9516 0.34937-0.35326 0.43626-0.50637 1.9802-3.4894 1.5127-2.9227 1.7757-3.4854 1.6295-3.4854-0.08572 0-0.40195 0.57688-1.9559 3.568-1.207 2.3233-1.4415 2.738-1.6944 2.9955-0.69229 0.70511-1.9967 1.0179-3.2046 0.76839-0.33589-0.069378-40.183-14.365-42.036-15.082-0.24971-0.096479-0.57078-0.27393-0.72191-0.39897-0.2226-0.18417-0.29174-0.21476-0.37945-0.16781-0.16289 0.08718-0.1311 0.18581 0.14064 0.43628 0.31683 0.29204 0.59961 0.43124 1.6219 0.79839 0.45636 0.16391 0.82014 0.30761 0.80841 0.31934-0.029873 0.029874-1.6545-0.56418-1.9369-0.7082-0.12771-0.065155-0.32048-0.19598-0.42838-0.2907-0.10789-0.094731-0.28064-0.19556-0.38388-0.22407-0.16819-0.04644-0.19499-0.082562-0.25768-0.34741-0.038485-0.16256-0.093791-0.46001-0.1229-0.66099-0.062334-0.43034-0.14692-0.65701-0.27256-0.73042-0.063481-0.03709-0.068228-0.05369-0.015693-0.05488 0.041422-9.43e-4 0.11731 0.04881 0.16865 0.11055 0.10883 0.1309 0.39411 0.19602 0.51332 0.11718 0.070913-0.04689 0.072161-0.08917 0.00875-0.29666-0.040664-0.13308-0.094126-0.457-0.1188-0.71981s-0.21445-1.5737-0.42173-2.9132-0.36132-2.4508-0.34232-2.4699c0.019002-0.019 0.12895 0.05599 0.24432 0.16664 0.11538 0.11066 0.31839 0.25555 0.45112 0.32197 0.21821 0.1092 42.212 14.189 43.458 14.571 0.28908 0.08855 0.75096 0.18841 1.0264 0.2219 1.1768 0.14308 2.4106-0.23797 3.0164-0.93153 0.20523-0.23499 2.5778-4.4527 2.531-4.4996-0.01301-0.01301-0.11036 0.0012-0.21632 0.03159-0.49419 0.14173 0.17623-0.3215 0.25163-0.37732 0.08031-0.05944 1.1423-1.9105 2.5636-4.4682 1.3346-2.4017 2.4762-4.4117 2.5371-4.4669 0.06086-0.05508 0.49183-0.79052 0.95769-1.6342 0.46587-0.84379 0.86912-1.5342 0.89608-1.5342 0.02697 0 0.04651 0.10751 0.04343 0.23891-0.0046 0.19296-0.01321 0.21188-0.04513 0.09838l-0.03952-0.14054-0.08794 0.14054c-0.04837 0.0773-0.40119 0.70964-0.78406 1.4052-0.38286 0.69558-0.76273 1.3407-0.84417 1.4335-0.08143 0.09285-1.2163 2.0914-2.522 4.4412-1.3057 2.3497-2.4217 4.3396-2.48 4.4216-0.05833 0.08207-0.10606 0.21347-0.10606 0.29201 0 0.1217-1.94 3.7138-2.3732 4.3942-0.18046 0.28344-0.47442 0.58434-0.79762 0.81644-0.22855 0.16413-0.25532 0.20794-0.28652 0.4689-0.11623 0.97207-0.67497 7.3534-0.64545 7.3717 0.0756 0.04672 0.59728-0.33022 0.76621-0.55363 0.09732-0.1287 0.89417-1.6009 1.7708-3.2714 0.87661-1.6706 1.6251-3.0873 1.6631-3.1481 0.05995-0.09576 0.07726-0.09929 0.12898-0.02628 0.17418 0.24588 0.05721 0.51836-1.5803 3.6811-1.8031 3.4826-1.8744 3.5901-2.6513 3.993-0.22424 0.11626-0.48992 0.2725-0.59042 0.34721-0.43256 0.32154-1.0102 0.38706-1.588 0.18008zm-43.482-17.828c-0.01634-0.069567-0.12999-0.79686-0.25256-1.6162-0.53826-3.5981-0.61812-4.0655-0.71255-4.1698-0.051407-0.0568-0.1022-0.09455-0.11287-0.08388-0.010671 0.01067 0.15782 1.1632 0.37442 2.5611s0.39367 2.6099 0.39348 2.6933c-1.886e-4 0.08337 0.056732 0.28396 0.12649 0.44576 0.12898 0.29916 0.23758 0.3995 0.18358 0.1696zm50.572 13.421c0-0.03092 1.4265-2.9021 3.1699-6.3804 1.7435-3.4784 3.1699-6.299 3.1699-6.2681 0 0.03092-1.4265 2.9021-3.1699 6.3804-1.7435 3.4784-3.1699 6.299-3.1699 6.2681zm-35.764-1.5527c-0.27466-0.38572-0.84481-0.67009-2.8553-1.4242-1.0568-0.39637-1.9122-0.72998-1.9008-0.74134 0.01137-0.01136 0.87854 0.30123 1.9271 0.69466 1.5537 0.58301 1.9837 0.76763 2.3242 0.99809 0.35076 0.23742 0.76987 0.64816 0.66138 0.64816-0.01732 0-0.0877-0.07895-0.15641-0.17544zm37.989-8.018c0.01965-0.05411 0.67479-1.3252 1.4559-2.8249 1.0298-1.977 1.4306-2.7999 1.4586-2.9935 0.04476-0.31071 0.10234-0.33814 0.18885-0.08999 0.08242 0.23645 0.07779 0.39025-0.02042 0.67829-0.16652 0.48836-2.5542 5.0165-2.7282 5.1738-0.19748 0.17862-0.41152 0.21254-0.35474 0.05622zm0.34068-0.14054c0.1881-0.20083 2.7006-5.0931 2.7422-5.3397 0.02313-0.1369 0.01372-0.24621-0.0245-0.28442-0.04528-0.04528-0.06207-0.032-0.06207 0.04911 0 0.12176-0.07548 0.27229-1.4355 2.8626-0.33431 0.63677-0.83268 1.5936-1.2143 2.3314-0.1195 0.23104-0.21728 0.43973-0.21728 0.46377 0 0.08072 0.09188 0.04473 0.2113-0.08277zm-35.206-6.0604c-0.26567-0.03982-1.2946-0.34392-1.8103-0.53503-0.1389-0.05148-0.25126-0.13473-0.27261-0.20201-0.06717-0.21163 0.05319-0.23309 0.46808-0.08343 0.80116 0.28899 1.5745 0.48624 1.9043 0.48569 0.40975-7.08e-4 0.84064-0.18927 1.1176-0.48916 0.15338-0.16607 0.2076-0.19585 0.24602-0.1352 0.02814 0.04442 0.02825 0.15115 2.36e-4 0.24873-0.14355 0.50051-0.89618 0.82388-1.6533 0.71038zm-3.549-0.81105c-0.03866-0.10074 0.09287-0.24687 2.1436-2.3817 0.9135-0.95095 1.6163-1.6386 1.6748-1.6386 0.1425-1.18e-4 2.6516 0.77692 2.9942 0.92731 0.3731 0.1638 0.68262 0.44097 0.72919 0.65299 0.05388 0.24533-6e-3 0.2632-0.21305 0.06357-0.28807-0.27775-0.76386-0.47876-2.1494-0.90808l-1.2929-0.40064-0.59114 0.60533c-0.32513 0.33293-1.1436 1.1808-1.8188 1.8842-1.1901 1.2399-1.3955 1.4061-1.4764 1.1956zm2.0784-1.9237c0.98205-1.0265 1.7842-1.8867 1.7827-1.9113-0.01065-0.16833-0.36486 0.15945-1.8709 1.7312-0.93595 0.97684-1.7485 1.829-1.8056 1.8937-0.10874 0.12316-0.07914 0.26978 0.03951 0.19572 0.03777-0.02357 0.87216-0.88276 1.8542-1.9093zm-9.0979 1.3855c-2.4752-0.35104-4.0955-1.4047-4.4953-2.9231-0.053342-0.20264-0.087953-0.4303-0.076913-0.50594 0.017191-0.11779 0.053676-0.08105 0.25423 0.25598 0.72478 1.218 2.2056 2.0049 4.2898 2.2796 0.97606 0.12866 1.5902 0.1355 2.5297 0.02817 2.5561-0.29196 4.7043-1.261 5.8053-2.6188 0.3069-0.37846 0.63149-1.0096 0.68554-1.333 0.03878-0.23199 0.11403-0.34267 0.18484-0.27188 0.09217 0.09217 0.11412 0.75459 0.03717 1.1221-0.25091 1.1983-1.4991 2.431-3.193 3.1528-1.8751 0.79925-4.0512 1.0934-6.0216 0.81396zm5.9983-0.94703c1.335-0.52938 2.4745-1.4633 2.9212-2.3942 0.20072-0.41831 0.2332-0.54122 0.25801-0.97651 0.03204-0.56185-0.04989-0.7352-0.1579-0.3341-0.30632 1.1376-1.4249 2.2171-3.1905 3.0789-0.6697 0.3269-0.6917 0.35352-0.59381 0.71879 0.04546 0.16963 0.12572 0.15985 0.76302-0.09286zm-9.4557-0.80898c0-0.07779-0.15601-0.31329-0.39358-0.59409-0.21647-0.25587-0.42089-0.51625-0.45428-0.57862-0.098204-0.18349-0.10975-0.09058-0.0241 0.194 0.094423 0.31374 0.36751 0.73828 0.61206 0.9515 0.21546 0.18786 0.2599 0.19252 0.2599 0.02723zm15.431 1.1021c-0.06184-0.01411-0.4505-0.13016-0.86369-0.25788-0.6098-0.1885-0.76248-0.25683-0.81079-0.36287-0.10459-0.22954 0.01444-0.24402 0.55018-0.06691 0.78502 0.25953 1.3183 0.38905 1.6017 0.38905 0.30941 0 0.79155-0.22126 0.9246-0.4243 0.126-0.1923 0.25638-0.17883 0.25638 0.02648 0 0.21306-0.23969 0.49679-0.53173 0.62945-0.21743 0.09876-0.82814 0.13507-1.1266 0.06698zm-11.131-2.6368c-0.76386-0.1691-1.3762-0.58074-1.5764-1.0596-0.04162-0.09961-0.1815-0.96324-0.31083-1.9192-0.12933-0.95593-0.25571-1.7605-0.28082-1.788-0.02551-0.02791-0.16181 0.05227-0.3088 0.18165-0.31116 0.27389-0.74264 0.52554-0.86177 0.50259-0.074891-0.01442 0.36708-0.449 0.97554-0.95925l0.1667-0.13979-0.09809-0.71193c-0.05395-0.39156-0.08458-0.7338-0.06806-0.76052 0.01652-0.02673-0.01942-0.386-0.07986-0.79838-0.24787-1.6911-0.34014-2.531-0.28822-2.6237 0.04507-0.08053 0.06048-0.0723 0.11038 0.05896 0.0319 0.0839 0.16242 0.25388 0.29004 0.37774 0.78107 0.758 2.5083 0.88477 3.7469 0.27501 0.46474-0.2288 1.0852-0.86939 1.2171-1.2566 0.12773-0.37486 0.11943-0.79673-0.02017-1.0257-0.06172-0.10123-0.11222-0.19752-0.11222-0.21399 0-0.09113 0.38634 0.21787 0.61877 0.49491 0.23244 0.27705 0.27973 0.37657 0.34051 0.71675 0.03883 0.21727 0.0971 0.39503 0.1295 0.39503 0.03239 0 0.15304-0.09193 0.2681-0.20429 0.13154-0.12843 0.24165-0.19185 0.29655-0.17077 0.13494 0.05178 0.05232 0.203-0.28664 0.52456-0.27924 0.26492-0.30286 0.3063-0.27272 0.47784 0.03055 0.17388 0.3435 2.7493 0.77175 6.3512 0.17592 1.4796 0.17683 1.5007 0.07663 1.7708-0.21432 0.57765-1.0992 1.2039-2.0549 1.4541-0.52268 0.1369-1.8705 0.16546-2.3891 0.05065zm2.9073-0.3593c0.68789-0.21247 1.285-0.69779 1.477-1.2003 0.09713-0.25434 0.09523-0.2753-0.38704-4.253-0.35372-2.9175-0.46915-4.0264-0.42725-4.1047 0.03157-0.05899 0.14681-0.17545 0.25609-0.2588 0.18073-0.13785 0.35307-0.35896 0.27978-0.35896-0.01646 0-0.131 0.09132-0.25453 0.20292-0.12422 0.11224-0.25998 0.18936-0.30374 0.17256-0.04352-0.0167-0.09642-0.13963-0.11755-0.2732-0.05704-0.36045-0.15086-0.65851-0.22725-0.72191-0.05119-0.04249-0.07429 0.03624-0.09502 0.3239-0.05193 0.7206-0.47316 1.2856-1.3229 1.7745-0.25508 0.14677-0.46378 0.29784-0.46378 0.33572 0 0.08102 0.92765 7.3992 1.0188 8.0372 0.04057 0.28401 0.08728 0.43567 0.13418 0.43567 0.03956 0 0.23453-0.05022 0.43326-0.1116zm-3.8349-0.28537c0-0.03283-0.25486-1.9234-0.56636-4.2014l-0.56636-4.1417-0.26282-0.28976c-0.30262-0.33364-0.36816-0.36329-0.32566-0.1473 0.03116 0.15836 0.29191 2.1438 0.45927 3.497l0.09356 0.75648-0.21689 0.19395c-0.56831 0.50822-0.64382 0.58324-0.61551 0.61154 0.016703 0.0167 0.14733-0.06807 0.29028-0.18838 0.41195-0.3467 0.4726-0.38292 0.5357-0.31981 0.03118 0.03118 0.16832 0.858 0.30474 1.8374 0.1463 1.0501 0.28615 1.861 0.3409 1.9764 0.13645 0.28756 0.52913 0.59608 0.52913 0.41573zm-4.0906-2.8352c-0.16987-0.07382-0.28761-0.2223-0.22552-0.2844 0.014532-0.01453 0.12517 0.01494 0.24586 0.06549 0.16533 0.06926 0.32144 0.08425 0.63316 0.06082l0.41373-0.0311-0.1284 0.13668c-0.10688 0.11377-0.18091 0.1363-0.44183 0.13447-0.1724-0.0012-0.39604-0.0381-0.49701-0.08197zm13.788-2.6399c-2.2003-0.33042-3.6593-1.126-4.1667-2.2721-0.16155-0.36488-0.19782-1.0296-0.04944-0.90651 0.04638 0.03849 0.08432 0.10179 0.08432 0.14066s0.10848 0.21038 0.24108 0.38114c0.73865 0.95124 2.1404 1.5859 4.0032 1.8125 3.4128 0.41508 7.0573-0.9086 7.7324-2.8084 0.06664-0.18752 0.13258-0.37819 0.14653-0.42371 0.0603-0.1967 0.13006 0.10294 0.13089 0.56217 8.25e-4 0.43521-0.0177 0.51814-0.20043 0.89945-0.56418 1.1773-2.1889 2.1123-4.4084 2.5371-0.76921 0.1472-2.7579 0.19122-3.5135 0.07776zm5.435-0.76476c0.75728-0.27871 1.3476-0.63156 1.8087-1.0811 0.54056-0.52692 0.77343-0.97006 0.81114-1.5436 0.01474-0.22416 0.01028-0.40756-0.0099-0.40756-0.02019 0-0.11762 0.17076-0.21652 0.37945-0.35152 0.74179-1.2724 1.5001-2.5301 2.0834l-0.49189 0.22815v0.25662c0 0.31154 0.0086 0.31269 0.62859 0.08451zm-8.5265-0.7414c-0.02416-0.12056-0.14772-0.29073-0.36328-0.5003-0.17967-0.17467-0.41185-0.4403-0.51596-0.59026-0.17619-0.25382-0.19044-0.26287-0.20584-0.13088-0.03547 0.30382 0.39172 0.98752 0.79582 1.2737 0.25749 0.18236 0.33352 0.16861 0.28926-0.05226zm9.5936 1.1361c-0.07216-0.02959-0.12259-0.0796-0.11208-0.11114 0.01052-0.03154 1.2049-0.6278 2.654-1.325l2.6349-1.2677 0.28796 0.06725c0.46367 0.10828 0.65336 0.20307 0.65336 0.32647 0 0.1603-0.09653 0.17136-0.49856 0.05716l-0.35803-0.1017-2.4457 1.1792c-1.3452 0.64854-2.4995 1.1904-2.5651 1.2042-0.06567 0.01379-0.17855 8.25e-4 -0.25071-0.02872zm2.6744-1.238c1.353-0.65122 2.4836-1.2074 2.5124-1.2358 0.18743-0.18488-0.28885 0.02216-2.546 1.1068-2.2533 1.0827-2.6888 1.3131-2.482 1.3131 0.03064 0 1.1627-0.53282 2.5156-1.184zm1.2827 0.87764c-0.41018-0.1152-0.69993-0.22767-0.74486-0.2891-0.19844-0.27138-0.03673-0.28314 0.76202-0.05541 0.84046 0.23962 0.91864 0.22465 1.0448-0.20001 0.04798-0.16159 0.08724-0.33829 0.08724-0.39269 0-0.0976 0.09651-0.19642 0.14473-0.1482 0.04752 0.04752-0.1894 1.0671-0.26517 1.1412-0.14642 0.14317-0.36202 0.1315-1.0287-0.05575zm-9.841-2.0787c-0.75193-0.17346-1.3041-0.53228-1.4553-0.94561-0.09512-0.26011-0.31533-2.9398-0.33839-4.1178-0.0073-0.37102-0.07345-1.4968-0.14708-2.5016-0.07364-1.0049-0.11501-1.8762-0.09195-1.9363 0.0385-0.10031 0.05019-0.0957 0.14258 0.05622 0.12115 0.19921 0.45044 0.49571 0.68558 0.61729 0.30772 0.15912 1.0126 0.3071 1.4628 0.3071 1.1914 0 2.1638-0.4779 2.5503-1.2533 0.15372-0.30848 0.17625-0.50636 0.08499-0.74641-0.07705-0.20265-0.04622-0.21829 0.14058-0.071353 0.18972 0.14923 0.4235 0.63143 0.41817 0.86251-0.0041 0.17686-0.0191 0.15729-0.07549-0.09838-0.04281-0.19409-0.14438-0.20266-0.14438-0.01219 0 0.22663-0.25632 0.67146-0.51813 0.89916-0.13243 0.11517-0.4052 0.30235-0.60618 0.41595l-0.3654 0.20655 0.01948 0.36255c0.08806 1.639 0.505 7.7078 0.53135 7.7342 0.05844 0.05844 0.78813-0.193 1.058-0.36456 0.30729-0.19535 0.5409-0.48346 0.58965-0.72721 0.03017-0.15085-0.02678-1.4266-0.11846-2.6539-0.01697-0.22721-0.0092-0.32288 0.02052-0.25297 0.06633 0.15595 0.19995 2.7228 0.15438 2.9656-0.08227 0.43854-0.68513 0.90066-1.5241 1.1683-0.50277 0.16041-1.9355 0.21037-2.4735 0.08625zm-0.73566-0.74891c-0.04051-0.391-0.52919-7.3309-0.52919-7.5152 0-0.11765-0.09205-0.24932-0.37036-0.52985l-0.37036-0.3733 0.03047 0.28108c0.01676 0.1546 0.0837 1.0906 0.14877 2.08 0.30187 4.5904 0.39271 5.7111 0.47596 5.8722 0.09933 0.19208 0.41234 0.45057 0.54666 0.45144 0.08067 4.72e-4 0.09138-0.0414 0.06806-0.2664zm-9.3219-0.91663c-0.68533-0.17174-0.92193-0.65291-0.51142-1.0401 0.10796-0.10182 0.34195-0.24363 0.52-0.31514 0.27798-0.11165 0.42296-0.13004 1.0264-0.13012 0.61872-1.13e-4 0.7308 0.01485 0.9379 0.12505 0.66669 0.35476 0.48447 0.94594-0.38505 1.2492-0.40497 0.14125-1.2355 0.19935-1.5878 0.11106zm0.56475-0.12629c0.02183-0.02183-0.06992-0.7993-0.12239-1.0371-0.03728-0.16895-0.24761-0.16605-0.62268 0.0086-0.46625 0.21709-0.59098 0.50639-0.34276 0.79496 0.14895 0.17316 0.59603 0.31587 0.87638 0.27974 0.10432-0.01344 0.19948-0.03425 0.21146-0.04623zm9.4814-8.1371c-0.4402-0.08696-0.74747-0.31854-0.74747-0.56335 0-0.39746 0.74693-0.70329 1.6116-0.65988 0.82037 0.041197 1.2477 0.31387 1.1099 0.70827-0.13665 0.39118-1.1984 0.66817-1.974 0.51495zm0.26441-0.29856c0-0.1039-0.01609-0.30628-0.03575-0.44972-0.03457-0.2522-0.04207-0.26082-0.2271-0.26082-0.10524 0-0.28969 0.05017-0.40989 0.11149-0.37678 0.19221-0.36868 0.50407 0.01764 0.67947 0.12841 0.058309 0.32835 0.10657 0.4443 0.10725 0.20202 0.00118 0.21081-0.00664 0.21081-0.18768z" fill="#666"/><path d="m50.174 52.576c-0.02216-0.02216 0.56132-6.5843 0.65544-7.3713 0.0312-0.26096 0.05798-0.30477 0.28652-0.4689 0.3232-0.2321 0.61715-0.533 0.79762-0.81644 0.43317-0.68037 2.3732-4.2725 2.3732-4.3942 0-0.07854 0.04773-0.20995 0.10606-0.29201 0.05833-0.08207 1.1743-2.0718 2.48-4.4216 1.3057-2.3499 2.4405-4.3484 2.522-4.4412 0.08144-0.09285 0.46132-0.73792 0.84417-1.4335 0.79365-1.442 0.84945-1.5368 0.88386-1.5023 0.01378 0.01378-0.116 1.0948-0.28838 2.4023s-0.30032 2.4115-0.28428 2.4533c0.03043 0.07929-0.05358 0.10759-0.09938 0.03347-0.02063-0.03338 0.41241-3.5017 0.5489-4.3964 0.01984-0.13004-0.22249 0.25944-0.73032 1.1737-0.418 0.75258-0.80789 1.4093-0.86642 1.4594-0.13934 0.11936-4.8913 8.6828-4.8917 8.8153-2.36e-4 0.05591-0.58346 1.1515-1.2961 2.4346l-1.2958 2.3329-0.33141 3.3448c-0.18228 1.8396-0.34551 3.4576-0.36274 3.5955-0.0197 0.15764-0.01161 0.23067 0.02178 0.19675 0.02921-0.02967 0.7276-1.3441 1.552-2.9209 0.82438-1.5768 1.5194-2.8889 1.5446-2.9155 0.09714-0.10284 0.16311 0.02488 0.06938 0.13434-0.05182 0.06052-0.78602 1.4321-1.6315 3.0478-1.7362 3.3177-1.7405 3.3253-1.9682 3.556-0.17623 0.17844-0.59591 0.43708-0.6391 0.39388zm7.0922-12.687c0-0.03645 0.65719-1.324 1.4605-2.8611 1.2434-2.3796 1.4659-2.8418 1.4976-3.1115 0.02047-0.17416 0.05557-0.32799 0.07799-0.34186 0.05613-0.03469 0.25149 0.1887 0.20537 0.23483-0.02042 0.02042-0.03713 0.0076-0.03713-0.02845 0-0.03607-0.02242-0.06558-0.04984-0.06558-0.02741 0-0.06723 0.12016-0.08849 0.26703-0.03649 0.25201-0.2459 0.66906-2.6591 5.2955-0.27947 0.53578-0.29724 0.59104-0.20204 0.62847 0.08405 0.03305 0.07427 0.04182-0.05022 0.045-0.08503 0.0022-0.15459-0.02587-0.15459-0.06231zm-52.828-4.1087c-0.069753-0.1618-0.12668-0.36238-0.12649-0.44576 1.886e-4 -0.083371-0.17689-1.2954-0.39348-2.6933-0.2166-1.3979-0.3851-2.5505-0.37442-2.5611 0.010671-0.01067 0.061461 0.02707 0.11287 0.08388 0.094429 0.10434 0.17428 0.57168 0.71255 4.1698 0.12257 0.81934 0.23622 1.5467 0.25256 1.6162 0.053996 0.22988-0.054609 0.12955-0.18358-0.1696zm14.685-3.0235c-0.04675-0.07564-0.14971 0.0383 1.8722-2.0719 1.506-1.5718 1.8601-1.8995 1.8709-1.7312 3e-3 0.04728-3.5187 3.7468-3.6369 3.8206-0.03777 0.02357-0.08548 0.01565-0.10603-0.0176zm-1.9022-1.3604c-0.09789-0.36526-0.07589-0.39189 0.59381-0.71879 1.551-0.7571 2.5128-1.5928 3.0042-2.6104 0.10408-0.21556 0.18924-0.36038 0.18924-0.32184 0 0.13756-0.38818 0.83316-0.69269 1.2412-0.27591 0.36978-0.30628 0.43724-0.27838 0.61837 0.01722 0.11182 0.03964 0.21312 0.04982 0.2251s0.14687-0.11451 0.30378-0.28108c0.29595-0.31419 0.528-0.70272 0.65096-1.0899 0.04084-0.1286 0.07303-0.17545 0.07518-0.10946 0.0021 0.06347-0.09688 0.32352-0.2199 0.57789-0.44256 0.91515-1.5906 1.8516-2.913 2.3759-0.63729 0.25272-0.71756 0.26248-0.76302 0.09286zm-8.9525-0.92907c-0.24455-0.21322-0.51764-0.63776-0.61206-0.9515-0.085647-0.28458-0.074104-0.3775 0.0241-0.194 0.033384 0.06238 0.2378 0.32276 0.45428 0.57862 0.23757 0.2808 0.39358 0.51631 0.39358 0.59409 0 0.16529-0.044429 0.16064-0.2599-0.02723zm6.9002-2.1909c-0.09114-0.638-1.0188-7.9562-1.0188-8.0372 0-0.03788 0.2087-0.18895 0.46378-0.33572 0.84977-0.48893 1.271-1.054 1.3229-1.7745 0.02073-0.28767 0.04383-0.36639 0.09502-0.3239 0.07639 0.0634 0.17022 0.36145 0.22725 0.72191 0.02113 0.13355 0.07403 0.25649 0.11755 0.2732 0.04377 0.01679 0.17952-0.06032 0.30374-0.17256 0.12354-0.11161 0.23719-0.20292 0.25256-0.20292 0.07302 0 0.0032 0.0897-0.28635 0.36792-0.17287 0.1661-0.30045 0.26591-0.28354 0.22181 0.01693-0.0441 0.0066-0.09515-0.02302-0.11343-0.02959-0.01828-0.082-0.14527-0.11648-0.28218-0.06402-0.25425-0.16212-0.29018-0.16212-0.0594 0 0.07044-0.09839 0.32824-0.21866 0.5729l-0.21866 0.44482 0.51425 4.1416c0.28284 2.278 0.53312 4.1605 0.55617 4.1836 0.05512 0.05512 0.3102-0.18593 0.41981-0.3967 0.04761-0.09156 0.1053-0.29393 0.12819-0.44972 0.04065-0.27665 0.04177-0.27802 0.04808-0.05839 0.01811 0.62987-0.65807 1.326-1.5583 1.6042-0.19649 0.06073-0.38964 0.11042-0.42921 0.11042-0.04689 0-0.0936-0.15166-0.13418-0.43567zm-3.5374-0.04151c-0.09144-0.07694-0.20802-0.22792-0.25908-0.33554-0.05475-0.11538-0.19461-0.92619-0.3409-1.9764-0.13643-0.97937-0.27357-1.8061-0.30474-1.8374-0.0631-0.0631-0.12375-0.02689-0.5357 0.31981-0.14296 0.12031-0.27359 0.20509-0.29028 0.18838-0.028305-0.0283 0.047201-0.10332 0.61551-0.61154l0.21689-0.19395-0.09356-0.75648c-0.16736-1.3532-0.42811-3.3386-0.45927-3.497-0.0425-0.21599 0.02303-0.18634 0.32566 0.1473l0.26282 0.28976 0.56636 4.1417c0.3115 2.278 0.56636 4.1686 0.56636 4.2014 0 0.09667-0.0925 0.0692-0.27005-0.0802zm16.572-5.8658c0-0.0601 5.0652-2.4957 5.1058-2.4551 0.01674 0.01674 0.0068 0.05372-0.02204 0.08218-0.06896 0.06803-4.9557 2.4199-5.0281 2.4199-0.03064 0-0.05572-0.02109-0.05572-0.04687zm-1.7989-0.37839v-0.25662l0.49189-0.22815c1.2578-0.58336 2.1787-1.3416 2.5301-2.0834 0.0989-0.2087 0.19302-0.37946 0.20913-0.37946 0.01612 0 0.02534 0.15811 0.02048 0.35135l-0.0088 0.35135-0.06666-0.56216-0.10288 0.2513c-0.05659 0.13822-0.22877 0.4244-0.38264 0.63594-0.23438 0.32225-0.27696 0.41825-0.26253 0.59192l0.01724 0.20729 0.21939-0.22392c0.12066-0.12315 0.2914-0.37612 0.37941-0.56216s0.16004-0.3059 0.16006-0.26637c2.5e-5 0.03953-0.07899 0.22926-0.17558 0.42161-0.36501 0.72689-1.2722 1.4209-2.4001 1.836-0.61997 0.22818-0.62859 0.22703-0.62859-0.08451zm-8.1872-0.60462c-0.40411-0.28618-0.83128-0.96987-0.79582-1.2737 0.01541-0.13199 0.02964-0.12294 0.20584 0.13087 0.10411 0.14997 0.33629 0.41559 0.51596 0.59026 0.21556 0.20957 0.33912 0.37974 0.36328 0.5003 0.04426 0.22089-0.03176 0.23462-0.28926 0.05226zm6.252-1.7949c-0.02325-0.18153-0.29108-4.3096-0.49672-7.6561-0.0134-0.21806-0.0079-0.22481 0.35178-0.42856 0.20097-0.11386 0.47375-0.30124 0.60618-0.41643 0.26181-0.2277 0.51813-0.67252 0.51813-0.89916 0-0.16102 0.08203-0.19029 0.13637-0.04868 0.01978 0.05155 0.04631 0.2476 0.05895 0.43567 0.01655 0.24625 0.0121 0.27901-0.0159 0.11708l-0.03888-0.22486-0.35554 0.75047 0.2461 3.9467c0.13535 2.1707 0.25901 3.9596 0.27479 3.9754 0.03895 0.03895 0.19118-0.09238 0.27317-0.23568 0.03684-0.06438 0.08319-0.31944 0.10302-0.56678l0.03604-0.44972-0.0077 0.48227c-7e-3 0.43878-0.02231 0.50142-0.16967 0.69455-0.20942 0.27447-0.59032 0.51366-1.0385 0.65219-0.19649 0.06073-0.37835 0.11042-0.40412 0.11042s-0.06062-0.10751-0.07745-0.23891zm-3.3363-0.18827c-0.1011-0.079675-0.2213-0.21735-0.26711-0.30596-0.083254-0.161-0.1741-1.2817-0.47596-5.8722-0.06506-0.98939-0.13201-1.9253-0.14877-2.08l-0.03047-0.28108 0.37036 0.3733c0.27832 0.28052 0.37036 0.41221 0.37036 0.52985 0 0.1843 0.48868 7.1241 0.52919 7.5152 0.02331 0.225 0.0126 0.26692-0.06806 0.26641-0.05265-3.54e-4 -0.17844-0.06581-0.27954-0.14548zm-9.0899-1.1706c-0.30561-0.08479-0.53597-0.30009-0.53597-0.50092 0-0.19851 0.16083-0.37627 0.47118-0.52079 0.37508-0.17465 0.5854-0.17755 0.62268-0.0086 0.05246 0.23777 0.14421 1.0152 0.12239 1.0371-0.06453 0.06453-0.43662 0.06083-0.68027-0.0068zm9.771-8.3484c-0.38632-0.17541-0.39442-0.48726-0.01764-0.67947 0.12019-0.061318 0.30465-0.11149 0.4099-0.11149 0.18502 0 0.19253 0.00862 0.2271 0.26082 0.01966 0.14345 0.03575 0.34583 0.03575 0.44972 0 0.18104-0.0088 0.18885-0.21081 0.18768-0.11594-7.073e-4 -0.31587-0.048941-0.4443-0.10725z" fill="#7c8385"/><path d="m40.436 55.273c-10.466-3.9315-10.306-3.8768-11.245-3.8412l-0.45453 0.01726-0.03008-0.22355c-0.03866-0.28737-0.0687-0.33147-0.30075-0.44158-0.27177-0.12896-0.59354-0.11384-0.88598 0.04165-0.24614 0.13087-0.25343 0.13138-0.50026 0.0351-0.23426-0.09137-0.2524-0.11364-0.28005-0.34361-0.03762-0.31292-0.0816-0.37991-0.31278-0.4765-0.27248-0.11385-0.53316-0.09686-0.81529 0.05314-0.2345 0.12467-0.26075 0.12732-0.49058 0.0496-0.25824-0.08733-0.34745-0.2211-0.34745-0.52097 0-0.35872-0.61986-0.50526-1.0834-0.25613-0.26279 0.14125-0.27307 0.1423-0.50594 0.05165-0.13074-0.05089-0.24577-0.09859-0.25564-0.106-0.0099-0.0074-0.03516-0.13339-0.05622-0.27996-0.02861-0.19914-0.07731-0.29561-0.19266-0.38171-0.21576-0.16104-0.62149-0.15445-0.92296 0.01498-0.22738 0.1278-0.23631 0.12842-0.48393 0.03386-0.23908-0.09131-0.25377-0.10964-0.28092-0.35055-0.03799-0.33707-0.18232-0.47495-0.53238-0.50858-0.20916-0.0201-0.33293 0.0026-0.51193 0.09393l-0.23607 0.12044-0.30206-0.32505c-0.16612-0.17878-0.44313-0.40994-0.61558-0.5137-0.18024-0.10846-3.7108-1.4629-8.3049-3.1862-4.3952-1.6486-8.0126-3.0188-8.0385-3.0447-0.025917-0.025916-0.18672-0.66647-0.35734-1.4235-0.17062-0.75698-0.32424-1.4354-0.3414-1.5075-0.018179-0.0765-0.00874-0.11733 0.022638-0.09794 0.049369 0.03051 5.4783 2.0141 13.19 4.819 1.7005 0.61857 3.227 1.2049 3.3922 1.303 0.16517 0.09809 0.41993 0.29759 0.56612 0.44332l0.26582 0.26497 0.24358-0.12051c0.34806-0.17221 0.76848-0.19547 1.0754-0.05948 0.32255 0.14291 0.42932 0.33483 0.34292 0.61634-0.04594 0.14968-0.04665 0.22804-0.0026 0.28115 0.08451 0.10183 0.13138 0.09381 0.37179-0.06362 0.48669-0.31872 1.1279-0.30759 1.4466 0.0251 0.14237 0.1486 0.15125 0.1843 0.11597 0.46661-0.04794 0.3837 0.05102 0.45051 0.35629 0.24054 0.27877-0.19174 0.47576-0.2577 0.7697-0.2577 0.29785 0 0.57008 0.10494 0.72533 0.27962 0.08408 0.0946 0.11243 0.20614 0.11243 0.44238 0 0.38619 0.08142 0.42402 0.42428 0.19712 0.45387-0.30036 1.2524-0.22934 1.4895 0.13247 0.06012 0.09176 0.08345 0.23068 0.07151 0.4259-0.01489 0.2434-0.0014 0.29304 0.08463 0.31045 0.0563 0.0114 0.19543-0.04343 0.30919-0.12184 0.67492-0.46526 1.6404-0.18412 1.6404 0.47767v0.21728h0.38615c0.89784 0 0.9059 0.0027 11.326 3.8034 5.4772 1.9977 10.06 3.6634 10.183 3.7015 0.25098 0.07736 0.25948 0.11477 0.17243 0.75878-0.02299 0.17005-0.05222 0.3914-0.06495 0.49189-0.01274 0.10049-0.03384 0.26492-0.0469 0.3654-0.01306 0.10049-0.03751 0.34713-0.05434 0.5481l-0.03059 0.3654 0.8708-1.7427c0.47894-0.95848 1.0283-2.0715 1.2208-2.4735 0.19251-0.40195 0.36914-0.73929 0.39252-0.74965 0.02338-0.01037 0.02821-0.04199 0.01074-0.07027-0.01748-0.02828-0.0035-0.05141 0.03108-0.05141 0.03457 0 0.04722-0.0253 0.02811-0.05621-0.01911-0.03092-0.0065-0.05622 0.02811-0.05622 0.03457 0 0.04722-0.0253 0.02811-0.05622s-0.0065-0.05622 0.02811-0.05622c0.03457 0 0.04722-0.0253 0.02811-0.05622s-0.0065-0.05622 0.02811-0.05622c0.03457 0 0.04722-0.0253 0.02811-0.05621-0.01911-0.03092-0.0065-0.05622 0.02811-0.05622 0.03457 0 0.04722-0.0253 0.02811-0.05621-0.01911-0.03092-0.0065-0.05622 0.02811-0.05622 0.03457 0 0.04722-0.0253 0.02811-0.05622s-0.0065-0.05622 0.02811-0.05622c0.03457 0 0.04722-0.0253 0.02811-0.05622s-0.0065-0.05622 0.02811-0.05622c0.03457 0 0.04722-0.0253 0.02811-0.05622s-0.0065-0.05621 0.02811-0.05621c0.03457 0 0.04722-0.0253 0.02811-0.05622s-0.0065-0.05621 0.02811-0.05621c0.03457 0 0.04722-0.0253 0.02811-0.05622s-0.0065-0.05622 0.02811-0.05622c0.03457 0 0.04722-0.0253 0.02811-0.05622s-0.0065-0.05622 0.02811-0.05622c0.03457 0 0.04722-0.0253 0.02811-0.05622s-0.0065-0.05622 0.02811-0.05622c0.03457 0 0.04722-0.0253 0.02811-0.05622s-0.0065-0.05622 0.02811-0.05622c0.03457 0 0.04722-0.0253 0.02811-0.05622s-0.0065-0.05622 0.02811-0.05622c0.03457 0 0.04722-0.0253 0.02811-0.05622s-0.0065-0.05622 0.02811-0.05622c0.03457 0 0.04722-0.0253 0.02811-0.05622s-0.0065-0.05622 0.02811-0.05622c0.03457 0 0.04722-0.0253 0.02811-0.05622s-0.0065-0.05622 0.02811-0.05622c0.03457 0 0.04722-0.0253 0.02811-0.05622s-0.0065-0.05622 0.02811-0.05622c0.03457 0 0.04722-0.0253 0.02811-0.05622s-0.0065-0.05622 0.02811-0.05622c0.03457 0 0.04722-0.0253 0.02811-0.05622s-0.0065-0.05622 0.02811-0.05622c0.03457 0 0.04722-0.0253 0.02811-0.05622s-0.0065-0.05622 0.02811-0.05622c0.03457 0 0.04722-0.0253 0.02811-0.05622s-0.0065-0.05622 0.02811-0.05622c0.03457 0 0.04722-0.0253 0.02811-0.05622s-0.0065-0.05622 0.02811-0.05622c0.03457 0 0.04722-0.0253 0.02811-0.05622s-0.0065-0.05622 0.02811-0.05622c0.03457 0 0.04722-0.0253 0.02811-0.05622s-0.0065-0.05622 0.02811-0.05622c0.03457 0 0.04722-0.0253 0.02811-0.05622s-0.0065-0.05622 0.02811-0.05622c0.03457 0 0.04722-0.0253 0.02811-0.05622s-0.0065-0.05622 0.02811-0.05622c0.03457 0 0.04722-0.0253 0.02811-0.05621-0.01911-0.03092-0.0065-0.05622 0.02811-0.05622 0.03457 0 0.04722-0.0253 0.02811-0.05622s-0.0065-0.05622 0.02811-0.05622c0.03457 0 0.04722-0.0253 0.02811-0.05622s-0.0065-0.05622 0.02811-0.05622c0.03457 0 0.04722-0.0253 0.02811-0.05621-0.01911-0.03092-0.0065-0.05622 0.02811-0.05622 0.03457 0 0.04722-0.0253 0.02811-0.05621-0.01911-0.03092-0.0065-0.05622 0.02811-0.05622 0.03457 0 0.04722-0.0253 0.02811-0.05622s-0.0037-0.05622 0.03416-0.05622c0.0379 0 0.05357-0.01533 0.03484-0.03407-0.01874-0.01873 1.4062-2.9153 3.1666-6.4368s3.2005-6.4154 3.2002-6.431c0-0.0156 0.07333-0.1746 0.16356-0.35334s0.18111-0.45053 0.20195-0.604c0.02085-0.15345 0.05946-0.35491 0.08581-0.44766 0.02634-0.09276 0.06062-0.26985 0.07615-0.39355 0.01554-0.1237 0.04112-0.26283 0.05684-0.30919s0.04102-0.17282 0.05623-0.28104c0.03131-0.2228 0.1351-0.56656 0.14244-0.47184 0.0026 0.03422-0.08458 0.55281-0.19386 1.1524l-0.1987 1.0902-5.7156 11.482c-4.0216 8.0789-5.7413 11.48-5.8023 11.476-0.04767-0.0032-4.4854-1.6582-9.8616-3.6777z" fill="#51965a"/><path d="m50.667 57.944c0.01683-0.20097 0.04128-0.44762 0.05434-0.5481s0.03417-0.26492 0.0469-0.3654c0.01274-0.10048 0.04197-0.32184 0.06495-0.49189 0.08705-0.64401 0.07855-0.68142-0.17243-0.75878-0.12367-0.038121-4.7062-1.7038-10.183-3.7015-10.421-3.8007-10.429-3.8034-11.326-3.8034h-0.38615v-0.21235c0-0.24805-0.112-0.42932-0.3579-0.57927-0.09688-0.05907-0.14154-0.1075-0.09926-0.10762 0.04228-1.12e-4 0.1751 0.098 0.29514 0.21803 0.1696 0.1696 0.21825 0.2617 0.21825 0.4132v0.19495l0.60431 0.03423c0.33238 0.01883 0.76591 0.07637 0.96342 0.12787s4.8633 1.7355 10.368 3.7422c8.1028 2.9536 10.023 3.6349 10.08 3.5767 0.09125-0.09251 0.17162-0.24828 3.155-6.1149 0.46382-0.9121 1.2168-2.392 1.6732-3.2887 0.81764-1.6063 1.7017-3.3442 3.3027-6.4929 0.77089-1.5161 2.624-5.1569 3.0902-6.0713 0.11824-0.23189 0.22934-0.51168 0.24692-0.62176l0.03194-0.20015-0.68833-0.19066c-0.37858-0.10486-0.66563-0.19823-0.63789-0.20747 0.02774-0.0092 0.34128 0.06627 0.69676 0.16781 0.76386 0.2182 0.75908 0.21012 0.53246 0.90144-0.08293 0.25298-0.16222 0.5485-0.17619 0.65672s-0.03827 0.23468-0.05399 0.28104-0.0413 0.1855-0.05684 0.30919c-0.01554 0.1237-0.04981 0.3008-0.07615 0.39356-0.02635 0.09276-0.06496 0.2942-0.08581 0.44766-0.02084 0.15345-0.11172 0.42526-0.20195 0.604s-0.16383 0.33774-0.16356 0.35334c0 0.0156-1.4398 2.9096-3.2002 6.431-1.7604 3.5215-3.1854 6.418-3.1666 6.4368 0.01874 0.01874 0.0031 0.03407-0.03484 0.03407-0.0379 0-0.05327 0.0253-0.03416 0.05622s0.0065 0.05622-0.02811 0.05622c-0.03457 0-0.04722 0.0253-0.02811 0.05622s0.0065 0.05622-0.02811 0.05622c-0.03457 0-0.04722 0.0253-0.02811 0.05622s0.0065 0.05622-0.02811 0.05622c-0.03457 0-0.04722 0.0253-0.02811 0.05622s0.0065 0.05622-0.02811 0.05622c-0.03457 0-0.04722 0.0253-0.02811 0.05622s0.0065 0.05622-0.02811 0.05622c-0.03457 0-0.04722 0.0253-0.02811 0.05622s0.0065 0.05622-0.02811 0.05622c-0.03457 0-0.04722 0.0253-0.02811 0.05622s0.0065 0.05622-0.02811 0.05622c-0.03457 0-0.04722 0.0253-0.02811 0.05622s0.0065 0.05622-0.02811 0.05622c-0.03457 0-0.04722 0.0253-0.02811 0.05622s0.0065 0.05622-0.02811 0.05622c-0.03457 0-0.04722 0.0253-0.02811 0.05621 0.01911 0.03092 0.0065 0.05622-0.02811 0.05622-0.03457 0-0.04722 0.0253-0.02811 0.05622s0.0065 0.05622-0.02811 0.05622c-0.03457 0-0.04722 0.0253-0.02811 0.05622s0.0065 0.05622-0.02811 0.05622c-0.03457 0-0.04722 0.0253-0.02811 0.05621 0.01911 0.03092 0.0065 0.05622-0.02811 0.05622-0.03457 0-0.04722 0.0253-0.02811 0.05621 0.01911 0.03092 0.0065 0.05622-0.02811 0.05622-0.03457 0-0.04722 0.0253-0.02811 0.05622s0.0065 0.05622-0.02811 0.05622c-0.03457 0-0.04722 0.0253-0.02811 0.05622s0.0065 0.05622-0.02811 0.05622c-0.03457 0-0.04722 0.0253-0.02811 0.05621 0.01911 0.03092 0.0065 0.05622-0.02811 0.05622-0.03457 0-0.04722 0.0253-0.02811 0.05622s0.0065 0.05622-0.02811 0.05622c-0.03457 0-0.04722 0.0253-0.02811 0.05622s0.0065 0.05622-0.02811 0.05622c-0.03457 0-0.04722 0.0253-0.02811 0.05622s0.0065 0.05622-0.02811 0.05622c-0.03457 0-0.04722 0.0253-0.02811 0.05622s0.0065 0.05622-0.02811 0.05622c-0.03457 0-0.04722 0.0253-0.02811 0.05622s0.0065 0.05622-0.02811 0.05622c-0.03457 0-0.04722 0.0253-0.02811 0.05622s0.0065 0.05622-0.02811 0.05622c-0.03457 0-0.04722 0.0253-0.02811 0.05622s0.0065 0.05622-0.02811 0.05622c-0.03457 0-0.04722 0.0253-0.02811 0.05622s0.0065 0.05622-0.02811 0.05622c-0.03457 0-0.04722 0.0253-0.02811 0.05622s0.0065 0.05622-0.02811 0.05622c-0.03457 0-0.04722 0.0253-0.02811 0.05622s0.0065 0.05622-0.02811 0.05622c-0.03457 0-0.04722 0.0253-0.02811 0.05622s0.0065 0.05622-0.02811 0.05622c-0.03457 0-0.04722 0.0253-0.02811 0.05622s0.0065 0.05622-0.02811 0.05622c-0.03457 0-0.04722 0.0253-0.02811 0.05622s0.0065 0.05622-0.02811 0.05622c-0.03457 0-0.04722 0.0253-0.02811 0.05622s0.0065 0.05622-0.02811 0.05622c-0.03457 0-0.04722 0.0253-0.02811 0.05622s0.0065 0.05621-0.02811 0.05621c-0.03457 0-0.04722 0.0253-0.02811 0.05622s0.0065 0.05622-0.02811 0.05622c-0.03457 0-0.04855 0.02314-0.03108 0.05141 0.01748 0.02828 0.01265 0.0599-0.01074 0.07027-0.02338 0.01038-0.20002 0.34772-0.39252 0.74965-0.19251 0.40194-0.74187 1.5151-1.2208 2.4735l-0.8708 1.7427zm-2.6683-4.0763c-0.16555-0.07707-0.45929-0.17683-0.65274-0.2217-0.2577-0.059767-39.847-14.348-41.981-15.152-0.17749-0.066822-0.45576-0.22182-0.61837-0.34444s-0.35891-0.23588-0.43621-0.25169c-0.54778-0.11203-0.7933-0.28509-0.78195-0.5512 0.00356-0.08354 0.020705-0.06478 0.05764 0.06309 0.060079 0.20799 0.23764 0.3186 0.61121 0.38072 0.15492 0.02576 0.33935 0.11241 0.47784 0.22451 0.31985 0.25888 0.46437 0.32415 1.7641 0.79653 13.188 4.793 40.698 14.717 40.978 14.78 0.20681 0.04787 0.45418 0.13524 0.54969 0.19415 0.09552 0.05891 0.2726 0.13032 0.39351 0.15868 0.15925 0.03735 0.18111 0.05297 0.0793 0.05667-0.0773 0.0028-0.27599-0.05796-0.44154-0.13502zm1.3129 0.02719c0.15459-0.05983 0.33167-0.16892 0.39351-0.24244 0.06184-0.07351 0.28951-0.21859 0.50594-0.32239 0.26786-0.12847 0.51026-0.30602 0.75913-0.55601 0.35094-0.35252 0.43075-0.49321 1.9866-3.5018 1.3567-2.6234 1.6216-3.1737 1.6247-3.3744 0.0039-0.25953-0.09741-0.50883-0.19376-0.47672-0.03296 0.01099-0.7412 1.3216-1.5739 2.9126-0.83269 1.591-1.5378 2.9168-1.567 2.9465-0.0334 0.03392-0.04149-0.0391-0.02179-0.19675 0.01723-0.13789 0.18046-1.7559 0.36274-3.5955l0.33141-3.3448 1.2958-2.3329c0.71271-1.2832 1.296-2.3786 1.2961-2.4346 4.72e-4 -0.13254 4.7523-8.696 4.8917-8.8153 0.05852-0.05013 0.44841-0.70689 0.86642-1.4594 0.50782-0.91427 0.75016-1.3038 0.73032-1.1737-0.1365 0.89462-0.56954 4.363-0.5489 4.3964 0.01445 0.02338 0.0817 0.04429 0.14944 0.04647 0.06775 0.0022 0.17376 0.02741 0.2356 0.05607 0.08626 0.03999 0.07065 0.04474-0.06702 0.0204-0.17098-0.03022-0.18144-0.0216-0.22163 0.18284-0.07057 0.359-0.04565 0.92815 0.05495 1.2545 0.07619 0.24722 0.08385 0.36308 0.0382 0.57807-0.05282 0.24883-2.3935 4.8536-2.6602 5.2334-0.06249 0.08899-0.24761 0.22315-0.41139 0.29813l-0.29776 0.13632-0.53634 1.0304c-0.50922 0.97831-0.53454 1.0434-0.50099 1.2882 0.03312 0.24167 0.02306 0.26933-0.16087 0.44227-0.10791 0.10146-0.24889 0.22242-0.31328 0.2688-0.0644 0.04638-0.35935 0.54857-0.65546 1.116l-0.53836 1.0317 0.06634 0.32122c0.05115 0.24767 0.05101 0.36541-5.89e-4 0.51427-0.07908 0.228-2.9143 5.7252-3.1929 6.1906-0.25195 0.42095-0.67511 0.7939-1.2006 1.0581-0.23463 0.11796-0.46314 0.25864-0.50778 0.31258-0.09109 0.11006-0.48595 0.30341-0.61523 0.30128-0.04638-7.08e-4 0.04216-0.05034 0.19675-0.11017zm8.3871-14.049c0.09881-0.06024 0.21578-0.16767 0.25994-0.23871 0.04417-0.07104 0.64599-1.2169 1.3374-2.5464l1.2571-2.4173 8.26e-4 -0.42977c5.89e-4 -0.34279-0.02063-0.45344-0.10509-0.54678-0.05825-0.06435-0.12424-0.10567-0.14667-0.09181s-0.05752 0.16769-0.07799 0.34186c-0.03168 0.2696-0.2542 0.73192-1.4976 3.1115-0.80324 1.5371-1.4605 2.8246-1.4605 2.8611 0 0.1018 0.23251 0.07832 0.43261-0.04369zm-38.78 4.676c-0.14376-0.14607-0.39673-0.34575-0.56216-0.44373s-2.5016-0.97962-5.1916-1.9592c-12.868-4.6863-11.496-4.1765-11.496-4.2697 0-0.06959 1.7089-1.6855 1.8961-1.7929 0.11655-0.06689 0.16497 0.02801 0.24619 0.4825 0.067487 0.37764 0.066968 0.38094-0.081508 0.51855-0.082186 0.07617-0.14943 0.1175-0.14943 0.09184s0.040963-0.08064 0.091031-0.1222c0.072281-0.05999 0.08424-0.14052 0.058061-0.39098-0.037802-0.36168-0.082226-0.5029-0.15819-0.5029-0.077407 0-1.8179 1.624-1.8179 1.6963 0 0.03347 3.6554 1.3933 8.1231 3.0219s8.2606 3.0357 8.4286 3.1268c0.16802 0.09119 0.43719 0.28596 0.59815 0.43282s0.32222 0.26703 0.35835 0.26703c0.03614 0 0.05007 0.0253 0.03096 0.05622-0.05636 0.0912-0.09898 0.067-0.37381-0.21226zm1.1327-14.818c0-0.0763-0.01283-0.17242-0.02852-0.2136s0.11317-0.26459 0.28634-0.49649c0.32646-0.43715 0.65052-1.0286 0.72387-1.3211l0.04229-0.16865 0.05372 0.14054c0.13643 0.35692-0.21381 1.3181-0.66305 1.8196-0.33528 0.37429-0.41466 0.42018-0.41466 0.23968zm-3.3786-1.7922c-0.0031-0.0077-0.24062-1.8861-0.52784-4.174l-0.52221-4.1599 0.21866-0.44482c0.12026-0.24464 0.21866-0.50244 0.21866-0.5729 0-0.23079 0.0981-0.19484 0.16212 0.0594 0.03447 0.13691 0.08703 0.26398 0.11678 0.28237 0.03154 0.01949 0.03482 0.08534 0.0079 0.15793-0.02941 0.07918 0.12789 1.5623 0.4322 4.0751 0.52819 4.3614 0.52201 4.1966 0.17213 4.595-0.14605 0.16634-0.25582 0.23803-0.27835 0.18177zm12.148-7.2663c0-0.14872 0.06218-0.28474 0.23862-0.52198 0.13124-0.17646 0.30706-0.45998 0.39071-0.63003l0.1521-0.30919 0.0023 0.28108c0.0033 0.41736-0.3803 1.1654-0.67997 1.3257-0.09182 0.04914-0.10371 0.03244-0.10371-0.14564zm-3.0926-1.4987c-3.53e-4 -0.0103-0.11204-1.7978-0.24804-3.9721l-0.24728-3.9533 0.17031-0.36395c0.09367-0.20017 0.18134-0.35293 0.19482-0.33944 0.01348 0.01348 0.09953 1.1973 0.19124 2.6308 0.0917 1.4335 0.20292 3.1249 0.24715 3.7588 0.11472 1.6438 0.11158 1.8008-0.04042 2.0252-0.10549 0.15569-0.26498 0.28319-0.26778 0.21408z" fill="#62776b"/><path d="m40.795 52.121c-5.4571-1.9926-10.112-3.6746-10.344-3.7377-0.23189-0.06303-0.69356-0.12977-1.0259-0.1483l-0.60431-0.03369v-0.18638c0-0.23652-0.26579-0.55149-0.54242-0.64277-0.33626-0.11097-0.87088-0.046-1.1366 0.13812-0.30803 0.21347-0.40982 0.16972-0.36505-0.15692 0.02768-0.20195 0.01103-0.28328-0.08583-0.4193-0.2689-0.37764-1.0627-0.46144-1.5179-0.16024-0.3418 0.22619-0.42082 0.20643-0.37578-0.09392 0.07656-0.51054-0.24358-0.7947-0.89536-0.7947-0.32805 0-0.43726 0.02572-0.65649 0.1546-0.38068 0.22379-0.45893 0.20979-0.41106-0.07349 0.05279-0.31248-0.04501-0.51583-0.3233-0.67223-0.34903-0.19616-0.78724-0.18044-1.2145 0.04357-0.37957 0.19897-0.48684 0.16838-0.38944-0.11103 0.0786-0.22546-0.05675-0.51062-0.30566-0.64398-0.24892-0.13337-0.84856-0.13532-1.107-0.0036-0.10524 0.05365-0.21552 0.09754-0.24509 0.09754-0.02956 0-0.18545-0.12016-0.3464-0.26703-0.16096-0.14686-0.43012-0.34163-0.59815-0.43282-0.16802-0.09119-3.9609-1.4982-8.4286-3.1268s-8.1231-2.9884-8.1231-3.0219c0-0.07223 1.7405-1.6963 1.8179-1.6963 0.074095 0 0.11576 0.12786 0.15757 0.48357 0.028165 0.23964 0.016196 0.32711-0.055619 0.40646-0.15706 0.17354-0.17267 0.41396-0.038004 0.58516 0.10869 0.13817 0.27198 0.2085 0.67597 0.29112 0.077296 0.01581 0.27359 0.12907 0.43621 0.25169s0.44089 0.27762 0.61837 0.34444c2.1212 0.79858 41.722 15.092 41.977 15.151 0.19211 0.04455 0.48584 0.14232 0.65274 0.21728 0.61593 0.27659 1.2891 0.22531 1.6945-0.12911 0.10062-0.08794 0.36094-0.24929 0.57848-0.35855 0.49609-0.24917 0.9217-0.62847 1.1692-1.042 0.2786-0.46548 3.1139-5.9626 3.1929-6.1906 0.05163-0.14885 0.05177-0.26661 5.89e-4 -0.51427l-0.066342-0.32122 0.53838-1.0317c0.2961-0.56741 0.59106-1.0696 0.65546-1.116 0.0644-0.04638 0.20537-0.16734 0.31328-0.2688 0.18393-0.17294 0.19398-0.2006 0.16087-0.44227-0.03355-0.24476-0.0082-0.30988 0.50099-1.2882l0.53634-1.0304 0.29776-0.13632c0.16378-0.07498 0.3489-0.20913 0.41139-0.29813 0.26669-0.37978 2.6073-4.9846 2.6602-5.2334 0.04485-0.21124 0.03784-0.33517-0.03269-0.57807-0.04938-0.17005-0.10288-0.38851-0.11888-0.48545-0.02772-0.16783 0.06025-0.90481 0.11447-0.95903 0.01415-0.01415 0.40991 0.08271 0.87947 0.21524l0.85374 0.24096-0.03176 0.199c-0.01747 0.10946-0.12849 0.38873-0.24673 0.62063-0.46619 0.91433-2.3193 4.5552-3.0902 6.0713-1.601 3.1487-2.485 4.8866-3.3027 6.4929-0.45642 0.89663-1.2094 2.3765-1.6732 3.2887-3.3007 6.4908-3.1429 6.1898-3.2396 6.1802-0.0194-0.0019-4.5003-1.6339-9.9573-3.6265z" fill="#080a09"/></g><g transform="translate(-44.993 1.3946)"><path d="m81.03 10.235v-4.2291h25.375v25.375h-25.375v-16.916l2.8194-1.4097z" fill="url(#a)" stroke-width=".90624"/><path d="m104.99 27.151-2.8194 2.8194h2.8194z" fill="#e6ea97" fill-rule="evenodd" stroke-width=".67219"/><path d="m86.459 26.092 5.667 5.2889 14.349-0.12133-0.07516-14.681-5.2834-5.1432z" fill="url(#c)" opacity=".2" stroke-width=".90624"/><path d="m81.03 29.97h25.375v1.4097h-25.375z" fill="#d72555" stroke-width="1.1303"/><g transform="translate(-.069985 .12991)"><path d="m86.459 11.235h14.657v14.657h-14.657z" fill="url(#b)" stroke-width=".73287"/><path d="m86.459 24.67h14.657v1.2214h-14.657z" fill="#616365" stroke-width=".94617"/><path d="m95.009 13.678v3.6643h1.2214v-1.2214h1.2214v-1.2214h-1.2214v-1.2214zm2.4429 1.2214h1.2214v-1.2214h-1.2214zm0 1.2214v1.2214h1.2214v-1.2214zm-8.5501 2.4429v1.2214h4.8858v-1.2214zm0 2.4429v1.2214h2.4429v-1.2214z" fill="#484a4b" stroke-width="1.2214"/></g><path d="m103.58 8.8248v1.4097h1.4097v-1.4097zm1.4097 1.4097v1.4097h1.4097v-1.4097zm0 1.4097h-1.4097v1.4097h1.4097zm0 1.4097v1.4097h1.4097v-1.4097zm0 1.4097h-1.4097v1.4097h1.4097zm0 1.4097v1.4097h1.4097v-1.4097zm-1.4097 5.6388v1.4097h1.4097v-1.4097zm1.4097 1.4097v1.4097h1.4097v-1.4097zm0 1.4097h-1.4097v1.4097h1.4097zm-22.555 2.8194v1.4097h1.4097v-1.4097zm1.4097 1.4097v1.4097h1.4097v-1.4097zm1.4097 0h1.4097v-1.4097h-1.4097zm1.4097 0v1.4097h1.4097v-1.4097zm1.4097 0h1.4097v-1.4097h-1.4097zm1.4097 0v1.4097h1.4097v-1.4097zm5.6388-1.4097v1.4097h1.4097v-1.4097zm1.4097 1.4097v1.4097h1.4097v-1.4097zm1.4097 0h1.4097v-1.4097h-1.4097zm1.4097 0v1.4097h1.4097v-1.4097zm1.4097 0h1.4097v-1.4097h-1.4097zm-5.6388 0h-1.4097v1.4097h1.4097z" opacity=".1" stroke-width=".67219"/></g></g></svg>
