<?xml version="1.0" encoding="UTF-8" standalone="no"?>
<svg
   width="64"
   height="64"
   version="1.1"
   xml:space="preserve"
   id="svg33"
   sodipodi:docname="sp210-pressuresense.svg"
   inkscape:version="1.2.2 (b0a8486541, 2022-12-01)"
   xmlns:inkscape="http://www.inkscape.org/namespaces/inkscape"
   xmlns:sodipodi="http://sodipodi.sourceforge.net/DTD/sodipodi-0.dtd"
   xmlns="http://www.w3.org/2000/svg"
   xmlns:svg="http://www.w3.org/2000/svg"
   xmlns:rdf="http://www.w3.org/1999/02/22-rdf-syntax-ns#"
   xmlns:cc="http://creativecommons.org/ns#"
   xmlns:dc="http://purl.org/dc/elements/1.1/"><sodipodi:namedview
     id="namedview35"
     pagecolor="#ffffff"
     bordercolor="#999999"
     borderopacity="1"
     inkscape:showpageshadow="0"
     inkscape:pageopacity="0"
     inkscape:pagecheckerboard="0"
     inkscape:deskcolor="#d1d1d1"
     showgrid="false"
     inkscape:zoom="22.693708"
     inkscape:cx="32.71832"
     inkscape:cy="29.149048"
     inkscape:window-width="5120"
     inkscape:window-height="1368"
     inkscape:window-x="0"
     inkscape:window-y="0"
     inkscape:window-maximized="1"
     inkscape:current-layer="g25" /><metadata
     id="metadata2"><rdf:RDF><cc:Work
         rdf:about=""><dc:format>image/svg+xml</dc:format><dc:type
           rdf:resource="http://purl.org/dc/dcmitype/StillImage" /></cc:Work></rdf:RDF></metadata><defs
     id="defs9"><style
       id="current-color-scheme"
       type="text/css">.ColorScheme-Text { color:#444444; } .ColorScheme-Highlight { color:#4285f4; }</style><style
       type="text/css"
       id="style5">.ColorScheme-Text {
        color:#232629;
      }</style><style
       type="text/css"
       id="style7">.ColorScheme-Text {
        color:#232629;
      }
      .ColorScheme-NegativeText {
        color:#da4453;
      }</style></defs><g
     transform="matrix(0.11789422,0,0,0.11789422,11.678464,-13.557546)"
     stroke-width="0.47683"
     id="g25"><path
       d="m 303.11,607.36 c -13.318,-5.0066 -24.135,-9.1815 -24.039,-9.2776 0.0961,-0.096 11.098,3.9219 24.448,8.9288 21.138,7.9276 24.397,9.0264 25.231,8.5072 0.86434,-0.53809 0.89388,-0.51902 0.30323,0.19567 -0.35994,0.43552 -0.89637,0.78217 -1.1921,0.77034 -0.29571,-0.0118 -11.434,-4.1178 -24.752,-9.1244 z m 0.37243,-39.244 c -1.5735,-0.34693 -5.0067,-1.3796 -7.6293,-2.2949 -17.379,-6.0652 -349.67,-126.4 -351.21,-127.19 -3.5675,-1.82 -7.0852,-5.7092 -5.1639,-5.7092 0.2932,0 1.2647,0.64241 2.159,1.4276 0.89425,0.78516 2.441,1.8434 3.4371,2.3516 0.99617,0.50821 39.345,14.438 85.22,30.955 45.875,16.517 121.82,43.87 168.76,60.784 46.944,16.914 88.896,32.03 93.227,33.591 8.9853,3.2373 12.661,4.2234 17.401,4.6676 3.7759,0.3539 9.3915,-0.35994 13.98,-1.7771 1.6702,-0.51586 3.1243,-0.8503 3.2314,-0.74319 0.43804,0.43803 -4.932,2.9197 -8.0974,3.742 -4.019,1.0441 -11.051,1.1321 -15.316,0.19174 z m -318.18,-79.978 c -34.954,-13.13 -63.474,-23.95 -63.378,-24.046 0.18419,-0.18419 127.16,47.346 127.57,47.751 0.13015,0.13014 0.03991,0.22106 -0.20047,0.20204 -0.2404,-0.019 -29.035,-10.777 -63.989,-23.907 z m 324.86,7.5222 c -1.8358,-0.36473 -28.336,-9.0292 -58.889,-19.254 -30.553,-10.225 -113.28,-37.9 -183.85,-61.5 -70.562,-23.6 -129.42,-43.391 -130.78,-43.98 -1.5503,-0.66692 -3.2876,-1.9584 -4.6042,-3.4229 -2.0012,-2.2258 -2.1293,-2.2926 -2.3918,-1.2465 -0.1525,0.60791 0.92528,8.8992 2.3951,18.425 1.4698,9.526 2.5965,17.547 2.5039,17.825 -0.36357,1.0907 -5.6256,-35.307 -5.6179,-38.86 0.01393,-6.4169 -0.16513,-6.211 21.227,-24.399 10.344,-8.7952 14.022,-12.201 14.6,-13.517 0.57123,-1.3034 3.8203,-4.3452 12.517,-11.718 7.243,-6.1408 11.745,-10.284 11.745,-10.81 0,-0.46849 -0.44298,-3.8829 -0.9844,-7.5876 -0.54142,-3.7047 -0.91354,-7.1014 -0.82693,-7.5483 0.08661,-0.44689 0.66428,2.8705 1.2837,7.372 0.82964,6.0292 1.0009,8.5441 0.65016,9.5501 -0.33455,0.95969 -0.27771,2.7055 0.19123,5.8732 0.36701,2.4792 0.60748,4.757 0.53438,5.0618 -0.19416,0.80967 -11.88,10.906 -13.777,11.903 -2.1831,1.1472 -7.4055,1.1799 -9.0096,0.0563 -1.5231,-1.0668 -1.7356,-1.0351 -2.6758,0.39997 -0.7675,1.1714 -0.74994,1.2604 0.50662,2.572 1.5785,1.6476 4.7807,2.6198 7.5874,2.3035 1.4971,-0.16875 2.7768,-0.78827 4.5919,-2.223 1.384,-1.094 4.044,-2.8684 5.9112,-3.9433 1.8672,-1.0749 4.3847,-2.7725 5.5944,-3.7726 l 2.1994,-1.8182 2.014,14.636 c 2.2224,16.15 2.5901,17.416 5.9611,20.523 2.6055,2.4016 4.9165,3.5853 9.6446,4.9398 5.3466,1.5317 15.334,1.5312 21.135,-9.6e-4 9.6152,-2.5399 17.217,-8.052 18.85,-13.668 l 0.8132,-2.7973 -8.186,-67.317 2.57,-2.2727 c 2.6096,-2.3078 3.4889,-4.1557 2.8842,-6.0611 -0.46521,-1.4657 -1.7123,-1.1496 -3.7932,0.96156 -2.1097,2.1405 -2.3386,2.014 -2.8572,-1.5782 -0.18064,-1.2512 -0.64743,-2.5386 -1.0373,-2.861 -0.38987,-0.3224 -2.0862,-1.9362 -3.7696,-3.5862 -4.9145,-4.8172 -10.385,-6.7915 -18.825,-6.7942 -4.8997,-0.001 -10.331,0.62737 -10.913,1.2638 -0.16091,0.17594 0.26217,0.18721 0.94018,0.025 5.3891,-1.289 13.224,-0.66311 17.471,1.3958 4.7356,2.2956 5.63,5.4572 2.7533,9.732 -0.9179,1.364 -1.6832,2.6194 -1.7006,2.7897 -0.0174,0.17034 -0.72713,1.2753 -1.5771,2.4554 -4.3571,6.0494 -14.681,9.3543 -23.25,7.4431 -8.7716,-1.9563 -13.142,-7.4305 -10.712,-13.417 l 0.76868,-1.8937 -0.97172,1.1921 c -2.8418,3.4862 -3.5076,7.2297 -2.532,14.236 0.37818,2.7155 0.61506,5.2904 0.52639,5.722 -0.08867,0.43155 -0.54974,-2.2201 -1.0246,-5.8926 -0.78372,-6.061 -0.79736,-6.9301 -0.1478,-9.4175 1.47,-5.6293 5.2983,-9.9669 11.466,-12.991 5.257,-2.5777 10.029,-3.6109 16.997,-3.6797 6.7955,-0.0672 11.702,0.99608 16.034,3.475 2.5692,1.4699 6.3768,4.8656 6.3768,5.6869 0,1.4492 2.6566,-0.40773 11.682,-8.1656 10.736,-9.2279 14.715,-11.753 20.188,-12.808 1.4848,-0.28635 3.173,-0.62123 3.7516,-0.74415 0.94769,-0.20133 1.0684,-0.56609 1.2165,-3.6767 l 0.16448,-3.4532 0.09474,3.4884 c 0.05211,1.9186 -0.10344,3.8587 -0.34566,4.3113 -0.52181,0.97502 1.5864,31.279 2.3704,34.072 1.7926,6.3871 12.437,10.808 24.534,10.19 8.8205,-0.45079 15.463,-2.6956 20.176,-6.8184 4.0102,-3.5081 4.1636,-4.3084 3.4434,-17.968 -0.42524,-8.065 -0.80641,-11.857 -1.266,-12.595 -0.36168,-0.58085 -0.65431,-1.3319 -0.6503,-1.6689 0.006,-0.47353 0.0915,-0.48037 0.37754,-0.0301 0.20363,0.3205 2.2879,1.1384 4.6318,1.8177 5.4986,1.5934 11.011,4.029 14.535,6.4217 2.7367,1.8585 5.6707,2.6577 132.88,36.2 71.547,18.865 131.16,34.662 132.47,35.106 6.1512,2.082 10.936,5.568 12.813,9.334 1.0978,2.203 1.2453,3.0508 1.1884,6.8322 -0.0358,2.3744 -0.14944,3.7806 -0.25267,3.125 -0.5002,-3.1755 -0.66051,-3.5204 -1.309,-2.8162 -0.33955,0.36874 -3.6851,6.2494 -7.4346,13.068 -3.7495,6.8187 -7.4044,13.041 -8.1219,13.828 -0.71759,0.78677 -10.265,17.631 -21.217,37.431 -10.952,19.8 -20.446,36.721 -21.098,37.601 -1.4115,1.9053 -2.9766,7.3802 -2.9766,7.3802 l -2.1096,3.8544 c -9.7312,17.779 -16.642,29.897 -17.918,31.421 -2.1697,2.589 -5.8304,4.8466 -10.237,6.3131 -4.7167,1.5699 -12.88,2.0025 -18.124,0.96063 z m -209.7,-95.224 c 4.9686,-1.8337 8.1009,-6.322 6.8,-9.7437 -0.65148,-1.7135 -1.9745,-1.3913 -3.3251,0.80988 -1.2861,2.0961 -4.1937,3.8659 -7.27,4.425 -2.5412,0.46193 -6.6926,-0.40312 -14.895,-3.1037 -3.9297,-1.2938 -7.4165,-2.2482 -7.7485,-2.1208 -0.927,0.35572 -0.75338,3.7928 0.23685,4.689 0.6709,0.60715 12.434,4.6609 16.584,5.715 2.4351,0.61857 6.9841,0.30135 9.6179,-0.67069 z m -30.536,-11.021 c 2.8815,-2.9504 9.7022,-10.031 15.157,-15.735 5.4551,-5.7041 10.092,-10.371 10.305,-10.371 0.21284,0 5.281,1.5188 11.263,3.3752 11.737,3.6426 15.769,5.4517 17.652,7.9205 1.3257,1.738 2.0931,1.9543 3.0109,0.84838 0.92412,-1.1135 -0.22467,-4.3908 -2.2904,-6.5342 -2.2054,-2.2883 -5.7209,-3.7342 -19.406,-7.9815 -7.33,-2.2748 -11.238,-3.2735 -11.81,-3.0176 -0.47004,0.21035 -8.039,7.8818 -16.82,17.048 -12.962,13.53 -15.965,16.909 -15.965,17.961 0,1.3917 0.48629,1.755 2.4285,1.8141 0.96932,0.0295 2.368,-1.1211 6.4754,-5.3267 z m 45.346,1.3072 c 0.17138,-2.5111 -1.3657,-5.1308 -2.8838,-4.915 -1.6385,0.2329 -1.6954,2.8429 -0.11407,5.2324 1.6237,2.4536 2.8174,2.3272 2.9979,-0.31741 z m -91.205,-0.48262 c 2.3603,-0.16747 6.8823,-0.80428 10.049,-1.4151 25.555,-4.9296 44.607,-18.576 47.608,-34.099 0.62266,-3.2216 0.28167,-9.3119 -0.67807,-12.111 -0.26071,-0.76035 -0.47402,-1.8742 -0.47402,-2.4752 0,-0.60102 -0.23327,-1.237 -0.51838,-1.4132 -0.96117,-0.59404 -1.5527,0.69837 -1.4786,3.2306 0.22524,7.6953 -3.411,14.538 -11.388,21.428 -24.334,21.021 -75.448,23.046 -95.484,3.7824 -2.9515,-2.8376 -5.6348,-7.1221 -6.4883,-10.36 -0.56995,-2.1622 -1.59,-3.3103 -2.4621,-2.7713 -0.77307,0.47778 -0.21975,6.6908 0.96475,10.833 1.2106,4.2332 3.5841,8.0263 7.2745,11.625 5.4757,5.34 12.908,9.1172 22.797,11.586 7.1125,1.7756 19.669,3.0825 24.795,2.5807 0.65564,-0.0642 3.1232,-0.25372 5.4836,-0.4212 z m 88.485,-6.2377 c 1.8829,-0.55548 3.1496,-1.3455 4.6402,-2.8942 1.9438,-2.0194 2.0429,-2.2584 1.9073,-4.6003 -0.12074,-2.0859 -0.29785,-2.4923 -1.1386,-2.6124 -0.70007,-0.10002 -1.337,0.36967 -2.1457,1.5823 -2.8875,4.3296 -7.6369,4.6905 -18.084,1.3742 -9.8412,-3.1238 -9.0529,-3.0679 -9.0529,-0.64243 0,1.2369 0.31309,2.3905 0.79259,2.9204 0.7145,0.78952 9.891,3.9689 14.704,5.0946 2.9295,0.68515 5.536,0.61602 8.3772,-0.22219 z m 68.054,-69.092 c 0.33843,-1.3113 0.66029,-3.6716 0.71525,-5.2451 0.0963,-2.7562 0.0565,-2.861 -1.0853,-2.861 -1.0731,0 -1.2611,0.3157 -1.9876,3.3378 -0.4413,1.8358 -0.81988,4.264 -0.84128,5.396 -0.0373,1.9718 0.0162,2.0519 1.2724,1.9073 1.1353,-0.13063 1.3939,-0.47087 1.9266,-2.535 z m -67.848,-5.4748 c 15.195,-2.6368 26.215,-7.5284 33.88,-15.04 5.6293,-5.5164 7.038,-8.5315 7.2893,-15.602 0.21436,-6.0303 -0.0514,-7.5138 -1.346,-7.5138 -1.1092,0 -1.9149,1.3406 -1.9154,3.1873 -9.5e-4,2.5814 -2.7194,7.2885 -6.1638,10.672 -5.2986,5.2048 -11.04,8.4384 -20.648,11.628 -7.6256,2.5318 -14.555,3.6349 -24.752,3.9405 -9.3939,0.28154 -14.984,-0.1667 -22.397,-1.7959 -13.39,-2.9427 -23.482,-9.3846 -27.042,-17.261 -0.80013,-1.7702 -1.6753,-3.2186 -1.9447,-3.2186 -1.8067,0 -1.67,7.4369 0.21463,11.676 4.5042,10.131 17.956,17.387 37.17,20.051 6.6855,0.92685 20.18,0.57383 27.656,-0.72349 z m 50.114,-12.478 20.906,-10.085 2.9531,0.7869 c 4.1209,1.098 4.8744,1.0275 5.4594,-0.51088 0.79257,-2.0846 -0.0819,-3.3031 -2.9988,-4.1788 -5.9519,-1.7867 -3.9928,-2.4357 -29.238,9.6849 -24.574,11.798 -25.111,12.138 -21.6,13.663 0.8712,0.37839 2.0406,0.69638 2.5986,0.70665 0.55803,0.0102 10.422,-4.5196 21.92,-10.066 z m 19.529,7.1636 c 0.7924,-0.79241 2.7268,-9.8435 2.5088,-11.739 -0.11923,-1.0366 -0.39845,-1.3137 -1.3236,-1.3137 -1.0862,0 -1.2446,0.31607 -2.1508,4.2915 -0.82242,3.6077 -1.137,4.3143 -1.9745,4.4345 -0.54792,0.0786 -3.3351,-0.5304 -6.1937,-1.3534 -7.2602,-2.0903 -7.3861,-2.112 -7.8635,-1.3582 -0.61199,0.96637 -0.5245,2.9771 0.17094,3.9281 0.34176,0.46739 2.9833,1.5374 6.0796,2.4626 5.7846,1.7285 9.4451,1.949 10.747,0.64733 z m -164.06,-33.307 c 1.744,-0.67405 3.6522,-1.8914 4.8875,-3.1181 1.7269,-1.7148 2.0265,-2.3011 2.0265,-3.9657 0,-3.8978 -4.0032,-6.521 -10.775,-7.0604 -8.4704,-0.67481 -17.358,3.6803 -17.358,8.5058 0,2.9488 1.7282,4.8413 5.75,6.2966 3.2203,1.1653 11.683,0.80527 15.469,-0.65819 z m -87.718,149.08 c 0.77626,-1.0021 2.3207,-2.7618 3.432,-3.9103 1.9127,-1.9767 2.009,-2.2105 1.8027,-4.3768 l -0.21789,-2.2885 0.43215,1.9073 c 0.27536,1.2153 0.25406,2.4774 -0.05872,3.4786 -0.38321,1.2266 -0.32433,1.9222 0.26847,3.1715 1.1397,2.4018 0.99227,3.125 -0.63709,3.125 -0.76804,0 -1.7183,-0.32186 -2.1117,-0.71525 -0.98208,-0.98208 -1.708,-0.8988 -3.1177,0.35762 -1.0657,0.94986 -1.0419,0.86396 0.20768,-0.74916 z m 154.36,-210.85 c -7.427,-1.6134 -11.774,-6.2186 -10.182,-10.786 l 0.53791,-1.543 -1.1844,1.1127 c -1.3985,1.3138 -2.1881,3.4837 -2.6962,7.4097 -0.35478,2.741 -0.36298,2.7064 -0.19571,-0.82662 0.21332,-4.5055 1.4191,-7.1744 4.5749,-10.126 4.7103,-4.4059 11.296,-6.5508 20.231,-6.5891 8.6213,-0.037 14.045,1.5858 18.687,5.5915 1.9668,1.6971 4.4558,6.0584 4.4221,7.7487 -0.009,0.47519 -0.43867,-0.30812 -0.9538,-1.7407 -1.1949,-3.3231 -4.1207,-6.3405 -7.8504,-8.0962 -3.3908,-1.5961 -4.8385,-1.8854 -10.955,-2.1891 -10.189,-0.50578 -17.416,2.475 -17.416,7.1828 0,1.8496 2.2028,4.0417 5.085,5.0606 2.729,0.96465 10.728,0.83507 14.193,-0.22992 5.8305,-1.792 7.7596,-5.9283 4.2907,-9.1999 -1.9025,-1.7943 -1.8183,-1.9635 0.41525,-0.83498 4.1057,2.0744 4.6325,4.2096 2.135,8.6536 -3.1888,5.674 -7.4351,8.5711 -14.199,9.6872 -3.4178,0.56396 -5.3104,0.50366 -8.94,-0.28482 z"
       fill="#b4bfc7"
       id="path11" /><path
       d="M 304.5,569.22 C 302.1046,568.68405 250.862,550.4 186.25,527.024 123.535,504.336 44.33,475.69 10.24,463.366 c -34.093,-12.325 -63.314,-23.018 -64.935,-23.763 -3.0598,-1.4069 -7.3052,-4.8998 -7.3052,-6.0103 0,-0.35075 0.40942,-0.85685 0.90983,-1.1247 0.74404,-0.3982 1.3305,-0.13884 3.2186,1.4234 1.2819,1.0607 4.0054,2.5658 6.1234,3.3841 15.726,6.0759 353.71,127.34 356.56,127.93 10.245,2.1162 21.309,-0.53667 27.182,-6.5176 2.1444,-2.1841 4.1337,-5.7011 14.372,-25.408 13.18,-25.371 15.863,-30.264 16.59,-30.264 1.2403,0 -0.99108,4.7726 -13.822,29.564 -13.096,25.303 -13.833,26.602 -16.796,29.598 -3.7407,3.7823 -8.5263,6.2318 -14.323,7.3315 -5.0198,0.95225 -8.2729,0.88283 -13.507,-0.28819 z m 14.298,-1.3005 c 3.1653,-0.82232 8.5354,-3.304 8.0974,-3.742 -0.1071,-0.10711 -1.5612,0.22733 -3.2314,0.74319 -4.5882,1.4171 -10.204,2.131 -13.98,1.7771 -4.7394,-0.44422 -8.4154,-1.4303 -17.401,-4.6676 -4.331,-1.5604 -46.283,-16.676 -93.227,-33.591 -46.944,-16.914 -122.89,-44.267 -168.76,-60.784 -45.875,-16.517 -84.224,-30.447 -85.22,-30.955 -0.99617,-0.50821 -2.5429,-1.5664 -3.4371,-2.3516 -0.89425,-0.78515 -1.8658,-1.4276 -2.159,-1.4276 -1.9213,0 1.5964,3.8892 5.1639,5.7092 1.543,0.78716 333.83,121.12 351.21,127.19 2.6226,0.91526 6.0558,1.948 7.6293,2.2949 4.2652,0.94039 11.297,0.85235 15.316,-0.19174 z m -6.5058,-70.645 c -1.7109,-0.23669 -5.1441,-1.053 -7.6293,-1.814 -11.952,-3.66 -366.91,-122.72 -368.91,-123.74 -1.2626,-0.64414 -2.9258,-1.8349 -3.6961,-2.6461 -1.6073,-1.6928 -2.0192,-1.8063 -2.3239,-0.6405 -0.1384,0.52961 -0.23827,0.36965 -0.27338,-0.43783 -0.12166,-2.7985 0.41367,-2.8926 2.6028,-0.45776 1.2863,1.4306 3.0337,2.7252 4.5718,3.3868 2.1547,0.92692 106.15,35.784 315.22,105.65 40.476,13.526 57.226,18.919 60.042,19.331 10.563,1.5446 21.649,-1.5869 26.622,-7.5198 1.2768,-1.5235 8.1872,-13.641 17.918,-31.421 l 2.1096,-3.8544 c 0,0 1.5651,-5.4749 2.9766,-7.3802 0.65205,-0.88016 10.146,-17.801 21.098,-37.601 10.952,-19.8 20.499,-36.644 21.215,-37.431 0.71672,-0.78678 4.2573,-6.7948 7.8679,-13.351 8.164,-14.825 7.8797,-14.367 8.4078,-13.533 0.2295,0.36241 0.38843,1.5172 0.35319,2.5662 -0.0477,1.4184 -0.11511,1.5712 -0.26283,0.59604 -0.10924,-0.72121 -0.37154,-1.3113 -0.58288,-1.3113 -0.21133,0 -3.6174,5.8559 -7.569,13.013 -3.9516,7.1572 -7.6071,13.395 -8.1233,13.862 -0.51626,0.46719 -10.2,17.517 -21.52,37.889 -12.055,21.695 -21.064,37.396 -21.745,37.9 -0.63966,0.47342 -2.2871,1.0954 -3.661,1.3823 -3.73,0.77876 -2.6651,3.0204 1.5266,1.8182 0.89879,-0.25777 1.7245,-0.37836 1.8349,-0.26797 0.1104,0.1104 -4.2742,8.312 -9.7434,18.226 -11.12,20.156 -12.554,22.104 -18.289,24.829 -5.7856,2.7497 -13.419,3.8781 -20.038,2.9623 z m 76.781,-45.174 c 0,-0.20394 0.82935,-1.9742 1.843,-3.9338 3.2369,-6.258 7.4641,-14.374 10.3,-19.775 11.535,-21.972 12.176,-23.249 12.176,-24.281 0,-0.68794 0.14238,-0.8006 0.52647,-0.41653 0.32415,0.32414 0.40402,1.2513 0.2078,2.4125 -0.35328,2.0912 -21.665,43.589 -23.26,45.292 -1.0129,1.0815 -1.7923,1.3868 -1.7923,0.70206 z m -298.24,-50.998 c -4.15,-1.0542 -15.913,-5.1079 -16.584,-5.715 -0.99023,-0.89615 -1.1638,-4.3333 -0.23685,-4.689 0.33198,-0.12739 3.8188,0.82697 7.7485,2.1208 8.2025,2.7006 12.354,3.5657 14.895,3.1037 3.0763,-0.55917 5.9838,-2.3289 7.27,-4.425 1.3506,-2.2012 2.6736,-2.5234 3.3251,-0.80988 1.9099,5.0234 -4.9034,10.849 -12.522,10.707 -1.6293,-0.0304 -3.3824,-0.16204 -3.896,-0.29249 z m 10.295,-2.1322 c 3.6077,-1.5141 6.3122,-5.2579 5.1376,-7.112 -0.32595,-0.51449 -0.78578,-0.26181 -2.0868,1.1468 -2.3495,2.5437 -6.0043,4.1433 -9.4799,4.1491 -2.7973,0.005 -9.3572,-1.6684 -16.153,-4.1197 -3.5191,-1.2694 -4.5401,-1.0874 -3.9703,0.70765 0.34086,1.074 1.5483,1.5884 9.8001,4.1752 8.6729,2.7189 12.248,2.9436 16.752,1.053 z m -39.521,-4.5115 c -0.32782,-0.13228 -0.59604,-0.82345 -0.59604,-1.5359 0,-1.0517 3.0034,-4.4305 15.965,-17.961 8.7809,-9.1659 16.35,-16.837 16.82,-17.048 0.5718,-0.2559 4.4802,0.74273 11.81,3.0176 13.685,4.2473 17.201,5.6931 19.406,7.9815 2.0657,2.1434 3.2145,5.4207 2.2904,6.5342 -0.9178,1.1059 -1.6852,0.88965 -3.0109,-0.84838 -1.883,-2.4688 -5.9151,-4.278 -17.652,-7.9205 -5.9815,-1.8563 -11.05,-3.3752 -11.263,-3.3752 -0.21284,0 -4.8502,4.667 -10.305,10.371 -18.797,19.655 -20.284,21.103 -21.633,21.062 -0.68001,-0.0207 -1.5046,-0.14587 -1.8324,-0.27815 z m 13.056,-11.486 c 5.7271,-5.9664 12.669,-13.158 15.427,-15.982 l 5.0142,-5.1345 10.967,3.3983 c 11.752,3.6416 15.788,5.3466 18.232,7.7025 1.7562,1.6933 2.2642,1.5417 1.8071,-0.53919 -0.39497,-1.7983 -3.0204,-4.1494 -6.1851,-5.5388 -2.9057,-1.2756 -24.188,-7.867 -25.397,-7.8656 -0.496,4.7e-4 -6.4574,5.8333 -14.206,13.899 -17.395,18.108 -18.51,19.347 -18.182,20.202 0.68545,1.7863 2.4276,0.37545 12.523,-10.141 z m 37.6,8.0618 c -1.5813,-2.3895 -1.5244,-4.9995 0.11407,-5.2324 1.5181,-0.2158 3.0552,2.4039 2.8838,4.915 -0.18049,2.6446 -1.3742,2.771 -2.9979,0.31741 z m -98.935,-0.39017 c -14.414,-0.45532 -27.733,-3.8953 -36.494,-9.4255 -3.773,-2.3818 -8.4657,-7.0154 -10.535,-10.403 -0.92048,-1.5065 -2.0871,-4.185 -2.5925,-5.9522 -1.1845,-4.142 -1.7378,-10.355 -0.96475,-10.833 0.87211,-0.539 1.8922,0.60916 2.4621,2.7713 4.2105,15.973 29.71,26.045 58.683,23.178 31.029,-3.0697 55.208,-19.887 54.677,-38.029 -0.07411,-2.5322 0.5174,-3.8246 1.4786,-3.2306 0.28511,0.1762 0.51838,0.81213 0.51838,1.4132 0,0.60103 0.21331,1.7149 0.47402,2.4752 0.95974,2.799 1.3007,8.8894 0.67807,12.111 -3.0002,15.523 -22.053,29.169 -47.608,34.099 -3.1665,0.61085 -7.6885,1.2477 -10.049,1.4151 -2.3603,0.16748 -4.8279,0.35702 -5.4836,0.4212 -0.65564,0.0642 -3.016,0.0591 -5.2451,-0.0113 z m 10.465,-1.6202 c 20.344,-1.8649 37.459,-8.7999 48.183,-19.523 5.1837,-5.1834 7.6788,-9.3313 8.7818,-14.599 0.65269,-3.1172 0.46657,-8.7359 -0.31527,-9.5177 -0.60056,-0.60057 -1.2388,0.33824 -1.5678,2.3061 -0.45853,2.743 -3.2117,8.0963 -5.8149,11.307 -9.3391,11.517 -27.561,19.737 -49.242,22.213 -7.9698,0.91034 -13.178,0.85235 -21.457,-0.23892 -17.68,-2.3303 -30.24,-9.0047 -36.387,-19.336 -1.7011,-2.8588 -2.0106,-3.1704 -2.1564,-2.1713 -0.25911,1.7752 1.299,7.1008 2.9372,10.039 7.6797,13.774 31.353,21.877 57.039,19.522 z m 80.371,-4.8052 c -4.8135,-1.1258 -13.99,-4.3051 -14.704,-5.0946 -0.4795,-0.52984 -0.79259,-1.6834 -0.79259,-2.9204 0,-2.4254 -0.78827,-2.4814 9.0529,0.64243 10.448,3.3163 15.197,2.9554 18.084,-1.3742 0.80871,-1.2126 1.4457,-1.6823 2.1457,-1.5823 0.84075,0.12013 1.0179,0.5265 1.1386,2.6124 0.13554,2.3418 0.0364,2.5808 -1.9073,4.6003 -3.084,3.204 -7.8075,4.3348 -13.017,3.1164 z m 9.5564,-1.7849 c 2.4771,-1.1252 4.5102,-3.532 4.5102,-5.3391 0,-1.7415 -1.1059,-1.8557 -2.1747,-0.22459 -1.1284,1.7222 -5.2181,3.599 -7.8426,3.599 -2.4042,0 -6.9271,-1.0986 -13.586,-3.3 -4.5442,-1.5023 -5.5538,-1.3795 -4.6667,0.56752 0.40981,0.89942 1.7049,1.479 6.8773,3.0779 8.0021,2.4736 7.6353,2.3962 11.618,2.4497 2.3004,0.0309 3.9368,-0.22721 5.2649,-0.8305 z m -101.43,-20.063 c -6.3224,-1.1588 -10.365,-2.8962 -13.533,-5.816 -3.371,-3.1073 -3.7387,-4.3733 -5.9611,-20.523 l -2.014,-14.636 -2.1994,1.8182 c -1.2097,1 -3.7271,2.6977 -5.5944,3.7726 -1.8672,1.0749 -4.5273,2.8494 -5.9112,3.9433 -1.815,1.4347 -3.0947,2.0542 -4.5919,2.223 -2.8066,0.31634 -6.0088,-0.65581 -7.5874,-2.3035 -1.2566,-1.3116 -1.2741,-1.4007 -0.50662,-2.572 0.94028,-1.435 1.1527,-1.4668 2.6758,-0.39997 1.6041,1.1236 6.8266,1.0909 9.0096,-0.0563 1.8969,-0.99686 13.583,-11.093 13.777,-11.903 0.0731,-0.30483 -0.16832,-2.5887 -0.53647,-5.0754 -0.36816,-2.4866 -0.51618,-4.9354 -0.32894,-5.4417 0.41744,-1.1288 0.60315,-0.31098 1.4963,6.5889 l 0.61028,4.7146 -1.4023,1.1757 c -5.1448,4.3133 -8.8977,8.0042 -8.263,8.1264 1.0105,0.19461 4.6703,-1.9399 7.3097,-4.2631 1.2468,-1.0975 2.4029,-1.7776 2.6193,-1.5408 0.21306,0.2331 1.285,7.058 2.382,15.166 1.097,8.1084 2.2835,15.434 2.6365,16.279 1.7798,4.2598 7.0269,7.6432 14.047,9.0577 4.9077,0.98893 14.826,0.73299 19.589,-0.50548 8.0843,-2.1022 15.611,-7.4259 17.43,-12.329 0.84996,-2.2909 0.8422,-2.4701 -0.64997,-15.02 -3.6325,-30.552 -6.2869,-52.397 -6.5461,-53.872 -0.2556,-1.455 -0.05524,-1.806 2.3133,-4.0531 2.8751,-2.7276 3.5759,-4.0102 2.4313,-4.4494 -0.46575,-0.17873 -1.3998,0.35914 -2.5154,1.4485 -0.97602,0.95306 -1.9994,1.7328 -2.2741,1.7328 -0.27476,0 -0.76903,-1.5078 -1.0984,-3.3507 -0.51566,-2.8855 -0.9167,-3.7296 -2.8883,-6.0796 -1.9715,-2.3498 -5.2485,-4.9709 -5.2485,-4.1979 0,0.13962 0.42835,0.9564 0.95188,1.8151 1.1841,1.9421 1.2545,5.5205 0.17107,8.7001 -1.1192,3.2847 -6.3822,8.7184 -10.324,10.659 -10.506,5.1721 -25.157,4.0968 -31.782,-2.3327 -1.0825,-1.0506 -2.1907,-2.4924 -2.4626,-3.2041 l -0.49437,-1.294 -1.3946,2.3842 0.23085,-1.4305 c 0.12697,-0.78677 0.3666,-2.3313 0.53251,-3.4322 0.24735,-1.6413 2.7277,-6.3428 3.3462,-6.3428 0.09303,0 -0.1645,0.79853 -0.57229,1.7745 -2.4327,5.8222 2.0373,11.357 10.739,13.298 8.5694,1.9113 18.893,-1.3937 23.25,-7.4431 0.85002,-1.1802 1.5597,-2.2851 1.5771,-2.4554 0.0174,-0.17034 0.78267,-1.4257 1.7006,-2.7897 2.8767,-4.2748 1.9823,-7.4364 -2.7533,-9.732 -4.2473,-2.0589 -12.082,-2.6848 -17.471,-1.3958 -0.67801,0.16217 -1.1011,0.1509 -0.94018,-0.025 0.58199,-0.63638 6.0132,-1.2653 10.913,-1.2637 8.4398,0.003 13.91,1.977 18.825,6.794 1.6834,1.65 3.3798,3.2638 3.7696,3.5862 0.3898,0.3224 0.85668,1.6098 1.0373,2.861 0.51864,3.5922 0.74753,3.7186 2.8572,1.5782 2.0808,-2.1112 3.328,-2.4273 3.7932,-0.96155 0.60477,1.9054 -0.27455,3.7534 -2.8842,6.0611 l -2.57,2.2727 4.093,33.658 4.093,33.658 -0.8132,2.7973 c -1.6175,5.5639 -9.2606,11.145 -18.611,13.591 -4.2571,1.1134 -13.781,1.6331 -17.485,0.95421 z m -37.143,-31.698 1.0891,-1.1593 -3.5093,0.26375 c -2.6441,0.19872 -3.9682,0.0715 -5.3706,-0.51591 -2.0158,-0.84435 -2.4698,-0.74896 -2.0195,0.42433 0.44767,1.1666 3.1275,2.1071 6.0627,2.1277 2.2132,0.0156 2.8411,-0.17557 3.7477,-1.1406 z m 202.25,-15.141 c 0.0214,-1.132 0.39998,-3.5602 0.84128,-5.396 0.72648,-3.0221 0.91448,-3.3378 1.9876,-3.3378 1.1418,0 1.1816,0.10475 1.0853,2.861 -0.055,1.5735 -0.37682,3.9338 -0.71525,5.2451 -0.53274,2.0642 -0.79132,2.4044 -1.9266,2.535 -1.2562,0.14454 -1.3096,0.0644 -1.2724,-1.9073 z m -92.306,-5.3791 c -19.214,-2.6637 -32.666,-9.9201 -37.17,-20.051 -1.8846,-4.2387 -2.0213,-11.676 -0.21463,-11.676 0.26948,0 1.1446,1.4484 1.9447,3.2186 3.5601,7.8765 13.652,14.318 27.042,17.261 7.4133,1.6292 13.003,2.0775 22.397,1.7959 10.197,-0.30561 17.127,-1.4088 24.752,-3.9405 9.6077,-3.1899 15.35,-6.4235 20.648,-11.628 3.4444,-3.3834 6.163,-8.0905 6.1638,-10.672 4.8e-4,-1.8467 0.80616,-3.1873 1.9154,-3.1873 1.2946,0 1.5603,1.4835 1.346,7.5138 -0.25133,7.0703 -1.66,10.085 -7.2893,15.602 -7.6649,7.5112 -18.684,12.403 -33.88,15.04 -7.4763,1.2973 -20.971,1.6503 -27.656,0.72349 z m 28.848,-2.0868 c 18.826,-3.6027 32.607,-11.534 37.393,-21.52 1.5499,-3.2342 1.7067,-3.9378 1.7001,-7.6293 -0.007,-3.8953 -0.59875,-6.4368 -1.1102,-4.7684 -0.11834,0.38603 -0.67765,2.0033 -1.2429,3.594 -5.7266,16.115 -36.64,27.342 -65.588,23.821 -15.8,-1.9218 -27.691,-7.305 -33.956,-15.374 -1.1247,-1.4484 -2.0449,-2.9031 -2.0449,-3.2329 0,-0.3298 -0.32186,-0.86661 -0.71525,-1.1931 -1.2585,-1.0444 -0.95093,4.5942 0.4194,7.6892 4.304,9.721 16.68,16.469 35.343,19.272 6.4085,0.96239 23.277,0.58906 29.802,-0.65957 z m 24.403,-1.7548 c -3.5106,-1.5248 -2.9735,-1.8645 21.6,-13.663 25.245,-12.121 23.286,-11.472 29.238,-9.6849 2.917,0.87565 3.7914,2.0942 2.9988,4.1788 -0.5849,1.5384 -1.3385,1.6089 -5.4594,0.51088 l -2.9531,-0.7869 -20.906,10.085 c -11.498,5.5468 -21.362,10.077 -21.92,10.066 -0.55804,-0.0103 -1.7274,-0.32826 -2.5986,-0.70665 z m 24.833,-10.695 20.745,-10.002 3.0369,0.86268 c 3.4102,0.96872 4.2289,0.87486 4.2289,-0.48482 0,-1.0467 -1.609,-1.8507 -5.5419,-2.7692 l -2.4425,-0.57044 -22.35,10.753 c -12.292,5.914 -22.423,10.972 -22.512,11.239 -0.22015,0.66045 1.8253,1.449 3.0772,1.1863 0.55758,-0.11699 10.349,-4.7135 21.758,-10.214 z m 8.4686,7.8519 c -3.0963,-0.92522 -5.7378,-1.9952 -6.0796,-2.4626 -0.69544,-0.95107 -0.78293,-2.9618 -0.17094,-3.9281 0.47739,-0.75382 0.60331,-0.73207 7.8635,1.3582 2.8586,0.82303 5.6458,1.4321 6.1937,1.3534 0.83747,-0.12022 1.1521,-0.82678 1.9745,-4.4345 0.90625,-3.9754 1.0647,-4.2915 2.1508,-4.2915 0.9252,0 1.2044,0.27711 1.3236,1.3137 0.21801,1.8952 -1.7164,10.946 -2.5088,11.739 -1.3017,1.3017 -4.9622,1.0812 -10.747,-0.64733 z m 9.9372,-0.46471 c 0.64274,-0.6285 2.6522,-9.2766 2.2492,-9.6796 -0.40901,-0.409 -1.2276,0.42927 -1.2276,1.2571 0,0.46144 -0.33301,1.9603 -0.74002,3.3309 -1.0697,3.602 -1.7329,3.729 -8.8618,1.6965 -6.7752,-1.9316 -8.1468,-1.8319 -6.4636,0.47001 0.77416,1.0587 11.517,4.1541 13.204,3.8047 0.65564,-0.13569 1.4834,-0.53154 1.8394,-0.87966 z m -91.484,-16.751 c -7.2584,-1.4835 -13.111,-5.4109 -14.282,-9.5841 -0.64523,-2.2989 -2.9213,-33.087 -2.495,-33.75 0.17409,-0.27067 0.45962,-1.6723 0.6345,-3.1147 l 0.31798,-2.6226 -0.11468,2.861 c -0.21196,5.2881 2.0846,34.659 2.8802,36.836 1.3745,3.7604 6.8668,7.0568 13.757,8.2567 4.9522,0.86239 15.414,0.34119 19.568,-0.97482 7.1086,-2.2524 12.229,-6.1788 12.93,-9.9145 0.3051,-1.6263 -0.6114,-22.715 -1.072,-24.667 -0.20765,-0.87994 -0.17425,-0.89087 0.43212,-0.14127 0.4744,0.58647 0.83253,4.0628 1.2878,12.5 0.58487,10.84 0.57082,11.845 -0.19366,13.846 -1.5637,4.0944 -7.2312,7.9528 -14.478,9.8563 -4.9766,1.3073 -14.312,1.6053 -19.172,0.61201 z m -87.232,-14.786 c -4.0218,-1.4554 -5.75,-3.3479 -5.75,-6.2966 0,-4.8255 8.8877,-9.1806 17.358,-8.5058 6.7716,0.53947 10.775,3.1627 10.775,7.0604 0,1.6647 -0.29961,2.251 -2.0265,3.9657 -3.0254,3.0041 -6.5316,4.1869 -12.994,4.3832 -3.9435,0.11981 -5.7707,-0.0308 -7.3628,-0.60696 z m 14.675,-1.6374 c 7.3755,-2.5726 8.9211,-7.587 3.2661,-10.596 -1.7566,-0.93473 -2.7073,-1.0615 -7.9554,-1.0607 -5.1185,9.5e-4 -6.3482,0.15665 -8.7061,1.1037 -6.4953,2.6089 -8.1155,7.2096 -3.5358,10.04 0.87907,0.54329 2.4374,1.1981 3.4631,1.4551 2.9884,0.74885 10.033,0.25611 13.468,-0.94202 z m 66.406,-58.181 c -1.9407,-0.50823 -4.4263,-1.4501 -5.5234,-2.0931 -2.1448,-1.2569 -5.4913,-4.6758 -5.4913,-5.61 0,-0.35988 -0.16611,-0.40343 -0.44952,-0.11783 -0.24723,0.24914 -0.5294,1.6331 -0.62704,3.0756 l -0.17753,2.6226 -0.0882,-2.8936 c -0.11014,-3.6134 0.95312,-7.3032 2.532,-8.7864 l 1.2069,-1.1338 -0.53791,1.543 c -1.2011,3.4455 0.83128,6.8556 5.4154,9.0862 5.7959,2.8203 12.543,2.9947 19.162,0.49524 3.3707,-1.273 6.501,-4.2079 8.7432,-8.1976 2.4975,-4.444 1.9708,-6.5792 -2.135,-8.6536 -2.2336,-1.1285 -2.3178,-0.9593 -0.41525,0.83498 3.4689,3.2716 1.5398,7.4079 -4.2907,9.1999 -3.4651,1.065 -11.464,1.1946 -14.193,0.22992 -2.8822,-1.0188 -5.085,-3.211 -5.085,-5.0606 0,-4.7078 7.2274,-7.6886 17.416,-7.1828 6.1244,0.30402 7.5611,0.59204 10.998,2.2047 2.8173,1.322 7.3484,5.4423 7.3484,6.6822 0,0.31227 -0.4828,-0.13934 -1.0729,-1.0036 -0.59008,-0.86425 -1.5986,-1.9152 -2.2412,-2.3355 -1.117,-0.73051 -1.1516,-0.72218 -0.78747,0.18956 1.4605,3.6566 0.40422,7.2075 -3.3323,11.202 -5.3538,5.7237 -16.823,8.2035 -26.374,5.7024 z m 13.77,-10.976 c 3.9217,-0.63627 7.7051,-2.6206 8.3127,-4.36 1.1686,-3.3455 -2.4556,-5.6583 -9.4141,-6.0077 -11.278,-0.56635 -18.004,5.5056 -10.429,9.4146 2.6069,1.3452 6.9175,1.7015 11.531,0.95307 z"
       fill="#b3bdc5"
       id="path13" /><path
       d="m 326.37,615.27 c -1.1729,-0.54639 -1.2158,-0.61442 -0.23841,-0.37777 0.65564,0.15873 1.4066,0.31753 1.6689,0.35289 0.26225,0.0354 5.7764,-10.45 12.254,-23.3 6.4773,-12.851 11.788,-23.203 11.802,-23.005 0.0456,0.66533 -22.76,45.929 -23.411,46.466 -0.4784,0.39438 -1.0126,0.35955 -2.0748,-0.13526 z M 208.59,571.189 c -25.701,-9.6728 -46.495,-17.596 -46.209,-17.608 0.57301,-0.0232 93.196,34.648 93.576,35.028 0.12979,0.12978 0.0393,0.22035 -0.20112,0.20126 -0.24041,-0.0191 -21.465,-7.9488 -47.167,-17.622 z m 100.37,-0.039 c -1.4424,-0.51665 -4.1425,-1.3219 -6.0003,-1.7894 -3.6413,-0.91637 -101.88,-36.343 -101.59,-36.635 0.0966,-0.0966 22.364,7.855 49.483,17.67 48.847,17.68 55.515,19.853 60.91,19.853 7.6597,0 15.705,-3.1577 20.565,-8.0716 2.9634,-2.9964 3.7004,-4.2951 16.796,-29.598 12.831,-24.791 15.062,-29.564 13.822,-29.564 -0.72709,0 -3.4094,4.8932 -16.59,30.264 -10.238,19.707 -12.227,23.224 -14.372,25.408 -5.8721,5.9809 -16.936,8.6338 -27.182,6.5176 -2.8491,-0.5885 -340.84,-121.85 -356.56,-127.93 -2.1181,-0.81835 -4.8415,-2.3235 -6.1234,-3.3841 -1.8881,-1.5622 -2.4746,-1.8216 -3.2186,-1.4234 -1.3817,0.73944 -1.112,1.5761 1.1929,3.7006 2.6874,2.4771 5.086,3.6579 13.757,6.7721 3.8709,1.3903 6.9566,2.6092 6.8571,2.7087 -0.25339,0.25339 -14.034,-4.7855 -16.429,-6.0071 -1.0833,-0.55266 -2.7184,-1.6623 -3.6336,-2.4658 -0.91518,-0.80353 -2.3804,-1.6588 -3.2561,-1.9006 -1.4266,-0.39391 -1.6539,-0.7003 -2.1857,-2.9468 -0.32644,-1.3789 -0.79555,-3.9019 -1.0425,-5.6066 -0.52873,-3.6502 -1.2462,-5.5729 -2.3119,-6.1956 -0.53846,-0.31462 -0.57872,-0.45542 -0.13311,-0.46553 0.35135,-0.008 0.99507,0.41399 1.4305,0.93772 0.9231,1.1103 3.3429,1.6627 4.3541,0.99395 0.6015,-0.39776 0.61208,-0.75634 0.07426,-2.5163 -0.34496,-1.1288 -0.79844,-3.8763 -1.0077,-6.1055 -0.20929,-2.2292 -1.819,-13.348 -3.5772,-24.71 -1.7582,-11.362 -3.0648,-20.788 -2.9036,-20.95 0.16118,-0.16117 1.0938,0.47491 2.0724,1.4135 0.97865,0.93862 2.7006,2.1676 3.8265,2.731 1.8509,0.92625 358.05,120.35 368.62,123.59 2.452,0.75113 6.3698,1.5981 8.7063,1.8822 9.9815,1.2136 20.447,-2.0185 25.586,-7.9014 1.7408,-1.9932 21.865,-37.769 21.468,-38.166 -0.11039,-0.11039 -0.93609,0.0102 -1.8349,0.26797 -4.1918,1.2022 1.4948,-2.727 2.1344,-3.2005 0.68122,-0.50416 9.6894,-16.205 21.745,-37.9 11.32,-20.372 21.004,-37.421 21.52,-37.889 0.51622,-0.4672 4.1718,-6.7053 8.1233,-13.862 3.9516,-7.1572 7.372,-13.013 7.6007,-13.013 0.22878,0 0.39453,0.91194 0.3684,2.0265 -0.0386,1.6367 -0.11201,1.7972 -0.38276,0.83446 l -0.33526,-1.1921 -0.74595,1.1921 c -0.41031,0.65564 -3.403,6.0193 -6.6505,11.919 -3.2475,5.9 -6.4696,11.372 -7.1604,12.159 -0.69074,0.78756 -10.317,17.74 -21.392,37.671 -11.075,19.931 -20.541,36.809 -21.036,37.505 -0.4948,0.69612 -0.89963,1.8107 -0.89963,2.4769 0,1.0323 -16.455,31.501 -20.13,37.272 -1.5307,2.4042 -4.0241,4.9565 -6.7656,6.9252 -1.9386,1.3922 -2.1657,1.7638 -2.4303,3.9773 -0.98589,8.2453 -5.7252,62.373 -5.4748,62.528 0.64127,0.39632 5.0662,-2.801 6.4991,-4.696 0.82546,-1.0917 7.5845,-13.579 15.02,-27.749 7.4356,-14.17 13.784,-26.187 14.107,-26.703 0.5085,-0.81229 0.65531,-0.8422 1.094,-0.22294 1.4774,2.0856 0.48524,4.3968 -13.404,31.224 -15.294,29.54 -15.899,30.452 -22.489,33.869 -1.902,0.98613 -4.1556,2.3114 -5.008,2.9451 -3.6691,2.7274 -8.5691,3.2831 -13.47,1.5275 z M -59.86,419.93 c -0.1386,-0.59008 -1.1026,-6.7591 -2.1423,-13.709 -4.5656,-30.52 -5.243,-34.484 -6.044,-35.369 -0.43604,-0.48181 -0.86685,-0.80197 -0.95736,-0.71146 -0.09051,0.0905 1.3387,9.8664 3.1759,21.724 1.8372,11.8576 3.3392,22.138 3.3376,22.845 -0.0016,0.70719 0.48121,2.4086 1.0729,3.781 1.094,2.5375 2.0152,3.3886 1.5572,1.4386 z M 369.1,533.77 c 0,-0.26226 12.1,-24.616 26.888,-54.12 14.789,-29.504 26.888,-53.429 26.888,-53.167 0,0.26226 -12.1,24.616 -26.888,54.12 C 381.199,510.107 369.1,534.032 369.1,533.77 Z M 65.74,520.6 c -2.3297,-3.2717 -7.1658,-5.6838 -24.219,-12.08 -8.9643,-3.3621 -16.22,-6.1918 -16.123,-6.2882 0.09641,-0.0964 7.4519,2.5551 16.346,5.8922 13.179,4.9452 16.826,6.5112 19.714,8.466 2.9752,2.0138 6.5302,5.4978 5.6099,5.4978 -0.14688,0 -0.74388,-0.66964 -1.3267,-1.4881 z m 322.23,-68.01 c 0.1667,-0.45895 5.7237,-11.241 12.349,-23.961 8.7347,-16.769 12.135,-23.749 12.372,-25.391 0.37966,-2.6355 0.86808,-2.8682 1.6019,-0.76331 0.69913,2.0056 0.65984,3.3102 -0.17323,5.7534 -1.4125,4.1424 -21.665,42.551 -23.141,43.885 -1.6751,1.5151 -3.4906,1.8028 -3.009,0.47684 z m 2.8897,-1.1921 c 1.5955,-1.7035 22.907,-43.201 23.26,-45.292 0.19622,-1.1612 0.11635,-2.0884 -0.2078,-2.4125 -0.38409,-0.38407 -0.52647,-0.27141 -0.52647,0.41653 0,1.0328 -0.64024,2.3096 -12.176,24.281 -2.8357,5.4012 -7.0629,13.517 -10.3,19.775 -1.0136,1.9597 -1.843,3.7299 -1.843,3.9338 0,0.68471 0.77938,0.37942 1.7923,-0.70206 z m -298.62,-51.405 c -2.2535,-0.33779 -10.981,-2.9172 -15.355,-4.5382 -1.1782,-0.43664 -2.1312,-1.1428 -2.3123,-1.7135 -0.56974,-1.7951 0.45121,-1.9771 3.9703,-0.70765 6.7956,2.4513 13.355,4.1244 16.153,4.1197 3.4756,-0.006 7.1305,-1.6054 9.4799,-4.1491 1.301,-1.4086 1.7609,-1.6612 2.0868,-1.1468 0.23868,0.37674 0.23963,1.2821 0.002,2.1098 -1.2176,4.2454 -7.6016,6.9883 -14.024,6.0256 z m -30.103,-6.8795 c -0.3279,-0.8545 0.78772,-2.094 18.182,-20.202 7.7485,-8.0661 13.71,-13.899 14.206,-13.899 1.2087,-0.001 22.491,6.59 25.397,7.8656 3.1647,1.3894 5.7901,3.7404 6.1851,5.5388 0.45705,2.0809 -0.0509,2.2325 -1.8071,0.53919 -2.4435,-2.3559 -6.4792,-4.0609 -18.232,-7.7025 l -10.967,-3.3983 -5.0142,5.1345 c -2.7578,2.824 -9.7001,10.016 -15.427,15.982 -10.095,10.517 -11.837,11.927 -12.523,10.141 z m 17.629,-16.317 c 8.3299,-8.7073 15.134,-16.003 15.121,-16.212 -0.09032,-1.4278 -3.0948,1.3525 -15.869,14.684 -7.9389,8.2857 -14.831,15.514 -15.315,16.063 -0.92232,1.0447 -0.6713,2.2883 0.33511,1.6601 0.32034,-0.19994 7.3978,-7.4877 15.728,-16.195 z m -77.17,11.752 c -20.995,-2.9776 -34.739,-11.915 -38.13,-24.794 -0.45246,-1.7188 -0.74603,-3.6499 -0.65239,-4.2915 0.14582,-0.99908 0.45529,-0.68748 2.1564,2.1713 6.1477,10.331 18.708,17.006 36.387,19.336 8.2791,1.0913 13.488,1.1493 21.457,0.23892 21.681,-2.4765 39.903,-10.696 49.242,-22.213 2.6032,-3.2102 5.3564,-8.5636 5.8149,-11.307 0.32895,-1.9678 0.96719,-2.9066 1.5678,-2.3061 0.78184,0.78183 0.96796,6.4006 0.31527,9.5177 -2.1283,10.164 -12.716,20.62 -27.084,26.743 -15.905,6.7794 -34.363,9.2745 -51.076,6.9042 z m 50.879,-8.0329 c 11.324,-4.4903 20.989,-12.412 24.778,-20.308 1.7025,-3.5482 1.978,-4.5907 2.1885,-8.2829 0.27173,-4.7657 -0.4232,-6.2361 -1.3393,-2.8339 -2.5983,9.6495 -12.086,18.806 -27.062,26.116 -5.6805,2.7728 -5.8671,2.9986 -5.0368,6.0969 0.38558,1.4388 1.0664,1.3559 6.4721,-0.78766 z m -80.205,-6.8619 c 0,-0.65986 -1.3233,-2.6574 -3.3384,-5.0392 -1.8361,-2.1703 -3.5701,-4.3789 -3.8533,-4.908 -0.83298,-1.5564 -0.93088,-0.76834 -0.20442,1.6455 0.80091,2.6612 3.1173,6.2622 5.1916,8.0708 1.8276,1.5935 2.2045,1.633 2.2045,0.23093 z m 130.89,9.348 c -0.52451,-0.11966 -3.8212,-1.104 -7.326,-2.1874 -5.1724,-1.5989 -6.4675,-2.1785 -6.8773,-3.0779 -0.88712,-1.947 0.12253,-2.0698 4.6667,-0.56752 6.6587,2.2014 11.182,3.3 13.586,3.3 2.6245,0 6.7141,-1.8768 7.8426,-3.599 1.0688,-1.6311 2.1747,-1.5169 2.1747,0.22459 0,1.8072 -2.0331,4.2139 -4.5102,5.3391 -1.8443,0.83774 -7.0244,1.1457 -9.5564,0.56812 z m -94.413,-22.366 c -6.4792,-1.4343 -11.673,-4.9259 -13.371,-8.9877 -0.35304,-0.84493 -1.5395,-8.1704 -2.6365,-16.279 -1.097,-8.1084 -2.169,-14.933 -2.382,-15.166 -0.2164,-0.23675 -1.3725,0.44334 -2.6193,1.5408 -2.6393,2.3232 -6.2992,4.4577 -7.3097,4.2631 -0.63524,-0.12233 3.1136,-3.8085 8.2747,-8.1365 l 1.414,-1.1857 -0.83202,-6.0387 c -0.45761,-3.3213 -0.71738,-6.2242 -0.57726,-6.4509 0.14012,-0.22671 -0.16473,-3.2741 -0.67743,-6.772 -2.1025,-14.344 -2.8851,-21.468 -2.4447,-22.255 0.38226,-0.68304 0.51296,-0.61322 0.93626,0.50011 0.27059,0.71168 1.3777,2.1535 2.4602,3.2041 6.6252,6.4295 21.276,7.5048 31.782,2.3327 3.942,-1.9407 9.205,-7.3743 10.324,-10.659 1.0834,-3.1796 1.013,-6.758 -0.17107,-8.7001 -0.52353,-0.85867 -0.95188,-1.6754 -0.95188,-1.8151 0,-0.77299 3.277,1.848 5.2485,4.1979 1.9716,2.35 2.3727,3.1941 2.8883,6.0796 0.32934,1.8429 0.82361,3.3507 1.0984,3.3507 0.27476,0 1.2981,-0.77977 2.2741,-1.7328 1.1157,-1.0894 2.0497,-1.6273 2.5154,-1.4485 1.1446,0.43924 0.44379,1.7219 -2.4313,4.4494 -2.3686,2.2471 -2.5689,2.5981 -2.3133,4.0531 0.25911,1.4749 2.9136,23.32 6.5461,53.872 1.4922,12.55 1.4999,12.729 0.64997,15.02 -1.8179,4.8997 -9.324,10.212 -17.43,12.334 -4.4335,1.1612 -15.866,1.4035 -20.265,0.42964 z m 24.66,-3.0476 c 5.8348,-1.8022 10.9,-5.9188 12.528,-10.181 0.82392,-2.1574 0.80775,-2.3351 -3.2829,-36.075 -3.0003,-24.747 -3.9794,-34.153 -3.624,-34.817 0.26779,-0.50037 1.2453,-1.4882 2.1722,-2.1952 1.533,-1.1693 2.9948,-3.0448 2.3731,-3.0448 -0.1396,0 -1.1112,0.77456 -2.159,1.7212 -1.0537,0.95201 -2.2052,1.6062 -2.5764,1.4637 -0.36916,-0.14166 -0.81786,-1.1844 -0.9971,-2.3173 -0.48378,-3.0574 -1.2796,-5.5856 -1.9276,-6.1234 -0.43423,-0.36038 -0.63011,0.30738 -0.80596,2.7474 -0.4405,6.1123 -4.0134,10.905 -11.221,15.052 -2.1636,1.2449 -3.9339,2.5263 -3.9339,2.8476 0,0.68721 7.8685,62.761 8.6416,68.173 0.34415,2.409 0.74031,3.6954 1.1381,3.6954 0.33559,0 1.9893,-0.42598 3.675,-0.94663 z m -32.528,-2.4206 c 0,-0.27845 -2.1618,-16.315 -4.804,-35.637 l -4.804,-35.131 -2.2293,-2.4578 c -2.5669,-2.83 -3.1228,-3.0815 -2.7623,-1.2494 0.26431,1.3432 2.476,18.184 3.8956,29.662 l 0.79357,6.4166 -1.8397,1.6451 c -4.8205,4.3108 -5.461,4.9471 -5.2209,5.1872 0.14168,0.14169 1.2497,-0.57736 2.4622,-1.5979 3.4942,-2.9408 4.0087,-3.248 4.5439,-2.7127 0.26446,0.26446 1.4277,7.2777 2.5849,15.585 1.2409,8.9075 2.4272,15.785 2.8916,16.764 1.1574,2.4391 4.4882,5.0561 4.4882,3.5263 z m -34.697,-24.049 c -1.4409,-0.62618 -2.4396,-1.8856 -1.9129,-2.4123 0.12326,-0.12326 1.0617,0.12674 2.0854,0.55554 1.4024,0.58744 2.7265,0.71463 5.3706,0.51591 l 3.5093,-0.26375 -1.0891,1.1593 c -0.9066,0.96503 -1.5345,1.1561 -3.7477,1.1406 -1.4623,-0.0102 -3.3593,-0.32315 -4.2157,-0.6953 z m 116.95,-22.392 c -18.663,-2.8027 -31.039,-9.551 -35.343,-19.272 -1.3703,-3.095 -1.6779,-8.7336 -0.4194,-7.6892 0.39339,0.32648 0.71525,0.86337 0.71525,1.1931 0,0.32973 0.92018,1.7845 2.0449,3.2329 6.2654,8.0686 18.155,13.452 33.956,15.374 28.948,3.5208 59.861,-7.7069 65.588,-23.821 0.56526,-1.5906 1.1246,-3.2079 1.2429,-3.594 0.51148,-1.6684 1.1032,0.87312 1.1102,4.7684 0.007,3.6915 -0.15014,4.395 -1.7001,7.6293 -4.7855,9.9858 -18.567,17.917 -37.393,21.52 -6.5246,1.2486 -23.393,1.622 -29.802,0.65957 z m 46.101,-6.4868 c 6.4234,-2.3641 11.431,-5.357 15.342,-9.1698 4.5851,-4.4694 6.5604,-8.2282 6.8802,-13.093 0.12501,-1.9014 0.0872,-3.457 -0.084,-3.457 -0.17125,0 -0.99772,1.4484 -1.8366,3.2186 -2.9817,6.292 -10.793,12.724 -21.461,17.672 l -4.1723,1.9352 v 2.1767 c 0,2.6425 0.0731,2.6523 5.3318,0.71683 z m -72.323,-6.2887 c -0.20491,-1.0226 -1.253,-2.466 -3.0814,-4.2436 -1.524,-1.4816 -3.4934,-3.7347 -4.3765,-5.0067 -1.4945,-2.1529 -1.6153,-2.2297 -1.746,-1.1101 -0.30084,2.5771 3.3226,8.3763 6.7503,10.804 2.1841,1.5468 2.829,1.4302 2.4536,-0.44332 z m 81.375,9.6365 c -0.61204,-0.25095 -1.0398,-0.67517 -0.95066,-0.94271 0.0892,-0.26754 10.22,-5.3251 22.512,-11.239 l 22.35,-10.753 2.4425,0.57044 c 3.9329,0.91849 5.5419,1.7225 5.5419,2.7692 0,1.3597 -0.81877,1.4535 -4.2289,0.48482 l -3.0369,-0.86268 -20.745,10.002 c -11.41,5.501 -21.201,10.097 -21.758,10.214 -0.557,0.117 -1.5145,0.007 -2.1266,-0.24357 z m 22.685,-10.501 c 11.476,-5.5238 21.066,-10.241 21.311,-10.482 1.5898,-1.5682 -2.4501,0.18793 -21.596,9.3877 -19.113,9.1837 -22.807,11.138 -21.053,11.138 0.25994,0 9.8621,-4.5195 21.338,-10.043 z m 10.88,7.4443 c -3.4792,-0.97713 -5.9369,-1.9311 -6.318,-2.4522 -1.6832,-2.3019 -0.31158,-2.4016 6.4636,-0.47001 7.1289,2.0325 7.7921,1.9055 8.8618,-1.6965 0.40701,-1.3706 0.74002,-2.8694 0.74002,-3.3309 0,-0.82784 0.81858,-1.6661 1.2276,-1.2571 0.40305,0.40305 -1.6065,9.0511 -2.2492,9.6796 -1.242,1.2144 -3.0707,1.1154 -8.7258,-0.47286 z m -83.473,-17.632 c -6.378,-1.4713 -11.062,-4.5149 -12.344,-8.0208 -0.80686,-2.2063 -2.6747,-24.936 -2.8703,-34.928 -0.0616,-3.1471 -0.62303,-12.696 -1.2476,-21.219 -0.6246,-8.5234 -0.97557,-15.914 -0.77993,-16.424 0.32653,-0.85088 0.42571,-0.81177 1.2094,0.47684 1.0276,1.6897 3.8207,4.2047 5.8152,5.236 2.6101,1.3497 8.589,2.6049 12.408,2.6049 10.106,0 18.354,-4.0536 21.632,-10.631 1.3039,-2.6166 1.495,-4.295 0.7209,-6.3312 -0.65351,-1.7189 -0.39209,-1.8516 1.1924,-0.60523 1.6092,1.2658 3.5922,5.3559 3.547,7.316 -0.0346,1.5002 -0.16202,1.3342 -0.64031,-0.83445 -0.36311,-1.6463 -1.2247,-1.719 -1.2247,-0.10336 0,1.9223 -2.1742,5.6954 -4.3949,7.6268 -1.1233,0.97693 -3.437,2.5646 -5.1417,3.5282 l -3.0994,1.752 0.16523,3.0752 c 0.74691,13.902 4.2835,65.379 4.507,65.603 0.49567,0.49568 6.6851,-1.6371 8.9742,-3.0923 2.6065,-1.657 4.588,-4.1008 5.0015,-6.1683 0.25589,-1.2795 -0.22717,-12.101 -1.0048,-22.511 -0.14397,-1.9272 -0.0781,-2.7387 0.1741,-2.1457 0.56262,1.3228 1.696,23.095 1.3095,25.155 -0.69783,3.7198 -5.8114,7.6396 -12.928,9.9101 -4.2646,1.3606 -16.417,1.7844 -20.981,0.73161 z m -6.24,-6.3524 c -0.34363,-3.3165 -4.4887,-62.182 -4.4887,-63.745 0,-0.9979 -0.78075,-2.1148 -3.1415,-4.4943 l -3.1415,-3.1664 0.25846,2.3842 c 0.14215,1.3113 0.70999,9.2505 1.2619,17.643 2.5605,38.937 3.331,48.443 4.0372,49.809 0.84253,1.6293 3.4975,3.8218 4.6369,3.8292 0.68421,0.004 0.77506,-0.35113 0.57732,-2.2597 z m -79.07,-7.775 c -5.8131,-1.4567 -7.82,-5.5381 -4.338,-8.8221 0.91573,-0.86364 2.9005,-2.0665 4.4107,-2.6731 2.3579,-0.94705 3.5876,-1.103 8.7061,-1.1037 5.2481,-9.6e-4 6.1988,0.12598 7.9554,1.0607 5.655,3.0091 4.1094,8.0236 -3.2661,10.596 -3.435,1.1981 -10.48,1.6909 -13.468,0.94202 z m 4.7903,-1.0712 c 0.18517,-0.18518 -0.59306,-6.7798 -1.0381,-8.7965 -0.31623,-1.4331 -2.1003,-1.4085 -5.2817,0.0728 -3.9548,1.8414 -5.0128,4.2953 -2.9074,6.743 1.2634,1.4688 5.0556,2.6793 7.4336,2.3728 0.88483,-0.11403 1.692,-0.2905 1.7936,-0.39215 z m 80.423,-69.02 c -3.7339,-0.73758 -6.3402,-2.7019 -6.3402,-4.7784 0,-3.3713 6.3356,-5.9654 13.67,-5.5972 6.9585,0.34944 10.583,2.6623 9.4141,6.0077 -1.1591,3.3181 -10.165,5.6675 -16.744,4.3679 z m 2.2428,-2.5324 c 0,-0.8813 -0.13646,-2.5979 -0.30323,-3.8146 -0.29321,-2.1392 -0.35688,-2.2123 -1.9263,-2.2123 -0.8927,0 -2.4572,0.42555 -3.4768,0.94566 -3.1959,1.6304 -3.1272,4.2756 0.14962,5.7634 1.0892,0.49459 2.7851,0.90396 3.7686,0.90972 1.7136,0.01 1.7881,-0.0563 1.7881,-1.5919 z"
       fill="#666666"
       id="path15" /><path
       d="m 326.53,560.96 c -0.18794,-0.18794 4.7612,-55.849 5.5596,-62.525 0.26467,-2.2135 0.49176,-2.5851 2.4303,-3.9773 2.7414,-1.9687 5.2348,-4.521 6.7656,-6.9252 3.6742,-5.771 20.13,-36.24 20.13,-37.272 0,-0.66617 0.40483,-1.7808 0.89963,-2.4769 0.49479,-0.69613 9.961,-17.573 21.036,-37.505 11.075,-19.932 20.701,-36.884 21.392,-37.671 0.69078,-0.78756 3.913,-6.2592 7.1604,-12.159 6.7319,-12.231 7.2052,-13.035 7.4971,-12.743 0.11688,0.11687 -0.98389,9.2867 -2.4461,20.377 -1.46221,11.0903 -2.5474,20.455 -2.4113,20.809 0.25811,0.67259 -0.45447,0.91257 -0.84299,0.28391 -0.175,-0.28316 3.4981,-29.702 4.6559,-37.291 0.16832,-1.103 -1.8872,2.2006 -6.1947,9.9556 -3.5456,6.3835 -6.8527,11.954 -7.3491,12.379 -1.1819,1.0124 -41.489,73.649 -41.492,74.773 -0.002,0.47421 -4.949,9.767 -10.994,20.651 l -10.991,19.788 -2.8111,28.371 c -1.5461,15.604 -2.9307,29.328 -3.0768,30.498 -0.16709,1.3371 -0.0985,1.9566 0.18475,1.6689 0.24777,-0.25167 6.1716,-11.401 13.164,-24.776 6.9925,-13.375 12.888,-24.504 13.102,-24.73 0.82396,-0.87235 1.3835,0.21102 0.58853,1.1395 -0.43958,0.51338 -6.6672,12.147 -13.839,25.852 -14.727,28.141 -14.763,28.206 -16.695,30.163 -1.4948,1.5136 -5.0546,3.7074 -5.421,3.341 z m 60.157,-107.61 c 0,-0.30914 5.5744,-11.23 12.388,-24.268 10.547,-20.184 12.434,-24.105 12.703,-26.392 0.17366,-1.4773 0.47134,-2.7821 0.66155,-2.8997 0.47612,-0.29426 2.1332,1.6006 1.742,1.9919 -0.17323,0.17323 -0.31495,0.0646 -0.31495,-0.24134 0,-0.30597 -0.1902,-0.5563 -0.42271,-0.5563 -0.23245,0 -0.57024,1.0192 -0.75058,2.265 -0.30951,2.1376 -2.0858,5.6751 -22.555,44.917 -2.3705,4.5446 -2.5212,5.0133 -1.7137,5.3308 0.71291,0.28038 0.62994,0.35471 -0.426,0.38169 -0.72121,0.0185 -1.3113,-0.21941 -1.3113,-0.52854 z m -448.1,-34.851 c -0.59166,-1.3724 -1.0745,-3.0738 -1.0729,-3.781 0.0016,-0.70717 -1.5004,-10.988 -3.3376,-22.845 -1.8372,-11.857 -3.2665,-21.634 -3.1759,-21.724 0.09051,-0.0905 0.52132,0.22965 0.95736,0.71146 0.80096,0.88506 1.4783,4.8491 6.044,35.369 1.0397,6.9498 2.0037,13.119 2.1423,13.709 0.458,1.9499 -0.4632,1.0989 -1.5572,-1.4386 z m 124.56,-25.646 c -0.39653,-0.6416 -1.2699,0.32489 15.88,-17.574 12.774,-13.332 15.778,-16.112 15.869,-14.684 0.02537,0.40104 -29.846,31.781 -30.849,32.407 -0.32034,0.19994 -0.72506,0.13278 -0.89936,-0.14925 z M 47.012,381.314 c -0.8303,-3.0982 -0.6437,-3.3241 5.0368,-6.0969 13.156,-6.4219 21.314,-13.51 25.482,-22.142 0.88286,-1.8284 1.6052,-3.0568 1.6052,-2.7299 0,1.1668 -3.2926,7.067 -5.8755,10.528 -2.3403,3.1365 -2.5979,3.7087 -2.3613,5.2451 0.14609,0.9485 0.33625,1.8077 0.42259,1.9093 0.08634,0.1016 1.2458,-0.97127 2.5767,-2.3842 2.5103,-2.665 4.4786,-5.9606 5.5216,-9.2445 0.34643,-1.0908 0.61942,-1.4882 0.63766,-0.92844 0.01755,0.53839 -0.82178,2.7442 -1.8652,4.9018 -3.7539,7.7625 -13.492,15.706 -24.709,20.153 -5.4056,2.1436 -6.0865,2.2264 -6.4721,0.78766 z m -75.937,-7.8805 c -2.0743,-1.8086 -4.3907,-5.4096 -5.1916,-8.0708 -0.72647,-2.4139 -0.62856,-3.202 0.20442,-1.6455 0.28317,0.5291 2.0171,2.7377 3.8533,4.908 2.0151,2.3818 3.3384,4.3794 3.3384,5.0392 0,1.402 -0.37685,1.3626 -2.2045,-0.23093 z m 58.529,-18.584 c -0.77309,-5.4116 -8.6416,-67.486 -8.6416,-68.173 0,-0.32127 1.7702,-1.6027 3.9339,-2.8476 7.2079,-4.1472 10.781,-8.94 11.221,-15.052 0.17585,-2.4401 0.37174,-3.1078 0.80596,-2.7474 0.648,0.53779 1.4438,3.0659 1.9276,6.1234 0.17925,1.1328 0.62794,2.1756 0.9971,2.3173 0.37123,0.14245 1.5227,-0.51169 2.5764,-1.4637 1.0479,-0.94669 2.0119,-1.7212 2.1423,-1.7212 0.61935,0 0.02718,0.76087 -2.4289,3.1208 -1.4663,1.4089 -2.5485,2.2555 -2.405,1.8814 0.14356,-0.3741 0.05569,-0.80708 -0.19526,-0.96217 -0.25095,-0.15509 -0.69552,-1.2322 -0.98796,-2.3935 -0.54302,-2.1566 -1.3751,-2.4614 -1.3751,-0.50383 0,0.59752 -0.8346,2.7842 -1.8547,4.8594 l -1.8547,3.773 4.362,35.13 c 2.3991,19.322 4.522,35.29 4.7175,35.486 0.46751,0.4675 2.6312,-1.5771 3.5609,-3.3649 0.40386,-0.77663 0.89314,-2.4932 1.0873,-3.8146 0.34477,-2.3466 0.35427,-2.3582 0.40782,-0.49527 0.15358,5.3427 -5.5819,11.247 -13.218,13.607 -1.6667,0.51511 -3.305,0.93656 -3.6406,0.93656 -0.39777,0 -0.79393,-1.2864 -1.1381,-3.6954 z m -30.005,-0.35208 c -0.77557,-0.6526 -1.7645,-1.9333 -2.1976,-2.8461 -0.46442,-0.9787 -1.6507,-7.8561 -2.8916,-16.764 -1.1572,-8.3072 -2.3205,-15.32 -2.5849,-15.585 -0.53522,-0.53522 -1.0497,-0.22805 -4.5439,2.7127 -1.2126,1.0205 -2.3206,1.7396 -2.4622,1.5979 -0.24009,-0.24009 0.40037,-0.8764 5.2209,-5.1872 l 1.8397,-1.6451 -0.79357,-6.4166 c -1.4196,-11.478 -3.6313,-28.319 -3.8956,-29.662 -0.36052,-1.8321 0.19535,-1.5806 2.7623,1.2494 l 2.2293,2.4578 4.804,35.131 c 2.6422,19.322 4.804,35.359 4.804,35.637 0,0.81995 -0.78462,0.58694 -2.2906,-0.68026 z m 140.57,-49.755 c 0,-0.50974 42.964,-21.169 43.308,-20.825 0.14196,0.14195 0.0578,0.45563 -0.18695,0.69707 -0.58496,0.57701 -42.035,20.526 -42.649,20.526 -0.25993,0 -0.4726,-0.1789 -0.4726,-0.39755 z m -15.259,-3.2096 v -2.1767 l 4.1723,-1.9352 c 10.669,-4.9482 18.48,-11.38 21.461,-17.672 0.83889,-1.7702 1.6372,-3.2186 1.7739,-3.2186 0.1367,0 0.21493,1.3411 0.17373,2.9802 l -0.0749,2.9802 -0.28271,-2.3842 -0.28272,-2.3842 -0.87265,2.1316 c -0.47996,1.1724 -1.9405,3.5998 -3.2456,5.3942 -1.9881,2.7334 -2.3492,3.5477 -2.2268,5.0208 l 0.14621,1.7583 1.8609,-1.8993 c 1.0235,-1.0446 2.4717,-3.1903 3.2182,-4.7683 0.74651,-1.578 1.3575,-2.5947 1.3577,-2.2594 2.1e-4,0.3353 -0.66998,1.9446 -1.4893,3.5762 -3.0961,6.1656 -10.791,12.052 -20.358,15.573 -5.2587,1.9355 -5.3318,1.9257 -5.3318,-0.71683 z m -69.445,-5.1285 c -3.4277,-2.4274 -7.0511,-8.2266 -6.7503,-10.804 0.1307,-1.1196 0.25141,-1.0428 1.746,1.1101 0.88306,1.2721 2.8525,3.5251 4.3765,5.0067 1.8284,1.7776 2.8765,3.221 3.0814,4.2436 0.37543,1.8736 -0.26943,1.9901 -2.4536,0.44332 z m 53.031,-15.225 c -0.19724,-1.5398 -2.469,-36.555 -4.2133,-64.94 -0.11365,-1.8496 -0.0666,-1.9069 2.9839,-3.6351 1.7047,-0.96576 4.0184,-2.5552 5.1417,-3.5322 2.2207,-1.9314 4.3949,-5.7044 4.3949,-7.6268 0,-1.3658 0.69576,-1.6141 1.1567,-0.4129 0.1678,0.43727 0.39281,2.1002 0.50002,3.6954 0.14038,2.0887 0.10264,2.3666 -0.13485,0.99309 l -0.3298,-1.9073 -3.0158,6.3656 2.0875,33.477 c 1.1481,18.412 2.197,33.586 2.3308,33.72 0.33042,0.33042 1.6216,-0.78354 2.3171,-1.9991 0.31245,-0.54608 0.70566,-2.7095 0.8738,-4.8075 l 0.30571,-3.8146 -0.0654,4.0907 c -0.0595,3.7218 -0.18928,4.2531 -1.4392,5.8913 -1.7763,2.3281 -5.0072,4.357 -8.8091,5.532 -1.6667,0.51511 -3.2092,0.93656 -3.4278,0.93656 -0.21857,0 -0.5142,-0.91194 -0.65697,-2.0265 z m -28.299,-1.5969 c -0.85753,-0.67582 -1.8771,-1.8436 -2.2657,-2.5952 -0.70617,-1.3656 -1.4767,-10.872 -4.0372,-49.809 -0.55188,-8.3922 -1.1197,-16.331 -1.2619,-17.643 l -0.25846,-2.3842 3.1415,3.1664 c 2.3608,2.3794 3.1415,3.4964 3.1415,4.4943 0,1.5633 4.1451,60.428 4.4887,63.745 0.19774,1.9085 0.10689,2.2641 -0.57732,2.2597 -0.4466,-0.003 -1.5136,-0.55822 -2.3711,-1.234 z m -77.102,-9.9293 c -2.5922,-0.7192 -4.5462,-2.5454 -4.5462,-4.2489 0,-1.6838 1.3642,-3.1916 3.9966,-4.4174 3.1815,-1.4814 4.9655,-1.506 5.2817,-0.0728 0.44502,2.0168 1.2232,8.6114 1.0381,8.7965 -0.54739,0.54738 -3.7035,0.51594 -5.7702,-0.0575 z m 82.879,-70.813 c -3.2768,-1.4879 -3.3455,-4.133 -0.14962,-5.7634 1.0195,-0.52011 2.5841,-0.94566 3.4768,-0.94566 1.5694,0 1.6331,0.0731 1.9263,2.2123 0.16677,1.2168 0.30323,2.9334 0.30323,3.8146 0,1.5356 -0.07451,1.6019 -1.7881,1.5919 -0.98346,-0.006 -2.6793,-0.41513 -3.7686,-0.90972 z"
       fill="#7c8385"
       id="path17" /><path
       d="m 243.93,583.83 c -88.777,-33.348 -87.419,-32.884 -95.381,-32.582 l -3.8554,0.14644 -0.25513,-1.8962 c -0.32795,-2.4375 -0.58275,-2.8116 -2.551,-3.7456 -2.3052,-1.0939 -5.0345,-0.96561 -7.515,0.35326 -2.0878,1.1101 -2.1496,1.1144 -4.2433,0.29775 -1.987,-0.77504 -2.1409,-0.96388 -2.3754,-2.9146 -0.31912,-2.6542 -0.69215,-3.2225 -2.6531,-4.0418 -2.3112,-0.96568 -4.5224,-0.82157 -6.9154,0.4507 -1.9891,1.0575 -2.2117,1.08 -4.1612,0.42072 -2.1904,-0.74078 -2.9471,-1.8754 -2.9471,-4.419 0,-3.0427 -5.2578,-4.2857 -9.1892,-2.1725 -2.229,1.1981 -2.3162,1.207 -4.2915,0.43811 -1.109,-0.43165 -2.0847,-0.83624 -2.1684,-0.89908 -0.08364,-0.0629 -0.29821,-1.1314 -0.47683,-2.3747 -0.24267,-1.6891 -0.65573,-2.5074 -1.6342,-3.2377 -1.8301,-1.366 -5.2716,-1.3101 -7.8287,0.12707 -1.9287,1.084 -2.0044,1.0893 -4.1048,0.28717 -2.0279,-0.77446 -2.1525,-0.92998 -2.3828,-2.9734 -0.32226,-2.8591 -1.5465,-4.0286 -4.5157,-4.3139 -1.7741,-0.17047 -2.824,0.0222 -4.3423,0.79672 l -2.0024,1.0216 -2.5621,-2.7571 c -1.4091,-1.5164 -3.7588,-3.4772 -5.2215,-4.3573 -1.5288,-0.91994 -31.476,-12.409 -70.444,-27.026 -37.281,-13.984 -67.964,-25.606 -68.184,-25.826 -0.21983,-0.21982 -1.5838,-5.6531 -3.031,-12.074 -1.4472,-6.4208 -2.7503,-12.175 -2.8958,-12.787 -0.1542,-0.6489 -0.07415,-0.99521 0.19202,-0.83071 0.41876,0.2588 46.468,17.084 111.88,40.876 14.424,5.2468 27.372,10.22 28.773,11.052 1.401,0.83205 3.5619,2.5242 4.8019,3.7603 l 2.2547,2.2475 2.0661,-1.0222 c 2.9523,-1.4607 6.5184,-1.658 9.1215,-0.50455 2.7359,1.2122 3.6416,2.8401 2.9087,5.2279 -0.38964,1.2696 -0.39572,1.9343 -0.02184,2.3848 0.71687,0.86378 1.1144,0.79575 3.1536,-0.53964 4.1282,-2.7034 9.5668,-2.609 12.27,0.21293 1.2076,1.2605 1.2829,1.5633 0.98367,3.9579 -0.40663,3.2546 0.4328,3.8213 3.0221,2.0403 2.3646,-1.6264 4.0355,-2.1859 6.5287,-2.1859 2.5264,0 4.8355,0.89016 6.1524,2.3718 0.71322,0.80243 0.95366,1.7485 0.95366,3.7523 0,3.2757 0.6906,3.5966 3.5988,1.672 3.8498,-2.5477 10.623,-1.9453 12.634,1.1236 0.50998,0.77834 0.70782,1.9567 0.60652,3.6126 -0.1263,2.0646 -0.0115,2.4856 0.71787,2.6333 0.47751,0.0967 1.6577,-0.36837 2.6226,-1.0335 5.7248,-3.9464 13.914,-1.5617 13.914,4.0517 v 1.843 h 3.2754 c 7.6156,0 7.684,0.023 96.073,32.261 46.459,16.945 85.329,31.074 86.378,31.397 2.1289,0.65622 2.201,0.97347 1.4626,6.4361 -0.19497,1.4424 -0.4429,3.3199 -0.55094,4.1723 -0.10804,0.85234 -0.28706,2.2471 -0.39784,3.0994 -0.11077,0.85234 -0.31818,2.9444 -0.4609,4.6491 l -0.2595,3.0994 7.3863,-14.782 c 4.0625,-8.13 8.7223,-17.571 10.355,-20.981 1.6329,-3.4094 3.1311,-6.2708 3.3294,-6.3587 0.19833,-0.088 0.23931,-0.35618 0.0911,-0.59604 -0.14824,-0.23985 -0.0296,-0.4361 0.26359,-0.4361 0.29321,0 0.4005,-0.21458 0.23841,-0.47683 -0.16208,-0.26226 -0.0548,-0.47684 0.23842,-0.47684 0.29321,0 0.4005,-0.21457 0.23841,-0.47683 -0.16208,-0.26225 -0.0548,-0.47683 0.23842,-0.47683 0.29321,0 0.4005,-0.21457 0.23841,-0.47683 -0.16208,-0.26226 -0.0548,-0.47683 0.23842,-0.47683 0.29321,0 0.4005,-0.21457 0.23841,-0.47683 -0.16208,-0.26226 -0.0548,-0.47683 0.23842,-0.47683 0.29321,0 0.4005,-0.21457 0.23842,-0.47683 -0.16209,-0.26226 -0.0548,-0.47683 0.23841,-0.47683 0.29321,0 0.4005,-0.21458 0.23842,-0.47683 -0.16209,-0.26226 -0.0548,-0.47683 0.23841,-0.47683 0.29322,0 0.4005,-0.21458 0.23842,-0.47684 -0.16209,-0.26225 -0.0548,-0.47683 0.23841,-0.47683 0.29322,0 0.4005,-0.21457 0.23842,-0.47683 -0.16209,-0.26225 -0.0548,-0.47683 0.23841,-0.47683 0.29322,0 0.4005,-0.21457 0.23842,-0.47683 -0.16208,-0.26226 -0.0548,-0.47683 0.23841,-0.47683 0.29322,0 0.4005,-0.21457 0.23842,-0.47683 -0.16208,-0.26226 -0.0548,-0.47683 0.23842,-0.47683 0.29321,0 0.4005,-0.21458 0.23841,-0.47683 -0.16208,-0.26226 -0.0548,-0.47683 0.23842,-0.47683 0.29321,0 0.4005,-0.21458 0.23841,-0.47683 -0.16208,-0.26226 -0.0548,-0.47684 0.23842,-0.47684 0.29321,0 0.4005,-0.21457 0.23841,-0.47683 -0.16208,-0.26225 -0.0548,-0.47683 0.23842,-0.47683 0.29321,0 0.4005,-0.21457 0.23841,-0.47683 -0.16208,-0.26226 -0.0548,-0.47683 0.23842,-0.47683 0.29321,0 0.4005,-0.21457 0.23841,-0.47683 -0.16208,-0.26226 -0.0548,-0.47683 0.23842,-0.47683 0.29321,0 0.4005,-0.21457 0.23842,-0.47683 -0.16209,-0.26226 -0.0548,-0.47683 0.23841,-0.47683 0.29321,0 0.4005,-0.21458 0.23842,-0.47683 -0.16209,-0.26226 -0.0548,-0.47683 0.23841,-0.47683 0.29321,0 0.4005,-0.21458 0.23842,-0.47684 -0.16209,-0.26225 -0.0548,-0.47683 0.23841,-0.47683 0.29322,0 0.4005,-0.21457 0.23842,-0.47683 -0.16209,-0.26225 -0.0548,-0.47683 0.23841,-0.47683 0.29322,0 0.4005,-0.21457 0.23842,-0.47683 -0.16208,-0.26226 -0.0548,-0.47683 0.23841,-0.47683 0.29322,0 0.4005,-0.21457 0.23842,-0.47683 -0.16208,-0.26226 -0.0548,-0.47683 0.23842,-0.47683 0.29321,0 0.4005,-0.21458 0.23841,-0.47683 -0.16208,-0.26226 -0.0548,-0.47683 0.23842,-0.47683 0.29321,0 0.4005,-0.21458 0.23841,-0.47683 -0.16208,-0.26226 -0.0548,-0.47684 0.23842,-0.47684 0.29321,0 0.4005,-0.21457 0.23841,-0.47683 -0.16208,-0.26225 -0.0548,-0.47683 0.23842,-0.47683 0.29321,0 0.4005,-0.21457 0.23841,-0.47683 -0.16208,-0.26226 -0.0548,-0.47683 0.23842,-0.47683 0.29321,0 0.4005,-0.21457 0.23841,-0.47683 -0.16208,-0.26226 -0.0548,-0.47683 0.23842,-0.47683 0.29321,0 0.4005,-0.21458 0.23842,-0.47683 -0.16209,-0.26226 -0.0548,-0.47683 0.23841,-0.47683 0.29321,0 0.4005,-0.21458 0.23842,-0.47683 -0.16209,-0.26226 -0.0548,-0.47683 0.23841,-0.47683 0.29321,0 0.4005,-0.21458 0.23842,-0.47684 -0.16209,-0.26225 -0.0548,-0.47683 0.23841,-0.47683 0.29322,0 0.4005,-0.21457 0.23842,-0.47683 -0.16209,-0.26225 -0.0548,-0.47683 0.23841,-0.47683 0.29322,0 0.4005,-0.21457 0.23842,-0.47683 -0.16209,-0.26226 -0.0548,-0.47683 0.23841,-0.47683 0.29322,0 0.4005,-0.21457 0.23842,-0.47683 -0.16208,-0.26226 -0.0548,-0.47683 0.23842,-0.47683 0.29321,0 0.4005,-0.21458 0.23841,-0.47683 -0.16208,-0.26226 -0.0317,-0.47683 0.28975,-0.47683 0.32144,0 0.45441,-0.13004 0.29548,-0.28896 -0.15892,-0.15892 11.928,-24.728 26.86,-54.598 14.932,-29.87 27.147,-54.417 27.145,-54.549 0,-0.1323 0.62197,-1.481 1.3873,-2.9971 0.76531,-1.5161 1.5362,-3.8215 1.713,-5.1232 0.17681,-1.3016 0.50435,-3.0104 0.72784,-3.7971 0.22344,-0.78677 0.51417,-2.2889 0.64596,-3.3382 0.13185,-1.0492 0.34876,-2.2294 0.48213,-2.6226 0.13332,-0.3932 0.34794,-1.4659 0.47692,-2.3838 0.26555,-1.8898 1.1459,-4.8057 1.2082,-4.0022 0.0224,0.29024 -0.71744,4.689 -1.6444,9.775 l -1.6854,9.2473 -48.481,97.393 c -34.112,68.527 -48.699,97.378 -49.216,97.344 -0.40434,-0.0271 -38.046,-14.065 -83.648,-31.195 z"
       fill="#51965a"
       id="path19" /><path
       d="m 330.71,606.49 c 0.14272,-1.7047 0.35013,-3.7968 0.4609,-4.6491 0.11078,-0.85233 0.2898,-2.2471 0.39784,-3.0994 0.10804,-0.85233 0.35597,-2.7299 0.55094,-4.1723 0.7384,-5.4626 0.6663,-5.7799 -1.4626,-6.4361 -1.049,-0.32335 -39.919,-14.452 -86.378,-31.397 -88.389,-32.238 -88.457,-32.261 -96.073,-32.261 h -3.2754 v -1.8012 c 0,-2.104 -0.94998,-3.6416 -3.0358,-4.9135 -0.82172,-0.50106 -1.2006,-0.91183 -0.84191,-0.91281 0.35867,-9.5e-4 1.4852,0.83127 2.5034,1.8494 1.4386,1.4386 1.8512,2.2198 1.8512,3.5048 v 1.6536 l 5.1259,0.29037 c 2.8193,0.1597 6.4966,0.64776 8.1719,1.0846 1.6753,0.43681 41.251,14.721 87.945,31.742 68.729,25.053 85.014,30.832 85.5,30.338 0.77397,-0.78471 1.4557,-2.106 26.761,-51.868 3.9342,-7.7366 10.321,-20.289 14.192,-27.895 6.9354,-13.625 14.434,-28.366 28.014,-55.074 6.5388,-12.86 22.257,-43.742 26.212,-51.498 1.0029,-1.9669 1.9453,-4.3402 2.0944,-5.2739 l 0.27094,-1.6977 -5.8385,-1.6172 c -3.2112,-0.88945 -5.646,-1.6814 -5.4107,-1.7598 0.23526,-0.0784 2.8948,0.56212 5.91,1.4234 6.4792,1.8508 6.4387,1.7823 4.5164,7.6462 -0.70347,2.1458 -1.376,4.6525 -1.4945,5.5704 -0.1185,0.9179 -0.32462,1.9906 -0.45794,2.3838 -0.13337,0.3932 -0.35028,1.5734 -0.48213,2.6226 -0.13179,1.0492 -0.42252,2.5514 -0.64596,3.3382 -0.22349,0.78677 -0.55103,2.4955 -0.72784,3.7971 -0.1768,1.3016 -0.94765,3.6071 -1.713,5.1232 -0.76532,1.5161 -1.3896,2.8648 -1.3873,2.9971 0,0.1323 -12.213,24.68 -27.145,54.549 -14.932,29.87 -27.019,54.439 -26.86,54.598 0.15893,0.15892 0.0259,0.28896 -0.29548,0.28896 -0.32145,0 -0.45183,0.21457 -0.28975,0.47683 0.16209,0.26225 0.0548,0.47683 -0.23841,0.47683 -0.29322,0 -0.4005,0.21457 -0.23842,0.47683 0.16208,0.26226 0.0548,0.47683 -0.23842,0.47683 -0.29321,0 -0.4005,0.21457 -0.23841,0.47683 0.16208,0.26226 0.0548,0.47683 -0.23842,0.47683 -0.29321,0 -0.4005,0.21458 -0.23841,0.47683 0.16208,0.26226 0.0548,0.47683 -0.23842,0.47683 -0.29321,0 -0.4005,0.21458 -0.23841,0.47683 0.16208,0.26226 0.0548,0.47684 -0.23842,0.47684 -0.29321,0 -0.4005,0.21457 -0.23841,0.47683 0.16208,0.26225 0.0548,0.47683 -0.23842,0.47683 -0.29321,0 -0.4005,0.21457 -0.23841,0.47683 0.16208,0.26225 0.0548,0.47683 -0.23842,0.47683 -0.29321,0 -0.4005,0.21457 -0.23842,0.47683 0.16209,0.26226 0.0548,0.47683 -0.23841,0.47683 -0.29321,0 -0.4005,0.21457 -0.23842,0.47683 0.16209,0.26226 0.0548,0.47683 -0.23841,0.47683 -0.29321,0 -0.4005,0.21458 -0.23842,0.47683 0.16209,0.26226 0.0548,0.47683 -0.23841,0.47683 -0.29322,0 -0.4005,0.21458 -0.23842,0.47684 0.16209,0.26225 0.0548,0.47683 -0.23841,0.47683 -0.29322,0 -0.4005,0.21457 -0.23842,0.47683 0.16209,0.26225 0.0548,0.47683 -0.23841,0.47683 -0.29322,0 -0.4005,0.21457 -0.23842,0.47683 0.16208,0.26226 0.0548,0.47683 -0.23842,0.47683 -0.29321,0 -0.40049,0.21457 -0.23841,0.47683 0.16208,0.26226 0.0548,0.47683 -0.23842,0.47683 -0.29321,0 -0.4005,0.21458 -0.23841,0.47683 0.16208,0.26226 0.0548,0.47683 -0.23842,0.47683 -0.29321,0 -0.4005,0.21458 -0.23841,0.47683 0.16208,0.26226 0.0548,0.47684 -0.23842,0.47684 -0.29321,0 -0.4005,0.21457 -0.23841,0.47683 0.16208,0.26225 0.0548,0.47683 -0.23842,0.47683 -0.29321,0 -0.4005,0.21457 -0.23841,0.47683 0.16208,0.26226 0.0548,0.47683 -0.23842,0.47683 -0.29321,0 -0.4005,0.21457 -0.23842,0.47683 0.16209,0.26226 0.0548,0.47683 -0.23841,0.47683 -0.29321,0 -0.4005,0.21457 -0.23842,0.47683 0.16209,0.26226 0.0548,0.47683 -0.23841,0.47683 -0.29321,0 -0.4005,0.21458 -0.23842,0.47683 0.16209,0.26226 0.0548,0.47683 -0.23841,0.47683 -0.29322,0 -0.4005,0.21458 -0.23842,0.47684 0.16209,0.26225 0.0548,0.47683 -0.23841,0.47683 -0.29322,0 -0.4005,0.21457 -0.23842,0.47683 0.16209,0.26225 0.0548,0.47683 -0.23841,0.47683 -0.29322,0 -0.4005,0.21457 -0.23842,0.47683 0.16208,0.26226 0.0548,0.47683 -0.23842,0.47683 -0.29321,0 -0.40049,0.21457 -0.23841,0.47683 0.16208,0.26226 0.0548,0.47683 -0.23842,0.47683 -0.29321,0 -0.4005,0.21458 -0.23841,0.47683 0.16208,0.26226 0.0548,0.47683 -0.23842,0.47683 -0.29321,0 -0.4005,0.21458 -0.23841,0.47683 0.16208,0.26226 0.0548,0.47684 -0.23842,0.47684 -0.29321,0 -0.4005,0.21457 -0.23841,0.47683 0.16208,0.26225 0.0548,0.47683 -0.23842,0.47683 -0.29321,0 -0.4005,0.21457 -0.23841,0.47683 0.16208,0.26226 0.0548,0.47683 -0.23842,0.47683 -0.29321,0 -0.4005,0.21457 -0.23842,0.47683 0.16209,0.26226 0.0548,0.47683 -0.23841,0.47683 -0.29321,0 -0.4005,0.21457 -0.23842,0.47683 0.16209,0.26226 0.0548,0.47683 -0.23841,0.47683 -0.29321,0 -0.4005,0.21458 -0.23842,0.47683 0.16209,0.26226 0.0548,0.47683 -0.23841,0.47683 -0.29322,0 -0.4005,0.21458 -0.23842,0.47684 0.16209,0.26225 0.0548,0.47683 -0.23841,0.47683 -0.29322,0 -0.41183,0.19625 -0.26359,0.4361 0.14824,0.23986 0.10726,0.50807 -0.0911,0.59604 -0.19832,0.088 -1.6966,2.9494 -3.3294,6.3587 -1.6329,3.4093 -6.2927,12.851 -10.355,20.981 l -7.3863,14.782 z m -22.633,-34.576 c -1.4042,-0.6537 -3.8958,-1.4999 -5.5367,-1.8805 -2.1859,-0.50695 -337.99,-121.7 -356.09,-128.52 -1.5055,-0.56679 -3.8658,-1.8815 -5.2451,-2.9216 -1.3793,-1.0401 -3.0443,-2.0008 -3.7,-2.1349 -4.6464,-0.95024 -6.7289,-2.4182 -6.6326,-4.6754 0.03022,-0.70861 0.17562,-0.54946 0.48891,0.53513 0.5096,1.7642 2.0157,2.7024 5.1844,3.2293 1.3141,0.21853 2.8784,0.95349 4.0531,1.9043 2.713,2.1959 3.9389,2.7495 14.963,6.7563 111.86,40.655 345.21,124.83 347.58,125.37 1.7542,0.40606 3.8524,1.1471 4.6626,1.6468 0.81019,0.4997 2.3122,1.1054 3.3378,1.346 1.3508,0.31684 1.5362,0.44932 0.67267,0.48064 -0.65564,0.0238 -2.341,-0.4916 -3.7452,-1.1453 z m 11.136,0.2306 c 1.3113,-0.50746 2.8133,-1.4328 3.3378,-2.0564 0.52451,-0.62356 2.4557,-1.8541 4.2915,-2.7346 2.272,-1.0897 4.3281,-2.5957 6.4391,-4.7162 2.9767,-2.9901 3.6537,-4.1835 16.851,-29.703 11.508,-22.252 13.755,-26.92 13.781,-28.622 0.0333,-2.2014 -0.82621,-4.316 -1.6435,-4.0436 -0.27954,0.0932 -6.287,11.21 -13.35,24.705 -7.063,13.495 -13.044,24.741 -13.292,24.993 -0.28332,0.28774 -0.35191,-0.33165 -0.1848,-1.6689 0.14615,-1.1696 1.5307,-14.894 3.0768,-30.498 l 2.8111,-28.371 10.991,-19.788 c 6.0453,-10.884 10.993,-20.176 10.994,-20.651 0.004,-1.1242 40.31,-73.761 41.492,-74.773 0.49638,-0.42521 3.8035,-5.996 7.3491,-12.379 4.3074,-7.755 6.363,-11.059 6.1947,-9.9556 -1.1578,7.5883 -4.8309,37.008 -4.6559,37.291 0.12259,0.19834 0.69303,0.37571 1.2676,0.39414 0.57463,0.0185 1.4739,0.23246 1.9984,0.47562 0.73165,0.33918 0.59929,0.37947 -0.56847,0.17307 -1.4503,-0.25635 -1.539,-0.18323 -1.8799,1.5509 -0.59861,3.0451 -0.38719,7.8727 0.46606,10.641 0.64629,2.097 0.71124,3.0797 0.32405,4.9033 -0.44803,2.1106 -20.302,41.169 -22.564,44.391 -0.53009,0.75486 -2.1003,1.8928 -3.4895,2.5288 l -2.5257,1.1563 -4.5493,8.74 c -4.3193,8.2982 -4.5341,8.8505 -4.2495,10.927 0.28096,2.0499 0.19562,2.2845 -1.3645,3.7514 -0.9153,0.86062 -2.1111,1.8866 -2.6573,2.28 -0.54623,0.39339 -3.0481,4.6531 -5.5597,9.466 l -4.5665,8.7507 0.56275,2.7246 c 0.4339,2.1008 0.43271,3.0995 -0.005,4.3621 -0.67074,1.9339 -24.72,48.562 -27.083,52.51 -2.1371,3.5706 -5.7264,6.734 -10.184,8.9751 -1.9902,1.0006 -3.9284,2.1938 -4.3071,2.6514 -0.77263,0.93353 -4.1219,2.5736 -5.2185,2.5555 -0.39339,-0.006 0.35762,-0.42702 1.6689,-0.93449 z m 71.141,-119.17 c 0.83808,-0.51101 1.8303,-1.4222 2.2049,-2.0248 0.37464,-0.6026 5.4794,-10.322 11.344,-21.599 l 10.663,-20.504 0.007,-3.6454 c 0.005,-2.9076 -0.17499,-3.8462 -0.89138,-4.6379 -0.49405,-0.54586 -1.0538,-0.89628 -1.2441,-0.77871 -0.19021,0.11757 -0.4879,1.4224 -0.66156,2.8997 -0.26874,2.2868 -2.1562,6.2083 -12.703,26.392 -6.8132,13.038 -12.388,23.959 -12.388,24.268 0,0.86352 1.9722,0.66434 3.6695,-0.37062 z m -328.94,39.663 c -1.2194,-1.239 -3.3651,-2.9327 -4.7683,-3.7638 -1.4032,-0.8311 -21.219,-8.3093 -44.036,-16.618 -109.15,-39.75 -97.512,-35.426 -97.512,-36.216 0,-0.59024 14.495,-14.297 16.083,-15.208 0.9886,-0.56737 1.3993,0.23755 2.0882,4.0927 0.57244,3.2032 0.56803,3.2312 -0.69137,4.3984 -0.69712,0.64607 -1.2675,0.99661 -1.2675,0.77899 0,-0.21762 0.34746,-0.68404 0.77214,-1.0365 0.6131,-0.50883 0.71454,-1.1919 0.49248,-3.3164 -0.32064,-3.0678 -0.69746,-4.2657 -1.3418,-4.2657 -0.65658,0 -15.42,13.775 -15.42,14.388 0,0.28393 31.006,11.818 68.902,25.632 37.896,13.814 70.068,25.749 71.493,26.522 1.4252,0.77351 3.7083,2.4256 5.0736,3.6713 1.3653,1.2457 2.7331,2.265 3.0396,2.265 0.30653,0 0.42471,0.21457 0.26262,0.47683 -0.47808,0.77354 -0.83955,0.56829 -3.1707,-1.8004 z m 9.6079,-125.69 c 0,-0.64722 -0.10885,-1.4625 -0.24189,-1.8118 -0.13304,-0.34927 0.95992,-2.2443 2.4288,-4.2113 2.7691,-3.708 5.5178,-8.7245 6.14,-11.206 l 0.35874,-1.4305 0.45565,1.1921 c 1.1572,3.0275 -1.8136,11.18 -5.6241,15.434 -2.8439,3.1748 -3.5172,3.564 -3.5172,2.033 z m -28.658,-15.202 c -0.02623,-0.0656 -2.041,-15.998 -4.4772,-35.405 l -4.4295,-35.285 1.8547,-3.773 c 1.0201,-2.0751 1.8547,-4.2618 1.8547,-4.8594 0,-1.9576 0.83209,-1.6527 1.3751,0.50383 0.29243,1.1613 0.73818,2.2391 0.99056,2.3951 0.26755,0.16536 0.29533,0.72388 0.06662,1.3396 -0.24949,0.67166 1.0848,13.252 3.666,34.566 4.4802,36.994 4.4278,35.596 1.46,38.976 -1.2388,1.4109 -2.1699,2.019 -2.361,1.5418 z m 103.04,-61.634 c 0,-1.2615 0.52743,-2.4152 2.024,-4.4275 1.1132,-1.4968 2.6045,-3.9016 3.3141,-5.344 l 1.2901,-2.6226 0.0191,2.3842 c 0.0284,3.5401 -3.2258,9.8848 -5.7676,11.245 -0.77882,0.4168 -0.87967,0.27517 -0.87967,-1.2353 z m -26.232,-12.712 c -0.003,-0.0874 -0.95033,-15.249 -2.1039,-33.692 l -2.0975,-33.533 1.4446,-3.0871 c 0.79455,-1.6979 1.5382,-2.9936 1.6525,-2.8792 0.11434,0.11434 0.84428,10.156 1.6221,22.315 0.77782,12.159 1.7212,26.506 2.0964,31.883 0.97306,13.943 0.94648,15.275 -0.34284,17.178 -0.89479,1.3206 -2.2476,2.4021 -2.2714,1.8159 z"
       fill="#62776b"
       id="path21" /><path
       d="m 246.97,557.1 c -46.288,-16.902 -85.77,-31.169 -87.737,-31.704 -1.9669,-0.53466 -5.8829,-1.1007 -8.7022,-1.2579 l -5.1259,-0.28578 v -1.5809 c 0,-2.0062 -2.2545,-4.6778 -4.6009,-5.4521 -2.8522,-0.9413 -7.387,-0.39018 -9.6407,1.1716 -2.6128,1.8107 -3.4762,1.4396 -3.0964,-1.331 0.23479,-1.713 0.0936,-2.4028 -0.72799,-3.5566 -2.2809,-3.2032 -9.014,-3.914 -12.875,-1.3592 -2.8992,1.9186 -3.5695,1.751 -3.1874,-0.79664 0.6494,-4.3305 -2.0661,-6.7408 -7.5946,-6.7408 -2.7826,0 -3.7089,0.21812 -5.5685,1.3113 -3.229,1.8982 -3.8927,1.7795 -3.4867,-0.62337 0.4478,-2.6505 -0.38176,-4.3754 -2.7423,-5.702 -2.9605,-1.6639 -6.6775,-1.5305 -10.302,0.36957 -3.2196,1.6877 -4.1295,1.4282 -3.3033,-0.94179 0.66668,-1.9124 -0.48133,-4.3312 -2.5927,-5.4624 -2.1114,-1.1313 -7.1976,-1.1478 -9.3895,-0.0305 -0.89263,0.45503 -1.8281,0.82732 -2.0789,0.82732 -0.25076,0 -1.573,-1.0192 -2.9382,-2.265 -1.3653,-1.2457 -3.6484,-2.8978 -5.0736,-3.6713 -1.4252,-0.77352 -33.597,-12.708 -71.493,-26.522 -37.896,-13.814 -68.902,-25.348 -68.902,-25.632 0,-0.61264 14.763,-14.388 15.42,-14.388 0.62849,0 0.98186,1.0845 1.3365,4.1017 0.2389,2.0327 0.13738,2.7746 -0.47177,3.4477 -1.3322,1.472 -1.4646,3.5113 -0.32236,4.9634 0.92194,1.172 2.307,1.7685 5.7337,2.4693 0.65564,0.13408 2.3206,1.0948 3.7,2.1349 1.3794,1.0401 3.7397,2.3548 5.2451,2.9216 17.992,6.7737 353.89,128.01 356.06,128.51 1.6295,0.3779 4.121,1.2072 5.5367,1.843 5.2244,2.3461 10.934,1.9111 14.373,-1.0951 0.85351,-0.74592 3.0616,-2.1145 4.9068,-3.0413 4.2079,-2.1135 7.818,-5.3308 9.9172,-8.8381 2.3631,-3.9483 26.413,-50.576 27.083,-52.51 0.43792,-1.2626 0.43911,-2.2614 0.005,-4.3621 l -0.56276,-2.7246 4.5666,-8.7507 c 2.5116,-4.8129 5.0135,-9.0726 5.5597,-9.466 0.54623,-0.39338 1.742,-1.4194 2.6573,-2.28 1.5601,-1.4669 1.6454,-1.7015 1.3645,-3.7514 -0.28457,-2.0761 -0.0697,-2.6285 4.2495,-10.927 l 4.5493,-8.74 2.5257,-1.1563 c 1.3892,-0.63597 2.9594,-1.7739 3.4895,-2.5288 2.2621,-3.2214 22.116,-42.28 22.564,-44.391 0.38042,-1.7918 0.32095,-2.843 -0.27733,-4.9033 -0.41884,-1.4424 -0.87264,-3.2954 -1.0084,-4.1177 -0.23513,-1.4236 0.51101,-7.6748 0.97097,-8.1347 0.12001,-0.12 3.4769,0.70156 7.4598,1.8257 l 7.2416,2.0439 -0.26941,1.688 c -0.1482,0.92842 -1.0899,3.2973 -2.0928,5.2643 -3.9543,7.7555 -19.673,38.638 -26.212,51.498 -13.58,26.708 -21.078,41.449 -28.014,55.074 -3.8714,7.6054 -10.258,20.158 -14.192,27.895 -27.997,55.056 -26.659,52.503 -27.479,52.422 -0.16458,-0.0163 -38.172,-13.859 -84.46,-30.761 z"
       fill="#080a09"
       id="path23" /></g><rect
     x="37.042004"
     y="7.4281001"
     width="25.330999"
     height="25.330999"
     rx="3.2765"
     fill="#d72555"
     stroke-width="0.18544"
     id="rect27" /><path
     d="m 57.378,21.5793 c -0.08808,-0.91496 -0.4992,-1.7287 -1.0832,-2.1576 -0.10422,-0.36903 -0.27297,-0.69726 -0.50291,-0.97782 -0.03449,-0.43097 -0.21826,-1.2732 -1.0672,-2.0161 0.09458,-0.08345 0.18358,-0.18396 0.24719,-0.30115 0.70875,-0.31654 1.2085,-0.98135 1.2666,-1.4759 0.37811,-0.37829 0.59452,-0.82558 0.61269,-1.2705 0.0087,-0.20991 -0.02911,-0.40536 -0.1083,-0.57208 0.31302,-0.33806 0.41631,-0.73638 0.28317,-1.1219 -0.2114,-0.61288 -0.95316,-1.0106 -1.949,-1.0531 -0.26703,-0.24348 -0.6394,-0.37162 -1.0854,-0.37162 -0.19063,0 -0.39109,0.02483 -0.58599,0.07231 -0.15948,-0.07677 -0.35586,-0.11682 -0.57579,-0.11682 -0.37329,0 -0.78256,0.11312 -1.0987,0.29948 A 1.0112,1.0112 0 0 0 51.59839,10.508 c -0.49438,0 -0.98858,0.34065 -1.2391,0.54371 a 3.7564,3.7564 0 0 0 -0.65145,0.67871 3.7602,3.7602 0 0 0 -0.65126,-0.67871 C 48.80587,10.84884 48.31167,10.508 47.81728,10.508 a 1.0125,1.0125 0 0 0 -0.13277,0.0085 c -0.31617,-0.18637 -0.72544,-0.29948 -1.0985,-0.29948 -0.22012,0 -0.41631,0.04 -0.57597,0.11682 a 2.5097,2.5097 0 0 0 -0.58599,-0.07231 c -0.44598,0 -0.81834,0.12796 -1.0854,0.37162 -0.99581,0.04228 -1.7376,0.44023 -1.949,1.0533 -0.13314,0.38534 -0.02967,0.78366 0.28317,1.1219 -0.07919,0.16652 -0.11683,0.36216 -0.1083,0.57188 0.01818,0.44506 0.23458,0.89235 0.61269,1.2705 0.05786,0.49457 0.5578,1.1594 1.2666,1.4761 0.0636,0.11683 0.15262,0.21734 0.247,0.30097 -0.84876,0.74288 -1.0325,1.5851 -1.067,2.0163 -0.22994,0.28038 -0.39869,0.60842 -0.50291,0.97764 -0.58395,0.42892 -0.99507,1.2428 -1.083,2.1574 -0.08772,0.9094 0.16189,1.7582 0.66944,2.2957 0.06972,0.40797 0.30227,0.94203 0.55224,1.2678 0.05006,0.68927 0.3438,1.3689 0.83262,1.9243 0.49253,0.5591 1.1418,0.94426 1.8366,1.0913 0.41965,0.39258 0.86619,0.66888 1.4687,0.9092 0.26314,0.26518 1.0297,0.90291 2.3104,0.90291 1.2807,0 2.0473,-0.63791 2.3104,-0.90291 0.60249,-0.24033 1.049,-0.51662 1.4687,-0.9092 0.69466,-0.14706 1.3441,-0.53221 1.8364,-1.0913 0.489,-0.55538 0.78256,-1.235 0.83281,-1.9243 0.25016,-0.32582 0.4827,-0.85969 0.55206,-1.2677 0.50773,-0.53777 0.75715,-1.3865 0.66981,-2.2957 z m -3.4303,-2.7809 c -0.60119,-0.32767 -1.1694,-0.80592 -1.5987,-1.34 -0.57338,-0.68131 -0.20064,-0.98469 0.70244,-0.82113 0.67314,0.16319 1.3099,0.69725 1.5866,1.3316 0.32081,0.85358 0.07084,1.2641 -0.69039,0.82947 z m -2.3781,-7.2559 a 0.078441,0.078441 0 0 1 0.09977,0.08344 c -0.02485,0.23496 0.1172,0.20529 0.15095,0.16356 0.36995,-0.45989 0.76178,-0.56466 1.1126,-0.53388 0.06175,0.0058 0.09123,0.0775 0.05378,0.12685 -0.13945,0.20676 0.01074,0.24607 0.0662,0.2088 0.5693,-0.35605 1.1126,-0.3566 1.3211,-0.20714 0.04042,0.02913 0.0419,0.08902 0.0046,0.12203 -0.21066,0.1795 -0.09272,0.26888 -0.01836,0.24162 0.5782,-0.20398 1.3763,-0.02353 1.6547,0.21178 0.0369,0.03133 0.03802,0.08771 0.0019,0.11979 -0.35178,0.31191 -0.52479,0.56225 -0.60361,1.0531 -0.01558,0.13852 0.21418,0.10941 0.31098,0.08438 0.04822,-0.01242 0.09642,0.02353 0.09791,0.07328 0.0087,0.33287 -0.30598,0.69874 -0.77439,1.0116 -0.06269,0.04187 -0.05378,0.14242 0.08938,0.14613 0.06472,0.0049 0.09458,0.06492 0.06677,0.11682 -0.16708,0.30987 -0.39424,0.60176 -1.1677,0.80221 -0.07381,0.01915 -0.07973,0.11961 -0.01112,0.14946 0.0688,0.02987 0.06954,0.09568 0.02485,0.13408 -0.77013,0.66164 -2.7223,0.40074 -2.9702,-0.71283 a 0.07807,0.07807 0 0 1 0.0141,-0.06379 c 0.46323,-0.61789 1.5399,-1.8271 3.2374,-2.4632 0.0688,-0.02581 0.04228,-0.12926 -0.03041,-0.1185 -1.6487,0.24477 -2.8098,1.1612 -3.5159,2.1196 a 0.079368,0.079368 0 0 1 -0.10069,0.0228 c -1.2513,-0.64607 -0.22383,-2.5537 0.88547,-2.8919 z m -1.8618,4.9325 c 0.24014,0 0.86378,0.02223 1.516,0.53352 1.0885,0.90494 -0.15855,1.5453 -1.516,1.5453 -1.3574,0 -2.6047,-0.64051 -1.516,-1.5453 0.65219,-0.51145 1.2758,-0.53352 1.516,-0.53352 z m -5.4957,-1.9106 c -0.028,-0.05193 0.0019,-0.11201 0.06657,-0.11683 0.14316,-0.0041 0.15206,-0.10421 0.08938,-0.14613 -0.46842,-0.31284 -0.78311,-0.67871 -0.7744,-1.0116 a 0.078441,0.078441 0 0 1 0.09772,-0.07328 c 0.09699,0.02483 0.32674,0.05412 0.31117,-0.08438 -0.079,-0.49086 -0.25183,-0.7412 -0.60379,-1.0531 a 0.079183,0.079183 0 0 1 0.0019,-0.11961 c 0.27853,-0.23552 1.0767,-0.41594 1.6547,-0.21196 0.07455,0.02727 0.19249,-0.06216 -0.01817,-0.24163 a 0.078441,0.078441 0 0 1 0.0046,-0.12202 c 0.20843,-0.14947 0.75159,-0.14873 1.3211,0.20713 0.05562,0.03709 0.20565,-0.0016 0.0662,-0.2088 -0.03746,-0.04934 -0.0079,-0.12128 0.05379,-0.12684 0.35085,-0.03084 0.74268,0.07385 1.1126,0.53388 0.03356,0.04171 0.1758,0.07141 0.15095,-0.16356 A 0.078441,0.078441 0 0 1 47.846,11.54222 c 1.1095,0.33824 2.137,2.2459 0.88566,2.8919 a 0.079368,0.079368 0 0 1 -0.10069,-0.0228 c -0.70634,-0.95835 -1.8674,-1.8748 -3.5159,-2.1196 -0.07269,-0.01079 -0.0994,0.09272 -0.03041,0.11868 1.6973,0.63606 2.7742,1.8451 3.2374,2.463 a 0.078255,0.078255 0 0 1 0.0141,0.06378 c -0.24775,1.1136 -2.2001,1.3745 -2.9702,0.71283 -0.04469,-0.03838 -0.04396,-0.10421 0.02465,-0.13408 0.06861,-0.0297 0.06287,-0.13036 -0.01093,-0.14946 -0.77347,-0.20047 -1.0006,-0.49235 -1.1675,-0.80221 z m 0.56559,3.4043 c 0.2763,-0.63421 0.9131,-1.1683 1.5864,-1.3315 0.90309,-0.16375 1.2758,0.13964 0.70244,0.82094 -0.42948,0.53407 -0.99766,1.0123 -1.5987,1.34 -0.76123,0.43467 -1.0112,0.02411 -0.69039,-0.82947 z m -1.5748,4.7435 c -0.25146,-0.65831 -0.18878,-1.4587 0.1808,-2.074 0.4024,-0.68427 0.80703,-0.65701 0.96762,-0.07733 0.20714,0.76549 0.1274,1.6786 -0.20955,2.3964 -0.29782,0.59212 -0.67018,0.39202 -0.93888,-0.24533 z m 2.9003,4.4324 c -0.96558,-0.20343 -1.7856,-1.1761 -1.8225,-2.1622 0.15095,-3.5133 5.2144,2.7608 1.8225,2.1622 z m 0.10292,-4.3758 c -0.84913,-0.49012 -1.0737,-1.6907 -0.5018,-2.6815 0.5719,-0.99043 1.7238,-1.3962 2.573,-0.90588 0.84913,0.4903 1.0737,1.6907 0.5018,2.6815 -0.5719,0.99043 -1.7238,1.3962 -2.573,0.90587 z m 4.9186,5.7167 a 2.4131,2.4131 0 0 1 -1.4169,0.45692 c -0.52906,0 -1.0182,-0.16949 -1.4168,-0.45692 -0.84152,-0.58117 0.0051,-1.2497 1.4168,-1.2497 1.4118,0 2.2583,0.6685 1.4168,1.2497 z m -1.4169,-2.1298 c -1.0885,0 -1.9708,-0.75622 -1.9708,-1.6893 0,-0.93276 0.88232,-1.6893 1.9708,-1.6893 1.08848,0 1.9708,0.75658 1.9708,1.6893 0,0.93313 -0.88232,1.6893 -1.9708,1.6893 z m 0.92849,-4.4928 c -0.57189,-0.99062 -0.34714,-2.191 0.50198,-2.6813 0.84913,-0.4903 2.0009,-0.08456 2.573,0.90606 0.5719,0.99061 0.34733,2.1911 -0.5018,2.6814 -0.84913,0.49012 -2.0011,0.08437 -2.5732,-0.90624 z m 2.6761,5.2819 c -3.3919,0.5986 1.6716,-5.6756 1.8225,-2.1622 -0.03709,0.98617 -0.85692,1.9588 -1.8225,2.1622 z m 2.9003,-4.4326 c -0.2687,0.63736 -0.64106,0.83726 -0.93907,0.24534 -0.33676,-0.71784 -0.4165,-1.6309 -0.20955,-2.3964 0.16078,-0.57967 0.56559,-0.60693 0.96781,0.07733 0.36958,0.61528 0.43226,1.4158 0.1808,2.0738 z"
     fill="#ffffff"
     stroke-width="0.18544"
     id="path29" /></svg>
