<?xml version="1.0" encoding="UTF-8"?>
<svg width="64" height="64" version="1.1" xml:space="preserve" xmlns="http://www.w3.org/2000/svg" xmlns:cc="http://creativecommons.org/ns#" xmlns:dc="http://purl.org/dc/elements/1.1/" xmlns:rdf="http://www.w3.org/1999/02/22-rdf-syntax-ns#"><metadata><rdf:RDF><cc:Work rdf:about=""><dc:format>image/svg+xml</dc:format><dc:type rdf:resource="http://purl.org/dc/dcmitype/StillImage"/></cc:Work></rdf:RDF></metadata><defs><style id="current-color-scheme" type="text/css">.ColorScheme-Text { color:#444444; } .ColorScheme-Highlight { color:#4285f4; }</style><style type="text/css">.ColorScheme-Text {
        color:#232629;
      }</style><style type="text/css">.ColorScheme-Text {
        color:#232629;
      }
      .ColorScheme-NegativeText {
        color:#da4453;
      }</style><style type="text/css">.ColorScheme-Text {
        color:#232629;
      }</style><style type="text/css">.ColorScheme-Text { color:#444444; } .ColorScheme-Highlight { color:#4285f4; }</style><style type="text/css">.ColorScheme-Text { color:#444444; } .ColorScheme-Highlight { color:#4285f4; }</style><style type="text/css">.ColorScheme-Text {
        color:#232629;
      }</style><style type="text/css">.ColorScheme-Text {
        color:#232629;
      }</style><style type="text/css">.ColorScheme-Text { color:#444444; } .ColorScheme-Highlight { color:#4285f4; }</style><style type="text/css">.ColorScheme-Text {
        color:#232629;
      }</style><style type="text/css">.ColorScheme-Text {
        color:#232629;
      }</style><style type="text/css">.ColorScheme-Text { color:#444444; } .ColorScheme-Highlight { color:#4285f4; }</style></defs><g transform="matrix(.11789 0 0 .11789 11.678 -13.558)" stroke-width=".47683"><g transform="translate(5.942 6.3626)"><g transform="matrix(1.0604 0 0 1.0604 -38.291 3.8453)"><g transform="matrix(.85201 0 0 .85201 6.1171 66.522)"><g transform="matrix(23.134,0,0,23.134,15.769,218.99)"><rect transform="matrix(0,-1,-1,0,0,0)" x="-16" y="-16" width="16" height="16" rx=".32466" ry=".32466" fill="#8e8e8e"/><path d="m8 2a6 6 0 0 0-6 6 6 6 0 0 0 6 6 6 6 0 0 0 6-6 6 6 0 0 0-6-6zm0 4a2 2 0 0 1 2 2 2 2 0 0 1-2 2 2 2 0 0 1-2-2 2 2 0 0 1 2-2z" opacity=".5"/></g><g transform="matrix(8.0969 0 0 8.0969 -765.77 107.73)"><path d="m144.04 52.621h-9.4482v-4.7175c2e-3 -1.9189 1.5572-3.4738 3.4759-3.4761h2.4962c1.9189 0.0022 3.4761 1.5571 3.4761 3.4759v2.22e-4zm-7.488-1.9602h5.5277v-2.7573c-1e-3 -0.83689-0.679-1.5151-1.5158-1.5159h-2.4961c-0.83686 7.5e-4 -1.5158 0.67899-1.5158 1.5158v7.4e-5zm5.5703 6.1234h-5.6283l0.058-6.1234h5.5277zm-20.137-20.303c-2e-3 1.9189-1.4828 2.2305-1.6511 2.4184l-1.9602-9e-3c-0.9289-0.61351-1.5399-2.0859-1.5399-2.0859-0.0643-2.8459 5.1512-2.8855 5.1512-0.32351zm12.345-8.2712c3.2983 0 5.9721 2.6738 5.9721 5.9721v11.225h-1.9602v-11.225c0-2.2157-1.7962-4.0119-4.0119-4.0119s-4.0118 1.7962-4.0118 4.0119v17.459c0 3.2983-2.6738 5.9721-5.972 5.9721-3.2983 0-5.9721-2.6737-5.9721-5.9721v-13.721h1.9602v13.721c0 2.2157 1.7962 4.0119 4.0119 4.0119s4.0118-1.7962 4.0118-4.0119v-17.459c0-3.2983 2.6738-5.9721 5.9721-5.9721z" fill="#458fe6" stroke="#458fe6" stroke-width=".013692"/></g></g><g transform="matrix(13.25 0 0 13.25 -81.803 112.52)" stroke-linecap="round" stroke-width="1.8002"><path class="st0" d="m12.96 10.61c0 2.47-2 4.48-4.48 4.48" fill-opacity="0" stroke="#7654a2"/><line class="st1" x1="22.94" x2="22.94" y1="15.34" y2="8.59" stroke="#00abe0"/><line class="st2" x1="37.48" x2="29.67" y1="15.34" y2="3.06" stroke="#f79929"/><line class="st3" x1="36.77" x2="29.67" y1="4.43" y2="12.86" stroke="#f06022"/><line class="st4" x1="26.31" x2="26.31" y1="15.34" y2="10.61" stroke="#537d61"/><line class="st5" x1="26.31" x2="26.31" y1="3.3" y2="3.06" stroke="#6cb845"/>
	<line class="st6" x1="16.04" x2="16.04" y1="10.61" y2="4.98" stroke="#3387c7"/>
	
		<path class="st6" d="m16.04 8.59c0-1.63 1.54-2.95 3.45-2.95s3.45 1.32 3.45 2.95" fill="none" stroke="#3387c7"/>
	
<polyline class="st7" points="16.04 15.34 16.04 14.71 16.04 10.61" stroke="#0c649c"/><line class="st5" x1="26.31" x2="26.31" y1="10.61" y2="6.42" stroke="#6cb845"/><g fill-opacity="0"><path class="st8" d="m8.49 6.13c2.47 0 4.48 2 4.48 4.48" stroke="#9d7db8"/><path class="st0" d="m4.01 10.61c0-2.47 2-4.48 4.48-4.48" stroke="#7654a2"/><path class="st9" d="m8.49 15.08c-2.47 0-4.48-2-4.48-4.48" stroke="#6d2772"/></g></g></g></g></g><style type="text/css">
	.st0{fill:none;stroke:#7654A2;stroke-width:1.8;stroke-linecap:round;stroke-linejoin:round;stroke-miterlimit:10;}
	.st1{fill:none;stroke:#00ABE1;stroke-width:1.8;stroke-linecap:round;stroke-linejoin:round;stroke-miterlimit:10;}
	.st2{fill:none;stroke:#F79929;stroke-width:1.8;stroke-linecap:round;stroke-linejoin:round;stroke-miterlimit:10;}
	.st3{fill:none;stroke:#F06022;stroke-width:1.8;stroke-linecap:round;stroke-linejoin:round;stroke-miterlimit:10;}
	.st4{fill:none;stroke:#527C60;stroke-width:1.8;stroke-linecap:round;stroke-linejoin:round;stroke-miterlimit:10;}
	.st5{fill:none;stroke:#6CB845;stroke-width:1.8;stroke-linecap:round;stroke-linejoin:round;stroke-miterlimit:10;}
	.st6{fill:none;stroke:#3387C8;stroke-width:1.8;stroke-linecap:round;stroke-linejoin:round;stroke-miterlimit:10;}
	.st7{fill:none;stroke:#0C649B;stroke-width:1.8;stroke-linecap:round;stroke-linejoin:round;stroke-miterlimit:10;}
	.st8{fill:none;stroke:#9D7CB7;stroke-width:1.8;stroke-linecap:round;stroke-linejoin:round;stroke-miterlimit:10;}
	.st9{fill:none;stroke:#6D2772;stroke-width:1.8;stroke-linecap:round;stroke-linejoin:round;stroke-miterlimit:10;}
</style><style type="text/css">.ColorScheme-Highlight { color: #3498db; } .ColorScheme-Text { color: #fcfcfc; } </style></svg>
