<?xml version="1.0" encoding="UTF-8" standalone="no"?>
<svg
   viewBox="0 0 24 24"
   version="1.1"
   id="svg6"
   sodipodi:docname="run-temp.svg"
   width="24"
   height="24"
   inkscape:version="1.1.1 (3bf5ae0d25, 2021-09-20)"
   xmlns:inkscape="http://www.inkscape.org/namespaces/inkscape"
   xmlns:sodipodi="http://sodipodi.sourceforge.net/DTD/sodipodi-0.dtd"
   xmlns:xlink="http://www.w3.org/1999/xlink"
   xmlns="http://www.w3.org/2000/svg"
   xmlns:svg="http://www.w3.org/2000/svg"
   xmlns:rdf="http://www.w3.org/1999/02/22-rdf-syntax-ns#"
   xmlns:cc="http://creativecommons.org/ns#"
   xmlns:dc="http://purl.org/dc/elements/1.1/">
  <metadata
     id="metadata10">
    <rdf:RDF>
      <cc:Work
         rdf:about="">
        <dc:format>image/svg+xml</dc:format>
        <dc:type
           rdf:resource="http://purl.org/dc/dcmitype/StillImage" />
        <dc:title />
      </cc:Work>
    </rdf:RDF>
  </metadata>
  <sodipodi:namedview
     pagecolor="#ffffff"
     bordercolor="#666666"
     borderopacity="1"
     objecttolerance="10"
     gridtolerance="10"
     guidetolerance="10"
     inkscape:pageopacity="0"
     inkscape:pageshadow="2"
     inkscape:window-width="1491"
     inkscape:window-height="1088"
     id="namedview8"
     showgrid="true"
     fit-margin-top="0"
     fit-margin-left="0"
     fit-margin-right="0"
     fit-margin-bottom="0"
     inkscape:zoom="20.85965"
     inkscape:cx="1.4381833"
     inkscape:cy="10.091253"
     inkscape:window-x="2217"
     inkscape:window-y="166"
     inkscape:window-maximized="0"
     inkscape:current-layer="g1711"
     inkscape:document-rotation="0"
     inkscape:pagecheckerboard="0">
    <inkscape:grid
       type="xygrid"
       id="grid816" />
  </sodipodi:namedview>
  <defs
     id="defs3051">
    <linearGradient
       inkscape:collect="always"
       id="linearGradient861">
      <stop
         style="stop-color:#42a603"
         id="stop857" />
      <stop
         offset="1"
         style="stop-color:#fdbc4b;stop-opacity:1"
         id="stop859" />
    </linearGradient>
    <style
       type="text/css"
       id="current-color-scheme">
      .ColorScheme-Text {
        color:#4d4d4d;
      }
      </style>
    <style
       id="current-color-scheme-6"
       type="text/css">
      .ColorScheme-Text {
        color:#232629;
      }
      </style>
    <linearGradient
       id="linearGradient4393">
      <stop
         id="stop8"
         offset="0"
         style="stop-color:#000000;stop-opacity:1;" />
      <stop
         id="stop10"
         offset="1"
         style="stop-color:#000000;stop-opacity:0;" />
    </linearGradient>
    <linearGradient
       gradientUnits="userSpaceOnUse"
       x2="21"
       y2="27"
       x1="5"
       y1="11"
       id="linearGradient4256"
       xlink:href="#linearGradient4393"
       inkscape:collect="always"
       gradientTransform="matrix(1.2499988,0,0,1.2857117,4.0000276,3.4286038)" />
    <linearGradient
       gradientUnits="userSpaceOnUse"
       x2="0"
       y2="527.79797"
       y1="539.79797"
       id="linearGradient4308"
       xlink:href="#linearGradient4298"
       inkscape:collect="always"
       gradientTransform="matrix(1.3333334,0,0,1.1666668,-587.52271,-589.41907)" />
    <linearGradient
       id="linearGradient4298"
       inkscape:collect="always">
      <stop
         id="stop4300"
         style="stop-color:#42a603" />
      <stop
         id="stop4302"
         style="stop-color:#78da06"
         offset="1" />
    </linearGradient>
    <style
       id="current-color-scheme-5"
       type="text/css">
      .ColorScheme-Text {
        color:#232629;
      }
      </style>
    <linearGradient
       inkscape:collect="always"
       xlink:href="#linearGradient4393"
       id="linearGradient939"
       gradientUnits="userSpaceOnUse"
       gradientTransform="matrix(1.2499988,0,0,1.2857117,1.9519776,3.4286038)"
       x1="5"
       y1="11"
       x2="21"
       y2="27" />
    <style
       type="text/css"
       id="current-color-scheme-62">
      .ColorScheme-Text {
        color:#4d4d4d;
      }
      </style>
    <style
       id="current-color-scheme-6-9"
       type="text/css">
      .ColorScheme-Text {
        color:#232629;
      }
      </style>
    <style
       id="current-color-scheme-5-3"
       type="text/css">
      .ColorScheme-Text {
        color:#232629;
      }
      </style>
    <style
       type="text/css"
       id="current-color-scheme-59">
      .ColorScheme-Text {
        color:#4d4d4d;
      }
      </style>
    <style
       id="current-color-scheme-6-2"
       type="text/css">
      .ColorScheme-Text {
        color:#232629;
      }
      </style>
    <style
       id="current-color-scheme-5-6"
       type="text/css">
      .ColorScheme-Text {
        color:#232629;
      }
      </style>
    <linearGradient
       gradientTransform="matrix(0.53195824,0,0,0.53195824,-28.238604,1.5860087)"
       gradientUnits="userSpaceOnUse"
       y2="-16.92522"
       x2="1.96261"
       y1="-0.090195999"
       x1="0.074749999"
       id="linearGradient955"
       xlink:href="#linearGradient4298"
       inkscape:collect="always" />
    <linearGradient
       gradientUnits="userSpaceOnUse"
       y2="-10.925221"
       x2="3.96261"
       y1="-3.925221"
       x1="2.96261"
       id="linearGradient977"
       xlink:href="#linearGradient4298"
       inkscape:collect="always" />
    <linearGradient
       y2="-15.015227"
       x2="9.2029886"
       y1="2.3218315"
       x1="-8.1340704"
       gradientTransform="matrix(1.0039745,0,0,1.0039745,0.42600839,-0.02948789)"
       gradientUnits="userSpaceOnUse"
       id="linearGradient1023"
       xlink:href="#linearGradient861"
       inkscape:collect="always" />
    <style
       type="text/css"
       id="current-color-scheme-4">
      .ColorScheme-Text {
        color:#232629;
      }
      </style>
  </defs>
  <g
     id="g945">
    <g
       id="g951"
       transform="translate(11.03739,18.925221)">
      <g
         id="g1711"
         transform="matrix(0.9545455,0,0,0.9545455,0.04377214,-0.87882253)">
        <path
           sodipodi:nodetypes="ccccccccccccccccccccccccccccccccccccccccccccccccccccccccccccccccccccccccccccccccccccccccccccccccccccccccc"
           inkscape:connector-curvature="0"
           style="fill:#f2f2f2;fill-opacity:1;stroke:none;stroke-width:1.50001"
           d="m 0.9625965,-18.925198 c -1.012809,0.0057 -2.020823,0.13956 -3.000003,0.398437 v 1.549803 0.01758 c -0.6842902,0.204594 -1.34592,0.478473 -1.974611,0.817382 l -0.0117,-0.0117 -1.098634,-1.098632 c -1.750436,1.032074 -3.210115,2.491753 -4.242191,4.242184 l 0.782226,0.782226 0.328126,0.328125 c -0.3399186,0.628574 -0.6147814,1.290206 -0.820314,1.974607 h -0.0205 -1.5527355 c -0.255917,0.9795575 -0.38684,1.9875655 -0.389647,2.999997 0.0057,1.0128065 0.139559,2.020819 0.398438,2.999997 h 1.5498055 0.01758 c 0.2045947,0.6842889 0.4784743,1.3459173 0.817384,1.974607 l -0.328126,0.3281247 -0.782228,0.7822267 c 1.032076,1.7504308 2.491756,3.2101093 4.242192,4.2421833 l 0.782228,-0.7822267 0.328125,-0.3281247 c 0.6285748,0.3399177 1.2902082,0.6147797 1.974611,0.8203117 v 0.4628905 1.1103499 c 0.979559,0.2559177 1.987568,0.3868406 3.000003,0.3896486 0.502497,-0.00285 1.0028,-0.039935 1.500001,-0.1054679 V 3.4605426 c -0.495668,0.073215 -0.997642,0.1125629 -1.500001,0.1142579 -0.503182,-7.53e-4 -1.003405,-0.038804 -1.500002,-0.1113284 V 3.4576071 2.074796 1.9400301 C -1.8735119,1.7140635 -3.1413727,1.1892945 -4.2463635,0.4048762 l -0.09375,0.09375 -0.975588,0.975584 -0.0059,0.00587 c -0.804458,-0.603087 -1.517152,-1.3180178 -2.118167,-2.124027 l 0.0029,-0.00293 0.975588,-0.9755855 0.09668,-0.096679 C -7.1517377,-2.8224791 -7.679517,-4.089347 -7.9085475,-5.4251921 h -0.12891 -1.379884 -0.0058 c -0.07322,-0.495667 -0.112561,-0.99764 -0.114256,-1.4999985 7.53e-4,-0.5031805 0.0388,-1.003403 0.111331,-1.4999985 h 0.0059 1.382813 0.13476 c 0.2259677,-1.3361329 0.7507384,-2.6039919 1.535159,-3.7089799 l -0.09375,-0.09375 -0.975588,-0.975586 -0.0058,-0.0059 c 0.6031,-0.804457 1.318016,-1.51715 2.124026,-2.118163 l 0.003,0.003 0.975586,0.975584 0.09668,0.09667 c 1.10334,-0.787136 2.3702103,-1.314914 3.706058,-1.543944 v -0.12891 -1.379882 -0.0059 c 0.495668,-0.07321 0.997642,-0.11256 1.500002,-0.114255 0.503181,7.5e-4 1.003405,0.0388 1.500001,0.11133 v 0.0059 1.382811 0.13476 c 1.3361358,0.225966 2.603997,0.750736 3.708988,1.535154 l 0.09375,-0.09375 0.975587,-0.975584 0.0058,-0.0058 c 0.8044644,0.603093 1.5171541,1.318013 2.1181656,2.124023 l -0.003,0.003 -0.9755859,0.975585 -0.096675,0.09668 c 0.7871367,1.103338 1.3149155,2.370206 1.5439455,3.7060509 h 0.1289101 1.3798852 0.0058 c 0.07322,0.495667 0.11256,0.99764 0.114255,1.4999985 -7.43e-4,0.5031805 -0.0388,1.003403 -0.11133,1.4999985 h -0.0059 -1.3828147 -0.1347601 c -0.1834593,1.0573253 -0.5545353,2.0733187 -1.0957031,2.999997 h 1.7021499 c 0.226426,-0.4848737 0.415454,-0.9863478 0.56543,-1.5000389 h 0.462891 1.110352 c 0.255919,-0.9795575 0.386842,-1.987564 0.38965,-2.999997 -0.0057,-1.0128065 -0.13956,-2.020819 -0.398438,-2.999997 h -1.101464 -0.465821 c -0.204595,-0.684289 -0.478474,-1.345917 -0.817384,-1.974607 l 0.0117,-0.0117 1.098635,-1.098632 C 10.257747,-14.760652 8.7980467,-16.220326 7.0476105,-17.2524 l -1.092775,1.092773 -0.01758,0.01758 c -0.6285744,-0.339918 -1.2902075,-0.614781 -1.97461,-0.820313 v -0.0205 -1.552732 c -0.97956,-0.255918 -1.987568,-0.386841 -3.000003,-0.389649 z"
           class="ColorScheme-Text"
           id="path1031" />
        <path
           style="fill:url(#linearGradient1023);fill-opacity:1;stroke-width:1.3514"
           inkscape:connector-curvature="0"
           id="path37"
           d="m -4.3124138,-2.9714217 c -0.164796,0.2960403 -0.2960383,0.7416997 -0.2960383,1.0224065 0,0.065206 0,0.1481071 0.016069,0.2630151 L -6.6530308,-5.229379 c -0.066057,-0.1149047 -0.1150975,-0.2800351 -0.1150975,-0.4286437 0,-0.1487847 0.049175,-0.329737 0.1150975,-0.4449857 l 0.989213,-1.730917 -1.1042992,-0.6259447 3.5935943,-0.066556 1.7470902,3.1484363 -1.1206373,-0.6427951 -1.7646133,3.0497 m 1.5828111,-9.9898741 c 0.3128896,-0.544564 0.8244307,-0.841278 1.4503764,-0.841278 0.6756516,0 1.20404005,0.313564 1.58280923,0.955684 l 0.5607416,0.939513 -1.94557323,3.363432 -3.148438,-1.829822 1.500084,-2.587529 m 0.2301548,12.84075598 c -0.939509,0 -1.7140652,-0.77472468 -1.7140652,-1.71423348 0,-0.2638595 0.1157752,-0.7091839 0.2805306,-0.9892149 l 0.5268743,-0.9395129 h 3.90731252 v 3.64312782 H -2.5000674 M 0.6326964,-13.060204 c -0.24700401,-0.427965 -0.57674689,-0.725522 -0.97253195,-0.890478 H 3.7157584 c 0.3627637,0 0.6426284,0.148778 0.8080882,0.42932 l 1.0053867,1.714233 1.0876161,-0.64347 -1.7477639,3.1327681 -3.5770777,-0.050379 1.1042932,-0.6259496 -1.76393758,-3.0665485 m 6.24766968,9.3293867 c 0.494016,0 0.906482,-0.1319214 1.2523985,-0.3951131 L 6.0879538,-0.566211 C 5.923158,-0.2861761 5.6269589,-0.12122335 5.2808779,-0.12122335 H 3.3516467 V 1.1478583 l -1.845838,-3.0822178 1.845991,-3.0832302 v 1.2862657 h 3.5285548 m 1.5814618,-2.9673078 c 0.1487646,0.2638593 0.231496,0.543722 0.231496,0.8406063 0,0.5935964 -0.3796109,1.2200471 -0.9064817,1.5164243 -0.2476759,0.1325989 -0.594272,0.2153324 -0.9395108,0.2153324 H 5.75836 l -1.9443961,-3.3634317 3.1484362,-1.7969617 1.4994065,2.5880304" />
        <path
           style="color:#232629;fill:#f2f2f2;stroke-width:0.636364;fill-opacity:1"
           d="m 7.5989737,-1.3797664 c -2.1,0 -3.8181818,1.7181818 -3.8181818,3.8181818 0,2.1 1.7181818,3.8181818 3.8181818,3.8181818 2.0999998,0 3.8181823,-1.7181818 3.8181823,-3.8181818 0,-2.1 -1.7181825,-3.8181818 -3.8181823,-3.8181818 z m 0,0.6363636 c 1.7818178,0 3.1818183,1.4 3.1818183,3.1818182 0,1.7818182 -1.4000005,3.1818182 -3.1818183,3.1818182 -1.7818182,0 -3.1818182,-1.4 -3.1818182,-3.1818182 0,-1.7818182 1.4,-3.1818182 3.1818182,-3.1818182 z M 6.96261,-0.1070392 V 2.4384154 3.074779 H 7.5989737 10.144429 V 2.4384154 H 7.5989737 v -2.5454546 z"
           class="ColorScheme-Text"
           id="path4" />
      </g>
    </g>
  </g>
  <style
     id="current-color-scheme-7"
     type="text/css">
        .ColorScheme-Text {
            color:#232629;
        }
    </style>
</svg>
