<?xml version="1.0" encoding="UTF-8" standalone="no"?>
<svg
   viewBox="0 0 32 32"
   version="1.1"
   id="svg79"
   sodipodi:docname="settings.svg"
   inkscape:version="1.1.1 (3bf5ae0d25, 2021-09-20)"
   xmlns:inkscape="http://www.inkscape.org/namespaces/inkscape"
   xmlns:sodipodi="http://sodipodi.sourceforge.net/DTD/sodipodi-0.dtd"
   xmlns="http://www.w3.org/2000/svg"
   xmlns:svg="http://www.w3.org/2000/svg">
  <sodipodi:namedview
     id="namedview81"
     pagecolor="#ffffff"
     bordercolor="#666666"
     borderopacity="1.0"
     inkscape:pageshadow="2"
     inkscape:pageopacity="0.0"
     inkscape:pagecheckerboard="0"
     showgrid="false"
     inkscape:zoom="27.28125"
     inkscape:cx="7.7342497"
     inkscape:cy="16"
     inkscape:window-width="1491"
     inkscape:window-height="1088"
     inkscape:window-x="3088"
     inkscape:window-y="0"
     inkscape:window-maximized="0"
     inkscape:current-layer="svg79" />
  <defs
     id="defs3051">
    <style
       type="text/css"
       id="current-color-scheme">
      .ColorScheme-Text {
        color:#4d4d4d;
      }
      .ColorScheme-Highlight {
        color:#3daee9;
      }
      </style>
  </defs>
  <path
     style="fill:#f2f2f2;fill-opacity:1;stroke:none"
     d="M18.5 6A3.5 3.5 0 0 0 15.04102 9H4V10H15.04A3.5 3.5 0 0 0 18.5 13 3.5 3.5 0 0 0 21.958984 10H28V9H21.961A3.5 3.5 0 0 0 18.5 6M7.5 19A3.5 3.5 0 0 0 4 22.5 3.5 3.5 0 0 0 7.5 26 3.5 3.5 0 0 0 10.960938 23H28V22H10.959A3.5 3.5 0 0 0 7.5 19m0 1A2.5 2.5 0 0 1 10 22.5 2.5 2.5 0 0 1 7.5 25 2.5 2.5 0 0 1 5 22.5 2.5 2.5 0 0 1 7.5 20"
     class="ColorScheme-Text"
     id="path77" />
</svg>
