<?xml version="1.0" encoding="UTF-8" standalone="no"?>
<svg
   viewBox="0 0 32 32"
   version="1.1"
   id="svg6"
   sodipodi:docname="show-module-widgets.svg"
   inkscape:version="1.1.1 (3bf5ae0d25, 2021-09-20)"
   width="32"
   height="32"
   xmlns:inkscape="http://www.inkscape.org/namespaces/inkscape"
   xmlns:sodipodi="http://sodipodi.sourceforge.net/DTD/sodipodi-0.dtd"
   xmlns="http://www.w3.org/2000/svg"
   xmlns:svg="http://www.w3.org/2000/svg"
   xmlns:rdf="http://www.w3.org/1999/02/22-rdf-syntax-ns#"
   xmlns:cc="http://creativecommons.org/ns#"
   xmlns:dc="http://purl.org/dc/elements/1.1/">
  <metadata
     id="metadata10">
    <rdf:RDF>
      <cc:Work
         rdf:about="">
        <dc:format>image/svg+xml</dc:format>
        <dc:type
           rdf:resource="http://purl.org/dc/dcmitype/StillImage" />
      </cc:Work>
    </rdf:RDF>
  </metadata>
  <sodipodi:namedview
     pagecolor="#ffffff"
     bordercolor="#666666"
     borderopacity="1"
     objecttolerance="10"
     gridtolerance="10"
     guidetolerance="10"
     inkscape:pageopacity="0"
     inkscape:pageshadow="2"
     inkscape:window-width="2270"
     inkscape:window-height="1088"
     id="namedview8"
     showgrid="false"
     inkscape:zoom="10.727273"
     inkscape:cx="-41.949151"
     inkscape:cy="11.04661"
     inkscape:window-x="949"
     inkscape:window-y="96"
     inkscape:window-maximized="0"
     inkscape:current-layer="svg6"
     inkscape:pagecheckerboard="0" />
  <defs
     id="defs3051">
    <style
       type="text/css"
       id="current-color-scheme">
      .ColorScheme-Text {
        color:#232629;
      }
      </style>
  </defs>
  <path
     style="fill:#f2f2f2;fill-opacity:1;stroke:none;stroke-width:1.49999"
     d="M 4,4 V 25 H 28 V 4 Z m 1.5,1.5 h 21 v 18 H 5.5 Z M 7,7 v 6 h 3 l 3,-3 V 7 Z m 12.75,1.5 c -2.908493,0 -5.25,2.341508 -5.25,5.25 0,2.908493 2.341507,5.25 5.25,5.25 C 22.658492,19 25,16.658493 25,13.75 25,10.841508 22.658492,8.5 19.75,8.5 Z m 0,1.5 c 2.077496,0 3.75,1.672504 3.75,3.75 0,2.077496 -1.672504,3.75 -3.75,3.75 C 17.672504,17.5 16,15.827496 16,13.75 16,11.672504 17.672504,10 19.75,10 Z M 13,11.5 11.5,13 H 13 Z m 6,0 v 3 H 20.5 22 V 13 h -1.5 v -1.5 z m -12,6 v 3 h 3 l 1.5,1.5 v -1.5 h 0.354492 v -3 z m -3,9 V 28 h 24 v -1.5 z"
     class="ColorScheme-Text"
     id="path4" />
</svg>
