<?xml version="1.0" encoding="UTF-8"?>
<svg width="32" height="32" version="1.1" viewBox="0 0 32 32" xml:space="preserve" xmlns="http://www.w3.org/2000/svg" xmlns:cc="http://creativecommons.org/ns#" xmlns:dc="http://purl.org/dc/elements/1.1/" xmlns:rdf="http://www.w3.org/1999/02/22-rdf-syntax-ns#"><metadata><rdf:RDF><cc:Work rdf:about=""><dc:format>image/svg+xml</dc:format><dc:type rdf:resource="http://purl.org/dc/dcmitype/StillImage"/></cc:Work></rdf:RDF></metadata><defs><style id="current-color-scheme" type="text/css">
      .ColorScheme-Text {
        color:#4d4d4d;
      }
      </style><style type="text/css">
   .ColorScheme-Text { color:#6e6e6e; } .ColorScheme-Highlight { color:#4285f4; }
  </style><style type="text/css">
   .ColorScheme-Text { color:#dfdfdf; } .ColorScheme-Highlight { color:#4285f4; }
  </style><style type="text/css">
      .ColorScheme-Text {
        color:#232629;
      }
      </style></defs><path class="ColorScheme-Text" d="m28 28v-10.286h-13.714v10.286zm-17.143 0v-10.286h-6.8571v10.286zm17.143-13.714v-10.286h-24v10.286z" color="#4d4d4d" fill="#f2f2f2" stroke-width="1.7143"/><g transform="matrix(1.1141 0 0 1.1141 -57.278 28.13)"><path transform="matrix(1.0685 -.24341 .24341 1.0685 75.811 -11.973)" d="m-6.7098-2.988c0.019-0.152 0.033-0.306 0.033-0.463s-0.014-0.311-0.033-0.463l1-0.785c0.09-0.071 0.116-0.199 0.057-0.304l-0.949-1.644c-0.059-0.102-0.183-0.145-0.289-0.102l-1.182 0.477c-0.244-0.187-0.513-0.346-0.802-0.467l-0.178-1.258c-0.021-0.112-0.119-0.199-0.237-0.199h-1.898c-0.119 0-0.216 0.088-0.235 0.199l-0.178 1.258c-0.289 0.121-0.558 0.278-0.802 0.467l-1.182-0.477c-0.107-0.04-0.23 0-0.289 0.102l-0.949 1.644c-0.059 0.102-0.033 0.23 0.057 0.304l1 0.785c-0.019 0.152-0.033 0.306-0.033 0.463s0.014 0.311 0.033 0.463l-1 0.785c-0.09 0.071-0.116 0.199-0.057 0.304l0.949 1.644c0.059 0.102 0.183 0.145 0.289 0.102l1.182-0.477c0.244 0.187 0.513 0.346 0.802 0.467l0.178 1.258c0.019 0.112 0.116 0.199 0.235 0.199h1.898c0.119 0 0.216-0.088 0.235-0.199l0.178-1.258c0.289-0.121 0.558-0.278 0.802-0.467l1.182 0.477c0.107 0.04 0.23 0 0.289-0.102l0.949-1.644c0.059-0.102 0.033-0.23-0.057-0.304zm-3.526 1.198c-0.918 0-1.661-0.743-1.661-1.661s0.743-1.661 1.661-1.661 1.661 0.743 1.661 1.661-0.743 1.661-1.661 1.661" fill="#d5d5d5"/><path transform="matrix(1.0685 -.24341 .24341 1.0685 75.811 -11.973)" d="m-7.7098-3.988c0.019-0.152 0.033-0.306 0.033-0.463s-0.014-0.311-0.033-0.463l1-0.785c0.09-0.071 0.116-0.199 0.057-0.304l-0.949-1.644c-0.059-0.102-0.183-0.145-0.289-0.102l-1.182 0.477c-0.244-0.187-0.513-0.346-0.802-0.467l-0.178-1.258c-0.021-0.112-0.119-0.199-0.237-0.199h-1.898c-0.119 0-0.216 0.088-0.235 0.199l-0.178 1.258c-0.289 0.121-0.558 0.278-0.802 0.467l-1.182-0.477c-0.107-0.04-0.23 0-0.289 0.102l-0.949 1.644c-0.059 0.102-0.033 0.23 0.057 0.304l1 0.785c-0.019 0.152-0.033 0.306-0.033 0.463s0.014 0.311 0.033 0.463l-1 0.785c-0.09 0.071-0.116 0.199-0.057 0.304l0.949 1.644c0.059 0.102 0.183 0.145 0.289 0.102l1.182-0.477c0.244 0.187 0.513 0.346 0.802 0.467l0.178 1.258c0.019 0.112 0.116 0.199 0.235 0.199h1.898c0.119 0 0.216-0.088 0.235-0.199l0.178-1.258c0.289-0.121 0.558-0.278 0.802-0.467l1.182 0.477c0.107 0.04 0.23 0 0.289-0.102l0.949-1.644c0.059-0.102 0.033-0.23-0.057-0.304zm-3.526 1.198c-0.918 0-1.661-0.743-1.661-1.661s0.743-1.661 1.661-1.661 1.661 0.743 1.661 1.661-0.743 1.661-1.661 1.661" fill="#858585"/><path transform="matrix(1.0685 -.24341 .24341 1.0685 75.811 -11.973)" d="m-3.9998 5.402c0.065-0.091 0.129-0.185 0.184-0.286s0.1-0.205 0.141-0.309l0.921-0.153c0.083-0.014 0.145-0.087 0.143-0.175l-0.033-1.39c-3e-3 -0.086-0.067-0.157-0.15-0.167l-0.927-0.108c-0.091-0.206-0.208-0.402-0.351-0.582l0.327-0.871c0.025-0.079-6e-3 -0.17-0.083-0.211l-1.22-0.666c-0.076-0.042-0.17-0.019-0.221 0.046l-0.555 0.746c-0.228-0.024-0.456-0.017-0.679 0.019l-0.592-0.721c-0.055-0.063-0.148-0.081-0.222-0.036l-1.187 0.724c-0.074 0.045-0.102 0.136-0.07 0.215l0.368 0.856c-0.065 0.091-0.129 0.185-0.184 0.286s-0.1 0.205-0.141 0.309l-0.919 0.154c-0.083 0.014-0.145 0.087-0.143 0.175l0.033 1.39c3e-3 0.086 0.067 0.157 0.15 0.167l0.927 0.108c0.091 0.206 0.208 0.402 0.351 0.582l-0.327 0.871c-0.027 0.078 5e-3 0.169 0.081 0.21l1.22 0.666c0.076 0.042 0.17 0.019 0.221-0.046l0.555-0.746c0.228 0.024 0.456 0.017 0.679-0.019l0.592 0.721c0.055 0.063 0.148 0.081 0.222 0.036l1.187-0.724c0.074-0.045 0.102-0.136 0.07-0.215zm-2.686-0.467c-0.59-0.322-0.807-1.06-0.485-1.65s1.06-0.807 1.65-0.485 0.807 1.06 0.485 1.65-1.06 0.807-1.65 0.485" fill="#d5d5d5"/><path transform="matrix(1.0685 -.24341 .24341 1.0685 75.811 -11.973)" d="m-4.9998 4.402c0.065-0.091 0.129-0.185 0.184-0.286s0.1-0.205 0.141-0.309l0.921-0.153c0.083-0.014 0.145-0.087 0.143-0.175l-0.033-1.39c-3e-3 -0.086-0.067-0.157-0.15-0.167l-0.927-0.108c-0.091-0.206-0.208-0.402-0.351-0.582l0.327-0.871c0.025-0.079-6e-3 -0.17-0.083-0.211l-1.22-0.666c-0.076-0.042-0.17-0.019-0.221 0.046l-0.555 0.746c-0.228-0.024-0.456-0.017-0.679 0.019l-0.592-0.721c-0.055-0.063-0.148-0.081-0.222-0.036l-1.187 0.724c-0.074 0.045-0.102 0.136-0.07 0.215l0.368 0.856c-0.065 0.091-0.129 0.185-0.184 0.286s-0.1 0.205-0.141 0.309l-0.919 0.154c-0.083 0.014-0.145 0.087-0.143 0.175l0.033 1.39c3e-3 0.086 0.067 0.157 0.15 0.167l0.927 0.108c0.091 0.206 0.208 0.402 0.351 0.582l-0.327 0.871c-0.027 0.078 5e-3 0.169 0.081 0.21l1.22 0.666c0.076 0.042 0.17 0.019 0.221-0.046l0.555-0.746c0.228 0.024 0.456 0.017 0.679-0.019l0.592 0.721c0.055 0.063 0.148 0.081 0.222 0.036l1.187-0.724c0.074-0.045 0.102-0.136 0.07-0.215zm-2.686-0.467c-0.59-0.322-0.807-1.06-0.485-1.65s1.06-0.807 1.65-0.485 0.807 1.06 0.485 1.65-1.06 0.807-1.65 0.485" fill="#858585"/></g></svg>
