<?xml version="1.0" encoding="UTF-8"?>
<svg width="64" height="64" version="1.1" xml:space="preserve" xmlns="http://www.w3.org/2000/svg" xmlns:cc="http://creativecommons.org/ns#" xmlns:dc="http://purl.org/dc/elements/1.1/" xmlns:rdf="http://www.w3.org/1999/02/22-rdf-syntax-ns#" xmlns:xlink="http://www.w3.org/1999/xlink"><metadata><rdf:RDF><cc:Work rdf:about=""><dc:format>image/svg+xml</dc:format><dc:type rdf:resource="http://purl.org/dc/dcmitype/StillImage"/></cc:Work></rdf:RDF></metadata><defs><style id="current-color-scheme" type="text/css">.ColorScheme-Text { color:#444444; } .ColorScheme-Highlight { color:#4285f4; }</style><linearGradient id="linearGradient4159"><stop stop-color="#2a2c2f" offset="0"/><stop stop-color="#424649" offset="1"/></linearGradient><linearGradient id="linearGradient4227"><stop stop-color="#292c2f" offset="0"/><stop stop-opacity="0" offset="1"/></linearGradient><linearGradient id="linearGradient4940-2" x1="-6" x2="24" y1="6" y2="36" gradientTransform="translate(376.57,508.8)" gradientUnits="userSpaceOnUse" xlink:href="#linearGradient4227"/><linearGradient id="linearGradient4936-1" x1="-6" x2="24" y1="6" y2="36" gradientTransform="translate(376.57,502.8)" gradientUnits="userSpaceOnUse" xlink:href="#linearGradient4227"/><linearGradient id="linearGradient4932" x1="-6" x2="24" y1="6" y2="36" gradientTransform="translate(376.57,496.8)" gradientUnits="userSpaceOnUse" xlink:href="#linearGradient4227"/><linearGradient id="linearGradient4922" x1="-6" x2="24" y1="6" y2="36" gradientTransform="translate(376.57,490.8)" gradientUnits="userSpaceOnUse" xlink:href="#linearGradient4227"/><linearGradient id="linearGradient4746" x2="0" y1="523.8" y2="516.8" gradientTransform="matrix(.9651 0 0 .9651 -728.64 -951.46)" gradientUnits="userSpaceOnUse"><stop stop-color="#e00a5e" offset="0"/><stop stop-color="#f62870" offset="1"/></linearGradient><linearGradient id="linearGradient4818" x2="0" y1="523.8" y2="516.8" gradientTransform="matrix(.9651 0 0 .9651 -728.64 -945.67)" gradientUnits="userSpaceOnUse"><stop stop-color="#f9b425" offset="0"/><stop stop-color="#f9bf3b" offset="1"/></linearGradient><linearGradient id="linearGradient4824-8" x2="0" y1="523.8" y2="516.8" gradientTransform="matrix(.9651 0 0 .9651 -728.64 -939.88)" gradientUnits="userSpaceOnUse"><stop stop-color="#22a7f0" offset="0"/><stop stop-color="#19b5fe" offset="1"/></linearGradient><linearGradient id="linearGradient4830-9" x2="0" y1="523.8" y2="516.8" gradientTransform="matrix(.9651 0 0 .9651 -728.64 -934.09)" gradientUnits="userSpaceOnUse"><stop stop-color="#26c281" offset="0"/><stop stop-color="#3fc380" offset="1"/></linearGradient><linearGradient id="linearGradient4324-6" x2="0" y1="527.8" y2="518.8" gradientTransform="matrix(.20087 0 0 .20831 291.93 410.44)" gradientUnits="userSpaceOnUse" xlink:href="#linearGradient4159"/><linearGradient id="linearGradient4281-1" x2="0" y1="527.8" y2="518.8" gradientTransform="matrix(.20087 0 0 .20831 293.8 410.44)" gradientUnits="userSpaceOnUse" xlink:href="#linearGradient4159"/><linearGradient id="linearGradient4183-2" x2="0" y1="527.8" y2="518.8" gradientTransform="matrix(.20087 0 0 .20831 295.67 410.44)" gradientUnits="userSpaceOnUse" xlink:href="#linearGradient4159"/><linearGradient id="linearGradient4263-3" x1="408.57" x2="417.57" y1="518.8" y2="527.8" gradientTransform="matrix(.23434 0 0 .23434 285.21 396.93)" gradientUnits="userSpaceOnUse" xlink:href="#linearGradient4227"/><linearGradient id="linearGradient4259-6" x1="408.57" x2="417.57" y1="518.8" y2="527.8" gradientTransform="matrix(.23434 0 0 .23434 283.34 396.93)" gradientUnits="userSpaceOnUse" xlink:href="#linearGradient4227"/><style type="text/css">.ColorScheme-Text {
        color:#232629;
      }</style><style type="text/css">.ColorScheme-Text {
        color:#232629;
      }
      .ColorScheme-NegativeText {
        color:#da4453;
      }</style><linearGradient id="linearGradient4455-7" x2="0" y1="526.8" y2="519.8" gradientTransform="matrix(.74759 0 0 .74759 -259.44 -410.31)" gradientUnits="userSpaceOnUse"><stop stop-color="#eef1f2" offset="0"/><stop stop-color="#f9fafb" offset="1"/></linearGradient><linearGradient id="linearGradient1499" x1="31.763" x2="15.179" y1="56.973" y2="12.895" gradientTransform="matrix(1.0562 0 0 1.1922 -2.332 -8.663)" gradientUnits="userSpaceOnUse"><stop stop-color="#79ca88" offset="0"/><stop stop-color="#126e72" offset="1"/></linearGradient><linearGradient id="linearGradient1501" x1="408.57" x2="417.57" y1="518.8" y2="527.8" gradientTransform="matrix(.23434 0 0 .23434 281.46 396.93)" gradientUnits="userSpaceOnUse" xlink:href="#linearGradient4227"/><style type="text/css">
      .ColorScheme-Text {
        color:#232629;
      }
      </style></defs><path d="m4.0087 9.3651v47.396h3.6776v-5.8087h53.359v-35.766h-53.441l0.048351-3.4373 0.00772-2.3844z" fill="url(#linearGradient1499)" stroke-width="1.1221"/><g transform="matrix(5.6058 0 0 5.6058 -2084 -2870.6)" fill-rule="evenodd"><path transform="matrix(.17216 0 0 .17216 306.6 428.23)" d="m391.57 530.8-5 4 6 6h6v4h7z" fill="url(#linearGradient4940-2)" opacity=".2"/><path transform="matrix(.17216 0 0 .17216 306.6 428.23)" d="m391.57 524.8-5 4 16 16h9z" fill="url(#linearGradient4936-1)" opacity=".2"/><path transform="matrix(.17216 0 0 .17216 306.6 428.23)" d="m391.57 518.8-5 4 22 22h9z" fill="url(#linearGradient4932)" opacity=".2"/><path transform="matrix(.17216 0 0 .17216 306.6 428.23)" d="m391.57 512.8-5 4 28 28h9z" fill="url(#linearGradient4922)" opacity=".2"/></g><path d="m33.051 46.866v0.9651h0.9651v-0.9651zm0.9651 0.9651v0.96505h0.96505v-0.96505zm0.96505 0h0.9651v-0.9651h-0.9651zm0.9651 0v0.96505h0.9651v-0.96505zm0.9651 0h0.96505v-0.9651h-0.96505zm0.96505 0v0.96505h0.9651v-0.96505zm0.9651 0h0.96505v-0.9651h-0.96505zm0.96505 0v0.96505h0.9651v-0.96505zm0.9651 0h0.9651v-0.9651h-0.9651zm0.9651 0v0.96505h0.96505v-0.96505zm0.96505 0h0.9651v-0.9651h-0.9651zm0.9651 0v0.96505h0.9651v-0.96505zm0.9651 0h0.96505v-0.9651h-0.96505zm0.96505 0v0.96505h0.9651v-0.96505zm0.9651 0h0.96505v-0.9651h-0.96505zm0.96505 0v0.96505h0.9651v-0.96505z" color="#000000" stroke-width=".9651"/><path d="m11.729 48.963v0.9651h0.9651v-0.9651zm0.9651 0.9651v0.9651h0.9651v-0.9651zm0.9651 0h0.9651v-0.9651h-0.9651zm0.9651 0v0.9651h0.9651v-0.9651zm0.9651 0h0.9651v-0.9651h-0.9651zm-3.8604 0h-0.9651v0.9651h0.9651z" color="#000000" stroke-width=".9651"/><rect x="4.1409" y="9.2923" width="3.6504" height="47.456" fill="#afc0c6" stroke-width="1.0155"/><rect x="4.0483" y="9.2923" width=".91451" height="47.451" fill="#96aab5" stroke-width="1.0165"/><path d="m48.479 30.326v0.9651h-0.9651v-0.9651zm-0.9651 0.9651v0.96505h-0.96505v-0.96505zm-0.96505 0h-0.9651v-0.9651h0.9651zm-0.9651 0v0.96505h-0.9651v-0.96505zm-0.9651 0h-0.96505v-0.9651h0.96505zm-0.96505 0v0.96505h-0.9651v-0.96505zm-0.9651 0h-0.96505v-0.9651h0.96505zm-0.96505 0v0.96505h-0.9651v-0.96505zm-0.9651 0h-0.9651v-0.9651h0.9651zm-0.9651 0v0.96505h-0.96505v-0.96505zm-0.96505 0h-0.9651v-0.9651h0.9651zm-0.9651 0v0.96505h-0.9651v-0.96505zm-0.9651 0h-0.96505v-0.9651h0.96505zm-0.96505 0v0.96505h-0.9651v-0.96505zm-0.9651 0h-0.96505v-0.9651h0.96505zm-0.96505 0v0.96505h-0.9651v-0.96505z" color="#000000" stroke-width=".9651"/><g stroke-width=".9651"><path d="m4.0087 24.836c-0.53466 0-0.9651 0.43043-0.9651 0.9651v1.9302c0 0.53466 0.43043 0.9651 0.9651 0.9651h0.9651v-3.8604z" fill="#afc0c6"/><path d="m7.8691 24.836v3.8604h3.7643c0.03426 0 0.06283-0.01544 0.09612-0.01882v0.01882h0.9651v-3.8604h-0.9651v0.01882c-0.0333-0.0039-0.06186-0.01882-0.09612-0.01882z" fill="url(#linearGradient4746)"/><path d="m4.0087 30.626c-0.53466 0-0.9651 0.43043-0.9651 0.9651v1.9302c0 0.53466 0.43043 0.9651 0.9651 0.9651h0.9651v-3.8604z" fill="#afc0c6"/><path d="m7.8691 30.626v3.8604h3.7643c0.03426 0 0.06283-0.01544 0.09612-0.01882v0.01882h0.9651v-3.8604h-0.9651v0.01882c-0.0333-0.0039-0.06186-0.01882-0.09612-0.01882z" fill="url(#linearGradient4818)"/><path d="m4.0087 36.417c-0.53466 0-0.9651 0.43043-0.9651 0.9651v1.9302c0 0.53466 0.43043 0.9651 0.9651 0.9651h0.9651v-3.8604z" fill="#afc0c6"/><path d="m7.8691 36.417v3.8604h3.7643c0.03426 0 0.06283-0.01544 0.09612-0.01882v0.01882h0.9651v-3.8604h-0.9651v0.01882c-0.0333-0.0039-0.06186-0.01882-0.09612-0.01882z" fill="url(#linearGradient4824-8)"/><path d="m4.0087 42.207c-0.53466 0-0.9651 0.43043-0.9651 0.9651v1.9302c0 0.53466 0.43043 0.9651 0.9651 0.9651h0.9651v-3.8604z" fill="#afc0c6"/><path d="m7.8691 42.207v3.8604h3.7643c0.03426 0 0.06283-0.01544 0.09612-0.01882v0.01882h0.9651v-3.8604h-0.9651v0.01882c-0.0333-0.0039-0.06186-0.01882-0.09612-0.01882z" fill="url(#linearGradient4830-9)"/><rect x="7.8691" y="45.103" width="4.8255" height=".9651" opacity=".09"/><rect x="7.8691" y="39.312" width="4.8255" height=".9651" opacity=".09"/><rect x="7.8691" y="33.521" width="4.8255" height=".9651" opacity=".09"/><rect x="7.8691" y="27.731" width="4.8255" height=".9651" opacity=".09"/></g><g transform="matrix(5.6058 0 0 5.6058 -2084 -2870.6)" fill-rule="evenodd" stroke-width=".23434"><path transform="matrix(.82646 0 0 .82646 65.771 89.8)" d="m380.49 518.51-1.4061 1.8748 1.1717 1.1717h3.0465v-0.23435z" fill="url(#linearGradient4259-6)" opacity=".2"/><path transform="matrix(.82646 0 0 .82646 65.771 89.8)" d="m382.36 518.51-1.4061 1.8748 1.1717 1.1717h1.1717v-2.1091z" fill="url(#linearGradient4263-3)" opacity=".2"/><path transform="matrix(.82646 0 0 .82646 65.771 89.8)" d="m377.21 520.38 1.4061-1.8748 3.0465 3.0465h-3.5152 0.23435z" fill="url(#linearGradient1501)" opacity=".2"/></g><g transform="matrix(5.6058 0 0 5.6058 -2084 -2870.6)" stroke-width=".23434"><rect transform="matrix(.82646 0 0 .82646 65.771 89.8)" x="380.96" y="518.51" width="1.4061" height="1.8748" fill="url(#linearGradient4183-2)"/><path transform="matrix(.82646 0 0 .82646 65.771 89.8)" d="m382.6 518.51v0.23435h0.23435v-0.23435zm0.23435 0.23435v0.23433h0.23435v-0.23433zm0 0.23433h-0.23435v0.23436h0.23435zm0 0.23436v0.23433h0.23435v-0.23433zm0 0.23433h-0.23435v0.23435h0.23435zm0 0.23435v0.23435h0.23435v-0.23435zm0 0.23435h-0.23435v0.23434h0.23435zm0 0.23434v0.23434h0.23435v-0.23434zm0 0.23434h-0.23435v0.23436h0.23435zm0 0.23436v0.23433h0.23435v-0.23433zm-0.23435 0h-0.23433v0.23433h0.23433zm-0.23433 0.23433h-0.23436v0.23435h0.23436zm-0.23436 0v-0.23433h-0.23433v0.23433zm-0.23433 0h-0.23435v0.23435h0.23435zm-0.23435 0v-0.23433h-0.23435v0.23433z" fill="#eae372" opacity=".6"/><rect transform="matrix(.82646 0 0 .82646 65.771 89.8)" x="379.08" y="518.51" width="1.4061" height="1.8748" fill="url(#linearGradient4281-1)"/><rect transform="matrix(.82646 0 0 .82646 65.771 89.8)" x="377.21" y="518.51" width="1.4061" height="1.8748" fill="url(#linearGradient4324-6)"/></g><rect transform="rotate(90)" x="28.811" y="-21.714" width="14.205" height="5.2332" fill="url(#linearGradient4455-7)" stroke-width=".74759"/><rect transform="rotate(90)" x="29.54" y="-20.93" width="5.9809" height=".74759" fill="#f55" stroke-width=".74759"/><g transform="matrix(5.6058 0 0 5.6058 -2084 -2870.6)" fill="#35383b" stroke-width=".13336"><rect transform="rotate(90 -.45554 -.93276)" x="517.83" y="-376.61" width=".40008" height=".13336"/><rect transform="rotate(90 -.45554 -.93276)" x="518.36" y="-376.61" width=".53344" height=".13336"/><path transform="translate(-1.3883 -.47722)" d="m376.34 518.36h-0.13335v-0.13337h-0.13336v1.3336h0.13336v-0.13337h0.13335v-0.13336h-0.13335v-0.26672h0.13335v-0.13336h-0.13335v-0.13336h0.13335v-0.13336h-0.13335v-0.13337h0.13335z"/></g><path class="ColorScheme-Text" d="m26.75 45.052-3.6734 3.6735-0.92003-0.92014-8.3162 8.3162 0.92003 0.92008-2.4181 2.4182 0.6042 0.60442 2.4181-2.4182 0.92014 0.92008 8.3157-8.3162-0.92008-0.92003 3.6736-3.6736z" color="#232629" fill="currentColor" stroke-width="5.6058"/><g transform="matrix(.52435 -.52435 .31361 .31361 -3.5213 66.466)"><path class="ColorScheme-Text" d="m49.626 23.891-7.0548-1e-6v-2.8333h-7.9853v7.5278h7.9853v-2.8333h7.0548zm-17.702-2.8333-5.3236 1e-6 1e-6 2.8333-4.5009-1e-6v1.8612h4.5009v2.8333h5.3236z" color="#232629" fill="currentColor"/></g><style type="text/css">
        .ColorScheme-Text {
            color:#232629;
        }
    </style><g transform="matrix(.75129 0 0 .75129 17.669 -.97163)"><path d="M 16,11 A 14,14 0 0 0 2,25 14,14 0 0 0 16,39 14,14 0 0 0 23.992,36.477 14,14 0 0 0 32,39 14,14 0 0 0 46,25 14,14 0 0 0 32,11 14,14 0 0 0 24.008,13.523 14,14 0 0 0 16,11 Z" opacity=".2"/><path d="M 16,10 A 14,14 0 0 0 2,24 14,14 0 0 0 16,38 14,14 0 0 0 23.992,35.477 14,14 0 0 0 32,38 14,14 0 0 0 46,24 14,14 0 0 0 32,10 14,14 0 0 0 24.008,12.523 14,14 0 0 0 16,10 Z" fill="#19979d"/><path d="m16 10a14 14 0 0 0-14 14 14 14 0 0 0 0.0215 0.414 14 14 0 0 1 13.978-13.414 14 14 0 0 1 8.008 2.523 14 14 0 0 1 7.992-2.523 14 14 0 0 1 13.979 13.586 14 14 0 0 0 0.021-0.586 14 14 0 0 0-14-14 14 14 0 0 0-7.992 2.523 14 14 0 0 0-8.008-2.523z" fill="#fff" opacity=".2"/></g><path class="ColorScheme-Text" d="m27.548 12.615v4.176h-4.176v2.088h4.176v4.176h6.264v-2.088h-4.176v-6.264h4.176v-2.088h-4.176zm10.44 0v2.088h4.176v6.264h-4.176v2.088h6.264v-4.176h4.176v-2.088h-4.176v-4.176h-2.088zm-4.176 4.176v2.088h4.176v-2.088z" color="#232629" opacity=".2"/><path class="ColorScheme-Text" d="m27.348 12.015v4.176h-4.176v2.088h4.176v4.176h6.264v-2.088h-4.176v-6.264h4.176v-2.088h-4.176zm10.44 0v2.088h4.176v6.264h-4.176v2.088h6.264v-4.176h4.176v-2.088h-4.176v-4.176h-2.088zm-4.176 4.176v2.088h4.176v-2.088z" fill="#79ff88"/></svg>
