<?xml version="1.0" encoding="UTF-8"?>
<svg width="64" height="64" version="1.1" xmlns="http://www.w3.org/2000/svg" xmlns:cc="http://creativecommons.org/ns#" xmlns:dc="http://purl.org/dc/elements/1.1/" xmlns:rdf="http://www.w3.org/1999/02/22-rdf-syntax-ns#" xmlns:xlink="http://www.w3.org/1999/xlink">
 <metadata>
  <rdf:RDF>
   <cc:Work rdf:about="">
    <dc:format>image/svg+xml</dc:format>
    <dc:type rdf:resource="http://purl.org/dc/dcmitype/StillImage"/>
   </cc:Work>
  </rdf:RDF>
 </metadata>
 <defs>
  <style id="current-color-scheme" type="text/css">.ColorScheme-Text { color:#444444; } .ColorScheme-Highlight { color:#4285f4; }</style>
  <linearGradient id="linearGradient4227">
   <stop stop-color="#292c2f" offset="0"/>
   <stop stop-opacity="0" offset="1"/>
  </linearGradient>
  <linearGradient id="linearGradient4940-2" x1="-6" x2="24" y1="6" y2="36" gradientTransform="matrix(.17216 0 0 .17216 371.43 515.82)" gradientUnits="userSpaceOnUse" xlink:href="#linearGradient4227"/>
  <linearGradient id="linearGradient4936-1" x1="-6" x2="24" y1="6" y2="36" gradientTransform="matrix(.17216 0 0 .17216 371.43 514.79)" gradientUnits="userSpaceOnUse" xlink:href="#linearGradient4227"/>
  <linearGradient id="linearGradient4932" x1="-6" x2="24" y1="6" y2="36" gradientTransform="matrix(.17216 0 0 .17216 371.43 513.75)" gradientUnits="userSpaceOnUse" xlink:href="#linearGradient4227"/>
  <linearGradient id="linearGradient4922" x1="-6" x2="24" y1="6" y2="36" gradientTransform="matrix(.17216 0 0 .17216 371.43 512.72)" gradientUnits="userSpaceOnUse" xlink:href="#linearGradient4227"/>
  <linearGradient id="linearGradient4746" x2="0" y1="523.8" y2="516.8" gradientTransform="matrix(.17216 0 0 .17216 241.77 342.35)" gradientUnits="userSpaceOnUse">
   <stop stop-color="#e00a5e" offset="0"/>
   <stop stop-color="#f62870" offset="1"/>
  </linearGradient>
  <linearGradient id="linearGradient4824-8" x2="0" y1="523.8" y2="516.8" gradientTransform="matrix(.17216 0 0 .17216 241.77 344.42)" gradientUnits="userSpaceOnUse">
   <stop stop-color="#22a7f0" offset="0"/>
   <stop stop-color="#19b5fe" offset="1"/>
  </linearGradient>
  <linearGradient id="linearGradient4830-9" x2="0" y1="523.8" y2="516.8" gradientTransform="matrix(.17216 0 0 .17216 241.77 345.45)" gradientUnits="userSpaceOnUse">
   <stop stop-color="#26c281" offset="0"/>
   <stop stop-color="#3fc380" offset="1"/>
  </linearGradient>
  <style type="text/css">.ColorScheme-Text {
        color:#232629;
      }</style>
  <style type="text/css">.ColorScheme-Text {
        color:#232629;
      }
      .ColorScheme-NegativeText {
        color:#da4453;
      }</style>
  <style type="text/css">.ColorScheme-Text {
        color:#232629;
      }</style>
  <style type="text/css">.ColorScheme-Text {
        color:#232629;
      }</style>
  <linearGradient id="linearGradient1278" x1="31.763" x2="15.179" y1="56.973" y2="12.895" gradientTransform="matrix(.18842 0 0 .21266 371.34 510.53)" gradientUnits="userSpaceOnUse">
   <stop stop-color="#79ca88" offset="0"/>
   <stop stop-color="#126e72" offset="1"/>
  </linearGradient>
  <linearGradient id="linearGradient1280" x2="0" y1="523.8" y2="516.8" gradientTransform="matrix(.17216 0 0 .17216 241.77 343.39)" gradientUnits="userSpaceOnUse">
   <stop stop-color="#f9b425" offset="0"/>
   <stop stop-color="#f9bf3b" offset="1"/>
  </linearGradient>
  <linearGradient id="linearGradient912" x1="364.13" x2="364.13" y1="516.63" y2="527.06" gradientUnits="userSpaceOnUse">
   <stop stop-color="#e7b037" offset="0"/>
   <stop stop-color="#e00a5e" offset="1"/>
  </linearGradient>
 </defs>
 <g transform="translate(-385.28 -479.18)">
  <g transform="matrix(1.5588 0 0 1.5588 -221.99 -299.83)">
   <g transform="matrix(2.8556 0 0 2.8556 -668.51 -959.57)">
    <g transform="matrix(1.0785 0 0 1.0785 -29.189 -40.473)">
     <g transform="translate(-.16542 .32176)">
      <g transform="matrix(1.3252 0 0 1.3252 -122.58 -167.32)">
       <path transform="matrix(.88116 0 0 .88116 44.736 60.503)" d="m372.47 513.75v8.4546h0.65603v-1.0362h9.5185v-6.3799h-9.533l9e-3 -0.61316 1e-3 -0.42533z" fill="url(#linearGradient1278)" stroke-width=".20017"/>
       <g fill-rule="evenodd" stroke-width=".17216">
        <path transform="matrix(.88116 0 0 .88116 44.736 60.503)" d="m374.02 519.61-0.86079 0.68863 1.033 1.0329h1.0329v0.68863h1.2051z" fill="url(#linearGradient4940-2)" opacity=".2"/>
        <path transform="matrix(.88116 0 0 .88116 44.736 60.503)" d="m374.02 518.57-0.86079 0.68863 2.7545 2.7545h1.5494z" fill="url(#linearGradient4936-1)" opacity=".2"/>
        <path transform="matrix(.88116 0 0 .88116 44.736 60.503)" d="m374.02 517.54-0.86079 0.68864 3.7875 3.7875h1.5494z" fill="url(#linearGradient4932)" opacity=".2"/>
        <path transform="matrix(.88116 0 0 .88116 44.736 60.503)" d="m374.02 516.51-0.86079 0.68863 4.8204 4.8204h1.5494z" fill="url(#linearGradient4922)" opacity=".2"/>
       </g>
       <path transform="matrix(.88116 0 0 .88116 44.736 60.503)" d="m373.84 520.81v0.17216h0.17216v-0.17216zm0.17216 0.17216v0.17216h0.17216v-0.17216zm0.17216 0h0.17216v-0.17216h-0.17216zm0.17216 0v0.17216h0.17215v-0.17216zm0.17215 0h0.17216v-0.17216h-0.17216zm-0.68863 0h-0.17215v0.17216h0.17215z" color="#000000" stroke-width=".17216"/>
       <rect transform="matrix(.88116 0 0 .88116 44.736 60.503)" x="372.49" y="513.74" width=".65119" height="8.4654" fill="#afc0c6" stroke-width=".18114"/>
       <rect transform="matrix(.88116 0 0 .88116 44.736 60.503)" x="372.47" y="513.74" width=".16314" height="8.4646" fill="#96aab5" stroke-width=".18132"/>
       <g stroke-width=".17216">
        <path transform="matrix(.88116 0 0 .88116 44.736 60.503)" d="m372.47 516.51c-0.0954 0-0.17216 0.0768-0.17216 0.17216v0.34431c0 0.0954 0.0768 0.17216 0.17216 0.17216h0.17216v-0.68863z" fill="#afc0c6"/>
        <path transform="matrix(.88116 0 0 .88116 44.736 60.503)" d="m373.16 516.51v0.68863h0.67149c6e-3 0 0.0112-3e-3 0.0171-3e-3v3e-3h0.17216v-0.68863h-0.17216v3e-3c-6e-3 -6.9e-4 -0.011-3e-3 -0.0171-3e-3z" fill="url(#linearGradient4746)"/>
        <path transform="matrix(.88116 0 0 .88116 44.736 60.503)" d="m372.47 517.54c-0.0954 0-0.17216 0.0768-0.17216 0.17216v0.34432c0 0.0954 0.0768 0.17216 0.17216 0.17216h0.17216v-0.68864z" fill="#afc0c6"/>
        <path transform="matrix(.88116 0 0 .88116 44.736 60.503)" d="m373.16 517.54v0.68864h0.67149c6e-3 0 0.0112-3e-3 0.0171-3e-3v3e-3h0.17216v-0.68864h-0.17216v3e-3c-6e-3 -6.9e-4 -0.011-3e-3 -0.0171-3e-3z" fill="url(#linearGradient1280)"/>
        <path transform="matrix(.88116 0 0 .88116 44.736 60.503)" d="m372.47 518.57c-0.0954 0-0.17216 0.0768-0.17216 0.17216v0.34431c0 0.0954 0.0768 0.17216 0.17216 0.17216h0.17216v-0.68863z" fill="#afc0c6"/>
        <path transform="matrix(.88116 0 0 .88116 44.736 60.503)" d="m373.16 518.57v0.68863h0.67149c6e-3 0 0.0112-3e-3 0.0171-3e-3v3e-3h0.17216v-0.68863h-0.17216v3e-3c-6e-3 -6.9e-4 -0.011-3e-3 -0.0171-3e-3z" fill="url(#linearGradient4824-8)"/>
        <path transform="matrix(.88116 0 0 .88116 44.736 60.503)" d="m372.47 519.61c-0.0954 0-0.17216 0.0768-0.17216 0.17215v0.34432c0 0.0954 0.0768 0.17216 0.17216 0.17216h0.17216v-0.68863z" fill="#afc0c6"/>
        <path transform="matrix(.88116 0 0 .88116 44.736 60.503)" d="m373.16 519.61v0.68863h0.67149c6e-3 0 0.0112-3e-3 0.0171-3e-3v3e-3h0.17216v-0.68863h-0.17216v3e-3c-6e-3 -6.8e-4 -0.011-3e-3 -0.0171-3e-3z" fill="url(#linearGradient4830-9)"/>
        <rect transform="matrix(.88116 0 0 .88116 44.736 60.503)" x="373.16" y="520.12" width=".86079" height=".17216" opacity=".09"/>
        <rect transform="matrix(.88116 0 0 .88116 44.736 60.503)" x="373.16" y="519.09" width=".86079" height=".17216" opacity=".09"/>
        <rect transform="matrix(.88116 0 0 .88116 44.736 60.503)" x="373.16" y="518.06" width=".86079" height=".17216" opacity=".09"/>
        <rect transform="matrix(.88116 0 0 .88116 44.736 60.503)" x="373.16" y="517.02" width=".86079" height=".17216" opacity=".09"/>
       </g>
       <g transform="matrix(.61547 0 0 .61547 152.03 198.6)">
        <path class="ColorScheme-Text" d="m364.02 515c-1.1504 2e-5 -2.083 0.93261-2.083 2.083-1e-5 1.1504 0.93259 2.0831 2.083 2.0831 1.1505 1e-5 2.0831-0.93262 2.0831-2.0831-2e-5 -1.1504-0.93264-2.083-2.0831-2.083zm0 4.9993c-1.6106 1e-5 -2.9163 1.4922-2.9163 3.3329h5.8326c1e-5 -1.8407-1.3057-3.333-2.9163-3.3329zm0 0.83324c0.8817 1e-3 1.6671 0.66891 1.961 1.6664h-3.922c0.2939-0.99751 1.0793-1.665 1.961-1.6664z" color="#232629" fill="url(#linearGradient912)"/>
        <g transform="matrix(1.7615 0 0 1.7615 -270.17 -383.89)">
         <g fill="currentColor">
          <path class="ColorScheme-Text" d="m362.99 509.17c-0.25285 0-0.46223 0.1783-0.51019 0.41661h-1.2604v0.20831h1.2604c0.048 0.23832 0.25734 0.41661 0.51019 0.41661 0.25286 0 0.46224-0.17829 0.51019-0.41661h1.0521v-0.20831h-1.0521c-0.048-0.23831-0.25733-0.41661-0.51019-0.41661z" color="#232629"/>
          <path class="ColorScheme-Text" d="m361.74 511.46c-0.2885 0-0.52076 0.23226-0.52076 0.52077 0 0.2885 0.23226 0.52076 0.52076 0.52076 0.25286 0 0.46224-0.17829 0.51019-0.41661h2.302v-0.20831h-2.302c-0.048-0.23831-0.25733-0.41661-0.51019-0.41661zm0 0.20831c0.17311 0 0.31246 0.13935 0.31246 0.31246 0 0.1731-0.13935 0.31246-0.31246 0.31246-0.1731 0-0.31245-0.13936-0.31245-0.31246 0-0.17311 0.13935-0.31246 0.31245-0.31246z" color="#232629"/>
          <path d="m363.66 510.32c-0.25271 0-0.46209 0.17849-0.51019 0.41661h-1.928v0.20831h1.928c0.048 0.23831 0.25734 0.41661 0.51019 0.41661 0.25286 0 0.46224-0.17829 0.51019-0.41661h0.38447v-0.20831h-0.38447c-0.048-0.23831-0.25733-0.41661-0.51019-0.41661zm0 0.20831c0.17311 0 0.31246 0.13935 0.31246 0.31246 0 0.1731-0.13935 0.31246-0.31246 0.31246-0.1731 0-0.31246-0.13936-0.31246-0.31246 0-0.17311 0.13936-0.31246 0.31246-0.31246z" color="#232629"/>
         </g>
         <ellipse cx="363.66" cy="510.83" rx=".4204" ry=".42569" fill="none" stroke="#0b2228" stroke-linejoin="bevel" stroke-width=".061484" style="paint-order:normal"/>
         <g transform="matrix(.074198 0 0 .074198 360.94 511.81)">
          <g transform="matrix(.75129 0 0 .75129 17.669 -.97163)">
           <path d="M 16,11 A 14,14 0 0 0 2,25 14,14 0 0 0 16,39 14,14 0 0 0 23.992,36.477 14,14 0 0 0 32,39 14,14 0 0 0 46,25 14,14 0 0 0 32,11 14,14 0 0 0 24.008,13.523 14,14 0 0 0 16,11 Z" opacity=".2"/>
           <path d="M 16,10 A 14,14 0 0 0 2,24 14,14 0 0 0 16,38 14,14 0 0 0 23.992,35.477 14,14 0 0 0 32,38 14,14 0 0 0 46,24 14,14 0 0 0 32,10 14,14 0 0 0 24.008,12.523 14,14 0 0 0 16,10 Z" fill="#19979d"/>
           <path d="m16 10a14 14 0 0 0-14 14 14 14 0 0 0 0.0215 0.414 14 14 0 0 1 13.978-13.414 14 14 0 0 1 8.008 2.523 14 14 0 0 1 7.992-2.523 14 14 0 0 1 13.979 13.586 14 14 0 0 0 0.021-0.586 14 14 0 0 0-14-14 14 14 0 0 0-7.992 2.523 14 14 0 0 0-8.008-2.523z" fill="#fff" opacity=".2"/>
          </g>
          <path class="ColorScheme-Text" d="m27.548 12.615v4.176h-4.176v2.088h4.176v4.176h6.264v-2.088h-4.176v-6.264h4.176v-2.088h-4.176zm10.44 0v2.088h4.176v6.264h-4.176v2.088h6.264v-4.176h4.176v-2.088h-4.176v-4.176h-2.088zm-4.176 4.176v2.088h4.176v-2.088z" color="#232629" opacity=".2"/>
          <path class="ColorScheme-Text" d="m27.348 12.015v4.176h-4.176v2.088h4.176v4.176h6.264v-2.088h-4.176v-6.264h4.176v-2.088h-4.176zm10.44 0v2.088h4.176v6.264h-4.176v2.088h6.264v-4.176h4.176v-2.088h-4.176v-4.176h-2.088zm-4.176 4.176v2.088h4.176v-2.088z" color="#232629" fill="#79ff88"/>
         </g>
        </g>
       </g>
      </g>
     </g>
    </g>
   </g>
  </g>
 </g>
</svg>
