<?xml version="1.0" encoding="UTF-8"?>
<svg width="16" height="16" version="1.1" viewBox="0 0 16 16" xml:space="preserve" xmlns="http://www.w3.org/2000/svg"><defs><style id="current-color-scheme" type="text/css">
      .ColorScheme-Text {
        color:#232629;
      }
      </style></defs><g transform="translate(-433.01,-529.15)"><g transform="matrix(.60392 0 0 .60392 172.86 212.26)" color="#000000" color-rendering="auto" image-rendering="auto" shape-rendering="auto" text-rendering="auto"><g transform="translate(-.42457 .50903)" fill="#f2f2f2" stroke-width=".88233"><path class="ColorScheme-Text" transform="matrix(1.6558 0 0 1.6558 430.77 524.72)" d="m8.2564 0.634c-0.59576 0.00353-1.1887 0.082052-1.7647 0.23436v0.92195c-0.40251 0.12035-0.7917 0.28145-1.1615 0.4808l-0.65313-0.65313c-1.0297 0.60709-1.8883 1.4657-2.4953 2.4953l0.65313 0.65313c-0.19994 0.36974-0.36163 0.75893-0.48253 1.1615h-0.92539c-0.15054 0.5762-0.22755 1.1691-0.2292 1.7647 0.00353 0.59576 0.082061 1.1887 0.23436 1.7647h0.92194c0.12035 0.40251 0.28145 0.7917 0.4808 1.1615l-0.65313 0.65314c0.60709 1.0297 1.4657 1.8883 2.4953 2.4953l0.65313-0.65313c0.36974 0.19994 0.75893 0.36162 1.1615 0.48253v0.92539c0.5762 0.15054 1.1691 0.22755 1.7647 0.2292 0.59554-0.0017 1.1885-0.07866 1.7647-0.2292v-0.92539c0.40258-0.1209 0.79177-0.28257 1.1615-0.48253l0.65314 0.65313c1.0297-0.60709 1.8883-1.4657 2.4953-2.4953l-0.65313-0.65314c0.19935-0.36981 0.36046-0.75899 0.4808-1.1615h0.92194c0.15232-0.57598 0.23084-1.1689 0.23436-1.7647-0.001676-0.59553-0.078659-1.1885-0.2292-1.7647h-0.92539c-0.1209-0.40258-0.28258-0.79177-0.48253-1.1615l0.65314-0.65313c-0.60709-1.0297-1.4657-1.8883-2.4953-2.4953l-0.64624 0.64624-0.0069 0.00689c-0.3698-0.19935-0.75899-0.36045-1.1615-0.4808v-0.92195c-0.57598-0.15232-1.1689-0.23083-1.7647-0.23436zm0 0.88233c0.2955 0.00106 0.59077 0.024151 0.88233 0.067209v0.89098c0.78577 0.13472 1.5309 0.44517 2.18 0.90818l0.63073-0.63073 0.0018-0.00172c0.47411 0.35352 0.89459 0.77275 1.2494 1.2459l-0.0034 0.00345-0.629 0.629c0.46137 0.64997 0.77004 1.3958 0.90298 2.1816h0.89609c0.04262 0.2921 0.06504 0.58635 0.06549 0.88233-0.0011 0.2955-0.02415 0.59076-0.06721 0.88233h-0.89098c-0.13472 0.78577-0.44517 1.5309-0.90818 2.18l0.63249 0.63249c-0.35352 0.47411-0.77275 0.89468-1.2459 1.2494l-0.63244-0.63244c-0.65002 0.46137-1.3958 0.77004-2.1817 0.90298v0.89609c-0.29218 0.04262-0.58643 0.06504-0.88241 0.06549-0.29598-4.42e-4 -0.59022-0.02287-0.88233-0.06549v-0.89609c-0.78594-0.13291-1.5317-0.4416-2.1817-0.90298l-0.629 0.629-0.00345 0.0034c-0.47319-0.3547-0.89239-0.77523-1.2459-1.2493l0.00172-0.0018 0.63073-0.63073c-0.463-0.64893-0.77346-1.3941-0.90818-2.1799h-0.89098c-0.043058-0.29157-0.06615-0.58683-0.067209-0.88233 4.411e-4 -0.29598 0.022869-0.59022 0.065486-0.88233h0.89609c0.13291-0.78594 0.4416-1.5317 0.90298-2.1817l-0.63245-0.63245c0.35476-0.47319 0.77528-0.89239 1.2494-1.2459l0.63244 0.63244c0.64901-0.463 1.3942-0.77346 2.18-0.90818v-0.89098c0.29156-0.043058 0.58683-0.06615 0.88233-0.067209z"/><path d="m439.15 532.6v9.7056h10.588v-9.7056zm0.88233 1.7647h8.8233v7.0586h-8.8233zm3.5293 0.88233v3.5293h1.7647v-3.5293zm0 4.4116v0.88233h1.7647v-0.88233z"/></g></g></g></svg>
