<?xml version="1.0" encoding="UTF-8"?>
<svg width="64" height="64" version="1.1" viewBox="0 0 64 64" xml:space="preserve" xmlns="http://www.w3.org/2000/svg" xmlns:cc="http://creativecommons.org/ns#" xmlns:dc="http://purl.org/dc/elements/1.1/" xmlns:rdf="http://www.w3.org/1999/02/22-rdf-syntax-ns#" xmlns:xlink="http://www.w3.org/1999/xlink"><metadata><rdf:RDF><cc:Work rdf:about=""><dc:format>image/svg+xml</dc:format><dc:type rdf:resource="http://purl.org/dc/dcmitype/StillImage"/></cc:Work></rdf:RDF></metadata><defs><style id="current-color-scheme" type="text/css">.ColorScheme-Text {
        color:#4d4d4d;
      }
      .ColorScheme-Background {
        color:#eff0f1;
      }
      .ColorScheme-Highlight {
        color:#3daee9;
      }
      .ColorScheme-ViewText {
        color:#31363b;
      }
      .ColorScheme-ViewBackground {
        color:#fcfcfc;
      }
      .ColorScheme-ViewHover {
        color:#93cee9;
      }
      .ColorScheme-ViewFocus{
        color:#3daee9;
      }
      .ColorScheme-ButtonText {
        color:#31363b;
      }
      .ColorScheme-ButtonBackground {
        color:#eff0f1;
      }
      .ColorScheme-ButtonHover {
        color:#93cee9;
      }
      .ColorScheme-ButtonFocus{
        color:#3daee9;
      }</style></defs><g transform="matrix(.95254 0 0 .95062 .86494 2.2211)"><path d="m38.304 61.051c1.1001-0.17831 1.6998-0.35802 2.4477-0.73345 1.3867-0.69609 2.4257-2.1027 2.5047-3.3909 0.03254-0.53138 0.0068-0.6759-0.27819-1.5525-0.30753-0.94643-0.88398-2.3341-1.5197-3.6583-0.17529-0.36512-0.30369-0.67959-0.28532-0.69882 0.05332-0.05586 0.60165 0.62921 1.125 1.4055 0.70317 1.043 1.2134 2.0906 1.5864 3.2575l0.32884 1.0286 0.56798 0.24765c1.1178 0.4874 1.8894 0.64704 3.3107 0.68498 1.199 0.03203 1.3434 0.02 2.048-0.17013 1.3557-0.36584 2.375-0.98345 3.306-2.0031 0.66163-0.72464 0.94644-1.1771 1.3422-2.1322 0.44261-1.0681 0.6512-1.4265 1.1518-1.9787 0.54663-0.60307 1.0895-1.0026 2.3954-1.7629 2.2614-1.3166 3.0065-2.0199 3.6052-3.4029 0.41754-0.96446 0.48922-1.3936 0.48614-2.911-0.0034-1.5605-0.11536-2.2682-0.60254-3.7998-0.42651-1.3409-1.2147-2.9174-1.7656-3.5314-0.22246-0.24792-0.56711-0.29043-0.82438-0.10169-0.24933 0.18291-0.59304 0.79832-1.0005 1.7914-0.87785 2.1394-2.6232 6.0723-2.5564 5.7606 0.01866-0.08742 0.23863-1.0887 0.48872-2.2252 0.55706-2.5313 0.6459-3.2048 0.59222-4.4901-0.08567-2.0512-0.6139-3.6782-1.9637-6.0485-0.91304-1.6033-1.6454-2.3944-2.6811-2.8961-0.86813-0.42053-1.6319-0.60753-2.5336-0.6203l-0.79611-0.01129-0.09894 0.35386c-0.05442 0.19461-0.15435 0.74892-0.22205 1.2318-0.17648 1.2585-0.11651 2.1898 0.23309 3.6197 0.34678 1.4183 0.4089 2.1115 0.24288 2.7097-0.1122 0.40426-0.58829 1.1195-0.68192 1.0246-0.02202-0.02232 0.01381-0.34416 0.07962-0.71524 0.16938-0.95555 0.14218-1.2832-0.2441-2.9396-0.18858-0.80861-0.36331-1.7563-0.38829-2.106-0.07397-1.0348 0.12499-2.4761 0.66359-4.807 0.25888-1.1204 0.24984-1.4377-0.06064-2.1266-0.35123-0.77926-1.3658-1.7153-2.5129-2.3187-1.4676-0.77182-3.5935-1.1493-4.7708-0.84709-1.6338 0.41934-2.6843 1.5513-4.5594 4.9133-1.58 2.8328-2.5241 6.5159-2.4296 9.4775 0.03548 1.1111 0.03076 1.1678-0.06928 0.83444-0.44757-1.4909-0.51964-2.6923-0.25958-4.3265 0.35667-2.2412 0.83954-3.7721 1.8438-5.8457 0.91926-1.8982 1.0731-2.386 1.0345-3.2794-0.06768-1.5669-0.90527-2.4106-3.1297-3.1529-3.3855-1.1297-7.3944-0.16934-8.4162 2.0161-0.37836 0.80928-0.43106 1.2414-0.50952 4.1777-0.11415 4.2712-0.17651 5.1658-0.41546 5.9603-0.31697 1.0538-0.68592 1.7299-1.0907 1.9988-0.18749 0.12453-0.41934 0.22642-0.51523 0.22642-0.16939 0-0.16703-0.01003 0.0832-0.35336 0.62856-0.86246 0.95294-2.7821 1.0712-6.3394l0.04683-1.408-0.34086-0.38168c-1.164-1.3033-3.8003-2.02-5.6288-1.5302-1.0715 0.28702-2.0071 1.0986-2.5778 2.2359-0.8153 1.625-0.95576 3.1876-0.60971 6.7833 0.1626 1.6894 0.17089 1.9277 0.07266 2.0861-0.13129 0.21166-0.14464 0.21265-0.82827 0.06101-0.29212-0.06484-0.79372-0.11844-1.1147-0.1192-0.32096-6.6e-4 -0.60195-0.03256-0.62445-0.07067-0.02249-0.0381 0.10355-0.12432 0.28008-0.1916 0.27959-0.10653 0.50707-0.16506 1.3266-0.3413 0.16611-0.03571 0.16972-0.05685 0.12528-0.73055-0.03938-0.59689-0.07121-0.71822-0.22809-0.86887-0.36522-0.35078-1.3943-0.46126-1.9158-0.20565-0.44361 0.21745-1.0959 0.95524-1.3632 1.542-0.38618 0.84748-0.49312 1.4136-0.44854 2.3742 0.04676 1.0077 0.22564 1.5907 1.0609 3.4579 1.5515 3.4685 1.836 5.187 1.1103 6.7078-0.12444 0.26085-0.34347 0.58204-0.48668 0.71374-0.2445 0.22483-0.74757 0.4027-0.84636 0.29924-0.02447-0.02562 0.06228-0.17396 0.19277-0.32963 1.1233-1.34 0.92853-3.3303-0.66928-6.8384l-0.50833-1.1161-0.60098-0.09693c-1.335-0.21532-2.507-0.82764-3.2575-1.7019-0.41931-0.48846-0.62674-0.88647-0.79845-1.5319l-0.12684-0.47682-0.50073 0.81062c-0.96108 1.5559-1.562 2.8224-1.8401 3.8781-0.069071 0.26225-0.1429 0.87019-0.16405 1.351-0.035003 0.7959-0.020437 0.93026 0.16263 1.5006 0.32832 1.0228 1.0083 1.9921 1.9484 2.7772 0.19208 0.16043 0.37989 0.29005 0.41732 0.28802 0.037392-0.0019 0.17049-0.14021 0.2957-0.30707 0.12519-0.16686 0.43384-0.47317 0.6859-0.68067 0.45775-0.37688 1.3248-0.94735 1.3248-0.87165 0 0.02206-0.18298 0.26596-0.40663 0.54207-0.99555 1.2291-1.3326 1.946-1.3954 2.9685-0.12423 2.0208 1.2709 4.1362 3.1146 4.7228 0.43394 0.13804 0.65879 0.15992 1.331 0.12954 1.3922-0.06292 2.1422-0.48378 3.709-2.0815 0.59589-0.60769 1.0835-1.0829 1.0835-1.056 0 0.02688-0.07319 0.25377-0.16263 0.50415-0.2135 0.59764-0.56903 1.22-1.0573 1.8507l-0.39627 0.51187 0.23785 0.75964c0.56601 1.8077 1.5213 2.8448 3.1362 3.4045 1.0147 0.35173 1.8361 0.44637 3.3259 0.38323 1.6021-0.06791 2.5522-0.2071 2.5151-0.36845-0.16275-0.70878-0.03575-2.8078 0.2283-3.7722l0.08702-0.31788 0.059 0.2384c0.03248 0.13114 0.11255 0.90113 0.17804 1.7111 0.06549 0.80998 0.17142 1.6832 0.23542 1.9405 0.29816 1.1989 1.1741 2.2859 2.356 2.9237 1.0442 0.56348 1.9665 0.79657 3.1933 0.80693 0.54942 0.0046 1.0177-0.01116 1.0407-0.03513s-0.04443-0.26709-0.14979-0.54024c-0.32869-0.8523-0.41348-1.5084-0.44831-3.4692-0.03678-2.0706-0.0659-2.0982 0.46101 0.43708 0.34073 1.6395 0.64707 2.622 0.9845 3.1579 0.63253 1.0043 2.1278 1.8442 3.9372 2.2116 0.65468 0.1329 2.8527 0.09001 3.8745-0.0756zm-12.206-6.9456c-0.6887-1.1426-1.0423-3.2912-0.81259-4.9369 0.05059-0.36224 0.07621-0.67512 0.05695-0.69528-0.09983-0.10458-1.3384-0.36032-2.1302-0.43986-1.966-0.19749-3.134 0.15674-4.7635 1.4446l-0.25003 0.1976 0.18598-0.27707c0.10227-0.1524 0.43739-0.57455 0.74467-0.93812 0.86203-1.02 1.1053-1.7164 0.92841-2.658-0.11554-0.61501-0.37658-1.1606-0.73489-1.5359-0.32684-0.34232-1.1535-0.76951-1.8471-0.95457-0.63069-0.16827-1.7288-0.10986-2.4173 0.12861-0.2653 0.09189-0.4964 0.15239-0.51354 0.13444-0.04642-0.0486 0.54709-0.46516 0.98602-0.69201 0.29011-0.14992 0.39987-0.25719 0.44733-0.43709 0.09362-0.35491 0.0098-0.95074-0.20228-1.4356-0.18336-0.41948-0.89026-1.2471-1.3733-1.6078l-0.22763-0.17001 0.23448-0.0026c0.32076-0.0033 1.0496 0.39374 1.5249 0.83107 0.53089 0.4884 0.7949 1.0636 0.84215 1.8348l0.03616 0.5899h0.27959c1.4241 0 2.881 0.94208 3.5 2.2632 0.24284 0.51824 0.25948 0.60424 0.25382 1.3113-0.0041 0.50328-0.04874 0.87388-0.1336 1.1068-0.07014 0.19258-0.11719 0.36099-0.10452 0.37425 0.01258 0.01327 0.22642-0.03592 0.47503-0.10931 0.7194-0.2123 2.967-0.18618 3.8535 0.04483 0.36846 0.096 0.6836 0.17454 0.70033 0.17454 0.01668 0 0.10354-0.15199 0.19294-0.33775 0.49457-1.0277 1.3522-1.9318 2.3572-2.4849l0.5253-0.28911-0.53421-0.39293c-1.2989-0.95537-2.3179-2.867-2.707-5.0781-0.09874-0.561-0.13293-1.1735-0.13311-2.3841 0-1.9963 0.16299-3.3888 0.75184-6.4119 0.64505-3.3116 0.88215-4.0867 1.4054-4.5948 0.24459-0.2375 0.24533-0.23764 0.19338-0.03975-0.18607 0.70881-0.98386 4.3819-1.1737 5.404-0.44262 2.3826-0.50045 2.9803-0.49976 5.1656 0 2.2751 0.08831 2.9164 0.60543 4.4327 0.39561 1.16 1.2762 2.4149 2.0669 2.9455 0.44658 0.29968 1.5076 0.67475 2.4082 0.85133 0.74158 0.1454 2.4044 0.12411 2.922-0.03744 0.16404-0.05117 0.45542-0.28476 0.75877-0.60827 0.82741-0.88236 1.4156-1.2337 3.0723-1.835 0.29214-0.10603 0.92381-0.26364 1.4037-0.35022 1.463-0.26396 2.1483-0.70221 2.6102-1.6693 0.60551-1.2677 0.63181-2.3131 0.12493-4.9687-0.16766-0.87833-0.33587-1.9714-0.37381-2.429-0.07543-0.90992 0.0014-2.0457 0.16627-2.4678 0.09706-0.24802 0.1049-0.21546 0.15522 0.64591 0.10026 1.716 0.42111 3.6499 0.88453 5.3313 0.53706 1.9485 0.29896 3.6948-0.67921 4.9815l-0.303 0.39858 0.74842 0.095c1.962 0.24905 3.1427 0.8145 3.9046 1.8699l0.21947 0.30404 0.57724-0.05374c1.3055-0.12155 2.1291-0.49982 2.9355-1.3481 0.94528-0.9944 1.4334-2.1029 1.8061-4.1015 0.11005-0.59006 0.24483-1.5378 0.29952-2.106l0.09942-1.0331 0.10471 0.35761c0.06919 0.23628 0.10201 0.72162 0.09675 1.4305-0.02509 3.3789-1.2775 6.1088-3.2499 7.0839-0.42756 0.21137-1.282 0.46613-1.959 0.58408-0.25182 0.04385-0.28727 0.07508-0.25517 0.22461 0.02052 0.09551 0.09501 0.44186 0.16559 0.76967 0.09698 0.4505 0.14466 1.2558 0.19525 3.298 0.06563 2.647 0.14674 3.4842 0.38242 3.9454 0.04519 0.0885 0.06788 0.17595 0.05031 0.19434-0.06002 0.06285-0.27107-0.24561-0.57594-0.84174-0.37548-0.7342-0.43549-1.1504-0.54242-3.7621-0.10484-2.5604-0.29201-3.4596-0.90764-4.36-0.55908-0.81771-1.419-1.2637-2.9556-1.5329-1.0886-0.19068-3.3209-0.1339-4.2309 0.10762-1.5533 0.41222-2.4136 0.85847-3.2398 1.6804-1.154 1.1481-1.6717 2.6866-1.385 4.1156 0.20733 1.0331 1.2084 2.8554 2.432 4.427 0.77057 0.98979 0.80298 1.0419 0.56468 0.90861-0.09893-0.05536-0.69338-0.64007-1.321-1.2993-0.91235-0.95839-1.2345-1.358-1.607-1.9934-0.4933-0.84145-0.8107-1.7021-0.89431-2.4251-0.06193-0.53576 0.05968-1.5095 0.26504-2.1214 0.08391-0.25007 0.15258-0.45591 0.15258-0.45743 0-0.0014-0.52071-0.0059-1.1571-0.01036-0.77804-0.0053-1.339-0.05072-1.7122-0.13908-0.80844-0.19146-1.1955-0.16925-1.8307 0.10508-1.5699 0.67802-2.3319 1.5305-2.8058 3.1388-0.0995 0.33771-0.18034 0.88082-0.20703 1.3907-0.05093 0.97368 0.08285 3.2286 0.23583 3.9749 0.05818 0.2837 0.09364 0.52846 0.07887 0.54394-0.01484 0.01545-0.11254-0.11401-0.21724-0.28772zm27.029-6.0129c-0.27729-0.06062-0.74237-0.21506-1.0335-0.34318-0.5049-0.22219-1.8389-0.95215-1.8389-1.0063 0-0.01413 0.39435 0.09332 0.87635 0.2388 1.6188 0.48862 2.8347 0.54654 4.0427 0.19257 1.4637-0.42889 2.4807-1.2506 4.1314-3.3377 0.50124-0.63378 0.94401-1.1881 0.98393-1.2318 0.15167-0.16608-0.96164 2.0907-1.2805 2.5957-0.8558 1.3553-2.0594 2.337-3.3814 2.7579-0.67538 0.21502-1.8433 0.27762-2.5001 0.13401zm-32.58-6.7962c-1.6853-1.3216-2.8169-2.6598-3.4549-4.0858-0.44156-0.98688-0.55009-1.5711-0.50369-2.7115 0.0456-1.1212 0.19608-1.7071 0.83915-3.2671 0.36694-0.8902 0.51619-1.3953 0.78398-2.6534 0.04034-0.18937 0.04881-0.18379 0.18242 0.1192 0.25111 0.56959 0.19692 1.3528-0.16764 2.4238-0.82365 2.4197-0.98257 3.5247-0.68569 4.7682 0.40768 1.7076 1.5826 3.3865 3.6375 5.1979 0.34248 0.30186 0.62265 0.58974 0.62265 0.63974 0 0.1147-0.15622 0.28162-0.26357 0.28162-0.04478 0-0.4904-0.32068-0.99021-0.71262zm42.229-4.0662c0.50486-1.8658 0.11444-3.5281-1.0725-4.5668l-0.31153-0.27261-0.29046 0.27483c-0.46702 0.4419-1.0516 0.47403-2.1206 0.11652l-0.56908-0.19032 0.98307-0.02239c1.1507-0.02622 1.2047-0.05533 1.3372-0.72163 0.10884-0.54712 0.04027-1.8852-0.12684-2.4745-0.13306-0.46929-0.59337-1.0454-1.0139-1.2692-0.4302-0.22884-1.5031-0.55876-1.817-0.55876-0.26352 0-0.30831 0.0338-0.52197 0.39378-0.28403 0.47855-0.72801 0.7832-1.5859 1.0883-0.34711 0.12343-0.6311 0.24984-0.6311 0.28092 0 0.0311 0.19924 0.38917 0.44275 0.79576 0.24352 0.40659 0.57367 0.98959 0.7337 1.2956 0.16002 0.30596 0.29712 0.56584 0.30466 0.57752 0.0076 0.01169 0.21318-0.10455 0.45692-0.25828 0.24375-0.15373 0.48508-0.2795 0.53628-0.2795 0.05121 0 0.15243-0.02384 0.22494-0.05301 0.0748-0.03004-0.03712 0.17792-0.25891 0.48095-0.2149 0.29367-0.41163 0.62113-0.43718 0.72771-0.06768 0.28251-0.0055 0.69941 0.22522 1.5037 0.11228 0.39177 0.2406 1.0534 0.28518 1.4702 0.13209 1.2355 0.11094 1.2001 0.40843 0.68273 0.56106-0.97588 0.95098-1.3429 1.5296-1.4398 0.82811-0.1387 1.7414 0.87543 2.5682 2.8519l0.29333 0.70118 0.13458-0.27473c0.074-0.1511 0.20584-0.53816 0.29298-0.86012zm-53.53 0.26892c-0.29927-0.81191-0.37385-2.3625-0.15957-3.3179 0.30886-1.3771 1.1828-2.6498 2.1432-3.1211 0.38844-0.19062 0.53269-0.21665 1.2003-0.21665 0.41732 0 0.86121 0.02773 0.9864 0.06167l0.22763 0.06167-0.02427-1.3729c-0.04615-2.6135 0.32564-4.2002 1.2882-5.4976l0.35637-0.4803-0.34544-0.13734c-0.41565-0.16526-0.90491-0.50901-0.96748-0.67976-0.02495-0.06814-0.03603-0.13136-0.02461-0.14052 0.01135-0.0092 0.48606 0.05533 1.0548 0.14324l1.034 0.15986 0.50985-0.29351c0.28041-0.16143 0.71995-0.34541 0.97674-0.40884 0.59479-0.14691 2.3474-0.14989 2.9918-0.0053 0.45714 0.1027 0.48071 0.1003 0.58805-0.06022 0.3138-0.46923-0.05592-0.96624-0.87882-1.1814-0.26894-0.07031-0.77919-0.20371-1.1339-0.29644-0.35473-0.09274-1.0457-0.36798-1.5356-0.61165-0.72111-0.35874-1.046-0.47123-1.7072-0.5912-1.9249-0.34924-3.0488-0.10886-4.019 0.85954-0.59756 0.59647-1.0004 1.3326-1.4647 2.6767-0.77933 2.2558-1.0863 2.6324-2.9141 3.575-1.3159 0.6786-1.78 1.0704-2.135 1.8023-0.30374 0.62621-0.41148 1.1332-0.4122 1.9399-0.00137 0.59776 0.17901 2.0827 0.26241 2.1701 0.013465 0.01407 0.11522-0.1824 0.22624-0.43652 0.11101-0.25413 0.44744-0.90347 0.74759-1.443 0.3984-0.71609 0.55245-0.93464 0.57061-0.80948 0.032468 0.2236-0.25262 1.201-0.49845 1.7089-0.29172 0.60282-0.54718 1.4449-0.6333 2.0875-0.19112 1.426 0.42884 2.6773 1.6821 3.395 0.47611 0.27266 1.4343 0.58854 1.8041 0.59471 0.2123 0.0033 0.24618-0.01888 0.20345-0.13481zm-0.70134-9.8259c1.487-0.52155 1.633-0.67949 1.7217-1.8622 0.05353-0.7138 0.09059-0.85874 0.33782-1.3218 0.15272-0.28602 0.28454-0.51992 0.29292-0.51977 0.0083 0 0.01525 0.67696 0.01525 1.504 0 1.4024-0.01073 1.5189-0.15906 1.7282-0.40981 0.57825-1.1465 0.82266-2.4587 0.81575l-0.72082-4e-3 0.97087-0.34053zm46.985 1.1381c0.98078-0.59853 1.2236-1.0111 1.1582-1.9681-0.06761-0.98949-0.66361-1.8686-1.5574-2.2972-0.42776-0.20511-1.7823-0.49049-2.3491-0.49494-0.30755-0.0026-0.32092 0.0079-0.37092 0.2871-0.02851 0.15928-0.03255 0.6288-9e-3 1.0434l0.04293 0.75377-0.2483-0.38774c-0.5146-0.80354-0.71798-1.8154-0.46702-2.3236 0.11144-0.22573 0.934-0.85322 1.0117-0.7718 0.02393 0.02508 0.0068 0.17071-0.03802 0.32366-0.04477 0.15294-0.07614 0.27821-0.06961 0.27838 0.0068 0 0.43766 0.08766 0.95807 0.19443 0.52042 0.10677 0.95875 0.18099 0.97407 0.16494 0.05763-0.06035-0.16057-0.96778-0.3036-1.2627-0.31363-0.64665-1.0752-1.2203-2.3179-1.7459-0.59989-0.25372-2.0708-0.64889-4.343-1.1668-0.97981-0.22331-1.7964-0.4217-1.8147-0.44086-0.01832-0.01914 0.68947-0.0348 1.5728-0.0348 1.3068 0 1.6061-0.02021 1.6061-0.10853 0-0.05969-0.12047-0.36078-0.26774-0.66908-0.47562-0.9957-1.3192-1.7249-2.3929-2.0686-0.60464-0.1935-1.7018-0.29298-2.3856-0.21628-0.43067 0.04834-0.49595 0.07572-0.44926 0.18865 0.03001 0.07266 0.0707 0.356 0.09035 0.62963 0.03302 0.4606 0.05053 0.50077 0.23547 0.54146 0.23878 0.05256 2.0922 0.80514 2.3623 0.95926l0.1897 0.10823-0.1897-0.04087c-0.93545-0.20153-2.8096-0.43638-3.4794-0.43599-1.8459 0.0014-3.7014 0.5243-4.5996 1.297l-0.22574 0.1942-0.30864-0.56713c-0.16974-0.31193-0.45495-0.85319-0.63382-1.2028l-0.32522-0.63567 0.65423 0.70254c0.37017 0.39751 0.69398 0.68235 0.74577 0.65605 0.05038-0.02554 0.25306-0.16866 0.45049-0.31802 0.69107-0.52277 2.178-0.91368 3.4942-0.9186 0.82889-0.0033 0.86806-0.02978 0.77832-0.53074-0.15572-0.8694-2.2694-2.1761-4.1003-2.5348-1.043-0.20437-2.6657-0.13147-3.5283 0.15851-0.66228 0.22263-1.4966 0.65989-1.6653 0.87273-0.05223 0.06597-0.10015 0.23712-0.10643 0.38038-0.01108 0.25332-0.0014 0.26222 0.36798 0.32458 0.8254 0.13948 1.1761 0.2287 1.1761 0.29921 0 0.04364-0.86991 0.07377-2.129 0.07377-1.5445 0-2.1147-0.0243-2.0768-0.08847 0.10852-0.18389 0.7082-0.38398 1.3077-0.43636 0.58679-0.05124 0.62187-0.06484 0.62187-0.24044 0-0.22848-0.37831-0.50741-1.0244-0.75534-0.61529-0.2361-2.0348-0.25335-2.7694-0.03368-0.69783 0.20868-1.2757 0.50406-1.4118 0.72161-0.12587 0.2012-0.08475 0.34749 0.2091 0.74404 0.18544 0.25024 0.17721 0.43423-0.03028 0.67623-0.14036 0.16373-0.34409 0.23585-1.146 0.40568-0.53639 0.11361-1.014 0.19301-1.0614 0.17646-0.04744-0.01657 0.22313-0.19742 0.60121-0.40194 1.01-0.54631 1.0002-0.53661 0.81853-0.81626-0.08208-0.12635-0.18952-0.32805-0.23878-0.44826-0.08603-0.21006-0.11114-0.21854-0.6467-0.21854-0.91623 0-1.7294 0.38782-2.3863 1.1381-0.3411 0.38956-0.38751 0.53427-0.21852 0.68116 0.05716 0.04972 0.19994 0.31335 0.31727 0.58589 0.29913 0.69487 0.34293 1.5776 0.11694 2.3568-0.08973 0.30939-0.17559 0.56253-0.19078 0.56253-0.01525 0-0.03165-0.29785-0.0365-0.6619-0.01634-1.2159-0.35816-2.1153-0.93885-2.4701-0.17627-0.1077-0.6107-0.27436-0.96543-0.37037-1.1796-0.31925-2.7778-0.07112-3.3607 0.52177-0.451 0.45875-0.4725 1.1577-0.05107 1.6604 0.23046 0.27491 0.28172 0.29503 1.5528 0.60953 0.89558 0.22157 1.6877 0.6205 2.0376 1.0262 0.24126 0.2797 0.27662 0.37197 0.27662 0.72176 0 0.2206-0.05373 0.5099-0.1194 0.64292-0.0657 0.13302-0.10837 0.24855-0.09485 0.25674 0.01347 0.0082 0.24385 0.1211 0.51186 0.2509 0.26799 0.1298 0.67071 0.3701 0.89492 0.53401 0.22419 0.16391 0.41815 0.29801 0.43101 0.29801 0.01292 0 0.04669-0.34732 0.07517-0.77181 0.12172-1.8135 0.52851-2.9135 1.3935-3.7682 0.82864-0.81871 1.9822-1.3421 3.5713-1.6204 0.95043-0.16645 2.9508-0.12949 3.9922 0.07377 1.5442 0.30136 2.9205 0.96966 3.7456 1.8187 0.46754 0.48111 0.89984 1.3222 0.97187 1.8909 0.02721 0.21466 0.05537 0.39027 0.06263 0.39027 0.0072 0 0.35499-0.34868 0.77274-0.77483 1.2853-1.3112 2.103-1.6968 3.7092-1.7493 0.79976-0.02615 1.1164-0.0014 1.6733 0.13004 3.2466 0.76711 5.5651 2.7144 5.6959 4.7838 0.02906 0.46028-0.0027 0.74995-0.14366 1.3144l-0.18095 0.72404 0.72839 0.04998c1.9454 0.13353 3.8506 1.1002 4.8509 2.4612 0.18244 0.24823 0.3537 0.45131 0.3806 0.45131 0.02687 0 0.28735-0.14552 0.57882-0.3234z" fill="#359ff2" stroke-width=".15507"/><g transform="matrix(.02517 -.021063 -.02102 -.025221 26.426 49.41)" fill="#59ce77"><path d="m885 970q18-20 7-44l-540-1157q-13-25-42-25-4 0-14 2-17 5-25.5 19t-4.5 30l197 808-406-101q-4-1-12-1-18 0-31 11-18 15-13 39l201 825q4 14 16 23t28 9h328q19 0 32-12.5t13-29.5q0-8-5-18l-171-463 396 98q8 2 12 2 19 0 34-15z" fill="#59ce77"/></g></g></svg>
