<?xml version="1.0" encoding="UTF-8"?>
<svg width="64" height="64" version="1.1" viewBox="0 0 64 64" xmlns="http://www.w3.org/2000/svg" xmlns:cc="http://creativecommons.org/ns#" xmlns:dc="http://purl.org/dc/elements/1.1/" xmlns:rdf="http://www.w3.org/1999/02/22-rdf-syntax-ns#" xmlns:xlink="http://www.w3.org/1999/xlink">
  <metadata>
    <rdf:RDF>
      <cc:Work rdf:about="">
        <dc:format>image/svg+xml</dc:format>
        <dc:type rdf:resource="http://purl.org/dc/dcmitype/StillImage"/>
      </cc:Work>
    </rdf:RDF>
  </metadata>
  <defs>
    <style id="current-color-scheme" type="text/css">.ColorScheme-Text {
        color:#232629;
      }</style>
    <style type="text/css">.ColorScheme-Text { color:#444444; } .ColorScheme-Highlight { color:#4285f4; }</style>
    <linearGradient id="e" x1="50.5" x2="50.5" y1="23" y2="41" gradientTransform="matrix(.28276 0 0 -.54981 4.7405 89.936)" gradientUnits="userSpaceOnUse">
      <stop stop-color="#2f3943" offset="0"/>
      <stop stop-color="#4d5662" offset="1"/>
    </linearGradient>
    <linearGradient id="c" x1="399.07" x2="399.07" y1="592.66" y2="500.8" gradientTransform="matrix(-.56857 0 0 .26022 262.48 -72.69)" gradientUnits="userSpaceOnUse" xlink:href="#a"/>
    <linearGradient id="a">
      <stop stop-color="#94a2a9" offset="0"/>
      <stop stop-color="#bec8cc" offset="1"/>
    </linearGradient>
    <linearGradient id="g" x1="54" x2="54" y1="49" y2="25" gradientTransform="matrix(-.32627 0 0 .7069 33.376 46.186)" gradientUnits="userSpaceOnUse" xlink:href="#a"/>
    <linearGradient id="linearGradient1090" x1="28" x2="38" y1="30" y2="40" gradientTransform="matrix(-.82585 0 0 .82585 50.459 38.49)" gradientUnits="userSpaceOnUse">
      <stop stop-color="#292c2f" offset="0"/>
      <stop stop-color="#292c2f" stop-opacity=".26531" offset="1"/>
    </linearGradient>
    <linearGradient id="linearGradient880" x1="38.104" x2="32.303" y1="68.474" y2="77.176" gradientUnits="userSpaceOnUse">
      <stop stop-color="#3daee9" offset="0"/>
      <stop stop-color="#da4453" offset="1"/>
    </linearGradient>
  </defs>
  <g transform="matrix(-1,0,0,1,56,0)">
    <g transform="matrix(1.4146 0 0 1.4146 -15.61 -12.03)">
      <g transform="matrix(1.3968 0 0 1.3968 -18.394 -68.45)">
        <g transform="matrix(.89606 0 0 .89606 5.3144 8.594)">
          <g transform="translate(.036833 .3883)">
            <g transform="matrix(1.1683 0 0 1.1683 -8.3333 -14.936)"></g>
            <g transform="matrix(.96902 0 0 .96902 .96353 2.1557)">
              <circle transform="scale(-1,1)" cx="-27.545" cy="68.38" r=".73063" fill="#f00" fill-opacity=".96684" stroke-width=".73063"/>
              <path d="m45.811 57.627c1.2143 0 2.1919 1.2302 2.1919 2.7582v18.388c0 1.528-0.97759 2.7582-2.1919 2.7582h-23.38c-1.2143 0-2.1919-1.2302-2.1919-2.7582v-18.388c0-1.528 0.97759-2.7582 2.1919-2.7582z" fill="url(#c)" stroke-width=".8196"/>
              <g transform="matrix(.78795 0 0 1.0902 3.5808 -9.2779)">
                <path d="m14.452 63.859 4.5678 3.5207v9.8966l-4.5678 3.5483-0.97882-0.0138v-16.966z" fill="url(#g)" stroke-width=".48025"/>
                <path d="m19.02 77.29v-9.8966h2.1207v9.8966h-1e-6z" fill="url(#e)" stroke-linecap="round" stroke-width=".49985"/>
              </g>
              <path d="m27.711 62.973 16.726 12.582-7.124 5.2493-15.019-0.006728c-1.2093-5.42e-4 -2.0625-1.2322-2.0618-2.0363l0.0057-10.312 3.8018-3.5836 0.82352 0.91842z" fill="url(#linearGradient1090)" opacity=".2" stroke-width=".82585"/>
              <path transform="matrix(1.1683 0 0 1.1683 -8.3333 -14.936)" d="m44.468 67.393v9.8966h-13.431v-9.8966z" fill="url(#linearGradient880)" stroke-width="1.1094"/>
              <g transform="matrix(-.82585 0 0 .82585 50.225 39.022)" fill-opacity=".96684">
                <path d="m31.707 31.293a1 1 0 0 0-1.4142 0 1 1 0 0 0 0 1.4142 1 1 0 0 0 1.4142 0 1 1 0 0 0 0-1.4142z" fill="#da4453"/>
                <path d="m31 35a1 1 0 0 0-1 1 1 1 0 0 0 1 1 1 1 0 0 0 1-1 1 1 0 0 0-1-1z" fill="#31363b"/>
                <path d="m31 39a1 1 0 0 0-1 1 1 1 0 0 0 1 1 1 1 0 0 0 1-1 1 1 0 0 0-1-1z" fill="#31363b"/>
              </g>
              <path transform="matrix(1.1683 0 0 1.1683 -8.3333 -14.936)" d="m44.468 66.686c0.39162 0 0.7069 0.31528 0.7069 0.7069v9.8966c0 0.39162-0.31528 0.7069-0.7069 0.7069h-13.431c-0.39162 0-0.7069-0.31528-0.7069-0.7069v-9.8966c0-0.39162 0.31528-0.7069 0.7069-0.7069zm0 0.7069h-13.431v9.8966h13.431z" fill="#31363b" stroke-width="1.2468"/>
              <g transform="matrix(-.27618 0 0 .27618 44.606 58.841)" color="#000000" color-rendering="auto" fill="#fff" image-rendering="auto" shape-rendering="auto">
                <path d="m38.38 38.962-10 5.538v-11z" opacity=".75"/>
                <path d="m55 19v4h4v-4zm0 6v4h4v-4zm0 6v4h4v-4zm0 6v4h4v-4zm0 6v4h4v-4zm0 6v4h4v-4zm0 6v4h4v-4z" opacity=".75"/>
                <path d="m5 19v4h4v-4zm0 6v4h4v-4zm0 6v4h4v-4zm0 6v4h4v-4zm0 6v4h4v-4zm0 6v4h4v-4zm0 6v4h4v-4z" opacity=".75"/>
              </g>
              <path d="m48.003 78.609v0.73063c0 1.2143-0.97759 2.1919-2.1919 2.1919h-23.38c-1.2143 0-2.1919-0.97759-2.1919-2.1919v-0.73063c0 1.2143 0.97759 2.1919 2.1919 2.1919h23.38c1.2143 0 2.1919-0.97759 2.1919-2.1919z" fill="#292c2f" opacity=".4" stroke-width=".73063"/>
            </g>
          </g>
        </g>
      </g>
    </g>
  </g>
</svg>
