<?xml version="1.0" encoding="UTF-8"?>
<svg width="64" height="64" version="1.1" viewBox="0 0 64 64" xmlns="http://www.w3.org/2000/svg" xmlns:cc="http://creativecommons.org/ns#" xmlns:dc="http://purl.org/dc/elements/1.1/" xmlns:rdf="http://www.w3.org/1999/02/22-rdf-syntax-ns#" xmlns:xlink="http://www.w3.org/1999/xlink">
  <metadata>
    <rdf:RDF>
      <cc:Work rdf:about="">
        <dc:format>image/svg+xml</dc:format>
        <dc:type rdf:resource="http://purl.org/dc/dcmitype/StillImage"/>
      </cc:Work>
    </rdf:RDF>
  </metadata>
  <defs>
    <style id="current-color-scheme" type="text/css">.ColorScheme-Text {
        color:#232629;
      }</style>
    <style type="text/css">.ColorScheme-Text { color:#444444; } .ColorScheme-Highlight { color:#4285f4; }</style>
    <style type="text/css">.ColorScheme-Text {
        color:#232629;
      }</style>
    <style type="text/css">.ColorScheme-Text { color:#444444; } .ColorScheme-Highlight { color:#4285f4; }</style>
    <linearGradient id="a">
      <stop stop-color="#94a2a9" offset="0"/>
      <stop stop-color="#bec8cc" offset="1"/>
    </linearGradient>
    <style type="text/css">.ColorScheme-Text {
        color:#232629;
      }</style>
    <style type="text/css">.ColorScheme-Text { color:#444444; } .ColorScheme-Highlight { color:#4285f4; }</style>
    <linearGradient id="linearGradient1025" x1="399.07" x2="399.07" y1="592.66" y2="500.8" gradientTransform="matrix(-1.0067 0 0 .46073 428.05 -218.64)" gradientUnits="userSpaceOnUse" xlink:href="#a"/>
    <linearGradient id="linearGradient1027" x1="54" x2="54" y1="49" y2="25" gradientTransform="matrix(-.45519 0 0 1.3644 16.214 -17.221)" gradientUnits="userSpaceOnUse" xlink:href="#a"/>
    <linearGradient id="linearGradient1029" x1="50.5" x2="50.5" y1="23" y2="41" gradientTransform="matrix(.39448 0 0 -1.0612 -23.735 67.223)" gradientUnits="userSpaceOnUse">
      <stop stop-color="#2f3943" offset="0"/>
      <stop stop-color="#4d5662" offset="1"/>
    </linearGradient>
    <radialGradient id="radialGradient2499" cx="37.209" cy="73.039" r="6.7155" gradientTransform="matrix(.437 -.43948 2.0674 .33167 -129.12 61.807)" gradientUnits="userSpaceOnUse">
      <stop stop-color="#da4453" offset="0"/>
      <stop stop-color="#3daee9" offset="1"/>
    </radialGradient>
  </defs>
  <g transform="matrix(-1,0,0,1,56,0)">
    <g transform="matrix(.96902 0 0 .96902 6.1943 -.21985)">
      <circle transform="scale(-1,1)" cx="-12.081" cy="31.127" r="1.2936" fill="#f00" fill-opacity=".96684" stroke-width="1.2936"/>
      <path d="m44.421 12.088c2.15 0 3.8809 2.1781 3.8809 4.8836v32.557c0 2.7055-1.7309 4.8836-3.8809 4.8836h-41.396c-2.15 0-3.8809-2.1781-3.8809-4.8836v-32.557c0-2.7055 1.7309-4.8836 3.8809-4.8836z" fill="url(#linearGradient1025)" stroke-width="1.4511"/>
      <path d="m-10.187 16.89 6.3726 6.7956v19.102l-6.3726 6.8489-1.3656-0.02664v-32.747z" fill="url(#linearGradient1027)" stroke-width=".78809"/>
      <path d="m-3.814 42.814v-19.102h2.9586v19.102h-1.39e-6z" fill="url(#linearGradient1029)" stroke-linecap="round" stroke-width=".82025"/>
      <g transform="rotate(-90 14.996 6.7298)" fill-opacity=".96684" stroke-width="1.4622">
        <path d="m3.3109-5.1469a1.4622 1.4622 0 0 1 2.0679 0 1.4622 1.4622 0 0 1 0 2.0679 1.4622 1.4622 0 0 1-2.0679 0 1.4622 1.4622 0 0 1 0-2.0679z" fill="#da4453"/>
        <path d="m4.3447 0.27353a1.4622 1.4622 0 0 1 1.4622 1.4622 1.4622 1.4622 0 0 1-1.4622 1.4622 1.4622 1.4622 0 0 1-1.4622-1.4622 1.4622 1.4622 0 0 1 1.4622-1.4622z" fill="#31363b"/>
        <path d="m4.3447 6.1224a1.4622 1.4622 0 0 1 1.4622 1.4622 1.4622 1.4622 0 0 1-1.4622 1.4622 1.4622 1.4622 0 0 1-1.4622-1.4622 1.4622 1.4622 0 0 1 1.4622-1.4622z" fill="#31363b"/>
      </g>
      <g transform="matrix(2.0685 0 0 2.0685 -56.533 -98.331)">
        <path d="m46.69 67.094v4.6834h-15.824v-4.6834z" fill="url(#radialGradient2499)" stroke-width=".82838"/>
        <path d="m46.562 66.686c0.39162 0 0.7069 0.31528 0.7069 0.7069v3.7861c0 0.39162-0.31528 0.7069-0.7069 0.7069h-15.525c-0.39162 0-0.7069-0.31528-0.7069-0.7069v-3.7861c0-0.39162 0.31528-0.7069 0.7069-0.7069zm0 0.7069h-15.525v3.7861h15.525z" fill="#31363b" stroke-width="1.2468"/>
      </g>
      <path d="m48.302 49.238v1.2936c0 2.15-1.7309 3.8809-3.8809 3.8809h-41.396c-2.15 0-3.8809-1.7309-3.8809-3.8809v-1.2936c0 2.15 1.7309 3.8809 3.8809 3.8809h41.396c2.15 0 3.8809-1.7309 3.8809-3.8809z" fill="#292c2f" opacity=".4" stroke-width="1.2936"/>
      <g transform="matrix(-.015199 0 0 -.015199 46.982 37.423)">
        <path d="m831.01 855.95h501.75v-179.66h-272.66v-65.379h171.76l-0.44-162.65h-171.32v-219.95h-229.09v627.64"/>
        <path d="m1635.7 855.59v-477.94h247.79v-148.46h-469.7v626.4h221.91"/>
        <path d="m2206.9 855.59v-626.4h-221.91v626.4h221.91"/>
        <path d="m2828.7 501.84c17.91 6.707 34.52 15.75 49.92 27.09 20.81 15.558 37.25 35.23 49.33 58.972 12.07 23.754 18.12 48.465 18.12 74.102 0 23.121-5.17 45.703-15.37 67.773-10.24 22.082-24.78 41.719-43.54 58.973-25.51 23.527-56.11 40.551-91.84 51.07-35.72 10.504-79.91 15.77-132.53 15.77h-345.95v-626.4h221.91v239.38l213.48-239.38h276.7l-268.89 255.62c27.86 4.597 50.74 10.289 68.66 17.027zm-289.95 228.75h41.71c47.19 0 81.09-7.113 101.76-21.289 10.1-6.688 18.2-15.348 24.31-26.008 6.08-10.641 9.18-20.75 9.18-30.34 0-10.015-3.16-20.344-9.47-30.996-6.33-10.641-14.33-19.305-24.02-25.98-20.67-14.196-54.57-21.286-101.76-21.286l-41.71 0.239v155.66"/>
        <path d="m536.72 523.58-183.26-183.25-183.26 183.26 183.26 183.26 183.26-183.25 170.16 170.17-353.42 353.43-353.45-353.45 170.16-170.15-170.16-170.16 353.45-353.43 353.42 353.43-170.16 170.16"/>
        <path d="m2984.6 808.45h12.13c5.79 0 8.5 4.324 8.5 9.446 0 4.187-2.14 8.906-8.5 8.906h-12.13zm0-33.594h-9.46v58.422h23.21c11.21 0 16.34-7.289 16.34-14.566 0-6.887-5.28-12.148-12.7-13.496v-0.27c7.3-0.812 9.85-3.101 10.27-14.843 0.11-2.567 0.95-11.61 2.28-15.247h-9.31c-2.29 4.047-1.76 11.598-2.41 19.43-0.68 6.207-6.09 6.606-8.78 6.606h-9.44zm-33.75 29.278c0-24.024 19.3-43.18 43.34-43.18 24.01 0 43.03 19.156 43.03 43.18 0 23.883-19.02 43.18-43.03 43.18-24.04 0-43.34-19.297-43.34-43.18zm93.93 0.137c0-28.332-22.66-50.868-50.59-50.868-28.07 0-50.89 22.536-50.89 50.868 0 28.062 22.82 50.597 50.89 50.597 27.93 0 50.59-22.535 50.59-50.597"/>
      </g>
    </g>
  </g>
</svg>
