<?xml version="1.0" encoding="UTF-8"?>
<svg width="64" height="64" version="1.1" viewBox="0 0 64 64" xmlns="http://www.w3.org/2000/svg" xmlns:cc="http://creativecommons.org/ns#" xmlns:dc="http://purl.org/dc/elements/1.1/" xmlns:rdf="http://www.w3.org/1999/02/22-rdf-syntax-ns#" xmlns:xlink="http://www.w3.org/1999/xlink">
  <metadata>
    <rdf:RDF>
      <cc:Work rdf:about="">
        <dc:format>image/svg+xml</dc:format>
        <dc:type rdf:resource="http://purl.org/dc/dcmitype/StillImage"/>
      </cc:Work>
    </rdf:RDF>
  </metadata>
  <defs>
    <style id="current-color-scheme" type="text/css">.ColorScheme-Text {
        color:#232629;
      }</style>
    <style type="text/css">.ColorScheme-Text { color:#444444; } .ColorScheme-Highlight { color:#4285f4; }</style>
    <linearGradient id="c" x1="399.07" x2="399.07" y1="592.66" y2="500.8" gradientTransform="matrix(-.56857 0 0 .26022 262.48 -72.69)" gradientUnits="userSpaceOnUse" xlink:href="#a"/>
    <linearGradient id="a">
      <stop stop-color="#94a2a9" offset="0"/>
      <stop stop-color="#bec8cc" offset="1"/>
    </linearGradient>
    <linearGradient id="g" x1="54" x2="54" y1="49" y2="25" gradientTransform="matrix(-.32627 0 0 .7069 33.376 46.186)" gradientUnits="userSpaceOnUse" xlink:href="#a"/>
    <linearGradient id="e" x1="50.5" x2="50.5" y1="23" y2="41" gradientTransform="matrix(.28276 0 0 -.54981 4.7405 89.936)" gradientUnits="userSpaceOnUse">
      <stop stop-color="#2f3943" offset="0"/>
      <stop stop-color="#4d5662" offset="1"/>
    </linearGradient>
  </defs>
  <g transform="matrix(-1,0,0,1,56,0)">
    <g transform="translate(-62.125 -13.125)">
      <g transform="matrix(.7511 0 0 .7511 33.07 62.522)">
        <g transform="matrix(.37771 0 0 .37771 -20.735 -16.248)">
          <g transform="matrix(.96902 0 0 .96902 7.4949 -.56715)">
            <circle transform="matrix(-6.241 0 0 6.241 47.816 -452.55)" cx="-27.545" cy="68.38" r=".73063" fill="#f00" fill-opacity=".96684" stroke-width=".73063"/>
            <path transform="matrix(6.241 0 0 6.241 47.816 -452.55)" d="m45.811 57.627c1.2143 0 2.1919 1.2302 2.1919 2.7582v18.388c0 1.528-0.97759 2.7582-2.1919 2.7582h-23.38c-1.2143 0-2.1919-1.2302-2.1919-2.7582v-18.388c0-1.528 0.97759-2.7582 2.1919-2.7582z" fill="url(#c)" stroke-width=".8196"/>
            <g transform="matrix(4.9176 0 0 6.8038 70.164 -510.45)">
              <path d="m14.452 63.859 4.5678 3.5207v9.8966l-4.5678 3.5483-0.97882-0.0138v-16.966z" fill="url(#g)" stroke-width=".48025"/>
              <path d="m19.02 77.29v-9.8966h2.1207v9.8966h-1e-6z" fill="url(#e)" stroke-linecap="round" stroke-width=".49985"/>
            </g>
            <g transform="matrix(6.4506 0 0 6.4506 24.466 -457.85)">
              <g transform="matrix(0 .7069 .7069 0 3.8541 54.058)" fill-opacity=".96684">
                <path d="m31.707 31.293a1 1 0 0 0-1.4142 0 1 1 0 0 0 0 1.4142 1 1 0 0 0 1.4142 0 1 1 0 0 0 0-1.4142z" fill="#da4453"/>
                <path d="m31 35a1 1 0 0 0-1 1 1 1 0 0 0 1 1 1 1 0 0 0 1-1 1 1 0 0 0-1-1z" fill="#31363b"/>
                <path d="m31 39a1 1 0 0 0-1 1 1 1 0 0 0 1 1 1 1 0 0 0 1-1 1 1 0 0 0-1-1z" fill="#31363b"/>
              </g>
            </g>
            <path transform="matrix(6.241 0 0 6.241 47.816 -452.55)" d="m48.003 78.609v0.73063c0 1.2143-0.97759 2.1919-2.1919 2.1919h-23.38c-1.2143 0-2.1919-0.97759-2.1919-2.1919v-0.73063c0 1.2143 0.97759 2.1919 2.1919 2.1919h23.38c1.2143 0 2.1919-0.97759 2.1919-2.1919z" fill="#292c2f" opacity=".4" stroke-width=".73063"/>
            <g transform="matrix(1.1019 0 0 1.1019 3.0613 150.1)">
              <path d="m305.19-143.43v-13h-10.5v26h10.5zm-26.5 0.10043v-13.1h-10v18h-5.8521c-16.01 0-21.662-16.808-8.8645-26.362 2.1643-1.6159 4.7144-2.0705 13.688-2.4402l11.028-0.45439v-6.7431h-10.818c-14.006 0-20.22 1.7756-25.823 7.3779-4.8822 4.8822-6.8491 10.797-5.9952 18.03 0.83234 7.0504 4.3883 11.832 11.335 15.244 5.2813 2.5933 6.9432 2.8799 18.551 3.1989l12.75 0.35042zm-53 8.8996v-4h-14.429c-15.275 0-17.571-0.65339-17.571-5 0-3.8723 2.6513-5 11.756-5 9.9836 0 15.707-2.1276 18.516-6.883 2.4248-4.1049 2.2274-10.213-0.43975-13.603-3.6293-4.6139-7.3501-5.5137-22.8-5.5137h-14.032v7h11.435c13.044 0 16.235 0.83798 17.156 4.5049 1.2245 4.8789-1.404 6.2243-12.999 6.6535-9.3986 0.34791-10.616 0.62243-13.914 3.1377-5.0956 3.8866-6.591 9.1728-4.0574 14.343 1.0335 2.109 3.4081 4.8529 5.2769 6.0977 3.1831 2.1201 4.4316 2.2632 19.75 2.2632h16.352zm79.5-36.5v-3.5h-10.5v7h10.5z" fill="#2f2f2f"/>
              <path d="m172.71-135.43-0.38146-4h-9.7899v8h10.553zm0.32861-18v-4h-10.5v8h10.5zm-0.32861-18 0.38146-4h-10.553v8h9.7899z" fill="#1496a3"/>
            </g>
          </g>
        </g>
      </g>
    </g>
  </g>
</svg>
