<?xml version="1.0" encoding="UTF-8"?>
<svg width="64" height="64" version="1.1" viewBox="0 0 64 64" xmlns="http://www.w3.org/2000/svg" xmlns:cc="http://creativecommons.org/ns#" xmlns:dc="http://purl.org/dc/elements/1.1/" xmlns:rdf="http://www.w3.org/1999/02/22-rdf-syntax-ns#" xmlns:xlink="http://www.w3.org/1999/xlink">
  <metadata>
    <rdf:RDF>
      <cc:Work rdf:about="">
        <dc:format>image/svg+xml</dc:format>
        <dc:type rdf:resource="http://purl.org/dc/dcmitype/StillImage"/>
      </cc:Work>
    </rdf:RDF>
  </metadata>
  <defs>
    <style id="current-color-scheme" type="text/css">.ColorScheme-Text {
        color:#232629;
      }</style>
    <style type="text/css">.ColorScheme-Text { color:#444444; } .ColorScheme-Highlight { color:#4285f4; }</style>
    <linearGradient id="linearGradient4291" x2="0" y1="23" y2="8" gradientTransform="matrix(-1 0 0 1 40.887 11.761)" gradientUnits="userSpaceOnUse">
      <stop stop-color="#8cbdf8" offset="0"/>
      <stop stop-color="#d5e8ff" offset="1"/>
    </linearGradient>
    <linearGradient id="linearGradient4263" x1="399.57" x2="402.57" y1="524.8" y2="527.8" gradientTransform="matrix(-1 0 0 1 425.46 -504.04)" gradientUnits="userSpaceOnUse" xlink:href="#linearGradient4227-0-8"/>
    <linearGradient id="linearGradient4227-0-8">
      <stop stop-color="#292c2f" offset="0"/>
      <stop stop-opacity="0" offset="1"/>
    </linearGradient>
    <linearGradient id="linearGradient4182" x1="384.57" x2="407.57" y1="515.8" y2="537.8" gradientTransform="translate(-425.46 -504.04)" gradientUnits="userSpaceOnUse">
      <stop stop-color="#fcfcfc" stop-opacity=".26064" offset="0"/>
      <stop stop-color="#5ea5fb" stop-opacity="0" offset="1"/>
    </linearGradient>
    <linearGradient id="linearGradient4275" x1="394.57" x2="405.57" y1="527.8" y2="538.8" gradientTransform="matrix(-1 0 0 1 425.46 -504.04)" gradientUnits="userSpaceOnUse" xlink:href="#linearGradient4227-0-8"/>
    <linearGradient id="linearGradient3426" x2="0" y1="545.8" y2="517.8" gradientTransform="translate(-425.46 -504.04)" gradientUnits="userSpaceOnUse">
      <stop stop-color="#3889e9" offset="0"/>
      <stop stop-color="#5ea5fb" offset="1"/>
    </linearGradient>
  </defs>
  <g transform="matrix(-1,0,0,1,56,0)">
    <g transform="matrix(2.0714 0 0 2.084 -27.552 -25.853)">
      <circle transform="scale(-1,1)" cx="-24.887" cy="27.761" r="14" fill="url(#linearGradient3426)" stroke-width="4"/>
      <path d="m26.887 15.931a12 12 0 0 1 1 0.2207v3.6094h4v-1.7285a12 12 0 0 1 1 0.80274v0.92578h0.92773a12 12 0 0 1 0.80664 1h-1.7344v4h3.6055a12 12 0 0 1 0.21289 1h-3.8184v4h3.8301a12 12 0 0 1-0.2207 1h-3.6094v4h1.7285a12 12 0 0 1-0.80273 1h-0.92578v0.92774a12 12 0 0 1-1 0.80664v-1.7344h-4v3.6035a12 12 0 0 1-1 0.21484v-3.8184h-4v3.8301a12 12 0 0 1-1-0.2207v-3.6094h-4v1.7285a12 12 0 0 1-1-0.80273v-0.92579h-0.92773a12 12 0 0 1-0.80664-1h1.7344v-4h-3.6035a12 12 0 0 1-0.21484-1h3.8184v-4h-3.8301a12 12 0 0 1 0.2207-1h3.6094v-4h-1.7285a12 12 0 0 1 0.80274-1h0.92578v-0.92773a12 12 0 0 1 1-0.80664v1.7344h4v-3.6055a12 12 0 0 1 1-0.21289v3.8184h4zm5 4.8301h-4v4h4zm-5 0h-4v4h4zm-5 0h-4v4h4zm10 5h-4v4h4zm-5 0h-4v4h4zm-5 0h-4v4h4zm10 5h-4v4h4zm-5 0h-4v4h4zm-5 0h-4v4h4z" color="#000000" color-rendering="auto" fill="#fcfcfc" fill-opacity=".058824" image-rendering="auto" shape-rendering="auto" stroke-opacity=".31373"/>
      <path d="m20.887 23.761 4 4v1l6 6-6.9648 6.9648a14 14 0 0 1-12.986-13.014l4.9512-4.9512z" fill="url(#linearGradient4275)" fill-rule="evenodd" opacity=".2"/>
      <circle transform="scale(-1,1)" cx="-24.887" cy="27.761" r="14" fill="url(#linearGradient4182)" stroke-width="4"/>
      <path d="m24.887 15.761a12 12 0 0 1 12 12 12 12 0 0 1-12 12 12 12 0 0 1-12-12 12 12 0 0 1 12-12zm0 1a11 11 0 0 0-11 11 11 11 0 0 0 11 11 11 11 0 0 0 11-11 11 11 0 0 0-11-11z" fill="#fff" opacity=".2" stroke-width="3.4286"/>
      <path d="m25.887 20.761-4 4-2-2 2-2z" fill="url(#linearGradient4263)" fill-rule="evenodd" opacity=".2"/>
      <path d="m22.745 19.775c1.0474 0.07713 2.1426 0.48203 3.1426 0.98242-2 0-3 0.99921-4 2l-2 2.002v1.002l-1 1-3-3.002 1-1.002h1l2-2c0.81038-0.8089 1.81-1.0596 2.8574-0.98242zm-0.85742 2.9863 4 4h1l6 6-2 2-6-6v-1l-4-4z" fill="url(#linearGradient4291)" fill-rule="evenodd"/>
    </g>
  </g>
</svg>
