<?xml version="1.0" encoding="UTF-8" standalone="no"?>
<svg
   xmlns:dc="http://purl.org/dc/elements/1.1/"
   xmlns:cc="http://creativecommons.org/ns#"
   xmlns:rdf="http://www.w3.org/1999/02/22-rdf-syntax-ns#"
   xmlns:svg="http://www.w3.org/2000/svg"
   xmlns="http://www.w3.org/2000/svg"
   xmlns:sodipodi="http://sodipodi.sourceforge.net/DTD/sodipodi-0.dtd"
   xmlns:inkscape="http://www.inkscape.org/namespaces/inkscape"
   width="64"
   height="64"
   version="1.1"
   id="svg61"
   sodipodi:docname="firmataio.svg"
   inkscape:version="0.92.4 (5da689c313, 2019-01-14)">
  <metadata
     id="metadata65">
    <rdf:RDF>
      <cc:Work
         rdf:about="">
        <dc:format>image/svg+xml</dc:format>
        <dc:type
           rdf:resource="http://purl.org/dc/dcmitype/StillImage" />
        <dc:title />
      </cc:Work>
    </rdf:RDF>
  </metadata>
  <sodipodi:namedview
     pagecolor="#ffffff"
     bordercolor="#666666"
     borderopacity="1"
     objecttolerance="10"
     gridtolerance="10"
     guidetolerance="10"
     inkscape:pageopacity="0"
     inkscape:pageshadow="2"
     inkscape:window-width="1920"
     inkscape:window-height="1021"
     id="namedview63"
     showgrid="true"
     fit-margin-top="0"
     fit-margin-left="0"
     fit-margin-right="0"
     fit-margin-bottom="0"
     inkscape:zoom="8"
     inkscape:cx="15.766984"
     inkscape:cy="18.570914"
     inkscape:window-x="0"
     inkscape:window-y="0"
     inkscape:window-maximized="1"
     inkscape:current-layer="g1050">
    <inkscape:grid
       type="xygrid"
       id="grid874"
       originx="-0.70589857"
       originy="-4.6176369" />
  </sodipodi:namedview>
  <defs
     id="defs17">
    <linearGradient
       id="a"
       y1="543.79999"
       y2="503.79999"
       x1="434.57001"
       gradientUnits="userSpaceOnUse"
       x2="384.57001"
       gradientTransform="matrix(0.85534625,0,0,1.0264154,60.629483,-17.364717)">
      <stop
         stop-color="#343b40"
         id="stop2" />
      <stop
         offset="1"
         stop-color="#555e63"
         id="stop4" />
    </linearGradient>
    <linearGradient
       id="b"
       y1="44"
       y2="4"
       gradientUnits="userSpaceOnUse"
       x2="0"
       gradientTransform="translate(384.57,499.8)">
      <stop
         stop-color="#bd8d48"
         id="stop7" />
      <stop
         offset="1"
         stop-color="#e8b971"
         id="stop9" />
    </linearGradient>
    <linearGradient
       id="c"
       y1="17"
       x1="17"
       y2="40"
       x2="40"
       gradientUnits="userSpaceOnUse">
      <stop
         stop-color="#383e51"
         id="stop12" />
      <stop
         offset="1"
         stop-color="#655c6f"
         stop-opacity="0"
         id="stop14" />
    </linearGradient>
    <style
       type="text/css"
       id="current-color-scheme">
   .ColorScheme-Text { color:#444444; } .ColorScheme-Highlight { color:#4285f4; }
  </style>
  </defs>
  <g
     transform="translate(-385.2759,-479.18236)"
     id="g59">
    <g
       id="g23"
       transform="matrix(1,0,0,0.85000006,0,78.569977)"
       style="stroke-width:2.79999995;stroke-opacity:0.55" />
    <g
       id="g31"
       style="fill:#aa7f41" />
    <g
       id="g889"
       transform="matrix(1.5588229,0,0,1.5588229,-221.99475,-299.82906)">
      <g
         id="g1024"
         transform="matrix(2.8556152,0,0,2.8556152,-668.50865,-959.56581)">
        <g
           id="g1050"
           transform="matrix(1.0784529,0,0,1.0784529,-29.188793,-40.473399)">
          <g
             id="g876"
             transform="matrix(1.0462871,0,0,1.0462871,-17.743883,-23.974096)">
            <path
               id="path838"
               d="m 372.43792,512.74976 c -0.3554,0 -0.64151,0.32666 -0.64151,0.73244 v 8.05704 c 0,0.40578 0.28611,0.73244 0.64151,0.73244 h 0.96226 c 0.96226,-1.8e-4 2.01663,-7e-4 3.20755,0 h 6.09434 c 0.3554,0 0.64151,-0.32666 0.64151,-0.73244 v -8.05704 c 0,-0.40578 -0.28611,-0.73244 -0.64151,-0.73244 z"
               style="opacity:0.2;stroke-width:0.68546796"
               inkscape:connector-curvature="0"
               sodipodi:nodetypes="ssssccsssss" />
            <path
               id="path840"
               d="m 372.43792,512.74976 c -0.3554,0 -0.64151,0.31567 -0.64151,0.70777 v 7.78563 c 0,0.3921 0.28611,0.70776 0.64151,0.70776 0.17749,10e-6 4.38817,10e-6 10.26415,0 0.3554,0 0.64151,-0.31566 0.64151,-0.70776 v -7.78563 c 0,-0.3921 -0.28611,-0.70777 -0.64151,-0.70777 z"
               style="fill:#3da7d6;stroke-width:0.67382377"
               inkscape:connector-curvature="0"
               sodipodi:nodetypes="sssccssss" />
            <path
               id="path842"
               d="m 372.43792,512.70282 c -0.3554,0 -0.64151,0.28611 -0.64151,0.64151 v 0.32075 c 0,-0.35539 0.28611,-0.64151 0.64151,-0.64151 h 10.26415 c 0.3554,0 0.64151,0.28612 0.64151,0.64151 v -0.32075 c 0,-0.3554 -0.28611,-0.64151 -0.64151,-0.64151 z"
               style="opacity:0.1;fill:#ffffff;stroke-width:0.64150971"
               inkscape:connector-curvature="0" />
            <g
               id="g961"
               transform="matrix(0.64150969,0,0,0.64150969,372.13662,512.64904)">
              <rect
                 style="fill:#4e4e4e"
                 width="5"
                 height="5"
                 x="10"
                 y="7"
                 rx="1"
                 ry="1"
                 id="rect864" />
              <g
                 style="fill:#b7b7b7"
                 id="g882">
                <rect
                   width="1"
                   height="1.5"
                   x="11"
                   y="6"
                   id="rect866" />
                <rect
                   width="1"
                   height="1.5"
                   x="13"
                   y="6"
                   id="rect868" />
                <rect
                   width="1"
                   height="1.5"
                   x="11"
                   y="11.5"
                   id="rect870" />
                <rect
                   width="1"
                   height="1.5"
                   x="13"
                   y="11.5"
                   id="rect872" />
                <rect
                   width="1"
                   height="1.5"
                   x="8"
                   y="-16"
                   transform="rotate(90)"
                   id="rect874" />
                <rect
                   width="1"
                   height="1.5"
                   x="10"
                   y="-16"
                   transform="rotate(90)"
                   id="rect876" />
                <rect
                   width="1"
                   height="1.5"
                   x="8"
                   y="-10.5"
                   transform="rotate(90)"
                   id="rect878" />
                <rect
                   width="1"
                   height="1.5"
                   x="10"
                   y="-10.5"
                   transform="rotate(90)"
                   id="rect880" />
              </g>
            </g>
            <g
               transform="matrix(0.1338675,0,0,0.1338675,371.96731,512.13493)"
               id="g949">
              <path
                 style="opacity:0.2"
                 inkscape:connector-curvature="0"
                 d="M 16,11 A 14,14 0 0 0 2,25 14,14 0 0 0 16,39 14,14 0 0 0 23.992,36.477 14,14 0 0 0 32,39 14,14 0 0 0 46,25 14,14 0 0 0 32,11 14,14 0 0 0 24.008,13.523 14,14 0 0 0 16,11 Z"
                 id="path926" />
              <path
                 style="fill:#19979d"
                 inkscape:connector-curvature="0"
                 d="M 16,10 A 14,14 0 0 0 2,24 14,14 0 0 0 16,38 14,14 0 0 0 23.992,35.477 14,14 0 0 0 32,38 14,14 0 0 0 46,24 14,14 0 0 0 32,10 14,14 0 0 0 24.008,12.523 14,14 0 0 0 16,10 Z"
                 id="path928" />
              <path
                 style="opacity:0.2"
                 inkscape:connector-curvature="0"
                 d="m 16.816,18 c -0.88834,0 -1.7727,0.17787 -2.5957,0.52539 -0.82301,0.34753 -1.5746,0.8592 -2.209,1.5059 -0.63432,0.64667 -1.1424,1.4203 -1.4883,2.2715 -0.345,0.851 -0.523,1.769 -0.523,2.693 0,0.92432 0.17758,1.8421 0.52344,2.6934 0.34588,0.85121 0.85396,1.6248 1.4883,2.2715 0.63434,0.64665 1.386,1.1583 2.209,1.5059 0.8042,0.3396 1.6674,0.51547 2.5352,0.52344 0.0205,7.42e-4 0.04015,0.0012 0.06055,0.002 2.1101,0.09994 3.8103,-0.73742 5.0547,-1.9531 0.85065,-0.83103 1.519,-1.8124 2.1289,-2.8125 0.60993,1.0001 1.2782,1.9815 2.1289,2.8125 1.2444,1.2157 2.9446,2.053 5.0547,1.9531 0.0204,-7.42e-4 0.04005,-9.81e-4 0.06055,-0.002 0.86777,-0.0074 1.729,-0.18384 2.5332,-0.52344 0.82301,-0.34752 1.5766,-0.8592 2.2109,-1.5059 l 0.0039,-0.0078 c 0.63171,-0.64549 1.1395,-1.415 1.4844,-2.2637 0.345,-0.851 0.523,-1.769 0.523,-2.693 0,-0.92433 -0.17759,-1.8422 -0.52344,-2.6934 l -0.0059,-0.01172 c -0.346,-0.846 -0.852,-1.616 -1.483,-2.26 -0.634,-0.646 -1.386,-1.158 -2.209,-1.506 -0.823,-0.347 -1.707,-0.525 -2.595,-0.525 -2.2231,0 -3.9788,0.91425 -5.2754,2.1855 -0.75,0.734 -1.358,1.574 -1.909,2.433 -0.551,-0.859 -1.159,-1.699 -1.908,-2.433 -1.297,-1.272 -3.053,-2.186 -5.276,-2.186 z m -0.02344,2 c 1.7735,0 2.9063,0.63555 3.9453,1.6875 0.82362,0.83385 1.5458,1.9682 2.2617,3.2051 -0.81704,1.4451 -1.6067,2.765 -2.4941,3.6602 -0.97826,0.98682 -1.992,1.531 -3.6484,1.4355 h -0.06445 c -0.63169,0 -1.2685,-0.13332 -1.8496,-0.38672 -0.57334,-0.25 -1.1024,-0.62145 -1.5391,-1.0762 L 13.38633,28.5078 c -0.44,-0.462 -0.794,-1.02 -1.03,-1.618 -0.235,-0.599 -0.357,-1.251 -0.357,-1.895 0,-0.64429 0.12199,-1.2963 0.35742,-1.8945 0.23541,-0.59829 0.58922,-1.154 1.0293,-1.6172 l 0.01758,-0.01953 c 0.43666,-0.45472 0.96573,-0.82618 1.5391,-1.0762 0.581,-0.253 1.217,-0.386 1.849,-0.386 z m 14.414,0 c 0.6317,0 1.2685,0.13332 1.8496,0.38672 0.57333,0.25 1.1024,0.62145 1.5391,1.0762 l 0.01758,0.01953 c 0.44008,0.46323 0.79389,1.0189 1.0293,1.6172 0.235,0.598 0.357,1.25 0.357,1.894 0,0.64431 -0.12199,1.2962 -0.35742,1.8945 -0.23541,0.59828 -0.58921,1.1559 -1.0293,1.6191 l -0.01758,0.01758 c -0.43666,0.45472 -0.96573,0.82617 -1.5391,1.0762 -0.58114,0.2534 -1.2179,0.38672 -1.8496,0.38672 h -0.06445 c -1.656,0.095 -2.67,-0.449 -3.648,-1.436 -0.887,-0.895 -1.677,-2.215 -2.494,-3.66 0.716,-1.237 1.438,-2.372 2.262,-3.205 1.039,-1.052 2.172,-1.688 3.945,-1.688 z m -1.207,2 v 2 h -2 v 2 h 2 v 2 h 2 v -2 h 2 v -2 h -2 v -2 z m -16,2 v 2 h 6 v -2 z"
                 id="path930" />
              <path
                 style="fill:#79ff88"
                 inkscape:connector-curvature="0"
                 d="m 16.816,17 c -0.88834,0 -1.7727,0.17787 -2.5957,0.52539 -0.82301,0.34753 -1.5746,0.8592 -2.209,1.5059 -0.63432,0.64667 -1.1424,1.4203 -1.4883,2.2715 -0.345,0.851 -0.523,1.769 -0.523,2.693 0,0.92432 0.17758,1.8421 0.52344,2.6934 0.34588,0.85121 0.85396,1.6248 1.4883,2.2715 0.63434,0.64665 1.386,1.1583 2.209,1.5059 0.8042,0.3396 1.6674,0.51547 2.5352,0.52344 0.0205,7.42e-4 0.04015,0.0012 0.06055,0.002 2.1101,0.09994 3.8103,-0.73742 5.0547,-1.9531 0.85065,-0.83103 1.519,-1.8124 2.1289,-2.8125 0.60993,1.0001 1.2782,1.9815 2.1289,2.8125 1.2444,1.2157 2.9446,2.053 5.0547,1.9531 0.0204,-7.42e-4 0.04005,-9.81e-4 0.06055,-0.002 0.86777,-0.0074 1.729,-0.18384 2.5332,-0.52344 0.82301,-0.34752 1.5766,-0.8592 2.2109,-1.5059 l 0.0039,-0.0078 c 0.63171,-0.64549 1.1395,-1.415 1.4844,-2.2637 0.345,-0.851 0.523,-1.769 0.523,-2.693 0,-0.92433 -0.17759,-1.8422 -0.52344,-2.6934 l -0.0059,-0.01172 c -0.346,-0.846 -0.852,-1.616 -1.483,-2.26 -0.634,-0.646 -1.386,-1.158 -2.209,-1.506 -0.823,-0.347 -1.707,-0.525 -2.595,-0.525 -2.2231,0 -3.9788,0.91425 -5.2754,2.1855 -0.75,0.734 -1.358,1.574 -1.909,2.433 -0.551,-0.859 -1.159,-1.699 -1.908,-2.433 -1.297,-1.272 -3.053,-2.186 -5.276,-2.186 z m -0.02344,2 c 1.7735,0 2.9063,0.63555 3.9453,1.6875 0.82362,0.83385 1.5458,1.9682 2.2617,3.2051 -0.81704,1.4451 -1.6067,2.765 -2.4941,3.6602 -0.97826,0.98682 -1.992,1.531 -3.6484,1.4355 h -0.06445 c -0.63169,0 -1.2685,-0.13332 -1.8496,-0.38672 -0.57334,-0.25 -1.1024,-0.62145 -1.5391,-1.0762 L 13.38633,27.5078 c -0.44,-0.462 -0.794,-1.02 -1.03,-1.618 -0.235,-0.599 -0.357,-1.251 -0.357,-1.895 0,-0.64429 0.12199,-1.2963 0.35742,-1.8945 0.23541,-0.59829 0.58922,-1.154 1.0293,-1.6172 l 0.01758,-0.01953 c 0.43666,-0.45472 0.96573,-0.82618 1.5391,-1.0762 0.581,-0.253 1.217,-0.386 1.849,-0.386 z m 14.414,0 c 0.6317,0 1.2685,0.13332 1.8496,0.38672 0.57333,0.25 1.1024,0.62145 1.5391,1.0762 l 0.01758,0.01953 c 0.44008,0.46323 0.79389,1.0189 1.0293,1.6172 0.235,0.598 0.357,1.25 0.357,1.894 0,0.64431 -0.12199,1.2962 -0.35742,1.8945 -0.23541,0.59828 -0.58921,1.1559 -1.0293,1.6191 l -0.01758,0.01758 c -0.43666,0.45472 -0.96573,0.82617 -1.5391,1.0762 -0.58114,0.2534 -1.2179,0.38672 -1.8496,0.38672 h -0.06445 c -1.656,0.095 -2.67,-0.449 -3.648,-1.436 -0.887,-0.895 -1.677,-2.215 -2.494,-3.66 0.716,-1.237 1.438,-2.372 2.262,-3.205 1.039,-1.052 2.172,-1.688 3.945,-1.688 z m -1.207,2 v 2 h -2 v 2 h 2 v 2 h 2 v -2 h 2 v -2 h -2 v -2 z m -16,2 v 2 h 6 v -2 z"
                 id="path932" />
              <path
                 style="opacity:0.2;fill:#ffffff"
                 inkscape:connector-curvature="0"
                 d="M 16,10 A 14,14 0 0 0 2,24 14,14 0 0 0 2.0215,24.414 14,14 0 0 1 15.9995,11 a 14,14 0 0 1 8.008,2.523 14,14 0 0 1 7.992,-2.523 14,14 0 0 1 13.979,13.586 14,14 0 0 0 0.021,-0.586 14,14 0 0 0 -14,-14 14,14 0 0 0 -7.992,2.523 A 14,14 0 0 0 15.9995,10 Z"
                 id="path934" />
            </g>
            <g
               transform="matrix(0.34752592,0,0,0.34752592,371.53034,518.04257)"
               id="g997">
              <path
                 inkscape:connector-curvature="0"
                 style="color:#444444;fill:none;stroke:currentColor;stroke-width:1.49849451;stroke-miterlimit:4;stroke-dasharray:none"
                 class="ColorScheme-Text"
                 d="M 13,3 H 6 C 6,3 4,3 4,5.5 4,8 6,8 6,8 h 4 c 0,0 2,0 2,2.5 0,2.5 -2,2.51817 -2,2.51817 L 3,12.98183"
                 id="path981" />
              <circle
                 cx="12"
                 cy="3"
                 r="1.8"
                 style="color:#444444;fill:currentColor;stroke-width:0.60000002"
                 class="ColorScheme-Text"
                 id="circle983" />
              <circle
                 cx="4"
                 cy="13"
                 r="1.8"
                 style="color:#444444;fill:currentColor;stroke-width:0.60000002"
                 class="ColorScheme-Text"
                 id="circle985" />
            </g>
          </g>
        </g>
      </g>
    </g>
  </g>
</svg>
