<?xml version="1.0" encoding="UTF-8" standalone="no"?>
<svg
   xmlns:dc="http://purl.org/dc/elements/1.1/"
   xmlns:cc="http://creativecommons.org/ns#"
   xmlns:rdf="http://www.w3.org/1999/02/22-rdf-syntax-ns#"
   xmlns:svg="http://www.w3.org/2000/svg"
   xmlns="http://www.w3.org/2000/svg"
   xmlns:xlink="http://www.w3.org/1999/xlink"
   xmlns:sodipodi="http://sodipodi.sourceforge.net/DTD/sodipodi-0.dtd"
   xmlns:inkscape="http://www.inkscape.org/namespaces/inkscape"
   width="64"
   height="64"
   version="1.1"
   id="svg61"
   sodipodi:docname="firmatauserctl.svg"
   inkscape:version="0.92.4 (5da689c313, 2019-01-14)">
  <metadata
     id="metadata65">
    <rdf:RDF>
      <cc:Work
         rdf:about="">
        <dc:format>image/svg+xml</dc:format>
        <dc:type
           rdf:resource="http://purl.org/dc/dcmitype/StillImage" />
        <dc:title />
      </cc:Work>
    </rdf:RDF>
  </metadata>
  <sodipodi:namedview
     pagecolor="#ffffff"
     bordercolor="#666666"
     borderopacity="1"
     objecttolerance="10"
     gridtolerance="10"
     guidetolerance="10"
     inkscape:pageopacity="0"
     inkscape:pageshadow="2"
     inkscape:window-width="2560"
     inkscape:window-height="1373"
     id="namedview63"
     showgrid="true"
     fit-margin-top="0"
     fit-margin-left="0"
     fit-margin-right="0"
     fit-margin-bottom="0"
     inkscape:zoom="11.313708"
     inkscape:cx="3.0630651"
     inkscape:cy="24.417627"
     inkscape:window-x="0"
     inkscape:window-y="0"
     inkscape:window-maximized="1"
     inkscape:current-layer="g1041"
     inkscape:lockguides="true">
    <inkscape:grid
       type="xygrid"
       id="grid874"
       originx="-0.70589857"
       originy="-4.6176369" />
  </sodipodi:namedview>
  <defs
     id="defs17">
    <linearGradient
       inkscape:collect="always"
       id="linearGradient910">
      <stop
         style="stop-color:#e7b037;stop-opacity:1;"
         offset="0"
         id="stop906" />
      <stop
         style="stop-color:#e00a5e;stop-opacity:1"
         offset="1"
         id="stop908" />
    </linearGradient>
    <linearGradient
       id="linearGradient926"
       inkscape:collect="always">
      <stop
         id="stop922"
         style="stop-color:#79ca88;stop-opacity:1" />
      <stop
         id="stop924"
         style="stop-color:#126e72;stop-opacity:1"
         offset="1" />
    </linearGradient>
    <linearGradient
       id="a"
       y1="543.79999"
       y2="503.79999"
       x1="434.57001"
       gradientUnits="userSpaceOnUse"
       x2="384.57001"
       gradientTransform="matrix(0.85534625,0,0,1.0264154,60.629483,-17.364717)">
      <stop
         stop-color="#343b40"
         id="stop2" />
      <stop
         offset="1"
         stop-color="#555e63"
         id="stop4" />
    </linearGradient>
    <linearGradient
       id="b"
       y1="44"
       y2="4"
       gradientUnits="userSpaceOnUse"
       x2="0"
       gradientTransform="translate(384.57,499.8)">
      <stop
         stop-color="#bd8d48"
         id="stop7" />
      <stop
         offset="1"
         stop-color="#e8b971"
         id="stop9" />
    </linearGradient>
    <linearGradient
       id="c"
       y1="17"
       x1="17"
       y2="40"
       x2="40"
       gradientUnits="userSpaceOnUse">
      <stop
         stop-color="#383e51"
         id="stop12" />
      <stop
         offset="1"
         stop-color="#655c6f"
         stop-opacity="0"
         id="stop14" />
    </linearGradient>
    <style
       type="text/css"
       id="current-color-scheme">
   .ColorScheme-Text { color:#444444; } .ColorScheme-Highlight { color:#4285f4; }
  </style>
    <linearGradient
       inkscape:collect="always"
       id="linearGradient4227">
      <stop
         style="stop-color:#292c2f"
         id="stop4229" />
      <stop
         offset="1"
         style="stop-opacity:0"
         id="stop4231" />
    </linearGradient>
    <linearGradient
       gradientTransform="matrix(0.23434485,0,0,0.63135111,293.49083,183.69269)"
       gradientUnits="userSpaceOnUse"
       x2="0"
       y2="497.79797"
       y1="549.79797"
       id="linearGradient4291-5"
       xlink:href="#linearGradient4251-0"
       inkscape:collect="always" />
    <linearGradient
       inkscape:collect="always"
       id="linearGradient4251-0">
      <stop
         style="stop-color:#63984b"
         id="stop4253-4" />
      <stop
         offset="1"
         style="stop-color:#8fc278"
         id="stop4255-2" />
    </linearGradient>
    <linearGradient
       gradientTransform="matrix(1.0944444,0,0,1.2352891,376.00481,478.09233)"
       gradientUnits="userSpaceOnUse"
       x2="0"
       y2="12"
       y1="54"
       id="linearGradient4232-0"
       xlink:href="#linearGradient4251-0"
       inkscape:collect="always" />
    <linearGradient
       gradientTransform="matrix(0.17215768,0,0,0.17215768,371.43399,515.81907)"
       x2="24"
       gradientUnits="userSpaceOnUse"
       y2="36"
       x1="-6"
       y1="6"
       id="linearGradient4940-2"
       xlink:href="#linearGradient4227"
       inkscape:collect="always" />
    <linearGradient
       gradientTransform="matrix(0.17215768,0,0,0.17215768,371.43399,514.78612)"
       x2="24"
       gradientUnits="userSpaceOnUse"
       y2="36"
       x1="-6"
       y1="6"
       id="linearGradient4936-1"
       xlink:href="#linearGradient4227"
       inkscape:collect="always" />
    <linearGradient
       gradientTransform="matrix(0.17215768,0,0,0.17215768,371.43399,513.75318)"
       x2="24"
       gradientUnits="userSpaceOnUse"
       y2="36"
       x1="-6"
       y1="6"
       id="linearGradient4932"
       xlink:href="#linearGradient4227"
       inkscape:collect="always" />
    <linearGradient
       gradientTransform="matrix(0.17215768,0,0,0.17215768,371.43399,512.72023)"
       gradientUnits="userSpaceOnUse"
       x2="24"
       y2="36"
       x1="-6"
       y1="6"
       id="linearGradient4922"
       xlink:href="#linearGradient4227"
       inkscape:collect="always" />
    <linearGradient
       gradientTransform="matrix(0.17215768,0,0,0.17215768,241.77452,342.35369)"
       gradientUnits="userSpaceOnUse"
       x2="0"
       y2="516.79797"
       y1="523.79797"
       id="linearGradient4746"
       xlink:href="#linearGradient4300-7"
       inkscape:collect="always" />
    <linearGradient
       id="linearGradient4300-7"
       inkscape:collect="always">
      <stop
         id="stop4302-8"
         style="stop-color:#e00a5e" />
      <stop
         id="stop4304-6"
         style="stop-color:#f62870"
         offset="1" />
    </linearGradient>
    <linearGradient
       gradientTransform="matrix(0.17215768,0,0,0.17215768,241.77452,343.38663)"
       x2="0"
       gradientUnits="userSpaceOnUse"
       y2="516.79797"
       y1="523.79797"
       id="linearGradient4818"
       xlink:href="#linearGradient4300-2-3"
       inkscape:collect="always" />
    <linearGradient
       id="linearGradient4300-2-3">
      <stop
         id="stop4302-4-0"
         style="stop-color:#f9b425" />
      <stop
         id="stop4304-1"
         style="stop-color:#f9bf3b"
         offset="1" />
    </linearGradient>
    <linearGradient
       gradientTransform="matrix(0.17215768,0,0,0.17215768,241.77452,344.41958)"
       x2="0"
       gradientUnits="userSpaceOnUse"
       y2="516.79797"
       y1="523.79797"
       id="linearGradient4824-8"
       xlink:href="#linearGradient4300-2"
       inkscape:collect="always" />
    <linearGradient
       id="linearGradient4300-2"
       inkscape:collect="always">
      <stop
         id="stop4302-4"
         style="stop-color:#22a7f0" />
      <stop
         id="stop4304-7"
         style="stop-color:#19b5fe"
         offset="1" />
    </linearGradient>
    <linearGradient
       gradientTransform="matrix(0.17215768,0,0,0.17215768,241.77452,345.45253)"
       x2="0"
       gradientUnits="userSpaceOnUse"
       y2="516.79797"
       y1="523.79797"
       id="linearGradient4830-9"
       xlink:href="#linearGradient4300"
       inkscape:collect="always" />
    <linearGradient
       id="linearGradient4300"
       inkscape:collect="always">
      <stop
         id="stop4302"
         style="stop-color:#26c281" />
      <stop
         id="stop4304"
         style="stop-color:#3fc380"
         offset="1" />
    </linearGradient>
    <linearGradient
       gradientTransform="matrix(0.23434486,0,0,0.23434486,281.46114,396.93115)"
       gradientUnits="userSpaceOnUse"
       x2="417.57144"
       y2="527.79797"
       x1="408.57144"
       y1="518.79797"
       id="linearGradient4184-7"
       xlink:href="#linearGradient4227"
       inkscape:collect="always" />
    <style
       id="current-color-scheme-3"
       type="text/css">
      .ColorScheme-Text {
        color:#232629;
      }
      </style>
    <style
       id="current-color-scheme-7"
       type="text/css">
      .ColorScheme-Text {
        color:#232629;
      }
      .ColorScheme-NegativeText {
        color:#da4453;
      }
      </style>
    <linearGradient
       inkscape:collect="always"
       xlink:href="#linearGradient4251-0"
       id="linearGradient1391"
       gradientUnits="userSpaceOnUse"
       gradientTransform="matrix(1.0944444,0,0,1.2352891,376.00481,478.09233)"
       y1="54"
       x2="0"
       y2="12" />
    <linearGradient
       inkscape:collect="always"
       xlink:href="#linearGradient926"
       id="linearGradient1499"
       gradientUnits="userSpaceOnUse"
       gradientTransform="matrix(0.18841701,0,0,0.21266451,371.33644,510.53286)"
       y1="56.972782"
       x2="15.1793"
       y2="12.894988"
       x1="31.762697" />
    <style
       id="current-color-scheme-36"
       type="text/css">
      .ColorScheme-Text {
        color:#232629;
      }
      </style>
    <style
       id="current-color-scheme-2"
       type="text/css">
      .ColorScheme-Text {
        color:#232629;
      }
      </style>
    <linearGradient
       inkscape:collect="always"
       xlink:href="#linearGradient926"
       id="linearGradient1278"
       gradientUnits="userSpaceOnUse"
       gradientTransform="matrix(0.18841701,0,0,0.21266451,371.33644,510.53286)"
       x1="31.762697"
       y1="56.972782"
       x2="15.1793"
       y2="12.894988" />
    <linearGradient
       inkscape:collect="always"
       xlink:href="#linearGradient4300-2-3"
       id="linearGradient1280"
       gradientUnits="userSpaceOnUse"
       gradientTransform="matrix(0.17215768,0,0,0.17215768,241.77452,343.38663)"
       y1="523.79797"
       x2="0"
       y2="516.79797" />
    <linearGradient
       inkscape:collect="always"
       xlink:href="#linearGradient910"
       id="linearGradient912"
       x1="364.1257"
       y1="516.63177"
       x2="364.1257"
       y2="527.05939"
       gradientUnits="userSpaceOnUse" />
  </defs>
  <g
     transform="translate(-385.2759,-479.18236)"
     id="g59">
    <g
       id="g23"
       transform="matrix(1,0,0,0.85000006,0,78.569977)"
       style="stroke-width:2.79999995;stroke-opacity:0.55" />
    <g
       id="g31"
       style="fill:#aa7f41" />
    <g
       id="g889"
       transform="matrix(1.5588229,0,0,1.5588229,-221.99475,-299.82906)">
      <g
         id="g1024"
         transform="matrix(2.8556152,0,0,2.8556152,-668.50865,-959.56581)">
        <g
           id="g1050"
           transform="matrix(1.0784529,0,0,1.0784529,-29.188793,-40.473399)">
          <g
             id="layer1-3"
             inkscape:label="Capa 1"
             transform="matrix(0.20830628,0,0,0.20830628,291.40191,409.48583)" />
          <g
             id="g1497"
             transform="translate(-0.16541642,0.3217591)">
            <g
               id="g1177"
               transform="matrix(0.8811587,0,0,0.8811587,26.79518,60.502622)">
              <g
                 id="g1205"
                 transform="translate(20.360448)" />
            </g>
            <g
               id="g1276"
               transform="matrix(1.325181,0,0,1.325181,-122.58266,-167.31507)">
              <path
                 sodipodi:nodetypes="ccccccccccccc"
                 inkscape:connector-curvature="0"
                 style="fill:url(#linearGradient1278);stroke-width:0.20017394"
                 id="rect4200-1"
                 d="m 372.46693,513.74766 v 8.45461 h 0.65603 v -1.03618 h 2.35864 5.65251 1.50734 v -6.37994 h -3.76834 -5.76465 l 0.009,-0.61316 0.001,-0.42533 z"
                 transform="matrix(0.88115869,0,0,0.88115869,44.735958,60.502632)" />
              <path
                 inkscape:connector-curvature="0"
                 style="opacity:0.2;fill:url(#linearGradient4940-2);fill-rule:evenodd;stroke-width:0.17215768"
                 id="path4938-9"
                 d="m 374.01635,519.60654 -0.86079,0.68863 1.03295,1.03294 h 1.03294 v 0.68863 h 1.20511 z"
                 transform="matrix(0.88115869,0,0,0.88115869,44.735958,60.502632)" />
              <path
                 inkscape:connector-curvature="0"
                 style="opacity:0.2;fill:url(#linearGradient4936-1);fill-rule:evenodd;stroke-width:0.17215768"
                 id="path4934-4"
                 d="m 374.01635,518.57359 -0.86079,0.68863 2.06589,2.06589 0.68864,0.68863 h 1.54941 z"
                 transform="matrix(0.88115869,0,0,0.88115869,44.735958,60.502632)" />
              <path
                 inkscape:connector-curvature="0"
                 style="opacity:0.2;fill:url(#linearGradient4932);fill-rule:evenodd;stroke-width:0.17215768"
                 id="path4930"
                 d="m 374.01635,517.54064 -0.86079,0.68864 3.78747,3.78746 h 1.54942 z"
                 transform="matrix(0.88115869,0,0,0.88115869,44.735958,60.502632)" />
              <path
                 inkscape:connector-curvature="0"
                 style="opacity:0.2;fill:url(#linearGradient4922);fill-rule:evenodd;stroke-width:0.17215768"
                 id="path4896"
                 d="m 374.01635,516.5077 -0.86079,0.68863 4.82042,4.82041 h 1.54942 z"
                 transform="matrix(0.88115869,0,0,0.88115869,44.735958,60.502632)" />
              <path
                 inkscape:connector-curvature="0"
                 style="color:#000000;stroke-width:0.17215768"
                 id="path4313-5"
                 d="m 373.84419,520.81164 v 0.17216 h 0.17216 v -0.17216 z m 0.17216,0.17216 v 0.17216 h 0.17216 v -0.17216 z m 0.17216,0 h 0.17216 v -0.17216 h -0.17216 z m 0.17216,0 v 0.17216 h 0.17215 v -0.17216 z m 0.17215,0 h 0.17216 v -0.17216 h -0.17216 z m -0.68863,0 h -0.17215 v 0.17216 h 0.17215 z"
                 transform="matrix(0.88115869,0,0,0.88115869,44.735958,60.502632)" />
              <rect
                 width="0.6511904"
                 x="372.48566"
                 y="513.74463"
                 height="8.4654455"
                 style="fill:#afc0c6;stroke-width:0.18114413"
                 id="rect4487-3"
                 transform="matrix(0.88115869,0,0,0.88115869,44.735958,60.502632)" />
              <rect
                 width="0.16313705"
                 x="372.47141"
                 y="513.74463"
                 height="8.4646187"
                 style="fill:#96aab5;stroke-width:0.18132402"
                 id="rect4489-6"
                 transform="matrix(0.88115869,0,0,0.88115869,44.735958,60.502632)" />
              <path
                 inkscape:connector-curvature="0"
                 style="fill:#afc0c6;stroke-width:0.17215768"
                 id="path4757"
                 d="m 372.46693,516.5077 c -0.0954,0 -0.17216,0.0768 -0.17216,0.17216 v 0.34431 c 0,0.0954 0.0768,0.17216 0.17216,0.17216 h 0.17216 v -0.68863 z"
                 transform="matrix(0.88115869,0,0,0.88115869,44.735958,60.502632)" />
              <path
                 inkscape:connector-curvature="0"
                 style="fill:url(#linearGradient4746);stroke-width:0.17215768"
                 id="rect4738"
                 d="m 373.15556,516.5077 v 0.68863 h 0.67149 c 0.006,0 0.0112,-0.003 0.0171,-0.003 v 0.003 h 0.17216 v -0.68863 h -0.17216 v 0.003 c -0.006,-6.9e-4 -0.011,-0.003 -0.0171,-0.003 z"
                 transform="matrix(0.88115869,0,0,0.88115869,44.735958,60.502632)" />
              <path
                 inkscape:connector-curvature="0"
                 style="fill:#afc0c6;stroke-width:0.17215768"
                 id="path4807"
                 d="m 372.46693,517.54064 c -0.0954,0 -0.17216,0.0768 -0.17216,0.17216 v 0.34432 c 0,0.0954 0.0768,0.17216 0.17216,0.17216 h 0.17216 v -0.68864 z"
                 transform="matrix(0.88115869,0,0,0.88115869,44.735958,60.502632)" />
              <path
                 inkscape:connector-curvature="0"
                 style="fill:url(#linearGradient1280);stroke-width:0.17215768"
                 id="path4816"
                 d="m 373.15556,517.54064 v 0.68864 h 0.67149 c 0.006,0 0.0112,-0.003 0.0171,-0.003 v 0.003 h 0.17216 v -0.68864 h -0.17216 v 0.003 c -0.006,-6.9e-4 -0.011,-0.003 -0.0171,-0.003 z"
                 transform="matrix(0.88115869,0,0,0.88115869,44.735958,60.502632)" />
              <path
                 inkscape:connector-curvature="0"
                 style="fill:#afc0c6;stroke-width:0.17215768"
                 id="path4820"
                 d="m 372.46693,518.57359 c -0.0954,0 -0.17216,0.0768 -0.17216,0.17216 v 0.34431 c 0,0.0954 0.0768,0.17216 0.17216,0.17216 h 0.17216 v -0.68863 z"
                 transform="matrix(0.88115869,0,0,0.88115869,44.735958,60.502632)" />
              <path
                 inkscape:connector-curvature="0"
                 style="fill:url(#linearGradient4824-8);stroke-width:0.17215768"
                 id="path4822-0"
                 d="m 373.15556,518.57359 v 0.68863 h 0.67149 c 0.006,0 0.0112,-0.003 0.0171,-0.003 v 0.003 h 0.17216 v -0.68863 h -0.17216 v 0.003 c -0.006,-6.9e-4 -0.011,-0.003 -0.0171,-0.003 z"
                 transform="matrix(0.88115869,0,0,0.88115869,44.735958,60.502632)" />
              <path
                 inkscape:connector-curvature="0"
                 style="fill:#afc0c6;stroke-width:0.17215768"
                 id="path4826"
                 d="m 372.46693,519.60654 c -0.0954,0 -0.17216,0.0768 -0.17216,0.17215 v 0.34432 c 0,0.0954 0.0768,0.17216 0.17216,0.17216 h 0.17216 v -0.68863 z"
                 transform="matrix(0.88115869,0,0,0.88115869,44.735958,60.502632)" />
              <path
                 inkscape:connector-curvature="0"
                 style="fill:url(#linearGradient4830-9);stroke-width:0.17215768"
                 id="path4828-6"
                 d="m 373.15556,519.60654 v 0.68863 h 0.67149 c 0.006,0 0.0112,-0.003 0.0171,-0.003 v 0.003 h 0.17216 v -0.68863 h -0.17216 v 0.003 c -0.006,-6.8e-4 -0.011,-0.003 -0.0171,-0.003 z"
                 transform="matrix(0.88115869,0,0,0.88115869,44.735958,60.502632)" />
              <rect
                 width="0.8607884"
                 x="373.15555"
                 y="520.12299"
                 height="0.17215768"
                 style="opacity:0.08999999;stroke-width:0.17215768"
                 id="rect4832-3"
                 transform="matrix(0.88115869,0,0,0.88115869,44.735958,60.502632)" />
              <rect
                 width="0.8607884"
                 x="373.15555"
                 y="519.09009"
                 height="0.17215768"
                 style="opacity:0.08999999;stroke-width:0.17215768"
                 id="rect4834-2"
                 transform="matrix(0.88115869,0,0,0.88115869,44.735958,60.502632)" />
              <rect
                 width="0.8607884"
                 x="373.15555"
                 y="518.05713"
                 height="0.17215768"
                 style="opacity:0.08999999;stroke-width:0.17215768"
                 id="rect4836"
                 transform="matrix(0.88115869,0,0,0.88115869,44.735958,60.502632)" />
              <rect
                 width="0.8607884"
                 x="373.15555"
                 y="517.02417"
                 height="0.17215768"
                 style="opacity:0.08999999;stroke-width:0.17215768"
                 id="rect4838"
                 transform="matrix(0.88115869,0,0,0.88115869,44.735958,60.502632)" />
              <g
                 id="g949"
                 transform="matrix(0.06247197,0,0,0.06247197,378.40547,517.05914)">
                <path
                   id="path926"
                   d="M 16,11 A 14,14 0 0 0 2,25 14,14 0 0 0 16,39 14,14 0 0 0 23.992,36.477 14,14 0 0 0 32,39 14,14 0 0 0 46,25 14,14 0 0 0 32,11 14,14 0 0 0 24.008,13.523 14,14 0 0 0 16,11 Z"
                   inkscape:connector-curvature="0"
                   style="opacity:0.2" />
                <path
                   id="path928"
                   d="M 16,10 A 14,14 0 0 0 2,24 14,14 0 0 0 16,38 14,14 0 0 0 23.992,35.477 14,14 0 0 0 32,38 14,14 0 0 0 46,24 14,14 0 0 0 32,10 14,14 0 0 0 24.008,12.523 14,14 0 0 0 16,10 Z"
                   inkscape:connector-curvature="0"
                   style="fill:#19979d" />
                <path
                   id="path930"
                   d="m 16.816,18 c -0.88834,0 -1.7727,0.17787 -2.5957,0.52539 -0.82301,0.34753 -1.5746,0.8592 -2.209,1.5059 -0.63432,0.64667 -1.1424,1.4203 -1.4883,2.2715 -0.345,0.851 -0.523,1.769 -0.523,2.693 0,0.92432 0.17758,1.8421 0.52344,2.6934 0.34588,0.85121 0.85396,1.6248 1.4883,2.2715 0.63434,0.64665 1.386,1.1583 2.209,1.5059 0.8042,0.3396 1.6674,0.51547 2.5352,0.52344 0.0205,7.42e-4 0.04015,0.0012 0.06055,0.002 2.1101,0.09994 3.8103,-0.73742 5.0547,-1.9531 0.85065,-0.83103 1.519,-1.8124 2.1289,-2.8125 0.60993,1.0001 1.2782,1.9815 2.1289,2.8125 1.2444,1.2157 2.9446,2.053 5.0547,1.9531 0.0204,-7.42e-4 0.04005,-9.81e-4 0.06055,-0.002 0.86777,-0.0074 1.729,-0.18384 2.5332,-0.52344 0.82301,-0.34752 1.5766,-0.8592 2.2109,-1.5059 l 0.0039,-0.0078 c 0.63171,-0.64549 1.1395,-1.415 1.4844,-2.2637 0.345,-0.851 0.523,-1.769 0.523,-2.693 0,-0.92433 -0.17759,-1.8422 -0.52344,-2.6934 l -0.0059,-0.01172 c -0.346,-0.846 -0.852,-1.616 -1.483,-2.26 -0.634,-0.646 -1.386,-1.158 -2.209,-1.506 -0.823,-0.347 -1.707,-0.525 -2.595,-0.525 -2.2231,0 -3.9788,0.91425 -5.2754,2.1855 -0.75,0.734 -1.358,1.574 -1.909,2.433 -0.551,-0.859 -1.159,-1.699 -1.908,-2.433 -1.297,-1.272 -3.053,-2.186 -5.276,-2.186 z m -0.02344,2 c 1.7735,0 2.9063,0.63555 3.9453,1.6875 0.82362,0.83385 1.5458,1.9682 2.2617,3.2051 -0.81704,1.4451 -1.6067,2.765 -2.4941,3.6602 -0.97826,0.98682 -1.992,1.531 -3.6484,1.4355 h -0.06445 c -0.63169,0 -1.2685,-0.13332 -1.8496,-0.38672 -0.57334,-0.25 -1.1024,-0.62145 -1.5391,-1.0762 L 13.38633,28.5078 c -0.44,-0.462 -0.794,-1.02 -1.03,-1.618 -0.235,-0.599 -0.357,-1.251 -0.357,-1.895 0,-0.64429 0.12199,-1.2963 0.35742,-1.8945 0.23541,-0.59829 0.58922,-1.154 1.0293,-1.6172 l 0.01758,-0.01953 c 0.43666,-0.45472 0.96573,-0.82618 1.5391,-1.0762 0.581,-0.253 1.217,-0.386 1.849,-0.386 z m 14.414,0 c 0.6317,0 1.2685,0.13332 1.8496,0.38672 0.57333,0.25 1.1024,0.62145 1.5391,1.0762 l 0.01758,0.01953 c 0.44008,0.46323 0.79389,1.0189 1.0293,1.6172 0.235,0.598 0.357,1.25 0.357,1.894 0,0.64431 -0.12199,1.2962 -0.35742,1.8945 -0.23541,0.59828 -0.58921,1.1559 -1.0293,1.6191 l -0.01758,0.01758 c -0.43666,0.45472 -0.96573,0.82617 -1.5391,1.0762 -0.58114,0.2534 -1.2179,0.38672 -1.8496,0.38672 h -0.06445 c -1.656,0.095 -2.67,-0.449 -3.648,-1.436 -0.887,-0.895 -1.677,-2.215 -2.494,-3.66 0.716,-1.237 1.438,-2.372 2.262,-3.205 1.039,-1.052 2.172,-1.688 3.945,-1.688 z m -1.207,2 v 2 h -2 v 2 h 2 v 2 h 2 v -2 h 2 v -2 h -2 v -2 z m -16,2 v 2 h 6 v -2 z"
                   inkscape:connector-curvature="0"
                   style="opacity:0.2" />
                <path
                   id="path932"
                   d="m 16.816,17 c -0.88834,0 -1.7727,0.17787 -2.5957,0.52539 -0.82301,0.34753 -1.5746,0.8592 -2.209,1.5059 -0.63432,0.64667 -1.1424,1.4203 -1.4883,2.2715 -0.345,0.851 -0.523,1.769 -0.523,2.693 0,0.92432 0.17758,1.8421 0.52344,2.6934 0.34588,0.85121 0.85396,1.6248 1.4883,2.2715 0.63434,0.64665 1.386,1.1583 2.209,1.5059 0.8042,0.3396 1.6674,0.51547 2.5352,0.52344 0.0205,7.42e-4 0.04015,0.0012 0.06055,0.002 2.1101,0.09994 3.8103,-0.73742 5.0547,-1.9531 0.85065,-0.83103 1.519,-1.8124 2.1289,-2.8125 0.60993,1.0001 1.2782,1.9815 2.1289,2.8125 1.2444,1.2157 2.9446,2.053 5.0547,1.9531 0.0204,-7.42e-4 0.04005,-9.81e-4 0.06055,-0.002 0.86777,-0.0074 1.729,-0.18384 2.5332,-0.52344 0.82301,-0.34752 1.5766,-0.8592 2.2109,-1.5059 l 0.0039,-0.0078 c 0.63171,-0.64549 1.1395,-1.415 1.4844,-2.2637 0.345,-0.851 0.523,-1.769 0.523,-2.693 0,-0.92433 -0.17759,-1.8422 -0.52344,-2.6934 l -0.0059,-0.01172 c -0.346,-0.846 -0.852,-1.616 -1.483,-2.26 -0.634,-0.646 -1.386,-1.158 -2.209,-1.506 -0.823,-0.347 -1.707,-0.525 -2.595,-0.525 -2.2231,0 -3.9788,0.91425 -5.2754,2.1855 -0.75,0.734 -1.358,1.574 -1.909,2.433 -0.551,-0.859 -1.159,-1.699 -1.908,-2.433 -1.297,-1.272 -3.053,-2.186 -5.276,-2.186 z m -0.02344,2 c 1.7735,0 2.9063,0.63555 3.9453,1.6875 0.82362,0.83385 1.5458,1.9682 2.2617,3.2051 -0.81704,1.4451 -1.6067,2.765 -2.4941,3.6602 -0.97826,0.98682 -1.992,1.531 -3.6484,1.4355 h -0.06445 c -0.63169,0 -1.2685,-0.13332 -1.8496,-0.38672 -0.57334,-0.25 -1.1024,-0.62145 -1.5391,-1.0762 L 13.38633,27.5078 c -0.44,-0.462 -0.794,-1.02 -1.03,-1.618 -0.235,-0.599 -0.357,-1.251 -0.357,-1.895 0,-0.64429 0.12199,-1.2963 0.35742,-1.8945 0.23541,-0.59829 0.58922,-1.154 1.0293,-1.6172 l 0.01758,-0.01953 c 0.43666,-0.45472 0.96573,-0.82618 1.5391,-1.0762 0.581,-0.253 1.217,-0.386 1.849,-0.386 z m 14.414,0 c 0.6317,0 1.2685,0.13332 1.8496,0.38672 0.57333,0.25 1.1024,0.62145 1.5391,1.0762 l 0.01758,0.01953 c 0.44008,0.46323 0.79389,1.0189 1.0293,1.6172 0.235,0.598 0.357,1.25 0.357,1.894 0,0.64431 -0.12199,1.2962 -0.35742,1.8945 -0.23541,0.59828 -0.58921,1.1559 -1.0293,1.6191 l -0.01758,0.01758 c -0.43666,0.45472 -0.96573,0.82617 -1.5391,1.0762 -0.58114,0.2534 -1.2179,0.38672 -1.8496,0.38672 h -0.06445 c -1.656,0.095 -2.67,-0.449 -3.648,-1.436 -0.887,-0.895 -1.677,-2.215 -2.494,-3.66 0.716,-1.237 1.438,-2.372 2.262,-3.205 1.039,-1.052 2.172,-1.688 3.945,-1.688 z m -1.207,2 v 2 h -2 v 2 h 2 v 2 h 2 v -2 h 2 v -2 h -2 v -2 z m -16,2 v 2 h 6 v -2 z"
                   inkscape:connector-curvature="0"
                   style="fill:#79ff88" />
                <path
                   id="path934"
                   d="M 16,10 A 14,14 0 0 0 2,24 14,14 0 0 0 2.0215,24.414 14,14 0 0 1 15.9995,11 a 14,14 0 0 1 8.008,2.523 14,14 0 0 1 7.992,-2.523 14,14 0 0 1 13.979,13.586 14,14 0 0 0 0.021,-0.586 14,14 0 0 0 -14,-14 14,14 0 0 0 -7.992,2.523 A 14,14 0 0 0 15.9995,10 Z"
                   inkscape:connector-curvature="0"
                   style="opacity:0.2;fill:#ffffff" />
              </g>
              <g
                 transform="matrix(0.61546864,0,0,0.61546864,152.02602,198.5988)"
                 id="g1041">
                <path
                   id="path939"
                   class="ColorScheme-Text"
                   d="m 364.02377,515.00224 c -1.15042,2e-5 -2.08301,0.93261 -2.08303,2.08303 -1e-5,1.15044 0.93259,2.08306 2.08303,2.08308 1.15046,10e-6 2.08309,-0.93262 2.08308,-2.08308 -2e-5,-1.15044 -0.93264,-2.08304 -2.08308,-2.08303 z m 0,4.9993 c -1.61062,10e-6 -2.91628,1.49221 -2.91627,3.33292 h 5.83259 c 10e-6,-1.84073 -1.30568,-3.33295 -2.91632,-3.33292 z m 0,0.83324 c 0.8817,10e-4 1.66714,0.66891 1.96104,1.66644 h -3.92203 c 0.2939,-0.99751 1.0793,-1.66495 1.96099,-1.66644 z"
                   style="color:#232629;fill:url(#linearGradient912);fill-opacity:1;stroke:none;stroke-width:0.8332231"
                   inkscape:connector-curvature="0"
                   sodipodi:nodetypes="ccccccccccccc" />
                <g
                   id="g1034"
                   transform="matrix(1.7615184,0,0,1.7615184,-270.17271,-383.89316)">
                  <path
                     sodipodi:nodetypes="sccccsccccs"
                     inkscape:connector-curvature="0"
                     style="color:#232629;fill:currentColor;fill-opacity:1;stroke:none;stroke-width:0.20830628"
                     d="m 362.99283,509.16964 c -0.25285,0 -0.46223,0.1783 -0.51019,0.41661 h -1.26041 v 0.20831 h 1.26041 c 0.048,0.23832 0.25734,0.41661 0.51019,0.41661 0.25286,0 0.46224,-0.17829 0.51019,-0.41661 h 1.05211 v -0.20831 h -1.05211 c -0.048,-0.23831 -0.25733,-0.41661 -0.51019,-0.41661 z"
                     class="ColorScheme-Text"
                     id="path927" />
                  <path
                     sodipodi:nodetypes="sssccccssssss"
                     inkscape:connector-curvature="0"
                     style="color:#232629;fill:currentColor;fill-opacity:1;stroke:none;stroke-width:0.20830628"
                     d="m 361.74299,511.46102 c -0.2885,0 -0.52076,0.23226 -0.52076,0.52077 0,0.2885 0.23226,0.52076 0.52076,0.52076 0.25286,0 0.46224,-0.17829 0.51019,-0.41661 h 2.30195 v -0.20831 h -2.30195 c -0.048,-0.23831 -0.25733,-0.41661 -0.51019,-0.41661 z m 0,0.20831 c 0.17311,0 0.31246,0.13935 0.31246,0.31246 0,0.1731 -0.13935,0.31246 -0.31246,0.31246 -0.1731,0 -0.31245,-0.13936 -0.31245,-0.31246 0,-0.17311 0.13935,-0.31246 0.31245,-0.31246 z"
                     class="ColorScheme-Text"
                     id="path927-7" />
                  <path
                     inkscape:connector-curvature="0"
                     id="path927-5"
                     d="m 363.66047,510.31533 c -0.25271,0 -0.46209,0.17849 -0.51019,0.41661 h -1.92805 v 0.20831 h 1.92805 c 0.048,0.23831 0.25734,0.41661 0.51019,0.41661 0.25286,0 0.46224,-0.17829 0.51019,-0.41661 h 0.38447 v -0.20831 h -0.38447 c -0.048,-0.23831 -0.25733,-0.41661 -0.51019,-0.41661 z m 0,0.20831 c 0.17311,0 0.31246,0.13935 0.31246,0.31246 0,0.1731 -0.13935,0.31246 -0.31246,0.31246 -0.1731,0 -0.31246,-0.13936 -0.31246,-0.31246 0,-0.17311 0.13936,-0.31246 0.31246,-0.31246 z"
                     style="color:#232629;fill:currentColor;fill-opacity:1;stroke:none;stroke-width:0.20830628" />
                  <ellipse
                     ry="0.42569101"
                     rx="0.420403"
                     cy="510.83218"
                     cx="363.65918"
                     id="path1215"
                     style="opacity:1;fill:none;fill-opacity:1;stroke:#e7b037;stroke-width:0.06148359;stroke-linecap:butt;stroke-linejoin:bevel;stroke-miterlimit:4;stroke-dasharray:none;stroke-dashoffset:0;stroke-opacity:1;paint-order:normal" />
                </g>
              </g>
            </g>
          </g>
        </g>
      </g>
    </g>
  </g>
</svg>
