<?xml version="1.0" encoding="UTF-8" standalone="no"?>
<svg
   xmlns:dc="http://purl.org/dc/elements/1.1/"
   xmlns:cc="http://creativecommons.org/ns#"
   xmlns:rdf="http://www.w3.org/1999/02/22-rdf-syntax-ns#"
   xmlns:svg="http://www.w3.org/2000/svg"
   xmlns="http://www.w3.org/2000/svg"
   xmlns:xlink="http://www.w3.org/1999/xlink"
   xmlns:sodipodi="http://sodipodi.sourceforge.net/DTD/sodipodi-0.dtd"
   xmlns:inkscape="http://www.inkscape.org/namespaces/inkscape"
   viewBox="0 0 64 64"
   version="1.1"
   id="svg6"
   sodipodi:docname="flir-camera.svg"
   width="64"
   height="64"
   inkscape:version="0.92.4 (5da689c313, 2019-01-14)">
  <metadata
     id="metadata10">
    <rdf:RDF>
      <cc:Work
         rdf:about="">
        <dc:format>image/svg+xml</dc:format>
        <dc:type
           rdf:resource="http://purl.org/dc/dcmitype/StillImage" />
        <dc:title />
      </cc:Work>
    </rdf:RDF>
  </metadata>
  <sodipodi:namedview
     pagecolor="#ffffff"
     bordercolor="#666666"
     borderopacity="1"
     objecttolerance="10"
     gridtolerance="10"
     guidetolerance="10"
     inkscape:pageopacity="0"
     inkscape:pageshadow="2"
     inkscape:window-width="1920"
     inkscape:window-height="1021"
     id="namedview8"
     showgrid="false"
     inkscape:zoom="5.6568543"
     inkscape:cx="19.284291"
     inkscape:cy="2.7892231"
     inkscape:window-x="0"
     inkscape:window-y="0"
     inkscape:window-maximized="1"
     inkscape:current-layer="g939"
     fit-margin-top="0"
     fit-margin-left="0"
     fit-margin-right="0"
     fit-margin-bottom="0" />
  <defs
     id="defs3051">
    <style
       type="text/css"
       id="current-color-scheme">
      .ColorScheme-Text {
        color:#232629;
      }
      </style>
    <style
       type="text/css"
       id="current-color-scheme-3">
   .ColorScheme-Text { color:#444444; } .ColorScheme-Highlight { color:#4285f4; }
  </style>
    <linearGradient
       id="linearGradient906"
       inkscape:collect="always">
      <stop
         id="stop902"
         offset="0"
         style="stop-color:#1496a3;stop-opacity:1;" />
      <stop
         id="stop904"
         offset="1"
         style="stop-color:#49acdc;stop-opacity:1" />
    </linearGradient>
    <style
       id="current-color-scheme-35"
       type="text/css">
      .ColorScheme-Text {
        color:#232629;
      }
      </style>
    <style
       id="current-color-scheme-3-6"
       type="text/css">
   .ColorScheme-Text { color:#444444; } .ColorScheme-Highlight { color:#4285f4; }
  </style>
    <linearGradient
       xlink:href="#a"
       gradientUnits="userSpaceOnUse"
       gradientTransform="matrix(-0.56857126,0,0,0.26021881,262.47987,-72.68955)"
       y2="500.79999"
       y1="592.65997"
       x2="399.07001"
       x1="399.07001"
       id="c" />
    <linearGradient
       id="a">
      <stop
         id="stop2"
         offset="0"
         stop-color="#94a2a9" />
      <stop
         id="stop4"
         offset="1"
         stop-color="#bec8cc" />
    </linearGradient>
    <linearGradient
       y2="40"
       x2="38"
       y1="30"
       x1="28"
       gradientTransform="matrix(-0.73063296,0,0,0.73063296,48.347374,46.899674)"
       gradientUnits="userSpaceOnUse"
       id="linearGradient1090"
       xlink:href="#d"
       inkscape:collect="always" />
    <linearGradient
       gradientUnits="userSpaceOnUse"
       y2="40"
       y1="30"
       x2="38"
       x1="28"
       id="d"
       gradientTransform="matrix(-0.70689657,0,0,0.70689657,50.123255,46.186382)">
      <stop
         id="stop25"
         offset="0"
         stop-color="#292c2f" />
      <stop
         id="stop27"
         offset="1"
         stop-opacity=".26531"
         stop-color="#292c2f" />
    </linearGradient>
    <linearGradient
       xlink:href="#a"
       gradientUnits="userSpaceOnUse"
       gradientTransform="matrix(-0.32627338,0,0,0.70689657,33.375833,46.186394)"
       y2="25"
       y1="49"
       x2="54"
       x1="54"
       id="g" />
    <linearGradient
       gradientUnits="userSpaceOnUse"
       gradientTransform="matrix(0.28275863,0,0,-0.54981001,4.7404957,89.935502)"
       y2="41"
       y1="23"
       x2="50.5"
       x1="50.5"
       id="e">
      <stop
         id="stop12"
         offset="0"
         stop-color="#2f3943" />
      <stop
         id="stop14"
         offset="1"
         stop-color="#4d5662" />
    </linearGradient>
    <linearGradient
       gradientUnits="userSpaceOnUse"
       gradientTransform="matrix(-0.32847363,0,0,0.34126139,174.2967,-113.06328)"
       y2="505.79999"
       y1="557.79999"
       x2="0"
       id="h">
      <stop
         id="stop7"
         offset="0"
         stop-color="#197cf1" />
      <stop
         id="stop9"
         offset="1"
         stop-color="#20bcfa" />
    </linearGradient>
    <linearGradient
       gradientUnits="userSpaceOnUse"
       y2="76.785118"
       x2="31.910191"
       y1="68.477585"
       x1="39.586075"
       id="linearGradient908"
       xlink:href="#linearGradient906"
       inkscape:collect="always" />
    <linearGradient
       id="linearGradient876"
       inkscape:collect="always">
      <stop
         id="stop872"
         offset="0"
         style="stop-color:#da4453;stop-opacity:1" />
      <stop
         id="stop874"
         offset="1"
         style="stop-color:#3daee9;stop-opacity:1" />
    </linearGradient>
    <style
       id="current-color-scheme-0"
       type="text/css">
      .ColorScheme-Text {
        color:#232629;
      }
      </style>
    <style
       id="current-color-scheme-3-9"
       type="text/css">
   .ColorScheme-Text { color:#444444; } .ColorScheme-Highlight { color:#4285f4; }
  </style>
    <linearGradient
       gradientUnits="userSpaceOnUse"
       gradientTransform="matrix(-0.70689657,0,0,0.70689657,48.709462,47.600175)"
       y2="11"
       y1="19"
       x2="44"
       x1="44"
       id="b">
      <stop
         id="stop18"
         offset="0"
         stop-color="#2f3943" />
      <stop
         id="stop20"
         offset="1"
         stop-color="#535d6a" />
    </linearGradient>
    <linearGradient
       gradientUnits="userSpaceOnUse"
       gradientTransform="matrix(-0.32847363,0,0,0.34126139,174.2967,-113.06328)"
       y2="505.79999"
       y1="557.79999"
       x2="0"
       id="h-3">
      <stop
         id="stop7-6"
         offset="0"
         stop-color="#197cf1" />
      <stop
         id="stop9-0"
         offset="1"
         stop-color="#20bcfa" />
    </linearGradient>
    <linearGradient
       xlink:href="#a"
       gradientUnits="userSpaceOnUse"
       gradientTransform="matrix(-0.70689657,0,0,0.70689657,50.830151,47.600175)"
       y2="13"
       y1="22"
       x2="24"
       x1="24"
       id="f" />
    <linearGradient
       y2="40"
       x2="38"
       y1="30"
       x1="28"
       gradientTransform="matrix(-0.70689657,0,0,0.70689657,50.123255,43.822697)"
       gradientUnits="userSpaceOnUse"
       id="linearGradient1072"
       xlink:href="#d"
       inkscape:collect="always" />
    <linearGradient
       id="a-3"
       y1="392.36"
       y2="324.66"
       gradientUnits="userSpaceOnUse"
       x2="0"
       gradientTransform="matrix(1,0,0,0.84587,-1,-272.73)">
      <stop
         stop-color="#ffffff"
         stop-opacity="0"
         id="stop882" />
      <stop
         offset="1"
         stop-color="#ffffff"
         stop-opacity=".2"
         id="stop884" />
    </linearGradient>
    <path
       color-rendering="auto"
       color-interpolation-filters="linearRGB"
       shape-rendering="auto"
       image-rendering="auto"
       text-rendering="auto"
       id="b-6"
       color-interpolation="sRGB"
       color="#000000"
       d="m3 17v44h58v-44h-18.455z" />
    <linearGradient
       inkscape:collect="always"
       xlink:href="#a"
       id="linearGradient1025"
       gradientUnits="userSpaceOnUse"
       gradientTransform="matrix(-1.0066839,0,0,0.46073044,428.04502,-218.64353)"
       x1="399.07001"
       y1="592.65997"
       x2="399.07001"
       y2="500.79999" />
    <linearGradient
       inkscape:collect="always"
       xlink:href="#a"
       id="linearGradient1027"
       gradientUnits="userSpaceOnUse"
       gradientTransform="matrix(-0.45518657,0,0,1.3644488,16.214176,-17.221266)"
       x1="54"
       y1="49"
       x2="54"
       y2="25" />
    <linearGradient
       inkscape:collect="always"
       xlink:href="#e"
       id="linearGradient1029"
       gradientUnits="userSpaceOnUse"
       gradientTransform="matrix(0.3944788,0,0,-1.061241,-23.735209,67.223078)"
       x1="50.5"
       y1="23"
       x2="50.5"
       y2="41" />
    <radialGradient
       inkscape:collect="always"
       xlink:href="#linearGradient876"
       id="radialGradient1031"
       cx="37.208691"
       cy="73.038658"
       fx="37.208691"
       fy="73.038658"
       r="6.7155175"
       gradientTransform="matrix(0.37091423,-0.46353744,1.7547289,0.34982288,-104.75559,61.816591)"
       gradientUnits="userSpaceOnUse" />
    <radialGradient
       inkscape:collect="always"
       xlink:href="#linearGradient876"
       id="radialGradient2499"
       gradientUnits="userSpaceOnUse"
       gradientTransform="matrix(0.43699757,-0.43947902,2.0673574,0.33166645,-129.11979,61.80692)"
       cx="37.208691"
       cy="73.038658"
       fx="37.208691"
       fy="73.038658"
       r="6.7155175" />
  </defs>
  <g
     id="g939"
     transform="matrix(-1,0,0,1,56,0)">
    <g
       id="g2644"
       transform="translate(5.6249995,-1.250004)">
      <circle
         r="1.2936223"
         style="fill:#ff0000;fill-opacity:0.96684002;stroke-width:1.29362226"
         cx="-12.080787"
         cy="31.126862"
         id="ellipse40-7"
         transform="scale(-1,1)" />
      <path
         inkscape:connector-curvature="0"
         style="fill:url(#linearGradient1025);stroke-width:1.45114553"
         d="m 44.421337,12.087952 c 2.150001,0 3.880867,2.178065 3.880867,4.88355 v 32.557003 c 0,2.705486 -1.730866,4.883551 -3.880867,4.883551 H 3.0254244 c -2.15000019,0 -3.88086518,-2.178065 -3.88086518,-4.883551 V 16.971502 c 0,-2.705485 1.73086499,-4.88355 3.88086518,-4.88355 z"
         id="path42-5" />
      <path
         inkscape:connector-curvature="0"
         style="fill:url(#linearGradient1027);stroke-width:0.78808552"
         d="m -10.186645,16.889932 6.3726132,6.795636 v 19.102283 l -6.3726132,6.848852 -1.365558,-0.02664 v -32.74677 z"
         id="path38-2" />
      <path
         inkscape:connector-curvature="0"
         style="fill:url(#linearGradient1029);stroke-width:0.8202523;stroke-linecap:round"
         d="M -3.8140318,42.814459 V 23.712176 h 2.95859138 v 19.102283 h -1.39e-6 z"
         id="path46-2" />
      <g
         inkscape:transform-center-y="-18.031223"
         inkscape:transform-center-x="-10.253048"
         transform="rotate(-90,14.995517,6.7297719)"
         id="g2622">
        <path
           style="fill:#da4453;fill-opacity:0.96684002;stroke-width:1.46221399"
           inkscape:connector-curvature="0"
           d="m 3.3108727,-5.1468944 a 1.4622141,1.4622141 0 0 1 2.067863,0 1.4622141,1.4622141 0 0 1 0,2.0678628 1.4622141,1.4622141 0 0 1 -2.067863,0 1.4622141,1.4622141 0 0 1 0,-2.0678628 z"
           id="path54-7" />
        <path
           style="fill:#31363b;fill-opacity:0.96684002;stroke-width:1.46221399"
           inkscape:connector-curvature="0"
           d="M 4.3446578,0.27353398 A 1.4622141,1.4622141 0 0 1 5.806872,1.7357489 1.4622141,1.4622141 0 0 1 4.3446578,3.1979618 1.4622141,1.4622141 0 0 1 2.8824439,1.7357489 1.4622141,1.4622141 0 0 1 4.3446578,0.27353398 Z"
           id="path56-3" />
        <path
           style="fill:#31363b;fill-opacity:0.96684002;stroke-width:1.46221399"
           inkscape:connector-curvature="0"
           d="M 4.3446578,6.1223897 A 1.4622141,1.4622141 0 0 1 5.806872,7.5846046 1.4622141,1.4622141 0 0 1 4.3446578,9.0468175 1.4622141,1.4622141 0 0 1 2.8824439,7.5846046 1.4622141,1.4622141 0 0 1 4.3446578,6.1223897 Z"
           id="path58-6" />
      </g>
      <g
         id="g2617">
        <g
           id="g2503"
           transform="matrix(2.0684979,0,0,2.0684979,-56.533232,-98.330926)">
          <path
             id="path48"
             d="m 46.690078,67.094167 v 4.683408 H 30.866124 v -4.683408 z"
             style="fill:url(#radialGradient2499);fill-opacity:1;stroke-width:0.82838327"
             inkscape:connector-curvature="0" />
          <path
             inkscape:connector-curvature="0"
             style="fill:#31363b;stroke-width:1.24682415"
             d="m 46.561886,66.686383 c 0.39162,0 0.706896,0.315276 0.706896,0.706897 v 3.786063 c 0,0.39162 -0.315276,0.706896 -0.706896,0.706896 H 31.037047 c -0.391621,0 -0.706897,-0.315276 -0.706897,-0.706896 V 67.39328 c 0,-0.391621 0.315276,-0.706897 0.706897,-0.706897 z m 0,0.706897 H 31.037047 v 3.786063 h 15.524839 z"
             id="path52"
             sodipodi:nodetypes="sssssssssccccc" />
        </g>
      </g>
      <path
         inkscape:connector-curvature="0"
         style="opacity:0.4;fill:#292c2f;stroke-width:1.29362226"
         d="m 48.302204,49.237568 v 1.293621 c 0,2.15 -1.730866,3.880867 -3.880867,3.880867 H 3.0254244 c -2.15000019,0 -3.88086518,-1.730867 -3.88086518,-3.880867 v -1.293621 c 0,2.149999 1.73086499,3.880867 3.88086518,3.880867 H 44.421337 c 2.150001,0 3.880867,-1.730868 3.880867,-3.880867 z"
         id="path62-1" />
      <g
         style="fill:#000000"
         transform="matrix(-0.01519876,0,0,-0.01519876,46.98166,37.422893)"
         id="g12">
        <path
           inkscape:connector-curvature="0"
           id="path14"
           style="fill:#000000;fill-opacity:1;fill-rule:nonzero;stroke:none"
           d="M 831.008,855.953 H 1332.76 V 676.293 H 1060.1 v -65.379 h 171.76 l -0.44,-162.652 H 1060.1 V 228.316 H 831.008 v 627.637" />
        <path
           inkscape:connector-curvature="0"
           id="path16"
           style="fill:#000000;fill-opacity:1;fill-rule:nonzero;stroke:none"
           d="M 1635.71,855.586 V 377.648 h 247.79 v -148.46 h -469.7 v 626.398 h 221.91" />
        <path
           inkscape:connector-curvature="0"
           id="path18"
           style="fill:#000000;fill-opacity:1;fill-rule:nonzero;stroke:none"
           d="M 2206.94,855.586 V 229.188 h -221.91 v 626.398 h 221.91" />
        <path
           inkscape:connector-curvature="0"
           id="path20"
           style="fill:#000000;fill-opacity:1;fill-rule:nonzero;stroke:none"
           d="m 2828.66,501.836 c 17.91,6.707 34.52,15.75 49.92,27.09 20.81,15.558 37.25,35.23 49.33,58.972 12.07,23.754 18.12,48.465 18.12,74.102 0,23.121 -5.17,45.703 -15.37,67.773 -10.24,22.082 -24.78,41.719 -43.54,58.973 -25.51,23.527 -56.11,40.551 -91.84,51.07 -35.72,10.504 -79.91,15.77 -132.53,15.77 H 2316.8 V 229.188 h 221.91 v 239.375 l 213.48,-239.375 h 276.7 L 2760,484.809 c 27.86,4.597 50.74,10.289 68.66,17.027 z M 2538.71,730.59 h 41.71 c 47.19,0 81.09,-7.113 101.76,-21.289 10.1,-6.688 18.2,-15.348 24.31,-26.008 6.08,-10.641 9.18,-20.75 9.18,-30.34 0,-10.015 -3.16,-20.344 -9.47,-30.996 -6.33,-10.641 -14.33,-19.305 -24.02,-25.98 -20.67,-14.196 -54.57,-21.286 -101.76,-21.286 l -41.71,0.239 v 155.66" />
        <path
           inkscape:connector-curvature="0"
           id="path22"
           style="fill:#000000;fill-opacity:1;fill-rule:nonzero;stroke:none"
           d="M 536.715,523.582 353.453,340.336 170.191,523.594 353.453,706.855 536.715,523.605 706.871,693.773 353.453,1047.2 0,693.746 170.16,523.594 0,353.43 353.453,0 706.871,353.426 536.715,523.582" />
        <path
           inkscape:connector-curvature="0"
           id="path24"
           style="fill:#000000;fill-opacity:1;fill-rule:nonzero;stroke:none"
           d="m 2984.58,808.449 h 12.13 c 5.79,0 8.5,4.324 8.5,9.446 0,4.187 -2.14,8.906 -8.5,8.906 h -12.13 z m 0,-33.594 h -9.46 v 58.422 h 23.21 c 11.21,0 16.34,-7.289 16.34,-14.566 0,-6.887 -5.28,-12.148 -12.7,-13.496 v -0.27 c 7.3,-0.812 9.85,-3.101 10.27,-14.843 0.11,-2.567 0.95,-11.61 2.28,-15.247 h -9.31 c -2.29,4.047 -1.76,11.598 -2.41,19.43 -0.68,6.207 -6.09,6.606 -8.78,6.606 h -9.44 z m -33.75,29.278 c 0,-24.024 19.3,-43.18 43.34,-43.18 24.01,0 43.03,19.156 43.03,43.18 0,23.883 -19.02,43.18 -43.03,43.18 -24.04,0 -43.34,-19.297 -43.34,-43.18 z m 93.93,0.137 c 0,-28.332 -22.66,-50.868 -50.59,-50.868 -28.07,0 -50.89,22.536 -50.89,50.868 0,28.062 22.82,50.597 50.89,50.597 27.93,0 50.59,-22.535 50.59,-50.597" />
      </g>
    </g>
  </g>
</svg>
