<?xml version="1.0" encoding="UTF-8"?>
<svg width="64" height="64" version="1.1" viewBox="0 0 64 64" xmlns="http://www.w3.org/2000/svg" xmlns:cc="http://creativecommons.org/ns#" xmlns:dc="http://purl.org/dc/elements/1.1/" xmlns:rdf="http://www.w3.org/1999/02/22-rdf-syntax-ns#" xmlns:xlink="http://www.w3.org/1999/xlink">
  <metadata>
    <rdf:RDF>
      <cc:Work rdf:about="">
        <dc:format>image/svg+xml</dc:format>
        <dc:type rdf:resource="http://purl.org/dc/dcmitype/StillImage"/>
      </cc:Work>
    </rdf:RDF>
  </metadata>
  <defs>
    <style id="current-color-scheme" type="text/css">.ColorScheme-Text {
        color:#232629;
      }</style>
    <style type="text/css">.ColorScheme-Text { color:#444444; } .ColorScheme-Highlight { color:#4285f4; }</style>
    <linearGradient id="linearGradient5193" x1="384.57" x2="409.57" y1="540.8" y2="521.8" gradientTransform="translate(-6 4)" gradientUnits="userSpaceOnUse">
      <stop stop-color="#197cf1" offset="0"/>
      <stop stop-color="#21c9fb" offset="1"/>
    </linearGradient>
    <linearGradient id="linearGradient4903">
      <stop stop-color="#eef1f2" offset="0"/>
      <stop stop-color="#f9fafb" offset="1"/>
    </linearGradient>
    <linearGradient id="linearGradient5324" x1="401.57" x2="384.57" y1="537.24" y2="507.8" gradientTransform="translate(-4 5)" gradientUnits="userSpaceOnUse" xlink:href="#linearGradient4903"/>
    <linearGradient id="linearGradient5464" x1="432.57" x2="412.57" y1="539.8" y2="503.8" gradientTransform="translate(-10 4)" gradientUnits="userSpaceOnUse">
      <stop stop-color="#c6cdd1" offset="0"/>
      <stop stop-color="#e0e5e7" offset="1"/>
    </linearGradient>
    <linearGradient id="linearGradient5324-8" x1="384.57" x2="396.33" y1="536.8" y2="509.3" gradientTransform="matrix(-1 0 0 1 805.14 5)" gradientUnits="userSpaceOnUse" xlink:href="#linearGradient4903"/>
    <style type="text/css">.ColorScheme-Text {
        color:#232629;
      }</style>
  </defs>
  <g transform="matrix(1.824 0 0 1.824 -766.47 -929.1)">
    <g transform="matrix(.99372 0 0 .99372 39.712 -1.5235)">
      <g fill-rule="evenodd">
        <path d="m397.57 530.8h6v2l-6 6z" fill="#2980b9"/>
        <path d="m397.57 537.8 6-6v1l-6 6z" fill="#289769"/>
        <path d="m384.57 544.8h14v-9l5-5-5-5v-8h-14z" fill="url(#linearGradient5193)"/>
        <path d="m408.57 523.8h-6v4l6 6z" fill="#99a1a7"/>
        <path d="m408.57 532.8-6-6v1l6 6z" fill="#289769"/>
        <path d="m416.57 544.8h-14v-9l5-5-5-5v-8h14z" fill="url(#linearGradient5464)"/>
      </g>
      <g stroke-linejoin="round" stroke-width=".5">
        <path d="m398.57 543.8h-14v2h14z" fill="#2980b9"/>
        <path d="m402.57 543.8h14v2h-14z" fill="#99a1a7"/>
        <path d="m402.57 544.8h14v0.99992h-14z" fill="#289769"/>
      </g>
      <path d="m384.57 519.8v1h4.5l2.5 2.7148v14.57l-2.5 2.7148h-4.5v1h5l3-3v-16l-3-3z" fill="url(#linearGradient5324)" fill-rule="evenodd" opacity=".2"/>
      <path d="m416.57 519.8v22h-5l-3-3v-16l3-3z" fill="url(#linearGradient5324-8)" fill-rule="evenodd"/>
      <g stroke-linejoin="round" stroke-width=".5">
        <rect x="402.57" y="539.8" width="2" height="2" fill="#4c5154"/>
        <rect x="402.57" y="519.8" width="2" height="2" fill="#4c5154"/>
        <path d="m384.57 544.8h14v0.99992h-14z" fill="#289769"/>
        <rect x="396.57" y="519.8" width="2" height="2" fill="#2980b9"/>
        <rect x="396.57" y="539.8" width="2" height="2" fill="#2980b9"/>
      </g>
    </g>
  </g>
</svg>
