<?xml version="1.0" encoding="UTF-8" standalone="no"?>
<svg
   xmlns:dc="http://purl.org/dc/elements/1.1/"
   xmlns:cc="http://creativecommons.org/ns#"
   xmlns:rdf="http://www.w3.org/1999/02/22-rdf-syntax-ns#"
   xmlns:svg="http://www.w3.org/2000/svg"
   xmlns="http://www.w3.org/2000/svg"
   xmlns:xlink="http://www.w3.org/1999/xlink"
   xmlns:sodipodi="http://sodipodi.sourceforge.net/DTD/sodipodi-0.dtd"
   xmlns:inkscape="http://www.inkscape.org/namespaces/inkscape"
   viewBox="0 0 64 64"
   version="1.1"
   id="svg6"
   sodipodi:docname="generic-camera.svg"
   width="64"
   height="64"
   inkscape:version="0.92.4 (5da689c313, 2019-01-14)">
  <metadata
     id="metadata10">
    <rdf:RDF>
      <cc:Work
         rdf:about="">
        <dc:format>image/svg+xml</dc:format>
        <dc:type
           rdf:resource="http://purl.org/dc/dcmitype/StillImage" />
        <dc:title />
      </cc:Work>
    </rdf:RDF>
  </metadata>
  <sodipodi:namedview
     pagecolor="#ffffff"
     bordercolor="#666666"
     borderopacity="1"
     objecttolerance="10"
     gridtolerance="10"
     guidetolerance="10"
     inkscape:pageopacity="0"
     inkscape:pageshadow="2"
     inkscape:window-width="1920"
     inkscape:window-height="1021"
     id="namedview8"
     showgrid="false"
     inkscape:zoom="8"
     inkscape:cx="9.3219201"
     inkscape:cy="32.627169"
     inkscape:window-x="0"
     inkscape:window-y="0"
     inkscape:window-maximized="1"
     inkscape:current-layer="g1106"
     fit-margin-top="0"
     fit-margin-left="0"
     fit-margin-right="0"
     fit-margin-bottom="0" />
  <defs
     id="defs3051">
    <style
       type="text/css"
       id="current-color-scheme">
      .ColorScheme-Text {
        color:#232629;
      }
      </style>
    <style
       type="text/css"
       id="current-color-scheme-3">
   .ColorScheme-Text { color:#444444; } .ColorScheme-Highlight { color:#4285f4; }
  </style>
    <linearGradient
       id="b"
       x1="44"
       x2="44"
       y1="19"
       y2="11"
       gradientTransform="matrix(-0.70689657,0,0,0.70689657,48.709462,47.600175)"
       gradientUnits="userSpaceOnUse">
      <stop
         stop-color="#2f3943"
         offset="0"
         id="stop18" />
      <stop
         stop-color="#535d6a"
         offset="1"
         id="stop20" />
    </linearGradient>
    <linearGradient
       id="h"
       x2="0"
       y1="557.79999"
       y2="505.79999"
       gradientTransform="matrix(-0.32847363,0,0,0.34126139,174.2967,-113.06328)"
       gradientUnits="userSpaceOnUse">
      <stop
         stop-color="#197cf1"
         offset="0"
         id="stop7" />
      <stop
         stop-color="#20bcfa"
         offset="1"
         id="stop9" />
    </linearGradient>
    <linearGradient
       id="e"
       x1="50.5"
       x2="50.5"
       y1="23"
       y2="41"
       gradientTransform="matrix(0.28275863,0,0,-0.54981001,4.7404957,89.935502)"
       gradientUnits="userSpaceOnUse">
      <stop
         stop-color="#2f3943"
         offset="0"
         id="stop12" />
      <stop
         stop-color="#4d5662"
         offset="1"
         id="stop14" />
    </linearGradient>
    <linearGradient
       gradientTransform="matrix(-0.70689657,0,0,0.70689657,50.123255,46.186382)"
       id="d"
       x1="28"
       x2="38"
       y1="30"
       y2="40"
       gradientUnits="userSpaceOnUse">
      <stop
         stop-color="#292c2f"
         offset="0"
         id="stop25" />
      <stop
         stop-color="#292c2f"
         stop-opacity=".26531"
         offset="1"
         id="stop27" />
    </linearGradient>
    <linearGradient
       id="c"
       x1="399.07001"
       x2="399.07001"
       y1="592.65997"
       y2="500.79999"
       gradientTransform="matrix(-0.56857126,0,0,0.26021881,262.47987,-72.68955)"
       gradientUnits="userSpaceOnUse"
       xlink:href="#a" />
    <linearGradient
       id="a">
      <stop
         stop-color="#94a2a9"
         offset="0"
         id="stop2" />
      <stop
         stop-color="#bec8cc"
         offset="1"
         id="stop4" />
    </linearGradient>
    <linearGradient
       id="g"
       x1="54"
       x2="54"
       y1="49"
       y2="25"
       gradientTransform="matrix(-0.32627338,0,0,0.70689657,33.375833,46.186394)"
       gradientUnits="userSpaceOnUse"
       xlink:href="#a" />
    <linearGradient
       id="f"
       x1="24"
       x2="24"
       y1="22"
       y2="13"
       gradientTransform="matrix(-0.70689657,0,0,0.70689657,50.830151,47.600175)"
       gradientUnits="userSpaceOnUse"
       xlink:href="#a" />
    <linearGradient
       inkscape:collect="always"
       xlink:href="#d"
       id="linearGradient1072"
       gradientUnits="userSpaceOnUse"
       gradientTransform="matrix(-0.70689657,0,0,0.70689657,50.123255,43.822697)"
       x1="28"
       y1="30"
       x2="38"
       y2="40" />
    <linearGradient
       inkscape:collect="always"
       xlink:href="#d"
       id="linearGradient1090"
       gradientUnits="userSpaceOnUse"
       gradientTransform="matrix(-0.73063296,0,0,0.73063296,50.194466,42.556512)"
       x1="28"
       y1="30"
       x2="38"
       y2="40" />
  </defs>
  <g
     id="g939"
     transform="matrix(-1,0,0,1,56,0)">
    <g
       id="g964"
       transform="matrix(1.4146341,0,0,1.4146341,-15.609755,-12.030486)">
      <g
         id="g1088"
         transform="matrix(1.396778,0,0,1.396778,-18.393577,-68.449594)">
        <g
           id="g1106"
           transform="matrix(0.89605923,0,0,0.89605923,5.3144494,8.5939654)">
          <g
             id="g1122"
             transform="translate(0.03683261,0.38829748)">
            <circle
               transform="scale(-1,1)"
               id="ellipse40"
               cy="68.379822"
               cx="-27.544846"
               style="fill:#ff0000;fill-opacity:0.96684002;stroke-width:0.73063296"
               r="0.73063296" />
            <path
               id="path42"
               d="m 45.810666,57.626717 c 1.214312,0 2.191899,1.230163 2.191899,2.758211 V 78.773 c 0,1.528048 -0.977587,2.758211 -2.191899,2.758211 H 22.430411 c -1.214312,0 -2.191898,-1.230163 -2.191898,-2.758211 V 60.384928 c 0,-1.528048 0.977586,-2.758211 2.191898,-2.758211 z"
               style="fill:url(#c);stroke-width:0.81960148"
               inkscape:connector-curvature="0" />
            <path
               sodipodi:nodetypes="cccsscccc"
               id="path44"
               d="m 29.950817,63.958942 14.915141,11.261976 -3.136607,5.577083 h -19.29894 c -1.214312,0 -2.191898,-0.977587 -2.191898,-2.191899 v -6.396196 l 6.789772,-6.789772 0.730633,0.730633 z"
               style="opacity:0.2;fill:url(#linearGradient1090);stroke-width:0.73063296"
               inkscape:connector-curvature="0" />
            <g
               transform="matrix(0.78795166,0,0,1.0901673,3.5808249,-9.2779129)"
               id="g1052">
              <path
                 inkscape:connector-curvature="0"
                 style="fill:url(#g);stroke-width:0.48025155"
                 d="m 14.451977,63.858797 4.567828,3.520698 v 9.896552 l -4.567828,3.548268 -0.978819,-0.0138 V 63.844998 Z"
                 id="path38" />
              <path
                 inkscape:connector-curvature="0"
                 style="fill:url(#e);stroke-width:0.49985364;stroke-linecap:round"
                 d="M 19.019805,77.289832 V 67.39328 h 2.12069 v 9.896552 h -1e-6 z"
                 id="path46" />
            </g>
            <g
               transform="matrix(1.0335783,0,0,1.0335783,-1.611843,-5.1916955)"
               id="g1070">
              <path
                 inkscape:connector-curvature="0"
                 style="fill:url(#h);stroke-width:1.10940349"
                 d="m 44.468082,67.39328 v 9.896552 H 31.037047 V 67.39328 Z"
                 id="path48" />
              <path
                 inkscape:connector-curvature="0"
                 style="fill:#31363b;stroke-width:1.24682415"
                 d="m 44.468082,66.686383 c 0.39162,0 0.706896,0.315276 0.706896,0.706897 v 9.896552 c 0,0.39162 -0.315276,0.706896 -0.706896,0.706896 H 31.037047 c -0.391621,0 -0.706897,-0.315276 -0.706897,-0.706896 V 67.39328 c 0,-0.391621 0.315276,-0.706897 0.706897,-0.706897 z m 0,0.706897 H 31.037047 v 5.655172 l 2.827586,-1.413793 3.534483,2.827586 1.413793,-1.413793 5.655173,4.24138 z m -3.181035,1.076886 a 1.7672414,1.7672414 0 0 1 1.767242,1.767241 1.7672414,1.7672414 0 0 1 -1.767242,1.767242 1.7672414,1.7672414 0 0 1 -1.767241,-1.767242 1.7672414,1.7672414 0 0 1 1.767241,-1.767241 z"
                 id="path52" />
              <g
                 transform="matrix(-0.70689657,0,0,0.70689657,50.123254,46.186382)"
                 style="fill-opacity:0.96684002"
                 id="g60">
                <path
                   style="fill:#da4453"
                   inkscape:connector-curvature="0"
                   d="m 31.707,31.293 a 1,1 0 0 0 -1.4142,0 1,1 0 0 0 0,1.4142 1,1 0 0 0 1.4142,0 1,1 0 0 0 0,-1.4142 z"
                   id="path54" />
                <path
                   style="fill:#31363b"
                   inkscape:connector-curvature="0"
                   d="m 31,35 a 1,1 0 0 0 -1,1 1,1 0 0 0 1,1 1,1 0 0 0 1,-1 1,1 0 0 0 -1,-1 z"
                   id="path56" />
                <path
                   style="fill:#31363b"
                   inkscape:connector-curvature="0"
                   d="m 31,39 a 1,1 0 0 0 -1,1 1,1 0 0 0 1,1 1,1 0 0 0 1,-1 1,1 0 0 0 -1,-1 z"
                   id="path58" />
              </g>
            </g>
            <path
               id="path62"
               d="m 48.002565,78.60868 v 0.730632 c 0,1.214312 -0.977587,2.191899 -2.191899,2.191899 H 22.430411 c -1.214312,0 -2.191898,-0.977587 -2.191898,-2.191899 V 78.60868 c 0,1.214311 0.977586,2.191899 2.191898,2.191899 h 23.380255 c 1.214312,0 2.191899,-0.977588 2.191899,-2.191899 z"
               style="opacity:0.4;fill:#292c2f;stroke-width:0.73063296"
               inkscape:connector-curvature="0" />
          </g>
        </g>
      </g>
    </g>
  </g>
</svg>
