<?xml version="1.0" encoding="UTF-8" standalone="no"?>
<svg
   xmlns:dc="http://purl.org/dc/elements/1.1/"
   xmlns:cc="http://creativecommons.org/ns#"
   xmlns:rdf="http://www.w3.org/1999/02/22-rdf-syntax-ns#"
   xmlns:svg="http://www.w3.org/2000/svg"
   xmlns="http://www.w3.org/2000/svg"
   xmlns:sodipodi="http://sodipodi.sourceforge.net/DTD/sodipodi-0.dtd"
   xmlns:inkscape="http://www.inkscape.org/namespaces/inkscape"
   viewBox="0 0 64 64"
   version="1.1"
   id="svg6"
   sodipodi:docname="generic-camera.svg"
   width="64"
   height="64"
   inkscape:version="0.92.4 (5da689c313, 2019-01-14)">
  <metadata
     id="metadata10">
    <rdf:RDF>
      <cc:Work
         rdf:about="">
        <dc:format>image/svg+xml</dc:format>
        <dc:type
           rdf:resource="http://purl.org/dc/dcmitype/StillImage" />
        <dc:title />
      </cc:Work>
    </rdf:RDF>
  </metadata>
  <sodipodi:namedview
     pagecolor="#ffffff"
     bordercolor="#666666"
     borderopacity="1"
     objecttolerance="10"
     gridtolerance="10"
     guidetolerance="10"
     inkscape:pageopacity="0"
     inkscape:pageshadow="2"
     inkscape:window-width="1920"
     inkscape:window-height="1021"
     id="namedview8"
     showgrid="false"
     inkscape:zoom="5.6568543"
     inkscape:cx="47.523084"
     inkscape:cy="13.971533"
     inkscape:window-x="0"
     inkscape:window-y="0"
     inkscape:window-maximized="1"
     inkscape:current-layer="g939"
     fit-margin-top="0"
     fit-margin-left="0"
     fit-margin-right="0"
     fit-margin-bottom="0" />
  <defs
     id="defs3051">
    <style
       type="text/css"
       id="current-color-scheme">
      .ColorScheme-Text {
        color:#232629;
      }
      </style>
    <style
       type="text/css"
       id="current-color-scheme-3">
   .ColorScheme-Text { color:#444444; } .ColorScheme-Highlight { color:#4285f4; }
  </style>
  </defs>
  <g
     id="g939"
     transform="matrix(-1,0,0,1,56,0)">
    <g
       id="g964"
       transform="matrix(1.4146341,0,0,1.4146341,-15.609755,-12.030486)">
      <rect
         style="opacity:0.2"
         width="32"
         height="40"
         x="14"
         y="11.625"
         rx="6"
         ry="6"
         id="rect814" />
      <rect
         style="opacity:0.2"
         width="4"
         height="26"
         x="10"
         y="18.625"
         rx="1"
         ry="1"
         id="rect816" />
      <rect
         style="fill:#4f4f4f"
         width="32"
         height="40"
         x="14"
         y="10.625"
         rx="6"
         ry="6"
         id="rect818" />
      <circle
         style="opacity:0.2"
         cx="-16.625"
         cy="-19"
         r="2"
         transform="matrix(0,-1,-1,0,0,0)"
         id="circle820" />
      <circle
         style="fill:#ff4d4d"
         cx="-15.625"
         cy="-19"
         r="2"
         transform="matrix(0,-1,-1,0,0,0)"
         id="circle822" />
      <circle
         style="opacity:0.4"
         cx="-29.625"
         cy="-30"
         r="8"
         transform="matrix(0,-1,-1,0,0,0)"
         id="circle824" />
      <circle
         style="opacity:0.2"
         cx="-30.625"
         cy="30"
         r="6"
         transform="rotate(-90)"
         id="circle826" />
      <circle
         style="fill:#007095"
         cx="-29.625"
         cy="30"
         r="6"
         transform="rotate(-90)"
         id="circle828" />
      <circle
         style="opacity:0.2"
         cx="-30.625"
         cy="-30"
         r="3"
         transform="matrix(0,-1,-1,0,0,0)"
         id="circle830" />
      <circle
         style="fill:#49acdc"
         cx="-29.625"
         cy="-30"
         r="3"
         transform="matrix(0,-1,-1,0,0,0)"
         id="circle832" />
      <rect
         style="fill:#3f3f3f"
         width="4"
         height="26"
         x="10"
         y="17.625"
         rx="1"
         ry="1"
         id="rect834" />
      <circle
         style="opacity:0.5"
         cx="30"
         cy="43.625"
         r="1"
         id="circle836" />
      <circle
         style="opacity:0.5"
         cx="34"
         cy="43.625"
         r="1"
         id="circle838" />
      <circle
         style="opacity:0.5"
         cx="38"
         cy="43.625"
         r="1"
         id="circle840" />
      <circle
         style="opacity:0.5"
         cx="42"
         cy="43.625"
         r="1"
         id="circle842" />
      <circle
         style="opacity:0.5"
         cx="32"
         cy="46.625"
         r="1"
         id="circle844" />
      <circle
         style="opacity:0.5"
         cx="36"
         cy="46.625"
         r="1"
         id="circle846" />
      <circle
         style="opacity:0.5"
         cx="40"
         cy="46.625"
         r="1"
         id="circle848" />
      <path
         inkscape:connector-curvature="0"
         style="opacity:0.1;fill:#ffffff"
         d="m 20,10.625 c -3.324,0 -6,2.676 -6,6 v 1 c 0,-3.324 2.676,-6 6,-6 h 20 c 3.324,0 6,2.676 6,6 v -1 c 0,-3.324 -2.676,-6 -6,-6 z"
         id="path850" />
      <path
         inkscape:connector-curvature="0"
         style="opacity:0.2;fill:#ffffff"
         d="m 19,13.625 a 2,2 0 0 0 -2,2 2,2 0 0 0 0.06445,0.496094 A 2,2 0 0 1 19,14.625 2,2 0 0 1 20.935547,16.128906 2,2 0 0 0 21,15.625 a 2,2 0 0 0 -2,-2 z"
         id="path852" />
      <path
         inkscape:connector-curvature="0"
         style="opacity:0.1;fill:#ffffff"
         d="m 30,23.625 a 6,6 0 0 0 -6,6 6,6 0 0 0 0.02539,0.498047 A 6,6 0 0 1 30,24.625 6,6 0 0 1 35.974609,30.126953 6,6 0 0 0 36,29.625 a 6,6 0 0 0 -6,-6 z"
         id="path854" />
      <path
         inkscape:connector-curvature="0"
         style="opacity:0.2;fill:#ffffff"
         d="m 30,26.625 a 3,3 0 0 0 -3,3 3,3 0 0 0 0.04297,0.486328 A 3,3 0 0 1 30,27.625 3,3 0 0 1 32.957031,30.138672 3,3 0 0 0 33,29.625 a 3,3 0 0 0 -3,-3 z"
         id="path856" />
      <path
         inkscape:connector-curvature="0"
         style="opacity:0.1;fill:#ffffff"
         d="m 11,17.625 c -0.554,0 -1,0.446 -1,1 v 1 c 0,-0.554 0.446,-1 1,-1 h 2 c 0.554,0 1,0.446 1,1 v -1 c 0,-0.554 -0.446,-1 -1,-1 z"
         id="path858" />
    </g>
  </g>
</svg>
