<?xml version="1.0" encoding="UTF-8" standalone="no"?>
<svg
   xmlns:dc="http://purl.org/dc/elements/1.1/"
   xmlns:cc="http://creativecommons.org/ns#"
   xmlns:rdf="http://www.w3.org/1999/02/22-rdf-syntax-ns#"
   xmlns:svg="http://www.w3.org/2000/svg"
   xmlns="http://www.w3.org/2000/svg"
   xmlns:sodipodi="http://sodipodi.sourceforge.net/DTD/sodipodi-0.dtd"
   xmlns:inkscape="http://www.inkscape.org/namespaces/inkscape"
   viewBox="0 0 64 64"
   version="1.1"
   id="svg6"
   sodipodi:docname="generic.svg"
   width="64"
   height="64"
   inkscape:version="0.92.4 (5da689c313, 2019-01-14)">
  <metadata
     id="metadata10">
    <rdf:RDF>
      <cc:Work
         rdf:about="">
        <dc:format>image/svg+xml</dc:format>
        <dc:type
           rdf:resource="http://purl.org/dc/dcmitype/StillImage" />
        <dc:title />
      </cc:Work>
    </rdf:RDF>
  </metadata>
  <sodipodi:namedview
     pagecolor="#ffffff"
     bordercolor="#666666"
     borderopacity="1"
     objecttolerance="10"
     gridtolerance="10"
     guidetolerance="10"
     inkscape:pageopacity="0"
     inkscape:pageshadow="2"
     inkscape:window-width="1920"
     inkscape:window-height="1021"
     id="namedview8"
     showgrid="false"
     inkscape:zoom="10.727273"
     inkscape:cx="0.724579"
     inkscape:cy="28.606991"
     inkscape:window-x="0"
     inkscape:window-y="0"
     inkscape:window-maximized="1"
     inkscape:current-layer="svg6"
     fit-margin-top="0"
     fit-margin-left="0"
     fit-margin-right="0"
     fit-margin-bottom="0" />
  <defs
     id="defs3051">
    <style
       type="text/css"
       id="current-color-scheme">
      .ColorScheme-Text {
        color:#232629;
      }
      </style>
    <style
       type="text/css"
       id="current-color-scheme-3">
   .ColorScheme-Text { color:#444444; } .ColorScheme-Highlight { color:#4285f4; }
  </style>
  </defs>
  <path
     id="path819"
     d="m 25.785713,3 c -3.323814,0 -6.214285,2.6796788 -6.214285,6.003907 v 6.424665 H 6.9972105 C 4.7811963,15.428572 3,16.780916 3,18.99693 V 32 h 6.0039071 c 3.3238139,0 6.4246639,2.890472 6.4246639,6.214286 0,3.322571 -3.10085,6.214286 -6.4246639,6.214286 H 3 V 56.994699 C 3,59.211127 4.7811963,61 6.9972105,61 H 19.571428 v -4.005301 c 0,-3.322572 0.0725,-8.253413 6.214285,-8.423271 6.141786,-0.169857 6.214286,5.349271 6.214286,8.423271 V 61 H 45.00307 c 2.216428,0 3.568358,-1.788873 3.568358,-4.005301 V 44.428572 h 6.432756 C 58.326755,44.428572 61,41.536857 61,38.214286 61,34.890472 58.289469,32.510814 55.004184,32 H 48.571428 V 18.99693 c 0,-2.216014 -1.35193,-3.568358 -3.568358,-3.568358 H 31.999999 V 9.003907 C 31.999999,5.6796788 29.109527,3 25.785713,3 Z"
     class="ColorScheme-Text"
     style="color:#444444;fill:currentColor;stroke-width:4.14285707"
     inkscape:connector-curvature="0" />
</svg>
