<?xml version="1.0" encoding="UTF-8" standalone="no"?>
<svg
   xmlns:dc="http://purl.org/dc/elements/1.1/"
   xmlns:cc="http://creativecommons.org/ns#"
   xmlns:rdf="http://www.w3.org/1999/02/22-rdf-syntax-ns#"
   xmlns:svg="http://www.w3.org/2000/svg"
   xmlns="http://www.w3.org/2000/svg"
   xmlns:xlink="http://www.w3.org/1999/xlink"
   xmlns:sodipodi="http://sodipodi.sourceforge.net/DTD/sodipodi-0.dtd"
   xmlns:inkscape="http://www.inkscape.org/namespaces/inkscape"
   width="64"
   version="1.1"
   height="64"
   id="svg38"
   sodipodi:docname="intan-rhx.svg"
   inkscape:version="1.0.2 (e86c870879, 2021-01-15)">
  <sodipodi:namedview
     pagecolor="#ffffff"
     bordercolor="#666666"
     borderopacity="1"
     objecttolerance="10"
     gridtolerance="10"
     guidetolerance="10"
     inkscape:pageopacity="0"
     inkscape:pageshadow="2"
     inkscape:window-width="2560"
     inkscape:window-height="1369"
     id="namedview40"
     showgrid="false"
     inkscape:zoom="10.429825"
     inkscape:cx="25.616558"
     inkscape:cy="31.708941"
     inkscape:window-x="0"
     inkscape:window-y="0"
     inkscape:window-maximized="1"
     inkscape:current-layer="g10577"
     inkscape:document-rotation="0" />
  <defs
     id="defs5455">
    <linearGradient
       inkscape:collect="always"
       id="linearGradient920">
      <stop
         style="stop-color:#9d7ed5;stop-opacity:1"
         offset="0"
         id="stop916" />
      <stop
         style="stop-color:#dfd5f2;stop-opacity:1"
         offset="1"
         id="stop918" />
    </linearGradient>
    <linearGradient
       inkscape:collect="always"
       xlink:href="#linearGradient4219"
       id="linearGradient4337"
       y1="549.79797"
       y2="497.79797"
       gradientUnits="userSpaceOnUse"
       x2="0"
       gradientTransform="matrix(0.65384614,0,0,0.65384614,141.42858,181.31471)" />
    <linearGradient
       inkscape:collect="always"
       id="linearGradient4227">
      <stop
         style="stop-color:#292c2f"
         id="stop4229" />
      <stop
         offset="1"
         style="stop-opacity:0"
         id="stop4231" />
    </linearGradient>
    <linearGradient
       inkscape:collect="always"
       xlink:href="#linearGradient4227"
       id="linearGradient4383"
       y1="15"
       x1="15"
       y2="57"
       x2="57"
       gradientUnits="userSpaceOnUse" />
    <linearGradient
       inkscape:collect="always"
       id="linearGradient4219">
      <stop
         style="stop-color:#999a9c"
         id="stop4221" />
      <stop
         offset="1"
         style="stop-color:#dcdfdf"
         id="stop4223" />
    </linearGradient>
    <linearGradient
       inkscape:collect="always"
       xlink:href="#linearGradient920"
       id="linearGradient922"
       x1="57.677021"
       y1="56.131855"
       x2="-1.5496557"
       y2="-3.177578"
       gradientUnits="userSpaceOnUse" />
  </defs>
  <metadata
     id="metadata5458">
    <rdf:RDF>
      <cc:Work
         rdf:about="">
        <dc:format>image/svg+xml</dc:format>
        <dc:type
           rdf:resource="http://purl.org/dc/dcmitype/StillImage" />
        <dc:title />
      </cc:Work>
    </rdf:RDF>
  </metadata>
  <g
     inkscape:label="Capa 1"
     inkscape:groupmode="layer"
     id="layer1"
     transform="matrix(1 0 0 1 -376.57144 -491.79797)">
    <g
       id="g854"
       transform="matrix(1.1153846,0,0,1.1153846,-47.142853,-60.438219)">
      <g
         id="g10577">
        <path
           inkscape:connector-curvature="0"
           style="fill:#699fe2;fill-rule:evenodd;fill-opacity:1"
           id="path4346"
           d="m 6,15 v 1 L 9.1992188,18.400391 10,18 Z"
           transform="translate(376.57144,491.79797)" />
        <path
           inkscape:connector-curvature="0"
           style="fill:url(#linearGradient922);fill-opacity:1"
           id="rect4283"
           d="m 6,6 v 9 l 4,3 -4,2 V 58 H 58 V 6 Z"
           transform="translate(376.57144,491.79797)" />
        <path
           inkscape:connector-curvature="0"
           style="opacity:0.2;fill:url(#linearGradient4383);fill-rule:evenodd"
           id="path4378"
           d="m 49,15 -34,34 9,9 H 58 V 24 Z"
           transform="translate(376.57144,491.79797)" />
        <rect
           width="52"
           x="382.57144"
           y="548.79773"
           height="1"
           style="fill:#699fe2;fill-opacity:1"
           id="rect4293" />
        <path
           inkscape:connector-curvature="0"
           style="color:#000000"
           id="path4303-6"
           d="m 427.57143,543.79797 v 1 h -1 v -1 z m -1,1 v 1 h -1 v -1 z m -1,0 h -1 v -1 h 1 z m -1,0 v 1 h -1 v -1 z m -1,0 h -1 v -1 h 1 z m -1,0 v 1 h -1 v -1 z m -1,0 h -1 v -1 h 1 z m -1,0 v 1 h -1 v -1 z m -1,0 h -1 v -1 h 1 z m -1,0 v 1 h -1 v -1 z m -1,0 h -1 v -1 h 1 z m -1,0 v 1 h -1 v -1 z m -1,0 h -1 v -1 h 1 z m -1,0 v 1 h -1 v -1 z m -1,0 h -1 v -1 h 1 z m -1,0 v 1 h -1 v -1 z" />
        <path
           inkscape:connector-curvature="0"
           style="fill:#699fe2;fill-rule:evenodd;fill-opacity:1"
           id="path4317"
           d="m 431.57143,543.79797 -2,2 h 2 z" />
        <path
           inkscape:connector-curvature="0"
           style="color:#000000"
           id="path4331"
           d="m 387.57143,543.79797 v 1 h 1 v -1 z m 1,1 v 1 h 1 v -1 z m 1,0 h 1 v -1 h -1 z m 1,0 v 1 h 1 v -1 z m 1,0 h 1 v -1 h -1 z m 1,0 v 1 h 1 v -1 z m 1,0 h 1 v -1 h -1 z m 1,0 v 1 h 1 v -1 z m 1,0 h 1 v -1 h -1 z m 1,0 v 1 h 1 v -1 z m 1,0 h 1 v -1 h -1 z m 1,0 v 1 h 1 v -1 z m 1,0 h 1 v -1 h -1 z m 1,0 v 1 h 1 v -1 z m 1,0 h 1 v -1 h -1 z m 1,0 v 1 h 1 v -1 z" />
        <path
           inkscape:connector-curvature="0"
           style="color:#000000"
           id="path4333"
           d="m 432.57143,521.79797 h -1 v -1 h 1 z m -1,-1 h -1 v -1 h 1 z m 0,-1 v -1 h 1 v 1 z m 0,-1 h -1 v -1 h 1 z m 0,-1 v -1 h 1 v 1 z m 0,-1 h -1 v -1 h 1 z m 0,-1 v -1 h 1 v 1 z m 0,-1 h -1 v -1 h 1 z m 0,-1 v -1 h 1 v 1 z m 0,-1 h -1 v -1 h 1 z m 0,-1 v -1 h 1 v 1 z m 0,-1 h -1 v -1 h 1 z m 0,-1 v -1 h 1 v 1 z m 0,-1 h -1 v -1 h 1 z m 0,-1 v -1 h 1 v 1 z m 0,-1 h -1 v -1 h 1 z" />
        <rect
           width="34"
           x="391.57144"
           y="506.79797"
           height="34"
           style="fill:url(#linearGradient4337)"
           id="rect4335" />
        <path
           inkscape:connector-curvature="0"
           style="color:#000000"
           id="path4339"
           d="m 54,40 v 1 h 1 v -1 z m 1,1 v 1 h 1 v -1 z m 0,1 h -1 v 1 h 1 z m 0,1 v 1 h 1 v -1 z m 0,1 h -1 v 1 h 1 z m 0,1 v 1 h 1 v -1 z m 0,1 h -1 v 1 h 1 z m 0,1 v 1 h 1 v -1 z m 0,1 h -1 v 1 h 1 z"
           transform="translate(376.57144,491.79797)" />
        <rect
           width="34"
           x="391.57144"
           y="539.79797"
           height="0.99999601"
           style="fill:#616365"
           id="rect4167" />
        <rect
           width="8"
           x="393.57144"
           y="535.79797"
           height="1"
           style="fill:#484a4b"
           id="rect4172" />
        <rect
           width="4"
           x="393.57144"
           y="537.79797"
           height="1"
           style="fill:#484a4b"
           id="rect4174" />
        <path
           inkscape:connector-curvature="0"
           style="fill:#484a4b"
           id="rect4176"
           d="m 42,16 v 1 h 1 1 v -1 h -1 z m 2,1 v 1 h -1 -1 v 1 1 1 h 1 v -1 -1 h 1 v 1 1 h 1 1 1 v -1 h -1 v -1 h -1 v -1 h 1 v -1 h -1 z m 2,0 h 1 v -1 h -1 z m 0,1 v 1 h 1 v -1 z"
           transform="translate(376.57144,491.79797)" />
        <g
           style="fill:#6600cc;fill-opacity:1"
           id="g938"
           transform="matrix(1.4212656,0,0,1.4212656,323.42681,302.76904)">
          <g
             style="fill:#6600cc;fill-opacity:1"
             id="g420"
             transform="matrix(0.00132323,0,0,0.00131717,53.231253,143.02155)">
            <g
               style="fill:#6600cc;fill-opacity:1"
               id="g422"
               transform="translate(685.9966,9485.998)">
              <path
                 d="M 0,0 4353.005,-6654.003 8705.999,0 4353.005,6653 Z"
                 style="fill:#6600cc;fill-opacity:1;fill-rule:nonzero;stroke:none"
                 id="path424"
                 inkscape:connector-curvature="0" />
            </g>
          </g>
          <g
             style="fill:#6600cc;fill-opacity:1"
             id="g426"
             transform="matrix(0.00132323,0,0,0.00131717,53.231253,143.02155)">
            <g
               style="fill:#6600cc;fill-opacity:1"
               id="g428"
               transform="translate(6058.9951,3491.9966)">
              <path
                 d="M 0,0 767.007,-1152.994 1533.009,0 767.007,1153.998 Z"
                 style="fill:#6600cc;fill-opacity:1;fill-rule:nonzero;stroke:none"
                 id="path430"
                 inkscape:connector-curvature="0" />
            </g>
          </g>
          <g
             style="fill:#6600cc;fill-opacity:1"
             id="g432"
             transform="matrix(0.00132323,0,0,0.00131717,53.231253,143.02155)">
            <g
               style="fill:#6600cc;fill-opacity:1"
               id="g434"
               transform="translate(7272.0044,5386.002)">
              <path
                 d="M 0,0 766.996,-1153.998 1533.991,0 766.996,1152.994 Z"
                 style="fill:#6600cc;fill-opacity:1;fill-rule:nonzero;stroke:none"
                 id="path436"
                 inkscape:connector-curvature="0" />
            </g>
          </g>
          <g
             style="fill:#6600cc;fill-opacity:1"
             id="g438"
             transform="matrix(0.00132323,0,0,0.00131717,53.231253,143.02155)">
            <g
               style="fill:#6600cc;fill-opacity:1"
               id="g440"
               transform="translate(8485.9951,7279.0029)">
              <path
                 d="M 0,0 766.003,-1153.005 1533.01,0 766.003,1152.993 Z"
                 style="fill:#6600cc;fill-opacity:1;fill-rule:nonzero;stroke:none"
                 id="path442"
                 inkscape:connector-curvature="0" />
            </g>
          </g>
          <g
             style="fill:#6600cc;fill-opacity:1"
             id="g444"
             transform="matrix(0.00132323,0,0,0.00131717,53.231253,143.02155)">
            <g
               style="fill:#6600cc;fill-opacity:1"
               id="g446"
               transform="translate(2499.0029,3491.9966)">
              <path
                 d="M 0,0 766.996,-1152.994 1532.998,0 766.996,1153.998 Z"
                 style="fill:#6600cc;fill-opacity:1;fill-rule:nonzero;stroke:none"
                 id="path448"
                 inkscape:connector-curvature="0" />
            </g>
          </g>
          <g
             style="fill:#6600cc;fill-opacity:1"
             id="g450"
             transform="matrix(0.00132323,0,0,0.00131717,53.231253,143.02155)">
            <g
               style="fill:#6600cc;fill-opacity:1"
               id="g452"
               transform="translate(1286.0052,5386.002)">
              <path
                 d="M 0,0 765.991,-1153.998 1532.998,0 765.991,1152.994 Z"
                 style="fill:#6600cc;fill-opacity:1;fill-rule:nonzero;stroke:none"
                 id="path454"
                 inkscape:connector-curvature="0" />
            </g>
          </g>
          <g
             style="fill:#6600cc;fill-opacity:1"
             id="g456"
             transform="matrix(0.00132323,0,0,0.00131717,53.231253,143.02155)">
            <g
               style="fill:#6600cc;fill-opacity:1"
               id="g458"
               transform="translate(72.0028,7279.0029)">
              <path
                 d="M 0,0 766.996,-1153.005 1534.002,0 766.996,1152.993 Z"
                 style="fill:#6600cc;fill-opacity:1;fill-rule:nonzero;stroke:none"
                 id="path460"
                 inkscape:connector-curvature="0" />
            </g>
          </g>
          <g
             style="fill:#6600cc;fill-opacity:1"
             id="g462"
             transform="matrix(0.00132323,0,0,0.00131717,53.231253,143.02155)">
            <g
               style="fill:#6600cc;fill-opacity:1"
               id="g464"
               transform="translate(8485.9951,11692.001)">
              <path
                 d="M 0,0 766.003,-1153.005 1533.01,0 766.003,1153.998 Z"
                 style="fill:#6600cc;fill-opacity:1;fill-rule:nonzero;stroke:none"
                 id="path466"
                 inkscape:connector-curvature="0" />
            </g>
          </g>
          <g
             style="fill:#6600cc;fill-opacity:1"
             id="g468"
             transform="matrix(0.00132323,0,0,0.00131717,53.231253,143.02155)">
            <g
               style="fill:#6600cc;fill-opacity:1"
               id="g470"
               transform="translate(7272.0044,13585.995)">
              <path
                 d="M 0,0 766.996,-1153.998 1533.991,0 766.996,1153.005 Z"
                 style="fill:#6600cc;fill-opacity:1;fill-rule:nonzero;stroke:none"
                 id="path472"
                 inkscape:connector-curvature="0" />
            </g>
          </g>
          <g
             style="fill:#6600cc;fill-opacity:1"
             id="g474"
             transform="matrix(0.00132323,0,0,0.00131717,53.231253,143.02155)">
            <g
               style="fill:#6600cc;fill-opacity:1"
               id="g476"
               transform="translate(6058.9951,15478.996)">
              <path
                 d="M 0,0 767.007,-1152.993 1533.009,0 767.007,1153.004 Z"
                 style="fill:#6600cc;fill-opacity:1;fill-rule:nonzero;stroke:none"
                 id="path478"
                 inkscape:connector-curvature="0" />
            </g>
          </g>
          <g
             style="fill:#6600cc;fill-opacity:1"
             id="g480"
             transform="matrix(0.00132323,0,0,0.00131717,53.231253,143.02155)">
            <g
               style="fill:#6600cc;fill-opacity:1"
               id="g482"
               transform="translate(85.9993,11692.001)">
              <path
                 d="M 0,0 766.002,-1153.005 1532.998,0 766.002,1153.998 Z"
                 style="fill:#6600cc;fill-opacity:1;fill-rule:nonzero;stroke:none"
                 id="path484"
                 inkscape:connector-curvature="0" />
            </g>
          </g>
          <g
             style="fill:#6600cc;fill-opacity:1"
             id="g486"
             transform="matrix(0.00132323,0,0,0.00131717,53.231253,143.02155)">
            <g
               style="fill:#6600cc;fill-opacity:1"
               id="g488"
               transform="translate(1298.9971,13585.995)">
              <path
                 d="M 0,0 767.007,-1153.998 1532.998,0 767.007,1153.005 Z"
                 style="fill:#6600cc;fill-opacity:1;fill-rule:nonzero;stroke:none"
                 id="path490"
                 inkscape:connector-curvature="0" />
            </g>
          </g>
          <g
             style="fill:#6600cc;fill-opacity:1"
             id="g492"
             transform="matrix(0.00132323,0,0,0.00131717,53.231253,143.02155)">
            <g
               style="fill:#6600cc;fill-opacity:1"
               id="g494"
               transform="translate(2511.9949,15478.996)">
              <path
                 d="M 0,0 767.007,-1152.993 1534.002,0 767.007,1153.004 Z"
                 style="fill:#6600cc;fill-opacity:1;fill-rule:nonzero;stroke:none"
                 id="path496"
                 inkscape:connector-curvature="0" />
            </g>
          </g>
          <g
             style="fill:#6600cc;fill-opacity:1"
             id="g498"
             transform="matrix(0.00132323,0,0,0.00131717,53.231253,143.02155)">
            <g
               style="fill:#6600cc;fill-opacity:1"
               id="g500"
               transform="translate(3045.9944,4318.9961)">
              <path
                 d="M 0,0 766.002,-1152.993 1533.009,0 766.002,1153.005 Z"
                 style="fill:#6600cc;fill-opacity:1;fill-rule:nonzero;stroke:none"
                 id="path502"
                 inkscape:connector-curvature="0" />
            </g>
          </g>
          <g
             style="fill:#6600cc;fill-opacity:1"
             id="g504"
             transform="matrix(0.00132323,0,0,0.00131717,53.231253,143.02155)">
            <g
               style="fill:#6600cc;fill-opacity:1"
               id="g506"
               transform="translate(1832.0032,6211.9971)">
              <path
                 d="M 0,0 766.996,-1152.994 1533.991,0 766.996,1153.998 Z"
                 style="fill:#6600cc;fill-opacity:1;fill-rule:nonzero;stroke:none"
                 id="path508"
                 inkscape:connector-curvature="0" />
            </g>
          </g>
          <g
             style="fill:#6600cc;fill-opacity:1"
             id="g510"
             transform="matrix(0.00132323,0,0,0.00131717,53.231253,143.02155)">
            <g
               style="fill:#6600cc;fill-opacity:1"
               id="g512"
               transform="translate(619.0054,8106.0024)">
              <path
                 d="M 0,0 766.996,-1153.998 1532.998,0 766.996,1152.994 Z"
                 style="fill:#6600cc;fill-opacity:1;fill-rule:nonzero;stroke:none"
                 id="path514"
                 inkscape:connector-curvature="0" />
            </g>
          </g>
          <g
             style="fill:#6600cc;fill-opacity:1"
             id="g516"
             transform="matrix(0.00132323,0,0,0.00131717,53.231253,143.02155)">
            <g
               style="fill:#6600cc;fill-opacity:1"
               id="g518"
               transform="translate(525.9966,11065.997)">
              <path
                 d="M 0,0 766.002,-1153.998 1532.998,0 766.002,1153.005 Z"
                 style="fill:#6600cc;fill-opacity:1;fill-rule:nonzero;stroke:none"
                 id="path520"
                 inkscape:connector-curvature="0" />
            </g>
          </g>
          <g
             style="fill:#6600cc;fill-opacity:1"
             id="g522"
             transform="matrix(0.00132323,0,0,0.00131717,53.231253,143.02155)">
            <g
               style="fill:#6600cc;fill-opacity:1"
               id="g524"
               transform="translate(1738.9944,12958.998)">
              <path
                 d="M 0,0 767.007,-1152.993 1533.009,0 767.007,1153.005 Z"
                 style="fill:#6600cc;fill-opacity:1;fill-rule:nonzero;stroke:none"
                 id="path526"
                 inkscape:connector-curvature="0" />
            </g>
          </g>
          <g
             style="fill:#6600cc;fill-opacity:1"
             id="g528"
             transform="matrix(0.00132323,0,0,0.00131717,53.231253,143.02155)">
            <g
               style="fill:#6600cc;fill-opacity:1"
               id="g530"
               transform="translate(2952.0034,14851.999)">
              <path
                 d="M 0,0 766.996,-1153.005 1533.991,0 766.996,1153.998 Z"
                 style="fill:#6600cc;fill-opacity:1;fill-rule:nonzero;stroke:none"
                 id="path532"
                 inkscape:connector-curvature="0" />
            </g>
          </g>
        </g>
      </g>
    </g>
  </g>
</svg>
