<?xml version="1.0" encoding="UTF-8" standalone="no"?>
<!-- Created with Inkscape (http://www.inkscape.org/) -->

<svg
   xmlns:dc="http://purl.org/dc/elements/1.1/"
   xmlns:cc="http://creativecommons.org/ns#"
   xmlns:rdf="http://www.w3.org/1999/02/22-rdf-syntax-ns#"
   xmlns:svg="http://www.w3.org/2000/svg"
   xmlns="http://www.w3.org/2000/svg"
   xmlns:xlink="http://www.w3.org/1999/xlink"
   xmlns:sodipodi="http://sodipodi.sourceforge.net/DTD/sodipodi-0.dtd"
   xmlns:inkscape="http://www.inkscape.org/namespaces/inkscape"
   width="64"
   version="1.1"
   height="64"
   id="svg38"
   sodipodi:docname="intan-rhd2000.svg"
   inkscape:version="0.92.4 (5da689c313, 2019-01-14)">
  <sodipodi:namedview
     pagecolor="#ffffff"
     bordercolor="#666666"
     borderopacity="1"
     objecttolerance="10"
     gridtolerance="10"
     guidetolerance="10"
     inkscape:pageopacity="0"
     inkscape:pageshadow="2"
     inkscape:window-width="1920"
     inkscape:window-height="1021"
     id="namedview40"
     showgrid="false"
     inkscape:zoom="10.429825"
     inkscape:cx="11.240969"
     inkscape:cy="30.93259"
     inkscape:window-x="0"
     inkscape:window-y="0"
     inkscape:window-maximized="1"
     inkscape:current-layer="layer1" />
  <defs
     id="defs5455">
    <linearGradient
       inkscape:collect="always"
       id="linearGradient4251-0">
      <stop
         style="stop-color:#63984b"
         id="stop4253-4" />
      <stop
         offset="1"
         style="stop-color:#8fc278"
         id="stop4255-2" />
    </linearGradient>
    <linearGradient
       inkscape:collect="always"
       xlink:href="#linearGradient4251-0"
       id="linearGradient4291"
       y1="549.79797"
       y2="497.79797"
       x2="0"
       gradientUnits="userSpaceOnUse"
       gradientTransform="translate(-376.57144,-491.79797)" />
    <linearGradient
       inkscape:collect="always"
       xlink:href="#linearGradient4219"
       id="linearGradient4337"
       y1="549.79797"
       y2="497.79797"
       gradientUnits="userSpaceOnUse"
       x2="0"
       gradientTransform="matrix(0.65384614,0,0,0.65384614,141.42858,181.31471)" />
    <linearGradient
       inkscape:collect="always"
       id="linearGradient4227">
      <stop
         style="stop-color:#292c2f"
         id="stop4229" />
      <stop
         offset="1"
         style="stop-opacity:0"
         id="stop4231" />
    </linearGradient>
    <linearGradient
       inkscape:collect="always"
       xlink:href="#linearGradient4227"
       id="linearGradient4383"
       y1="15"
       x1="15"
       y2="57"
       x2="57"
       gradientUnits="userSpaceOnUse" />
    <linearGradient
       inkscape:collect="always"
       id="linearGradient4219">
      <stop
         style="stop-color:#999a9c"
         id="stop4221" />
      <stop
         offset="1"
         style="stop-color:#dcdfdf"
         id="stop4223" />
    </linearGradient>
  </defs>
  <metadata
     id="metadata5458">
    <rdf:RDF>
      <cc:Work
         rdf:about="">
        <dc:format>image/svg+xml</dc:format>
        <dc:type
           rdf:resource="http://purl.org/dc/dcmitype/StillImage" />
        <dc:title />
      </cc:Work>
    </rdf:RDF>
  </metadata>
  <g
     inkscape:label="Capa 1"
     inkscape:groupmode="layer"
     id="layer1"
     transform="matrix(1 0 0 1 -376.57144 -491.79797)">
    <g
       id="g854"
       transform="matrix(1.1153846,0,0,1.1153846,-47.142853,-60.438219)">
      <path
         transform="translate(376.57144,491.79797)"
         d="m 6,15 v 1 L 9.1992188,18.400391 10,18 Z"
         id="path4346"
         style="fill:#dce269;fill-rule:evenodd"
         inkscape:connector-curvature="0" />
      <path
         transform="translate(376.57144,491.79797)"
         d="m 6,6 v 9 l 4,3 -4,2 V 58 H 58 V 6 Z"
         id="rect4283"
         style="fill:url(#linearGradient4291)"
         inkscape:connector-curvature="0" />
      <path
         transform="translate(376.57144,491.79797)"
         d="m 49,15 -34,34 9,9 H 58 V 24 Z"
         id="path4378"
         style="opacity:0.2;fill:url(#linearGradient4383);fill-rule:evenodd"
         inkscape:connector-curvature="0" />
      <rect
         id="rect4293"
         style="fill:#dce269"
         height="1"
         y="548.79773"
         x="382.57144"
         width="52" />
      <path
         d="m 427.57143,543.79797 v 1 h -1 v -1 z m -1,1 v 1 h -1 v -1 z m -1,0 h -1 v -1 h 1 z m -1,0 v 1 h -1 v -1 z m -1,0 h -1 v -1 h 1 z m -1,0 v 1 h -1 v -1 z m -1,0 h -1 v -1 h 1 z m -1,0 v 1 h -1 v -1 z m -1,0 h -1 v -1 h 1 z m -1,0 v 1 h -1 v -1 z m -1,0 h -1 v -1 h 1 z m -1,0 v 1 h -1 v -1 z m -1,0 h -1 v -1 h 1 z m -1,0 v 1 h -1 v -1 z m -1,0 h -1 v -1 h 1 z m -1,0 v 1 h -1 v -1 z"
         id="path4303-6"
         style="color:#000000"
         inkscape:connector-curvature="0" />
      <path
         d="m 431.57143,543.79797 -2,2 h 2 z"
         id="path4317"
         style="fill:#e6ea97;fill-rule:evenodd"
         inkscape:connector-curvature="0" />
      <path
         d="m 387.57143,543.79797 v 1 h 1 v -1 z m 1,1 v 1 h 1 v -1 z m 1,0 h 1 v -1 h -1 z m 1,0 v 1 h 1 v -1 z m 1,0 h 1 v -1 h -1 z m 1,0 v 1 h 1 v -1 z m 1,0 h 1 v -1 h -1 z m 1,0 v 1 h 1 v -1 z m 1,0 h 1 v -1 h -1 z m 1,0 v 1 h 1 v -1 z m 1,0 h 1 v -1 h -1 z m 1,0 v 1 h 1 v -1 z m 1,0 h 1 v -1 h -1 z m 1,0 v 1 h 1 v -1 z m 1,0 h 1 v -1 h -1 z m 1,0 v 1 h 1 v -1 z"
         id="path4331"
         style="color:#000000"
         inkscape:connector-curvature="0" />
      <path
         d="m 432.57143,521.79797 h -1 v -1 h 1 z m -1,-1 h -1 v -1 h 1 z m 0,-1 v -1 h 1 v 1 z m 0,-1 h -1 v -1 h 1 z m 0,-1 v -1 h 1 v 1 z m 0,-1 h -1 v -1 h 1 z m 0,-1 v -1 h 1 v 1 z m 0,-1 h -1 v -1 h 1 z m 0,-1 v -1 h 1 v 1 z m 0,-1 h -1 v -1 h 1 z m 0,-1 v -1 h 1 v 1 z m 0,-1 h -1 v -1 h 1 z m 0,-1 v -1 h 1 v 1 z m 0,-1 h -1 v -1 h 1 z m 0,-1 v -1 h 1 v 1 z m 0,-1 h -1 v -1 h 1 z"
         id="path4333"
         style="color:#000000"
         inkscape:connector-curvature="0" />
      <rect
         id="rect4335"
         style="fill:url(#linearGradient4337)"
         height="34"
         y="506.79797"
         x="391.57144"
         width="34" />
      <path
         transform="translate(376.57144,491.79797)"
         d="m 54,40 v 1 h 1 v -1 z m 1,1 v 1 h 1 v -1 z m 0,1 h -1 v 1 h 1 z m 0,1 v 1 h 1 v -1 z m 0,1 h -1 v 1 h 1 z m 0,1 v 1 h 1 v -1 z m 0,1 h -1 v 1 h 1 z m 0,1 v 1 h 1 v -1 z m 0,1 h -1 v 1 h 1 z"
         id="path4339"
         style="color:#000000"
         inkscape:connector-curvature="0" />
      <rect
         id="rect4167"
         style="fill:#616365"
         height="0.99999601"
         y="539.79797"
         x="391.57144"
         width="34" />
      <rect
         id="rect4172"
         style="fill:#484a4b"
         height="1"
         y="535.79797"
         x="393.57144"
         width="8" />
      <rect
         id="rect4174"
         style="fill:#484a4b"
         height="1"
         y="537.79797"
         x="393.57144"
         width="4" />
      <path
         transform="translate(376.57144,491.79797)"
         d="m 42,16 v 1 h 1 1 v -1 h -1 z m 2,1 v 1 h -1 -1 v 1 1 1 h 1 v -1 -1 h 1 v 1 1 h 1 1 1 v -1 h -1 v -1 h -1 v -1 h 1 v -1 h -1 z m 2,0 h 1 v -1 h -1 z m 0,1 v 1 h 1 v -1 z"
         id="rect4176"
         style="fill:#484a4b"
         inkscape:connector-curvature="0" />
      <path
         sodipodi:nodetypes="ccccccccccccc"
         id="path4"
         d="m 392.9356,527.69709 3.93304,-17.22445 1.87029,23.82259 1.87064,-22.23444 1.87028,20.64629 1.87027,-17.46998 2.54142,11.50121 3.06978,-14.67752 1.05467,19.25053 2.68588,-20.83868 3.74054,23.82323 1.87034,-17.4703 5.08244,8.80398"
         style="fill:none;fill-opacity:1;stroke:#56a2ff;stroke-width:1.72344911;stroke-linecap:round;stroke-linejoin:round;stroke-opacity:1"
         inkscape:connector-curvature="0" />
    </g>
  </g>
</svg>
