<?xml version="1.0" encoding="UTF-8"?>
<svg width="64" height="64" version="1.1" xmlns="http://www.w3.org/2000/svg" xmlns:cc="http://creativecommons.org/ns#" xmlns:dc="http://purl.org/dc/elements/1.1/" xmlns:rdf="http://www.w3.org/1999/02/22-rdf-syntax-ns#" xmlns:xlink="http://www.w3.org/1999/xlink">
  <defs>
    <linearGradient id="linearGradient4337" x2="0" y1="549.8" y2="497.8" gradientTransform="matrix(.65385 0 0 .65385 141.43 181.31)" gradientUnits="userSpaceOnUse">
      <stop stop-color="#999a9c" offset="0"/>
      <stop stop-color="#dcdfdf" offset="1"/>
    </linearGradient>
    <linearGradient id="linearGradient4383" x1="15" x2="57" y1="15" y2="57" gradientUnits="userSpaceOnUse">
      <stop stop-color="#292c2f" offset="0"/>
      <stop stop-opacity="0" offset="1"/>
    </linearGradient>
    <linearGradient id="linearGradient922" x1="32" x2="-6.8986" y1="32" y2="-7.0182" gradientUnits="userSpaceOnUse">
      <stop stop-color="#9d7ed5" offset="0"/>
      <stop stop-color="#dfd5f2" offset="1"/>
    </linearGradient>
  </defs>
  <metadata>
    <rdf:RDF>
      <cc:Work rdf:about="">
        <dc:format>image/svg+xml</dc:format>
        <dc:type rdf:resource="http://purl.org/dc/dcmitype/StillImage"/>
      </cc:Work>
    </rdf:RDF>
  </metadata>
  <g transform="translate(-376.57 -491.8)">
    <g transform="matrix(1.1154 0 0 1.1154 -47.143 -60.438)">
      <path transform="translate(376.57 491.8)" d="m6 15v1l3.1992 2.4004 0.80078-0.40039z" fill="#699fe2" fill-rule="evenodd"/>
      <path transform="translate(376.57 491.8)" d="m6 6v9l4 3-4 2v38h52v-52z" fill="url(#linearGradient922)"/>
      <path transform="translate(376.57 491.8)" d="m49 15-34 34 9 9h34v-34z" fill="url(#linearGradient4383)" fill-rule="evenodd" opacity=".2"/>
      <rect x="382.57" y="548.8" width="52" height="1" fill="#699fe2"/>
      <path d="m427.57 543.8v1h-1v-1zm-1 1v1h-1v-1zm-1 0h-1v-1h1zm-1 0v1h-1v-1zm-1 0h-1v-1h1zm-1 0v1h-1v-1zm-1 0h-1v-1h1zm-1 0v1h-1v-1zm-1 0h-1v-1h1zm-1 0v1h-1v-1zm-1 0h-1v-1h1zm-1 0v1h-1v-1zm-1 0h-1v-1h1zm-1 0v1h-1v-1zm-1 0h-1v-1h1zm-1 0v1h-1v-1z" color="#000000"/>
      <path d="m431.57 543.8-2 2h2z" fill="#5c5adf" fill-rule="evenodd"/>
      <path d="m387.57 543.8v1h1v-1zm1 1v1h1v-1zm1 0h1v-1h-1zm1 0v1h1v-1zm1 0h1v-1h-1zm1 0v1h1v-1zm1 0h1v-1h-1zm1 0v1h1v-1zm1 0h1v-1h-1zm1 0v1h1v-1zm1 0h1v-1h-1zm1 0v1h1v-1zm1 0h1v-1h-1zm1 0v1h1v-1zm1 0h1v-1h-1zm1 0v1h1v-1z" color="#000000"/>
      <path d="m432.57 521.8h-1v-1h1zm-1-1h-1v-1h1zm0-1v-1h1v1zm0-1h-1v-1h1zm0-1v-1h1v1zm0-1h-1v-1h1zm0-1v-1h1v1zm0-1h-1v-1h1zm0-1v-1h1v1zm0-1h-1v-1h1zm0-1v-1h1v1zm0-1h-1v-1h1zm0-1v-1h1v1zm0-1h-1v-1h1zm0-1v-1h1v1zm0-1h-1v-1h1z" color="#000000"/>
      <rect x="391.57" y="506.8" width="34" height="34" fill="url(#linearGradient4337)"/>
      <path transform="translate(376.57 491.8)" d="m54 40v1h1v-1zm1 1v1h1v-1zm0 1h-1v1h1zm0 1v1h1v-1zm0 1h-1v1h1zm0 1v1h1v-1zm0 1h-1v1h1zm0 1v1h1v-1zm0 1h-1v1h1z" color="#000000"/>
      <rect x="391.57" y="539.8" width="34" height="1" fill="#616365"/>
      <g fill="#484a4b">
        <rect x="393.57" y="535.8" width="8" height="1"/>
        <rect x="393.57" y="537.8" width="4" height="1"/>
        <path transform="translate(376.57 491.8)" d="m42 16v1h2v-1h-1zm2 1v1h-2v3h1v-2h1v2h3v-1h-1v-1h-1v-1h1v-1h-1zm2 0h1v-1h-1zm0 1v1h1v-1z"/>
      </g>
      <g transform="matrix(1.4213 0 0 1.4213 323.43 302.77)" fill="#60c">
        <g transform="matrix(.0013232 0 0 .0013172 53.231 143.02)" fill="#60c">
          <g transform="translate(686 9486)">
            <path d="m0 0 4353-6654 4353 6654-4353 6653z" fill="#60c"/>
          </g>
          <g transform="translate(6059 3492)">
            <path d="m0 0 767.01-1153 766 1153-766 1154z" fill="#60c"/>
          </g>
          <g transform="translate(7272 5386)">
            <path d="m0 0 767-1154 767 1154-767 1153z" fill="#60c"/>
          </g>
          <g transform="translate(8486 7279)">
            <path d="m0 0 766-1153 767.01 1153-767.01 1153z" fill="#60c"/>
          </g>
          <g transform="translate(2499 3492)">
            <path d="m0 0 767-1153 766 1153-766 1154z" fill="#60c"/>
          </g>
          <g transform="translate(1286 5386)">
            <path d="m0 0 765.99-1154 767.01 1154-767.01 1153z" fill="#60c"/>
          </g>
          <g transform="translate(72.003 7279)">
            <path d="m0 0 767-1153 767.01 1153-767.01 1153z" fill="#60c"/>
          </g>
          <g transform="translate(8486 11692)">
            <path d="m0 0 766-1153 767.01 1153-767.01 1154z" fill="#60c"/>
          </g>
          <g transform="translate(7272 13586)">
            <path d="m0 0 767-1154 767 1154-767 1153z" fill="#60c"/>
          </g>
          <g transform="translate(6059 15479)">
            <path d="m0 0 767.01-1153 766 1153-766 1153z" fill="#60c"/>
          </g>
          <g transform="translate(85.999 11692)">
            <path d="m0 0 766-1153 767 1153-767 1154z" fill="#60c"/>
          </g>
          <g transform="translate(1299 13586)">
            <path d="m0 0 767.01-1154 765.99 1154-765.99 1153z" fill="#60c"/>
          </g>
          <g transform="translate(2512 15479)">
            <path d="m0 0 767.01-1153 767 1153-767 1153z" fill="#60c"/>
          </g>
          <g transform="translate(3046 4319)">
            <path d="m0 0 766-1153 767.01 1153-767.01 1153z" fill="#60c"/>
          </g>
          <g transform="translate(1832 6212)">
            <path d="m0 0 767-1153 767 1153-767 1154z" fill="#60c"/>
          </g>
          <g transform="translate(619.01 8106)">
            <path d="m0 0 767-1154 766 1154-766 1153z" fill="#60c"/>
          </g>
          <g transform="translate(526 11066)">
            <path d="m0 0 766-1154 767 1154-767 1153z" fill="#60c"/>
          </g>
          <g transform="translate(1739 12959)">
            <path d="m0 0 767.01-1153 766 1153-766 1153z" fill="#60c"/>
          </g>
          <g transform="translate(2952 14852)">
            <path d="m0 0 767-1153 767 1153-767 1154z" fill="#60c"/>
          </g>
        </g>
      </g>
    </g>
  </g>
</svg>
