<?xml version="1.0" encoding="UTF-8" standalone="no"?>
<svg
   xmlns:dc="http://purl.org/dc/elements/1.1/"
   xmlns:cc="http://creativecommons.org/ns#"
   xmlns:rdf="http://www.w3.org/1999/02/22-rdf-syntax-ns#"
   xmlns:svg="http://www.w3.org/2000/svg"
   xmlns="http://www.w3.org/2000/svg"
   xmlns:xlink="http://www.w3.org/1999/xlink"
   xmlns:sodipodi="http://sodipodi.sourceforge.net/DTD/sodipodi-0.dtd"
   xmlns:inkscape="http://www.inkscape.org/namespaces/inkscape"
   viewBox="0 0 64 64"
   version="1.1"
   id="svg6"
   sodipodi:docname="miniscope.svg"
   width="64"
   height="64"
   inkscape:version="0.92.4 (5da689c313, 2019-01-14)">
  <metadata
     id="metadata10">
    <rdf:RDF>
      <cc:Work
         rdf:about="">
        <dc:format>image/svg+xml</dc:format>
        <dc:type
           rdf:resource="http://purl.org/dc/dcmitype/StillImage" />
        <dc:title />
      </cc:Work>
    </rdf:RDF>
  </metadata>
  <sodipodi:namedview
     pagecolor="#ffffff"
     bordercolor="#666666"
     borderopacity="1"
     objecttolerance="10"
     gridtolerance="10"
     guidetolerance="10"
     inkscape:pageopacity="0"
     inkscape:pageshadow="2"
     inkscape:window-width="1920"
     inkscape:window-height="1021"
     id="namedview8"
     showgrid="false"
     inkscape:zoom="8.0000001"
     inkscape:cx="-4.7551871"
     inkscape:cy="47.747057"
     inkscape:window-x="0"
     inkscape:window-y="0"
     inkscape:window-maximized="1"
     inkscape:current-layer="g939"
     fit-margin-top="0"
     fit-margin-left="0"
     fit-margin-right="0"
     fit-margin-bottom="0" />
  <defs
     id="defs3051">
    <linearGradient
       inkscape:collect="always"
       id="linearGradient855">
      <stop
         style="stop-color:#000000;stop-opacity:1;"
         offset="0"
         id="stop851" />
      <stop
         style="stop-color:#000088;stop-opacity:1"
         offset="1"
         id="stop853" />
    </linearGradient>
    <style
       type="text/css"
       id="current-color-scheme">
      .ColorScheme-Text {
        color:#232629;
      }
      </style>
    <style
       type="text/css"
       id="current-color-scheme-3">
   .ColorScheme-Text { color:#444444; } .ColorScheme-Highlight { color:#4285f4; }
  </style>
    <linearGradient
       inkscape:collect="always"
       xlink:href="#linearGradient855"
       id="linearGradient857"
       x1="-0.57726514"
       y1="31.543942"
       x2="8.7911854"
       y2="31.867466"
       gradientUnits="userSpaceOnUse" />
  </defs>
  <g
     id="g939"
     transform="matrix(-1,0,0,1,56,0)">
    <g
       id="g862"
       transform="translate(1.1082319)">
      <rect
         style="opacity:0.2;stroke-width:1.56624317"
         width="53.143291"
         height="59.085365"
         x="-3.6798778"
         y="3.1958852"
         rx="9.9643669"
         ry="8.8628044"
         id="rect814" />
      <rect
         style="fill:#000000;fill-opacity:0.4;stroke-width:1.56624317"
         width="53.143291"
         height="59.085365"
         x="-3.6798778"
         y="1.7187514"
         rx="9.9643669"
         ry="8.8628044"
         id="rect818" />
      <path
         inkscape:connector-curvature="0"
         style="opacity:0.1;fill:#ffffff;stroke-width:1.56624317"
         d="m 6.2844896,1.7187513 c -5.52025934,0 -9.9643671,3.9528109 -9.9643671,8.8628047 v 1.477134 c 0,-4.9099937 4.44410776,-8.8628046 9.9643671,-8.8628046 H 39.499046 c 5.52026,0 9.964368,3.9528109 9.964368,8.8628046 v -1.477134 c 0,-4.9099938 -4.444108,-8.8628047 -9.964368,-8.8628047 z"
         id="path850" />
    </g>
    <circle
       id="circle830"
       transform="matrix(0,-1,-1,0,0,0)"
       r="4.2439022"
       cy="-12.038585"
       cx="-43.33844"
       style="opacity:0.2;stroke-width:1.41463411" />
    <circle
       id="circle832"
       transform="matrix(0,-1,-1,0,0,0)"
       r="4.2439022"
       cy="-12.038585"
       cx="-41.923805"
       style="fill:#49acdc;stroke-width:1.41463411" />
    <path
       inkscape:connector-curvature="0"
       style="fill:#007095;fill-opacity:1;stroke-width:4.28651857"
       d="m 23.629725,34.489188 c -0.153457,-0.579966 -0.5341,-1.076345 -1.05877,-1.37983 l -7.676299,-4.440405 c -1.092205,-0.631833 -2.498612,-0.272195 -3.140305,0.804151 l -4.8797721,8.185107 c -0.6429783,1.076345 -0.278624,2.46089 0.8144388,3.093152 l 7.6771553,4.43912 c 0.473232,0.274336 1.00476,0.364354 1.507998,0.287196 0.658837,-0.09859 1.268809,-0.48009 1.632734,-1.088776 l 4.880631,-8.186394 c 0.308201,-0.516953 0.395218,-1.133355 0.242189,-1.713321 z"
       id="path6" />
    <path
       inkscape:connector-curvature="0"
       style="fill:#ff9b32;stroke-width:3.73851919"
       d="M 35.109459,16.518706 C 34.682145,14.774687 33.640596,13.311431 32.176213,12.398483 L 27.155382,9.2684833 C 25.898871,8.485338 24.414676,8.1828168 22.976466,8.4165864 21.076175,8.7255756 20.136867,8.4394056 19.16373,10.197781 L 5.6663753,34.786233 c -0.2504811,0.451614 -0.3215129,0.989961 -0.198142,1.496904 0.1233716,0.506569 0.4336682,0.940611 0.8598593,1.205672 l 12.7737744,7.963795 c 0.383572,0.238891 0.814624,0.317026 1.222496,0.249359 0.534232,-0.08674 1.028464,-0.418714 1.323807,-0.952201 L 35.33781,19.889059 c 0.859858,-1.554102 0.198958,-1.626334 -0.228351,-3.370353 z"
       id="path8"
       sodipodi:nodetypes="ccccccccccccc" />
    <rect
       id="rect818-3"
       ry="2.2567596"
       rx="2.2567596"
       y="14.333917"
       x="-0.57726514"
       height="34.420052"
       width="8.1610432"
       style="fill:url(#linearGradient857);fill-opacity:1;stroke-width:0.56362635"
       transform="rotate(-60)" />
    <g
       transform="matrix(1.1494691,0,0,1.1494691,0.38853624,-5.4920969)"
       id="g859">
      <circle
         style="opacity:0.2"
         cx="-16.625"
         cy="-19"
         r="2"
         transform="matrix(0,-1,-1,0,0,0)"
         id="circle820" />
      <circle
         style="fill:#ff4d4d"
         cx="-15.625"
         cy="-19"
         r="2"
         transform="matrix(0,-1,-1,0,0,0)"
         id="circle822" />
      <path
         inkscape:connector-curvature="0"
         style="opacity:0.2;fill:#ffffff"
         d="m 19,13.625 a 2,2 0 0 0 -2,2 2,2 0 0 0 0.06445,0.496094 A 2,2 0 0 1 19,14.625 2,2 0 0 1 20.935547,16.128906 2,2 0 0 0 21,15.625 a 2,2 0 0 0 -2,-2 z"
         id="path852" />
    </g>
  </g>
</svg>
