<?xml version="1.0" encoding="UTF-8" standalone="no"?>
<svg
   xmlns:dc="http://purl.org/dc/elements/1.1/"
   xmlns:cc="http://creativecommons.org/ns#"
   xmlns:rdf="http://www.w3.org/1999/02/22-rdf-syntax-ns#"
   xmlns:svg="http://www.w3.org/2000/svg"
   xmlns="http://www.w3.org/2000/svg"
   xmlns:sodipodi="http://sodipodi.sourceforge.net/DTD/sodipodi-0.dtd"
   xmlns:inkscape="http://www.inkscape.org/namespaces/inkscape"
   viewBox="0 0 64 64"
   version="1.1"
   id="svg6"
   sodipodi:docname="miniscope.svg"
   width="64"
   height="64"
   inkscape:version="0.92.4 (5da689c313, 2019-01-14)">
  <metadata
     id="metadata10">
    <rdf:RDF>
      <cc:Work
         rdf:about="">
        <dc:format>image/svg+xml</dc:format>
        <dc:type
           rdf:resource="http://purl.org/dc/dcmitype/StillImage" />
        <dc:title />
      </cc:Work>
    </rdf:RDF>
  </metadata>
  <sodipodi:namedview
     pagecolor="#ffffff"
     bordercolor="#666666"
     borderopacity="1"
     objecttolerance="10"
     gridtolerance="10"
     guidetolerance="10"
     inkscape:pageopacity="0"
     inkscape:pageshadow="2"
     inkscape:window-width="1920"
     inkscape:window-height="1021"
     id="namedview8"
     showgrid="false"
     inkscape:zoom="8.0000001"
     inkscape:cx="40.551775"
     inkscape:cy="19.698295"
     inkscape:window-x="0"
     inkscape:window-y="0"
     inkscape:window-maximized="1"
     inkscape:current-layer="g939"
     fit-margin-top="0"
     fit-margin-left="0"
     fit-margin-right="0"
     fit-margin-bottom="0" />
  <defs
     id="defs3051">
    <style
       type="text/css"
       id="current-color-scheme">
      .ColorScheme-Text {
        color:#232629;
      }
      </style>
    <style
       type="text/css"
       id="current-color-scheme-3">
   .ColorScheme-Text { color:#444444; } .ColorScheme-Highlight { color:#4285f4; }
  </style>
  </defs>
  <g
     id="g939"
     transform="matrix(-1,0,0,1,56,0)">
    <rect
       id="rect814"
       ry="8.4878044"
       rx="8.4878044"
       y="4.4146352"
       x="4.1951222"
       height="56.585365"
       width="45.268291"
       style="opacity:0.2;stroke-width:1.41463411" />
    <rect
       id="rect818"
       ry="8.4878044"
       rx="8.4878044"
       y="3.0000014"
       x="4.1951222"
       height="56.585365"
       width="45.268291"
       style="fill:#000000;fill-opacity:0.4;stroke-width:1.41463411" />
    <path
       id="path850"
       d="m 12.682927,3.0000013 c -4.7022437,0 -8.4878046,3.7855609 -8.4878046,8.4878047 v 1.414634 c 0,-4.7022437 3.7855609,-8.4878046 8.4878046,-8.4878046 h 28.292682 c 4.702244,0 8.487805,3.7855609 8.487805,8.4878046 v -1.414634 c 0,-4.7022438 -3.785561,-8.4878047 -8.487805,-8.4878047 z"
       style="opacity:0.1;fill:#ffffff;stroke-width:1.41463411"
       inkscape:connector-curvature="0" />
    <circle
       id="circle830"
       transform="matrix(0,-1,-1,0,0,0)"
       r="4.2439022"
       cy="-5.6746235"
       cx="-54.563759"
       style="opacity:0.2;stroke-width:1.41463411" />
    <circle
       id="circle832"
       transform="matrix(0,-1,-1,0,0,0)"
       r="4.2439022"
       cy="-5.6746235"
       cx="-53.149124"
       style="fill:#49acdc;stroke-width:1.41463411" />
    <path
       id="path856"
       d="m 5.6746238,48.905224 a 4.2439023,4.2439023 0 0 0 -4.243902,4.243902 4.2439023,4.2439023 0 0 0 0.06079,0.687976 4.2439023,4.2439023 0 0 1 4.183115,-3.517244 4.2439023,4.2439023 0 0 1 4.183117,3.555926 4.2439023,4.2439023 0 0 0 0.06078,-0.726658 4.2439023,4.2439023 0 0 0 -4.243902,-4.243902 z"
       style="opacity:0.2;fill:#ffffff;stroke-width:1.41463411"
       inkscape:connector-curvature="0" />
    <path
       inkscape:connector-curvature="0"
       style="fill:#007095;stroke-width:4.28651857;fill-opacity:1"
       d="m 18.326424,44.477071 c -0.153457,-0.579966 -0.5341,-1.076345 -1.05877,-1.37983 L 9.591355,38.656836 C 8.49915,38.025003 7.092743,38.384641 6.4510507,39.460987 l -4.8797726,8.185107 c -0.64297827,1.076345 -0.278624,2.46089 0.8144388,3.093152 l 7.6771551,4.43912 c 0.473232,0.274336 1.00476,0.364354 1.507998,0.287196 0.658837,-0.09859 1.268809,-0.48009 1.632734,-1.088776 l 4.880631,-8.186394 c 0.308201,-0.516953 0.395218,-1.133355 0.242189,-1.713321 z"
       id="path6" />
    <path
       inkscape:connector-curvature="0"
       style="fill:#ff9b32;stroke-width:4.28651857"
       d="M 35.308755,17.717619 C 34.818804,15.717958 33.624583,14.040215 31.945547,12.993446 L 26.188753,9.4046445 C 24.74806,8.5067042 23.046309,8.1598389 21.397284,8.4278749 19.218444,8.7821564 17.328951,10.141539 16.213169,12.157661 L 1.5498456,38.662836 c -0.2871971,0.517812 -0.3686408,1.135071 -0.227186,1.716323 0.1414557,0.580823 0.4972361,1.078488 0.9858992,1.382402 l 14.6461792,9.131143 c 0.439797,0.273909 0.934033,0.363497 1.401692,0.285911 0.612541,-0.09945 1.179219,-0.48009 1.517853,-1.091777 L 34.539327,23.582005 c 0.985898,-1.781905 1.259372,-3.864725 0.769428,-5.864386 z"
       id="path8" />
    <g
       transform="matrix(1.4146341,0,0,1.4146341,-5.1799296,-9.1049706)"
       id="g859">
      <circle
         style="opacity:0.2"
         cx="-16.625"
         cy="-19"
         r="2"
         transform="matrix(0,-1,-1,0,0,0)"
         id="circle820" />
      <circle
         style="fill:#ff4d4d"
         cx="-15.625"
         cy="-19"
         r="2"
         transform="matrix(0,-1,-1,0,0,0)"
         id="circle822" />
      <path
         inkscape:connector-curvature="0"
         style="opacity:0.2;fill:#ffffff"
         d="m 19,13.625 a 2,2 0 0 0 -2,2 2,2 0 0 0 0.06445,0.496094 A 2,2 0 0 1 19,14.625 2,2 0 0 1 20.935547,16.128906 2,2 0 0 0 21,15.625 a 2,2 0 0 0 -2,-2 z"
         id="path852" />
    </g>
  </g>
</svg>
