<?xml version="1.0" encoding="UTF-8"?>
<svg width="64" height="64" version="1.1" viewBox="0 0 64 64" xmlns="http://www.w3.org/2000/svg" xmlns:cc="http://creativecommons.org/ns#" xmlns:dc="http://purl.org/dc/elements/1.1/" xmlns:rdf="http://www.w3.org/1999/02/22-rdf-syntax-ns#">
  <metadata>
    <rdf:RDF>
      <cc:Work rdf:about="">
        <dc:format>image/svg+xml</dc:format>
        <dc:type rdf:resource="http://purl.org/dc/dcmitype/StillImage"/>
      </cc:Work>
    </rdf:RDF>
  </metadata>
  <defs>
    <style id="current-color-scheme" type="text/css">.ColorScheme-Text {
        color:#232629;
      }</style>
    <style type="text/css">.ColorScheme-Text { color:#444444; } .ColorScheme-Highlight { color:#4285f4; }</style>
  </defs>
  <g transform="matrix(-1,0,0,1,56,0)">
    <g transform="matrix(-3.625,0,0,3.625,53,3)">
      <path d="m12 4v2c0 1.108-0.892 2-2 2h-4s-2 0-2 2v3.5c0 1.385 1.5613 2.5 3.5 2.5h1c1.9387 0 3.5-1.1147 3.5-2.5v-1.5h1.5c1.385 0 2.5-1.561 2.5-3.5v-1c0-1.9387-1.115-3.5-2.5-3.5z" fill="#ffc851"/>
      <path d="m10.5 13a0.5 0.5 0 0 1 0.5 0.5 0.5 0.5 0 0 1-0.5 0.5 0.5 0.5 0 0 1-0.5-0.5 0.5 0.5 0 0 1 0.5-0.5z" fill="#fff"/>
      <path d="m7.5-2e-8c-1.9387 0-3.5 1.115-3.5 2.5v1.5h-1.5c-1.385 0-2.5 1.5613-2.5 3.5v1c-2e-8 1.939 1.115 3.5 2.5 3.5h1.5v-2c0-1.108 0.892-2 2-2h4s2 0 2-2v-3.5c0-1.385-1.561-2.5-3.5-2.5z" fill="#4795d1"/>
      <path d="M 5.5,2 A 0.5,0.5 0 0 1 6,2.5 0.5,0.5 0 0 1 5.5,3 0.5,0.5 0 0 1 5,2.5 0.5,0.5 0 0 1 5.5,2 Z" fill="#fff"/>
    </g>
  </g>
</svg>
