<?xml version="1.0" encoding="UTF-8" standalone="no"?>
<svg
   xmlns:dc="http://purl.org/dc/elements/1.1/"
   xmlns:cc="http://creativecommons.org/ns#"
   xmlns:rdf="http://www.w3.org/1999/02/22-rdf-syntax-ns#"
   xmlns:svg="http://www.w3.org/2000/svg"
   xmlns="http://www.w3.org/2000/svg"
   xmlns:sodipodi="http://sodipodi.sourceforge.net/DTD/sodipodi-0.dtd"
   xmlns:inkscape="http://www.inkscape.org/namespaces/inkscape"
   viewBox="0 0 64 64"
   version="1.1"
   id="svg6"
   sodipodi:docname="python.svg"
   width="64"
   height="64"
   inkscape:version="0.92.4 (5da689c313, 2019-01-14)">
  <metadata
     id="metadata10">
    <rdf:RDF>
      <cc:Work
         rdf:about="">
        <dc:format>image/svg+xml</dc:format>
        <dc:type
           rdf:resource="http://purl.org/dc/dcmitype/StillImage" />
        <dc:title />
      </cc:Work>
    </rdf:RDF>
  </metadata>
  <sodipodi:namedview
     pagecolor="#ffffff"
     bordercolor="#666666"
     borderopacity="1"
     objecttolerance="10"
     gridtolerance="10"
     guidetolerance="10"
     inkscape:pageopacity="0"
     inkscape:pageshadow="2"
     inkscape:window-width="1920"
     inkscape:window-height="1021"
     id="namedview8"
     showgrid="false"
     inkscape:zoom="5.6568543"
     inkscape:cx="2.1798621"
     inkscape:cy="13.971533"
     inkscape:window-x="0"
     inkscape:window-y="0"
     inkscape:window-maximized="1"
     inkscape:current-layer="g939"
     fit-margin-top="0"
     fit-margin-left="0"
     fit-margin-right="0"
     fit-margin-bottom="0" />
  <defs
     id="defs3051">
    <style
       type="text/css"
       id="current-color-scheme">
      .ColorScheme-Text {
        color:#232629;
      }
      </style>
    <style
       type="text/css"
       id="current-color-scheme-3">
   .ColorScheme-Text { color:#444444; } .ColorScheme-Highlight { color:#4285f4; }
  </style>
  </defs>
  <g
     id="g939"
     transform="matrix(-1,0,0,1,56,0)">
    <g
       id="g858"
       transform="matrix(-3.625,0,0,3.625,53,3)">
      <path
         id="path838"
         d="m 12,4 v 2 c 0,1.108 -0.892,2 -2,2 H 6 C 6,8 4,8 4,10 v 3.5 C 4,14.885 5.5613,16 7.5,16 h 1 C 10.4387,16 12,14.8853 12,13.5 V 12 h 1.5 C 14.885,12 16,10.439 16,8.5 v -1 C 16,5.5613 14.885,4 13.5,4 Z"
         inkscape:connector-curvature="0"
         style="fill:#ffc851" />
      <path
         id="path840"
         d="M 10.5,13 A 0.5,0.5 0 0 1 11,13.5 0.5,0.5 0 0 1 10.5,14 0.5,0.5 0 0 1 10,13.5 0.5,0.5 0 0 1 10.5,13 Z"
         inkscape:connector-curvature="0"
         style="fill:#ffffff" />
      <path
         id="path842"
         d="M 7.5,-2e-8 C 5.5613,-2e-8 4,1.115 4,2.5 V 4 H 2.5 C 1.115,4 0,5.5613 0,7.5 v 1 C -2e-8,10.439 1.115,12 2.5,12 H 4 V 10 C 4,8.892 4.892,8 6,8 h 4 c 0,0 2,0 2,-2 V 2.5 C 12,1.115 10.439,-2e-8 8.5,-2e-8 Z"
         inkscape:connector-curvature="0"
         style="fill:#4795d1" />
      <path
         id="path844"
         d="M 5.5,2 A 0.5,0.5 0 0 1 6,2.5 0.5,0.5 0 0 1 5.5,3 0.5,0.5 0 0 1 5,2.5 0.5,0.5 0 0 1 5.5,2 Z"
         inkscape:connector-curvature="0"
         style="fill:#ffffff" />
    </g>
  </g>
</svg>
