<?xml version="1.0" encoding="UTF-8"?>
<svg width="64" height="64" version="1.1" xmlns="http://www.w3.org/2000/svg" xmlns:cc="http://creativecommons.org/ns#" xmlns:dc="http://purl.org/dc/elements/1.1/" xmlns:rdf="http://www.w3.org/1999/02/22-rdf-syntax-ns#" xmlns:xlink="http://www.w3.org/1999/xlink">
 <metadata>
  <rdf:RDF>
   <cc:Work rdf:about="">
    <dc:format>image/svg+xml</dc:format>
    <dc:type rdf:resource="http://purl.org/dc/dcmitype/StillImage"/>
   </cc:Work>
  </rdf:RDF>
 </metadata>
 <defs>
  <style id="current-color-scheme" type="text/css">.ColorScheme-Text { color:#4d4d4d; }</style>
  <style type="text/css">.ColorScheme-Text { color:#4d4d4d; }</style>
  <linearGradient id="linearGradient1037" x1="44" x2="4" y1="44" y2="4" gradientTransform="matrix(1.0312 0 0 1.0312 -.125 -.125)" gradientUnits="userSpaceOnUse">
   <stop stop-color="#085077" offset="0"/>
   <stop stop-color="#0db1fe" offset="1"/>
  </linearGradient>
  <linearGradient id="linearGradient1061" x1="44" x2="4" y1="44" y2="4" gradientTransform="matrix(1.0312 0 0 1.0312 -1.375 -1.375)" gradientUnits="userSpaceOnUse">
   <stop stop-color="#faae2a" offset="0"/>
   <stop stop-color="#fcd187" offset="1"/>
  </linearGradient>
 </defs>
 <g transform="matrix(1.45,0,0,1.45,-2.8,-2.8)">
  <path d="m36 14v4c-0.05207 4.25-3 7-7.035 6.9704l-9.965 0.029632c-3.503 0-4.9133 3-4.9301 5.0137l-0.069908 8.3613c-0.026054 3.1161 2.5088 5.625 5.625 5.625h7.5c3.1162 0 5.8696-2.4593 5.8722-5.5756l0.002837-3.4244h-10v-2l13.055 0.0466c4.155 0.014825 7.9449-3.6416 7.9449-7.7966v-3.75c0-4.155-3.845-7.5-8-7.5m-7 22.5c1.0388 0 1.875 0.83625 1.875 1.875s-0.83625 1.875-1.875 1.875c-1.0387 0-1.875-0.83625-1.875-1.875s0.83625-1.875 1.875-1.875" fill="url(#linearGradient1061)"/>
  <path d="m20.875 4c-3.1162 0-5.8696 2.4593-5.8722 5.5756l-0.002837 3.4244h10v2l-13.154 0.05227c-4.155 0.016511-7.846 3.5427-7.846 7.6977v3.75c0 4.155 3.845 7.5 8 7.5v-4c0-4.5631 2.3603-6.9597 7-7h10c3 0 5-2.5506 5-4v-9.375c0-3.1162-2.5088-5.625-5.625-5.625zm-1.875 3.75c1.0387 0 1.875 0.83625 1.875 1.875s-0.83625 1.875-1.875 1.875c-1.0388 0-1.875-0.83625-1.875-1.875s0.83625-1.875 1.875-1.875" fill="url(#linearGradient1037)" stroke-width="1.875"/>
  <path d="m17 21-1 0.10156c-3.4856 0.28342-6.1223 3.2739-5.9668 6.7676 0.0028 0.04365 0.0061 0.08727 0.0098 0.13086h-0.043003v5.7344c0.64864 0.16847 1.3192 0.26562 2 0.26562v-4c0-4.5631 2.3603-6.9597 7-7h10c1.8176 0 3.2581-0.93964 4.1191-2zm6 10v2l13.055 0.04687c1.9318 0.0069 3.7792-0.78547 5.209-2.0469zm-7.6895 11c1.0329 1.2234 2.5825 2 4.3145 2h7.5c1.7319 0 3.2744-0.77658 4.3047-2z" opacity=".2"/>
 </g>
</svg>
