<?xml version="1.0" encoding="UTF-8" standalone="no"?>
<svg
   xmlns:dc="http://purl.org/dc/elements/1.1/"
   xmlns:cc="http://creativecommons.org/ns#"
   xmlns:rdf="http://www.w3.org/1999/02/22-rdf-syntax-ns#"
   xmlns:svg="http://www.w3.org/2000/svg"
   xmlns="http://www.w3.org/2000/svg"
   xmlns:sodipodi="http://sodipodi.sourceforge.net/DTD/sodipodi-0.dtd"
   xmlns:inkscape="http://www.inkscape.org/namespaces/inkscape"
   viewBox="0 0 64 64"
   version="1.1"
   id="svg6"
   sodipodi:docname="runcmd.svg"
   width="64"
   height="64"
   inkscape:version="0.92.4 (5da689c313, 2019-01-14)">
  <metadata
     id="metadata10">
    <rdf:RDF>
      <cc:Work
         rdf:about="">
        <dc:format>image/svg+xml</dc:format>
        <dc:type
           rdf:resource="http://purl.org/dc/dcmitype/StillImage" />
        <dc:title />
      </cc:Work>
    </rdf:RDF>
  </metadata>
  <sodipodi:namedview
     pagecolor="#ffffff"
     bordercolor="#666666"
     borderopacity="1"
     objecttolerance="10"
     gridtolerance="10"
     guidetolerance="10"
     inkscape:pageopacity="0"
     inkscape:pageshadow="2"
     inkscape:window-width="1920"
     inkscape:window-height="1021"
     id="namedview8"
     showgrid="false"
     inkscape:zoom="5.6568543"
     inkscape:cx="-43.16336"
     inkscape:cy="13.971533"
     inkscape:window-x="0"
     inkscape:window-y="0"
     inkscape:window-maximized="1"
     inkscape:current-layer="g939"
     fit-margin-top="0"
     fit-margin-left="0"
     fit-margin-right="0"
     fit-margin-bottom="0" />
  <defs
     id="defs3051">
    <style
       type="text/css"
       id="current-color-scheme">
      .ColorScheme-Text {
        color:#232629;
      }
      </style>
    <style
       type="text/css"
       id="current-color-scheme-3">
   .ColorScheme-Text { color:#444444; } .ColorScheme-Highlight { color:#4285f4; }
  </style>
    <style
       type="text/css"
       id="current-color-scheme-36">
   .ColorScheme-Text { color:#444444; } .ColorScheme-Highlight { color:#4285f4; }
  </style>
  </defs>
  <g
     id="g939"
     transform="matrix(-1,0,0,1,56,0)">
    <path
       id="path825"
       d="m 46.285715,6.0000001 c 4.11543,0 7.428572,3.3131429 7.428572,7.4285719 V 50.571428 C 53.714287,54.686858 50.401145,58 46.285715,58 H 1.7142859 c -4.1154306,0 -7.4285732,-3.313142 -7.4285732,-7.428572 V 13.428572 c 0,-4.115429 3.3131426,-7.4285719 7.4285732,-7.4285719 z m -7.428571,7.4285719 h -3.714285 v 3.714285 h -1.857144 c -2.429142,0 -4.465314,1.552571 -5.230456,3.714285 h 7.0876 v 3.714286 h -1.857144 c -3.086571,0 -5.571428,2.484858 -5.571428,5.57143 0,3.08657 2.484857,5.571428 5.571428,5.571428 h 1.857144 v 3.714286 h 3.714285 v -3.714286 h 1.857143 c 2.429886,0 4.465314,-1.552572 5.230458,-3.714286 h -7.087601 v -3.714286 h 1.857143 c 3.086572,0 5.571428,-2.484856 5.571428,-5.571428 0,-3.086572 -2.484856,-5.571429 -5.571428,-5.571429 h -1.857143 z m 1.857143,7.42857 c 1.028857,0 1.857142,0.828286 1.857142,1.857144 0,1.028856 -0.828285,1.857142 -1.857142,1.857142 h -1.857143 v -3.714286 z m -5.571428,7.428572 V 32 h -1.857144 c -1.027743,0.04791 -1.857142,-0.828286 -1.857142,-1.857142 0,-1.028858 0.828286,-1.857144 1.857142,-1.857144 z M 24.000001,35.714286 H 9.1428577 v 3.714286 H 24.000001 Z"
       class="ColorScheme-Text"
       style="color:#444444;fill:currentColor;stroke-width:3.71428585"
       inkscape:connector-curvature="0" />
  </g>
</svg>
