<?xml version="1.0" encoding="UTF-8"?>
<svg width="64" height="64" version="1.1" viewBox="0 0 64 64" xmlns="http://www.w3.org/2000/svg" xmlns:cc="http://creativecommons.org/ns#" xmlns:dc="http://purl.org/dc/elements/1.1/" xmlns:rdf="http://www.w3.org/1999/02/22-rdf-syntax-ns#">
  <metadata>
    <rdf:RDF>
      <cc:Work rdf:about="">
        <dc:format>image/svg+xml</dc:format>
        <dc:type rdf:resource="http://purl.org/dc/dcmitype/StillImage"/>
      </cc:Work>
    </rdf:RDF>
  </metadata>
  <defs>
    <style id="current-color-scheme" type="text/css">.ColorScheme-Text {
        color:#232629;
      }</style>
  </defs>
  <g transform="matrix(4.8333 0 0 4.8333 -6.6667 -238.67)">
    <path class="ColorScheme-Text" d="m2 50v12h12v-12zm1 1h3v2h-3zm4 0h2v2h-2zm3 0h3v2h-3zm-7 3h3v3h-3zm4 0h2v3h-2zm3 0h3v3h-3zm-7 4h3v3h-3zm4 0h2v3h-2zm3 0h3v3h-3z" color="#232629" fill="currentColor"/>
    <path d="m3 51h3v2h-3z" color="#000000" fill="#1d99f3"/>
  </g>
</svg>
