<?xml version="1.0" encoding="UTF-8"?>
<svg width="64" height="64" version="1.1" xmlns="http://www.w3.org/2000/svg" xmlns:cc="http://creativecommons.org/ns#" xmlns:dc="http://purl.org/dc/elements/1.1/" xmlns:rdf="http://www.w3.org/1999/02/22-rdf-syntax-ns#" xmlns:xlink="http://www.w3.org/1999/xlink">
  <metadata>
    <rdf:RDF>
      <cc:Work rdf:about="">
        <dc:format>image/svg+xml</dc:format>
        <dc:type rdf:resource="http://purl.org/dc/dcmitype/StillImage"/>
      </cc:Work>
    </rdf:RDF>
  </metadata>
  <defs>
    <linearGradient id="a" x1="434.57" x2="384.57" y1="543.8" y2="503.8" gradientTransform="matrix(.85535 0 0 1.0264 60.629 -17.365)" gradientUnits="userSpaceOnUse">
      <stop stop-color="#343b40" offset="0"/>
      <stop stop-color="#555e63" offset="1"/>
    </linearGradient>
    <style id="current-color-scheme" type="text/css">.ColorScheme-Text { color:#444444; } .ColorScheme-Highlight { color:#4285f4; }</style>
    <style type="text/css">.ColorScheme-Text {
        color:#232629;
      }
      .ColorScheme-PositiveText {
        color:#27ae60;
      }</style>
    <style type="text/css">.ColorScheme-Text {
        color:#232629;
      }
      .ColorScheme-PositiveText {
        color:#27ae60;
      }</style>
    <filter id="filter1896" x="-.15588" y="-.16266" width="1.3637" height="1.3795" color-interpolation-filters="sRGB">
      <feFlood flood-color="rgb(0,0,0)" flood-opacity=".49804" result="flood"/>
      <feComposite in="SourceGraphic" in2="flood" operator="in" result="composite1"/>
      <feGaussianBlur in="composite1" result="blur" stdDeviation="1"/>
      <feOffset dx="0.8" dy="0.8" result="offset"/>
      <feComposite in="SourceGraphic" in2="offset" result="composite2"/>
    </filter>
  </defs>
  <g transform="translate(-385.28 -479.18)">
    <g transform="matrix(1.5588 0 0 1.5588 -221.99 -299.83)">
      <g transform="matrix(.90625 0 0 .90611 38.447 48.846)">
        <rect x="389.57" y="499.74" width="41.057" height="41.057" fill="url(#a)" stroke-opacity=".55" stroke-width="2.6236"/>
        <g fill="#d6d6d6" shape-rendering="auto" stroke-width="1.0989">
          <rect x="389.57" y="499.75" width="1" height="41.057" color="#000000" color-rendering="auto" image-rendering="auto"/>
          <rect transform="rotate(-90)" x="-500.74" y="389.58" width="1.0002" height="41.05" color="#000000" color-rendering="auto" image-rendering="auto"/>
          <rect transform="rotate(-90)" x="-540.8" y="389.58" width="1.0002" height="41.05" color="#000000" color-rendering="auto" image-rendering="auto"/>
          <rect x="429.63" y="499.74" width="1" height="41.057" color="#000000" color-rendering="auto" image-rendering="auto"/>
        </g>
      </g>
      <g transform="matrix(-.028823 -.051971 .051971 -.028823 401.95 529.07)">
        <title>Layer 1</title>
        <path d="m228.13-3.9771c-2.0312-27.963-83.955-102.78-155.72-27.207-71.768 75.574-77.862 40.054-84.632 41.566-6.7706 1.5115 6.739 17.88 25.728 15.115 46.717-6.8017 77.862-71.796 121.19-71.04 43.664 0.76152 67.029 43.077 67.029 43.077z" fill="#bfbfbf" fill-rule="evenodd" stroke="#000" stroke-width="4"/>
        <path d="m134.25-55.311c-20.426 0.26718-42.529 9.372-63.676 33.37-19.471 22.096-33.806 34.786-44.513 41.773l-1 0.48073c41.065-15.255 69.886-68.397 109.26-67.701 45.933 0.81221 70.5 45.934 70.5 45.934l10.678-0.6002c-8.2405-21.114-41.618-53.775-81.248-53.256z" fill="#7f7f7f" fill-rule="evenodd" stroke-width="4"/>
        <g stroke-linecap="round" stroke-width="4">
          <path d="m306.15 115.44c0 69.677-55.531 197.8-92.742 197.8-38.254 0-92.741-128.13-92.741-197.8 0-69.675 41.548-126.22 92.741-126.22 51.193 0 92.742 56.549 92.742 126.22z" fill="#bfbfbf" stroke="#000"/>
          <path d="m304.89 101.61c0.22543 3.4579 0.34046 6.9437 0.34046 10.477 0 67.516-56.099 191.7-93.704 191.7-35.26-6e-5 -84.184-103.28-92.513-172.67 4.6399 69.006 56.519 182.15 93.421 182.15 37.606 0 93.704-124.19 93.704-191.7 0-6.7989-0.42956-13.457-1.2483-19.955z" fill-opacity=".31373"/>
          <path d="m276.87 229.04c19.985-2.0158 35.606-19.291 35.606-40.3 0-22.362-17.711-40.513-39.531-40.513s-39.531 18.151-39.531 40.513c0 1.5717 0.0898 3.1358 0.25949 4.6606" fill="#bfbfbf" stroke="#000"/>
          <path d="m190.92 191.76c0.2054-1.6688 0.31186-3.3784 0.31186-5.1034 0-22.315-17.684-40.429-39.503-40.429-21.818 0-39.528 18.113-39.528 40.429 0 21.482 16.395 39.064 37.086 40.348" fill="#bfbfbf" stroke="#000"/>
        </g>
        <g stroke-linecap="round" stroke-width="2">
          <path d="m225.32 291.6c0 6.1272-7.3345 13.462-11.1 13.462-4.2378 0-11.1-7.3345-11.1-13.462 0-6.1272 4.9728-5.4319 11.1-5.4319 6.1272 0 11.1-0.69528 11.1 5.4319z"/>
          <path d="m191.87 250.61c2e-3 5.7384-3.5217 10.392-7.869 10.392-4.3473 0-7.8709-4.6532-7.869-10.392-2e-3 -5.7384 3.5217-10.392 7.869-10.392 4.3473 0 7.8709 4.6532 7.869 10.392z" stroke="#000"/>
          <path d="m248.53 250.61c2e-3 5.7384-3.5217 10.392-7.869 10.392-4.3473 0-7.8709-4.6532-7.869-10.392-2e-3 -5.7384 3.5217-10.392 7.869-10.392 4.3473 0 7.8709 4.6532 7.869 10.392z" stroke="#000"/>
        </g>
        <g stroke-linecap="round" stroke-width="2">
          <path d="m187.15 248.2c8.1e-4 1.9699-0.98589 3.5675-2.2033 3.5675-1.2174 0-2.2041-1.5976-2.2033-3.5675-8.1e-4 -1.9699 0.98589-3.5675 2.2033-3.5675 1.2174 0 2.2041 1.5976 2.2033 3.5675z" fill="#fff"/>
          <path d="m242.24 249.14c8e-4 1.9699-0.98589 3.5674-2.2033 3.5674-1.2174 0-2.2041-1.5976-2.2033-3.5674-8.1e-4 -1.9698 0.98589-3.5675 2.2033-3.5675 1.2174 0 2.2041 1.5976 2.2033 3.5675z" fill="#fff"/>
          <path d="m273.38 154.98c-14.278 0.20438-27.514 11.47-30.931 25.43 6.7114-4.4864 15.134-7.1712 24.275-7.1712 18.371-1e-5 33.827 10.799 38.339 25.43 7.1851-19.495-9.2587-43.83-30.031-43.663-0.55273-0.0255-1.1015-0.0333-1.6517-0.0254z" fill-opacity=".31373"/>
        </g>
        <g stroke-linecap="round">
          <g transform="matrix(1.3917 0 0 1.4058 -239.25 -659.88)" fill="none" stroke="#000" stroke-width="2.8597">
            <path d="m340.57 672.76c32.735-15.109 47.844-1.259 47.844-1.259"/>
            <path d="m337.42 678.43c23.922-15.109 44.696 9.4428 44.696 9.4428"/>
            <path d="m337.42 681.57c25.181-12.59 29.588 18.256 29.588 18.256"/>
          </g>
          <g transform="matrix(-1.3917 0 0 1.4058 667.06 -659.88)" fill="none" stroke="#000" stroke-width="2.8597">
            <path d="m340.57 673.47c32.735-15.109 47.844-1.259 47.844-1.259"/>
            <path d="m337.42 679.14c23.922-15.109 44.696 9.4428 44.696 9.4428"/>
            <path d="m337.42 682.29c25.181-12.59 29.588 18.256 29.588 18.256"/>
          </g>
          <path d="m152.25 152.98c14.278 0.20906 27.514 11.732 30.931 26.012-6.7114-4.589-15.134-7.3353-24.275-7.3353-18.371-2e-5 -33.827 11.047-38.339 26.012-7.1851-19.941 9.2587-44.833 30.031-44.662 0.55275-0.026 1.1015-0.0341 1.6517-0.026z" fill-opacity=".31373" stroke-width="2"/>
        </g>
      </g>
      <g transform="matrix(.33681 .28998 -.28998 .33681 415.02 238.59)" filter="url(#filter1896)">
        <path class="ColorScheme-PositiveText" d="m383.99 482.82a3.2075 3.2075 0 0 1-3.2076 3.2075 3.2075 3.2075 0 0 1-3.2076-3.2075 3.2075 3.2075 0 0 1 3.2076-3.2076 3.2075 3.2075 0 0 1 3.2076 3.2076z" color="#27ae60" fill="currentColor"/>
        <path class="ColorScheme-PositiveText" d="m391.04 477.69a3.2075 3.2075 0 0 1-3.2076 3.2075 3.2075 3.2075 0 0 1-3.2076-3.2075 3.2075 3.2075 0 0 1 3.2076-3.2076 3.2075 3.2075 0 0 1 3.2076 3.2076z" color="#27ae60" fill="#3daee9"/>
        <path class="ColorScheme-PositiveText" d="m392.97 486.03a3.2075 3.2075 0 0 1-3.2076 3.2075 3.2075 3.2075 0 0 1-3.2076-3.2075 3.2075 3.2075 0 0 1 3.2076-3.2076 3.2075 3.2075 0 0 1 3.2076 3.2076z" color="#27ae60" fill="#ff2a2a"/>
      </g>
      <path class="ColorScheme-Text" d="m414.06 511.46v1.7055a9.3897 9.3897 0 0 0-7.6902 7.6841h-1.6994v3.1299h1.7055a9.3897 9.3897 0 0 0 7.6841 7.6902v1.6994h3.1299v-1.7055a9.3897 9.3897 0 0 0 7.6902-7.6841h1.6994v-3.1299h-1.7055a9.3897 9.3897 0 0 0-7.6841-7.6902v-1.6994zm0 4.8996v4.49h-4.487a6.2598 6.2598 0 0 1 4.487-4.49zm3.1299 2e-3a6.2598 6.2598 0 0 1 4.49 4.487h-4.49zm-7.62 7.6168h4.4901v4.487a6.2598 6.2598 0 0 1-4.4901-4.487zm7.62 0h4.487a6.2598 6.2598 0 0 1-4.487 4.4901z" color="#444444" fill="#c2352a" stroke-width="1.5649"/>
    </g>
  </g>
</svg>
