<?xml version="1.0" encoding="UTF-8" standalone="no"?>
<svg
   xmlns:dc="http://purl.org/dc/elements/1.1/"
   xmlns:cc="http://creativecommons.org/ns#"
   xmlns:rdf="http://www.w3.org/1999/02/22-rdf-syntax-ns#"
   xmlns:svg="http://www.w3.org/2000/svg"
   xmlns="http://www.w3.org/2000/svg"
   xmlns:sodipodi="http://sodipodi.sourceforge.net/DTD/sodipodi-0.dtd"
   xmlns:inkscape="http://www.inkscape.org/namespaces/inkscape"
   viewBox="0 0 64 64"
   version="1.1"
   id="svg6"
   sodipodi:docname="ueye-camera.svg"
   width="64"
   height="64"
   inkscape:version="0.92.4 (5da689c313, 2019-01-14)">
  <metadata
     id="metadata10">
    <rdf:RDF>
      <cc:Work
         rdf:about="">
        <dc:format>image/svg+xml</dc:format>
        <dc:type
           rdf:resource="http://purl.org/dc/dcmitype/StillImage" />
        <dc:title />
      </cc:Work>
    </rdf:RDF>
  </metadata>
  <sodipodi:namedview
     pagecolor="#ffffff"
     bordercolor="#666666"
     borderopacity="1"
     objecttolerance="10"
     gridtolerance="10"
     guidetolerance="10"
     inkscape:pageopacity="0"
     inkscape:pageshadow="2"
     inkscape:window-width="1920"
     inkscape:window-height="1021"
     id="namedview8"
     showgrid="false"
     inkscape:zoom="8.0000001"
     inkscape:cx="38.228376"
     inkscape:cy="23.919485"
     inkscape:window-x="0"
     inkscape:window-y="0"
     inkscape:window-maximized="1"
     inkscape:current-layer="g874"
     fit-margin-top="0"
     fit-margin-left="0"
     fit-margin-right="0"
     fit-margin-bottom="0" />
  <defs
     id="defs3051">
    <style
       type="text/css"
       id="current-color-scheme">
      .ColorScheme-Text {
        color:#232629;
      }
      </style>
    <style
       type="text/css"
       id="current-color-scheme-3">
   .ColorScheme-Text { color:#444444; } .ColorScheme-Highlight { color:#4285f4; }
  </style>
  </defs>
  <g
     id="g939"
     transform="matrix(-1,0,0,1,56,0)">
    <g
       id="g964"
       transform="matrix(1.4146341,0,0,1.4146341,-15.609755,-12.030486)">
      <rect
         style="opacity:0.2"
         width="32"
         height="40"
         x="14"
         y="11.625"
         rx="6"
         ry="6"
         id="rect814" />
      <rect
         style="opacity:0.2"
         width="4"
         height="26"
         x="10"
         y="18.625"
         rx="1"
         ry="1"
         id="rect816" />
      <rect
         style="fill:#4f4f4f"
         width="32"
         height="40"
         x="14"
         y="10.625"
         rx="6"
         ry="6"
         id="rect818" />
      <circle
         style="opacity:0.2"
         cx="-16.625"
         cy="-19"
         r="2"
         transform="matrix(0,-1,-1,0,0,0)"
         id="circle820" />
      <circle
         style="fill:#ff4d4d"
         cx="-15.625"
         cy="-19"
         r="2"
         transform="matrix(0,-1,-1,0,0,0)"
         id="circle822" />
      <circle
         style="opacity:0.4"
         cx="-29.625"
         cy="-30"
         r="8"
         transform="matrix(0,-1,-1,0,0,0)"
         id="circle824" />
      <circle
         style="opacity:0.2"
         cx="-30.625"
         cy="30"
         r="6"
         transform="rotate(-90)"
         id="circle826" />
      <circle
         style="fill:#007095"
         cx="-29.625"
         cy="30"
         r="6"
         transform="rotate(-90)"
         id="circle828" />
      <circle
         style="opacity:0.2"
         cx="-30.625"
         cy="-30"
         r="3"
         transform="matrix(0,-1,-1,0,0,0)"
         id="circle830" />
      <circle
         style="fill:#49acdc"
         cx="-29.625"
         cy="-30"
         r="3"
         transform="matrix(0,-1,-1,0,0,0)"
         id="circle832" />
      <rect
         style="fill:#3f3f3f"
         width="4"
         height="26"
         x="10"
         y="17.625"
         rx="1"
         ry="1"
         id="rect834" />
      <path
         inkscape:connector-curvature="0"
         style="opacity:0.1;fill:#ffffff"
         d="m 20,10.625 c -3.324,0 -6,2.676 -6,6 v 1 c 0,-3.324 2.676,-6 6,-6 h 20 c 3.324,0 6,2.676 6,6 v -1 c 0,-3.324 -2.676,-6 -6,-6 z"
         id="path850" />
      <path
         inkscape:connector-curvature="0"
         style="opacity:0.2;fill:#ffffff"
         d="m 19,13.625 a 2,2 0 0 0 -2,2 2,2 0 0 0 0.06445,0.496094 A 2,2 0 0 1 19,14.625 2,2 0 0 1 20.935547,16.128906 2,2 0 0 0 21,15.625 a 2,2 0 0 0 -2,-2 z"
         id="path852" />
      <path
         inkscape:connector-curvature="0"
         style="opacity:0.1;fill:#ffffff"
         d="m 30,23.625 a 6,6 0 0 0 -6,6 6,6 0 0 0 0.02539,0.498047 A 6,6 0 0 1 30,24.625 6,6 0 0 1 35.974609,30.126953 6,6 0 0 0 36,29.625 a 6,6 0 0 0 -6,-6 z"
         id="path854" />
      <path
         inkscape:connector-curvature="0"
         style="opacity:0.2;fill:#ffffff"
         d="m 30,26.625 a 3,3 0 0 0 -3,3 3,3 0 0 0 0.04297,0.486328 A 3,3 0 0 1 30,27.625 3,3 0 0 1 32.957031,30.138672 3,3 0 0 0 33,29.625 a 3,3 0 0 0 -3,-3 z"
         id="path856" />
      <path
         inkscape:connector-curvature="0"
         style="opacity:0.1;fill:#ffffff"
         d="m 11,17.625 c -0.554,0 -1,0.446 -1,1 v 1 c 0,-0.554 0.446,-1 1,-1 h 2 c 0.554,0 1,0.446 1,1 v -1 c 0,-0.554 -0.446,-1 -1,-1 z"
         id="path858" />
    </g>
    <g
       id="g849"
       transform="matrix(0.75109575,0,0,0.75109575,33.070293,62.522381)">
      <g
         id="g874"
         transform="matrix(0.37770782,0,0,0.37770782,-20.73536,-16.248399)">
        <path
           sodipodi:nodetypes="cccccccccccccccssscccsssssccccsssssscccssscccscccaccccccc"
           inkscape:connector-curvature="0"
           id="path851"
           d="M 104.71394,1.5346402 V -11.46536 h -5.25 -5.249996 V 1.5346402 14.53464 h 5.249996 5.25 z M 78.213944,1.6350642 V -11.46536 h -5 -5 v 9.0000002 9 h -5.852117 c -16.010135,0 -21.661817,-16.8076772 -8.864473,-26.3622752 2.16431,-1.61589 4.714409,-2.070504 13.688212,-2.44024 l 11.028378,-0.454387 v -3.371549 -3.371549 H 67.395445 c -14.005804,0 -20.220203,1.775544 -25.822531,7.377872 -4.88217,4.88217 -6.849069,10.797418 -5.995214,18.0299892 0.832347,7.050385 4.388308,11.832441 11.33525,15.2436408 5.281319,2.593319 6.943187,2.87989 18.550994,3.198922 l 12.75,0.350424 z m -53,8.8995758 V 6.5346402 H 10.785373 c -15.2752191,0 -17.5714291,-0.653394 -17.5714291,-5 0,-3.872342 2.65128,-5 11.7557,-5 9.9835801,0 15.7070251,-2.12759 18.5161451,-6.8830502 2.424802,-4.104863 2.227361,-10.212596 -0.439745,-13.603271 -3.629276,-4.613876 -7.350111,-5.513679 -22.7999801,-5.513679 H -13.786056 v 3.5 3.5 h 11.4348999 c 13.0441711,0 16.2353461,0.837973 17.1556921,4.504925 1.224524,4.878891 -1.403952,6.22431 -12.9986221,6.653513 -9.39859,0.347909 -10.61589,0.622426 -13.9135699,3.137693 -5.09563,3.8866242 -6.591,9.1727772 -4.05742,14.3429962 1.03346,2.108964 3.40807,4.8529178 5.2769,6.0976758 3.1830899,2.12013 4.4315799,2.263197 19.750003,2.263197 h 16.352117 z m 79.499996,-36.5 v -3.5 h -5.25 -5.249996 v 3.5 3.5 h 5.249996 5.25 z"
           style="fill:#e3dedb;fill-opacity:1" />
        <path
           sodipodi:nodetypes="cccccccccccccccccccccaccccc"
           inkscape:connector-curvature="0"
           id="path853"
           d="m -27.77042,9.529017 -0.38146,-3.9999997 h -4.89497 -4.89496 v 3.9999997 4 h 5.27643 5.27642 z m 0.32861,-17.9999997 v -4.0000003 h -5.25 -5.25 v 4.0000003 4 h 5.25 5.25 z m -0.32861,-18.0000043 0.38146,-4 h -5.27642 -5.27643 v 4 4 h 4.89496 4.89497 z"
           style="fill:#1496a3;fill-opacity:1" />
      </g>
    </g>
  </g>
</svg>
