<?xml version="1.0" encoding="UTF-8"?>
<svg width="64" height="64" version="1.1" viewBox="0 0 64 64" xmlns="http://www.w3.org/2000/svg" xmlns:cc="http://creativecommons.org/ns#" xmlns:dc="http://purl.org/dc/elements/1.1/" xmlns:rdf="http://www.w3.org/1999/02/22-rdf-syntax-ns#" xmlns:xlink="http://www.w3.org/1999/xlink">
  <metadata>
    <rdf:RDF>
      <cc:Work rdf:about="">
        <dc:format>image/svg+xml</dc:format>
        <dc:type rdf:resource="http://purl.org/dc/dcmitype/StillImage"/>
      </cc:Work>
    </rdf:RDF>
  </metadata>
  <defs>
    <style id="current-color-scheme" type="text/css">.ColorScheme-Text {
        color:#232629;
      }</style>
    <style type="text/css">.ColorScheme-Text { color:#444444; } .ColorScheme-Highlight { color:#4285f4; }</style>
    <style type="text/css">.ColorScheme-Text { color:#444444; } .ColorScheme-Highlight { color:#4285f4; }</style>
    <style type="text/css">.ColorScheme-Text {
        color:#232629;
      }</style>
    <style type="text/css">.ColorScheme-Text {
        color:#232629;
      }</style>
    <style type="text/css">.ColorScheme-Text { color:#444444; } .ColorScheme-Highlight { color:#4285f4; }</style>
    <style type="text/css">.ColorScheme-Text {
        color:#232629;
      }</style>
    <path id="b" d="m369 312.36v44h58v-44h-18.455z"/>
    <style type="text/css">.ColorScheme-Text {
        color:#232629;
      }</style>
    <style type="text/css">.ColorScheme-Text { color:#444444; } .ColorScheme-Highlight { color:#4285f4; }</style>
    <linearGradient id="a-6-2" x2="0" y1="392.36" y2="324.66" gradientTransform="matrix(1 0 0 .84587 365 22.628)" gradientUnits="userSpaceOnUse">
      <stop stop-color="#fff" stop-opacity=".1" offset="0"/>
      <stop stop-color="#fff" stop-opacity=".4" offset="1"/>
    </linearGradient>
    <linearGradient id="linearGradient867" x1="381.82" x2="423.61" y1="320.08" y2="356.61" gradientUnits="userSpaceOnUse">
      <stop stop-color="#4ec6f4" offset="0"/>
      <stop stop-color="#0c77cd" offset="1"/>
    </linearGradient>
    <style type="text/css">.ColorScheme-Text {
        color:#232629;
      }
      .ColorScheme-Highlight {
        color:#3daee9;
      }</style>
    <style type="text/css">.ColorScheme-Text { color:#f2f2f2 }</style>
    <style type="text/css">.ColorScheme-Text { color:#f2f2f2 }</style>
    <style type="text/css">.ColorScheme-Text { color:#f2f2f2 }</style>
    <style type="text/css">.ColorScheme-Text {
        color:#232629;
      }</style>
  </defs>
  <g transform="matrix(1.0182 0 0 1.0182 25.274 96.906)">
    <g transform="translate(-.0057311 .0078108)">
      <g transform="matrix(.97607 0 0 .97607 -.36154 -1.9792)">
        <g transform="translate(.53253 .46451)">
          <g transform="matrix(.98214 0 0 .98214 .11798 -1.1385)">
            <use transform="translate(-391.39 -398.11)" width="100%" height="100%" fill="url(#linearGradient867)" xlink:href="#b"/>
            <rect x="-22.394" y="-42.747" width="58" height="1" fill="#2e3132" fill-opacity=".294"/>
            <g transform="translate(-391.39 -398.11)" fill="#fff">
              <path d="m369 312.35v44.007l6.5953 5e-3v-43.995h-2.1986v2.1985h-2.1986v-2.1985zm2.1989 4.4136h2.1986v2.1985h-2.1986zm0 4.3971h2.1986v2.1985h-2.1986zm0 4.3971h2.1986v2.1986h-2.1986zm0 4.3971h2.1986v2.1985h-2.1986zm0 4.3971h2.1986v2.1985h-2.1986zm0 4.3971h2.1986v2.1985h-2.1986zm0 4.3971h2.1986v2.1986h-2.1986zm0 4.3971h2.1986v2.1985h-2.1986zm0 4.3971h2.1986v2.1985h-2.1986z" fill="#000" opacity=".656" stroke-linejoin="round" stroke-width=".54964"/>
              <path d="m420.4 312.34v44.007l6.5953 5e-3v-43.995h-2.1986v2.1985h-2.1986v-2.1985zm2.1989 4.4136h2.1986v2.1985h-2.1986zm0 4.3971h2.1986v2.1985h-2.1986zm0 4.3971h2.1986v2.1986h-2.1986zm0 4.3971h2.1986v2.1985h-2.1986zm0 4.3971h2.1986v2.1985h-2.1986zm0 4.3971h2.1986v2.1985h-2.1986zm0 4.3971h2.1986v2.1986h-2.1986zm0 4.3971h2.1986v2.1985h-2.1986zm0 4.3971h2.1986v2.1985h-2.1986z" fill="#000" opacity=".656" stroke-linejoin="round" stroke-width=".54964"/>
              <rect x="369" y="312.36" width="58" height="1" fill-opacity=".41"/>
            </g>
            <use transform="translate(-391.38 -398.11)" width="100%" height="100%" color="#000000" color-rendering="auto" fill="url(#a-6-2)" image-rendering="auto" shape-rendering="auto" text-rendering="auto" xlink:href="#b"/>
          </g>
          <g transform="translate(-.53253 -.46451)">
            <path class="ColorScheme-Text" d="m-20.971-91.474v14.324h9.5493v33.423h33.423v9.5493h14.324v-14.324h-9.5493v-30.14l9.5493-9.5493-3.2826-3.2826-9.5493 9.5493h-30.14v-9.5493h-4.7747zm4.7747 4.7747h4.7747v4.7746h-4.7747zm9.5493 9.5493h25.365l-25.365 25.365zm28.648 3.2826v25.365h-25.365zm4.7746 30.14h4.7747v4.7746h-4.7747z" color="#232629" fill="#4d4d4d" opacity=".2"/>
            <path class="ColorScheme-Text" d="m-22.036-92.403v14.324h9.5493v33.423h33.423v9.5493h14.324v-14.324h-9.5493v-30.14l9.5493-9.5493-3.2826-3.2826-9.5493 9.5493h-30.14v-9.5493h-4.7747zm4.7747 4.7747h4.7747v4.7746h-4.7747zm9.5493 9.5493h25.365l-25.365 25.365zm28.648 3.2826v25.365h-25.365zm4.7746 30.14h4.7747v4.7747h-4.7747z" fill="#27ae60"/>
          </g>
        </g>
      </g>
    </g>
  </g>
</svg>
