<?xml version="1.0" encoding="UTF-8" standalone="no"?>
<svg
   xmlns:dc="http://purl.org/dc/elements/1.1/"
   xmlns:cc="http://creativecommons.org/ns#"
   xmlns:rdf="http://www.w3.org/1999/02/22-rdf-syntax-ns#"
   xmlns:svg="http://www.w3.org/2000/svg"
   xmlns="http://www.w3.org/2000/svg"
   xmlns:sodipodi="http://sodipodi.sourceforge.net/DTD/sodipodi-0.dtd"
   xmlns:inkscape="http://www.inkscape.org/namespaces/inkscape"
   viewBox="0 0 64 64"
   version="1.1"
   id="svg6"
   sodipodi:docname="videorecorder.svg"
   width="64"
   height="64"
   inkscape:version="0.92.4 (5da689c313, 2019-01-14)">
  <metadata
     id="metadata10">
    <rdf:RDF>
      <cc:Work
         rdf:about="">
        <dc:format>image/svg+xml</dc:format>
        <dc:type
           rdf:resource="http://purl.org/dc/dcmitype/StillImage" />
        <dc:title />
      </cc:Work>
    </rdf:RDF>
  </metadata>
  <sodipodi:namedview
     pagecolor="#ffffff"
     bordercolor="#666666"
     borderopacity="1"
     objecttolerance="10"
     gridtolerance="10"
     guidetolerance="10"
     inkscape:pageopacity="0"
     inkscape:pageshadow="2"
     inkscape:window-width="1920"
     inkscape:window-height="1021"
     id="namedview8"
     showgrid="false"
     inkscape:zoom="5.3636365"
     inkscape:cx="3.2462012"
     inkscape:cy="28.157525"
     inkscape:window-x="0"
     inkscape:window-y="0"
     inkscape:window-maximized="1"
     inkscape:current-layer="svg6"
     fit-margin-top="0"
     fit-margin-left="0"
     fit-margin-right="0"
     fit-margin-bottom="0" />
  <defs
     id="defs3051">
    <style
       type="text/css"
       id="current-color-scheme">
      .ColorScheme-Text {
        color:#232629;
      }
      </style>
    <style
       type="text/css"
       id="current-color-scheme-3">
   .ColorScheme-Text { color:#444444; } .ColorScheme-Highlight { color:#4285f4; }
  </style>
    <style
       type="text/css"
       id="current-color-scheme-36">
   .ColorScheme-Text { color:#444444; } .ColorScheme-Highlight { color:#4285f4; }
  </style>
    <style
       id="current-color-scheme-5"
       type="text/css">
      .ColorScheme-Text {
        color:#232629;
      }
      </style>
  </defs>
  <g
     id="g899"
     transform="translate(-0.09673915,1.0338978)">
    <g
       transform="matrix(0.65966422,-3.8099809,3.8099809,0.65966422,-6.2292724,57.743794)"
       id="g861">
      <circle
         style="fill:#b7b7b7"
         cx="8.5"
         cy="8.5"
         r="7.5"
         id="circle835" />
      <g
         transform="translate(-15.5,-15)"
         id="g841">
        <circle
           style="fill:#3f3f3f"
           cx="24"
           cy="20"
           r="2"
           id="circle837" />
        <circle
           style="fill:#3f3f3f"
           cx="24"
           cy="27"
           r="2"
           id="circle839" />
      </g>
      <circle
         style="fill:#3f3f3f"
         cx="8.5"
         cy="-12"
         r="2"
         transform="rotate(90)"
         id="circle843" />
      <circle
         style="fill:#3f3f3f"
         cx="8.5"
         cy="-5"
         r="2"
         transform="rotate(90)"
         id="circle845" />
    </g>
    <g
       id="g20"
       transform="matrix(1.5985952,0,0,1.3776851,26.261673,29.88855)">
      <path
         id="path2"
         d="m 22,20.5 v -16 c 0,-0.554 -0.446,-1 -1,-1 H 3 c -0.554,0 -1,0.446 -1,1 v 16 c 0,0.554 0.446,1 1,1 h 18 c 0.554,0 1,-0.446 1,-1 z"
         style="opacity:0.2"
         inkscape:connector-curvature="0" />
      <path
         id="path4"
         d="M 22,20 V 4 C 22,3.446 21.554,3 21,3 H 3 C 2.446,3 2,3.446 2,4 v 16 c 0,0.554 0.446,1 1,1 h 18 c 0.554,0 1,-0.446 1,-1 z"
         style="fill:#7282d9"
         inkscape:connector-curvature="0" />
      <path
         id="path6"
         d="M 3,3 C 2.446,3 2,3.446 2,4 v 0.5 c 0,-0.554 0.446,-1 1,-1 h 18 c 0.554,0 1,0.446 1,1 V 4 C 22,3.446 21.554,3 21,3 Z"
         style="opacity:0.2;fill:#ffffff"
         inkscape:connector-curvature="0" />
      <g
         id="g12"
         transform="translate(1,0.5)"
         style="opacity:0.2">
        <path
           id="path8"
           d="M 6.5318,8 H 13.467 C 14,8 14,8.5714 14,8.5714 v 6.8571 c 0,0.572 -0.533,0.572 -0.533,0.572 H 6.5334 c 0,0 -0.5334,0 -0.5334,-0.571 V 8.5719 c 0,0 0,-0.5714 0.5334,-0.5714 z"
           inkscape:connector-curvature="0" />
        <path
           id="path10"
           d="m 17,9 v 6 l -3,-3.1304 z"
           inkscape:connector-curvature="0" />
      </g>
      <g
         id="g18"
         transform="translate(1)"
         style="fill:#ffffff">
        <path
           id="path14"
           d="M 6.5318,8 H 13.467 C 14,8 14,8.5714 14,8.5714 v 6.8571 c 0,0.572 -0.533,0.572 -0.533,0.572 H 6.5334 c 0,0 -0.5334,0 -0.5334,-0.571 V 8.5719 c 0,0 0,-0.5714 0.5334,-0.5714 z"
           inkscape:connector-curvature="0" />
        <path
           id="path16"
           d="m 17,9 v 6 l -3,-3.1304 z"
           inkscape:connector-curvature="0" />
      </g>
    </g>
  </g>
</svg>
