<?xml version="1.0" encoding="UTF-8"?>
<svg width="64" height="64" version="1.1" viewBox="-65.243 -57.889 84.795 85.865" xml:space="preserve" xmlns="http://www.w3.org/2000/svg" xmlns:cc="http://creativecommons.org/ns#" xmlns:dc="http://purl.org/dc/elements/1.1/" xmlns:rdf="http://www.w3.org/1999/02/22-rdf-syntax-ns#" xmlns:xlink="http://www.w3.org/1999/xlink"><metadata><rdf:RDF><cc:Work rdf:about=""><dc:format>image/svg+xml</dc:format><dc:type rdf:resource="http://purl.org/dc/dcmitype/StillImage"/></cc:Work></rdf:RDF></metadata><defs><style id="current-color-scheme" type="text/css">
      .ColorScheme-Text {
        color:#232629;
      }
      </style><style type="text/css">
   .ColorScheme-Text { color:#444444; } .ColorScheme-Highlight { color:#4285f4; }
  </style><style type="text/css">.ColorScheme-Text {
        color:#232629;
      }</style><style type="text/css">.ColorScheme-Text { color:#444444; } .ColorScheme-Highlight { color:#4285f4; }</style><style type="text/css">.ColorScheme-Text { color:#444444; } .ColorScheme-Highlight { color:#4285f4; }</style><style type="text/css">.ColorScheme-Text {
        color:#232629;
      }</style><style type="text/css">.ColorScheme-Text {
        color:#232629;
      }</style><style type="text/css">.ColorScheme-Text { color:#444444; } .ColorScheme-Highlight { color:#4285f4; }</style><style type="text/css">.ColorScheme-Text {
        color:#232629;
      }</style><style type="text/css">.ColorScheme-Text {
        color:#232629;
      }</style><style type="text/css">.ColorScheme-Text { color:#444444; } .ColorScheme-Highlight { color:#4285f4; }</style><style type="text/css">.ColorScheme-Text {
        color:#232629;
      }
      .ColorScheme-Highlight {
        color:#3daee9;
      }</style><style type="text/css">.ColorScheme-Text { color:#f2f2f2 }</style><style type="text/css">.ColorScheme-Text { color:#f2f2f2 }</style><style type="text/css">.ColorScheme-Text { color:#f2f2f2 }</style><style type="text/css">.ColorScheme-Text {
        color:#232629;
      }</style><linearGradient id="linearGradient4174-5" x2="0" y1="543.8" y2="503.8" gradientTransform="translate(-817.14)" gradientUnits="userSpaceOnUse"><stop stop-color="#c6cdd1" offset="0"/><stop stop-color="#e0e5e7" offset="1"/></linearGradient><style type="text/css">.ColorScheme-Text {
        color:#232629;
      }</style><style type="text/css">.ColorScheme-Text { color:#444444; } .ColorScheme-Highlight { color:#4285f4; }</style><style type="text/css">
      .ColorScheme-Text {
        color:#232629;
      }
      </style><style type="text/css">
      .ColorScheme-Text {
        color:#232629;
      }
      </style><style type="text/css">
      .ColorScheme-Text {
        color:#232629;
      }
      </style><style type="text/css">
   .ColorScheme-Text { color:#444444; } .ColorScheme-Highlight { color:#4285f4; } .ColorScheme-NeutralText { color:#ff9800; } .ColorScheme-PositiveText { color:#4caf50; } .ColorScheme-NegativeText { color:#f44336; }
  </style><style type="text/css">
      .ColorScheme-Text {
        color:#232629;
      }
      </style><radialGradient id="radialGradient3" cx="-22.913" cy="-25.179" r="19.192" gradientTransform="rotate(90 -22.913 -25.179)" gradientUnits="userSpaceOnUse"><stop stop-color="#c92943" offset="0"/><stop stop-color="#8e44ad" offset="1"/></radialGradient></defs><g transform="matrix(1.0985 0 0 1.0985 2.3248 .14924)"><g transform="matrix(1.2213 0 0 1.2213 -62.009 -52.851)"><g transform="matrix(1.425,0,0,1.425,-550.2,-714.4)" stroke-opacity=".55026" stroke-width="2.8"><rect transform="scale(-1,1)" x="-428.57" y="503.8" width="40" height="40" rx="20" fill="url(#linearGradient4174-5)"/><path d="m388.58 523.3c-4e-3 0.16686-0.0117 0.33212-0.0117 0.5 0 11.08 8.92 20 20 20s20-8.92 20-20c0-0.16788-8e-3 -0.33315-0.0117-0.5-0.26418 10.847-9.0758 19.5-19.988 19.5s-19.724-8.6534-19.988-19.5z" fill="#99a1a7"/></g></g><path d="m-25.672-6.5326v5.902h-8.7336v-2.9112h-11.645v11.645h11.645v-2.9112h23.29v2.9112h11.645v-11.645h-11.645v2.9112h-8.7336v-5.902s-5.7915 0.29483-5.8224 0zm-17.467 5.902h5.8224v5.8224h-5.8224zm34.934 0h5.8224v5.8224h-5.8224z" fill="#8e44ad" stroke-width="5.8224"/><path class="ColorScheme-Text" d="m-22.913-44.37a19.192 19.192 0 0 0-19.192 19.192 19.192 19.192 0 0 0 19.192 19.192 19.192 19.192 0 0 0 19.192-19.192 19.192 19.192 0 0 0-19.192-19.192zm0 3.1986a15.993 15.993 0 0 1 15.993 15.993 15.993 15.993 0 0 1-15.993 15.993 15.993 15.993 0 0 1-15.993-15.993 15.993 15.993 0 0 1 15.993-15.993zm0 3.1986a12.795 12.795 0 0 0-8.184 2.9675l2.0491 2.4614a9.5959 9.5959 0 0 1 6.1349-2.2303 9.5959 9.5959 0 0 1 9.5959 9.5959h3.1986a12.795 12.795 0 0 0-12.795-12.795zm3.1986 6.3973-5.1228 10.246a3.1986 3.1986 0 0 0-1.2745 2.5489 3.1986 3.1986 0 0 0 3.1986 3.1986 3.1986 3.1986 0 0 0 3.1986-3.1986 3.1986 3.1986 0 0 0-0.80589-2.1116zm-14.294 0.05623a12.795 12.795 0 0 0-1.6993 6.341h3.1986a9.5959 9.5959 0 0 1 1.2745-4.7542z" fill="url(#radialGradient3)"/></g></svg>
