<?xml version="1.0" encoding="UTF-8"?>
<svg width="48" height="48" version="1.1" xml:space="preserve" xmlns="http://www.w3.org/2000/svg"><g transform="matrix(1.1998 0 0 1.1998 -27.197 .42811)"/><g transform="matrix(1.9091 0 0 1.9091 3 3.0015)"><rect y="13.5" width="22" height="8" rx=".78571" ry=".78571" opacity=".2"/><rect transform="matrix(-1.1998 0 0 1.1998 -27.197 .42811)" x="-39.336" y=".058648" width="15" height="16" rx=".34926" ry=".34926" fill="#e4e4e4"/><path transform="matrix(.7266 0 0 .7266 2.2808 -.078682)" d="m3 3c-0.554 0-1 0.446-1 1v12h20v-12c0-0.554-0.446-1-1-1z" fill="#ff766a"/><path transform="matrix(.7266 0 0 .7266 2.2808 -.078682)" d="m16 6.5001c1.6568 0 2.9999 1.3431 2.9999 2.9999s-1.3431 2.9999-2.9999 2.9999-2.9999-1.3431-2.9999-2.9999 1.3431-2.9999 2.9999-2.9999z" fill-rule="evenodd" opacity=".2"/><path transform="matrix(.7266 0 0 .7266 2.2808 -.078682)" d="m16 6.0001c1.6568 0 2.9999 1.3431 2.9999 2.9999 0 1.657-1.343 3-3 3s-3-1.343-3-3c0-1.6567 1.343-2.9998 3-2.9998z" fill="#fffee4" fill-rule="evenodd"/><path transform="matrix(.7266 0 0 .7266 2.2808 -.078682)" d="m3.0005 3.0004c-0.55398 0-0.99996 0.44598-0.99996 0.99996v0.49998c0-0.55398 0.44598-0.99996 0.99996-0.99996h17.999c0.55398 0 0.99996 0.44598 0.99996 0.99996v-0.49998c0-0.55398-0.44598-0.99996-0.99996-0.99996z" fill="#fff" opacity=".2"/><path transform="matrix(.7266 0 0 .7266 2.2808 -.078682)" d="m2.0005 15v3.9998c0 0.55398 0.44598 0.99996 0.99996 0.99996h17.999c0.55398 0 0.99996-0.44598 0.99996-0.99996v-3.9998z" fill="#d22f7a"/><path transform="matrix(.7266 0 0 .7266 2.2808 -.078682)" d="m2.0005 20v0.49998c0 0.55398 0.44598 0.99996 0.99996 0.99996h17.999c0.55398 0 0.99996-0.44598 0.99996-0.99996v-0.49998c0 0.55398-0.44598 0.99996-0.99996 0.99996h-17.999c-0.5545 0-1.0005-0.446-1.0005-1z" opacity=".2"/><path transform="matrix(.7266 0 0 .7266 2.2808 -.078682)" d="m2.0005 15v-0.57148s1.4422-0.95231 1.8477-1.0354c0.40547-0.08309 0.88431-0.01545 1.3764 0.07742 0.49212 0.09257 1.2268 0.21777 1.4561 0.22559 0.2293 8e-3 0.64422-0.02 1.1264-0.04915 0.48212-0.02855 1.2804-0.05486 1.5294-0.052 0.24899 0 0.87057 0.0343 1.5332 0.07474 0.66257 0.04055 1.5727 0.10834 1.7791 0.12731 0.20649 0.01885 0.4492 0.05371 0.72467 0.09171 0.27544 0.0377 0.75227 0.09468 0.92101 0.11034 0.16869 0.0154 0.55978 0.0692 1.0136 0.11097 0.45377 0.0417 1.18 0.056 1.3896 0.04055 0.20971-0.01545 0.64927-0.17073 1.1392-0.31387 0.48986-0.14308 1.03-0.2741 1.4408-0.24171 0.411 0.032 2.722 0.833 2.722 0.833v0.57143h-17.57z"/><rect y="13" width="22" height="8" rx=".78571" ry=".78571" fill="#9e9c89"/><path d="m3 20h1.5v-5h7v5h3v-5h3.0001v5h1.4999" fill="none" opacity=".2" stroke="#000"/><path d="m3 19.5h1.5v-5h7v5h3v-5h3.0001v5h1.4999" fill="none" stroke="#d6d5cd"/><path d="m1.5 13c-0.831 0-1.5 0.669-1.5 1.5v0.5c0-0.831 0.669-1.5 1.5-1.5h19c0.831 0 1.5 0.669 1.5 1.5v-0.5c0-0.831-0.669-1.5-1.5-1.5z" fill="#fff" opacity=".2"/></g></svg>
