<?xml version="1.0" encoding="UTF-8"?>
<svg width="48" height="48" version="1.1" xml:space="preserve" xmlns="http://www.w3.org/2000/svg" xmlns:xlink="http://www.w3.org/1999/xlink"><defs><style id="current-color-scheme" type="text/css">
   .ColorScheme-Text { color:#444444; } .ColorScheme-Highlight { color:#4285f4; } .ColorScheme-NeutralText { color:#ff9800; } .ColorScheme-PositiveText { color:#4caf50; } .ColorScheme-NegativeText { color:#f44336; }
  </style><style type="text/css">
      .ColorScheme-Text {
        color:#232629;
      }
      </style></defs><g transform="matrix(1.05,0,0,1.05,-1.2,-1.725)"><rect x="4" y="5" width="40" height="40" rx="2.8571" ry="2.8571" opacity=".2"/><rect x="4" y="4" width="40" height="40" rx="2.8571" ry="2.8571" fill="#e4e4e4"/></g><g transform="translate(9.5814 -68.604)"><g transform="translate(0 -.3362)"><g transform="matrix(1.2933 0 0 1.2933 13.126 73.121)"><path d="m8 4e-8c-4.432 0-8 3.568-8 8 2.1143e-7 4.432 3.568 8 8 8s8-3.568 8-8-3.568-8-8-8z" fill="#3285b8"/><path d="m8 2c-3.324 0-6 2.676-6 6s2.676 6 6 6 6-2.676 6-6-2.676-6-6-6z" fill="#40bc6d"/><path d="m8 4c-2.216 0-4 1.784-4 4s1.784 4 4 4 4-1.784 4-4-1.784-4-4-4z" fill="#e9bf1c"/><path d="m8 6c-1.108 0-2 0.892-2 2s0.892 2 2 2 2-0.892 2-2-0.892-2-2-2z" fill="#dc5b4b"/></g><g transform="matrix(.9748 0 0 .9748 -12.34 72.937)"><path class="ColorScheme-Text" d="m10.634 7.5489-1.0925 1.9921-1.9921 1.0925 1.9921 1.0925 1.0925 1.9921 1.0925-1.9921 1.9921-1.0925-1.9921-1.0925zm10.282 0-1.0925 1.9921-1.9921 1.0925 1.9921 1.0925 1.0925 1.9921 1.0925-1.9921 1.9921-1.0925-1.9921-1.0925zm13.72 0-27.086 27.086 5.8157 5.8157 27.086-27.086zm-0.14057 3.0484 2.9079 2.9079-6.37 6.374-2.9119-2.9119zm-19.748 5.1771-1.0925 1.9921-1.9921 1.0925 1.9921 1.0925 1.0925 1.9921 1.0925-1.9921 1.9921-1.0925-1.9921-1.0925z" color="#232629"/><path class="ColorScheme-Text" d="m11.034 7.9489-1.0925 1.9921-1.9921 1.0925 1.9921 1.0925 1.0925 1.9921 1.0925-1.9921 1.9921-1.0925-1.9921-1.0925zm10.282 0-1.0925 1.9921-1.9921 1.0925 1.9921 1.0925 1.0925 1.9921 1.0925-1.9921 1.9921-1.0925-1.9921-1.0925zm13.72 0-27.086 27.086 5.8157 5.8157 27.086-27.086zm-0.14057 3.0484 2.9079 2.9079-6.37 6.374-2.9119-2.9119zm-19.748 5.1771-1.0925 1.9921-1.9921 1.0925 1.9921 1.0925 1.0925 1.9921 1.0925-1.9921 1.9921-1.0925-1.9921-1.0925z" color="#232629" opacity=".2"/></g></g></g></svg>
