<?xml version="1.0" encoding="UTF-8"?>
<svg width="48" height="48" version="1" xml:space="preserve" xmlns="http://www.w3.org/2000/svg"><defs><style id="current-color-scheme" type="text/css">
   .ColorScheme-Text { color:#444444; } .ColorScheme-Highlight { color:#4285f4; } .ColorScheme-NeutralText { color:#ff9800; } .ColorScheme-PositiveText { color:#4caf50; } .ColorScheme-NegativeText { color:#f44336; }
  </style></defs><g transform="matrix(1.05,0,0,1.05,-1.2,-1.725)"><circle cx="24" cy="25" r="20" opacity=".2"/><circle cx="24" cy="24" r="20" fill="#546e7a"/><path d="m24.82 7.6468c-0.29978-0.00174-0.41589 0.2359-1.0241 2.0869l-0.60523 1.8399-0.92238 0.08232c-0.50799 0.0459-1.0946 0.11899-1.3025 0.1622-0.2748 0.05709-0.40283 0.05838-0.46966 0.0025-0.05052-0.042-0.47887-0.7363-0.95143-1.5421-0.94439-1.6104-1.1362-1.869-1.4017-1.869-0.27909 0-2.1492 0.74483-2.2854 0.91027-0.06682 0.081214-0.11975 0.24799-0.11862 0.36798 8.67e-4 0.11998 0.16889 0.99816 0.37283 1.9537 0.20395 0.95555 0.35862 1.7702 0.34377 1.8084-0.01483 0.03818-0.23682 0.19829-0.49387 0.3583-0.25705 0.16001-0.72452 0.4972-1.0362 0.74807-0.31164 0.25088-0.5956 0.45756-0.63186 0.45756-0.03625 0-0.76477-0.39587-1.6196-0.8788-1.7577-0.99298-1.8413-1.0313-2.0893-0.9369-0.2679 0.10196-1.5833 1.7711-1.5833 2.0094 0 0.25823 0.06361 0.33866 1.4041 1.8302 0.64091 0.7131 1.1645 1.3473 1.1645 1.409 0 0.06161-0.13414 0.38534-0.3002 0.71902-0.16606 0.33368-0.38797 0.83205-0.49145 1.1064-0.10349 0.27431-0.22633 0.52968-0.27357 0.56892-0.05278 0.0439-0.82581 0.07932-2.007 0.092-2.3697 0.02542-2.1612-0.08869-2.3846 1.3218-0.086507 0.54634-0.16008 1.0757-0.1622 1.1766-0.00781 0.37581 0.15109 0.45924 2.0796 1.0943l1.8375 0.60523 0.07989 0.90059c0.0448 0.49611 0.11617 1.0866 0.15736 1.3097 0.04125 0.22317 0.05719 0.43332 0.03631 0.46724-0.02098 0.03393-0.73123 0.47126-1.5785 0.97322-0.84722 0.50197-1.6087 0.98969-1.6947 1.0822-0.0859 0.09248-0.15736 0.25014-0.15736 0.35104 0 0.29519 0.75716 2.1581 0.9248 2.2757 0.21917 0.15366 0.4084 0.13095 2.3023-0.27357 0.95417-0.2038 1.7674-0.35538 1.806-0.33893 0.03856 0.01648 0.20057 0.23792 0.36072 0.49387 0.16014 0.25594 0.49897 0.7245 0.75291 1.041 0.31597 0.39382 0.44681 0.61307 0.4164 0.69239-0.02445 0.06377-0.41566 0.77802-0.87154 1.5881-0.93439 1.6605-0.98818 1.7759-0.92722 2.0191 0.06232 0.24864 1.7809 1.6227 2.0287 1.622 0.25566-6.42e-4 0.3781-0.09409 1.8109-1.3896 0.69747-0.63066 1.3205-1.1558 1.3848-1.1669 0.06431-0.01116 0.39596 0.11851 0.73839 0.28809 0.34242 0.16958 0.86614 0.39422 1.1621 0.49871 0.29591 0.10448 0.54443 0.19391 0.55197 0.19852 0.0078 0.0043 0.02971 0.90665 0.05085 2.0045 0.04714 2.4518-0.06472 2.2379 1.3049 2.4597 1.0292 0.16662 1.4351 0.16775 1.6002 0.0025 0.05755-0.05761 0.37402-0.92834 0.70449-1.9343l0.60039-1.8278 0.69239-0.05326c0.37992-0.02924 0.97092-0.10082 1.3146-0.15736 0.62208-0.10236 0.62655-0.10203 0.75533 0.05326 0.07116 0.08581 0.51352 0.81211 0.98532 1.6148 0.4718 0.80266 0.92537 1.5164 1.0071 1.5833 0.22383 0.18316 0.38363 0.15384 1.4647-0.25904 1.031-0.39376 1.2378-0.53755 1.2371-0.86186-2.09e-4 -0.10089-0.16892-0.97933-0.37525-1.9537-0.20633-0.97437-0.35961-1.7982-0.34135-1.8278 0.0183-0.02959 0.256-0.20444 0.53019-0.38977 0.27418-0.18533 0.73285-0.52815 1.0192-0.7626 0.28637-0.23444 0.55074-0.42604 0.58587-0.42608 0.03512-5.2e-5 0.78437 0.40212 1.6656 0.89333 1.8016 1.0042 1.7904 0.9992 2.0287 0.93932 0.25356-0.06369 1.622-1.7855 1.622-2.0409 0-0.23891-0.05779-0.31317-1.4211-1.8327-0.61207-0.68219-1.1237-1.2962-1.1354-1.3654-0.0119-0.06915 0.10627-0.37855 0.26146-0.68755 0.15519-0.309 0.37674-0.80501 0.49387-1.1015 0.11712-0.29652 0.24364-0.56944 0.28083-0.60766 0.04023-0.0413 0.85397-0.08342 2.007-0.1041 1.8498-0.03315 1.9461-0.04297 2.0844-0.18157 0.1135-0.11375 0.1806-0.36993 0.3123-1.1814 0.09249-0.56988 0.16891-1.1021 0.16947-1.1838 0.0026-0.33034-0.19612-0.43131-2.082-1.0579l-1.8399-0.61008-0.07747-0.89817c-0.04307-0.49394-0.11255-1.0831-0.15494-1.3073-0.04237-0.2242-0.05998-0.43528-0.03873-0.46966 0.02125-0.03436 0.73151-0.47244 1.5785-0.97322s1.6088-0.98654 1.6947-1.0797c0.0859-0.0932 0.15736-0.24829 0.15736-0.34377 0-0.27383-0.7459-2.1324-0.91027-2.2684-0.20884-0.17281-0.35157-0.15809-2.0118 0.1961-1.9494 0.41587-2.0541 0.43445-2.1256 0.38493-0.03347-0.02317-0.21154-0.26906-0.39461-0.54713-0.18307-0.27808-0.51776-0.73097-0.74323-1.0071-0.22547-0.27613-0.40909-0.53198-0.40914-0.5665-4.3e-5 -0.03453 0.40337-0.7828 0.89575-1.6656 0.49237-0.8828 0.91285-1.6718 0.9369-1.7528 0.08321-0.28003-0.09038-0.49725-0.96353-1.1984-0.93053-0.74719-1.0936-0.81633-1.4259-0.58829-0.0944 0.06482-0.7568 0.6432-1.4695 1.2855-0.71271 0.64232-1.3453 1.1693-1.4066 1.1693-0.06128 0-0.38327-0.13804-0.7166-0.30504-0.33333-0.16702-0.80976-0.37321-1.058-0.46-0.72712-0.25428-0.69452-0.14841-0.69481-2.2491-2.34e-4 -1.6699-0.010521-1.8345-0.13315-2.036-0.080433-0.13207-0.21119-0.23397-0.32925-0.25905-0.30001-0.06381-1.9871-0.31886-2.1159-0.31969z" opacity=".1" stroke-width="1.0846"/><path d="m24.82 6.562c-0.29978-0.00174-0.41589 0.2359-1.0241 2.0868l-0.60523 1.8399-0.92238 0.08232c-0.50799 0.0459-1.0946 0.11899-1.3025 0.1622-0.2748 0.05709-0.40283 0.05838-0.46966 0.0025-0.05052-0.04199-0.47887-0.7363-0.95143-1.5421-0.94439-1.6104-1.1362-1.869-1.4017-1.869-0.27909 0-2.1492 0.74483-2.2854 0.91027-0.06682 0.081213-0.11975 0.24799-0.11862 0.36798 8.67e-4 0.11999 0.16889 0.99816 0.37283 1.9537 0.20395 0.95555 0.35862 1.7702 0.34377 1.8084-0.01483 0.03818-0.23682 0.19829-0.49387 0.3583-0.25705 0.16001-0.72452 0.4972-1.0362 0.74807-0.31164 0.25088-0.5956 0.45756-0.63186 0.45756-0.03625 0-0.76477-0.39587-1.6196-0.8788-1.7577-0.99298-1.8413-1.0313-2.0893-0.9369-0.2679 0.10196-1.5833 1.7711-1.5833 2.0094 0 0.25824 0.06361 0.33866 1.4041 1.8302 0.64091 0.7131 1.1645 1.3473 1.1645 1.409 0 0.06161-0.13414 0.38534-0.3002 0.71902-0.16606 0.33368-0.38797 0.83205-0.49145 1.1064-0.10349 0.27431-0.22633 0.52968-0.27357 0.56892-0.05278 0.0439-0.82581 0.07932-2.007 0.092-2.3697 0.02542-2.1612-0.08869-2.3846 1.3218-0.086507 0.54634-0.16008 1.0757-0.1622 1.1766-0.00781 0.37581 0.15109 0.45924 2.0796 1.0943l1.8375 0.60524 0.07989 0.90059c0.0448 0.49611 0.11617 1.0866 0.15736 1.3097 0.04125 0.22317 0.05719 0.43332 0.03631 0.46724-0.02098 0.03393-0.73123 0.47126-1.5785 0.97322-0.84722 0.50197-1.6087 0.98969-1.6947 1.0822-0.0859 0.09248-0.15736 0.25014-0.15736 0.35104 0 0.29519 0.75716 2.1581 0.9248 2.2757 0.21917 0.15366 0.4084 0.13095 2.3023-0.27357 0.95417-0.2038 1.7674-0.35538 1.806-0.33893 0.03856 0.01649 0.20057 0.23792 0.36072 0.49387 0.16014 0.25594 0.49897 0.7245 0.75291 1.041 0.31597 0.39382 0.44681 0.61307 0.4164 0.69239-0.02445 0.06377-0.41566 0.77802-0.87154 1.5881-0.93439 1.6605-0.98818 1.7759-0.92722 2.0191 0.06232 0.24864 1.7809 1.6227 2.0287 1.622 0.25566-6.43e-4 0.3781-0.09409 1.8109-1.3896 0.69747-0.63066 1.3205-1.1558 1.3848-1.1669 0.06431-0.01116 0.39596 0.11851 0.73839 0.28809 0.34242 0.16958 0.86614 0.39422 1.1621 0.49871 0.29591 0.10448 0.54443 0.19391 0.55197 0.19852 0.0078 0.0043 0.02971 0.90665 0.05085 2.0045 0.04714 2.4518-0.06472 2.2379 1.3049 2.4597 1.0292 0.16662 1.4351 0.16775 1.6002 0.0025 0.05755-0.05761 0.37402-0.92834 0.70449-1.9343l0.60039-1.8278 0.69239-0.05326c0.37992-0.02924 0.97092-0.10082 1.3146-0.15736 0.62208-0.10236 0.62655-0.10203 0.75533 0.05326 0.07116 0.08581 0.51352 0.81211 0.98532 1.6148 0.4718 0.80266 0.92537 1.5164 1.0071 1.5833 0.22383 0.18316 0.38363 0.15384 1.4647-0.25904 1.031-0.39376 1.2378-0.53755 1.2371-0.86186-2.09e-4 -0.10089-0.16892-0.97933-0.37525-1.9537-0.20633-0.97437-0.35961-1.7982-0.34135-1.8278 0.0183-0.02959 0.256-0.20444 0.53019-0.38977 0.27418-0.18533 0.73285-0.52815 1.0192-0.7626 0.28637-0.23444 0.55074-0.42604 0.58587-0.42608 0.03512-5.2e-5 0.78437 0.40212 1.6656 0.89333 1.8016 1.0042 1.7904 0.9992 2.0287 0.93932 0.25356-0.06369 1.622-1.7855 1.622-2.0409 0-0.23891-0.05779-0.31317-1.4211-1.8327-0.61207-0.68219-1.1237-1.2962-1.1354-1.3654-0.0119-0.06915 0.10627-0.37855 0.26146-0.68755 0.15519-0.309 0.37674-0.80501 0.49387-1.1015 0.11712-0.29652 0.24364-0.56944 0.28083-0.60766 0.04023-0.0413 0.85397-0.08342 2.007-0.1041 1.8498-0.03315 1.9461-0.04297 2.0844-0.18157 0.1135-0.11375 0.1806-0.36993 0.3123-1.1814 0.09249-0.56988 0.16891-1.1021 0.16947-1.1838 0.0026-0.33034-0.19612-0.43131-2.082-1.0579l-1.8399-0.61009-0.07747-0.89817c-0.04307-0.49394-0.11255-1.0831-0.15494-1.3073-0.04237-0.2242-0.05998-0.43528-0.03873-0.46966 0.02125-0.03436 0.73151-0.47244 1.5785-0.97322 0.84694-0.50078 1.6088-0.98654 1.6947-1.0797 0.0859-0.0932 0.15736-0.24829 0.15736-0.34377 0-0.27383-0.7459-2.1324-0.91027-2.2684-0.20884-0.17281-0.35157-0.15809-2.0118 0.1961-1.9494 0.41587-2.0541 0.43445-2.1256 0.38493-0.03347-0.02317-0.21154-0.26905-0.39461-0.54713-0.18307-0.27808-0.51776-0.73097-0.74323-1.0071-0.22547-0.27613-0.40909-0.53198-0.40914-0.5665-4.3e-5 -0.03453 0.40337-0.7828 0.89575-1.6656 0.49237-0.8828 0.91285-1.6718 0.9369-1.7528 0.08321-0.28003-0.09038-0.49725-0.96353-1.1984-0.93053-0.74719-1.0936-0.81633-1.4259-0.58829-0.0944 0.064815-0.7568 0.64319-1.4695 1.2855-0.71271 0.64232-1.3453 1.1693-1.4066 1.1693-0.06128 0-0.38327-0.13804-0.7166-0.30504-0.33333-0.167-0.80976-0.3732-1.058-0.45999-0.72712-0.25429-0.69453-0.14842-0.69481-2.2491-2.34e-4 -1.6699-0.010521-1.8345-0.13315-2.036-0.080433-0.13207-0.21119-0.23397-0.32925-0.25905-0.30001-0.06381-1.9871-0.31886-2.1159-0.31969z" fill="#768b95" stroke-width="1.0846"/><path d="M 24,4 A 20,20 0 0 0 4,24 20,20 0 0 0 4.0214844,24.582031 20,20 0 0 1 24,5 20,20 0 0 1 43.978516,24.417969 20,20 0 0 0 44,24 20,20 0 0 0 24,4 Z" fill="#fff" opacity=".1"/><path d="m24.819 6.5618c-0.29978-0.00174-0.41499 0.23561-1.0232 2.0866l-0.60584 1.8408-0.92148 0.08262c-0.50799 0.0459-1.0949 0.11778-1.3028 0.16099-0.2748 0.05709-0.40344 0.05801-0.47027 0.0021-0.05052-0.042-0.47858-0.73631-0.95113-1.5422-0.94439-1.6104-1.1347-1.8684-1.4002-1.8684-0.27909 0-2.1495 0.74544-2.2857 0.91089-0.06682 0.081213-0.11976 0.2486-0.11863 0.36859 3.13e-4 0.043471 0.09762 0.49739 0.13557 0.70753 0.17197-0.17606 1.9927-0.90241 2.2687-0.90241 0.26557 0 0.45583 0.25793 1.4002 1.8684 0.47256 0.80584 0.90061 1.5002 0.95113 1.5422 0.06683 0.05589 0.19547 0.05498 0.47027-0.0021 0.20786-0.04321 0.79479-0.11509 1.3028-0.16099l0.92148-0.08262 0.60584-1.8408c0.60816-1.851 0.72338-2.0883 1.0232-2.0866 0.12879 8.329e-4 1.8162 0.25606 2.1162 0.31987 0.11805 0.025075 0.25003 0.12637 0.33046 0.25844 0.12263 0.20152 0.13322 0.36796 0.13346 2.0378 2.86e-4 2.1006-0.0323 1.9933 0.69482 2.2476 0.24819 0.08679 0.72372 0.29268 1.0571 0.45968 0.33333 0.167 0.65472 0.30504 0.716 0.30504 0.06124 0 0.69386-0.527 1.4066-1.1693 0.7127-0.64232 1.3757-1.2189 1.4701-1.2837 0.33232-0.22804 0.49511-0.16041 1.4256 0.58678 0.33486 0.26888 0.54288 0.45482 0.69693 0.6122 0.06349-0.1234 0.26007-0.47479 0.26691-0.49781 0.08321-0.28003-0.09069-0.49786-0.96384-1.199-0.93053-0.74719-1.0933-0.81694-1.4256-0.5889-0.0944 0.064815-0.75742 0.64351-1.4701 1.2858-0.71271 0.64232-1.3453 1.1693-1.4066 1.1693-0.06128 0-0.38267-0.13804-0.716-0.30504-0.33333-0.16699-0.80886-0.37287-1.0571-0.45966-0.72712-0.25429-0.69453-0.14905-0.69482-2.2497-2.34e-4 -1.6699-0.010824-1.8342-0.13346-2.0357-0.080434-0.13207-0.21241-0.23336-0.33046-0.25844-0.30001-0.063811-1.9874-0.31904-2.1162-0.31987zm-14.051 5.5183c-0.07017-0.0058-0.12019 0.0103-0.18218 0.03389-0.2679 0.10196-1.5845 1.7699-1.5845 2.0082 0 0.13961 0.06767 0.27886 0.29657 0.5656 0.40224-0.5792 1.0991-1.4173 1.288-1.4892 0.24796-0.09438 0.331-0.05668 2.0887 0.93631 0.85484 0.48293 1.5822 0.87911 1.6184 0.87911 0.03627 0 0.32175-0.20668 0.63338-0.45756 0.31165-0.25088 0.77882-0.58777 1.0359-0.74777 0.25705-0.16 0.47875-0.31982 0.49357-0.358 0.0078-0.02014-0.11136-0.59502-0.18006-0.95325-0.09091 0.07043-0.15042 0.12514-0.31351 0.22666-0.25705 0.16001-0.72422 0.4969-1.0359 0.74777-0.31163 0.25088-0.59712 0.45756-0.63338 0.45756-0.03625 0-0.76358-0.39618-1.6184-0.87911-1.3183-0.74474-1.696-0.9527-1.9065-0.9702zm22.867 3.3237c-0.09619 0.18191-0.33472 0.60989-0.3347 0.62279 5.2e-5 0.03453 0.18337 0.28946 0.40884 0.5656 0.22547 0.27614 0.56047 0.73025 0.74354 1.0083 0.18307 0.27808 0.36054 0.52336 0.39401 0.54653 0.07144 0.04952 0.17746 0.03033 2.1268-0.38554 1.6602-0.35418 1.8015-0.3677 2.0103-0.19489 0.10907 0.09026 0.46359 0.92247 0.69693 1.5633 0.0044-4e-3 0.0543-0.03288 0.0572-0.03601 0.0859-0.0932 0.15676-0.2498 0.15676-0.34529 0-0.27383-0.74651-2.1327-0.91089-2.2687-0.20884-0.17281-0.35007-0.15718-2.0103 0.19701-1.9494 0.41587-2.0554 0.43506-2.1268 0.38554-0.03347-0.02317-0.21094-0.27057-0.39401-0.54865-0.18307-0.27808-0.51807-0.73007-0.74354-1.0062-0.04121-0.05047-0.03659-0.05591-0.07414-0.1038zm-22.355 2.6522c-0.0058 0.01174-0.0047 0.01365-0.01059 0.02542-0.16606 0.33368-0.38797 0.83145-0.49146 1.1058-0.10349 0.27431-0.22603 0.53059-0.27326 0.56983-0.05278 0.0439-0.82704 0.07841-2.0082 0.09109-2.3697 0.02542-2.1597-0.08868-2.3831 1.3218-0.086507 0.54634-0.16099 1.0769-0.16311 1.1778-0.00239 0.11504 0.03533 0.20152 0.11015 0.28598 0.023219-0.15866 0.025104-0.20326 0.052958-0.37918 0.22339-1.4105 0.013409-1.2964 2.3831-1.3218 1.1812-0.01268 1.9554-0.04718 2.0082-0.09109 0.04724-0.03925 0.16977-0.29552 0.27326-0.56983 0.10348-0.27432 0.32539-0.77209 0.49146-1.1058 0.16606-0.33368 0.3008-0.65863 0.3008-0.72024 0-0.02611-0.13322-0.19573-0.29021-0.38977zm25.289 4.1117c-0.0072 0.0056-0.1024 0.0613-0.1038 0.06355-0.02125 0.03438-0.0042 0.24395 0.03813 0.46815 0.04239 0.2242 0.11157 0.81519 0.15464 1.3091l0.07838 0.89817 1.8387 0.61008c1.3132 0.43633 1.7849 0.61711 1.9637 0.79862 0.05394-0.35541 0.11824-0.76911 0.11863-0.82615 0.0026-0.33034-0.19644-0.43042-2.0823-1.0571l-1.8387-0.61008-0.07838-0.89818c-0.02488-0.28532-0.05678-0.49608-0.08897-0.75625zm-26.53 4.6201c-0.10086 0.07922-0.68407 0.43927-1.4765 0.90877-0.84722 0.50197-1.6088 0.99-1.6947 1.0825-0.0859 0.09248-0.15676 0.25074-0.15676 0.35164 0 0.09727 0.093472 0.37987 0.20972 0.69905 0.1236-0.11316 0.82098-0.5623 1.6417-1.0486 0.84722-0.50196 1.5572-0.93839 1.5782-0.97232 0.02088-0.03393 0.0052-0.24498-0.03601-0.46815-0.01739-0.09424-0.04178-0.36242-0.06567-0.55289zm25.293 4.0926c-0.0077 0.01562-0.01587 0.03816-0.0233 0.05296-0.15519 0.309-0.27245 0.61931-0.26056 0.68846 0.01173 0.06916 0.52336 0.68202 1.1354 1.3642 0.62379 0.69525 0.92181 1.0352 1.1185 1.2795 0.17151-0.24682 0.30292-0.45714 0.30292-0.5317 0-0.23891-0.0581-0.31288-1.4214-1.8324-0.45849-0.51102-0.67371-0.78688-0.85157-1.021zm-22.359 2.6903c-0.15836 0.29273-0.27187 0.50849-0.56983 1.038-0.93439 1.6605-0.98879 1.7757-0.92783 2.0188 0.01301 0.0519 0.12956 0.17147 0.25844 0.29869 0.141-0.27684 0.29584-0.56904 0.6694-1.2329 0.45588-0.81012 0.84619-1.525 0.87064-1.5888 0.02526-0.0659-0.0898-0.25492-0.3008-0.53382zm17.358 2.9042c-0.04883 0.03769-0.17179 0.12139-0.17794 0.13134-0.01825 0.02957 0.13473 0.85376 0.34105 1.8281 0.12534 0.5919 0.16055 0.81797 0.22878 1.1863 0.09641-0.0959 0.14643-0.19291 0.14616-0.31775-2.08e-4 -0.10089-0.16862-0.97874-0.37495-1.9531-0.09874-0.46629-0.10166-0.54808-0.16311-0.87487z" fill="#fff" opacity=".1" stroke-width="1.0846"/><g transform="matrix(1.1617 0 0 1.1617 -3.3487 -3.8555)" stroke-width="1.1438"><path class="ColorScheme-Text" d="m25.919 16.575v2.2877h-4.5753v2.2877h4.5753v2.2877l5.7191-3.4315-2.8596-1.7157zm-10.294 1.1438v4.5753h4.5753v-4.5753zm5.7191 8.0068-5.7191 3.4315 5.7191 3.4315v-2.2877h4.5753v-2.2877h-4.5753zm5.7191 1.1438v4.5753h4.5753v-4.5753z" color="#444444" opacity=".1"/><path class="ColorScheme-Text" d="m25.23 15.908v2.2877h-4.5753v2.2877h4.5753v2.2877l5.7191-3.4315-2.8596-1.7157zm-10.294 1.1438v4.5753h4.5753v-4.5753zm5.7191 8.0068-5.7191 3.4315 5.7191 3.4315v-2.2877h4.5753v-2.2877h-4.5753zm5.7191 1.1438v4.5753h4.5753v-4.5753z" fill="#fff"/></g></g></svg>
