<?xml version="1.0" encoding="UTF-8"?>
<svg width="48" height="48" version="1.1" xml:space="preserve" xmlns="http://www.w3.org/2000/svg"><g transform="matrix(1.05 0 0 1.0244 -1.2 -1.0976)"><rect x="4" y="35.4" width="40" height="9.6" rx="1.9048" ry="2.3429" opacity=".2"/><path d="m14 4h20c3.324 0 6 2.676 6 6v25c0 3.324-2.676 6-6 6h-20c-3.324 0-6-2.676-6-6v-25c0-3.324 2.676-6 6-6z" fill="#e4e4e4"/><rect x="4" y="35.4" width="40" height="8.6" rx="1.9048" ry="2.3429" fill="#4caf50"/><g transform="translate(.60232)"><rect x="10.51" y="40.7" width="12.49" height="1" opacity=".2"/><g stroke-width=".81"><circle cx="8.295" cy="40.7" r="2.43" opacity=".2"/><circle cx="8.295" cy="39.7" r="2.43" fill="#fff"/><rect x="9.9163" y="38.89" width="14.564" height="1.62" fill="#fff"/><path d="m38.5 37.27c-1.0274 0.0028-1.942 0.65137-2.2845 1.62h-10.941v1.62h10.941c0.34246 0.96863 1.2571 1.6172 2.2845 1.62 1.3421 0 2.43-1.0879 2.43-2.43s-1.0879-2.43-2.43-2.43z" opacity=".3"/><circle cx="24" cy="40.7" r="2.43" opacity=".2"/><circle cx="24" cy="39.7" r="2.43" fill="#fff"/></g></g><path d="m14 4c-3.324 0-6 2.676-6 6v1c0-3.324 2.676-6 6-6h20c3.324 0 6 2.676 6 6v-1c0-3.324-2.676-6-6-6z" fill="#fff" opacity=".2"/><g transform="matrix(1.4034 0 0 1.4034 34.921 71.412)"><path d="m-10.782-42.349c-1.4454 1.4e-5 -2.2115 0.21412-2.9375 0.65625-0.71936 0.43618-1.0625 1.1304-1.0625 2.0625v1.7812c0 0.55567-0.2479 0.94392-0.6875 1.2188-0.43294 0.26888-0.41331 0.43751-1.3125 0.4375v1.6875c1.7717 4e-6 2 0.57618 2 1.6875v1.5312c0 1.0217 0.32727 1.7959 1 2.25 0.67938 0.46006 1.4614 0.67555 3 0.6875v-1.625c-0.76598-0.01195-1.1603-0.15531-1.5-0.40625-0.3397-0.25094-0.5-0.60381-0.5-1.0938v-1.6875c0-1.2009-0.59971-1.9099-2.125-2.125v-0.125c1.5253-0.23301 2.125-0.96725 2.125-2.1562v-1.6562c0-0.48993 0.1603-0.81752 0.5-1.0625 0.34635-0.25093 0.74068-0.40762 1.5-0.4375zm6 0v1.625c0.75932 0.02989 1.1537 0.18657 1.5 0.4375 0.3397 0.24498 0.5 0.57257 0.5 1.0625v1.6562c0 1.189 0.59971 1.9232 2.125 2.1562v0.125c-1.5253 0.2151-2.125 0.92406-2.125 2.125v1.6875c0 0.48994-0.1603 0.84281-0.5 1.0938-0.33969 0.25094-0.73402 0.3943-1.5 0.40625v1.625c1.5386-0.01195 2.3206-0.22744 3-0.6875 0.67273-0.45409 1-1.2283 1-2.25v-1.5312c0-1.1113 0.22827-1.6875 2-1.6875v-1.6875c-0.89919 6e-6 -0.87955-0.16862-1.3125-0.4375-0.4396-0.27484-0.6875-0.66308-0.6875-1.2188v-1.7812c0-0.93206-0.34315-1.6263-1.0625-2.0625-0.72601-0.44213-1.4921-0.65624-2.9375-0.65625z" opacity=".1"/><path d="m-10.782-43.349c-1.4454 1.4e-5 -2.2115 0.21412-2.9375 0.65625-0.71936 0.43618-1.0625 1.1304-1.0625 2.0625v1.7812c0 0.55567-0.2479 0.94392-0.6875 1.2188-0.43294 0.26888-0.41331 0.43751-1.3125 0.4375v1.6875c1.7717 4e-6 2 0.57618 2 1.6875v1.5312c0 1.0217 0.32727 1.7959 1 2.25 0.67938 0.46006 1.4614 0.67555 3 0.6875v-1.625c-0.76598-0.01195-1.1603-0.15531-1.5-0.40625-0.3397-0.25094-0.5-0.60381-0.5-1.0938v-1.6875c0-1.2009-0.59971-1.9099-2.125-2.125v-0.125c1.5253-0.23301 2.125-0.96725 2.125-2.1562v-1.6562c0-0.48993 0.1603-0.81752 0.5-1.0625 0.34635-0.25093 0.74068-0.40762 1.5-0.4375zm6 0v1.625c0.75932 0.02989 1.1537 0.18657 1.5 0.4375 0.3397 0.24498 0.5 0.57257 0.5 1.0625v1.6562c0 1.189 0.59971 1.9232 2.125 2.1562v0.125c-1.5253 0.2151-2.125 0.92406-2.125 2.125v1.6875c0 0.48994-0.1603 0.84281-0.5 1.0938-0.33969 0.25094-0.73402 0.3943-1.5 0.40625v1.625c1.5386-0.01195 2.3206-0.22744 3-0.6875 0.67273-0.45409 1-1.2283 1-2.25v-1.5312c0-1.1113 0.22827-1.6875 2-1.6875v-1.6875c-0.89919 6e-6 -0.87955-0.16862-1.3125-0.4375-0.4396-0.27484-0.6875-0.66308-0.6875-1.2188v-1.7812c0-0.93206-0.34315-1.6263-1.0625-2.0625-0.72601-0.44213-1.4921-0.65624-2.9375-0.65625z" fill="#446f7d"/></g></g></svg>
