<?xml version="1.0" encoding="UTF-8"?>
<svg width="48" height="48" version="1.1" xmlns="http://www.w3.org/2000/svg">
 <g transform="matrix(.91304 0 0 .91304 3 3)">
  <g stroke-width="2.875">
   <circle cx="23" cy="23" r="23" fill="#795548"/>
   <path d="m13.707 20.704c-0.41644-0.27458-0.27762-1.0983 0.50898-1.8306 1.1105-1.1441 2.8699-0.61417 3.4249-0.01923 0.23135 0.18306 0.97168 1.0584 0.97168 1.0584l3.5492-3.5125-0.84676-1.0576c-1.0642-1.0526 0.04628-2.1173 0.04628-2.1173 3.0076-2.9289 7.218-3.3501 7.218-3.3501l0.04625-0.58562c-8.4675-2.1509-11.66 1.5102-12.817 2.6543-1.0642 1.0526-2.1745 2.1507-2.4523 2.4255-0.60152 0.59493 0 2.2882-0.87914 3.2493-0.41644 0.41188-0.97168 0.59493-1.3881 0.59493z" fill="#fff"/>
   <rect transform="rotate(-45)" x="-7.8775" y="19.378" width="3.5708" height="5.9513" rx=".42876" ry=".42876" fill="#fff"/>
  </g>
  <path d="m18.625 16.125 16.25 18.75" fill="none" opacity=".5" stroke="#fff" stroke-linecap="round" stroke-linejoin="round" stroke-width="5"/>
 </g>
</svg>
