<?xml version="1.0" encoding="UTF-8"?>
<svg width="48" height="48" version="1" xml:space="preserve" xmlns="http://www.w3.org/2000/svg"><g transform="matrix(1.05 0 0 1.0244 -1.2 -1.0976)"><rect transform="matrix(0,-1,-1,0,0,0)" x="-33" y="-32" width="28" height="28" rx="3.9048" ry="3.8095" opacity=".2"/><rect transform="matrix(0,-1,-1,0,0,0)" x="-32" y="-32" width="28" height="28" rx="3.9048" ry="3.8095" fill="#4781be"/><rect transform="matrix(0,-1,-1,0,0,0)" x="-39" y="-38" width="28" height="28" rx="3.9048" ry="3.8095" opacity=".2"/><rect transform="matrix(0,-1,-1,0,0,0)" x="-38" y="-38" width="28" height="28" rx="3.9048" ry="3.8095" fill="#73b3f7"/><rect transform="matrix(0,-1,-1,0,0,0)" x="-45" y="-44" width="28" height="28" rx="3.9048" ry="3.8095" opacity=".2"/><rect transform="matrix(0,-1,-1,0,0,0)" x="-44" y="-44" width="28" height="28" rx="3.9048" ry="3.8095" fill="#b9d8fa"/><g fill="#fff"><path d="m8 4c-2.216 0-4 1.784-4 4v1c0-2.216 1.784-4 4-4h20c2.216 0 4 1.784 4 4v-1c0-2.216-1.784-4-4-4z" opacity=".1"/><path d="m14 10c-2.216 0-4 1.784-4 4v1c0-2.216 1.784-4 4-4h20c2.216 0 4 1.784 4 4v-1c0-2.216-1.784-4-4-4z" opacity=".1"/><path d="m20 16c-2.216 0-4 1.784-4 4v1c0-2.216 1.784-4 4-4h20c2.216 0 4 1.784 4 4v-1c0-2.216-1.784-4-4-4z" opacity=".1"/></g><g transform="matrix(1.2764 0 0 1.2764 65.36 3.643)"><g fill="#4caf50"><path d="m-36.136 23h16l-8 8-4-4z" stroke-width="1.2038"/><rect x="-32.136" y="11" width="4" height="4" opacity=".8"/><rect x="-28.136" y="11" width="4" height="4" opacity=".2"/><rect x="-32.136" y="15" width="4" height="4" opacity=".4"/><rect x="-28.136" y="15" width="4" height="4" opacity=".9"/><rect x="-32.136" y="19" width="4" height="4"/><rect x="-28.136" y="19" width="4" height="4" opacity=".6"/></g><path d="m-36.136 24 8 8 8-8h-1l-7 7-7-7z" opacity=".1"/></g></g></svg>
