<?xml version="1.0" encoding="UTF-8"?>
<svg width="64" height="64" version="1.1" viewBox="0 0 64 64" xml:space="preserve" xmlns="http://www.w3.org/2000/svg" xmlns:cc="http://creativecommons.org/ns#" xmlns:dc="http://purl.org/dc/elements/1.1/" xmlns:rdf="http://www.w3.org/1999/02/22-rdf-syntax-ns#" xmlns:xlink="http://www.w3.org/1999/xlink"><metadata><rdf:RDF><cc:Work rdf:about=""><dc:format>image/svg+xml</dc:format><dc:type rdf:resource="http://purl.org/dc/dcmitype/StillImage"/></cc:Work></rdf:RDF></metadata><defs><style id="current-color-scheme" type="text/css">.ColorScheme-Text {
        color:#232629;
      }</style><style type="text/css">.ColorScheme-Text { color:#444444; } .ColorScheme-Highlight { color:#4285f4; }</style><style type="text/css">.ColorScheme-Text { color:#444444; } .ColorScheme-Highlight { color:#4285f4; }</style><style type="text/css">.ColorScheme-Text {
        color:#232629;
      }</style><style type="text/css">.ColorScheme-Text {
        color:#232629;
      }</style><style type="text/css">.ColorScheme-Text { color:#444444; } .ColorScheme-Highlight { color:#4285f4; }</style><style type="text/css">.ColorScheme-Text {
        color:#232629;
      }</style><style type="text/css">.ColorScheme-Text {
        color:#232629;
      }</style><style type="text/css">.ColorScheme-Text { color:#444444; } .ColorScheme-Highlight { color:#4285f4; }</style><style type="text/css">.ColorScheme-Text {
        color:#232629;
      }
      .ColorScheme-Highlight {
        color:#3daee9;
      }</style><style type="text/css">.ColorScheme-Text { color:#f2f2f2 }</style><style type="text/css">.ColorScheme-Text { color:#f2f2f2 }</style><style type="text/css">.ColorScheme-Text { color:#f2f2f2 }</style><style type="text/css">.ColorScheme-Text {
        color:#232629;
      }</style><linearGradient id="linearGradient4174-5" x2="0" y1="543.8" y2="503.8" gradientTransform="matrix(1.4338 0 0 1.4338 -592.95 -814.32)" gradientUnits="userSpaceOnUse"><stop stop-color="#c6cdd1" offset="0"/><stop stop-color="#e0e5e7" offset="1"/></linearGradient><linearGradient id="linearGradient4915" x1="-398.63" x2="-416.57" y1="509.55" y2="539.17" gradientTransform="matrix(1.4338 0 0 1.4338 578.66 -814.32)" gradientUnits="userSpaceOnUse"><stop stop-color="#2c3e50" offset="0"/><stop stop-color="#0d352d" offset="1"/></linearGradient><style type="text/css">.ColorScheme-Text {
        color:#232629;
      }</style><style type="text/css">.ColorScheme-Text { color:#444444; } .ColorScheme-Highlight { color:#4285f4; }</style><linearGradient id="linearGradient4291" x2="0" y1="23" y2="8" gradientTransform="matrix(-1,0,0,1,14.81,-15.724)" gradientUnits="userSpaceOnUse"><stop stop-color="#8cbdf8" offset="0"/><stop stop-color="#d5e8ff" stop-opacity=".64766" offset="1"/></linearGradient><linearGradient id="linearGradient4263" x1="399.57" x2="402.57" y1="524.8" y2="527.8" gradientTransform="matrix(-1,0,0,1,398.4,-532.22)" gradientUnits="userSpaceOnUse" xlink:href="#linearGradient4227-0-8"/><linearGradient id="linearGradient4227-0-8"><stop stop-color="#292c2f" offset="0"/><stop stop-opacity="0" offset="1"/></linearGradient><linearGradient id="linearGradient1149" x1="394.57" x2="405.57" y1="527.8" y2="538.8" gradientTransform="matrix(-1,0,0,1,400.18,-532.31)" gradientUnits="userSpaceOnUse" xlink:href="#linearGradient4227-0-8"/><style type="text/css">
   .ColorScheme-Text {
     color:#4d4d4d;
   }
   .ColorScheme-Background {
     color:#eff0f1;
   }
   .ColorScheme-Accent {
     color:#3daee9;
   }
   .ColorScheme-Text {
     color:#31363b;
   }
   .ColorScheme-ButtonText {
     color:#31363b;
   }
   .ColorScheme-Accent{
     color:#3daee9;
   }
  </style><style type="text/css">
      .ColorScheme-Text {
        color:#232629;
      }
      </style><linearGradient id="linearGradient39" x1="399.93" x2="426.99" y1="511.9" y2="537.16" gradientTransform="matrix(1.4338 0 0 1.4338 -583.6 -814.43)" gradientUnits="userSpaceOnUse"><stop stop-color="#3daefd" offset="0"/><stop stop-color="#24a058" offset="1"/></linearGradient></defs><g transform="matrix(1.0182 0 0 1.0182 25.274 96.906)"><g transform="translate(-.0057311 .0078108)"><g transform="matrix(.97607 0 0 .97607 -.36154 -1.9792)"><g transform="translate(.53253 .46451)"><g transform="translate(-.53253 -.46451)"><g transform="translate(0 .0066291)" stroke-opacity=".55026" stroke-width="4.0146"><rect transform="scale(-1,1)" x="-35.821" y="-91.972" width="57.352" height="57.352" rx="28.676" fill="url(#linearGradient4174-5)"/><path d="m-21.516-64.012c-0.0057 0.23924-0.01678 0.47619-0.01678 0.7169 0 15.887 12.789 28.676 28.676 28.676 15.887 0 28.676-12.789 28.676-28.676 0-0.24071-0.01147-0.47767-0.01678-0.7169-0.37878 15.552-13.013 27.959-28.659 27.959-15.646 0-28.28-12.407-28.659-27.959z" fill="#99a1a7"/><rect transform="scale(-1,1)" x="-31.52" y="-87.67" width="48.749" height="48.749" rx="24.375" fill="url(#linearGradient4915)"/></g><path class="ColorScheme-Text" d="m7.144-83.485c-11.189 0-20.196 9.0075-20.196 20.196 0 11.189 9.0075 20.196 20.196 20.196 11.189 0 20.196-9.0075 20.196-20.196 0-11.189-9.0076-20.196-20.196-20.196m0 2.5245c9.7901 0 17.672 7.8816 17.672 17.672 0 9.7901-7.8816 17.672-17.672 17.672-9.7901 0-17.672-7.8816-17.672-17.672 0-9.7901 7.8816-17.672 17.672-17.672m-2.5245 2.5245v17.672h15.147v-2.5245h-12.623v-15.147h-2.5245" fill="url(#linearGradient39)"/><g transform="matrix(-1.4829 0 0 1.4919 6.5588 -63.266)" fill-rule="evenodd"><path d="m-4.3946-4.5152 4 4v1l6 6-6.9648 6.9649a14 14 0 0 1-12.986-13.014l4.9512-4.9512z" fill="url(#linearGradient1149)" opacity=".2"/><path d="m-1.1681-7.423-4 4-2-2 2-2z" fill="url(#linearGradient4263)" opacity=".2"/><path d="m-3.3328-7.7107c1.0474 0.07713 2.1426 0.48203 3.1426 0.98242-2 0-3 0.99921-4 2l-2 2.002v1.002l-1 1-3-3.002 1-1.002h1l2-2c0.81038-0.8089 1.81-1.0596 2.8574-0.98242zm-0.85742 2.9863 4 4h1l6 6-2 2-6-6v-1l-4-4z" fill="url(#linearGradient4291)"/></g></g></g></g></g></g></svg>
