<?xml version="1.0" encoding="UTF-8"?>
<svg width="64" height="64" version="1.1" xml:space="preserve" xmlns="http://www.w3.org/2000/svg" xmlns:cc="http://creativecommons.org/ns#" xmlns:dc="http://purl.org/dc/elements/1.1/" xmlns:rdf="http://www.w3.org/1999/02/22-rdf-syntax-ns#" xmlns:xlink="http://www.w3.org/1999/xlink"><metadata><rdf:RDF><cc:Work rdf:about=""><dc:format>image/svg+xml</dc:format><dc:type rdf:resource="http://purl.org/dc/dcmitype/StillImage"/></cc:Work></rdf:RDF></metadata><defs><linearGradient id="linearGradient8385"><stop offset="0"/><stop stop-color="#fff" offset="1"/></linearGradient><linearGradient id="linearGradient3002" x1="-553.27" x2="-666.12" y1="525.91" y2="413.05" gradientTransform="matrix(.99884 0 0 .9987 689.01 -388.84)" gradientUnits="userSpaceOnUse" xlink:href="#linearGradient8385"/><linearGradient id="linearGradient3005" x1="-666.12" x2="-553.27" y1="413.04" y2="525.91" gradientTransform="matrix(.99884 0 0 .9987 689.01 -388.84)" gradientUnits="userSpaceOnUse" xlink:href="#linearGradient8385"/></defs><path d="m16.531 3.0046c-6.44 0-9.1389 2.5602-9.1389 9.0965v8.8487c0 4.0369-0.12395 8.7142-3.6811 8.7142h-1.8405v4.6721h1.8405c3.5573 0 3.6811 4.6773 3.6811 8.7142v8.8487c0 6.5363 2.6989 9.0965 9.1389 9.0965v-4.2898c-4.2933 0-4.3535-1.7337-4.3535-8.0134v-7.3055c0-3.0115-0.74196-7.493-4.3606-9.3513 3.6187-1.8582 4.3606-6.3465 4.3606-9.3584v-7.3692c0-6.2797 0.0602-8.0134 4.3535-8.0134zm30.882 0v4.2898c4.2934 0 4.4102 1.7337 4.4102 8.0134v7.3692c0 3.0119 0.74192 7.5002 4.3606 9.3584-3.6187 1.8582-4.3606 6.3397-4.3606 9.3513v7.3055c0 6.2797-0.11671 8.0134-4.4102 8.0134v4.2898c6.44 0 9.1956-2.5602 9.1956-9.0965v-8.8487c0-4.0369 0.24864-8.7142 3.7448-8.7142h1.7768v-4.6721h-1.7768c-3.496 0-3.7448-4.6773-3.7448-8.7142v-8.8487c0-6.5363-2.7555-9.0965-9.1956-9.0965z" fill="#a969b3"/><g transform="matrix(.25487 0 0 .25487 11.61 11.61)" fill-rule="evenodd"><path d="m79.865 119.1c35.398 48.255 70.04-13.469 69.989-50.587-0.0602-43.886-44.541-68.414-70.018-68.414-40.892 0-79.836 33.796-79.836 80.036 0 51.396 44.64 79.865 79.836 79.865-7.9645-1.1468-34.506-6.834-34.863-67.967-0.23987-41.347 13.488-57.866 34.805-50.599 0.47743 0.17707 23.514 9.2645 23.514 38.951 0 29.56-23.427 38.715-23.427 38.715z" color="#000000" fill="url(#linearGradient3005)"/><path d="m79.823 41.401c-23.39-8.0619-52.043 11.216-52.043 49.829 0 63.048 46.721 68.77 52.384 68.77 40.892 0 79.836-33.796 79.836-80.036 0-51.396-44.64-79.865-79.836-79.865 9.7481-1.35 52.541 10.55 52.541 69.037 0 38.141-31.953 58.905-52.735 50.033-0.47743-0.17707-23.514-9.2645-23.514-38.951 0-29.56 23.367-38.818 23.367-38.818z" color="#000000" fill="url(#linearGradient3002)"/></g></svg>
