<?xml version="1.0" encoding="UTF-8"?>
<svg width="64" height="64" version="1.1" viewBox="0 0 64 64" xmlns="http://www.w3.org/2000/svg" xmlns:cc="http://creativecommons.org/ns#" xmlns:dc="http://purl.org/dc/elements/1.1/" xmlns:rdf="http://www.w3.org/1999/02/22-rdf-syntax-ns#" xmlns:xlink="http://www.w3.org/1999/xlink">
  <metadata>
    <rdf:RDF>
      <cc:Work rdf:about="">
        <dc:format>image/svg+xml</dc:format>
        <dc:type rdf:resource="http://purl.org/dc/dcmitype/StillImage"/>
      </cc:Work>
    </rdf:RDF>
  </metadata>
  <defs>
    <style id="current-color-scheme" type="text/css">.ColorScheme-Text {
        color:#4d4d4d;
      }
      .ColorScheme-Background {
        color:#eff0f1;
      }
      .ColorScheme-Highlight {
        color:#3daee9;
      }
      .ColorScheme-ViewText {
        color:#31363b;
      }
      .ColorScheme-ViewBackground {
        color:#fcfcfc;
      }
      .ColorScheme-ViewHover {
        color:#93cee9;
      }
      .ColorScheme-ViewFocus{
        color:#3daee9;
      }
      .ColorScheme-ButtonText {
        color:#31363b;
      }
      .ColorScheme-ButtonBackground {
        color:#eff0f1;
      }
      .ColorScheme-ButtonHover {
        color:#93cee9;
      }
      .ColorScheme-ButtonFocus{
        color:#3daee9;
      }</style>
    <linearGradient id="linearGradient4703" x1="418.17" x2="384.57" y1="503.08" y2="531.46" gradientTransform="matrix(1.2083 0 0 1.5889 -77.119 -310.68)" gradientUnits="userSpaceOnUse">
      <stop stop-color="#1abc9c" offset="0"/>
      <stop stop-color="#2980b9" offset="1"/>
    </linearGradient>
    <linearGradient id="linearGradient4532" x1="404.05" x2="430.74" y1="521.63" y2="528.35" gradientTransform="matrix(1.2083 0 0 1.5889 -77.119 -310.68)" gradientUnits="userSpaceOnUse">
      <stop stop-color="#cc4a5e" offset="0"/>
      <stop stop-color="#aa478a" offset="1"/>
    </linearGradient>
    <linearGradient id="linearGradient4474" x1="398.09" x2="394" y1="542.22" y2="524.9" gradientTransform="matrix(1.2083 0 0 1.5889 -77.119 -310.68)" gradientUnits="userSpaceOnUse" xlink:href="#linearGradient4468"/>
    <linearGradient id="linearGradient4468">
      <stop stop-color="#334545" offset="0"/>
      <stop stop-color="#536161" offset="1"/>
    </linearGradient>
    <linearGradient id="linearGradient4500" x1="431.57" x2="439.57" y1="568.8" y2="562.8" gradientTransform="matrix(-1.2083 0 0 1.5889 936.84 -374.24)" gradientUnits="userSpaceOnUse" xlink:href="#linearGradient4468"/>
    <linearGradient id="linearGradient4496" x1="423.05" x2="431.22" y1="572.33" y2="566.77" gradientTransform="matrix(-1.2083 0 0 1.5889 936.85 -374.24)" gradientUnits="userSpaceOnUse" xlink:href="#linearGradient4468"/>
  </defs>
  <g transform="matrix(.24576 0 0 .24576 .54237 .54237)">
    <path class="ColorScheme-ButtonText" d="m16 10h224c3.324 0 6 2.676 6 6v224c0 3.324-2.676 6-6 6h-224c-3.324 0-6-2.676-6-6v-224c0-3.324 2.676-6 6-6z" color="#31363b" fill="currentColor" fill-opacity=".5"/>
    <path class="ColorScheme-Background" d="m16 12h224c2.216 0 4 1.784 4 4v224c0 2.216-1.784 4-4 4h-224c-2.216 0-4-1.784-4-4v-224c0-2.216 1.784-4 4-4z" color="#eff0f1" fill="currentColor"/>
    <g transform="matrix(2.8276 0 0 3.1538 -1049.9 -1498.7)">
      <path d="m387.57 489.8v52h58v-52z" fill="url(#linearGradient4703)"/>
      <g stroke-linecap="round" stroke-width="2">
        <path d="m445.57 489.8-39.916 30.303 28.58 21.697h11.336z" fill="url(#linearGradient4532)"/>
        <path d="m405.7 519.99-18.125 13.762v8.0505h46.934z" fill="url(#linearGradient4474)"/>
        <path d="m415.68 527.56-9.979-7.5759v15.152z" fill="url(#linearGradient4500)"/>
        <path d="m415.68 527.56v14.236h1.2075l8.7716-6.6591z" fill="url(#linearGradient4496)"/>
        <path d="m405.66 520.1 39.916-30.304-2e-5 14.804z" fill="#aa478a"/>
      </g>
    </g>
  </g>
</svg>
