<?xml version="1.0" encoding="UTF-8"?>
<svg version="1.1" viewBox="0 0 22 22" xml:space="preserve" xmlns="http://www.w3.org/2000/svg"><defs><style id="current-color-scheme" type="text/css">
      .ColorScheme-Text {
        color:#232629;
      }
      </style><style type="text/css">
   .ColorScheme-Text { color:#dfdfdf; } .ColorScheme-Highlight { color:#4285f4; } .ColorScheme-NeutralText { color:#ff9800; } .ColorScheme-PositiveText { color:#4caf50; } .ColorScheme-NegativeText { color:#f44336; }
  </style><style type="text/css">
      .ColorScheme-Text {
        color:#232629;
      }
      </style></defs><g transform="translate(-.28741 -.18129)" fill="currentColor"><g transform="translate(-.68211 -.71206)"><path class="ColorScheme-Text" d="m20.626 5.4364-3.5 3.5-1.5-1.5-7.293 7.293 1.5 1.5-4.5 4.5 0.70703 0.70703 4.5-4.5 1.5 1.5 7.293-7.293-1.5-1.5 3.5-3.5z"/><path class="ColorScheme-Text" d="m5.7386 11.824c0.050427 0.05043 0.13162 0.05043 0.18205 0l0.54616-0.54616c0.050427-0.05043 0.050428-0.13162 0-0.18205l-0.18205-0.18205c-0.050427-0.05043-0.13162-0.05043-0.18205 0l-0.54616 0.54616c-0.050427 0.05043-0.050428 0.13162 0 0.18205zm-1.4564-1.4564c0.050247 0.05024 0.13162 0.05043 0.18205 0l0.54616-0.54616c0.050427-0.050428 0.050247-0.13181 0-0.18205l-0.18205-0.18205c-0.050247-0.050246-0.13162-0.050426-0.18205 0l-0.54616 0.54616c-0.050427 0.05043-0.050247 0.13181-1e-7 0.18205zm-1.4564-1.4564c0.050247 0.050246 0.13162 0.050426 0.18205 0l0.54616-0.54616c0.050427-0.050427 0.050244-0.13181-2e-7 -0.18205l-0.18205-0.18205c-0.050247-0.050247-0.13162-0.050428-0.18205-2e-7l-0.54616 0.54616c-0.050427 0.050427-0.050244 0.13181 3e-7 0.18205zm4.3693 2.9128c0.25214 0.25214 0.65811 0.25214 0.91025 0l0.28233-0.28233c-0.16611-0.25014-0.13909-0.58912 0.08178-0.81l0.18205-0.18205c0.22086-0.22086 0.55984-0.24788 0.81-0.08179l0.38245-0.38244c-0.16588-0.25036-0.13909-0.58912 0.081919-0.81015l0.18205-0.18205c0.22101-0.22101 0.55978-0.24781 0.81015-0.081926l0.38231-0.38231c-0.16588-0.25036-0.13909-0.58912 0.081919-0.81015l0.18205-0.18205c0.2181-0.2181 0.55089-0.2465 0.80011-0.087564 0.17608-0.25138 0.15289-0.59789-0.071906-0.82266l-4.1872-4.1872c-0.25196-0.25196-0.6583-0.25196-0.91025-5e-7l-4.1872 4.1872c-0.2216 0.2216-0.2477 0.56156-0.079594 0.81216 0.2022-0.19204 0.51834-0.19137 0.71678 0.00706l0.3641 0.3641c0.20171 0.20171 0.20171 0.52649 2e-7 0.72821l0.3641 0.3641c0.20171-0.20171 0.52649-0.20171 0.72821 1e-6l0.3641 0.3641c0.20172 0.20171 0.20172 0.52649 0 0.72821l0.3641 0.3641c0.20171-0.20171 0.52649-0.20171 0.72821 0l0.3641 0.3641c0.20172 0.20172 0.20172 0.52649 0 0.72821zm0.091025-1.3654-3.2769-3.2769c-0.20172-0.20171-0.20172-0.52649-2e-7 -0.72821l3.2769-3.2769c0.20172-0.20172 0.52649-0.20172 0.72821 6e-7l3.2769 3.2769c0.20171 0.20172 0.20171 0.52649 1e-6 0.72821l-3.2769 3.2769c-0.20171 0.20171-0.52649 0.20171-0.72821 0zm0.27308-0.45513c0.050427 0.05043 0.13162 0.05043 0.18205 0l3.0949-3.0949c0.05024-0.050247 0.05043-0.13162 0-0.18205l-3.0949-3.0949c-0.050247-0.050247-0.13181-0.050245-0.18205 0l-3.0949 3.0949c-0.050427 0.050427-0.050244 0.13181 2e-7 0.18205z" stroke-width=".51492"/></g></g></svg>
