<?xml version="1.0" encoding="UTF-8" standalone="no"?>
<svg
   xmlns:dc="http://purl.org/dc/elements/1.1/"
   xmlns:cc="http://creativecommons.org/ns#"
   xmlns:rdf="http://www.w3.org/1999/02/22-rdf-syntax-ns#"
   xmlns:svg="http://www.w3.org/2000/svg"
   xmlns="http://www.w3.org/2000/svg"
   xmlns:sodipodi="http://sodipodi.sourceforge.net/DTD/sodipodi-0.dtd"
   xmlns:inkscape="http://www.inkscape.org/namespaces/inkscape"
   width="64"
   height="64"
   version="1"
   id="svg18"
   sodipodi:docname="generic-view.svg"
   inkscape:version="0.92.4 (5da689c313, 2019-01-14)">
  <metadata
     id="metadata24">
    <rdf:RDF>
      <cc:Work
         rdf:about="">
        <dc:format>image/svg+xml</dc:format>
        <dc:type
           rdf:resource="http://purl.org/dc/dcmitype/StillImage" />
        <dc:title></dc:title>
      </cc:Work>
    </rdf:RDF>
  </metadata>
  <defs
     id="defs22">
    <style
       type="text/css"
       id="current-color-scheme">
   .ColorScheme-Text { color:#dfdfdf; } .ColorScheme-Highlight { color:#4285f4; }
  </style>
  </defs>
  <sodipodi:namedview
     pagecolor="#ffffff"
     bordercolor="#666666"
     borderopacity="1"
     objecttolerance="10"
     gridtolerance="10"
     guidetolerance="10"
     inkscape:pageopacity="0"
     inkscape:pageshadow="2"
     inkscape:window-width="1920"
     inkscape:window-height="1021"
     id="namedview20"
     showgrid="true"
     inkscape:zoom="7.375"
     inkscape:cx="-6.5238245"
     inkscape:cy="12.464186"
     inkscape:window-x="0"
     inkscape:window-y="0"
     inkscape:window-maximized="1"
     inkscape:current-layer="svg18">
    <inkscape:grid
       type="xygrid"
       id="grid850" />
  </sodipodi:namedview>
  <g
     id="g856"
     transform="translate(0,-0.5)">
    <rect
       id="rect2"
       transform="matrix(0,-1,-1,0,0,0)"
       ry="3"
       rx="3"
       y="-60"
       x="-54"
       height="56"
       width="44"
       style="fill:#325f78" />
    <rect
       id="rect4"
       transform="matrix(0,-1,-1,0,0,0)"
       ry="0"
       rx="0"
       y="-56"
       x="-50"
       height="48"
       width="36"
       style="opacity:0.2" />
    <path
       id="path6"
       d="m 7,10 c -1.662,0 -3,1.338 -3,3 v 1 c 0,-1.662 1.338,-3 3,-3 h 50 c 1.662,0 3,1.338 3,3 v -1 c 0,-1.662 -1.338,-3 -3,-3 z"
       style="opacity:0.1;fill:#ffffff"
       inkscape:connector-curvature="0" />
    <path
       id="path8"
       d="m 4,51 v 1 c 0,1.662 1.338,3 3,3 h 50 c 1.662,0 3,-1.338 3,-3 v -1 c 0,1.662 -1.338,3 -3,3 H 7 C 5.338,54 4,52.662 4,51 Z"
       style="opacity:0.2"
       inkscape:connector-curvature="0" />
  </g>
  <g
     id="g839"
     transform="matrix(2.5508475,0,0,2.5508475,11.59322,11.59322)">
    <path
       id="path837"
       class="ColorScheme-Text"
       style="color:#dfdfdf;fill:currentColor"
       d="M 8,3 C 2,3 0,8 0,8 0,8 2,13 8,13 14,13 16,8 16,8 16,8 14,3 8,3 Z M 8,5 A 3,3 0 0 1 11,8 3,3 0 0 1 8,11 3,3 0 0 1 5,8 3,3 0 0 1 8,5 Z M 8,7 A 1,1 0 0 0 7,8 1,1 0 0 0 8,9 1,1 0 0 0 9,8 1,1 0 0 0 8,7 Z"
       inkscape:connector-curvature="0" />
  </g>
</svg>
