<?xml version="1.0" encoding="UTF-8" standalone="no"?>
<svg
   viewBox="0 0 24 24"
   version="1.1"
   id="svg1"
   sodipodi:docname="net-run-settings.svg"
   width="24"
   height="24"
   inkscape:version="1.4.2 (ebf0e940d0, 2025-05-08)"
   xml:space="preserve"
   xmlns:inkscape="http://www.inkscape.org/namespaces/inkscape"
   xmlns:sodipodi="http://sodipodi.sourceforge.net/DTD/sodipodi-0.dtd"
   xmlns="http://www.w3.org/2000/svg"
   xmlns:svg="http://www.w3.org/2000/svg"><sodipodi:namedview
     id="namedview1"
     pagecolor="#ffffff"
     bordercolor="#999999"
     borderopacity="1"
     inkscape:showpageshadow="2"
     inkscape:pageopacity="0"
     inkscape:pagecheckerboard="0"
     inkscape:deskcolor="#d1d1d1"
     inkscape:zoom="9.746824"
     inkscape:cx="2.8727306"
     inkscape:cy="10.926636"
     inkscape:window-width="2648"
     inkscape:window-height="1426"
     inkscape:window-x="0"
     inkscape:window-y="0"
     inkscape:window-maximized="1"
     inkscape:current-layer="g2"
     showgrid="false"><inkscape:grid
       id="grid1"
       units="px"
       originx="0"
       originy="0"
       spacingx="1"
       spacingy="1"
       empcolor="#0000ff"
       empopacity="0.25098039"
       color="#0000ff"
       opacity="0.12549"
       empspacing="5"
       enabled="true"
       visible="false" /></sodipodi:namedview><defs
     id="defs3051"><style
       type="text/css"
       id="current-color-scheme">
      .ColorScheme-Text {
        color:#232629;
      }
      </style><style
       type="text/css"
       id="current-color-scheme-70">
      .ColorScheme-Text {
        color:#232629;
      }
      </style><style
       type="text/css"
       id="current-color-scheme-5">
      .ColorScheme-Text {
        color:#232629;
      }
      </style></defs><g
     id="g1"
     transform="translate(0.969209,1)"><g
       id="g2"
       transform="translate(-0.871312,-0.0560485)"><g
         id="g3"
         transform="translate(0.1326215,0.0560485)"><path
           style="fill:currentColor;fill-opacity:1;stroke:none;stroke-width:1.15625"
           d="M 7.53125,2.90625 C 4.3383538,2.90625 1.75,5.4946038 1.75,8.6875 h 1.15625 c 0,-2.554317 2.070683,-4.625 4.625,-4.625 2.554317,0 4.625,2.070683 4.625,4.625 h 1.15625 c 0,-3.1928962 -2.588354,-5.78125 -5.78125,-5.78125 z m 0,2.3125 c -1.9157377,0 -3.46875,1.5530123 -3.46875,3.46875 h 1.15625 c 0,-1.2771585 1.0353415,-2.3125 2.3125,-2.3125 1.2771585,0 2.3125,1.0353415 2.3125,2.3125 H 11 C 11,6.7717623 9.4469877,5.21875 7.53125,5.21875 Z m 0,2.3125 c -0.6385792,0 -1.15625,0.5176708 -1.15625,1.15625 0,0.6385792 0.5176708,1.15625 1.15625,1.15625 0.6385792,0 1.15625,-0.5176708 1.15625,-1.15625 0,-0.6385792 -0.5176708,-1.15625 -1.15625,-1.15625 z m 10.870328,3.434114 -1.278614,1.13873 3.509749,0.05216 V 17.9375 H 2.90625 v -5.78125 h 8.863231 L 12.694019,10.968866 1.75,11 v 8.09375 H 21.788963 V 11 m -6.252884,4.625 v 1.15625 h 1.15625 V 15.625 Z m 2.3125,0 v 1.15625 h 1.15625 V 15.625 Z"
           id="rect3343"
           class="ColorScheme-Text"
           sodipodi:nodetypes="sccsccssccsccsssssscccccccccccccccccccccc" /></g></g><path
       style="fill:currentColor;fill-opacity:1;stroke:none"
       d="M 17.120784,4.6480774 12.009455,9.7594051 8.7223467,13.046515 v 3.601562 h 3.6015623 l 8.398437,-8.3984376 z m -2.048829,3.490234 2.160157,2.1601566 -3.173829,3.175781 v -0.675781 l -1.013671,0.02148 H 12.009455 V 11.784792 11.198854 L 13.450862,9.7594011 Z M 10.995784,12.21253 v 1.621094 h 1.035156 0.992187 l 0.02148,0.652344 -1.080078,1.082031 H 10.523123 L 9.8024205,14.847296 v -1.441407 z"
       class="ColorScheme-Text"
       id="path1-3" /></g><style
     type="text/css"
     id="current-color-scheme-7">
        .ColorScheme-Text {
            color:#232629;
        }
    </style></svg>
