<?xml version="1.0" encoding="UTF-8" standalone="no"?>
<svg
   viewBox="0 0 24 24"
   version="1.1"
   id="svg1"
   sodipodi:docname="net-launch-listener.svg"
   width="24"
   height="24"
   inkscape:version="1.4.2 (ebf0e940d0, 2025-05-08)"
   xmlns:inkscape="http://www.inkscape.org/namespaces/inkscape"
   xmlns:sodipodi="http://sodipodi.sourceforge.net/DTD/sodipodi-0.dtd"
   xmlns="http://www.w3.org/2000/svg"
   xmlns:svg="http://www.w3.org/2000/svg">
  <sodipodi:namedview
     id="namedview1"
     pagecolor="#ffffff"
     bordercolor="#999999"
     borderopacity="1"
     inkscape:showpageshadow="2"
     inkscape:pageopacity="0"
     inkscape:pagecheckerboard="0"
     inkscape:deskcolor="#d1d1d1"
     inkscape:zoom="19.493648"
     inkscape:cx="3.0266269"
     inkscape:cy="11.157481"
     inkscape:window-width="2648"
     inkscape:window-height="1426"
     inkscape:window-x="0"
     inkscape:window-y="0"
     inkscape:window-maximized="1"
     inkscape:current-layer="g1" />
  <defs
     id="defs3051">
    <style
       type="text/css"
       id="current-color-scheme">
      .ColorScheme-Text {
        color:#232629;
      }
      </style>
  </defs>
  <g
     id="g1"
     transform="translate(0.969209,1)">
    <path
       style="fill:currentColor;fill-opacity:1;stroke:none;stroke-width:1.15625"
       d="M 7.53125,2.90625 A 5.78125,5.78125 0 0 0 1.75,8.6875 h 1.15625 a 4.625,4.625 0 0 1 4.625,-4.625 4.625,4.625 0 0 1 4.625,4.625 H 13.3125 A 5.78125,5.78125 0 0 0 7.53125,2.90625 Z m 0,2.3125 A 3.46875,3.46875 0 0 0 4.0625,8.6875 H 5.21875 A 2.3125,2.3125 0 0 1 7.53125,6.375 2.3125,2.3125 0 0 1 9.84375,8.6875 H 11 A 3.46875,3.46875 0 0 0 7.53125,5.21875 Z m 0,2.3125 A 1.15625,1.15625 0 0 0 6.375,8.6875 1.15625,1.15625 0 0 0 7.53125,9.84375 1.15625,1.15625 0 0 0 8.6875,8.6875 1.15625,1.15625 0 0 0 7.53125,7.53125 Z M 1.75,11 v 8.09375 h 18.5 V 11 Z m 1.15625,1.15625 h 16.1875 V 17.9375 H 2.90625 Z m 9.25,3.46875 v 1.15625 H 13.3125 V 15.625 Z m 2.3125,0 v 1.15625 H 15.625 V 15.625 Z m 2.3125,0 v 1.15625 H 17.9375 V 15.625 Z"
       id="rect3343"
       class="ColorScheme-Text" />
    <path
       id="path5-3"
       d="M 19.090337,3.9727215 11.317548,11.745511 V 7.784897 H 9.590262 v 6.909146 h 6.909146 v -1.727287 h -3.960614 l 7.772788,-7.7727895 z"
       class="ColorScheme-Text"
       fill="currentColor"
       style="color:#232629;fill:#1c7ef9;fill-opacity:1;stroke-width:1.72729" />
  </g>
</svg>
