<?xml version="1.0" encoding="UTF-8"?>
<svg width="24" height="24" version="1.1" viewBox="0 0 24 24" xmlns="http://www.w3.org/2000/svg" xmlns:cc="http://creativecommons.org/ns#" xmlns:dc="http://purl.org/dc/elements/1.1/" xmlns:rdf="http://www.w3.org/1999/02/22-rdf-syntax-ns#" xmlns:xlink="http://www.w3.org/1999/xlink">
 <metadata>
  <rdf:RDF>
   <cc:Work rdf:about="">
    <dc:format>image/svg+xml</dc:format>
    <dc:type rdf:resource="http://purl.org/dc/dcmitype/StillImage"/>
   </cc:Work>
  </rdf:RDF>
 </metadata>
 <defs>
  <style id="current-color-scheme" type="text/css">.ColorScheme-Text {
        color:#4d4d4d;
      }</style>
  <style type="text/css">.ColorScheme-Text {
        color:#232629;
      }</style>
  <style type="text/css">.ColorScheme-Text {
        color:#232629;
      }</style>
  <style type="text/css">.ColorScheme-Text {
        color:#4d4d4d;
      }</style>
  <style type="text/css">.ColorScheme-Text {
        color:#232629;
      }</style>
  <style type="text/css">.ColorScheme-Text {
        color:#232629;
      }</style>
  <style type="text/css">.ColorScheme-Text {
        color:#4d4d4d;
      }</style>
  <style type="text/css">.ColorScheme-Text {
        color:#232629;
      }</style>
  <style type="text/css">.ColorScheme-Text {
        color:#232629;
      }</style>
  <linearGradient id="linearGradient1023" x1="-8.1341" x2="9.203" y1="2.3218" y2="-15.015" gradientTransform="matrix(1.004 0 0 1.004 .42601 -.029488)" gradientUnits="userSpaceOnUse">
   <stop stop-color="#42a603" offset="0"/>
   <stop stop-color="#fdbc4b" offset="1"/>
  </linearGradient>
  <style type="text/css">.ColorScheme-Text {
        color:#232629;
      }</style>
 </defs>
 <g transform="translate(11.037 18.925)">
  <g transform="matrix(.95455 0 0 .95455 .043772 -.87882)">
   <path class="ColorScheme-Text" d="m0.9626-18.925c-1.0128 0.0057-2.0208 0.13956-3 0.39844v1.5674c-0.68429 0.20459-1.3459 0.47847-1.9746 0.81738l-1.1103-1.1103c-1.7504 1.0321-3.2101 2.4918-4.2422 4.2422l1.1104 1.1104c-0.33992 0.62857-0.61478 1.2902-0.82031 1.9746h-1.5732c-0.25592 0.97956-0.38684 1.9876-0.38965 3 0.0057 1.0128 0.13956 2.0208 0.39844 3h1.5674c0.20459 0.68429 0.47847 1.3459 0.81738 1.9746l-1.1104 1.1104c1.0321 1.7504 2.4918 3.2101 4.2422 4.2422l1.1104-1.1104c0.62857 0.33992 1.2902 0.61478 1.9746 0.82031v1.5732c0.97956 0.25592 1.9876 0.38684 3 0.38965 0.5025-0.00285 1.0028-0.039935 1.5-0.10547v-1.5088c-0.49567 0.073215-0.99764 0.11256-1.5 0.11426-0.50318-7.53e-4 -1.0034-0.038804-1.5-0.11133v-1.5234c-1.3361-0.22597-2.604-0.75074-3.709-1.5352l-1.0693 1.0693-0.0059 0.00587c-0.80446-0.60309-1.5172-1.318-2.1182-2.124l0.0029-0.00293 0.97559-0.97559 0.09668-0.096679c-0.78714-1.1033-1.3149-2.3702-1.5439-3.7061h-1.5146c-0.07322-0.49567-0.11256-0.99764-0.11426-1.5 7.53e-4 -0.50318 0.0388-1.0034 0.11133-1.5h1.5235c0.22597-1.3361 0.75074-2.604 1.5352-3.709l-1.0693-1.0693-0.0058-0.0059c0.6031-0.80446 1.318-1.5172 2.124-2.1182l0.97859 0.97858 0.09668 0.09667c1.1033-0.78714 2.3702-1.3149 3.7061-1.5439v-1.5147c0.49567-0.07321 0.99764-0.11256 1.5-0.11426 0.50318 7.5e-4 1.0034 0.0388 1.5 0.11133v1.5235c1.3361 0.22597 2.604 0.75074 3.709 1.5352l1.0751-1.0751c0.80446 0.60309 1.5172 1.318 2.1182 2.124l-0.97859 0.97858-0.096675 0.09668c0.78714 1.1033 1.3149 2.3702 1.5439 3.7061h1.5146c0.07322 0.49567 0.11256 0.99764 0.11426 1.5-7.43e-4 0.50318-0.0388 1.0034-0.11133 1.5h-1.5235c-0.18346 1.0573-0.55454 2.0733-1.0957 3h1.7021c0.22643-0.48487 0.41545-0.98635 0.56543-1.5h1.5732c0.25592-0.97956 0.38684-1.9876 0.38965-3-0.0057-1.0128-0.13956-2.0208-0.39844-3h-1.5673c-0.2046-0.68429-0.47847-1.3459-0.81738-1.9746l1.1103-1.1103c-1.0321-1.7506-2.4918-3.2103-4.2422-4.2424l-1.1104 1.1104c-0.62857-0.33992-1.2902-0.61478-1.9746-0.82031v-1.5732c-0.97956-0.25592-1.9876-0.38684-3-0.38965z" fill="currentColor"/>
   <path d="m-4.3124-2.9714c-0.1648 0.29604-0.29604 0.7417-0.29604 1.0224 0 0.065206 0 0.14811 0.016069 0.26302l-2.0606-3.5434c-0.066057-0.1149-0.1151-0.28004-0.1151-0.42864 0-0.14878 0.049175-0.32974 0.1151-0.44499l0.98921-1.7309-1.1043-0.62594 3.5936-0.066556 1.7471 3.1484-1.1206-0.6428-1.7646 3.0497m1.5828-9.9899c0.31289-0.54456 0.82443-0.84128 1.4504-0.84128 0.67565 0 1.204 0.31356 1.5828 0.95568l0.56074 0.93951-1.9456 3.3634-3.1484-1.8298 1.5001-2.5875m0.23015 12.841c-0.93951 0-1.7141-0.77472-1.7141-1.7142 0-0.26386 0.11578-0.70918 0.28053-0.98921l0.52687-0.93951h3.9073v3.6431h-3.001m3.1328-12.94c-0.247-0.42796-0.57675-0.72552-0.97253-0.89048h4.0556c0.36276 0 0.64263 0.14878 0.80809 0.42932l1.0054 1.7142 1.0876-0.64347-1.7478 3.1328-3.5771-0.050379 1.1043-0.62595-1.7639-3.0665m6.2477 9.3294c0.49402 0 0.90648-0.13192 1.2524-0.39511l-2.0445 3.5602c-0.1648 0.28003-0.46099 0.44499-0.80708 0.44499h-1.9292v1.2691l-1.8458-3.0822 1.846-3.0832v1.2863h3.5286m1.5815-2.9673c0.14876 0.26386 0.2315 0.54372 0.2315 0.84061 0 0.5936-0.37961 1.22-0.90648 1.5164-0.24768 0.1326-0.59427 0.21533-0.93951 0.21533h-1.089l-1.9444-3.3634 3.1484-1.797 1.4994 2.588" fill="url(#linearGradient1023)" stroke-width="1.3514"/>
   <path class="ColorScheme-Text" d="m7.599-1.3798c-2.1 0-3.8182 1.7182-3.8182 3.8182s1.7182 3.8182 3.8182 3.8182c2.1 0 3.8182-1.7182 3.8182-3.8182s-1.7182-3.8182-3.8182-3.8182zm0 0.63636c1.7818 0 3.1818 1.4 3.1818 3.1818s-1.4 3.1818-3.1818 3.1818c-1.7818 0-3.1818-1.4-3.1818-3.1818s1.4-3.1818 3.1818-3.1818zm-0.63636 0.63636v3.1818h3.1818v-0.63636h-2.5455v-2.5455z" color="#232629" fill="currentColor" stroke-width=".63636"/>
  </g>
 </g>
 <style type="text/css">.ColorScheme-Text {
            color:#232629;
        }</style>
</svg>
