<?xml version="1.0" encoding="UTF-8"?>
<svg width="24" height="24" version="1.1" viewBox="0 0 24 24" xmlns="http://www.w3.org/2000/svg" xmlns:cc="http://creativecommons.org/ns#" xmlns:dc="http://purl.org/dc/elements/1.1/" xmlns:rdf="http://www.w3.org/1999/02/22-rdf-syntax-ns#" xmlns:xlink="http://www.w3.org/1999/xlink">
 <metadata>
  <rdf:RDF>
   <cc:Work rdf:about="">
    <dc:format>image/svg+xml</dc:format>
    <dc:type rdf:resource="http://purl.org/dc/dcmitype/StillImage"/>
   </cc:Work>
  </rdf:RDF>
 </metadata>
 <defs>
  <style id="current-color-scheme" type="text/css">.ColorScheme-Text {
        color:#4d4d4d;
      }</style>
  <style type="text/css">.ColorScheme-Text {
        color:#232629;
      }</style>
  <linearGradient id="linearGradient4308" x2="0" y1="539.8" y2="527.8" gradientTransform="matrix(1.3333 0 0 1.1667 -511.81 -595.76)" gradientUnits="userSpaceOnUse">
   <stop stop-color="#42a603" offset="0"/>
   <stop stop-color="#78da06" offset="1"/>
  </linearGradient>
  <style type="text/css">.ColorScheme-Text {
        color:#232629;
      }</style>
 </defs>
 <g transform="translate(11.037 18.925)">
  <g transform="matrix(.68 0 0 .68 -13.08 -25.285)">
   <path d="m16.952 20v14l12-7z" fill="url(#linearGradient4308)" fill-rule="evenodd"/>
  </g>
  <path class="ColorScheme-Text" d="m-1-18.701v2.1619c-1.2285 0.25348-2.397 0.74014-3.4422 1.4336l-1.5333-1.5333-2.7753 2.7753 1.5333 1.5333c-0.69079 1.0458-1.1748 2.2143-1.426 3.4422h-2.1696v3.9252h2.1619c0.25348 1.2285 0.74014 2.397 1.4336 3.4422l-1.5333 1.5333 2.7753 2.7753 1.5333-1.5333c1.0458 0.69079 2.2143 1.1748 3.4422 1.426v2.1696h3.9252v-2.1619c1.2285-0.25348 2.397-0.74014 3.4422-1.4336l1.5333 1.5333 2.7753-2.7753-1.5333-1.5333c0.69079-1.0458 1.1748-2.2143 1.426-3.4422h2.1696v-3.9252h-2.1619c-0.25348-1.2285-0.74014-2.397-1.4336-3.4422l1.5333-1.5333-2.7753-2.7753-1.5333 1.5333c-1.0458-0.69079-2.2143-1.1748-3.4422-1.426v-2.1696zm1.9626 3.9252c2.1215 5e-6 4.1528 0.85868 5.631 2.3804 1.4233 1.4652 2.2194 3.4274 2.2194 5.47-4.9e-6 2.1215-0.85868 4.1528-2.3804 5.631-1.4652 1.4233-3.4274 2.2194-5.47 2.2194-2.1215-5.08e-6 -4.1528-0.85867-5.631-2.3804-1.4233-1.4652-2.2194-3.4274-2.2194-5.47 4.8e-6 -2.1215 0.85868-4.1528 2.3804-5.631 1.4652-1.4233 3.4274-2.2194 5.47-2.2194z" color="#232629" fill="currentColor"/>
 </g>
</svg>
