<?xml version="1.0" encoding="UTF-8" standalone="no"?>
<svg
   viewBox="0 0 32 32"
   version="1.1"
   id="svg6"
   sodipodi:docname="show-all-config.svg"
   width="32"
   height="32"
   inkscape:version="1.1.1 (3bf5ae0d25, 2021-09-20)"
   xmlns:inkscape="http://www.inkscape.org/namespaces/inkscape"
   xmlns:sodipodi="http://sodipodi.sourceforge.net/DTD/sodipodi-0.dtd"
   xmlns="http://www.w3.org/2000/svg"
   xmlns:svg="http://www.w3.org/2000/svg"
   xmlns:rdf="http://www.w3.org/1999/02/22-rdf-syntax-ns#"
   xmlns:cc="http://creativecommons.org/ns#"
   xmlns:dc="http://purl.org/dc/elements/1.1/">
  <metadata
     id="metadata10">
    <rdf:RDF>
      <cc:Work
         rdf:about="">
        <dc:format>image/svg+xml</dc:format>
        <dc:type
           rdf:resource="http://purl.org/dc/dcmitype/StillImage" />
      </cc:Work>
    </rdf:RDF>
  </metadata>
  <sodipodi:namedview
     pagecolor="#ffffff"
     bordercolor="#666666"
     borderopacity="1"
     objecttolerance="10"
     gridtolerance="10"
     guidetolerance="10"
     inkscape:pageopacity="0"
     inkscape:pageshadow="2"
     inkscape:window-width="2313"
     inkscape:window-height="1159"
     id="namedview8"
     showgrid="false"
     inkscape:zoom="14.75"
     inkscape:cx="-32.644068"
     inkscape:cy="8"
     inkscape:window-x="1088"
     inkscape:window-y="65"
     inkscape:window-maximized="0"
     inkscape:current-layer="svg6"
     inkscape:pagecheckerboard="0"
     width="32px" />
  <defs
     id="defs3051">
    <style
       type="text/css"
       id="current-color-scheme">
      .ColorScheme-Text {
        color:#4d4d4d;
      }
      </style>
    <style
       type="text/css"
       id="current-color-scheme-3">
   .ColorScheme-Text { color:#6e6e6e; } .ColorScheme-Highlight { color:#4285f4; }
  </style>
    <style
       type="text/css"
       id="current-color-scheme-6">
   .ColorScheme-Text { color:#dfdfdf; } .ColorScheme-Highlight { color:#4285f4; }
  </style>
  </defs>
  <g
     id="g830"
     transform="matrix(1.0909091,0,0,1.0909091,2.9090909,2.9090908)">
    <path
       inkscape:connector-curvature="0"
       style="color:#4d4d4d;fill:currentColor;stroke-width:1.57143"
       class="ColorScheme-Text"
       d="m 0.99999984,1 v 9.428572 H 13.571428 V 1 Z M 16.714286,1 v 9.428572 H 23 V 1 Z M 0.99999984,13.571429 V 23 H 23 v -9.428571 z"
       id="path5" />
    <path
       id="path832"
       d="m 16.687528,13.97758 -0.09229,1.102782 a 3.2896546,3.2896546 0 0 0 -0.96143,0.556063 l -1.002316,-0.471953 -1.046708,1.813048 0.910028,0.631997 a 3.2896546,3.2896546 0 0 0 -0.05023,0.554896 3.2896546,3.2896546 0 0 0 0.0479,0.557232 l -0.907692,0.62966 1.046708,1.813048 0.999981,-0.470784 a 3.2896546,3.2896546 0 0 0 0.963766,0.552559 l 0.08995,1.106286 h 2.093417 l 0.09229,-1.102782 a 3.2896546,3.2896546 0 0 0 0.961429,-0.556063 l 1.002317,0.471953 1.046708,-1.813049 -0.910029,-0.631997 a 3.2896546,3.2896546 0 0 0 0.05024,-0.554895 3.2896546,3.2896546 0 0 0 -0.0479,-0.557232 l 0.907689,-0.629661 -1.046708,-1.813048 -0.999981,0.470785 a 3.2896546,3.2896546 0 0 0 -0.963771,-0.552559 l -0.08995,-1.106286 z m 1.046708,2.990595 a 1.196238,1.196238 0 0 1 1.196238,1.196238 1.196238,1.196238 0 0 1 -1.196238,1.196238 1.196238,1.196238 0 0 1 -1.196238,-1.196238 1.196238,1.196238 0 0 1 1.196238,-1.196238 z"
       class="ColorScheme-Text"
       style="color:#dfdfdf;fill:currentColor;stroke-width:0.598119"
       inkscape:connector-curvature="0" />
    <path
       id="path832-7"
       d="m 6.1408984,1.4397015 -0.09229,1.102782 a 3.2896546,3.2896546 0 0 0 -0.96143,0.556063 l -1.002316,-0.471953 -1.046708,1.813048 0.910028,0.631997 a 3.2896546,3.2896546 0 0 0 -0.05023,0.554896 3.2896546,3.2896546 0 0 0 0.0479,0.557232 l -0.907692,0.62966 1.046708,1.813048 0.999981,-0.470784 a 3.2896546,3.2896546 0 0 0 0.963766,0.552559 l 0.08995,1.106286 h 2.093417 l 0.09229,-1.102782 a 3.2896546,3.2896546 0 0 0 0.961429,-0.556063 l 1.0023166,0.471953 1.046708,-1.813049 -0.910029,-0.631997 a 3.2896546,3.2896546 0 0 0 0.05024,-0.554895 3.2896546,3.2896546 0 0 0 -0.0479,-0.557232 l 0.907689,-0.629661 -1.046708,-1.813048 -0.9999806,0.470785 a 3.2896546,3.2896546 0 0 0 -0.963771,-0.552559 l -0.08995,-1.106286 z m 1.046708,2.990595 a 1.196238,1.196238 0 0 1 1.196238,1.196238 1.196238,1.196238 0 0 1 -1.196238,1.196238 1.196238,1.196238 0 0 1 -1.196238,-1.196238 1.196238,1.196238 0 0 1 1.196238,-1.196238 z"
       class="ColorScheme-Text"
       style="color:#dfdfdf;fill:currentColor;stroke-width:0.598119"
       inkscape:connector-curvature="0" />
  </g>
</svg>
