<?xml version="1.0" encoding="UTF-8" standalone="no"?>
<!-- Created with Inkscape (http://www.inkscape.org/) -->

<svg
   xmlns:dc="http://purl.org/dc/elements/1.1/"
   xmlns:cc="http://creativecommons.org/ns#"
   xmlns:rdf="http://www.w3.org/1999/02/22-rdf-syntax-ns#"
   xmlns:svg="http://www.w3.org/2000/svg"
   xmlns="http://www.w3.org/2000/svg"
   xmlns:xlink="http://www.w3.org/1999/xlink"
   xmlns:sodipodi="http://sodipodi.sourceforge.net/DTD/sodipodi-0.dtd"
   xmlns:inkscape="http://www.inkscape.org/namespaces/inkscape"
   version="1.0"
   width="1026.0487"
   height="561.55383"
   id="svg1901"
   inkscape:version="0.91 r13725"
   sodipodi:docname="splash.svg"
   inkscape:export-filename="/home/matthias/Development/MazeAmaze/data/splash.png"
   inkscape:export-xdpi="70.198082"
   inkscape:export-ydpi="70.198082">
  <metadata
     id="metadata10">
    <rdf:RDF>
      <cc:Work
         rdf:about="">
        <dc:format>image/svg+xml</dc:format>
        <dc:type
           rdf:resource="http://purl.org/dc/dcmitype/StillImage" />
      </cc:Work>
    </rdf:RDF>
  </metadata>
  <sodipodi:namedview
     pagecolor="#ffffff"
     bordercolor="#666666"
     borderopacity="1"
     objecttolerance="10"
     gridtolerance="10"
     guidetolerance="10"
     inkscape:pageopacity="0"
     inkscape:pageshadow="2"
     inkscape:window-width="1920"
     inkscape:window-height="1021"
     id="namedview8"
     showgrid="false"
     inkscape:zoom="1.0475159"
     inkscape:cx="443.698"
     inkscape:cy="185.31298"
     inkscape:window-x="0"
     inkscape:window-y="0"
     inkscape:window-maximized="1"
     inkscape:current-layer="svg1901" />
  <defs
     id="defs1903">
    <linearGradient
       inkscape:collect="always"
       id="linearGradient4544">
      <stop
         style="stop-color:#ffffff;stop-opacity:1;"
         offset="0"
         id="stop4546" />
      <stop
         style="stop-color:#ffffff;stop-opacity:0;"
         offset="1"
         id="stop4548" />
    </linearGradient>
    <filter
       style="color-interpolation-filters:sRGB;"
       inkscape:label="Drop Shadow"
       id="filter4411">
      <feFlood
         flood-opacity="0.498039"
         flood-color="rgb(0,0,0)"
         result="flood"
         id="feFlood4413" />
      <feComposite
         in="flood"
         in2="SourceGraphic"
         operator="in"
         result="composite1"
         id="feComposite4415" />
      <feGaussianBlur
         in="composite1"
         stdDeviation="1.5544"
         result="blur"
         id="feGaussianBlur4417" />
      <feOffset
         dx="10.1"
         dy="9.3"
         result="offset"
         id="feOffset4419" />
      <feComposite
         in="SourceGraphic"
         in2="offset"
         operator="over"
         result="composite2"
         id="feComposite4421" />
    </filter>
    <filter
       style="color-interpolation-filters:sRGB;"
       inkscape:label="Drop Shadow"
       id="filter4423">
      <feFlood
         flood-opacity="0.498039"
         flood-color="rgb(0,0,0)"
         result="flood"
         id="feFlood4425" />
      <feComposite
         in="flood"
         in2="SourceGraphic"
         operator="in"
         result="composite1"
         id="feComposite4427" />
      <feGaussianBlur
         in="composite1"
         stdDeviation="1.6"
         result="blur"
         id="feGaussianBlur4429" />
      <feOffset
         dx="10.1"
         dy="9.3"
         result="offset"
         id="feOffset4431" />
      <feComposite
         in="SourceGraphic"
         in2="offset"
         operator="over"
         result="composite2"
         id="feComposite4433" />
    </filter>
    <linearGradient
       gradientTransform="translate(-384.57,-499.8)"
       gradientUnits="userSpaceOnUse"
       x2="0"
       y2="503.8"
       y1="543.8"
       id="a">
      <stop
         id="stop7"
         stop-color="#197cf1" />
      <stop
         id="stop9"
         stop-color="#20bcfa"
         offset="1" />
    </linearGradient>
    <linearGradient
       gradientUnits="userSpaceOnUse"
       x2="36.895557"
       y2="37.804428"
       x1="22.540125"
       y1="23.774559"
       id="b">
      <stop
         id="stop12"
         stop-color="#292c2f" />
      <stop
         id="stop14"
         stop-opacity="0"
         stop-color="#292c2f"
         offset="1" />
    </linearGradient>
    <linearGradient
       x1="389.3205"
       id="a-6"
       y1="547.67499"
       y2="499.92078"
       x2="426.6955"
       gradientUnits="userSpaceOnUse"
       gradientTransform="translate(-432.5705,-499.79999)">
      <stop
         style="stop-color:#1e2b35;stop-opacity:1"
         stop-color="#18222a"
         id="stop4216" />
      <stop
         style="stop-color:#6d7983;stop-opacity:1"
         offset="1"
         stop-color="#566069"
         id="stop4218" />
    </linearGradient>
    <linearGradient
       gradientTransform="translate(-344.5695,-499.79999)"
       id="b-7"
       y1="517.8"
       x1="399.57"
       y2="534.8"
       x2="416.57"
       gradientUnits="userSpaceOnUse">
      <stop
         id="stop4221" />
      <stop
         offset="1"
         stop-opacity="0"
         id="stop4223" />
    </linearGradient>
    <linearGradient
       gradientTransform="translate(-344.5695,-499.79999)"
       id="c"
       y1="537.8"
       y2="508.8"
       gradientUnits="userSpaceOnUse"
       x2="0">
      <stop
         stop-color="#026ddc"
         id="stop4226" />
      <stop
         offset="1"
         stop-color="#28b0fd"
         id="stop4228" />
    </linearGradient>
    <linearGradient
       id="d"
       y1="525.28"
       x1="408.65"
       y2="533.28"
       x2="416.65"
       gradientUnits="userSpaceOnUse"
       gradientTransform="translate(-.081-.48)">
      <stop
         stop-opacity=".065"
         id="stop4231" />
      <stop
         offset="1"
         stop-opacity="0"
         id="stop4233" />
    </linearGradient>
    <linearGradient
       xlink:href="#d"
       id="e"
       y1="517.96"
       x1="417.79"
       y2="525.91"
       gradientUnits="userSpaceOnUse"
       x2="426.22"
       gradientTransform="matrix(-1,0,0,1,817.2,-0.48)" />
    <linearGradient
       gradientUnits="userSpaceOnUse"
       x2="39.279999"
       y2="36.632999"
       x1="22.285"
       y1="18.709999"
       id="b-5"
       gradientTransform="translate(-13.182,-16.463)">
      <stop
         id="stop12-3"
         stop-color="#292c2f" />
      <stop
         id="stop14-5"
         stop-opacity="0"
         stop-color="#292c2f"
         offset="1" />
    </linearGradient>
    <filter
       id="filter3422"
       inkscape:label="Invert"
       style="color-interpolation-filters:sRGB;">
      <feColorMatrix
         id="feColorMatrix3424"
         result="color1"
         values="180"
         type="hueRotate" />
      <feColorMatrix
         id="feColorMatrix3426"
         result="fbSourceGraphic"
         values="1 0 0 0 0 0 1 0 0 0 0 0 1 0 0 -0.21 -0.72 -0.07 2 0 " />
      <feColorMatrix
         id="feColorMatrix3428"
         values="0 0 0 -1 0 0 0 0 -1 0 0 0 0 -1 0 0 0 0 1 0"
         in="fbSourceGraphic"
         result="fbSourceGraphicAlpha" />
      <feColorMatrix
         in="fbSourceGraphic"
         result="color1"
         values="180"
         type="hueRotate"
         id="feColorMatrix3430" />
      <feColorMatrix
         result="color2"
         values="1 0 0 0 0 0 1 0 0 0 0 0 1 0 0 -0.21 -0.72 -0.07 2 0 "
         id="feColorMatrix3432" />
    </filter>
    <filter
       id="filter3504"
       inkscape:label="Invert"
       style="color-interpolation-filters:sRGB;">
      <feColorMatrix
         id="feColorMatrix3506"
         result="color1"
         values="180"
         type="hueRotate" />
      <feColorMatrix
         id="feColorMatrix3508"
         result="color2"
         values="-1 0 0 0 1 0 -1 0 0 1 0 0 -1 0 1 -0.21 -0.72 -0.07 2 0 " />
    </filter>
    <filter
       id="filter3392"
       inkscape:label="Invert"
       style="color-interpolation-filters:sRGB;">
      <feColorMatrix
         id="feColorMatrix3394"
         result="fbSourceGraphic"
         values="1 0 0 0 0 0 1 0 0 0 0 0 1 0 0 -0.21 -0.72 -0.07 2 0 " />
      <feColorMatrix
         id="feColorMatrix3437"
         values="0 0 0 -1 0 0 0 0 -1 0 0 0 0 -1 0 0 0 0 1 0"
         in="fbSourceGraphic"
         result="fbSourceGraphicAlpha" />
      <feColorMatrix
         in="fbSourceGraphic"
         result="fbSourceGraphic"
         values="1 0 0 0 0 0 1 0 0 0 0 0 1 0 0 -0.21 -0.72 -0.07 2 0 "
         id="feColorMatrix3439" />
      <feColorMatrix
         id="feColorMatrix3525"
         values="0 0 0 -1 0 0 0 0 -1 0 0 0 0 -1 0 0 0 0 1 0"
         in="fbSourceGraphic"
         result="fbSourceGraphicAlpha" />
      <feColorMatrix
         in="fbSourceGraphic"
         result="fbSourceGraphic"
         values="1 0 0 0 0 0 1 0 0 0 0 0 1 0 0 -0.21 -0.72 -0.07 2 0 "
         id="feColorMatrix3527" />
      <feColorMatrix
         id="feColorMatrix3464"
         values="0 0 0 -1 0 0 0 0 -1 0 0 0 0 -1 0 0 0 0 1 0"
         in="fbSourceGraphic"
         result="fbSourceGraphicAlpha" />
      <feColorMatrix
         in="fbSourceGraphic"
         result="color1"
         values="180"
         type="hueRotate"
         id="feColorMatrix3466" />
      <feColorMatrix
         result="fbSourceGraphic"
         values="-1 0 0 0 1 0 -1 0 0 1 0 0 -1 0 1 -0.21 -0.72 -0.07 2 0 "
         id="feColorMatrix3468" />
      <feColorMatrix
         id="feColorMatrix3556"
         values="0 0 0 -1 0 0 0 0 -1 0 0 0 0 -1 0 0 0 0 1 0"
         in="fbSourceGraphic"
         result="fbSourceGraphicAlpha" />
      <feColorMatrix
         in="fbSourceGraphic"
         result="color1"
         values="180"
         type="hueRotate"
         id="feColorMatrix3558" />
      <feColorMatrix
         result="color2"
         values="-1 0 0 0 1 0 -1 0 0 1 0 0 -1 0 1 -0.21 -0.72 -0.07 2 0 "
         id="feColorMatrix3560" />
    </filter>
    <filter
       id="filter3396"
       inkscape:label="Invert"
       style="color-interpolation-filters:sRGB;">
      <feColorMatrix
         id="feColorMatrix3398"
         result="fbSourceGraphic"
         values="1 0 0 0 0 0 1 0 0 0 0 0 1 0 0 -0.21 -0.72 -0.07 2 0 " />
      <feColorMatrix
         id="feColorMatrix3441"
         values="0 0 0 -1 0 0 0 0 -1 0 0 0 0 -1 0 0 0 0 1 0"
         in="fbSourceGraphic"
         result="fbSourceGraphicAlpha" />
      <feColorMatrix
         in="fbSourceGraphic"
         result="fbSourceGraphic"
         values="1 0 0 0 0 0 1 0 0 0 0 0 1 0 0 -0.21 -0.72 -0.07 2 0 "
         id="feColorMatrix3443" />
      <feColorMatrix
         id="feColorMatrix3529"
         values="0 0 0 -1 0 0 0 0 -1 0 0 0 0 -1 0 0 0 0 1 0"
         in="fbSourceGraphic"
         result="fbSourceGraphicAlpha" />
      <feColorMatrix
         in="fbSourceGraphic"
         result="fbSourceGraphic"
         values="1 0 0 0 0 0 1 0 0 0 0 0 1 0 0 -0.21 -0.72 -0.07 2 0 "
         id="feColorMatrix3531" />
      <feColorMatrix
         id="feColorMatrix3470"
         values="0 0 0 -1 0 0 0 0 -1 0 0 0 0 -1 0 0 0 0 1 0"
         in="fbSourceGraphic"
         result="fbSourceGraphicAlpha" />
      <feColorMatrix
         in="fbSourceGraphic"
         result="color1"
         values="180"
         type="hueRotate"
         id="feColorMatrix3472" />
      <feColorMatrix
         result="fbSourceGraphic"
         values="-1 0 0 0 1 0 -1 0 0 1 0 0 -1 0 1 -0.21 -0.72 -0.07 2 0 "
         id="feColorMatrix3474" />
      <feColorMatrix
         id="feColorMatrix3544"
         values="0 0 0 -1 0 0 0 0 -1 0 0 0 0 -1 0 0 0 0 1 0"
         in="fbSourceGraphic"
         result="fbSourceGraphicAlpha" />
      <feColorMatrix
         in="fbSourceGraphic"
         result="color1"
         values="180"
         type="hueRotate"
         id="feColorMatrix3546" />
      <feColorMatrix
         result="fbSourceGraphic"
         values="-1 0 0 0 1 0 -1 0 0 1 0 0 -1 0 1 -0.21 -0.72 -0.07 2 0 "
         id="feColorMatrix3548" />
      <feColorMatrix
         id="feColorMatrix3550"
         values="0 0 0 -1 0 0 0 0 -1 0 0 0 0 -1 0 0 0 0 1 0"
         in="fbSourceGraphic"
         result="fbSourceGraphicAlpha" />
      <feColorMatrix
         in="fbSourceGraphic"
         result="color1"
         values="180"
         type="hueRotate"
         id="feColorMatrix3552" />
      <feColorMatrix
         result="fbSourceGraphic"
         values="-1 0 0 0 1 0 -1 0 0 1 0 0 -1 0 1 -0.21 -0.72 -0.07 2 0 "
         id="feColorMatrix3554" />
      <feColorMatrix
         id="feColorMatrix3572"
         values="0 0 0 -1 0 0 0 0 -1 0 0 0 0 -1 0 0 0 0 1 0"
         in="fbSourceGraphic"
         result="fbSourceGraphicAlpha" />
      <feColorMatrix
         in="fbSourceGraphic"
         result="color1"
         values="180"
         type="hueRotate"
         id="feColorMatrix3574" />
      <feColorMatrix
         result="color2"
         values="-1 0 0 0 1 0 -1 0 0 1 0 0 -1 0 1 -0.21 -0.72 -0.07 2 0 "
         id="feColorMatrix3576" />
    </filter>
    <filter
       id="filter3400"
       inkscape:label="Invert"
       style="color-interpolation-filters:sRGB;">
      <feColorMatrix
         id="feColorMatrix3402"
         result="fbSourceGraphic"
         values="1 0 0 0 0 0 1 0 0 0 0 0 1 0 0 -0.21 -0.72 -0.07 2 0 " />
      <feColorMatrix
         id="feColorMatrix3445"
         values="0 0 0 -1 0 0 0 0 -1 0 0 0 0 -1 0 0 0 0 1 0"
         in="fbSourceGraphic"
         result="fbSourceGraphicAlpha" />
      <feColorMatrix
         in="fbSourceGraphic"
         result="fbSourceGraphic"
         values="1 0 0 0 0 0 1 0 0 0 0 0 1 0 0 -0.21 -0.72 -0.07 2 0 "
         id="feColorMatrix3447" />
      <feColorMatrix
         id="feColorMatrix3533"
         values="0 0 0 -1 0 0 0 0 -1 0 0 0 0 -1 0 0 0 0 1 0"
         in="fbSourceGraphic"
         result="fbSourceGraphicAlpha" />
      <feColorMatrix
         in="fbSourceGraphic"
         result="fbSourceGraphic"
         values="1 0 0 0 0 0 1 0 0 0 0 0 1 0 0 -0.21 -0.72 -0.07 2 0 "
         id="feColorMatrix3535" />
      <feColorMatrix
         id="feColorMatrix3476"
         values="0 0 0 -1 0 0 0 0 -1 0 0 0 0 -1 0 0 0 0 1 0"
         in="fbSourceGraphic"
         result="fbSourceGraphicAlpha" />
      <feColorMatrix
         in="fbSourceGraphic"
         result="color1"
         values="180"
         type="hueRotate"
         id="feColorMatrix3478" />
      <feColorMatrix
         result="color2"
         values="-1 0 0 0 1 0 -1 0 0 1 0 0 -1 0 1 -0.21 -0.72 -0.07 2 0 "
         id="feColorMatrix3480" />
    </filter>
    <filter
       id="filter3404"
       inkscape:label="Invert"
       style="color-interpolation-filters:sRGB;">
      <feColorMatrix
         id="feColorMatrix3406"
         result="fbSourceGraphic"
         values="1 0 0 0 0 0 1 0 0 0 0 0 1 0 0 -0.21 -0.72 -0.07 2 0 " />
      <feColorMatrix
         id="feColorMatrix3449"
         values="0 0 0 -1 0 0 0 0 -1 0 0 0 0 -1 0 0 0 0 1 0"
         in="fbSourceGraphic"
         result="fbSourceGraphicAlpha" />
      <feColorMatrix
         in="fbSourceGraphic"
         result="fbSourceGraphic"
         values="1 0 0 0 0 0 1 0 0 0 0 0 1 0 0 -0.21 -0.72 -0.07 2 0 "
         id="feColorMatrix3451" />
      <feColorMatrix
         id="feColorMatrix3537"
         values="0 0 0 -1 0 0 0 0 -1 0 0 0 0 -1 0 0 0 0 1 0"
         in="fbSourceGraphic"
         result="fbSourceGraphicAlpha" />
      <feColorMatrix
         in="fbSourceGraphic"
         result="fbSourceGraphic"
         values="1 0 0 0 0 0 1 0 0 0 0 0 1 0 0 -0.21 -0.72 -0.07 2 0 "
         id="feColorMatrix3539" />
      <feColorMatrix
         id="feColorMatrix3482"
         values="0 0 0 -1 0 0 0 0 -1 0 0 0 0 -1 0 0 0 0 1 0"
         in="fbSourceGraphic"
         result="fbSourceGraphicAlpha" />
      <feColorMatrix
         in="fbSourceGraphic"
         result="color1"
         values="180"
         type="hueRotate"
         id="feColorMatrix3484" />
      <feColorMatrix
         result="color2"
         values="-1 0 0 0 1 0 -1 0 0 1 0 0 -1 0 1 -0.21 -0.72 -0.07 2 0 "
         id="feColorMatrix3486" />
    </filter>
    <filter
       id="filter3408"
       inkscape:label="Invert"
       style="color-interpolation-filters:sRGB;">
      <feColorMatrix
         id="feColorMatrix3410"
         result="fbSourceGraphic"
         values="1 0 0 0 0 0 1 0 0 0 0 0 1 0 0 -0.21 -0.72 -0.07 2 0 " />
      <feColorMatrix
         id="feColorMatrix3453"
         values="0 0 0 -1 0 0 0 0 -1 0 0 0 0 -1 0 0 0 0 1 0"
         in="fbSourceGraphic"
         result="fbSourceGraphicAlpha" />
      <feColorMatrix
         in="fbSourceGraphic"
         result="fbSourceGraphic"
         values="1 0 0 0 0 0 1 0 0 0 0 0 1 0 0 -0.21 -0.72 -0.07 2 0 "
         id="feColorMatrix3455" />
      <feColorMatrix
         id="feColorMatrix3541"
         values="0 0 0 -1 0 0 0 0 -1 0 0 0 0 -1 0 0 0 0 1 0"
         in="fbSourceGraphic"
         result="fbSourceGraphicAlpha" />
      <feColorMatrix
         in="fbSourceGraphic"
         result="fbSourceGraphic"
         values="1 0 0 0 0 0 1 0 0 0 0 0 1 0 0 -0.21 -0.72 -0.07 2 0 "
         id="feColorMatrix3543" />
      <feColorMatrix
         id="feColorMatrix3488"
         values="0 0 0 -1 0 0 0 0 -1 0 0 0 0 -1 0 0 0 0 1 0"
         in="fbSourceGraphic"
         result="fbSourceGraphicAlpha" />
      <feColorMatrix
         in="fbSourceGraphic"
         result="color1"
         values="180"
         type="hueRotate"
         id="feColorMatrix3490" />
      <feColorMatrix
         result="color2"
         values="-1 0 0 0 1 0 -1 0 0 1 0 0 -1 0 1 -0.21 -0.72 -0.07 2 0 "
         id="feColorMatrix3492" />
    </filter>
    <filter
       id="filter3412"
       inkscape:label="Invert"
       style="color-interpolation-filters:sRGB;">
      <feColorMatrix
         id="feColorMatrix3414"
         result="fbSourceGraphic"
         values="1 0 0 0 0 0 1 0 0 0 0 0 1 0 0 -0.21 -0.72 -0.07 2 0 " />
      <feColorMatrix
         id="feColorMatrix3457"
         values="0 0 0 -1 0 0 0 0 -1 0 0 0 0 -1 0 0 0 0 1 0"
         in="fbSourceGraphic"
         result="fbSourceGraphicAlpha" />
      <feColorMatrix
         in="fbSourceGraphic"
         result="fbSourceGraphic"
         values="1 0 0 0 0 0 1 0 0 0 0 0 1 0 0 -0.21 -0.72 -0.07 2 0 "
         id="feColorMatrix3459" />
      <feColorMatrix
         id="feColorMatrix3545"
         values="0 0 0 -1 0 0 0 0 -1 0 0 0 0 -1 0 0 0 0 1 0"
         in="fbSourceGraphic"
         result="fbSourceGraphicAlpha" />
      <feColorMatrix
         in="fbSourceGraphic"
         result="fbSourceGraphic"
         values="1 0 0 0 0 0 1 0 0 0 0 0 1 0 0 -0.21 -0.72 -0.07 2 0 "
         id="feColorMatrix3547" />
      <feColorMatrix
         id="feColorMatrix3494"
         values="0 0 0 -1 0 0 0 0 -1 0 0 0 0 -1 0 0 0 0 1 0"
         in="fbSourceGraphic"
         result="fbSourceGraphicAlpha" />
      <feColorMatrix
         in="fbSourceGraphic"
         result="color1"
         values="180"
         type="hueRotate"
         id="feColorMatrix3496" />
      <feColorMatrix
         result="color2"
         values="-1 0 0 0 1 0 -1 0 0 1 0 0 -1 0 1 -0.21 -0.72 -0.07 2 0 "
         id="feColorMatrix3498" />
    </filter>
    <filter
       id="filter3416"
       inkscape:label="Invert"
       style="color-interpolation-filters:sRGB;">
      <feColorMatrix
         id="feColorMatrix3418"
         result="fbSourceGraphic"
         values="1 0 0 0 0 0 1 0 0 0 0 0 1 0 0 -0.21 -0.72 -0.07 2 0 " />
      <feColorMatrix
         id="feColorMatrix3461"
         values="0 0 0 -1 0 0 0 0 -1 0 0 0 0 -1 0 0 0 0 1 0"
         in="fbSourceGraphic"
         result="fbSourceGraphicAlpha" />
      <feColorMatrix
         in="fbSourceGraphic"
         result="fbSourceGraphic"
         values="1 0 0 0 0 0 1 0 0 0 0 0 1 0 0 -0.21 -0.72 -0.07 2 0 "
         id="feColorMatrix3463" />
      <feColorMatrix
         id="feColorMatrix3549"
         values="0 0 0 -1 0 0 0 0 -1 0 0 0 0 -1 0 0 0 0 1 0"
         in="fbSourceGraphic"
         result="fbSourceGraphicAlpha" />
      <feColorMatrix
         in="fbSourceGraphic"
         result="fbSourceGraphic"
         values="1 0 0 0 0 0 1 0 0 0 0 0 1 0 0 -0.21 -0.72 -0.07 2 0 "
         id="feColorMatrix3551" />
      <feColorMatrix
         id="feColorMatrix3500"
         values="0 0 0 -1 0 0 0 0 -1 0 0 0 0 -1 0 0 0 0 1 0"
         in="fbSourceGraphic"
         result="fbSourceGraphicAlpha" />
      <feColorMatrix
         in="fbSourceGraphic"
         result="color1"
         values="180"
         type="hueRotate"
         id="feColorMatrix3502" />
      <feColorMatrix
         result="color2"
         values="-1 0 0 0 1 0 -1 0 0 1 0 0 -1 0 1 -0.21 -0.72 -0.07 2 0 "
         id="feColorMatrix3504" />
    </filter>
    <filter
       id="filter3420"
       inkscape:label="Invert"
       style="color-interpolation-filters:sRGB;">
      <feColorMatrix
         id="feColorMatrix3422"
         result="fbSourceGraphic"
         values="1 0 0 0 0 0 1 0 0 0 0 0 1 0 0 -0.21 -0.72 -0.07 2 0 " />
      <feColorMatrix
         id="feColorMatrix3465"
         values="0 0 0 -1 0 0 0 0 -1 0 0 0 0 -1 0 0 0 0 1 0"
         in="fbSourceGraphic"
         result="fbSourceGraphicAlpha" />
      <feColorMatrix
         in="fbSourceGraphic"
         result="fbSourceGraphic"
         values="1 0 0 0 0 0 1 0 0 0 0 0 1 0 0 -0.21 -0.72 -0.07 2 0 "
         id="feColorMatrix3467" />
      <feColorMatrix
         id="feColorMatrix3553"
         values="0 0 0 -1 0 0 0 0 -1 0 0 0 0 -1 0 0 0 0 1 0"
         in="fbSourceGraphic"
         result="fbSourceGraphicAlpha" />
      <feColorMatrix
         in="fbSourceGraphic"
         result="fbSourceGraphic"
         values="1 0 0 0 0 0 1 0 0 0 0 0 1 0 0 -0.21 -0.72 -0.07 2 0 "
         id="feColorMatrix3555" />
      <feColorMatrix
         id="feColorMatrix3507"
         values="0 0 0 -1 0 0 0 0 -1 0 0 0 0 -1 0 0 0 0 1 0"
         in="fbSourceGraphic"
         result="fbSourceGraphicAlpha" />
      <feColorMatrix
         in="fbSourceGraphic"
         result="color1"
         values="180"
         type="hueRotate"
         id="feColorMatrix3509" />
      <feColorMatrix
         result="color2"
         values="-1 0 0 0 1 0 -1 0 0 1 0 0 -1 0 1 -0.21 -0.72 -0.07 2 0 "
         id="feColorMatrix3511" />
    </filter>
    <filter
       id="filter3424"
       inkscape:label="Invert"
       style="color-interpolation-filters:sRGB;">
      <feColorMatrix
         id="feColorMatrix3427"
         result="fbSourceGraphic"
         values="1 0 0 0 0 0 1 0 0 0 0 0 1 0 0 -0.21 -0.72 -0.07 2 0 " />
      <feColorMatrix
         id="feColorMatrix3469"
         values="0 0 0 -1 0 0 0 0 -1 0 0 0 0 -1 0 0 0 0 1 0"
         in="fbSourceGraphic"
         result="fbSourceGraphicAlpha" />
      <feColorMatrix
         in="fbSourceGraphic"
         result="fbSourceGraphic"
         values="1 0 0 0 0 0 1 0 0 0 0 0 1 0 0 -0.21 -0.72 -0.07 2 0 "
         id="feColorMatrix3471" />
      <feColorMatrix
         id="feColorMatrix3557"
         values="0 0 0 -1 0 0 0 0 -1 0 0 0 0 -1 0 0 0 0 1 0"
         in="fbSourceGraphic"
         result="fbSourceGraphicAlpha" />
      <feColorMatrix
         in="fbSourceGraphic"
         result="fbSourceGraphic"
         values="1 0 0 0 0 0 1 0 0 0 0 0 1 0 0 -0.21 -0.72 -0.07 2 0 "
         id="feColorMatrix3559" />
      <feColorMatrix
         id="feColorMatrix3513"
         values="0 0 0 -1 0 0 0 0 -1 0 0 0 0 -1 0 0 0 0 1 0"
         in="fbSourceGraphic"
         result="fbSourceGraphicAlpha" />
      <feColorMatrix
         in="fbSourceGraphic"
         result="color1"
         values="180"
         type="hueRotate"
         id="feColorMatrix3515" />
      <feColorMatrix
         result="color2"
         values="-1 0 0 0 1 0 -1 0 0 1 0 0 -1 0 1 -0.21 -0.72 -0.07 2 0 "
         id="feColorMatrix3517" />
    </filter>
    <filter
       id="filter3429"
       inkscape:label="Invert"
       style="color-interpolation-filters:sRGB;">
      <feColorMatrix
         id="feColorMatrix3431"
         result="fbSourceGraphic"
         values="1 0 0 0 0 0 1 0 0 0 0 0 1 0 0 -0.21 -0.72 -0.07 2 0 " />
      <feColorMatrix
         id="feColorMatrix3473"
         values="0 0 0 -1 0 0 0 0 -1 0 0 0 0 -1 0 0 0 0 1 0"
         in="fbSourceGraphic"
         result="fbSourceGraphicAlpha" />
      <feColorMatrix
         in="fbSourceGraphic"
         result="fbSourceGraphic"
         values="1 0 0 0 0 0 1 0 0 0 0 0 1 0 0 -0.21 -0.72 -0.07 2 0 "
         id="feColorMatrix3475" />
      <feColorMatrix
         id="feColorMatrix3561"
         values="0 0 0 -1 0 0 0 0 -1 0 0 0 0 -1 0 0 0 0 1 0"
         in="fbSourceGraphic"
         result="fbSourceGraphicAlpha" />
      <feColorMatrix
         in="fbSourceGraphic"
         result="fbSourceGraphic"
         values="1 0 0 0 0 0 1 0 0 0 0 0 1 0 0 -0.21 -0.72 -0.07 2 0 "
         id="feColorMatrix3563" />
      <feColorMatrix
         id="feColorMatrix3458"
         values="0 0 0 -1 0 0 0 0 -1 0 0 0 0 -1 0 0 0 0 1 0"
         in="fbSourceGraphic"
         result="fbSourceGraphicAlpha" />
      <feColorMatrix
         in="fbSourceGraphic"
         result="color1"
         values="180"
         type="hueRotate"
         id="feColorMatrix3460" />
      <feColorMatrix
         result="fbSourceGraphic"
         values="-1 0 0 0 1 0 -1 0 0 1 0 0 -1 0 1 -0.21 -0.72 -0.07 2 0 "
         id="feColorMatrix3462" />
      <feColorMatrix
         id="feColorMatrix3519"
         values="0 0 0 -1 0 0 0 0 -1 0 0 0 0 -1 0 0 0 0 1 0"
         in="fbSourceGraphic"
         result="fbSourceGraphicAlpha" />
      <feColorMatrix
         in="fbSourceGraphic"
         result="color1"
         values="180"
         type="hueRotate"
         id="feColorMatrix3521" />
      <feColorMatrix
         result="fbSourceGraphic"
         values="-1 0 0 0 1 0 -1 0 0 1 0 0 -1 0 1 -0.21 -0.72 -0.07 2 0 "
         id="feColorMatrix3523" />
      <feColorMatrix
         id="feColorMatrix3538"
         values="0 0 0 -1 0 0 0 0 -1 0 0 0 0 -1 0 0 0 0 1 0"
         in="fbSourceGraphic"
         result="fbSourceGraphicAlpha" />
      <feColorMatrix
         in="fbSourceGraphic"
         result="color1"
         values="180"
         type="hueRotate"
         id="feColorMatrix3540" />
      <feColorMatrix
         result="color2"
         values="-1 0 0 0 1 0 -1 0 0 1 0 0 -1 0 1 -0.21 -0.72 -0.07 2 0 "
         id="feColorMatrix3542" />
    </filter>
    <filter
       id="filter3433"
       inkscape:label="Invert"
       style="color-interpolation-filters:sRGB;">
      <feColorMatrix
         id="feColorMatrix3435"
         result="fbSourceGraphic"
         values="1 0 0 0 0 0 1 0 0 0 0 0 1 0 0 -0.21 -0.72 -0.07 2 0 " />
      <feColorMatrix
         id="feColorMatrix3477"
         values="0 0 0 -1 0 0 0 0 -1 0 0 0 0 -1 0 0 0 0 1 0"
         in="fbSourceGraphic"
         result="fbSourceGraphicAlpha" />
      <feColorMatrix
         in="fbSourceGraphic"
         result="fbSourceGraphic"
         values="1 0 0 0 0 0 1 0 0 0 0 0 1 0 0 -0.21 -0.72 -0.07 2 0 "
         id="feColorMatrix3479" />
      <feColorMatrix
         id="feColorMatrix3565"
         values="0 0 0 -1 0 0 0 0 -1 0 0 0 0 -1 0 0 0 0 1 0"
         in="fbSourceGraphic"
         result="fbSourceGraphicAlpha" />
      <feColorMatrix
         in="fbSourceGraphic"
         result="fbSourceGraphic"
         values="1 0 0 0 0 0 1 0 0 0 0 0 1 0 0 -0.21 -0.72 -0.07 2 0 "
         id="feColorMatrix3567" />
      <feColorMatrix
         id="feColorMatrix3526"
         values="0 0 0 -1 0 0 0 0 -1 0 0 0 0 -1 0 0 0 0 1 0"
         in="fbSourceGraphic"
         result="fbSourceGraphicAlpha" />
      <feColorMatrix
         in="fbSourceGraphic"
         result="color1"
         values="180"
         type="hueRotate"
         id="feColorMatrix3528" />
      <feColorMatrix
         result="color2"
         values="-1 0 0 0 1 0 -1 0 0 1 0 0 -1 0 1 -0.21 -0.72 -0.07 2 0 "
         id="feColorMatrix3530" />
    </filter>
    <filter
       id="filter3532"
       inkscape:label="Invert"
       style="color-interpolation-filters:sRGB;">
      <feColorMatrix
         id="feColorMatrix3534"
         result="color1"
         values="180"
         type="hueRotate" />
      <feColorMatrix
         id="feColorMatrix3536"
         result="color2"
         values="-1 0 0 0 1 0 -1 0 0 1 0 0 -1 0 1 -0.21 -0.72 -0.07 2 0 " />
    </filter>
    <filter
       id="filter3578"
       inkscape:label="Invert"
       style="color-interpolation-filters:sRGB;">
      <feColorMatrix
         id="feColorMatrix3580"
         result="color1"
         values="180"
         type="hueRotate" />
      <feColorMatrix
         id="feColorMatrix3582"
         result="color2"
         values="-1 0 0 0 1 0 -1 0 0 1 0 0 -1 0 1 -0.21 -0.72 -0.07 2 0 " />
    </filter>
    <filter
       id="filter3584"
       inkscape:label="Invert"
       style="color-interpolation-filters:sRGB;">
      <feColorMatrix
         id="feColorMatrix3586"
         result="color1"
         values="180"
         type="hueRotate" />
      <feColorMatrix
         id="feColorMatrix3588"
         result="color2"
         values="-1 0 0 0 1 0 -1 0 0 1 0 0 -1 0 1 -0.21 -0.72 -0.07 2 0 " />
    </filter>
    <filter
       id="filter3590"
       inkscape:label="Invert"
       style="color-interpolation-filters:sRGB;">
      <feColorMatrix
         id="feColorMatrix3592"
         result="color1"
         values="180"
         type="hueRotate" />
      <feColorMatrix
         id="feColorMatrix3594"
         result="color2"
         values="-1 0 0 0 1 0 -1 0 0 1 0 0 -1 0 1 -0.21 -0.72 -0.07 2 0 " />
    </filter>
    <filter
       id="filter3596"
       inkscape:label="Invert"
       style="color-interpolation-filters:sRGB;">
      <feColorMatrix
         id="feColorMatrix3598"
         result="color1"
         values="180"
         type="hueRotate" />
      <feColorMatrix
         id="feColorMatrix3600"
         result="color2"
         values="-1 0 0 0 1 0 -1 0 0 1 0 0 -1 0 1 -0.21 -0.72 -0.07 2 0 " />
    </filter>
    <filter
       id="filter3602"
       inkscape:label="Invert"
       style="color-interpolation-filters:sRGB;">
      <feColorMatrix
         id="feColorMatrix3604"
         result="color1"
         values="180"
         type="hueRotate" />
      <feColorMatrix
         id="feColorMatrix3606"
         result="color2"
         values="-1 0 0 0 1 0 -1 0 0 1 0 0 -1 0 1 -0.21 -0.72 -0.07 2 0 " />
    </filter>
    <filter
       id="filter3608"
       inkscape:label="Invert"
       style="color-interpolation-filters:sRGB;">
      <feColorMatrix
         id="feColorMatrix3610"
         result="color1"
         values="180"
         type="hueRotate" />
      <feColorMatrix
         id="feColorMatrix3612"
         result="color2"
         values="-1 0 0 0 1 0 -1 0 0 1 0 0 -1 0 1 -0.21 -0.72 -0.07 2 0 " />
    </filter>
    <linearGradient
       id="linearGradient4259"
       inkscape:collect="always">
      <stop
         id="stop4261"
         style="stop-color:#232629;stop-opacity:0.203922" />
      <stop
         id="stop4263"
         style="stop-color:#232629;stop-opacity:0"
         offset="1" />
    </linearGradient>
    <linearGradient
       gradientTransform="translate(8e-6,-0.007763)"
       gradientUnits="userSpaceOnUse"
       x2="0"
       y2="538.60559"
       y1="541.03632"
       id="linearGradient4283"
       xlink:href="#linearGradient4152-0"
       inkscape:collect="always" />
    <linearGradient
       id="linearGradient4152-0"
       inkscape:collect="always">
      <stop
         id="stop4154-0"
         style="stop-color:#bd8d48" />
      <stop
         id="stop4156-8"
         style="stop-color:#e8b971"
         offset="1" />
    </linearGradient>
    <linearGradient
       gradientTransform="translate(8e-6,-0.023444)"
       gradientUnits="userSpaceOnUse"
       x2="0"
       y2="545.23547"
       y1="540.79797"
       id="linearGradient4179"
       xlink:href="#linearGradient4259"
       inkscape:collect="always" />
    <linearGradient
       gradientUnits="userSpaceOnUse"
       x2="30"
       y2="25"
       x1="17"
       y1="12"
       id="linearGradient4258"
       xlink:href="#linearGradient4410"
       inkscape:collect="always" />
    <linearGradient
       gradientUnits="userSpaceOnUse"
       x2="0"
       y2="517.79797"
       y1="545.79797"
       id="linearGradient4277"
       xlink:href="#linearGradient4273"
       inkscape:collect="always" />
    <linearGradient
       id="linearGradient4410"
       inkscape:collect="always">
      <stop
         id="stop4412"
         style="stop-color:#383e51" />
      <stop
         id="stop4414"
         style="stop-color:#655c6f;stop-opacity:0"
         offset="1" />
    </linearGradient>
    <linearGradient
       id="linearGradient4303"
       inkscape:collect="always">
      <stop
         id="stop4305"
         style="stop-color:#c6cdd1" />
      <stop
         id="stop4307"
         style="stop-color:#e0e5e7"
         offset="1" />
    </linearGradient>
    <linearGradient
       gradientUnits="userSpaceOnUse"
       x2="0"
       y2="522.79797"
       y1="538.79797"
       id="linearGradient4558"
       xlink:href="#linearGradient4303"
       inkscape:collect="always" />
    <linearGradient
       gradientUnits="userSpaceOnUse"
       x2="0"
       y2="15"
       y1="22"
       id="linearGradient4615"
       xlink:href="#linearGradient4298"
       inkscape:collect="always" />
    <linearGradient
       id="linearGradient4273"
       inkscape:collect="always">
      <stop
         id="stop4275-2"
         style="stop-color:#343b40" />
      <stop
         id="stop4277"
         style="stop-color:#555e63"
         offset="1" />
    </linearGradient>
    <linearGradient
       id="linearGradient4298"
       inkscape:collect="always">
      <stop
         id="stop4300"
         style="stop-color:#42a603" />
      <stop
         id="stop4302"
         style="stop-color:#78da06"
         offset="1" />
    </linearGradient>
    <linearGradient
       inkscape:collect="always"
       xlink:href="#linearGradient4544"
       id="linearGradient4550"
       x1="486.86609"
       y1="554.39392"
       x2="484.95691"
       y2="515.25378"
       gradientUnits="userSpaceOnUse" />
    <filter
       inkscape:collect="always"
       style="color-interpolation-filters:sRGB"
       id="filter4596"
       x="-0.012588889"
       width="1.0251778"
       y="-0.25652846"
       height="1.5130569">
      <feGaussianBlur
         inkscape:collect="always"
         stdDeviation="5.4080324"
         id="feGaussianBlur4598" />
    </filter>
  </defs>
  <g
     transform="translate(-280.58281,104.77444)"
     id="layer1"
     style="opacity:1">
    <g
       transform="matrix(4.2226804,0,0,4.2226804,274.21745,-106.91712)"
       id="g3268"
       style="stroke:#000000;stroke-width:0.98515624;stroke-linecap:square;stroke-miterlimit:4;stroke-dasharray:none;stroke-opacity:1">
      <path
         d="M 3,2 L 189,2 M 191,2 L 243,2 M 5,4 L 11,4 M 19,4 L 25,4 M 35,4 L 43,4 M 47,4 L 55,4 M 59,4 L 69,4 M 73,4 L 83,4 M 91,4 L 99,4 M 101,4 L 117,4 M 125,4 L 137,4 M 149,4 L 163,4 M 167,4 L 177,4 M 183,4 L 187,4 M 193,4 L 197,4 M 201,4 L 205,4 M 7,6 L 9,6 M 17,6 L 23,6 M 35,6 L 41,6 M 47,6 L 53,6 M 59,6 L 61,6 M 73,6 L 77,6 M 81,6 L 85,6 M 89,6 L 97,6 M 103,6 L 115,6 M 127,6 L 135,6 M 151,6 L 155,6 M 161,6 L 165,6 M 171,6 L 177,6 M 183,6 L 189,6 M 191,6 L 197,6 M 227,6 L 229,6 M 19,8 L 21,8 M 23,8 L 29,8 M 37,8 L 53,8 M 55,8 L 59,8 M 69,8 L 73,8 M 75,8 L 79,8 M 81,8 L 87,8 M 91,8 L 97,8 M 101,8 L 111,8 M 113,8 L 117,8 M 121,8 L 123,8 M 125,8 L 131,8 M 141,8 L 145,8 M 149,8 L 153,8 M 161,8 L 167,8 M 169,8 L 171,8 M 173,8 L 179,8 M 183,8 L 189,8 M 191,8 L 193,8 M 195,8 L 199,8 M 217,8 L 221,8 M 225,8 L 227,8 M 15,9 L 17,9 M 27,10 L 33,10 M 35,10 L 39,10 M 49,10 L 55,10 M 59,10 L 61,10 M 69,10 L 85,10 M 91,10 L 97,10 M 103,10 L 111,10 M 115,10 L 123,10 M 127,10 L 133,10 M 143,10 L 147,10 M 151,10 L 155,10 M 161,10 L 169,10 M 171,10 L 175,10 M 179,10 L 187,10 M 197,10 L 201,10 M 203,10 L 211,10 M 217,10 L 227,10 M 33,12 L 35,12 M 37,12 L 45,12 M 49,12 L 53,12 M 61,12 L 63,12 M 67,12 L 73,12 M 75,12 L 83,12 M 85,12 L 89,12 M 93,12 L 95,12 M 99,12 L 111,12 M 113,12 L 121,12 M 123,12 L 129,12 M 135,12 L 141,12 M 145,12 L 149,12 M 151,12 L 155,12 M 159,12 L 167,12 M 169,12 L 177,12 M 179,12 L 191,12 M 199,12 L 203,12 M 205,12 L 209,12 M 213,12 L 217,12 M 219,12 L 237,12 M 239,12 L 241,12 M 5,13 L 7,13 M 9,13 L 15,13 M 31,14 L 33,14 M 35,14 L 37,14 M 43,14 L 47,14 M 61,14 L 71,14 M 73,14 L 81,14 M 87,14 L 93,14 M 95,14 L 97,14 M 103,14 L 113,14 M 117,14 L 127,14 M 133,14 L 141,14 M 145,14 L 153,14 M 155,14 L 159,14 M 161,14 L 167,14 M 179,14 L 189,14 M 197,14 L 201,14 M 205,14 L 211,14 M 213,14 L 225,14 M 231,14 L 239,14 M 3,15 L 5,15 M 21,16 L 25,16 M 33,16 L 39,16 M 47,16 L 49,16 M 59,16 L 69,16 M 75,16 L 79,16 M 85,16 L 91,16 M 93,16 L 97,16 M 101,16 L 109,16 M 119,16 L 129,16 M 131,16 L 139,16 M 145,16 L 151,16 M 153,16 L 159,16 M 163,16 L 167,16 M 177,16 L 181,16 M 193,16 L 197,16 M 199,16 L 203,16 M 207,16 L 211,16 M 213,16 L 223,16 M 235,16 L 241,16 M 33,18 L 41,18 M 45,18 L 49,18 M 57,18 L 61,18 M 63,18 L 67,18 M 69,18 L 76,18 M 78,18 L 83,18 M 87,18 L 93,18 M 95,18 L 99,18 M 103,18 L 109,18 M 121,18 L 129,18 M 131,18 L 133,18 M 137,18 L 141,18 M 143,18 L 145,18 M 149,18 L 153,18 M 169,18 L 171,18 M 173,18 L 179,18 M 181,18 L 183,18 M 191,18 L 193,18 M 201,18 L 205,18 M 219,18 L 225,18 M 235,18 L 239,18 M 31,20 L 43,20 M 47,20 L 51,20 M 55,20 L 59,20 M 71,20 L 78,20 M 82,20 L 87,20 M 89,20 L 95,20 M 97,20 L 105,20 M 121,20 L 131,20 M 141,20 L 145,20 M 147,20 L 151,20 M 165,20 L 171,20 M 175,20 L 181,20 M 217,20 L 223,20 M 237,20 L 241,20 M 5,22 L 9,22 M 13,22 L 17,22 M 33,22 L 41,22 M 47,22 L 49,22 M 53,22 L 61,22 M 71,22 L 76,22 M 80,22 L 85,22 M 87,22 L 91,22 M 93,22 L 99,22 M 101,22 L 103,22 M 123,22 L 133,22 M 143,22 L 153,22 M 157,22 L 165,22 M 173,22 L 181,22 M 219,22 L 227,22 M 235,22 L 239,22 M 205,23 L 209,23 M 3,24 L 11,24 M 13,24 L 19,24 M 21,24 L 29,24 M 31,24 L 41,24 M 51,24 L 59,24 M 67,24 L 78,24 M 82,24 L 89,24 M 95,24 L 101,24 M 121,24 L 131,24 M 147,24 L 151,24 M 157,24 L 167,24 M 169,24 L 173,24 M 177,24 L 183,24 M 221,24 L 227,24 M 229,24 L 237,24 M 43,25 L 45,25 M 135,25 L 139,25 M 7,26 L 13,26 M 15,26 L 29,26 M 33,26 L 41,26 M 49,26 L 57,26 M 63,26 L 67,26 M 69,26 L 78,26 M 80,26 L 85,26 M 87,26 L 89,26 M 91,26 L 103,26 M 109,26 L 113,26 M 119,26 L 127,26 M 131,26 L 133,26 M 149,26 L 153,26 M 159,26 L 171,26 M 179,26 L 185,26 M 187,26 L 197,26 M 221,26 L 225,26 M 229,26 L 241,26 M 5,28 L 9,28 M 11,28 L 19,28 M 23,28 L 31,28 M 33,28 L 43,28 M 51,28 L 59,28 M 61,28 L 67,28 M 71,28 L 72,28 M 76,28 L 85,28 M 93,28 L 103,28 M 109,28 L 133,28 M 139,28 L 141,28 M 147,28 L 151,28 M 157,28 L 165,28 M 173,28 L 181,28 M 201,28 L 205,28 M 209,28 L 215,28 M 217,28 L 219,28 M 233,28 L 237,28 M 239,28 L 243,28 M 13,30 L 41,30 M 53,30 L 57,30 M 63,30 L 65,30 M 73,30 L 82,30 M 84,30 L 87,30 M 95,30 L 105,30 M 113,30 L 120,30 M 124,30 L 133,30 M 139,30 L 141,30 M 147,30 L 155,30 M 159,30 L 167,30 M 171,30 L 179,30 M 203,30 L 207,30 M 235,30 L 239,30 M 11,32 L 19,32 M 23,32 L 41,32 M 51,32 L 53,32 M 55,32 L 59,32 M 71,32 L 82,32 M 84,32 L 91,32 M 93,32 L 105,32 M 111,32 L 120,32 M 122,32 L 131,32 M 141,32 L 143,32 M 145,32 L 149,32 M 155,32 L 167,32 M 173,32 L 181,32 M 193,32 L 197,32 M 201,32 L 205,32 M 219,32 L 223,32 M 227,32 L 229,32 M 5,33 L 7,33 M 133,33 L 137,33 M 9,34 L 23,34 M 27,34 L 39,34 M 47,34 L 57,34 M 67,34 L 80,34 M 84,34 L 91,34 M 95,34 L 107,34 M 113,34 L 133,34 M 141,34 L 151,34 M 153,34 L 161,34 M 169,34 L 177,34 M 193,34 L 205,34 M 219,34 L 223,34 M 227,34 L 233,34 M 61,35 L 67,35 M 9,36 L 21,36 M 27,36 L 35,36 M 53,36 L 59,36 M 69,36 L 105,36 M 111,36 L 120,36 M 122,36 L 127,36 M 131,36 L 135,36 M 139,36 L 141,36 M 143,36 L 149,36 M 155,36 L 161,36 M 167,36 L 173,36 M 175,36 L 179,36 M 195,36 L 205,36 M 209,36 L 217,36 M 221,36 L 229,36 M 231,36 L 235,36 M 189,37 L 191,37 M 13,38 L 23,38 M 29,38 L 37,38 M 71,38 L 83,38 M 95,38 L 103,38 M 107,38 L 111,38 M 113,38 L 123,38 M 129,38 L 133,38 M 137,38 L 141,38 M 145,38 L 159,38 M 167,38 L 175,38 M 179,38 L 181,38 M 185,38 L 187,38 M 197,38 L 211,38 M 215,38 L 219,38 M 221,38 L 231,38 M 163,39 L 165,39 M 189,39 L 193,39 M 15,40 L 25,40 M 27,40 L 35,40 M 45,40 L 47,40 M 71,40 L 79,40 M 93,40 L 101,40 M 113,40 L 117,40 M 131,40 L 135,40 M 145,40 L 153,40 M 155,40 L 159,40 M 169,40 L 175,40 M 195,40 L 197,40 M 199,40 L 205,40 M 209,40 L 227,40 M 239,40 L 243,40 M 55,41 L 59,41 M 61,41 L 69,41 M 15,42 L 27,42 M 29,42 L 37,42 M 41,42 L 43,42 M 45,42 L 49,42 M 73,42 L 77,42 M 93,42 L 103,42 M 129,42 L 135,42 M 143,42 L 151,42 M 157,42 L 163,42 M 167,42 L 173,42 M 197,42 L 201,42 M 207,42 L 213,42 M 215,42 L 219,42 M 221,42 L 229,42 M 53,43 L 60,43 M 64,43 L 71,43 M 77,43 L 81,43 M 83,43 L 91,43 M 15,44 L 22,44 M 26,44 L 35,44 M 39,44 L 43,44 M 47,44 L 51,44 M 131,44 L 135,44 M 145,44 L 153,44 M 155,44 L 161,44 M 169,44 L 183,44 M 211,44 L 219,44 M 221,44 L 229,44 M 53,45 L 58,45 M 62,45 L 71,45 M 77,45 L 83,45 M 85,45 L 93,45 M 123,45 L 125,45 M 13,46 L 22,46 M 26,46 L 37,46 M 39,46 L 49,46 M 129,46 L 133,46 M 143,46 L 156,46 M 162,46 L 175,46 M 179,46 L 183,46 M 205,46 L 207,46 M 211,46 L 217,46 M 219,46 L 227,46 M 231,46 L 233,46 M 3,47 L 7,47 M 55,47 L 69,47 M 81,47 L 84,47 M 86,47 L 97,47 M 109,47 L 119,47 M 121,47 L 127,47 M 195,47 L 201,47 M 13,48 L 29,48 M 31,48 L 36,48 M 38,48 L 43,48 M 45,48 L 51,48 M 97,48 L 101,48 M 145,48 L 154,48 M 166,48 L 181,48 M 209,48 L 217,48 M 221,48 L 227,48 M 229,48 L 231,48 M 235,48 L 239,48 M 5,49 L 9,49 M 53,49 L 58,49 M 62,49 L 73,49 M 79,49 L 82,49 M 88,49 L 95,49 M 105,49 L 107,49 M 111,49 L 127,49 M 139,49 L 143,49 M 191,49 L 193,49 M 195,49 L 199,49 M 11,50 L 23,50 M 27,50 L 31,50 M 33,50 L 41,50 M 43,50 L 45,50 M 47,50 L 51,50 M 77,50 L 79,50 M 145,50 L 152,50 M 168,50 L 179,50 M 211,50 L 215,50 M 221,50 L 225,50 M 233,50 L 239,50 M 241,50 L 243,50 M 5,51 L 9,51 M 55,51 L 61,51 M 63,51 L 71,51 M 81,51 L 84,51 M 90,51 L 97,51 M 101,51 L 107,51 M 111,51 L 119,51 M 121,51 L 129,51 M 137,51 L 141,51 M 9,52 L 17,52 M 19,52 L 29,52 M 31,52 L 41,52 M 49,52 L 53,52 M 75,52 L 77,52 M 147,52 L 154,52 M 156,52 L 158,52 M 170,52 L 181,52 M 183,52 L 187,52 M 209,52 L 213,52 M 217,52 L 219,52 M 223,52 L 227,52 M 231,52 L 237,52 M 53,53 L 59,53 M 65,53 L 71,53 M 81,53 L 86,53 M 88,53 L 99,53 M 101,53 L 107,53 M 109,53 L 113,53 M 117,53 L 129,53 M 137,53 L 143,53 M 11,54 L 19,54 M 21,54 L 35,54 M 77,54 L 79,54 M 149,54 L 156,54 M 158,54 L 164,54 M 168,54 L 185,54 M 203,54 L 207,54 M 211,54 L 215,54 M 217,54 L 225,54 M 233,54 L 239,54 M 51,55 L 55,55 M 65,55 L 69,55 M 85,55 L 87,55 M 109,55 L 113,55 M 115,55 L 131,55 M 133,55 L 145,55 M 11,56 L 25,56 M 27,56 L 33,56 M 147,56 L 154,56 M 158,56 L 177,56 M 207,56 L 213,56 M 215,56 L 221,56 M 231,56 L 237,56 M 3,57 L 5,57 M 65,57 L 75,57 M 111,57 L 113,57 M 117,57 L 122,57 M 126,57 L 143,57 M 11,58 L 19,58 M 25,58 L 31,58 M 39,58 L 49,58 M 149,58 L 161,58 M 165,58 L 175,58 M 193,58 L 197,58 M 209,58 L 217,58 M 233,58 L 239,58 M 63,59 L 77,59 M 99,59 L 107,59 M 119,59 L 124,59 M 130,59 L 141,59 M 9,60 L 17,60 M 27,60 L 33,60 M 37,60 L 41,60 M 43,60 L 47,60 M 151,60 L 165,60 M 169,60 L 173,60 M 175,60 L 182,60 M 184,60 L 189,60 M 191,60 L 197,60 M 199,60 L 201,60 M 207,60 L 213,60 M 219,60 L 223,60 M 225,60 L 227,60 M 231,60 L 237,60 M 55,61 L 70,61 M 74,61 L 79,61 M 81,61 L 87,61 M 93,61 L 97,61 M 117,61 L 122,61 M 132,61 L 134,61 M 137,61 L 139,61 M 27,62 L 37,62 M 39,62 L 43,62 M 45,62 L 49,62 M 149,62 L 160,62 M 162,62 L 167,62 M 171,62 L 175,62 M 179,62 L 187,62 M 191,62 L 197,62 M 199,62 L 205,62 M 209,62 L 215,62 M 219,62 L 231,62 M 233,62 L 239,62 M 53,63 L 55,63 M 57,63 L 70,63 M 76,63 L 83,63 M 91,63 L 93,63 M 117,63 L 128,63 M 143,63 L 147,63 M 2,64 L 7,64 M 25,64 L 33,64 M 39,64 L 43,64 M 149,64 L 160,64 M 162,64 L 165,64 M 171,64 L 177,64 M 181,64 L 193,64 M 199,64 L 203,64 M 205,64 L 213,64 M 217,64 L 225,64 M 231,64 L 233,64 M 59,65 L 72,65 M 74,65 L 79,65 M 113,65 L 117,65 M 119,65 L 123,65 M 125,65 L 128,65 M 2,66 L 7,66 M 27,66 L 29,66 M 37,66 L 41,66 M 49,66 L 53,66 M 105,66 L 111,66 M 159,66 L 163,66 M 169,66 L 175,66 M 183,66 L 193,66 M 203,66 L 207,66 M 215,66 L 221,66 M 11,67 L 23,67 M 63,67 L 79,67 M 123,67 L 126,67 M 132,67 L 139,67 M 81,68 L 83,68 M 101,68 L 109,68 M 165,68 L 169,68 M 171,68 L 173,68 M 181,68 L 189,68 M 191,68 L 195,68 M 197,68 L 201,68 M 203,68 L 209,68 M 217,68 L 223,68 M 235,68 L 239,68 M 13,69 L 17,69 M 61,69 L 68,69 M 72,69 L 79,69 M 87,69 L 93,69 M 95,69 L 97,69 M 125,69 L 143,69 M 105,70 L 113,70 M 147,70 L 151,70 M 157,70 L 161,70 M 163,70 L 165,70 M 179,70 L 187,70 M 191,70 L 197,70 M 211,70 L 213,70 M 217,70 L 221,70 M 237,70 L 243,70 M 33,71 L 49,71 M 63,71 L 70,71 M 72,71 L 77,71 M 85,71 L 89,71 M 95,71 L 99,71 M 123,71 L 129,71 M 131,71 L 141,71 M 13,72 L 15,72 M 107,72 L 111,72 M 149,72 L 153,72 M 157,72 L 163,72 M 179,72 L 195,72 M 209,72 L 213,72 M 219,72 L 223,72 M 235,72 L 241,72 M 35,73 L 40,73 M 44,73 L 51,73 M 53,73 L 57,73 M 61,73 L 68,73 M 70,73 L 75,73 M 79,73 L 81,73 M 93,73 L 101,73 M 123,73 L 136,73 M 138,73 L 141,73 M 243,73 L 244,73 M 5,74 L 9,74 M 11,74 L 13,74 M 107,74 L 109,74 M 147,74 L 156,74 M 158,74 L 165,74 M 171,74 L 175,74 M 181,74 L 191,74 M 193,74 L 197,74 M 201,74 L 205,74 M 207,74 L 213,74 M 217,74 L 225,74 M 231,74 L 241,74 M 17,75 L 21,75 M 37,75 L 40,75 M 44,75 L 49,75 M 51,75 L 53,75 M 57,75 L 59,75 M 63,75 L 79,75 M 93,75 L 103,75 M 111,75 L 115,75 M 123,75 L 126,75 M 136,75 L 145,75 M 243,75 L 244,75 M 149,76 L 163,76 M 165,76 L 169,76 M 171,76 L 184,76 M 186,76 L 195,76 M 197,76 L 205,76 M 209,76 L 217,76 M 219,76 L 223,76 M 225,76 L 231,76 M 235,76 L 241,76 M 15,77 L 19,77 M 39,77 L 43,77 M 45,77 L 47,77 M 59,77 L 67,77 M 71,77 L 79,77 M 83,77 L 85,77 M 93,77 L 107,77 M 109,77 L 113,77 M 121,77 L 124,77 M 134,77 L 147,77 M 87,78 L 89,78 M 149,78 L 151,78 M 153,78 L 155,78 M 159,78 L 169,78 M 171,78 L 182,78 M 184,78 L 195,78 M 197,78 L 203,78 M 207,78 L 215,78 M 219,78 L 221,78 M 227,78 L 231,78 M 239,78 L 243,78 M 17,79 L 23,79 M 27,79 L 29,79 M 31,79 L 33,79 M 63,79 L 77,79 M 81,79 L 83,79 M 91,79 L 97,79 M 101,79 L 109,79 M 111,79 L 117,79 M 123,79 L 134,79 M 136,79 L 145,79 M 3,80 L 5,80 M 147,80 L 149,80 M 159,80 L 167,80 M 169,80 L 175,80 M 179,80 L 191,80 M 193,80 L 195,80 M 197,80 L 205,80 M 209,80 L 213,80 M 215,80 L 217,80 M 219,80 L 223,80 M 229,80 L 231,80 M 239,80 L 241,80 M 23,81 L 25,81 M 33,81 L 37,81 M 61,81 L 67,81 M 71,81 L 77,81 M 97,81 L 115,81 M 127,81 L 132,81 M 134,81 L 143,81 M 145,82 L 151,82 M 157,82 L 165,82 M 167,82 L 178,82 M 182,82 L 193,82 M 195,82 L 197,82 M 199,82 L 201,82 M 203,82 L 211,82 M 213,82 L 215,82 M 63,83 L 75,83 M 99,83 L 108,83 M 114,83 L 117,83 M 129,83 L 134,83 M 136,83 L 145,83 M 89,84 L 93,84 M 147,84 L 149,84 M 159,84 L 167,84 M 169,84 L 176,84 M 182,84 L 188,84 M 190,84 L 195,84 M 201,84 L 203,84 M 205,84 L 209,84 M 231,84 L 235,84 M 55,85 L 59,85 M 65,85 L 77,85 M 103,85 L 110,85 M 112,85 L 119,85 M 129,85 L 136,85 M 138,85 L 145,85 M 5,86 L 7,86 M 11,86 L 13,86 M 29,86 L 31,86 M 41,86 L 45,86 M 149,86 L 151,86 M 157,86 L 163,86 M 165,86 L 169,86 M 171,86 L 178,86 M 180,86 L 193,86 M 209,86 L 211,86 M 217,86 L 219,86 M 223,86 L 225,86 M 67,87 L 79,87 M 101,87 L 112,87 M 116,87 L 121,87 M 127,87 L 129,87 M 133,87 L 138,87 M 140,87 L 145,87 M 197,87 L 199,87 M 15,88 L 23,88 M 27,88 L 29,88 M 39,88 L 43,88 M 49,88 L 53,88 M 157,88 L 163,88 M 175,88 L 183,88 M 185,88 L 193,88 M 65,89 L 68,89 M 70,89 L 81,89 M 103,89 L 107,89 M 109,89 L 119,89 M 125,89 L 127,89 M 129,89 L 131,89 M 133,89 L 137,89 M 203,89 L 205,89 M 13,90 L 31,90 M 37,90 L 39,90 M 41,90 L 53,90 M 173,90 L 178,90 M 180,90 L 185,90 M 189,90 L 191,90 M 235,90 L 237,90 M 239,90 L 243,90 M 63,91 L 79,91 M 81,91 L 85,91 M 111,91 L 123,91 M 201,91 L 203,91 M 23,92 L 37,92 M 43,92 L 55,92 M 91,92 L 95,92 M 151,92 L 155,92 M 177,92 L 183,92 M 227,92 L 231,92 M 233,92 L 239,92 M 65,93 L 75,93 M 85,93 L 87,93 M 109,93 L 121,93 M 21,94 L 29,94 M 33,94 L 39,94 M 41,94 L 45,94 M 49,94 L 57,94 M 89,94 L 97,94 M 177,94 L 181,94 M 229,94 L 233,94 M 235,94 L 237,94 M 5,95 L 7,95 M 9,95 L 11,95 M 61,95 L 73,95 M 111,95 L 125,95 M 207,95 L 209,95 M 219,95 L 225,95 M 19,96 L 29,96 M 35,96 L 45,96 M 47,96 L 57,96 M 91,96 L 107,96 M 165,96 L 173,96 M 175,96 L 179,96 M 183,96 L 187,96 M 211,96 L 213,96 M 227,96 L 231,96 M 237,96 L 239,96 M 3,97 L 5,97 M 11,97 L 15,97 M 61,97 L 63,97 M 73,97 L 77,97 M 113,97 L 123,97 M 207,97 L 209,97 M 21,98 L 31,98 M 33,98 L 41,98 M 79,98 L 83,98 M 93,98 L 98,98 M 106,98 L 111,98 M 133,98 L 137,98 M 143,98 L 147,98 M 159,98 L 165,98 M 175,98 L 187,98 M 193,98 L 197,98 M 229,98 L 233,98 M 235,98 L 241,98 M 15,99 L 17,99 M 59,99 L 61,99 M 115,99 L 121,99 M 23,100 L 41,100 M 75,100 L 89,100 M 91,100 L 94,100 M 106,100 L 115,100 M 133,100 L 139,100 M 141,100 L 147,100 M 169,100 L 173,100 M 179,100 L 185,100 M 187,100 L 193,100 M 199,100 L 201,100 M 203,100 L 205,100 M 213,100 L 217,100 M 237,100 L 243,100 M 21,102 L 29,102 M 37,102 L 41,102 M 63,102 L 67,102 M 77,102 L 88,102 M 90,102 L 92,102 M 106,102 L 117,102 M 121,102 L 125,102 M 127,102 L 129,102 M 135,102 L 143,102 M 145,102 L 153,102 M 155,102 L 159,102 M 165,102 L 169,102 M 171,102 L 175,102 M 183,102 L 191,102 M 201,102 L 207,102 M 211,102 L 215,102 M 219,102 L 221,102 M 231,102 L 233,102 M 23,104 L 31,104 M 61,104 L 71,104 M 79,104 L 90,104 M 106,104 L 117,104 M 119,104 L 137,104 M 139,104 L 141,104 M 143,104 L 147,104 M 149,104 L 153,104 M 167,104 L 171,104 M 173,104 L 177,104 M 183,104 L 187,104 M 207,104 L 213,104 M 219,104 L 223,104 M 225,104 L 227,104 M 229,104 L 231,104 M 235,104 L 239,104 M 73,105 L 75,105 M 21,106 L 29,106 M 39,106 L 41,106 M 53,106 L 57,106 M 59,106 L 71,106 M 79,106 L 90,106 M 108,106 L 115,106 M 121,106 L 129,106 M 133,106 L 135,106 M 141,106 L 147,106 M 153,106 L 155,106 M 161,106 L 163,106 M 165,106 L 175,106 M 181,106 L 185,106 M 207,106 L 215,106 M 217,106 L 221,106 M 223,106 L 229,106 M 5,107 L 7,107 M 9,107 L 11,107 M 47,107 L 51,107 M 98,107 L 104,107 M 15,108 L 31,108 M 35,108 L 43,108 M 65,108 L 73,108 M 77,108 L 78,108 M 86,108 L 92,108 M 110,108 L 113,108 M 117,108 L 119,108 M 123,108 L 129,108 M 139,108 L 145,108 M 151,108 L 157,108 M 167,108 L 175,108 M 179,108 L 181,108 M 183,108 L 187,108 M 197,108 L 199,108 M 201,108 L 213,108 M 219,108 L 223,108 M 225,108 L 227,108 M 229,108 L 231,108 M 7,109 L 9,109 M 47,109 L 51,109 M 96,109 L 104,109 M 191,109 L 193,109 M 13,110 L 19,110 M 21,110 L 29,110 M 31,110 L 45,110 M 65,110 L 71,110 M 73,110 L 76,110 M 84,110 L 90,110 M 92,110 L 94,110 M 108,110 L 113,110 M 119,110 L 121,110 M 135,110 L 139,110 M 141,110 L 145,110 M 149,110 L 155,110 M 159,110 L 163,110 M 165,110 L 173,110 M 193,110 L 201,110 M 203,110 L 205,110 M 207,110 L 215,110 M 217,110 L 221,110 M 231,110 L 235,110 M 237,110 L 239,110 M 98,111 L 104,111 M 13,112 L 17,112 M 19,112 L 27,112 M 31,112 L 39,112 M 63,112 L 69,112 M 75,112 L 82,112 M 86,112 L 92,112 M 106,112 L 115,112 M 121,112 L 123,112 M 133,112 L 135,112 M 139,112 L 143,112 M 147,112 L 149,112 M 151,112 L 163,112 M 167,112 L 175,112 M 197,112 L 203,112 M 205,112 L 213,112 M 217,112 L 223,112 M 235,112 L 241,112 M 17,114 L 25,114 M 31,114 L 33,114 M 35,114 L 41,114 M 53,114 L 55,114 M 61,114 L 71,114 M 75,114 L 90,114 M 104,114 L 117,114 M 131,114 L 137,114 M 139,114 L 141,114 M 147,114 L 159,114 M 167,114 L 179,114 M 183,114 L 185,114 M 195,114 L 201,114 M 203,114 L 205,114 M 209,114 L 221,114 M 223,114 L 225,114 M 17,116 L 27,116 M 33,116 L 39,116 M 49,116 L 55,116 M 57,116 L 71,116 M 73,116 L 84,116 M 88,116 L 92,116 M 108,116 L 119,116 M 123,116 L 127,116 M 145,116 L 149,116 M 153,116 L 165,116 M 169,116 L 171,116 M 175,116 L 181,116 M 183,116 L 187,116 M 197,116 L 203,116 M 211,116 L 223,116 M 225,116 L 227,116 M 239,116 L 243,116 M 19,118 L 29,118 M 35,118 L 41,118 M 47,118 L 55,118 M 59,118 L 64,118 M 68,118 L 71,118 M 73,118 L 78,118 M 80,118 L 90,118 M 106,118 L 115,118 M 125,118 L 133,118 M 135,118 L 139,118 M 143,118 L 145,118 M 173,118 L 179,118 M 183,118 L 189,118 M 199,118 L 203,118 M 205,118 L 209,118 M 211,118 L 219,118 M 227,118 L 233,118 M 9,120 L 11,120 M 17,120 L 29,120 M 33,120 L 47,120 M 49,120 L 53,120 M 55,120 L 57,120 M 59,120 L 62,120 M 68,120 L 69,120 M 71,120 L 76,120 M 78,120 L 92,120 M 102,120 L 104,120 M 106,120 L 117,120 M 119,120 L 127,120 M 129,120 L 145,120 M 173,120 L 182,120 M 184,120 L 195,120 M 201,120 L 203,120 M 205,120 L 219,120 M 229,120 L 233,120 M 5,122 L 13,122 M 17,122 L 27,122 M 33,122 L 53,122 M 57,122 L 62,122 M 68,122 L 71,122 M 77,122 L 83,122 M 85,122 L 90,122 M 96,122 L 106,122 M 108,122 L 115,122 M 119,122 L 128,122 M 130,122 L 138,122 M 142,122 L 147,122 M 151,122 L 155,122 M 159,122 L 163,122 M 171,122 L 175,122 M 177,122 L 182,122 M 184,122 L 197,122 M 201,122 L 209,122 M 215,122 L 219,122 M 227,122 L 229,122 M 233,122 L 237,122 M 7,124 L 25,124 M 31,124 L 41,124 M 45,124 L 55,124 M 59,124 L 64,124 M 68,124 L 71,124 M 79,124 L 85,124 M 87,124 L 92,124 M 94,124 L 95,124 M 103,124 L 108,124 M 110,124 L 128,124 M 132,124 L 140,124 M 142,124 L 150,124 M 152,124 L 162,124 M 164,124 L 175,124 M 179,124 L 184,124 M 186,124 L 193,124 M 195,124 L 201,124 M 203,124 L 209,124 M 213,124 L 217,124 M 5,126 L 7,126 M 9,126 L 15,126 M 17,126 L 27,126 M 29,126 L 31,126 M 33,126 L 38,126 M 40,126 L 53,126 M 57,126 L 60,126 M 64,126 L 69,126 M 77,126 L 95,126 M 103,126 L 108,126 M 110,126 L 117,126 M 119,126 L 130,126 M 132,126 L 142,126 M 146,126 L 152,126 M 158,126 L 175,126 M 177,126 L 184,126 M 188,126 L 195,126 M 199,126 L 209,126 M 215,126 L 219,126 M 231,126 L 235,126 M 3,128 L 5,128 M 7,128 L 13,128 M 15,128 L 25,128 M 31,128 L 36,128 M 38,128 L 49,128 M 53,128 L 60,128 M 66,128 L 67,128 M 75,128 L 87,128 M 89,128 L 97,128 M 101,128 L 106,128 M 108,128 L 117,128 M 121,128 L 130,128 M 134,128 L 142,128 M 144,128 L 152,128 M 156,128 L 162,128 M 164,128 L 177,128 M 179,128 L 191,128 M 199,128 L 211,128 M 215,128 L 221,128 M 237,128 L 239,128 M 5,130 L 7,130 M 9,130 L 15,130 M 17,130 L 27,130 M 33,130 L 38,130 M 40,130 L 51,130 M 55,130 L 64,130 M 68,130 L 71,130 M 73,130 L 84,130 M 88,130 L 95,130 M 97,130 L 101,130 M 105,130 L 108,130 M 110,130 L 121,130 M 123,130 L 128,130 M 132,130 L 138,130 M 140,130 L 152,130 M 156,130 L 164,130 M 166,130 L 177,130 M 179,130 L 193,130 M 197,130 L 201,130 M 203,130 L 219,130 M 221,130 L 223,130 M 229,130 L 231,130 M 239,130 L 241,130 M 3,132 L 136,132 M 138,132 L 243,132"
         id="path3256"
         style="stroke:#000000;stroke-width:0.98515624;stroke-linecap:square;stroke-miterlimit:4;stroke-dasharray:none;stroke-opacity:1" />
      <path
         d="M 3,2 L 3,64 M 3,66 L 3,132 M 5,4 L 5,13 M 5,17 L 5,22 M 5,26 L 5,31 M 5,33 L 5,45 M 5,51 L 5,55 M 5,57 L 5,62 M 5,68 L 5,78 M 5,80 L 5,84 M 5,88 L 5,95 M 5,99 L 5,120 M 5,122 L 5,124 M 7,6 L 7,11 M 7,13 L 7,20 M 7,30 L 7,33 M 7,35 L 7,44 M 7,46 L 7,47 M 7,53 L 7,64 M 7,66 L 7,72 M 7,76 L 7,84 M 7,86 L 7,93 M 7,95 L 7,105 M 7,109 L 7,120 M 7,124 L 7,130 M 9,6 L 9,22 M 9,28 L 9,34 M 9,36 L 9,49 M 9,51 L 9,72 M 9,74 L 9,93 M 9,95 L 9,105 M 9,107 L 9,109 M 9,111 L 9,118 M 11,4 L 11,11 M 11,15 L 11,24 M 11,28 L 11,32 M 11,38 L 11,44 M 11,46 L 11,50 M 11,62 L 11,84 M 11,86 L 11,95 M 11,97 L 11,107 M 11,109 L 11,120 M 13,2 L 13,11 M 13,13 L 13,20 M 13,24 L 13,26 M 13,38 L 13,46 M 13,60 L 13,65 M 13,69 L 13,72 M 13,76 L 13,84 M 13,88 L 13,97 M 13,99 L 13,110 M 13,112 L 13,120 M 15,4 L 15,9 M 15,11 L 15,13 M 15,15 L 15,22 M 15,42 L 15,44 M 15,62 L 15,67 M 15,71 L 15,72 M 15,74 L 15,88 M 15,92 L 15,97 M 15,99 L 15,106 M 15,114 L 15,120 M 15,122 L 15,124 M 15,126 L 15,132 M 17,2 L 17,7 M 17,9 L 17,20 M 17,60 L 17,65 M 17,69 L 17,75 M 17,79 L 17,86 M 17,92 L 17,99 M 17,101 L 17,106 M 17,112 L 17,114 M 17,116 L 17,120 M 19,8 L 19,14 M 19,16 L 19,24 M 19,52 L 19,54 M 19,58 L 19,65 M 19,69 L 19,73 M 19,81 L 19,88 M 19,90 L 19,99 M 19,101 L 19,108 M 19,110 L 19,112 M 21,10 L 21,22 M 21,26 L 21,32 M 21,56 L 21,67 M 21,69 L 21,86 M 21,92 L 21,94 M 21,98 L 21,106 M 23,8 L 23,14 M 23,18 L 23,24 M 23,32 L 23,38 M 23,58 L 23,65 M 23,67 L 23,77 M 23,81 L 23,86 M 24,44 L 24,48 M 25,4 L 25,6 M 25,10 L 25,22 M 25,34 L 25,40 M 25,48 L 25,52 M 25,56 L 25,64 M 25,66 L 25,81 M 25,83 L 25,90 M 27,2 L 27,6 M 27,10 L 27,22 M 27,36 L 27,42 M 27,68 L 27,79 M 27,81 L 27,88 M 27,112 L 27,114 M 27,122 L 27,130 M 29,4 L 29,8 M 29,12 L 29,24 M 29,66 L 29,77 M 29,79 L 29,86 M 29,112 L 29,118 M 29,120 L 29,130 M 31,2 L 31,8 M 31,10 L 31,14 M 31,16 L 31,28 M 31,48 L 31,54 M 31,66 L 31,84 M 31,86 L 31,90 M 31,94 L 31,98 M 31,100 L 31,104 M 31,106 L 31,108 M 31,116 L 31,124 M 31,128 L 31,132 M 33,4 L 33,10 M 33,16 L 33,18 M 33,56 L 33,60 M 33,64 L 33,69 M 33,71 L 33,77 M 33,81 L 33,90 M 33,94 L 33,98 M 33,102 L 33,110 M 33,114 L 33,120 M 35,6 L 35,14 M 35,54 L 35,60 M 35,64 L 35,71 M 35,73 L 35,79 M 35,83 L 35,92 M 35,100 L 35,106 M 37,34 L 37,46 M 37,54 L 37,64 M 37,66 L 37,69 M 37,75 L 37,88 M 37,90 L 37,92 M 37,102 L 37,108 M 38,126 L 38,130 M 39,14 L 39,16 M 39,36 L 39,44 M 39,52 L 39,56 M 39,68 L 39,71 M 39,77 L 39,90 M 39,92 L 39,94 M 39,104 L 39,106 M 41,10 L 41,16 M 41,34 L 41,42 M 41,54 L 41,58 M 41,66 L 41,69 M 41,79 L 41,86 M 41,90 L 41,94 M 41,102 L 41,106 M 41,110 L 41,118 M 42,71 L 42,75 M 43,4 L 43,10 M 43,14 L 43,23 M 43,25 L 43,40 M 43,48 L 43,50 M 43,52 L 43,56 M 43,60 L 43,62 M 43,64 L 43,71 M 43,77 L 43,84 M 43,98 L 43,108 M 43,112 L 43,120 M 43,122 L 43,126 M 45,2 L 45,6 M 45,10 L 45,12 M 45,16 L 45,23 M 45,27 L 45,38 M 45,42 L 45,46 M 45,50 L 45,56 M 45,62 L 45,69 M 45,77 L 45,88 M 45,98 L 45,118 M 47,8 L 47,12 M 47,20 L 47,22 M 47,24 L 47,32 M 47,34 L 47,40 M 47,50 L 47,56 M 47,64 L 47,71 M 47,79 L 47,90 M 47,92 L 47,96 M 47,98 L 47,107 M 47,109 L 47,116 M 47,118 L 47,120 M 49,12 L 49,16 M 49,24 L 49,34 M 49,36 L 49,42 M 49,52 L 49,55 M 49,57 L 49,69 M 49,75 L 49,88 M 49,96 L 49,105 M 49,111 L 49,116 M 51,14 L 51,20 M 51,22 L 51,24 M 51,28 L 51,30 M 51,34 L 51,42 M 51,44 L 51,48 M 51,54 L 51,64 M 51,68 L 51,86 M 51,98 L 51,107 M 51,109 L 51,114 M 51,126 L 51,130 M 53,12 L 53,20 M 53,30 L 53,32 M 53,36 L 53,43 M 53,45 L 53,49 M 53,51 L 53,53 M 53,57 L 53,61 M 53,65 L 53,73 M 53,77 L 53,88 M 53,98 L 53,112 M 53,128 L 53,130 M 55,4 L 55,10 M 55,12 L 55,20 M 55,38 L 55,41 M 55,55 L 55,61 M 55,63 L 55,71 M 55,73 L 55,85 M 55,87 L 55,92 M 55,96 L 55,104 M 55,108 L 55,114 M 55,120 L 55,128 M 57,2 L 57,6 M 57,10 L 57,18 M 57,36 L 57,39 M 57,55 L 57,61 M 57,63 L 57,64 M 57,66 L 57,73 M 57,75 L 57,83 M 57,87 L 57,94 M 57,98 L 57,114 M 57,118 L 57,120 M 57,122 L 57,126 M 59,10 L 59,16 M 59,22 L 59,30 M 59,32 L 59,36 M 59,38 L 59,41 M 59,53 L 59,59 M 59,67 L 59,75 M 59,77 L 59,85 M 59,87 L 59,97 M 59,99 L 59,102 M 59,104 L 59,114 M 60,43 L 60,51 M 61,6 L 61,10 M 61,18 L 61,22 M 61,24 L 61,30 M 61,32 L 61,35 M 61,37 L 61,41 M 61,51 L 61,61 M 61,67 L 61,75 M 61,79 L 61,95 M 61,99 L 61,104 M 61,108 L 61,114 M 62,41 L 62,45 M 62,120 L 62,122 M 62,124 L 62,128 M 63,6 L 63,12 M 63,20 L 63,26 M 63,30 L 63,39 M 63,51 L 63,59 M 63,83 L 63,93 M 63,97 L 63,102 M 63,106 L 63,112 M 64,118 L 64,124 M 64,126 L 64,128 M 65,4 L 65,14 M 65,18 L 65,24 M 65,30 L 65,33 M 65,37 L 65,41 M 65,53 L 65,55 M 65,85 L 65,89 M 65,95 L 65,100 M 66,116 L 66,126 M 66,128 L 66,132 M 67,6 L 67,12 M 67,20 L 67,24 M 67,28 L 67,32 M 67,34 L 67,39 M 67,97 L 67,102 M 68,118 L 68,120 M 69,6 L 69,8 M 69,18 L 69,22 M 69,26 L 69,32 M 69,36 L 69,41 M 69,75 L 69,83 M 69,95 L 69,102 M 69,126 L 69,128 M 70,67 L 70,73 M 71,2 L 71,6 M 71,14 L 71,16 M 71,20 L 71,22 M 71,28 L 71,32 M 71,40 L 71,43 M 71,45 L 71,47 M 71,55 L 71,57 M 71,97 L 71,104 M 71,110 L 71,114 M 71,118 L 71,122 M 71,124 L 71,130 M 72,59 L 72,65 M 73,6 L 73,8 M 73,14 L 73,16 M 73,42 L 73,55 M 73,95 L 73,105 M 73,107 L 73,118 M 73,120 L 73,130 M 74,26 L 74,28 M 74,61 L 74,65 M 75,44 L 75,55 M 75,93 L 75,95 M 75,99 L 75,103 M 75,105 L 75,108 M 75,122 L 75,128 M 77,42 L 77,43 M 77,45 L 77,48 M 77,56 L 77,59 M 77,71 L 77,75 M 77,81 L 77,85 M 77,93 L 77,98 M 77,102 L 77,108 M 77,122 L 77,126 M 78,18 L 78,26 M 78,108 L 78,112 M 78,118 L 78,120 M 79,6 L 79,8 M 79,40 L 79,41 M 79,47 L 79,61 M 79,69 L 79,73 M 79,75 L 79,87 M 79,91 L 79,98 M 80,20 L 80,26 M 80,106 L 80,110 M 81,14 L 81,16 M 81,40 L 81,43 M 81,55 L 81,61 M 81,65 L 81,71 M 81,73 L 81,79 M 81,81 L 81,89 M 81,91 L 81,96 M 82,28 L 82,30 M 82,32 L 82,36 M 82,108 L 82,112 M 83,12 L 83,16 M 83,38 L 83,45 M 83,53 L 83,59 M 83,63 L 83,66 M 83,70 L 83,77 M 83,79 L 83,89 M 83,93 L 83,98 M 84,47 L 84,51 M 84,106 L 84,114 M 85,2 L 85,6 M 85,10 L 85,18 M 85,36 L 85,41 M 85,57 L 85,64 M 85,66 L 85,75 M 85,77 L 85,91 M 85,93 L 85,98 M 85,122 L 85,124 M 86,49 L 86,53 M 86,114 L 86,118 M 86,130 L 86,132 M 87,4 L 87,10 M 87,18 L 87,22 M 87,26 L 87,30 M 87,38 L 87,43 M 87,55 L 87,59 M 87,61 L 87,67 M 87,73 L 87,78 M 87,80 L 87,98 M 88,49 L 88,53 M 89,2 L 89,6 M 89,8 L 89,12 M 89,28 L 89,32 M 89,36 L 89,41 M 89,55 L 89,69 M 89,71 L 89,78 M 89,80 L 89,84 M 89,86 L 89,100 M 90,102 L 90,104 M 91,10 L 91,12 M 91,22 L 91,30 M 91,38 L 91,43 M 91,53 L 91,61 M 91,63 L 91,67 M 91,69 L 91,72 M 91,74 L 91,82 M 91,86 L 91,92 M 91,96 L 91,100 M 92,104 L 92,124 M 93,12 L 93,18 M 93,22 L 93,24 M 93,28 L 93,40 M 93,42 L 93,45 M 93,55 L 93,63 M 93,65 L 93,73 M 93,81 L 93,90 M 94,100 L 94,108 M 94,112 L 94,124 M 95,18 L 95,20 M 95,44 L 95,47 M 95,53 L 95,59 M 95,61 L 95,67 M 95,79 L 95,92 M 96,100 L 96,122 M 97,8 L 97,14 M 97,42 L 97,45 M 97,47 L 97,51 M 97,55 L 97,69 M 97,81 L 97,94 M 97,124 L 97,130 M 98,98 L 98,105 M 98,111 L 98,120 M 99,2 L 99,18 M 99,44 L 99,48 M 99,50 L 99,71 M 99,79 L 99,81 M 99,83 L 99,94 M 99,122 L 99,128 M 100,98 L 100,107 M 100,113 L 100,122 M 101,6 L 101,10 M 101,14 L 101,20 M 101,22 L 101,24 M 101,42 L 101,46 M 101,48 L 101,49 M 101,53 L 101,57 M 101,61 L 101,73 M 101,85 L 101,96 M 101,124 L 101,130 M 102,96 L 102,105 M 102,111 L 102,120 M 103,24 L 103,26 M 103,38 L 103,51 M 103,55 L 103,66 M 103,70 L 103,75 M 103,89 L 103,94 M 103,130 L 103,132 M 104,98 L 104,107 M 104,111 L 104,112 M 104,116 L 104,120 M 105,20 L 105,32 M 105,38 L 105,49 M 105,53 L 105,57 M 105,61 L 105,66 M 105,70 L 105,73 M 105,75 L 105,77 M 105,91 L 105,96 M 106,98 L 106,112 M 106,114 L 106,118 M 107,18 L 107,38 M 107,40 L 107,47 M 107,55 L 107,64 M 107,74 L 107,77 M 107,89 L 107,94 M 108,106 L 108,110 M 108,122 L 108,124 M 108,126 L 108,130 M 109,20 L 109,26 M 109,28 L 109,36 M 109,38 L 109,45 M 109,47 L 109,53 M 109,55 L 109,64 M 109,76 L 109,79 M 109,89 L 109,96 M 110,83 L 110,85 M 111,14 L 111,24 M 111,30 L 111,38 M 111,40 L 111,47 M 111,57 L 111,64 M 111,66 L 111,70 M 111,72 L 111,75 M 111,95 L 111,98 M 112,81 L 112,85 M 113,8 L 113,12 M 113,16 L 113,26 M 113,40 L 113,45 M 113,59 L 113,68 M 113,70 L 113,73 M 113,97 L 113,98 M 113,108 L 113,110 M 114,85 L 114,89 M 115,14 L 115,21 M 115,23 L 115,28 M 115,42 L 115,47 M 115,51 L 115,53 M 115,55 L 115,63 M 115,67 L 115,77 M 115,99 L 115,100 M 115,106 L 115,112 M 117,4 L 117,8 M 117,14 L 117,28 M 117,40 L 117,45 M 117,57 L 117,75 M 117,77 L 117,83 M 117,101 L 117,102 M 117,104 L 117,114 M 117,116 L 117,124 M 119,4 L 119,10 M 119,16 L 119,26 M 119,40 L 119,47 M 119,65 L 119,83 M 119,101 L 119,106 M 119,110 L 119,116 M 119,118 L 119,122 M 119,124 L 119,128 M 121,2 L 121,6 M 121,20 L 121,24 M 121,40 L 121,47 M 121,49 L 121,51 M 121,67 L 121,89 M 121,99 L 121,102 M 121,106 L 121,110 M 121,112 L 121,118 M 121,128 L 121,130 M 122,28 L 122,32 M 123,4 L 123,8 M 123,10 L 123,12 M 123,38 L 123,45 M 123,65 L 123,71 M 123,79 L 123,87 M 123,89 L 123,95 M 123,97 L 123,100 M 123,110 L 123,112 M 123,114 L 123,120 M 123,130 L 123,132 M 124,55 L 124,61 M 125,4 L 125,10 M 125,36 L 125,45 M 125,81 L 125,93 M 125,97 L 125,102 M 125,110 L 125,114 M 126,57 L 126,61 M 126,75 L 126,79 M 127,38 L 127,47 M 127,79 L 127,87 M 127,89 L 127,102 M 127,108 L 127,116 M 128,59 L 128,69 M 128,73 L 128,77 M 129,14 L 129,16 M 129,24 L 129,28 M 129,36 L 129,51 M 129,91 L 129,100 M 129,110 L 129,116 M 130,59 L 130,67 M 130,75 L 130,79 M 130,122 L 130,126 M 130,128 L 130,132 M 131,12 L 131,16 M 131,48 L 131,55 M 131,71 L 131,73 M 131,85 L 131,102 M 131,104 L 131,116 M 132,61 L 132,67 M 132,73 L 132,77 M 132,128 L 132,130 M 133,8 L 133,12 M 133,18 L 133,26 M 133,30 L 133,34 M 133,46 L 133,55 M 133,89 L 133,96 M 133,102 L 133,104 M 133,106 L 133,112 M 133,116 L 133,118 M 134,75 L 134,83 M 135,8 L 135,12 M 135,16 L 135,23 M 135,25 L 135,31 M 135,33 L 135,40 M 135,42 L 135,44 M 135,46 L 135,53 M 135,91 L 135,98 M 135,108 L 135,110 M 135,116 L 135,120 M 136,73 L 136,75 M 136,132 L 136,133 M 137,4 L 137,10 M 137,18 L 137,23 M 137,27 L 137,36 M 137,38 L 137,51 M 137,89 L 137,96 M 137,104 L 137,108 M 137,110 L 137,112 M 137,114 L 137,116 M 138,85 L 138,87 M 138,130 L 138,133 M 139,2 L 139,10 M 139,20 L 139,28 M 139,30 L 139,36 M 139,40 L 139,49 M 139,61 L 139,67 M 139,89 L 139,100 M 139,106 L 139,110 M 139,114 L 139,118 M 140,120 L 140,124 M 141,4 L 141,12 M 141,14 L 141,18 M 141,20 L 141,26 M 141,38 L 141,47 M 141,59 L 141,67 M 141,71 L 141,73 M 141,87 L 141,98 M 141,104 L 141,106 M 141,116 L 141,120 M 143,2 L 143,6 M 143,12 L 143,18 M 143,22 L 143,24 M 143,26 L 143,32 M 143,36 L 143,44 M 143,48 L 143,53 M 143,57 L 143,73 M 143,89 L 143,98 M 143,102 L 143,104 M 143,112 L 143,118 M 144,126 L 144,128 M 145,4 L 145,8 M 145,24 L 145,32 M 145,50 L 145,61 M 145,65 L 145,75 M 145,79 L 145,85 M 145,87 L 145,96 M 145,110 L 145,116 M 147,2 L 147,10 M 147,16 L 147,20 M 147,24 L 147,28 M 147,54 L 147,59 M 147,61 L 147,80 M 147,84 L 147,89 M 147,91 L 147,98 M 147,106 L 147,110 M 147,118 L 147,122 M 149,4 L 149,6 M 149,8 L 149,12 M 149,58 L 149,60 M 149,64 L 149,68 M 149,86 L 149,100 M 149,102 L 149,112 M 149,116 L 149,122 M 151,32 L 151,36 M 151,66 L 151,70 M 151,78 L 151,84 M 151,88 L 151,100 M 151,106 L 151,108 M 151,114 L 151,120 M 152,124 L 152,126 M 153,14 L 153,18 M 153,20 L 153,30 M 153,32 L 153,38 M 153,40 L 153,42 M 153,64 L 153,72 M 153,78 L 153,82 M 153,84 L 153,90 M 153,94 L 153,102 M 153,116 L 153,120 M 154,48 L 154,52 M 154,126 L 154,132 M 155,6 L 155,10 M 155,12 L 155,14 M 155,18 L 155,28 M 155,40 L 155,42 M 155,66 L 155,74 M 155,80 L 155,90 M 155,92 L 155,106 M 155,118 L 155,122 M 156,46 L 156,50 M 156,52 L 156,58 M 156,126 L 156,128 M 157,4 L 157,12 M 157,18 L 157,22 M 157,24 L 157,32 M 157,66 L 157,70 M 157,76 L 157,86 M 157,90 L 157,100 M 157,104 L 157,112 M 157,118 L 157,124 M 158,44 L 158,52 M 159,6 L 159,14 M 159,16 L 159,20 M 159,66 L 159,68 M 159,88 L 159,110 M 159,118 L 159,122 M 160,46 L 160,54 M 160,64 L 160,66 M 161,14 L 161,20 M 161,36 L 161,40 M 161,68 L 161,70 M 161,90 L 161,98 M 161,100 L 161,108 M 161,114 L 161,120 M 162,46 L 162,52 M 163,16 L 163,20 M 163,32 L 163,37 M 163,39 L 163,44 M 163,56 L 163,60 M 163,68 L 163,70 M 163,88 L 163,96 M 163,100 L 163,106 M 163,108 L 163,110 M 163,112 L 163,114 M 163,118 L 163,122 M 164,48 L 164,54 M 164,128 L 164,130 M 165,2 L 165,6 M 165,18 L 165,20 M 165,34 L 165,39 M 165,41 L 165,46 M 165,64 L 165,68 M 165,70 L 165,74 M 165,86 L 165,94 M 165,100 L 165,114 M 165,116 L 165,122 M 166,48 L 166,56 M 167,6 L 167,8 M 167,16 L 167,18 M 167,22 L 167,24 M 167,26 L 167,30 M 167,32 L 167,36 M 167,38 L 167,44 M 167,58 L 167,66 M 167,68 L 167,74 M 167,80 L 167,84 M 167,88 L 167,100 M 167,116 L 167,122 M 168,50 L 168,54 M 169,6 L 169,8 M 169,10 L 169,16 M 169,22 L 169,24 M 169,28 L 169,34 M 169,60 L 169,68 M 169,70 L 169,76 M 169,78 L 169,80 M 169,84 L 169,86 M 169,88 L 169,94 M 169,98 L 169,100 M 169,116 L 169,124 M 171,8 L 171,10 M 171,14 L 171,18 M 171,20 L 171,22 M 171,26 L 171,32 M 171,70 L 171,74 M 171,86 L 171,98 M 171,100 L 171,104 M 171,118 L 171,122 M 173,12 L 173,16 M 173,18 L 173,20 M 173,24 L 173,26 M 173,68 L 173,72 M 173,88 L 173,94 M 173,98 L 173,100 M 173,114 L 173,118 M 175,14 L 175,18 M 175,22 L 175,28 M 175,36 L 175,38 M 175,40 L 175,42 M 175,66 L 175,74 M 175,92 L 175,96 M 175,100 L 175,102 M 175,108 L 175,112 M 177,10 L 177,16 M 177,24 L 177,26 M 177,38 L 177,48 M 177,56 L 177,58 M 177,60 L 177,64 M 177,66 L 177,76 M 177,78 L 177,80 M 177,98 L 177,114 M 177,122 L 177,128 M 178,84 L 178,86 M 179,4 L 179,10 M 179,34 L 179,36 M 179,38 L 179,42 M 179,54 L 179,58 M 179,62 L 179,70 M 179,72 L 179,74 M 179,100 L 179,112 M 179,130 L 179,132 M 180,80 L 180,83 M 180,85 L 180,86 M 180,88 L 180,90 M 181,2 L 181,8 M 181,28 L 181,38 M 181,40 L 181,44 M 181,48 L 181,52 M 181,56 L 181,60 M 181,64 L 181,68 M 181,94 L 181,98 M 181,102 L 181,108 M 181,110 L 181,118 M 183,14 L 183,18 M 183,20 L 183,24 M 183,26 L 183,28 M 183,30 L 183,42 M 183,46 L 183,52 M 183,54 L 183,58 M 183,92 L 183,94 M 183,108 L 183,114 M 184,76 L 184,78 M 184,122 L 184,124 M 185,16 L 185,26 M 185,28 L 185,36 M 185,38 L 185,50 M 185,56 L 185,60 M 185,86 L 185,88 M 185,90 L 185,96 M 185,110 L 185,114 M 186,124 L 186,128 M 187,16 L 187,26 M 187,28 L 187,38 M 187,40 L 187,50 M 187,52 L 187,58 M 187,88 L 187,96 M 187,102 L 187,116 M 189,1 L 189,2 M 189,4 L 189,6 M 189,8 L 189,10 M 189,14 L 189,24 M 189,26 L 189,35 M 189,41 L 189,64 M 189,68 L 189,72 M 189,92 L 189,100 M 189,104 L 189,118 M 191,1 L 191,2 M 191,4 L 191,6 M 191,8 L 191,24 M 191,28 L 191,37 M 191,41 L 191,49 M 191,51 L 191,60 M 191,78 L 191,80 M 191,90 L 191,98 M 191,104 L 191,109 M 191,111 L 191,120 M 193,10 L 193,16 M 193,20 L 193,32 M 193,34 L 193,47 M 193,49 L 193,58 M 193,80 L 193,82 M 193,88 L 193,96 M 193,100 L 193,107 M 193,109 L 193,118 M 193,128 L 193,130 M 195,8 L 195,14 M 195,18 L 195,24 M 195,26 L 195,30 M 195,36 L 195,40 M 195,42 L 195,47 M 195,49 L 195,56 M 195,64 L 195,68 M 195,84 L 195,96 M 195,100 L 195,108 M 195,112 L 195,118 M 195,124 L 195,126 M 195,128 L 195,132 M 197,10 L 197,18 M 197,20 L 197,26 M 197,28 L 197,32 M 197,40 L 197,45 M 197,51 L 197,58 M 197,62 L 197,66 M 197,70 L 197,76 M 197,82 L 197,92 M 197,94 L 197,98 M 197,100 L 197,108 M 197,116 L 197,122 M 197,126 L 197,130 M 199,2 L 199,6 M 199,18 L 199,32 M 199,44 L 199,47 M 199,49 L 199,60 M 199,64 L 199,66 M 199,68 L 199,74 M 199,82 L 199,85 M 199,87 L 199,106 M 199,118 L 199,124 M 201,4 L 201,6 M 201,8 L 201,10 M 201,18 L 201,26 M 201,28 L 201,32 M 201,42 L 201,45 M 201,47 L 201,58 M 201,66 L 201,68 M 201,70 L 201,74 M 201,84 L 201,89 M 201,91 L 201,98 M 201,102 L 201,106 M 201,108 L 201,110 M 201,120 L 201,122 M 203,6 L 203,10 M 203,12 L 203,18 M 203,20 L 203,26 M 203,42 L 203,60 M 203,64 L 203,66 M 203,68 L 203,72 M 203,86 L 203,89 M 203,93 L 203,100 M 203,104 L 203,108 M 203,110 L 203,114 M 205,4 L 205,8 M 205,14 L 205,16 M 205,18 L 205,28 M 205,40 L 205,52 M 205,56 L 205,62 M 205,70 L 205,74 M 205,76 L 205,80 M 205,84 L 205,98 M 205,102 L 205,106 M 205,116 L 205,118 M 207,4 L 207,10 M 207,16 L 207,21 M 207,25 L 207,44 M 207,46 L 207,54 M 207,56 L 207,64 M 207,70 L 207,80 M 207,86 L 207,95 M 207,99 L 207,102 M 207,112 L 207,116 M 209,2 L 209,8 M 209,18 L 209,26 M 209,30 L 209,36 M 209,44 L 209,54 M 209,64 L 209,72 M 209,82 L 209,84 M 209,86 L 209,95 M 209,97 L 209,104 M 209,114 L 209,116 M 211,4 L 211,10 M 211,12 L 211,14 M 211,16 L 211,26 M 211,28 L 211,34 M 211,66 L 211,70 M 211,84 L 211,94 M 211,96 L 211,102 M 211,120 L 211,128 M 213,2 L 213,8 M 213,10 L 213,12 M 213,16 L 213,26 M 213,30 L 213,40 M 213,64 L 213,68 M 213,80 L 213,82 M 213,84 L 213,96 M 213,98 L 213,100 M 213,122 L 213,130 M 215,4 L 215,10 M 215,18 L 215,34 M 215,50 L 215,56 M 215,60 L 215,62 M 215,64 L 215,74 M 215,82 L 215,100 M 215,102 L 215,114 M 217,4 L 217,8 M 217,16 L 217,26 M 217,28 L 217,34 M 217,48 L 217,52 M 217,58 L 217,64 M 217,70 L 217,78 M 217,80 L 217,96 M 217,98 L 217,110 M 219,2 L 219,6 M 219,22 L 219,28 M 219,30 L 219,32 M 219,34 L 219,38 M 219,40 L 219,42 M 219,44 L 219,50 M 219,58 L 219,60 M 219,76 L 219,78 M 219,80 L 219,86 M 219,88 L 219,95 M 219,97 L 219,102 M 219,122 L 219,126 M 221,4 L 221,8 M 221,26 L 221,30 M 221,50 L 221,54 M 221,56 L 221,58 M 221,82 L 221,95 M 221,97 L 221,102 M 221,116 L 221,128 M 223,2 L 223,4 M 223,6 L 223,10 M 223,28 L 223,32 M 223,56 L 223,60 M 223,66 L 223,72 M 223,76 L 223,93 M 223,95 L 223,112 M 223,114 L 223,116 M 223,118 L 223,130 M 225,4 L 225,8 M 225,14 L 225,20 M 225,26 L 225,34 M 225,54 L 225,58 M 225,64 L 225,68 M 225,70 L 225,84 M 225,88 L 225,102 M 225,110 L 225,114 M 225,118 L 225,132 M 227,2 L 227,4 M 227,14 L 227,22 M 227,24 L 227,32 M 227,50 L 227,60 M 227,62 L 227,74 M 227,78 L 227,104 M 227,108 L 227,130 M 229,4 L 229,24 M 229,26 L 229,30 M 229,40 L 229,42 M 229,44 L 229,48 M 229,50 L 229,60 M 229,64 L 229,74 M 229,80 L 229,90 M 229,98 L 229,100 M 229,102 L 229,104 M 229,108 L 229,110 M 229,112 L 229,118 M 229,122 L 229,128 M 231,2 L 231,10 M 231,14 L 231,22 M 231,28 L 231,34 M 231,36 L 231,44 M 231,50 L 231,52 M 231,54 L 231,58 M 231,64 L 231,72 M 231,82 L 231,84 M 231,86 L 231,92 M 231,100 L 231,102 M 231,104 L 231,108 M 231,110 L 231,116 M 231,120 L 231,124 M 231,126 L 231,130 M 233,4 L 233,12 M 233,16 L 233,24 M 233,28 L 233,32 M 233,38 L 233,48 M 233,66 L 233,78 M 233,80 L 233,84 M 233,86 L 233,92 M 233,94 L 233,100 M 233,102 L 233,108 M 233,112 L 233,118 M 233,122 L 233,124 M 233,128 L 233,132 M 235,2 L 235,10 M 235,18 L 235,22 M 235,30 L 235,34 M 235,36 L 235,48 M 235,64 L 235,68 M 235,70 L 235,72 M 235,76 L 235,82 M 235,84 L 235,90 M 235,94 L 235,98 M 235,100 L 235,104 M 235,106 L 235,116 M 235,118 L 235,122 M 235,124 L 235,130 M 237,4 L 237,12 M 237,32 L 237,46 M 237,62 L 237,66 M 237,78 L 237,88 M 237,100 L 237,102 M 237,104 L 237,110 M 237,114 L 237,126 M 237,128 L 237,132 M 239,2 L 239,14 M 239,22 L 239,26 M 239,30 L 239,38 M 239,42 L 239,48 M 239,50 L 239,56 M 239,58 L 239,62 M 239,64 L 239,68 M 239,80 L 239,82 M 239,84 L 239,90 M 239,92 L 239,96 M 239,102 L 239,108 M 239,114 L 239,116 M 239,118 L 239,128 M 241,4 L 241,12 M 241,14 L 241,24 M 241,30 L 241,38 M 241,42 L 241,48 M 241,52 L 241,68 M 241,82 L 241,88 M 241,92 L 241,98 M 241,102 L 241,110 M 241,112 L 241,114 M 241,118 L 241,130 M 243,2 L 243,73 M 243,75 L 243,132"
         id="path3258"
         style="stroke:#000000;stroke-width:0.98515624;stroke-linecap:square;stroke-miterlimit:4;stroke-dasharray:none;stroke-opacity:1" />
    </g>
  </g>
  <text
     xml:space="preserve"
     style="font-style:normal;font-weight:normal;font-size:40px;line-height:125%;font-family:sans-serif;letter-spacing:0px;word-spacing:0px;fill:#000000;fill-opacity:1;stroke:none;stroke-width:1px;stroke-linecap:butt;stroke-linejoin:miter;stroke-opacity:1;filter:url(#filter4411)"
     x="387.13004"
     y="175.24445"
     id="text4171"
     sodipodi:linespacing="125%"><tspan
       sodipodi:role="line"
       x="387.13004"
       y="175.24445"
       id="tspan4175"
       style="font-style:normal;font-variant:normal;font-weight:normal;font-stretch:normal;font-size:80px;font-family:'never ending maze';-inkscape-font-specification:'never ending maze';fill:#d45500;fill-opacity:1;stroke:none">Maze</tspan></text>
  <text
     xml:space="preserve"
     style="font-style:normal;font-weight:normal;font-size:40px;line-height:125%;font-family:sans-serif;letter-spacing:0px;word-spacing:0px;fill:#000000;fill-opacity:1;stroke:none;stroke-width:1px;stroke-linecap:butt;stroke-linejoin:miter;stroke-opacity:1;filter:url(#filter4423)"
     x="612.69708"
     y="275.07129"
     id="text4179"
     sodipodi:linespacing="125%"><tspan
       sodipodi:role="line"
       id="tspan4181"
       x="612.69708"
       y="275.07129"
       style="font-style:normal;font-variant:normal;font-weight:normal;font-stretch:normal;font-size:70px;font-family:'never ending maze';-inkscape-font-specification:'never ending maze';fill:#d45500">Amaze</tspan></text>
  <g
     transform="matrix(0.57810543,0,0,0.57810373,333.79573,-39.119113)"
     id="layer1-5"
     inkscape:label="Capa 1">
    <circle
       r="13.999958"
       id="path3377"
       style="fill:url(#linearGradient4277);stroke-width:4"
       cy="531.79016"
       cx="400.57138" />
    <path
       transform="translate(384.57143,515.798)"
       d="m 17,7 0,9 6,6 0,1 5.103516,0 a 13.999958,13.999958 0 0 0 1.755859,-5.140625 L 19,7 17,7 Z"
       id="path4239"
       style="opacity:0.2;fill:url(#linearGradient4258);fill-rule:evenodd"
       inkscape:connector-curvature="0" />
    <path
       d="m 393.57144,537.798 0,1 14.00003,0 0,-1 -5.00004,-8 0,-6 1,0 0,-1 -6,0 0,0.99973 1,0 0,6.00027 z"
       id="path4241"
       style="fill:url(#linearGradient4558);fill-rule:evenodd"
       inkscape:connector-curvature="0" />
    <rect
       height="2"
       width="28"
       y="538.79022"
       x="386.57144"
       style="color:#000000;color-interpolation:sRGB;color-interpolation-filters:linearRGB;fill:url(#linearGradient4283);color-rendering:auto;image-rendering:auto;shape-rendering:auto;text-rendering:auto"
       id="rect4169" />
    <path
       d="m 389.85269,540.75893 21.40419,0.0156 c 0,0 -3.62157,4.98286 -10.68545,5.01559 -7.23437,-0.3125 -10.71874,-5.03125 -10.71874,-5.03125 z"
       id="path4171"
       style="fill:url(#linearGradient4179);fill-rule:evenodd"
       inkscape:connector-curvature="0" />
    <path
       transform="translate(384.57143,515.798)"
       d="m 14,16 -3.7,6 5.7,0 5.7,0 -3.7,-6 -2,0 z"
       id="path4243"
       style="fill:url(#linearGradient4615);fill-rule:evenodd"
       inkscape:connector-curvature="0" />
  </g>
  <rect
     style="fill:url(#linearGradient4550);fill-opacity:1;stroke:none;stroke-width:0.89999998;stroke-miterlimit:4;stroke-dasharray:none;filter:url(#filter4596)"
     id="rect4542"
     width="1031.0106"
     height="50.59586"
     x="0.95463943"
     y="513.82184"
     rx="0" />
  <g
     transform="matrix(0.383495,0,0,0.383495,44.579306,193.24267)"
     id="layer1-3">
    <g
       transform="translate(104.31,728.61)"
       id="g3790">
      <path
         d="m 56.569,138.78 c 0,0 -148.93,-140.31 -76.995,-232.93 71.939,-92.62 -149.28,-168.71 -149.28,-168.71 0,0 194.46,77.906 117.14,172.36 -77.32,94.463 106.31,277.36 106.31,277.36 z"
         id="path3768"
         inkscape:connector-curvature="0"
         style="fill:#8c8c8c;stroke:#1a1a1a;stroke-width:8;stroke-linecap:square" />
      <path
         transform="translate(0,527.95)"
         d="m 438.41,-293.01 0,-339.41 299.81,0 -237.59,-251.73 183.76,-180.76 c -52.907,-58.657 -95.606,-125.56 -215.04,-130.48 l -121.46,185.37 -243.24,-173.95 c -91.254,57.412 -137.68,139.73 -161.22,234.76 l 282.84,42.47 C 68.91,-710.83 57.09,-496.25 39.6,-292.98 Z"
         id="path3766"
         inkscape:connector-curvature="0"
         style="fill:#8c8c8c;stroke:#1a1a1a;stroke-width:8;stroke-linecap:square" />
      <path
         transform="translate(0,527.95)"
         d="m 581.24,-632.42 156.98,0 -85.116,-90.182 z"
         id="path3770"
         inkscape:connector-curvature="0"
         style="fill:#1a1a1a;stroke:#1a1a1a;stroke-width:8;stroke-linecap:square" />
      <path
         d="m 681.21,-110.95 17.825,-0.71646 12.251,-12.183 -8.9833,-11.283 z"
         id="path3772"
         inkscape:connector-curvature="0"
         style="fill:#535353" />
      <path
         d="m 690.08,-136.08 -18.511,23.894 -16.362,0.9399 26.036,-34.215 z"
         id="path3774"
         inkscape:connector-curvature="0"
         style="fill:#535353" />
      <path
         d="m 380.42,-841.72 a 22.6275,36.612809 0 1 1 -45.255,0 22.6275,36.612809 0 1 1 45.255,0 z"
         transform="translate(0,527.95)"
         id="path3776"
         inkscape:connector-curvature="0" />
      <path
         d="m 380.42,-841.72 a 22.6275,36.612809 0 1 1 -45.255,0 22.6275,36.612809 0 1 1 45.255,0 z"
         transform="translate(77.782,530.78)"
         id="path3778"
         inkscape:connector-curvature="0" />
      <path
         d="m 107.48,-1127.4 c -45.199,31.122 -83.736,80.937 -103.24,143.32 l 224.86,39.598 56.569,-65.539 z"
         transform="translate(0,527.95)"
         id="path3780"
         inkscape:connector-curvature="0"
         style="fill:#535353" />
      <path
         d="m 383.25,-1002.9 100.46,-145.95 c 68.756,19.136 110.25,57.628 141.12,98.296 l -151.07,128.26 z"
         transform="translate(0,527.95)"
         id="path3782"
         inkscape:connector-curvature="0"
         style="fill:#535353" />
      <path
         transform="translate(0,527.95)"
         d="M 439.82,-631.71 C 399.29,-642.4 359.25,-649.5 313.25,-700.3"
         id="path3784"
         inkscape:connector-curvature="0"
         style="fill:none;stroke:#1a1a1a;stroke-width:8" />
      <path
         d="m 329.46,-192.9 c -7.5267,16.282 -16.132,31.27 -36.77,31.82"
         id="path3788"
         inkscape:connector-curvature="0"
         style="fill:none;stroke:#1a1a1a;stroke-width:8;stroke-linecap:square" />
    </g>
  </g>
</svg>
