<?xml version="1.0" encoding="UTF-8" standalone="no"?>
<svg
   xmlns:dc="http://purl.org/dc/elements/1.1/"
   xmlns:cc="http://creativecommons.org/ns#"
   xmlns:rdf="http://www.w3.org/1999/02/22-rdf-syntax-ns#"
   xmlns:svg="http://www.w3.org/2000/svg"
   xmlns="http://www.w3.org/2000/svg"
   xmlns:sodipodi="http://sodipodi.sourceforge.net/DTD/sodipodi-0.dtd"
   xmlns:inkscape="http://www.inkscape.org/namespaces/inkscape"
   viewBox="0 0 24 24"
   version="1.1"
   id="svg6"
   sodipodi:docname="stop.svg"
   width="24"
   height="24"
   inkscape:version="0.92.4 (5da689c313, 2019-01-14)">
  <metadata
     id="metadata10">
    <rdf:RDF>
      <cc:Work
         rdf:about="">
        <dc:format>image/svg+xml</dc:format>
        <dc:type
           rdf:resource="http://purl.org/dc/dcmitype/StillImage" />
        <dc:title />
      </cc:Work>
    </rdf:RDF>
  </metadata>
  <sodipodi:namedview
     pagecolor="#ffffff"
     bordercolor="#666666"
     borderopacity="1"
     objecttolerance="10"
     gridtolerance="10"
     guidetolerance="10"
     inkscape:pageopacity="0"
     inkscape:pageshadow="2"
     inkscape:window-width="1920"
     inkscape:window-height="1021"
     id="namedview8"
     showgrid="true"
     inkscape:zoom="20.85965"
     inkscape:cx="10.822376"
     inkscape:cy="11.654203"
     inkscape:window-x="0"
     inkscape:window-y="0"
     inkscape:window-maximized="1"
     inkscape:current-layer="g836">
    <inkscape:grid
       type="xygrid"
       id="grid828" />
  </sodipodi:namedview>
  <defs
     id="defs3051">
    <style
       type="text/css"
       id="current-color-scheme">
      .ColorScheme-Text {
        color:#4d4d4d;
      }
      .ColorScheme-NegativeText {
        color:#da4453;
      }
      </style>
    <style
       id="current-color-scheme-6"
       type="text/css">
      .ColorScheme-Text {
        color:#232629;
      }
      .ColorScheme-NegativeText {
        color:#da4453;
      }
      </style>
  </defs>
  <g
     id="g832">
    <g
       id="g836"
       transform="translate(-0.0245825,-0.02458365)">
      <path
         inkscape:connector-curvature="0"
         style="color:#4d4d4d;fill:#da4453;fill-opacity:1;stroke-width:1.48956656"
         class="ColorScheme-Text"
         d="M 9.6971354,6.0663176 6.0663166,9.6971362 V 14.352031 L 9.6971354,17.98285 H 14.35203 l 3.630818,-3.630819 V 9.6971362 L 14.35203,6.0663176 Z"
         id="path5"
         sodipodi:nodetypes="ccccccccc" />
      <path
         id="path818"
         d="M 12.024583,1.0000003 C 9.7369426,1.0033304 7.5069932,1.7182192 5.6438191,3.0455787 l 1.3206533,1.3206532 c 1.5005108,-0.9943138 3.2600596,-1.5259227 5.0601106,-1.528801 5.073923,10e-7 9.187151,4.1132287 9.187151,9.1871521 -0.0029,1.800051 -0.534486,3.5596 -1.528799,5.060111 L 21,18.401759 c 1.32793,-1.86175 2.044048,-4.090371 2.049165,-6.377176 C 23.04918,5.9358788 18.113302,1.0000009 12.024583,1.0000003 Z M 3.049165,5.6474079 C 1.7212352,7.5091577 1.0051169,9.7377785 1,12.024583 c -1.546e-5,6.088705 4.935863,11.024584 11.024583,11.024584 2.28764,-0.0033 4.517589,-0.718218 6.380763,-2.045577 l -1.320653,-1.320653 c -1.500511,0.994313 -3.260059,1.525921 -5.06011,1.528799 -5.0739243,0 -9.1871525,-4.113229 -9.1871524,-9.187153 0.00288,-1.800051 0.5344859,-3.5595998 1.5287992,-5.0601109 z"
         class="ColorScheme-NegativeText"
         style="color:#da4453;fill:currentColor;fill-opacity:1;stroke:none;stroke-width:1.8374306"
         inkscape:connector-curvature="0"
         sodipodi:nodetypes="cccccccccccccccccc" />
    </g>
  </g>
</svg>
