<?xml version="1.0" encoding="UTF-8"?>
<svg width="64" height="64" version="1.1" xml:space="preserve" xmlns="http://www.w3.org/2000/svg" xmlns:cc="http://creativecommons.org/ns#" xmlns:dc="http://purl.org/dc/elements/1.1/" xmlns:rdf="http://www.w3.org/1999/02/22-rdf-syntax-ns#" xmlns:xlink="http://www.w3.org/1999/xlink"><metadata><rdf:RDF><cc:Work rdf:about=""><dc:format>image/svg+xml</dc:format><dc:type rdf:resource="http://purl.org/dc/dcmitype/StillImage"/><cc:license rdf:resource=""/></cc:Work></rdf:RDF></metadata><defs><linearGradient id="c-2" x2="0" y1="537.8" y2="508.8" gradientTransform="translate(-344.57,-499.8)" gradientUnits="userSpaceOnUse"><stop stop-color="#026ddc" offset="0"/><stop stop-color="#28b0fd" offset="1"/></linearGradient><linearGradient id="a-5" x1="24" x2="24" y1="292.94" y2="256.26" gradientTransform="matrix(1 0 0 .97711 -65.382 -210.16)" gradientUnits="userSpaceOnUse"><stop stop-color="#2c3e50" offset="0"/><stop stop-color="#34495e" offset="1"/></linearGradient><linearGradient id="linearGradient25108" x1=".090414" x2="4.2266" y1="-11.02" y2="-22.415" gradientUnits="userSpaceOnUse" xlink:href="#c-2"/><linearGradient id="linearGradient25110" x1="15.317" x2="12.528" y1="-26.739" y2="-31.51" gradientTransform="translate(0 -.71037)" gradientUnits="userSpaceOnUse" xlink:href="#c-2"/><linearGradient id="linearGradient25112" x1="-3.0275" x2="-4.0696" y1="-11.497" y2="-18.157" gradientTransform="translate(0 .71037)" gradientUnits="userSpaceOnUse" xlink:href="#c-2"/></defs><g transform="translate(.53648 -.6065)"><g transform="matrix(2.8814 0 0 2.8814 -74.397 -6.9792)"><g transform="matrix(.37042 0 0 .37042 49.94 -8.4875)"><g stroke-width="1.0005"><rect x="-61.382" y="37.073" width="40" height="40" rx="5.9944" ry="6" fill="#757e8a"/><rect x="-61.382" y="37.073" width="40" height="39" rx="5.9944" ry="6" fill="url(#a-5)"/></g></g><g transform="translate(.13659 -.16599)"><g transform="matrix(.27108 0 0 .27054 25.606 3.7343)" fill="#eee3ff" opacity=".56" stroke-width="1.8823"><path d="m9.3239 19.891v-8.0841c0-0.70618 0.63163-1.2765 1.4161-1.2765h43.952c0.78309 0 1.4155 0.57031 1.4155 1.2765v8.0847c0 0.70743-0.63242 1.277-1.4155 1.277h-43.953c-0.78448 0-1.4161-0.56959-1.4161-1.277z" opacity=".28"/><path d="m38.022 21.117v33.417c0 0.78467-0.56916 1.4184-1.2739 1.4184h-8.0684c-0.70601 0-1.2745-0.63369-1.2745-1.4184v-33.399c3.2163 0.01884 10.617-0.01814 10.617-0.01814z" opacity=".28"/></g><g transform="matrix(-.45212 0 0 -.45212 36.59 3.1092)"><path class="ColorScheme-Text" d="m14.47-31.835h-13.708s-3.9166 0.68359-3.9166 5.5794 3.9166 4.8958 3.9166 4.8958h7.8332s3.9166 0 3.9166 4.8958-3.9166 5.5137-3.9166 5.5137l-13.708-0.07117" color="#444444" fill="none" stroke="url(#linearGradient25108)" stroke-width="2.9345"/><circle class="ColorScheme-Text" cx="12.512" cy="-31.862" r="3.525" color="#444444" fill="url(#linearGradient25110)" stroke-width="1.175"/><circle class="ColorScheme-Text" cx="-3.1547" cy="-10.858" r="3.525" color="#444444" fill="url(#linearGradient25112)" stroke-width="1.175"/></g></g></g><g transform="translate(.33017 -1.4651)"><g transform="translate(2.1835,2.0795)"><g transform="translate(-.30823 1.109)"><g transform="translate(.1248 1.053)"><g transform="translate(-35.801,-5.6123)"><rect x="58.802" y="25.782" width="32.28" height="32.725" fill="#eff0f1" stroke-dasharray="1.512, 1.512" stroke-linejoin="bevel" stroke-width="1.512"/><path d="m57.069 24.571v35.344h35.344v-35.344zm2.9453 2.9453h29.453v29.453h-29.453zm2.9453 5.8906v5.8906h5.8906v-5.8906zm17.672 0v5.8906h5.8906v-5.8906zm-11.781 11.781v2.9453h11.781v-2.9453zm11.781 2.9453v2.9453h2.9453v-2.9453zm2.9453 2.9453v2.9453h2.9453v-2.9453zm-14.727-2.9453h-2.9453v2.9453h2.9453zm-2.9453 2.9453h-2.9453v2.9453h2.9453z" fill="#eb0a42" stroke-width="2.9453"/></g></g></g></g></g></g></svg>
