<?xml version="1.0" encoding="UTF-8"?>
<svg width="64" height="64" version="1.1" xml:space="preserve" xmlns="http://www.w3.org/2000/svg" xmlns:xlink="http://www.w3.org/1999/xlink"><defs><linearGradient id="linearGradient2070" x1=".090414" x2="4.2266" y1="-11.02" y2="-22.415" gradientUnits="userSpaceOnUse" xlink:href="#c-2"/><linearGradient id="c-2" x2="0" y1="537.8" y2="508.8" gradientTransform="translate(-344.57 -499.8)" gradientUnits="userSpaceOnUse"><stop stop-color="#026ddc" offset="0"/><stop stop-color="#28b0fd" offset="1"/></linearGradient><linearGradient id="linearGradient1239" x1="15.317" x2="12.528" y1="-26.739" y2="-31.51" gradientTransform="translate(.70225 -.71037)" gradientUnits="userSpaceOnUse" xlink:href="#c-2"/><linearGradient id="linearGradient1231" x1="-3.0275" x2="-4.0696" y1="-11.497" y2="-18.157" gradientTransform="translate(-.70225 .71037)" gradientUnits="userSpaceOnUse" xlink:href="#c-2"/><linearGradient id="a" x1="24" x2="24" y1="5" y2="44" gradientTransform="matrix(1.3834 0 0 1.3834 68.382 -6.0514)" gradientUnits="userSpaceOnUse"><stop stop-color="#34495e" offset="0"/><stop stop-color="#182147" offset="1"/></linearGradient></defs><g transform="matrix(1.012 0 0 1.012 -70.804 4.5241)" stroke-width="1.3834"><path d="m73.916 5.0156c0-3.0561 2.4774-5.5335 5.5335-5.5335h44.268c3.056 0 5.5335 2.4774 5.5335 5.5335v44.268c0 3.056-2.4775 5.5335-5.5335 5.5335h-44.268c-3.0561 0-5.5335-2.4775-5.5335-5.5335z" fill="url(#a)"/><path d="m73.916 47.9v1.3834c0 3.056 2.4774 5.5335 5.5335 5.5335h44.268c3.056 0 5.5335-2.4775 5.5335-5.5335v-1.3834c0 3.056-2.4775 5.5335-5.5335 5.5335h-44.268c-3.0561 0-5.5335-2.4775-5.5335-5.5335z" fill="#17375a"/><path d="m73.916 6.399v-1.3834c0-3.0561 2.4774-5.5335 5.5335-5.5335h44.268c3.056 0 5.5335 2.4774 5.5335 5.5335v1.3834c0-3.0561-2.4775-5.5335-5.5335-5.5335h-44.268c-3.0561 0-5.5335 2.4774-5.5335 5.5335z" fill="#43566d"/></g><g transform="matrix(3.7795 0 0 3.7795 -182.1 -6.2583)"><g transform="translate(22.173 -2.6439)"><g transform="matrix(.27108 0 0 .27054 25.606 3.8401)" fill="#eee3ff" opacity=".56" stroke-width="1.8823"><path d="m9.3239 19.891v-8.0841c0-0.70618 0.63163-1.2765 1.4161-1.2765h43.952c0.78309 0 1.4155 0.57031 1.4155 1.2765v8.0847c0 0.70743-0.63242 1.277-1.4155 1.277h-43.953c-0.78448 0-1.4161-0.56959-1.4161-1.277z" opacity=".28"/><path d="m38.022 21.117v33.417c0 0.78467-0.56916 1.4184-1.2739 1.4184h-8.0684c-0.70601 0-1.2745-0.63369-1.2745-1.4184v-33.399c3.2163 0.01884 10.617-0.01814 10.617-0.01814z" opacity=".28"/></g><g transform="matrix(-.45212 0 0 -.45212 36.59 3.215)"><path class="ColorScheme-Text" d="m14.47-31.835h-13.708s-3.9166 0.68359-3.9166 5.5794 3.9166 4.8958 3.9166 4.8958h7.8332s3.9166 0 3.9166 4.8958-3.9166 5.5137-3.9166 5.5137l-13.708-0.07117" color="#444444" fill="none" stroke="url(#linearGradient2070)" stroke-width="2.9345"/><circle class="ColorScheme-Text" cx="13.214" cy="-31.862" r="3.525" color="#444444" fill="url(#linearGradient1239)" stroke-width="1.175"/><circle class="ColorScheme-Text" cx="-3.857" cy="-10.858" r="3.525" color="#444444" fill="url(#linearGradient1231)" stroke-width="1.175"/></g></g></g></svg>
