<?xml version="1.0" encoding="UTF-8"?>
<svg width="64" height="64" version="1.1" viewBox="0 0 64 64" xml:space="preserve" xmlns="http://www.w3.org/2000/svg" xmlns:cc="http://creativecommons.org/ns#" xmlns:dc="http://purl.org/dc/elements/1.1/" xmlns:rdf="http://www.w3.org/1999/02/22-rdf-syntax-ns#" xmlns:xlink="http://www.w3.org/1999/xlink"><metadata><rdf:RDF><cc:Work rdf:about=""><dc:format>image/svg+xml</dc:format><dc:type rdf:resource="http://purl.org/dc/dcmitype/StillImage"/></cc:Work></rdf:RDF></metadata><defs><style id="current-color-scheme" type="text/css">.ColorScheme-Text {
        color:#232629;
      }</style><style type="text/css">.ColorScheme-Text { color:#444444; } .ColorScheme-Highlight { color:#4285f4; }</style><style type="text/css">.ColorScheme-Text {
        color:#232629;
      }</style><style type="text/css">.ColorScheme-Text { color:#444444; } .ColorScheme-Highlight { color:#4285f4; }</style><style type="text/css">.ColorScheme-Text {
        color:#232629;
      }</style><style type="text/css">.ColorScheme-Text { color:#444444; } .ColorScheme-Highlight { color:#4285f4; }</style><style type="text/css">.ColorScheme-Text {
        color:#232629;
      }</style><style type="text/css">.ColorScheme-Text { color:#444444; } .ColorScheme-Highlight { color:#4285f4; }</style><linearGradient id="c-9" x1="399.07" x2="399.07" y1="592.66" y2="500.8" gradientTransform="matrix(-.56857 0 0 .26022 262.48 -72.69)" gradientUnits="userSpaceOnUse"><stop stop-color="#94a2a9" offset="0"/><stop stop-color="#bec8cc" offset="1"/></linearGradient><linearGradient id="linearGradient1154" x1="19.066" x2="38.192" y1="31.26" y2="42.052" gradientTransform="matrix(-.82585 0 0 .82585 50.459 38.49)" gradientUnits="userSpaceOnUse"><stop stop-color="#292c2f" offset="0"/><stop stop-color="#292c2f" stop-opacity=".26531" offset="1"/></linearGradient><linearGradient id="linearGradient16588" x1="19.066" x2="38.192" y1="31.26" y2="42.052" gradientTransform="matrix(-1.4169 0 0 1.4169 .56051 -82.182)" gradientUnits="userSpaceOnUse" xlink:href="#linearGradient1154"/><linearGradient id="linearGradient16609" x1="19.066" x2="38.192" y1="31.26" y2="42.052" gradientTransform="matrix(-1.4169 0 0 1.4169 .5628 -76.454)" gradientUnits="userSpaceOnUse" xlink:href="#linearGradient1154"/><linearGradient id="linearGradient3" x1="19.066" x2="38.192" y1="31.26" y2="42.052" gradientTransform="matrix(-.82585 0 0 .82585 50.459 38.49)" gradientUnits="userSpaceOnUse" xlink:href="#linearGradient1154"/><style type="text/css">.ColorScheme-Text {
        color:#232629;
      }</style><style type="text/css">.ColorScheme-Text { color:#444444; } .ColorScheme-Highlight { color:#4285f4; }</style><style type="text/css">.ColorScheme-Text {
        color:#232629;
      }</style><style type="text/css">.ColorScheme-Text { color:#444444; } .ColorScheme-Highlight { color:#4285f4; }</style><style type="text/css">.ColorScheme-Text {
        color:#232629;
      }</style><style type="text/css">.ColorScheme-Text { color:#444444; } .ColorScheme-Highlight { color:#4285f4; }</style><style type="text/css">.ColorScheme-Text {
        color:#232629;
      }</style><style type="text/css">.ColorScheme-Text { color:#444444; } .ColorScheme-Highlight { color:#4285f4; }</style></defs><g transform="matrix(1.0547 0 0 1.0547 -.10032 -5.0395)"><g transform="matrix(-1.1519 0 0 1.1519 64.053 -1.747)"><g transform="matrix(.96902 0 0 .96902 6.1943 -.21985)"><g transform="matrix(1.8272,0,0,1.8272,-96.915,-162.49)"/></g><g transform="translate(56.654,66.487)"><path transform="matrix(1.7157,0,0,1.7157,-86.012,-153.86)" d="m45.811 57.627c1.2143 0 2.1919 1.2302 2.1919 2.7582v18.388c0 1.528-0.97759 2.7582-2.1919 2.7582h-23.38c-1.2143 0-2.1919-1.2302-2.1919-2.7582v-18.388c0-1.528 0.97759-2.7582 2.1919-2.7582z" fill="url(#c-9)" stroke-width=".8196"/><path d="m-51.288-26.026 4.0214-3.757 2.1662 1.8221-6.1594 5.6548c-0.0027 0.11137 0.02167-2.4808-0.02831-3.7198z" fill="url(#linearGradient16609)" opacity=".2" stroke-width="1.4169"/><path transform="matrix(1.7157,0,0,1.7157,-86.012,-153.86)" d="m20.238 67.882 2.3439-2.1898 1.2626 1.062-3.59 3.2959c-0.0016 0.06491 0.01263-1.446-0.0165-2.1681z" fill="url(#linearGradient3)" opacity=".2" stroke-width=".82585"/><path d="m-51.29-31.754 4.0214-3.757 2.1662 1.8221-6.1594 5.6548c-0.0027 0.11137 0.02167-2.4808-0.02831-3.7198z" fill="url(#linearGradient16588)" opacity=".2" stroke-width="1.4169"/><g transform="matrix(-1.4169,0,0,1.4169,-2.3419,-85.496)" fill-opacity=".96684"><path d="m31.707 31.293a1 1 0 0 0-1.4142 0 1 1 0 0 0 0 1.4142 1 1 0 0 0 1.4142 0 1 1 0 0 0 0-1.4142z" fill="#da4453"/><path d="m31 35a1 1 0 0 0-1 1 1 1 0 0 0 1 1 1 1 0 0 0 1-1 1 1 0 0 0-1-1z" fill="#31363b"/><path d="m31 39a1 1 0 0 0-1 1 1 1 0 0 0 1 1 1 1 0 0 0 1-1 1 1 0 0 0-1-1z" fill="#31363b"/></g><path transform="matrix(1.7157,0,0,1.7157,-86.012,-153.86)" d="m48.003 78.609v0.73063c0 1.2143-0.97759 2.1919-2.1919 2.1919h-23.38c-1.2143 0-2.1919-0.97759-2.1919-2.1919v-0.73063c0 1.2143 0.97759 2.1919 2.1919 2.1919h23.38c1.2143 0 2.1919-0.97759 2.1919-2.1919z" fill="#292c2f" opacity=".4" stroke-width=".73063"/></g></g><g transform="matrix(1.1519 0 0 1.1519 295.81 15.422)"><g transform="matrix(1.2376 0 0 1.2376 -265.05 -22.504)"><circle cx="26" cy="32" r="10" fill="#0d2e47" stroke="#eaf6fc" stroke-width="2"/><circle cx="26" cy="32" r="4.5" fill="#43c0eb"/><circle cx="29" cy="29" r="1.6" fill="#eaf6fc"/></g></g></g></svg>
