<?xml version="1.0" encoding="UTF-8"?>
<svg width="64" height="64" version="1.1" viewBox="0 0 64 64" xmlns="http://www.w3.org/2000/svg" xmlns:cc="http://creativecommons.org/ns#" xmlns:dc="http://purl.org/dc/elements/1.1/" xmlns:rdf="http://www.w3.org/1999/02/22-rdf-syntax-ns#" xmlns:xlink="http://www.w3.org/1999/xlink">
  <metadata>
    <rdf:RDF>
      <cc:Work rdf:about="">
        <dc:format>image/svg+xml</dc:format>
        <dc:type rdf:resource="http://purl.org/dc/dcmitype/StillImage"/>
      </cc:Work>
    </rdf:RDF>
  </metadata>
  <defs>
    <style id="current-color-scheme" type="text/css">.ColorScheme-Text {
        color:#232629;
      }</style>
    <style type="text/css">.ColorScheme-Text { color:#444444; } .ColorScheme-Highlight { color:#4285f4; }</style>
    <style type="text/css">.ColorScheme-Text {
        color:#232629;
      }</style>
    <style type="text/css">.ColorScheme-Text { color:#444444; } .ColorScheme-Highlight { color:#4285f4; }</style>
    <linearGradient id="a">
      <stop stop-color="#94a2a9" offset="0"/>
      <stop stop-color="#bec8cc" offset="1"/>
    </linearGradient>
    <style type="text/css">.ColorScheme-Text {
        color:#232629;
      }</style>
    <style type="text/css">.ColorScheme-Text { color:#444444; } .ColorScheme-Highlight { color:#4285f4; }</style>
    <style type="text/css">.ColorScheme-Text {
        color:#232629;
      }</style>
    <style type="text/css">.ColorScheme-Text { color:#444444; } .ColorScheme-Highlight { color:#4285f4; }</style>
    <linearGradient id="e-5" x1="50.5" x2="50.5" y1="23" y2="41" gradientTransform="matrix(.28276 0 0 -.54981 4.7405 89.936)" gradientUnits="userSpaceOnUse">
      <stop stop-color="#2f3943" offset="0"/>
      <stop stop-color="#4d5662" offset="1"/>
    </linearGradient>
    <linearGradient id="c-9" x1="399.07" x2="399.07" y1="592.66" y2="500.8" gradientTransform="matrix(-.56857 0 0 .26022 262.48 -72.69)" gradientUnits="userSpaceOnUse" xlink:href="#a"/>
    <linearGradient id="g-2" x1="54" x2="54" y1="49" y2="25" gradientTransform="matrix(-.32627 0 0 .7069 33.376 46.186)" gradientUnits="userSpaceOnUse" xlink:href="#a"/>
    <linearGradient id="linearGradient1154" x1="19.066" x2="38.192" y1="31.26" y2="42.052" gradientTransform="matrix(-.82585 0 0 .82585 50.459 38.49)" gradientUnits="userSpaceOnUse">
      <stop stop-color="#292c2f" offset="0"/>
      <stop stop-color="#292c2f" stop-opacity=".26531" offset="1"/>
    </linearGradient>
  </defs>
  <g transform="matrix(-1,0,0,1,56,0)">
    <g transform="matrix(.96902 0 0 .96902 6.1943 -.21985)">
      <g transform="matrix(1.8272 0 0 1.8272 -96.915 -162.49)">
        <g transform="matrix(1.1683 0 0 1.1683 -8.3333 -14.936)"></g>
      </g>
    </g>
    <g transform="translate(56.654 66.487)">
      <path transform="matrix(1.7157 0 0 1.7157 -86.012 -153.86)" d="m45.811 57.627c1.2143 0 2.1919 1.2302 2.1919 2.7582v18.388c0 1.528-0.97759 2.7582-2.1919 2.7582h-23.38c-1.2143 0-2.1919-1.2302-2.1919-2.7582v-18.388c0-1.528 0.97759-2.7582 2.1919-2.7582z" fill="url(#c-9)" stroke-width=".8196"/>
      <g transform="matrix(1.3519 0 0 1.8704 -79.868 -169.78)">
        <path d="m14.452 63.859 4.5678 3.5207v9.8966l-4.5678 3.5483-0.97882-0.0138v-16.966z" fill="url(#g-2)" stroke-width=".48025"/>
        <path d="m19.02 77.29v-9.8966h2.1207v9.8966h-1e-6z" fill="url(#e-5)" stroke-linecap="round" stroke-width=".49985"/>
      </g>
      <path transform="matrix(1.7157 0 0 1.7157 -86.012 -153.86)" d="m26.132 66.051 13.155 12.735-1.9749 2.019-15.019-0.0067c-1.2093-5.42e-4 -2.0625-1.2322-2.0618-2.0363l0.0064-10.88 2.3439-2.1898 1.2626 1.062-3.59 3.2959-0.01758 0.93637 2.3436-1.9846 0.35283-0.19774z" fill="url(#linearGradient1154)" opacity=".2" stroke-width=".82585"/>
      <g transform="matrix(-1.4169 0 0 1.4169 -2.3419 -85.496)" fill-opacity=".96684">
        <path d="m31.707 31.293a1 1 0 0 0-1.4142 0 1 1 0 0 0 0 1.4142 1 1 0 0 0 1.4142 0 1 1 0 0 0 0-1.4142z" fill="#da4453"/>
        <path d="m31 35a1 1 0 0 0-1 1 1 1 0 0 0 1 1 1 1 0 0 0 1-1 1 1 0 0 0-1-1z" fill="#31363b"/>
        <path d="m31 39a1 1 0 0 0-1 1 1 1 0 0 0 1 1 1 1 0 0 0 1-1 1 1 0 0 0-1-1z" fill="#31363b"/>
      </g>
      <path transform="matrix(1.7157 0 0 1.7157 -86.012 -153.86)" d="m48.003 78.609v0.73063c0 1.2143-0.97759 2.1919-2.1919 2.1919h-23.38c-1.2143 0-2.1919-0.97759-2.1919-2.1919v-0.73063c0 1.2143 0.97759 2.1919 2.1919 2.1919h23.38c1.2143 0 2.1919-0.97759 2.1919-2.1919z" fill="#292c2f" opacity=".4" stroke-width=".73063"/>
      <g transform="matrix(-1.4224 0 0 -1.4224 206.96 949)">
        <g transform="matrix(.56784 0 0 .56784 66.122 309.43)">
          <g transform="translate(184.52 674.15)">
            <path d="m0 0 6.244 6.042-16.926 5.521c-1.23 0.326-2.338 0.549-3.32 0.681-1.609 0.205-3.023 0.175-4.236-0.11-1.465-0.338-2.384-0.95-2.746-1.849-0.368-0.895-0.107-1.881 0.769-2.949 1.252-1.524 4.727-2.971 10.422-4.344 0.458-0.106 0.795-0.185 1.031-0.233 3.741-0.9 6.661-1.821 8.762-2.759m-21.7-21.008 10.853 10.504-1.089 1.323c0.585-0.263 1.147-0.51 1.696-0.736l6.934 6.711c-1.239 0.393-2.806 0.828-4.708 1.294-5.533 1.392-9.277 2.589-11.228 3.603-1.951 1.016-3.628 2.381-5.021 4.076-1.969 2.397-2.679 4.563-2.14 6.51 0.412 1.498 1.507 2.609 3.274 3.345l-7.611 2.483z" fill="#241f1f" fill-rule="evenodd"/>
          </g>
          <g transform="translate(161.55 689.9)">
            <path d="m0 0c0.483 0.188 1.015 0.349 1.594 0.481 1.259 0.292 2.636 0.405 4.149 0.344 1.503-0.06 3.168-0.303 5.002-0.734l4.03-4.908zm15.771-30.692-3.651 4.445 0.629 0.609c2.037-0.836 3.814-1.408 5.324-1.716 1.918-0.396 3.649-0.418 5.174-0.062 1.618 0.372 2.603 1.02 2.952 1.951 0.348 0.926 0.025 1.998-0.98 3.22-0.811 0.991-1.852 1.797-3.107 2.41-0.566 0.275-1.375 0.581-2.422 0.915l3.301 3.192c0.474-0.21 0.907-0.429 1.301-0.647 2.109-1.175 4.02-2.796 5.72-4.868 1.925-2.344 2.622-4.494 2.067-6.448-0.544-1.945-2.223-3.247-5.045-3.9-1.754-0.404-3.541-0.542-5.34-0.394-1.8 0.135-3.781 0.572-5.923 1.293" fill="#1a74ba" fill-rule="evenodd"/>
          </g>
        </g>
      </g>
    </g>
  </g>
</svg>
