<?xml version="1.0" encoding="UTF-8" standalone="no"?>
<svg
   width="10"
   height="10"
   version="1.1"
   viewBox="0 0 10 10"
   id="svg11"
   sodipodi:docname="module-failure-not-critical.svg"
   inkscape:version="1.2.2 (b0a8486541, 2022-12-01)"
   xmlns:inkscape="http://www.inkscape.org/namespaces/inkscape"
   xmlns:sodipodi="http://sodipodi.sourceforge.net/DTD/sodipodi-0.dtd"
   xmlns="http://www.w3.org/2000/svg"
   xmlns:svg="http://www.w3.org/2000/svg"
   xmlns:rdf="http://www.w3.org/1999/02/22-rdf-syntax-ns#"
   xmlns:cc="http://creativecommons.org/ns#"
   xmlns:dc="http://purl.org/dc/elements/1.1/">
  <sodipodi:namedview
     id="namedview13"
     pagecolor="#ffffff"
     bordercolor="#999999"
     borderopacity="1"
     inkscape:showpageshadow="0"
     inkscape:pageopacity="0"
     inkscape:pagecheckerboard="0"
     inkscape:deskcolor="#d1d1d1"
     showgrid="false"
     inkscape:zoom="32"
     inkscape:cx="1.421875"
     inkscape:cy="11.640625"
     inkscape:window-width="2362"
     inkscape:window-height="1300"
     inkscape:window-x="1828"
     inkscape:window-y="64"
     inkscape:window-maximized="0"
     inkscape:current-layer="g9" />
  <metadata
     id="metadata2">
    <rdf:RDF>
      <cc:Work
         rdf:about="">
        <dc:format>image/svg+xml</dc:format>
        <dc:type
           rdf:resource="http://purl.org/dc/dcmitype/StillImage" />
      </cc:Work>
    </rdf:RDF>
  </metadata>
  <defs
     id="defs5">
    <style
       id="current-color-scheme"
       type="text/css">.ColorScheme-Text {
        color:#232629;
      }
      .ColorScheme-PositiveText {
        color:#27ae60;
      }</style>
  </defs>
  <g
     transform="matrix(.11111 0 0 .11111 9.8103e-6 -3.3831e-5)"
     fill="#d44b00"
     id="g9">
    <path
       d="m 45,86.588 c -0.164,0 -0.329,-0.041 -0.477,-0.124 C 34.494,80.869 18.883,67.732 12.4,59.433 -0.99,42.295 -3.906,22.171 5.466,11.583 13.381,2.643 23.840725,0.855 35.262725,7.133 c 0.226,0.125 0.394,0.334 0.467,0.581 l 2.639285,19.1 c 0.073,0.248 0.045,0.514 -0.077,0.741 l -7.743,14.38 15.296129,23.116015 -0.844777,-21.387224 c -0.073,-0.285 -0.014,-0.588 0.161,-0.825 l 11.417,-15.446 L 51.7176,9.394 C 51.6386,9.01 51.7956,8.601 52.1436,8.376 63.9496,0.72 76.082,2.036 84.534,11.582 93.906,22.17 90.989,42.294 77.6,59.432 71.117,67.732 55.505,80.868 45.477,86.463 45.329,86.547 45.164,86.588 45,86.588 Z"
       fill="#d44b00"
       stroke-linecap="round"
       id="path7"
       sodipodi:nodetypes="scccccccccccccccccs" />
  </g>
</svg>
