<?xml version="1.0" encoding="UTF-8"?>
<svg width="10" height="10" version="1.1" viewBox="0 0 10 10" xml:space="preserve" xmlns="http://www.w3.org/2000/svg" xmlns:cc="http://creativecommons.org/ns#" xmlns:dc="http://purl.org/dc/elements/1.1/" xmlns:rdf="http://www.w3.org/1999/02/22-rdf-syntax-ns#"><metadata><rdf:RDF><cc:Work rdf:about=""><dc:format>image/svg+xml</dc:format><dc:type rdf:resource="http://purl.org/dc/dcmitype/StillImage"/></cc:Work></rdf:RDF></metadata><defs><style id="current-color-scheme" type="text/css">
      .ColorScheme-Text {
        color:#232629;
      }
      .ColorScheme-PositiveText {
        color:#27ae60;
      }
      </style></defs><style type="text/css">
        .ColorScheme-Text {
            color:#232629;
        }
    </style><style type="text/css">
        .ColorScheme-Text {
            color:#232629;
        }
    </style><style type="text/css">
        .ColorScheme-Text {
            color:#232629;
        }
    </style><g class="ColorScheme-Text" transform="translate(-11 3.9246)"><path d="m13.709-3.9274c-1.6729 0.9506-2.707 2.7267-2.7083 4.6518 0 2.9566 2.3951 5.3534 5.3497 5.3538 1.9209-0.00251 3.693-1.0352 4.6431-2.7057l0.0067-0.00401-0.49453-0.49389-0.0026 0.00401c-0.66351 0.34301-1.3994 0.52221-2.1462 0.52266-2.5852-7.021e-4 -4.6806-2.0979-4.6806-4.6846 9.28e-4 -0.74845 0.18107-1.4858 0.52534-2.1503zm-0.4979 1.1852c-1.474-1.1796-0.73699-0.58982 0 0z" fill="#fdbc4b" stroke-width="1.059"/><path d="m11.09 0.2517v1.2688h2.7523l-2.7523 2.9093v0.89702h4.8013v-1.2688h-2.7523l2.7523-2.9093v-0.89702h-0.84863zm5.0195-3.4276v1.2688h2.7523l-2.7523 2.9093v0.89702h4.8013v-1.2688h-2.7523l2.7523-2.9093v-0.89702h-0.84863z" fill="#2980b9" stroke-width="1.6301"/></g></svg>
