<?xml version="1.0" encoding="UTF-8" standalone="no"?>
<svg
   width="64"
   height="64"
   version="1.1"
   xml:space="preserve"
   id="svg4"
   sodipodi:docname="jsonwriter.svg"
   inkscape:version="1.4.2 (ebf0e940d0, 2025-05-08)"
   xmlns:inkscape="http://www.inkscape.org/namespaces/inkscape"
   xmlns:sodipodi="http://sodipodi.sourceforge.net/DTD/sodipodi-0.dtd"
   xmlns:xlink="http://www.w3.org/1999/xlink"
   xmlns="http://www.w3.org/2000/svg"
   xmlns:svg="http://www.w3.org/2000/svg"
   xmlns:rdf="http://www.w3.org/1999/02/22-rdf-syntax-ns#"
   xmlns:cc="http://creativecommons.org/ns#"
   xmlns:dc="http://purl.org/dc/elements/1.1/"><sodipodi:namedview
     id="namedview4"
     pagecolor="#ffffff"
     bordercolor="#999999"
     borderopacity="1"
     inkscape:showpageshadow="2"
     inkscape:pageopacity="0"
     inkscape:pagecheckerboard="0"
     inkscape:deskcolor="#d1d1d1"
     inkscape:zoom="6.424728"
     inkscape:cx="15.876158"
     inkscape:cy="34.009222"
     inkscape:window-width="2560"
     inkscape:window-height="1376"
     inkscape:window-x="0"
     inkscape:window-y="0"
     inkscape:window-maximized="1"
     inkscape:current-layer="svg4" /><metadata
     id="metadata1"><rdf:RDF><cc:Work
         rdf:about=""><dc:format>image/svg+xml</dc:format><dc:type
           rdf:resource="http://purl.org/dc/dcmitype/StillImage" /></cc:Work></rdf:RDF></metadata><defs
     id="defs2"><linearGradient
       id="linearGradient8385"><stop
         offset="0"
         id="stop1" /><stop
         stop-color="#fff"
         offset="1"
         id="stop2" /></linearGradient><linearGradient
       id="linearGradient3002"
       x1="-553.27"
       x2="-666.12"
       y1="525.91"
       y2="413.05"
       gradientTransform="matrix(.99884 0 0 .9987 689.01 -388.84)"
       gradientUnits="userSpaceOnUse"
       xlink:href="#linearGradient8385" /><linearGradient
       id="linearGradient3005"
       x1="-666.12"
       x2="-553.27"
       y1="413.04"
       y2="525.91"
       gradientTransform="matrix(.99884 0 0 .9987 689.01 -388.84)"
       gradientUnits="userSpaceOnUse"
       xlink:href="#linearGradient8385" /><linearGradient
       id="SVGID_1_"
       gradientUnits="userSpaceOnUse"
       x1="593.78223"
       y1="115.9433"
       x2="593.78223"
       y2="737.19537"
       gradientTransform="matrix(0.09517804,0,0,0.09517804,-24.514817,-8.5996)">
	<stop
   offset="0"
   style="stop-color:#E58077"
   id="stop1-7" />
	<stop
   offset="0.0872"
   style="stop-color:#E57A77"
   id="stop2-5" />
	<stop
   offset="0.2073"
   style="stop-color:#E46876"
   id="stop3" />
	<stop
   offset="0.3465"
   style="stop-color:#E34B75"
   id="stop4" />
	<stop
   offset="0.499"
   style="stop-color:#E12374"
   id="stop5" />
	<stop
   offset="0.5612"
   style="stop-color:#E01073"
   id="stop6" />
	<stop
   offset="1"
   style="stop-color:#BB1085"
   id="stop7" />
</linearGradient></defs><style
     type="text/css"
     id="style1">
	.st0{fill:url(#SVGID_1_);}
	.st1{fill:url(#SVGID_00000043444505034493560270000015671289519791717022_);}
	.st2{fill:url(#SVGID_00000098192495756466823580000007910116142235825032_);}
	.st3{fill:#262262;}
	.st4{fill:#EF7943;}
	.st5{fill:#FFFFFF;}
	.st6{fill:#5B6670;}
	.st7{fill:#323B68;}
	.st8{fill:#21B0B7;}
	.st9{fill:#114999;}
	.st10{fill:#06262D;}
	.st11{fill:url(#SVGID_00000007421401825040132620000003018852721095758993_);}
	.st12{fill:#3D4543;}
	.st13{fill:url(#SVGID_00000127036371752475572910000003586231274947210395_);}
	.st14{fill:#E01073;}
	.st15{fill:url(#SVGID_00000150089316578371490710000002644962668904678798_);}
	.st16{fill:url(#SVGID_00000105413433408854655110000014851346176292871563_);}
	.st17{fill:url(#SVGID_00000088826569347013454740000001156675797015635587_);}
</style><path
     class="st0"
     d="m 50.498802,30.313946 -3.347408,-1.70655 v 3.42356 l 3.347408,1.70654 z m -0.214151,3.07425 -2.919107,-1.48764 v -2.9429 l 2.919107,1.48763 z m -26.098767,-20.447102 -3.27603,1.669424 v -3.343604 l 3.27603,-1.669424 z m 0,3.823303 -3.27603,1.669424 v -3.343608 l 3.27603,-1.669424 z m 0,3.822348 -3.27603,1.669424 v -3.343603 l 3.27603,-1.669424 z m 3.703377,1.93497 -3.276031,1.669424 v -3.343604 l 3.276031,-1.669424 z m -3.703377,1.888334 -3.27603,1.669419 v -3.343603 l 3.27603,-1.669423 z m 0,-15.292258 -3.27603,1.669422 V 7.904274 l 3.27603,-1.65039 z m -3.704332,1.888333 -3.276027,1.669423 V 9.771666 L 20.481552,8.12128 Z m 0,7.646602 -3.276027,1.669425 v -3.343604 l 3.276027,-1.669424 z m 0,3.822353 -3.276027,1.669421 v -3.343603 l 3.276027,-1.669424 z m 0,3.8233 -3.276027,1.669427 V 24.6242 l 3.276027,-1.669424 z m 7.407709,-7.599013 -3.276031,1.669424 v -3.343607 l 3.276031,-1.66942 z m -7.407709,-3.869937 -3.276027,1.669418 v -3.343603 l 3.276027,-1.669424 z m 3.704332,20.822097 -3.27603,1.63135 v -3.07805 l 3.27603,-1.66943 z M 31.648793,9.136827 28.317562,10.834804 V 7.4912 L 31.648793,5.793224 Z M 5.6651883,22.381802 2.5243145,23.982698 V 20.639095 L 5.6651883,19.038199 Z M 35.682438,15.11496 32.279824,13.380816 v 3.423554 l 3.402614,1.734145 z m -0.214151,3.074251 -2.974312,-1.516188 v -2.942904 l 2.974312,1.516188 z M 31.648793,5.313528 28.317562,7.011505 V 4.17234 l 3.331231,-1.678939 z m 4.033645,5.978129 -3.402614,-1.73414 v 3.423551 l 3.402614,1.734144 z m -0.214151,3.075202 -2.974312,-1.516184 V 9.90777 l 2.974312,1.516185 z m -14.986735,15.754827 -3.276027,1.66942 v -3.34361 l 3.276027,-1.66942 z M 5.6651883,26.205105 2.5243145,27.806006 V 24.462395 L 5.6651883,22.861502 Z M 27.889261,14.876063 24.61323,16.545487 V 13.201884 L 27.889261,11.53246 Z M 35.682438,7.469309 32.279824,5.735164 v 3.423555 l 3.402614,1.734144 z M 35.468287,10.543561 32.493975,9.027373 V 6.084467 l 2.974312,1.516189 z m -7.579026,0.509203 -3.276031,1.66942 V 9.378579 l 3.276031,-1.669423 z m 3.759532,1.906412 -3.331231,1.697977 V 11.31355 l 3.331231,-1.697978 z m 0,7.646607 -3.331231,1.697975 v -3.343607 l 3.331231,-1.697976 z m 0,-3.823303 -3.331231,1.697976 v -3.343603 l 3.331231,-1.697977 z M 27.889261,7.230411 24.61323,8.899834 V 6.038782 l 3.276031,-1.650387 z m -14.815413,33.955715 -3.2760275,1.63135 v -2.94861 l 3.2760275,-1.66942 z m 0,-3.46543 -3.2760275,1.66942 v -3.3436 l 3.2760275,-1.66942 z m 0,-11.468952 -3.2760275,1.669422 V 24.57756 L 13.073848,22.908136 Z M 9.3695161,20.493472 6.0934887,22.162895 v -3.343607 l 3.2760274,-1.66942 z m 3.7043319,9.581574 -3.2760275,1.66942 v -3.3436 L 13.073848,26.73144 Z m 0,3.82235 -3.2760275,1.66942 v -3.3436 l 3.2760275,-1.66943 z M 9.3695161,16.671123 6.0934887,18.340542 V 15.37099 l 3.2760274,-1.650388 z m 0,22.937903 -3.2760274,1.66942 v -3.3436 l 3.2760274,-1.66942 z m 0,3.4226 -3.2760274,1.63135 v -2.90483 l 3.2760274,-1.66942 z m 0,-18.71485 -3.2760274,1.669418 v -3.343603 l 3.2760274,-1.669424 z m 0,11.46895 -3.2760274,1.66942 v -3.3436 l 3.2760274,-1.66942 z m 0,-3.8233 -3.2760274,1.66942 v -3.3436 l 3.2760274,-1.66943 z m 0,-3.82235 -3.2760274,1.66942 V 26.465895 L 9.3695161,24.79647 Z m 7.4077099,3.86899 -3.276029,1.66942 v -3.34361 l 3.276029,-1.66942 z m 0,-11.46896 -3.276029,1.669425 v -3.343603 l 3.276029,-1.669425 z m 0,-3.822348 -3.276029,1.669423 v -3.343603 l 3.276029,-1.669423 z m 0,7.645652 -3.276029,1.669424 v -3.343603 l 3.276029,-1.669424 z m -3.703378,-1.934968 -3.2760275,1.669423 v -3.343608 l 3.2760275,-1.669419 z m 3.703378,-9.533984 -3.276029,1.66942 v -2.925774 l 3.276029,-1.650386 z m 0,15.292258 -3.276029,1.66942 v -3.343607 l 3.276029,-1.669422 z m 3.704326,9.30936 -3.276027,1.63135 v -3.03523 l 3.276027,-1.66942 z m -7.407704,-18.889984 -3.2760275,1.66942 v -3.343604 l 3.2760275,-1.669422 z m 0,-3.823303 -3.2760275,1.669423 V 13.504548 L 13.073848,11.85416 Z m 3.703378,21.049577 -3.276029,1.66942 v -3.3436 l 3.276029,-1.66943 z m 0,3.50921 -3.276029,1.63135 v -2.99144 l 3.276029,-1.66943 z m 3.704326,-5.39754 -3.276027,1.66942 v -3.3436 l 3.276027,-1.66943 z m 30.01725,-7.453398 -3.347408,-1.706542 v 3.42356 l 3.347408,1.70654 z m -0.214151,3.074248 -2.919107,-1.48763 v -2.942903 l 2.919107,1.487632 z m 3.917529,-5.009217 -3.34741,-1.706543 v 3.423555 l 3.34741,1.706545 z m -0.214151,3.074252 -2.919108,-1.487633 v -2.942904 l 2.919108,1.487632 z m 0.214151,-6.897552 -3.34741,-1.706542 v 3.423551 l 3.34741,1.706542 z m -0.214151,3.075203 -2.919108,-1.487636 v -2.942905 l 2.919108,1.487636 z m 0.214151,4.571404 -3.34741,-1.706546 v 3.423556 l 3.34741,1.70654 z m -0.214151,3.07425 -2.919108,-1.48764 v -2.942903 l 2.919108,1.487633 z m 4.275397,10.06507 3.212259,1.63707 v -3.42356 l -3.212259,-1.63706 z m 0.21415,-3.07425 2.78396,1.41911 v 2.9429 l -2.78396,-1.4191 z M 54.20218,16.910016 50.85477,15.203474 v 3.423555 l 3.34741,1.706543 z m -0.214151,3.074252 -2.919108,-1.487631 v -2.942905 l 2.919108,1.487631 z m 4.275397,17.711678 3.212259,1.63707 v -3.42356 l -3.212259,-1.63706 z m 0.21415,-3.0752 2.78396,1.4191 v 2.94291 l -2.78396,-1.4191 z M 50.498802,11.616217 47.151394,9.929663 v 2.986683 l 3.347408,1.706543 z m -0.214151,2.656417 -2.919107,-1.48763 v -2.507943 l 2.919107,1.4705 z m 3.917529,25.575292 -3.34741,-1.70654 v 3.06663 l 3.34741,1.66752 z m -0.214151,2.68212 -2.919108,-1.45433 v -2.58503 l 2.919108,1.48763 z M 27.889261,30.647066 v 3.15896 l -3.276031,1.63135 v -3.12089 z m 26.312919,1.55425 -3.34741,-1.70654 v 3.42356 l 3.34741,1.70654 z m -0.214151,3.07521 -2.919108,-1.48763 v -2.94291 l 2.919108,1.48763 z M 54.20218,13.482655 50.85477,11.796101 v 3.008581 l 3.34741,1.706541 z m -0.214151,2.67831 -2.919108,-1.48763 v -2.529833 l 2.919108,1.4705 z m 4.275397,28.737111 3.212259,1.59994 v -2.94291 l -3.212259,-1.63706 z m 0.21415,-2.63072 2.78396,1.4191 v 2.46606 l -2.78396,-1.38674 z M 43.12536,36.518596 h -0.0021 l -0.0333,-0.0152 v -2.32044 l -3.347437,-1.70654 v 2.72781 l -0.356919,0.17893 v -3.08853 l -1.414344,-0.7205 0.202729,-0.29601 1.211615,0.61771 v -2.38421 l 0.35692,-0.52062 v 3.08757 l 3.347409,1.70655 v -3.42358 l -3.176087,-1.61898 0.202729,-0.296 2.973358,1.51523 v -3.423554 l -1.233508,-0.629125 0.20273,-0.296002 1.030778,0.525381 v -2.029195 l 0.190358,-0.27792 0.01426,-5.043485 -3.51207,-1.72653 -0.396893,0.202729 V 17.0033 l -3.347411,-1.706542 v 3.423551 l 0.243657,0.124686 -0.600572,0.30647 V 18.93827 l -3.402619,-1.734145 v 3.423555 l 0.253174,0.129439 -0.884203,0.450193 v -0.122779 l -3.331233,1.697977 v 0.121827 L 27.88808,23.122294 V 23.00047 l -3.276026,1.669425 v 0.121825 l -0.428301,0.21796 v -0.12183 l -3.276026,1.669425 v 3.343601 l 1.485725,-0.75666 v 0.47874 l -1.485725,0.75762 v 3.3436 l 3.276026,-1.66942 v -1.21923 l 0.428301,0.21225 v 0.78902 l 0.785219,-0.39974 0.252219,0.12468 6.684356,-3.2608 0.05139,0.0266 -0.737629,1.06409 v -0.66149 l -3.331232,1.69798 v 3.16467 l 0.64155,-0.3198 -0.700511,1.01079 -25.5191248,12.68247 29.6003708,14.59841 29.008359,-14.50323 -18.225638,-9.12281 z m -3.167525,-7.51525 2.919113,1.48763 v 2.9429 l -2.919113,-1.48763 z m 0,3.82329 2.919113,1.48764 v 2.09297 l -2.919113,-1.30585 z m -0.0021,2.9077 2.354708,1.05266 -12.020988,5.99432 2.296647,-3.35027 z m -1.493343,0.11135 z m -0.08471,0.0428 -5.119629,2.56219 2.658323,-3.8785 -0.03425,0.0685 z m 0.323604,-0.1618 -2.662128,-1.33249 0.288388,-0.42164 2.94671,1.46764 z m 0.471131,-3.30078 v 2.724 l -2.72209,-1.35533 1.400068,-2.04157 z m 0,-0.87944 -0.875638,-0.44639 0.875638,-1.27633 z m 3.703376,-4.877873 v 2.942903 l -2.637381,-1.34392 1.495248,-2.181473 z m 0,-0.879449 -0.694796,-0.354058 0.694796,-1.013647 z m -6.622309,-7.199266 v -2.942906 l 2.919108,1.487632 v 0.238899 l -2.653563,1.352478 z m -3.759533,1.906417 v -2.942906 l 2.974313,1.516185 v 0.191308 l -2.69925,1.375325 z m -7.130737,10.270661 -2.417526,-1.24398 0.0086,-3.116125 2.418475,1.237313 z m -2.057751,-4.830285 16.481027,-8.230997 2.564098,1.260155 -16.650448,8.195784 z m 2.639285,4.839805 0.0086,-3.096143 16.759908,-8.249084 v 4.222096 l -14.157762,20.631741 14.140598,-7.04508 v 3.4207 l -16.808439,8.27763 v -4.44005 L 40.04158,23.900845 Z m 7.559995,-3.043798 4.820767,-2.352799 -12.921373,18.889987 -2.73827,-0.89848 z m -8.203395,21.227558 -2.815368,-1.19924 0.01045,-3.83853 2.737321,0.89848 z m 17.845882,-7.96926 0.04284,-0.0209 0.0076,-2.66879 17.50134,8.76017 -28.360189,14.17962 -28.9455457,-14.27575 24.6644397,-12.25703 -6.026677,8.69737 -0.0133,0.0191 -0.03805,4.66468 3.626285,1.54283 z m 11.054926,-4.96638 -3.347409,-1.70655 v 3.42356 l 3.347409,1.70654 z m -0.21415,3.07425 -2.919109,-1.48764 v -2.94291 l 2.919109,1.48764 z m 3.918531,-16.478182 -3.347414,-1.70559 v 3.423552 l 3.347414,1.706543 z m -0.214176,3.074248 -2.919113,-1.487633 v -2.942904 l 2.919113,1.487632 z m 0.571065,8.177694 3.212259,1.63706 v -3.42355 l -3.212259,-1.63706 z m 0.21415,-3.07425 2.78396,1.41911 v 2.9429 l -2.78396,-1.4191 z m -0.21415,-4.571399 3.212259,1.637059 v -3.423553 l -3.212259,-1.637061 z m 0.21415,-3.074251 2.78396,1.419104 v 2.942906 l -2.78396,-1.419106 z m -0.21415,-0.749052 3.212259,1.63706 v -3.423551 l -3.212259,-1.637061 z m 0.21415,-3.074248 2.78396,1.4191 v 2.942905 l -2.78396,-1.4191 z m -0.571065,-3.980309 -3.347413,-1.686555 v 3.029519 l 3.347413,1.706542 z m -0.214149,2.700202 -2.919114,-1.487631 v -2.550773 l 2.919114,1.470501 z m 0.214149,0.749051 -3.347413,-1.706542 v 3.423556 l 3.347413,1.706542 z m -0.214149,3.074253 -2.919114,-1.487636 v -2.943855 l 2.919114,1.48763 z m 0.214149,4.5714 -3.347413,-1.706542 v 3.423555 l 3.347413,1.70654 z m -0.214149,3.074253 -2.919114,-1.48764 v -2.942902 l 2.919114,1.487636 z m 0.214149,12.218 -3.347413,-1.70654 v 3.02381 l 3.347413,1.66752 z m -0.214149,2.63834 -2.919114,-1.45433 v -2.54125 l 2.919114,1.48763 z m 0.214149,-6.46164 -3.347413,-1.70654 v 3.42355 l 3.347413,1.70654 z m -0.214149,3.07425 -2.919114,-1.48763 v -2.94291 l 2.919114,1.48763 z m 0.571065,-10.93786 3.212259,1.63706 v -3.42355 L 58.263427,26.62579 Z m 0.214149,-3.074252 2.78396,1.419102 v 2.94291 l -2.78396,-1.41911 z m -0.571065,7.114562 -3.347413,-1.70559 v 3.42355 l 3.347413,1.70655 z m -0.214149,3.07425 -2.919114,-1.48763 v -2.94291 l 2.919114,1.48763 z m 0.214149,-6.8966 -3.347413,-1.70654 v 3.42355 l 3.347413,1.70654 z m -0.214149,3.07425 -2.919114,-1.48763 v -2.94386 l 2.919114,1.48763 z M 46.794474,24.602307 43.447061,22.895766 v 3.423555 l 3.347413,1.706545 z m -0.214149,3.074254 -2.919111,-1.487636 v -2.942907 l 2.919111,1.487636 z M 39.386766,6.016891 36.039357,4.330335 v 2.921968 l 3.347409,1.706542 z M 39.172616,8.608592 36.253507,7.120956 V 4.677738 l 2.919109,1.4705 z m 7.621858,23.639364 -3.347413,-1.70654 v 3.42356 l 3.347413,1.70654 z m -0.214149,3.07521 -2.919111,-1.48764 v -2.9429 l 2.919111,1.48763 z M 43.090142,11.245022 39.742734,9.538479 v 3.423556 l 3.347408,1.706537 z m -0.214149,3.074249 -2.919108,-1.487633 V 9.888734 l 2.919108,1.487631 z m 0.214149,0.74905 -3.347408,-1.706542 v 3.423555 l 3.347408,1.706543 z m -0.214149,3.074253 -2.919108,-1.487633 v -2.942904 l 2.919108,1.487632 z m 7.622809,-3.120888 -3.347408,-1.706543 V 16.7387 l 3.347408,1.706542 z m -0.214151,3.074253 -2.919107,-1.487636 v -2.942905 l 2.919107,1.487636 z m -3.490177,17.975317 -3.347413,-1.70654 v 3.15325 l 3.347413,1.66752 z m -0.21415,2.76874 -2.919111,-1.45433 v -2.67164 l 2.919111,1.48763 z m -40.9151357,6.03618 -3.1408738,1.56473 v -2.8639 l 3.1408738,-1.6009 z m 0,-11.02542 -3.1408738,1.60089 v -3.3436 l 3.1408738,-1.60089 z m 0,7.64565 -3.1408738,1.6009 v -3.34361 l 3.1408738,-1.60089 z M 39.386765,13.179991 36.039356,11.473449 v 3.423555 l 3.347409,1.706542 z m -0.21415,3.074252 -2.919108,-1.487636 v -2.942905 l 2.919108,1.487636 z M 35.682439,4.150453 32.279825,2.435344 V 5.335416 L 35.682439,7.06956 Z M 35.468288,6.720258 32.493975,5.204073 v -2.42038 l 2.974313,1.499057 z m -29.8030997,30.953798 -3.1408738,1.6009 v -3.34361 l 3.1408738,-1.60089 z M 39.386765,9.357642 36.039356,7.6511 v 3.423551 l 3.347409,1.706542 z m -0.21415,3.074249 -2.919108,-1.487632 V 8.001354 l 2.919108,1.487632 z M 43.090142,7.883333 39.742734,6.196778 v 2.942904 l 3.347408,1.706543 z M 42.875993,10.496921 39.956885,9.00929 V 6.545131 l 2.919108,1.4705 z M 5.6651883,18.558502 2.5243145,20.159395 v -2.989539 l 3.1408738,-1.582811 z m 44.8336137,19.401094 -3.347408,-1.70654 v 3.11041 l 3.347408,1.66752 z m -0.214151,2.72495 -2.919107,-1.45433 v -2.62786 l 2.919107,1.48763 z m 7.978775,-25.155561 v 3.05141 l 3.212259,1.637061 v -3.070442 z m 2.99811,4.340118 -2.78396,-1.419105 v -2.57266 l 2.78396,1.402923 z m -10.762734,14.267193 -3.347408,-1.70655 v 3.42356 l 3.347408,1.70654 z m -0.214151,3.07425 -2.919107,-1.48764 v -2.9429 l 2.919107,1.48763 z m 0.214151,-14.543208 -3.347408,-1.706542 v 3.423556 l 3.347408,1.706538 z m -0.214151,3.074249 -2.919107,-1.487633 v -2.942905 l 2.919107,1.487633 z m 0.214151,-6.896598 -3.347408,-1.706541 v 3.42355 l 3.347408,1.706542 z m -0.214151,3.074249 -2.919107,-1.487632 v -2.942905 l 2.919107,1.487632 z M 46.794474,9.749775 43.447061,8.06322 v 2.964797 l 3.347413,1.706542 z m -0.214149,2.63548 -2.919111,-1.487636 V 8.411572 l 2.919111,1.4705 z m -40.9151367,17.642201 -3.1408738,1.6009 v -3.34361 L 5.6651883,26.68385 Z M 46.794474,20.779004 43.447061,19.072462 v 3.423556 l 3.347413,1.706541 z m -0.214149,3.075203 -2.919111,-1.487632 V 19.42367 l 2.919111,1.487632 z m 0.214149,-6.897552 -3.347413,-1.706542 v 3.423555 l 3.347413,1.706543 z m -0.214149,3.074253 -2.919111,-1.487636 v -2.942906 l 2.919111,1.487636 z m 0.214149,8.394708 -3.347413,-1.706547 v 3.423557 l 3.347413,1.70654 z m -0.214149,3.07424 -2.919111,-1.48763 v -2.942904 l 2.919111,1.487634 z M 46.794474,13.133352 43.447061,11.42681 v 3.423555 l 3.347413,1.706542 z m -0.214149,3.074253 -2.919111,-1.487633 v -2.942904 l 2.919111,1.487631 z"
     id="path7"
     style="fill:url(#SVGID_1_);stroke-width:0.095178" /></svg>
